<svg version="1.1" viewBox="0.0 0.0 733.0 457.0" fill="none" stroke="none" stroke-linecap="square" stroke-miterlimit="10" width="733" height="457" xmlns:xlink="http://www.w3.org/1999/xlink" xmlns="http://www.w3.org/2000/svg"><path fill="#ffffff" d="M0 0L733.0 0L733.0 457.0L0 457.0L0 0Z" fill-rule="nonzero"/><path fill="#4285f4" d="M366.5 62.083332C447.30435 62.083332 518.86865 114.24531 543.6033 191.17087L366.5 248.11667Z" fill-rule="nonzero"/><path fill="#ea4335" d="M543.6033 191.17087C568.4808 268.5407 540.25543 353.1045 473.89407 400.02097L366.5 248.11667Z" fill-rule="nonzero"/><path fill="#ff6d01" d="M190.80203 186.97235C216.82481 112.19602 287.32498 62.083332 366.5 62.083332L366.5 248.11667Z" fill-rule="nonzero"/><path fill="#34a853" d="M254.50867 396.66412C189.98647 348.0202 164.24374 263.2875 190.80203 186.97235L366.5 248.11667Z" fill-rule="nonzero"/><path fill="#fbbc04" d="M473.89407 400.02097C407.81857 446.73535 319.124 445.37823 254.50867 396.66412L366.5 248.11667Z" fill-rule="nonzero"/><path fill="#000000" d="M438.5786 127.21724L438.5786 126.02974L445.0786 126.02974L445.0786 126.982864Q444.10986 127.99849 443.17236 129.68599Q442.23486 131.37349 441.71924 133.17036Q441.35986 134.42036 441.2505 135.92036L439.98486 135.92036Q440.0005 134.73286 440.438 133.06099Q440.8911 131.38911 441.71924 129.84224Q442.563 128.27974 443.5005 127.21724L438.5786 127.21724ZM447.188 135.92036L447.188 134.51411L448.59424 134.51411L448.59424 135.92036L447.188 135.92036ZM454.4536 135.92036L454.4536 133.51411L450.09424 133.51411L450.09424 132.38911L454.67236 125.90474L455.67236 125.90474L455.67236 132.38911L457.03174 132.38911L457.03174 133.51411L455.67236 133.51411L455.67236 135.92036L454.4536 135.92036ZM454.4536 132.38911L454.4536 127.87349L451.313 132.38911L454.4536 132.38911ZM463.1411 135.92036L461.90674 135.92036L461.90674 128.07661Q461.46924 128.49849 460.73486 128.93599Q460.0161 129.35786 459.4536 129.56099L459.4536 128.37349Q460.48486 127.889114 461.2505 127.201614Q462.03174 126.514114 462.34424 125.857864L463.1411 125.857864L463.1411 135.92036Z" fill-rule="nonzero"/><path fill="#000000" d="M491.72696 290.66516L491.72696 289.47766L498.22696 289.47766L498.22696 290.4308Q497.2582 291.4464 496.3207 293.1339Q495.3832 294.8214 494.86758 296.6183Q494.5082 297.8683 494.39883 299.3683L493.1332 299.3683Q493.14883 298.1808 493.58633 296.5089Q494.03946 294.83704 494.86758 293.29016Q495.71133 291.72766 496.64883 290.66516L491.72696 290.66516ZM500.33633 299.3683L500.33633 297.96204L501.74258 297.96204L501.74258 299.3683L500.33633 299.3683ZM507.60196 299.3683L507.60196 296.96204L503.24258 296.96204L503.24258 295.83704L507.8207 289.35266L508.8207 289.35266L508.8207 295.83704L510.18008 295.83704L510.18008 296.96204L508.8207 296.96204L508.8207 299.3683L507.60196 299.3683ZM507.60196 295.83704L507.60196 291.3214L504.46133 295.83704L507.60196 295.83704ZM511.64883 296.7433L512.9457 296.6339Q513.0863 297.5714 513.6019 298.0558Q514.1332 298.52454 514.86755 298.52454Q515.7582 298.52454 516.36755 297.85266Q516.99255 297.1808 516.99255 296.08704Q516.99255 295.02454 516.3988 294.41516Q515.80505 293.8058 514.8519 293.8058Q514.2582 293.8058 513.7738 294.08704Q513.30505 294.35266 513.0238 294.77454L511.86758 294.6339L512.8363 289.47766L517.8207 289.47766L517.8207 290.66516L513.8207 290.66516L513.2894 293.35266Q514.1957 292.72766 515.18005 292.72766Q516.49255 292.72766 517.3832 293.6339Q518.2894 294.54016 518.2894 295.97766Q518.2894 297.33704 517.5082 298.3214Q516.5394 299.54016 514.86755 299.54016Q513.5082 299.54016 512.6332 298.77454Q511.77383 298.0089 511.64883 296.7433Z" fill-rule="nonzero"/><path fill="#000000" d="M350.7676 400.52298L350.7676 399.33548L357.2676 399.33548L357.2676 400.2886Q356.29886 401.30423 355.36136 402.99173Q354.42386 404.67923 353.90823 406.4761Q353.54886 407.7261 353.43948 409.2261L352.17386 409.2261Q352.18948 408.0386 352.62698 406.36673Q353.0801 404.69485 353.90823 403.14798Q354.75198 401.58548 355.68948 400.52298L350.7676 400.52298ZM359.37698 409.2261L359.37698 407.81985L360.78323 407.81985L360.78323 409.2261L359.37698 409.2261ZM366.6426 409.2261L366.6426 406.81985L362.28323 406.81985L362.28323 405.69485L366.86136 399.21048L367.86136 399.21048L367.86136 405.69485L369.22073 405.69485L369.22073 406.81985L367.86136 406.81985L367.86136 409.2261L366.6426 409.2261ZM366.6426 405.69485L366.6426 401.17923L363.50198 405.69485L366.6426 405.69485ZM377.15823 408.0386L377.15823 409.2261L370.53323 409.2261Q370.5176 408.7886 370.67386 408.36673Q370.93948 407.69485 371.48636 407.0386Q372.04886 406.38235 373.09573 405.52298Q374.73636 404.17923 375.29886 403.39798Q375.87698 402.61673 375.87698 401.9136Q375.87698 401.17923 375.34573 400.67923Q374.8301 400.17923 374.00198 400.17923Q373.11136 400.17923 372.56448 400.71048Q372.03323 401.24173 372.03323 402.19485L370.7676 402.05423Q370.8926 400.64798 371.73636 399.9136Q372.59573 399.1636 374.0176 399.1636Q375.47073 399.1636 376.29886 399.96048Q377.1426 400.75735 377.1426 401.94485Q377.1426 402.55423 376.8926 403.13235Q376.65823 403.71048 376.0801 404.3511Q375.5176 404.99173 374.18948 406.11673Q373.0801 407.0386 372.7676 407.38235Q372.4551 407.71048 372.25198 408.0386L377.15823 408.0386Z" fill-rule="nonzero"/><path fill="#000000" d="M213.06178 286.97577L213.06178 285.78827L219.56178 285.78827L219.56178 286.7414Q218.59303 287.75702 217.65553 289.44452Q216.71803 291.13202 216.20241 292.9289Q215.84303 294.1789 215.73366 295.6789L214.46803 295.6789Q214.48366 294.4914 214.92116 292.81952Q215.37428 291.14764 216.20241 289.60077Q217.04616 288.03827 217.98366 286.97577L213.06178 286.97577ZM221.67116 295.6789L221.67116 294.27264L223.07741 294.27264L223.07741 295.6789L221.67116 295.6789ZM228.93678 295.6789L228.93678 293.27264L224.57741 293.27264L224.57741 292.14764L229.15553 285.66327L230.15553 285.66327L230.15553 292.14764L231.51491 292.14764L231.51491 293.27264L230.15553 293.27264L230.15553 295.6789L228.93678 295.6789ZM228.93678 292.14764L228.93678 287.63202L225.79616 292.14764L228.93678 292.14764ZM237.62428 295.6789L236.38991 295.6789L236.38991 287.83514Q235.95241 288.25702 235.21803 288.69452Q234.49928 289.1164 233.93678 289.31952L233.93678 288.13202Q234.96803 287.64764 235.73366 286.96014Q236.51491 286.27264 236.82741 285.6164L237.62428 285.6164L237.62428 295.6789Z" fill-rule="nonzero"/><path fill="#000000" d="M269.0757 126.1263L269.0757 124.9388L275.5757 124.9388L275.5757 125.89192Q274.60696 126.90755 273.66946 128.59505Q272.73196 130.28255 272.21634 132.07942Q271.85696 133.32942 271.7476 134.82942L270.48196 134.82942Q270.4976 133.64192 270.9351 131.97005Q271.3882 130.29817 272.21634 128.7513Q273.0601 127.1888 273.9976 126.1263L269.0757 126.1263ZM277.6851 134.82942L277.6851 133.42317L279.09134 133.42317L279.09134 134.82942L277.6851 134.82942ZM287.46634 133.64192L287.46634 134.82942L280.84134 134.82942Q280.8257 134.39192 280.98196 133.97005Q281.2476 133.29817 281.79446 132.64192Q282.35696 131.98567 283.40384 131.1263Q285.04446 129.78255 285.60696 129.0013Q286.1851 128.22005 286.1851 127.51692Q286.1851 126.78255 285.65384 126.28255Q285.1382 125.78255 284.3101 125.78255Q283.41946 125.78255 282.8726 126.3138Q282.34134 126.84505 282.34134 127.79817L281.0757 127.65755Q281.2007 126.2513 282.04446 125.51692Q282.90384 124.76692 284.3257 124.76692Q285.77884 124.76692 286.60696 125.5638Q287.4507 126.36067 287.4507 127.54817Q287.4507 128.15755 287.2007 128.73567Q286.96634 129.3138 286.3882 129.95442Q285.8257 130.59505 284.4976 131.72005Q283.3882 132.64192 283.0757 132.98567Q282.7632 133.3138 282.5601 133.64192L287.46634 133.64192ZM289.0757 126.1263L289.0757 124.9388L295.5757 124.9388L295.5757 125.89192Q294.60696 126.90755 293.66946 128.59505Q292.73196 130.28255 292.21634 132.07942Q291.85696 133.32942 291.7476 134.82942L290.48196 134.82942Q290.4976 133.64192 290.9351 131.97005Q291.3882 130.29817 292.21634 128.7513Q293.0601 127.1888 293.9976 126.1263L289.0757 126.1263Z" fill-rule="nonzero"/><path fill="#1a1a1a" d="M23.771875 99.568214L23.771875 90.974464L27.021875 90.974464Q27.865625 90.974464 28.31875 91.05259Q28.959375 91.161964 29.38125 91.45884Q29.81875 91.755714 30.06875 92.286964Q30.334375 92.818214 30.334375 93.45884Q30.334375 94.55259 29.63125 95.318214Q28.94375 96.068214 27.115625 96.068214L24.9125 96.068214L24.9125 99.568214L23.771875 99.568214ZM24.9125 95.068214L27.13125 95.068214Q28.240625 95.068214 28.69375 94.661964Q29.1625 94.24009 29.1625 93.49009Q29.1625 92.95884 28.88125 92.58384Q28.615625 92.193214 28.178125 92.068214Q27.88125 91.99009 27.115625 91.99009L24.9125 91.99009L24.9125 95.068214ZM31.646875 92.193214L31.646875 90.974464L32.709373 90.974464L32.709373 92.193214L31.646875 92.193214ZM31.646875 99.568214L31.646875 93.349464L32.709373 93.349464L32.709373 99.568214L31.646875 99.568214Z" fill-rule="nonzero"/><path fill="#9e9e9e" d="M27.31875 116.568214L26.271875 116.568214L26.271875 109.849464Q25.88125 110.20884 25.25625 110.58384Q24.646875 110.943214 24.1625 111.11509L24.1625 110.099464Q25.0375 109.67759 25.69375 109.099464Q26.365625 108.505714 26.646875 107.943214L27.31875 107.943214L27.31875 116.568214ZM30.50625 114.58384L31.521875 114.49009Q31.646875 115.20884 32.00625 115.536964Q32.38125 115.849464 32.94375 115.849464Q33.428123 115.849464 33.7875 115.630714Q34.1625 115.39634 34.396873 115.036964Q34.63125 114.661964 34.7875 114.036964Q34.94375 113.39634 34.94375 112.74009Q34.94375 112.661964 34.94375 112.52134Q34.63125 113.02134 34.084373 113.349464Q33.5375 113.661964 32.896873 113.661964Q31.81875 113.661964 31.084375 112.89634Q30.35 112.11509 30.35 110.849464Q30.35 109.536964 31.115625 108.74009Q31.896875 107.943214 33.053123 107.943214Q33.88125 107.943214 34.56875 108.39634Q35.271873 108.849464 35.63125 109.693214Q35.990623 110.52134 35.990623 112.099464Q35.990623 113.74009 35.63125 114.724464Q35.2875 115.693214 34.56875 116.20884Q33.865623 116.70884 32.928123 116.70884Q31.9125 116.70884 31.271875 116.161964Q30.63125 115.599464 30.50625 114.58384ZM34.81875 110.786964Q34.81875 109.880714 34.334373 109.349464Q33.865623 108.818214 33.178123 108.818214Q32.475 108.818214 31.94375 109.39634Q31.428125 109.95884 31.428125 110.880714Q31.428125 111.693214 31.928125 112.20884Q32.428123 112.724464 33.146873 112.724464Q33.88125 112.724464 34.35 112.20884Q34.81875 111.693214 34.81875 110.786964ZM37.94375 116.568214L37.94375 115.36509L39.146873 115.36509L39.146873 116.568214L37.94375 116.568214ZM40.4125 109.099464L40.4125 108.08384L45.975 108.08384L45.975 108.911964Q45.1625 109.786964 44.35 111.24009Q43.553123 112.67759 43.115623 114.20884Q42.7875 115.286964 42.709373 116.568214L41.615623 116.568214Q41.63125 115.55259 42.00625 114.11509Q42.396873 112.67759 43.1 111.349464Q43.81875 110.02134 44.63125 109.099464L40.4125 109.099464ZM47.553123 110.036964Q47.553123 109.11509 48.00625 108.474464Q48.475 107.83384 49.35 107.83384Q50.1625 107.83384 50.69375 108.411964Q51.225 108.99009 51.225 110.099464Q51.225 111.193214 50.678123 111.786964Q50.146873 112.36509 49.365623 112.36509Q48.584373 112.36509 48.06875 111.786964Q47.553123 111.20884 47.553123 110.036964ZM49.38125 108.55259Q48.990623 108.55259 48.725 108.89634Q48.475 109.24009 48.475 110.14634Q48.475 110.974464 48.725 111.318214Q48.990623 111.64634 49.38125 111.64634Q49.7875 111.64634 50.0375 111.30259Q50.303123 110.95884 50.303123 110.068214Q50.303123 109.224464 50.0375 108.89634Q49.771873 108.55259 49.38125 108.55259ZM49.38125 116.880714L54.084373 107.83384L54.94375 107.83384L50.25625 116.880714L49.38125 116.880714ZM53.1 114.55259Q53.1 113.630714 53.553123 112.99009Q54.021873 112.349464 54.9125 112.349464Q55.725 112.349464 56.25625 112.92759Q56.7875 113.49009 56.7875 114.61509Q56.7875 115.70884 56.240623 116.30259Q55.709373 116.880714 54.9125 116.880714Q54.146873 116.880714 53.615623 116.30259Q53.1 115.724464 53.1 114.55259ZM54.94375 113.068214Q54.5375 113.068214 54.271873 113.411964Q54.021873 113.755714 54.021873 114.661964Q54.021873 115.474464 54.2875 115.818214Q54.553123 116.161964 54.94375 116.161964Q55.334373 116.161964 55.6 115.818214Q55.865623 115.474464 55.865623 114.568214Q55.865623 113.74009 55.6 113.411964Q55.334373 113.068214 54.94375 113.068214Z" fill-rule="nonzero"/><path stroke="#757575" stroke-width="1.0" stroke-linecap="butt" d="M22.85 104.068214L174.46666 104.068214L264.10797 104.068214" fill-rule="nonzero"/><path fill="#9e9e9e" d="M266.10797 104.068214C266.10797 102.963646 265.21255 102.068214 264.10797 102.068214C263.00342 102.068214 262.10797 102.963646 262.10797 104.068214C262.10797 105.17278 263.00342 106.068214 264.10797 106.068214C265.21255 106.068214 266.10797 105.17278 266.10797 104.068214" fill-rule="nonzero"/><path fill="#1a1a1a" d="M27.803125 291.61603L27.803125 290.61603L31.428125 290.6004L31.428125 293.7879Q30.6 294.45978 29.709375 294.80353Q28.81875 295.13165 27.88125 295.13165Q26.615625 295.13165 25.56875 294.6004Q24.5375 294.05353 24.00625 293.0379Q23.490625 292.00665 23.490625 290.74103Q23.490625 289.4754 24.00625 288.39728Q24.5375 287.30353 25.521875 286.7879Q26.50625 286.25665 27.7875 286.25665Q28.725 286.25665 29.475 286.55353Q30.225 286.8504 30.646875 287.39728Q31.084375 287.92853 31.303125 288.80353L30.2875 289.08478Q30.084375 288.42853 29.7875 288.05353Q29.50625 287.67853 28.975 287.45978Q28.44375 287.2254 27.803125 287.2254Q27.021875 287.2254 26.44375 287.45978Q25.88125 287.69415 25.521875 288.08478Q25.178125 288.4754 24.990625 288.94415Q24.6625 289.74103 24.6625 290.6629Q24.6625 291.81915 25.053125 292.6004Q25.459375 293.36603 26.209375 293.74103Q26.959375 294.11603 27.81875 294.11603Q28.553125 294.11603 29.25625 293.83478Q29.959375 293.5379 30.31875 293.2254L30.31875 291.61603L27.803125 291.61603ZM32.771873 294.99103L32.771873 286.39728L36.021873 286.39728Q36.865623 286.39728 37.31875 286.4754Q37.959373 286.58478 38.38125 286.88165Q38.81875 287.17853 39.06875 287.70978Q39.334373 288.24103 39.334373 288.88165Q39.334373 289.9754 38.63125 290.74103Q37.94375 291.49103 36.115623 291.49103L33.9125 291.49103L33.9125 294.99103L32.771873 294.99103ZM33.9125 290.49103L36.13125 290.49103Q37.240623 290.49103 37.69375 290.08478Q38.1625 289.6629 38.1625 288.9129Q38.1625 288.38165 37.88125 288.00665Q37.615623 287.61603 37.178123 287.49103Q36.88125 287.4129 36.115623 287.4129L33.9125 287.4129L33.9125 290.49103ZM42.959373 294.99103L42.959373 287.4129L40.13125 287.4129L40.13125 286.39728L46.94375 286.39728L46.94375 287.4129L44.1 287.4129L44.1 294.99103L42.959373 294.99103ZM47.225 292.4129L47.225 291.3504L50.475 291.3504L50.475 292.4129L47.225 292.4129ZM54.725 294.99103L54.725 292.92853L51.00625 292.92853L51.00625 291.95978L54.928123 286.39728L55.7875 286.39728L55.7875 291.95978L56.94375 291.95978L56.94375 292.92853L55.7875 292.92853L55.7875 294.99103L54.725 294.99103ZM54.725 291.95978L54.725 288.1004L52.0375 291.95978L54.725 291.95978Z" fill-rule="nonzero"/><path fill="#9e9e9e" d="M28.896875 310.9754L28.896875 311.99103L23.209375 311.99103Q23.209375 311.61603 23.334375 311.25665Q23.553125 310.67853 24.021875 310.11603Q24.50625 309.55353 25.4125 308.81915Q26.81875 307.6629 27.303125 306.99103Q27.803125 306.31915 27.803125 305.7254Q27.803125 305.1004 27.35 304.67853Q26.896875 304.24103 26.178125 304.24103Q25.4125 304.24103 24.959375 304.69415Q24.50625 305.14728 24.490625 305.95978L23.4125 305.8504Q23.521875 304.63165 24.240625 304.00665Q24.975 303.36603 26.209375 303.36603Q27.44375 303.36603 28.1625 304.05353Q28.88125 304.74103 28.88125 305.75665Q28.88125 306.27228 28.6625 306.77228Q28.459375 307.25665 27.959375 307.81915Q27.475 308.36603 26.35 309.31915Q25.396875 310.11603 25.115625 310.4129Q24.85 310.69415 24.678125 310.9754L28.896875 310.9754ZM30.35 307.75665Q30.35 306.2254 30.6625 305.30353Q30.975 304.36603 31.584375 303.86603Q32.209373 303.36603 33.146873 303.36603Q33.834373 303.36603 34.35 303.64728Q34.88125 303.92853 35.225 304.45978Q35.56875 304.9754 35.75625 305.7254Q35.94375 306.4754 35.94375 307.75665Q35.94375 309.27228 35.63125 310.19415Q35.334373 311.11603 34.709373 311.63165Q34.1 312.13165 33.146873 312.13165Q31.9125 312.13165 31.19375 311.24103Q30.35 310.17853 30.35 307.75665ZM31.428125 307.75665Q31.428125 309.86603 31.928125 310.56915Q32.428123 311.27228 33.146873 311.27228Q33.88125 311.27228 34.365623 310.56915Q34.865623 309.86603 34.865623 307.75665Q34.865623 305.63165 34.365623 304.94415Q33.88125 304.24103 33.13125 304.24103Q32.4125 304.24103 31.975 304.8504Q31.428125 305.63165 31.428125 307.75665ZM37.94375 311.99103L37.94375 310.7879L39.146873 310.7879L39.146873 311.99103L37.94375 311.99103ZM40.35 307.75665Q40.35 306.2254 40.6625 305.30353Q40.975 304.36603 41.584373 303.86603Q42.209373 303.36603 43.146873 303.36603Q43.834373 303.36603 44.35 303.64728Q44.88125 303.92853 45.225 304.45978Q45.56875 304.9754 45.75625 305.7254Q45.94375 306.4754 45.94375 307.75665Q45.94375 309.27228 45.63125 310.19415Q45.334373 311.11603 44.709373 311.63165Q44.1 312.13165 43.146873 312.13165Q41.9125 312.13165 41.19375 311.24103Q40.35 310.17853 40.35 307.75665ZM41.428123 307.75665Q41.428123 309.86603 41.928123 310.56915Q42.428123 311.27228 43.146873 311.27228Q43.88125 311.27228 44.365623 310.56915Q44.865623 309.86603 44.865623 307.75665Q44.865623 305.63165 44.365623 304.94415Q43.88125 304.24103 43.13125 304.24103Q42.4125 304.24103 41.975 304.8504Q41.428123 305.63165 41.428123 307.75665ZM47.553123 305.45978Q47.553123 304.5379 48.00625 303.89728Q48.475 303.25665 49.35 303.25665Q50.1625 303.25665 50.69375 303.83478Q51.225 304.4129 51.225 305.52228Q51.225 306.61603 50.678123 307.20978Q50.146873 307.7879 49.365623 307.7879Q48.584373 307.7879 48.06875 307.20978Q47.553123 306.63165 47.553123 305.45978ZM49.38125 303.9754Q48.990623 303.9754 48.725 304.31915Q48.475 304.6629 48.475 305.56915Q48.475 306.39728 48.725 306.74103Q48.990623 307.06915 49.38125 307.06915Q49.7875 307.06915 50.0375 306.7254Q50.303123 306.38165 50.303123 305.49103Q50.303123 304.64728 50.0375 304.31915Q49.771873 303.9754 49.38125 303.9754ZM49.38125 312.30353L54.084373 303.25665L54.94375 303.25665L50.25625 312.30353L49.38125 312.30353ZM53.1 309.9754Q53.1 309.05353 53.553123 308.4129Q54.021873 307.77228 54.9125 307.77228Q55.725 307.77228 56.25625 308.3504Q56.7875 308.9129 56.7875 310.0379Q56.7875 311.13165 56.240623 311.7254Q55.709373 312.30353 54.9125 312.30353Q54.146873 312.30353 53.615623 311.7254Q53.1 311.14728 53.1 309.9754ZM54.94375 308.49103Q54.5375 308.49103 54.271873 308.83478Q54.021873 309.17853 54.021873 310.08478Q54.021873 310.89728 54.2875 311.24103Q54.553123 311.58478 54.94375 311.58478Q55.334373 311.58478 55.6 311.24103Q55.865623 310.89728 55.865623 309.99103Q55.865623 309.1629 55.6 308.83478Q55.334373 308.49103 54.94375 308.49103Z" fill-rule="nonzero"/><path stroke="#757575" stroke-width="1.0" stroke-linecap="butt" d="M22.85 299.49103L174.46666 299.49103L197.40016 299.49103" fill-rule="nonzero"/><path fill="#9e9e9e" d="M199.40016 299.49103C199.40016 298.38647 198.50473 297.49103 197.40016 297.49103C196.2956 297.49103 195.40016 298.38647 195.40016 299.49103C195.40016 300.5956 196.2956 301.49103 197.40016 301.49103C198.50473 301.49103 199.40016 300.5956 199.40016 299.49103" fill-rule="nonzero"/><path fill="#1a1a1a" d="M27.803125 410.775L27.803125 409.775L31.428125 409.75937L31.428125 412.94687Q30.6 413.61874 29.709375 413.9625Q28.81875 414.29062 27.88125 414.29062Q26.615625 414.29062 25.56875 413.75937Q24.5375 413.2125 24.00625 412.19687Q23.490625 411.16562 23.490625 409.9Q23.490625 408.63437 24.00625 407.55624Q24.5375 406.4625 25.521875 405.94687Q26.50625 405.41562 27.7875 405.41562Q28.725 405.41562 29.475 405.7125Q30.225 406.00937 30.646875 406.55624Q31.084375 407.0875 31.303125 407.9625L30.2875 408.24374Q30.084375 407.5875 29.7875 407.2125Q29.50625 406.8375 28.975 406.61874Q28.44375 406.38437 27.803125 406.38437Q27.021875 406.38437 26.44375 406.61874Q25.88125 406.85312 25.521875 407.24374Q25.178125 407.63437 24.990625 408.10312Q24.6625 408.9 24.6625 409.82187Q24.6625 410.97812 25.053125 411.75937Q25.459375 412.525 26.209375 412.9Q26.959375 413.275 27.81875 413.275Q28.553125 413.275 29.25625 412.99374Q29.959375 412.69687 30.31875 412.38437L30.31875 410.775L27.803125 410.775ZM36.896873 412.15L37.990623 412.275Q37.740623 413.22812 37.0375 413.75937Q36.334373 414.29062 35.25625 414.29062Q33.896873 414.29062 33.084373 413.44687Q32.2875 412.60312 32.2875 411.0875Q32.2875 409.525 33.1 408.66562Q33.9125 407.79062 35.19375 407.79062Q36.44375 407.79062 37.225 408.63437Q38.021873 409.47812 38.021873 411.025Q38.021873 411.11874 38.021873 411.30624L33.38125 411.30624Q33.44375 412.3375 33.959373 412.88437Q34.475 413.41562 35.25625 413.41562Q35.834373 413.41562 36.240623 413.11874Q36.6625 412.80624 36.896873 412.15ZM33.44375 410.44687L36.9125 410.44687Q36.85 409.65 36.521873 409.25937Q36.00625 408.65 35.209373 408.65Q34.475 408.65 33.975 409.13437Q33.490623 409.61874 33.44375 410.44687ZM39.646873 414.15L39.646873 407.93124L40.584373 407.93124L40.584373 408.80624Q40.88125 408.3375 41.365623 408.07187Q41.85 407.79062 42.475 407.79062Q43.1625 407.79062 43.6 408.07187Q44.053123 408.35312 44.225 408.86874Q44.975 407.79062 46.146873 407.79062Q47.084373 407.79062 47.56875 408.30624Q48.06875 408.80624 48.06875 409.88437L48.06875 414.15L47.021873 414.15L47.021873 410.22812Q47.021873 409.60312 46.9125 409.32187Q46.81875 409.04062 46.553123 408.86874Q46.2875 408.69687 45.9125 408.69687Q45.25625 408.69687 44.81875 409.13437Q44.396873 409.57187 44.396873 410.54062L44.396873 414.15L43.334373 414.15L43.334373 410.10312Q43.334373 409.4 43.06875 409.05624Q42.81875 408.69687 42.240623 408.69687Q41.7875 408.69687 41.4125 408.93124Q41.0375 409.16562 40.865623 409.61874Q40.69375 410.07187 40.69375 410.91562L40.69375 414.15L39.646873 414.15ZM50.646873 406.775L50.646873 405.55624L51.709373 405.55624L51.709373 406.775L50.646873 406.775ZM50.646873 414.15L50.646873 407.93124L51.709373 407.93124L51.709373 414.15L50.646873 414.15ZM53.646873 414.15L53.646873 407.93124L54.584373 407.93124L54.584373 408.80624Q55.271873 407.79062 56.56875 407.79062Q57.13125 407.79062 57.6 407.99374Q58.084373 408.19687 58.31875 408.525Q58.553123 408.85312 58.646873 409.29062Q58.69375 409.5875 58.69375 410.32187L58.69375 414.15L57.646873 414.15L57.646873 410.36874Q57.646873 409.7125 57.521873 409.4Q57.396873 409.0875 57.084373 408.9Q56.771873 408.69687 56.35 408.69687Q55.678123 408.69687 55.178123 409.13437Q54.69375 409.55624 54.69375 410.74374L54.69375 414.15L53.646873 414.15ZM60.646873 406.775L60.646873 405.55624L61.709373 405.55624L61.709373 406.775L60.646873 406.775ZM60.646873 414.15L60.646873 407.93124L61.709373 407.93124L61.709373 414.15L60.646873 414.15Z" fill-rule="nonzero"/><path fill="#9e9e9e" d="M28.896875 430.13437L28.896875 431.15L23.209375 431.15Q23.209375 430.775 23.334375 430.41562Q23.553125 429.8375 24.021875 429.275Q24.50625 428.7125 25.4125 427.97812Q26.81875 426.82187 27.303125 426.15Q27.803125 425.47812 27.803125 424.88437Q27.803125 424.25937 27.35 423.8375Q26.896875 423.4 26.178125 423.4Q25.4125 423.4 24.959375 423.85312Q24.50625 424.30624 24.490625 425.11874L23.4125 425.00937Q23.521875 423.79062 24.240625 423.16562Q24.975 422.525 26.209375 422.525Q27.44375 422.525 28.1625 423.2125Q28.88125 423.9 28.88125 424.91562Q28.88125 425.43124 28.6625 425.93124Q28.459375 426.41562 27.959375 426.97812Q27.475 427.525 26.35 428.47812Q25.396875 429.275 25.115625 429.57187Q24.85 429.85312 24.678125 430.13437L28.896875 430.13437ZM30.35 426.91562Q30.35 425.38437 30.6625 424.4625Q30.975 423.525 31.584375 423.025Q32.209373 422.525 33.146873 422.525Q33.834373 422.525 34.35 422.80624Q34.88125 423.0875 35.225 423.61874Q35.56875 424.13437 35.75625 424.88437Q35.94375 425.63437 35.94375 426.91562Q35.94375 428.43124 35.63125 429.35312Q35.334373 430.275 34.709373 430.79062Q34.1 431.29062 33.146873 431.29062Q31.9125 431.29062 31.19375 430.4Q30.35 429.3375 30.35 426.91562ZM31.428125 426.91562Q31.428125 429.025 31.928125 429.72812Q32.428123 430.43124 33.146873 430.43124Q33.88125 430.43124 34.365623 429.72812Q34.865623 429.025 34.865623 426.91562Q34.865623 424.79062 34.365623 424.10312Q33.88125 423.4 33.13125 423.4Q32.4125 423.4 31.975 424.00937Q31.428125 424.79062 31.428125 426.91562ZM37.94375 431.15L37.94375 429.94687L39.146873 429.94687L39.146873 431.15L37.94375 431.15ZM44.31875 431.15L43.271873 431.15L43.271873 424.43124Q42.88125 424.79062 42.25625 425.16562Q41.646873 425.525 41.1625 425.69687L41.1625 424.68124Q42.0375 424.25937 42.69375 423.68124Q43.365623 423.0875 43.646873 422.525L44.31875 422.525L44.31875 431.15ZM47.553123 424.61874Q47.553123 423.69687 48.00625 423.05624Q48.475 422.41562 49.35 422.41562Q50.1625 422.41562 50.69375 422.99374Q51.225 423.57187 51.225 424.68124Q51.225 425.775 50.678123 426.36874Q50.146873 426.94687 49.365623 426.94687Q48.584373 426.94687 48.06875 426.36874Q47.553123 425.79062 47.553123 424.61874ZM49.38125 423.13437Q48.990623 423.13437 48.725 423.47812Q48.475 423.82187 48.475 424.72812Q48.475 425.55624 48.725 425.9Q48.990623 426.22812 49.38125 426.22812Q49.7875 426.22812 50.0375 425.88437Q50.303123 425.54062 50.303123 424.65Q50.303123 423.80624 50.0375 423.47812Q49.771873 423.13437 49.38125 423.13437ZM49.38125 431.4625L54.084373 422.41562L54.94375 422.41562L50.25625 431.4625L49.38125 431.4625ZM53.1 429.13437Q53.1 428.2125 53.553123 427.57187Q54.021873 426.93124 54.9125 426.93124Q55.725 426.93124 56.25625 427.50937Q56.7875 428.07187 56.7875 429.19687Q56.7875 430.29062 56.240623 430.88437Q55.709373 431.4625 54.9125 431.4625Q54.146873 431.4625 53.615623 430.88437Q53.1 430.30624 53.1 429.13437ZM54.94375 427.65Q54.5375 427.65 54.271873 427.99374Q54.021873 428.3375 54.021873 429.24374Q54.021873 430.05624 54.2875 430.4Q54.553123 430.74374 54.94375 430.74374Q55.334373 430.74374 55.6 430.4Q55.865623 430.05624 55.865623 429.15Q55.865623 428.32187 55.6 427.99374Q55.334373 427.65 54.94375 427.65Z" fill-rule="nonzero"/><path stroke="#757575" stroke-width="1.0" stroke-linecap="butt" d="M22.85 418.65L174.46666 418.65L363.7961 424.82764" fill-rule="nonzero"/><path fill="#9e9e9e" d="M365.7961 424.82764C365.7961 423.72308 364.9007 422.82764 363.7961 422.82764C362.69156 422.82764 361.7961 423.72308 361.7961 424.82764C361.7961 425.93222 362.69156 426.82764 363.7961 426.82764C364.9007 426.82764 365.7961 425.93222 365.7961 424.82764" fill-rule="nonzero"/><path fill="#1a1a1a" d="M670.2125 97.78123L671.3375 98.0781Q670.97815 99.46873 670.0563 100.2031Q669.1344 100.93748 667.79065 100.93748Q666.4 100.93748 665.525 100.37498Q664.65 99.81248 664.1969 98.74998Q663.7438 97.67185 663.7438 96.43748Q663.7438 95.09373 664.2594 94.09373Q664.775 93.09373 665.7125 92.5781Q666.66565 92.06248 667.8063 92.06248Q669.0875 92.06248 669.9625 92.71873Q670.85315 93.37498 671.1969 94.56248L670.0719 94.8281Q669.775 93.8906 669.1969 93.46873Q668.6344 93.03123 667.775 93.03123Q666.79065 93.03123 666.1188 93.5156Q665.4625 93.98435 665.1813 94.78123Q664.91565 95.5781 664.91565 96.43748Q664.91565 97.53123 665.22815 98.34373Q665.5563 99.15623 666.22815 99.56248Q666.9 99.96873 667.6969 99.96873Q668.65 99.96873 669.3063 99.42185Q669.97815 98.87498 670.2125 97.78123ZM672.91565 100.79685L672.91565 92.2031L673.97815 92.2031L673.97815 100.79685L672.91565 100.79685ZM680.0094 100.03123Q679.41565 100.53123 678.8688 100.73435Q678.3375 100.93748 677.7125 100.93748Q676.6813 100.93748 676.1344 100.43748Q675.5875 99.93748 675.5875 99.15623Q675.5875 98.7031 675.79065 98.3281Q675.9938 97.93748 676.3375 97.71873Q676.6813 97.48435 677.10315 97.37498Q677.4 97.28123 678.04065 97.2031Q679.3063 97.06248 679.91565 96.84373Q679.91565 96.62498 679.91565 96.5781Q679.91565 95.92185 679.6188 95.65623Q679.2125 95.31248 678.41565 95.31248Q677.6813 95.31248 677.3219 95.5781Q676.9625 95.8281 676.79065 96.48435L675.7594 96.34373Q675.9 95.68748 676.22815 95.28123Q676.5563 94.87498 677.16565 94.65623Q677.775 94.43748 678.5719 94.43748Q679.3688 94.43748 679.8688 94.62498Q680.3688 94.81248 680.60315 95.09373Q680.8375 95.37498 680.9313 95.81248Q680.97815 96.0781 680.97815 96.78123L680.97815 98.18748Q680.97815 99.65623 681.04065 100.04685Q681.1188 100.43748 681.3219 100.79685L680.2125 100.79685Q680.0563 100.46873 680.0094 100.03123ZM679.91565 97.67185Q679.3375 97.90623 678.1969 98.0781Q677.54065 98.17185 677.275 98.29685Q677.0094 98.40623 676.85315 98.62498Q676.7125 98.84373 676.7125 99.12498Q676.7125 99.54685 677.025 99.8281Q677.35315 100.10935 677.9625 100.10935Q678.5719 100.10935 679.04065 99.84373Q679.525 99.5781 679.7438 99.10935Q679.91565 98.74998 679.91565 98.06248L679.91565 97.67185ZM687.025 100.79685L687.025 99.87498Q686.29065 100.93748 685.04065 100.93748Q684.4938 100.93748 684.0094 100.73435Q683.54065 100.5156 683.3063 100.2031Q683.0719 99.87498 682.97815 99.40623Q682.91565 99.10935 682.91565 98.42185L682.91565 94.5781L683.97815 94.5781L683.97815 98.03123Q683.97815 98.84373 684.04065 99.1406Q684.1344 99.54685 684.4469 99.79685Q684.775 100.03123 685.2594 100.03123Q685.72815 100.03123 686.1344 99.79685Q686.5563 99.54685 686.72815 99.12498Q686.91565 98.7031 686.91565 97.90623L686.91565 94.5781L687.9625 94.5781L687.9625 100.79685L687.025 100.79685ZM693.97815 100.79685L693.97815 100.0156Q693.3844 100.93748 692.2438 100.93748Q691.4938 100.93748 690.8688 100.53123Q690.2438 100.10935 689.9 99.37498Q689.5563 98.6406 689.5563 97.68748Q689.5563 96.7656 689.8688 95.99998Q690.1813 95.23435 690.8063 94.84373Q691.4313 94.43748 692.1969 94.43748Q692.7594 94.43748 693.1969 94.67185Q693.6344 94.90623 693.91565 95.28123L693.91565 92.2031L694.9625 92.2031L694.9625 100.79685L693.97815 100.79685ZM690.65 97.68748Q690.65 98.8906 691.15 99.48435Q691.65 100.06248 692.3375 100.06248Q693.025 100.06248 693.5094 99.49998Q693.9938 98.93748 693.9938 97.78123Q693.9938 96.49998 693.4938 95.90623Q693.0094 95.31248 692.29065 95.31248Q691.5875 95.31248 691.1188 95.8906Q690.65 96.4531 690.65 97.68748ZM701.1969 98.79685L702.29065 98.92185Q702.04065 99.87498 701.3375 100.40623Q700.6344 100.93748 699.5563 100.93748Q698.1969 100.93748 697.3844 100.09373Q696.5875 99.24998 696.5875 97.73435Q696.5875 96.17185 697.4 95.31248Q698.2125 94.43748 699.4938 94.43748Q700.7438 94.43748 701.525 95.28123Q702.3219 96.12498 702.3219 97.67185Q702.3219 97.7656 702.3219 97.9531L697.6813 97.9531Q697.7438 98.98435 698.2594 99.53123Q698.775 100.06248 699.5563 100.06248Q700.1344 100.06248 700.54065 99.7656Q700.9625 99.4531 701.1969 98.79685ZM697.7438 97.09373L701.2125 97.09373Q701.15 96.29685 700.8219 95.90623Q700.3063 95.29685 699.5094 95.29685Q698.775 95.29685 698.275 95.78123Q697.79065 96.2656 697.7438 97.09373ZM703.65 98.53123L704.7125 98.3906Q704.8844 99.28123 705.3219 99.68748Q705.7594 100.0781 706.3844 100.0781Q707.1344 100.0781 707.65 99.56248Q708.16565 99.04685 708.16565 98.28123Q708.16565 97.56248 707.6813 97.09373Q707.2125 96.60935 706.47815 96.60935Q706.1813 96.60935 705.72815 96.73435L705.85315 95.79685Q705.9625 95.81248 706.025 95.81248Q706.6969 95.81248 707.22815 95.46873Q707.775 95.10935 707.775 94.37498Q707.775 93.79685 707.3844 93.42185Q706.9938 93.03123 706.3688 93.03123Q705.7594 93.03123 705.3375 93.42185Q704.9313 93.81248 704.8219 94.5781L703.7594 94.3906Q703.9469 93.34373 704.6344 92.7656Q705.3219 92.17185 706.3375 92.17185Q707.04065 92.17185 707.6344 92.48435Q708.22815 92.78123 708.54065 93.29685Q708.85315 93.81248 708.85315 94.40623Q708.85315 94.9531 708.5563 95.42185Q708.2594 95.87498 707.6813 96.1406Q708.4313 96.31248 708.85315 96.87498Q709.275 97.42185 709.275 98.2656Q709.275 99.3906 708.4469 100.17185Q707.6344 100.9531 706.3844 100.9531Q705.2594 100.9531 704.5094 100.28123Q703.7594 99.59373 703.65 98.53123Z" fill-rule="nonzero"/><path fill="#9e9e9e" d="M681.1969 116.78123L681.1969 117.79685L675.5094 117.79685Q675.5094 117.42185 675.6344 117.06248Q675.85315 116.48435 676.3219 115.92185Q676.8063 115.35935 677.7125 114.62498Q679.1188 113.46873 679.60315 112.79685Q680.10315 112.12498 680.10315 111.53123Q680.10315 110.90623 679.65 110.48435Q679.1969 110.04685 678.47815 110.04685Q677.7125 110.04685 677.2594 110.49998Q676.8063 110.9531 676.79065 111.7656L675.7125 111.65623Q675.8219 110.43748 676.54065 109.81248Q677.275 109.17185 678.5094 109.17185Q679.7438 109.17185 680.4625 109.85935Q681.1813 110.54685 681.1813 111.56248Q681.1813 112.0781 680.9625 112.5781Q680.7594 113.06248 680.2594 113.62498Q679.775 114.17185 678.65 115.12498Q677.6969 115.92185 677.41565 116.21873Q677.15 116.49998 676.97815 116.78123L681.1969 116.78123ZM682.65 113.56248Q682.65 112.03123 682.9625 111.10935Q683.275 110.17185 683.8844 109.67185Q684.5094 109.17185 685.4469 109.17185Q686.1344 109.17185 686.65 109.4531Q687.1813 109.73435 687.525 110.2656Q687.8688 110.78123 688.0563 111.53123Q688.2438 112.28123 688.2438 113.56248Q688.2438 115.0781 687.9313 115.99998Q687.6344 116.92185 687.0094 117.43748Q686.4 117.93748 685.4469 117.93748Q684.2125 117.93748 683.4938 117.04685Q682.65 115.98435 682.65 113.56248ZM683.72815 113.56248Q683.72815 115.67185 684.22815 116.37498Q684.72815 117.0781 685.4469 117.0781Q686.1813 117.0781 686.66565 116.37498Q687.16565 115.67185 687.16565 113.56248Q687.16565 111.43748 686.66565 110.74998Q686.1813 110.04685 685.4313 110.04685Q684.7125 110.04685 684.275 110.65623Q683.72815 111.43748 683.72815 113.56248ZM690.2438 117.79685L690.2438 116.59373L691.4469 116.59373L691.4469 117.79685L690.2438 117.79685ZM692.65 113.56248Q692.65 112.03123 692.9625 111.10935Q693.275 110.17185 693.8844 109.67185Q694.5094 109.17185 695.4469 109.17185Q696.1344 109.17185 696.65 109.4531Q697.1813 109.73435 697.525 110.2656Q697.8688 110.78123 698.0563 111.53123Q698.2438 112.28123 698.2438 113.56248Q698.2438 115.0781 697.9313 115.99998Q697.6344 116.92185 697.0094 117.43748Q696.4 117.93748 695.4469 117.93748Q694.2125 117.93748 693.4938 117.04685Q692.65 115.98435 692.65 113.56248ZM693.72815 113.56248Q693.72815 115.67185 694.22815 116.37498Q694.72815 117.0781 695.4469 117.0781Q696.1813 117.0781 696.66565 116.37498Q697.16565 115.67185 697.16565 113.56248Q697.16565 111.43748 696.66565 110.74998Q696.1813 110.04685 695.4313 110.04685Q694.7125 110.04685 694.275 110.65623Q693.72815 111.43748 693.72815 113.56248ZM699.85315 111.2656Q699.85315 110.34373 700.3063 109.7031Q700.775 109.06248 701.65 109.06248Q702.4625 109.06248 702.9938 109.6406Q703.525 110.21873 703.525 111.3281Q703.525 112.42185 702.97815 113.0156Q702.4469 113.59373 701.66565 113.59373Q700.8844 113.59373 700.3688 113.0156Q699.85315 112.43748 699.85315 111.2656ZM701.6813 109.78123Q701.29065 109.78123 701.025 110.12498Q700.775 110.46873 700.775 111.37498Q700.775 112.2031 701.025 112.54685Q701.29065 112.87498 701.6813 112.87498Q702.0875 112.87498 702.3375 112.53123Q702.60315 112.18748 702.60315 111.29685Q702.60315 110.4531 702.3375 110.12498Q702.0719 109.78123 701.6813 109.78123ZM701.6813 118.10935L706.3844 109.06248L707.2438 109.06248L702.5563 118.10935L701.6813 118.10935ZM705.4 115.78123Q705.4 114.85935 705.85315 114.21873Q706.3219 113.5781 707.2125 113.5781Q708.025 113.5781 708.5563 114.15623Q709.0875 114.71873 709.0875 115.84373Q709.0875 116.93748 708.54065 117.53123Q708.0094 118.10935 707.2125 118.10935Q706.4469 118.10935 705.91565 117.53123Q705.4 116.9531 705.4 115.78123ZM707.2438 114.29685Q706.8375 114.29685 706.5719 114.6406Q706.3219 114.98435 706.3219 115.8906Q706.3219 116.7031 706.5875 117.04685Q706.85315 117.3906 707.2438 117.3906Q707.6344 117.3906 707.9 117.04685Q708.16565 116.7031 708.16565 115.79685Q708.16565 114.96873 707.9 114.6406Q707.6344 114.29685 707.2438 114.29685Z" fill-rule="nonzero"/><path stroke="#757575" stroke-width="1.0" stroke-linecap="butt" d="M710.15 105.29685L558.5333 105.29685L470.5989 105.29685" fill-rule="nonzero"/><path fill="#9e9e9e" d="M472.5989 105.29685C472.5989 104.192276 471.70346 103.29685 470.5989 103.29685C469.49432 103.29685 468.5989 104.192276 468.5989 105.29685C468.5989 106.40142 469.49432 107.29685 470.5989 107.29685C471.70346 107.29685 472.5989 106.40142 472.5989 105.29685" fill-rule="nonzero"/><path fill="#1a1a1a" d="M678.2125 296.55533L679.3375 296.8522Q678.97815 298.24283 678.0563 298.9772Q677.1344 299.71158 675.79065 299.71158Q674.4 299.71158 673.525 299.14908Q672.65 298.58658 672.1969 297.52408Q671.7438 296.44595 671.7438 295.21158Q671.7438 293.86783 672.2594 292.86783Q672.775 291.86783 673.7125 291.3522Q674.66565 290.83658 675.8063 290.83658Q677.0875 290.83658 677.9625 291.49283Q678.85315 292.14908 679.1969 293.33658L678.0719 293.6022Q677.775 292.6647 677.1969 292.24283Q676.6344 291.80533 675.775 291.80533Q674.79065 291.80533 674.1188 292.2897Q673.4625 292.75845 673.1813 293.55533Q672.91565 294.3522 672.91565 295.21158Q672.91565 296.30533 673.22815 297.11783Q673.5563 297.93033 674.22815 298.33658Q674.9 298.74283 675.6969 298.74283Q676.65 298.74283 677.3063 298.19595Q677.97815 297.64908 678.2125 296.55533ZM680.5563 296.46158Q680.5563 294.7272 681.5094 293.89908Q682.3063 293.21158 683.4625 293.21158Q684.7438 293.21158 685.5563 294.05533Q686.3844 294.88345 686.3844 296.36783Q686.3844 297.57095 686.025 298.25845Q685.66565 298.94595 684.9625 299.33658Q684.275 299.71158 683.4625 299.71158Q682.16565 299.71158 681.35315 298.88345Q680.5563 298.0397 680.5563 296.46158ZM681.6344 296.46158Q681.6344 297.64908 682.15 298.24283Q682.6813 298.83658 683.4625 298.83658Q684.2594 298.83658 684.775 298.24283Q685.29065 297.64908 685.29065 296.43033Q685.29065 295.27408 684.7594 294.68033Q684.2438 294.08658 683.4625 294.08658Q682.6813 294.08658 682.15 294.68033Q681.6344 295.25845 681.6344 296.46158ZM687.9469 301.96158L687.9469 293.3522L688.9 293.3522L688.9 294.14908Q689.2438 293.68033 689.66565 293.44595Q690.10315 293.21158 690.7125 293.21158Q691.5094 293.21158 692.1188 293.61783Q692.72815 294.02408 693.025 294.77408Q693.3375 295.52408 693.3375 296.4147Q693.3375 297.36783 692.9938 298.13345Q692.66565 298.89908 692.0094 299.30533Q691.35315 299.71158 690.6344 299.71158Q690.10315 299.71158 689.6813 299.49283Q689.2594 299.25845 688.9938 298.93033L688.9938 301.96158L687.9469 301.96158ZM688.9 296.49283Q688.9 297.69595 689.3844 298.27408Q689.8688 298.83658 690.5563 298.83658Q691.2594 298.83658 691.7594 298.24283Q692.2594 297.64908 692.2594 296.39908Q692.2594 295.21158 691.775 294.63345Q691.29065 294.0397 690.60315 294.0397Q689.9313 294.0397 689.41565 294.6647Q688.9 295.2897 688.9 296.49283ZM694.9469 292.19595L694.9469 290.9772L696.0094 290.9772L696.0094 292.19595L694.9469 292.19595ZM694.9469 299.57095L694.9469 293.3522L696.0094 293.3522L696.0094 299.57095L694.9469 299.57095ZM697.91565 299.57095L697.91565 290.9772L698.97815 290.9772L698.97815 299.57095L697.91565 299.57095ZM700.5563 296.46158Q700.5563 294.7272 701.5094 293.89908Q702.3063 293.21158 703.4625 293.21158Q704.7438 293.21158 705.5563 294.05533Q706.3844 294.88345 706.3844 296.36783Q706.3844 297.57095 706.025 298.25845Q705.66565 298.94595 704.9625 299.33658Q704.275 299.71158 703.4625 299.71158Q702.16565 299.71158 701.35315 298.88345Q700.5563 298.0397 700.5563 296.46158ZM701.6344 296.46158Q701.6344 297.64908 702.15 298.24283Q702.6813 298.83658 703.4625 298.83658Q704.2594 298.83658 704.775 298.24283Q705.29065 297.64908 705.29065 296.43033Q705.29065 295.27408 704.7594 294.68033Q704.2438 294.08658 703.4625 294.08658Q702.6813 294.08658 702.15 294.68033Q701.6344 295.25845 701.6344 296.46158ZM710.2438 298.63345L710.4 299.55533Q709.9469 299.64908 709.60315 299.64908Q709.025 299.64908 708.7125 299.4772Q708.4 299.2897 708.2594 298.99283Q708.1344 298.69595 708.1344 297.74283L708.1344 294.1647L707.3688 294.1647L707.3688 293.3522L708.1344 293.3522L708.1344 291.80533L709.1813 291.18033L709.1813 293.3522L710.2438 293.3522L710.2438 294.1647L709.1813 294.1647L709.1813 297.80533Q709.1813 298.25845 709.22815 298.38345Q709.29065 298.50845 709.41565 298.58658Q709.54065 298.6647 709.775 298.6647Q709.9625 298.6647 710.2438 298.63345Z" fill-rule="nonzero"/><path fill="#9e9e9e" d="M681.1969 315.55533L681.1969 316.57095L675.5094 316.57095Q675.5094 316.19595 675.6344 315.83658Q675.85315 315.25845 676.3219 314.69595Q676.8063 314.13345 677.7125 313.39908Q679.1188 312.24283 679.60315 311.57095Q680.10315 310.89908 680.10315 310.30533Q680.10315 309.68033 679.65 309.25845Q679.1969 308.82095 678.47815 308.82095Q677.7125 308.82095 677.2594 309.27408Q676.8063 309.7272 676.79065 310.5397L675.7125 310.43033Q675.8219 309.21158 676.54065 308.58658Q677.275 307.94595 678.5094 307.94595Q679.7438 307.94595 680.4625 308.63345Q681.1813 309.32095 681.1813 310.33658Q681.1813 310.8522 680.9625 311.3522Q680.7594 311.83658 680.2594 312.39908Q679.775 312.94595 678.65 313.89908Q677.6969 314.69595 677.41565 314.99283Q677.15 315.27408 676.97815 315.55533L681.1969 315.55533ZM682.65 312.33658Q682.65 310.80533 682.9625 309.88345Q683.275 308.94595 683.8844 308.44595Q684.5094 307.94595 685.4469 307.94595Q686.1344 307.94595 686.65 308.2272Q687.1813 308.50845 687.525 309.0397Q687.8688 309.55533 688.0563 310.30533Q688.2438 311.05533 688.2438 312.33658Q688.2438 313.8522 687.9313 314.77408Q687.6344 315.69595 687.0094 316.21158Q686.4 316.71158 685.4469 316.71158Q684.2125 316.71158 683.4938 315.82095Q682.65 314.75845 682.65 312.33658ZM683.72815 312.33658Q683.72815 314.44595 684.22815 315.14908Q684.72815 315.8522 685.4469 315.8522Q686.1813 315.8522 686.66565 315.14908Q687.16565 314.44595 687.16565 312.33658Q687.16565 310.21158 686.66565 309.52408Q686.1813 308.82095 685.4313 308.82095Q684.7125 308.82095 684.275 309.43033Q683.72815 310.21158 683.72815 312.33658ZM690.2438 316.57095L690.2438 315.36783L691.4469 315.36783L691.4469 316.57095L690.2438 316.57095ZM698.1969 315.55533L698.1969 316.57095L692.5094 316.57095Q692.5094 316.19595 692.6344 315.83658Q692.85315 315.25845 693.3219 314.69595Q693.8063 314.13345 694.7125 313.39908Q696.1188 312.24283 696.60315 311.57095Q697.10315 310.89908 697.10315 310.30533Q697.10315 309.68033 696.65 309.25845Q696.1969 308.82095 695.47815 308.82095Q694.7125 308.82095 694.2594 309.27408Q693.8063 309.7272 693.79065 310.5397L692.7125 310.43033Q692.8219 309.21158 693.54065 308.58658Q694.275 307.94595 695.5094 307.94595Q696.7438 307.94595 697.4625 308.63345Q698.1813 309.32095 698.1813 310.33658Q698.1813 310.8522 697.9625 311.3522Q697.7594 311.83658 697.2594 312.39908Q696.775 312.94595 695.65 313.89908Q694.6969 314.69595 694.41565 314.99283Q694.15 315.27408 693.97815 315.55533L698.1969 315.55533ZM699.85315 310.0397Q699.85315 309.11783 700.3063 308.4772Q700.775 307.83658 701.65 307.83658Q702.4625 307.83658 702.9938 308.4147Q703.525 308.99283 703.525 310.1022Q703.525 311.19595 702.97815 311.7897Q702.4469 312.36783 701.66565 312.36783Q700.8844 312.36783 700.3688 311.7897Q699.85315 311.21158 699.85315 310.0397ZM701.6813 308.55533Q701.29065 308.55533 701.025 308.89908Q700.775 309.24283 700.775 310.14908Q700.775 310.9772 701.025 311.32095Q701.29065 311.64908 701.6813 311.64908Q702.0875 311.64908 702.3375 311.30533Q702.60315 310.96158 702.60315 310.07095Q702.60315 309.2272 702.3375 308.89908Q702.0719 308.55533 701.6813 308.55533ZM701.6813 316.88345L706.3844 307.83658L707.2438 307.83658L702.5563 316.88345L701.6813 316.88345ZM705.4 314.55533Q705.4 313.63345 705.85315 312.99283Q706.3219 312.3522 707.2125 312.3522Q708.025 312.3522 708.5563 312.93033Q709.0875 313.49283 709.0875 314.61783Q709.0875 315.71158 708.54065 316.30533Q708.0094 316.88345 707.2125 316.88345Q706.4469 316.88345 705.91565 316.30533Q705.4 315.7272 705.4 314.55533ZM707.2438 313.07095Q706.8375 313.07095 706.5719 313.4147Q706.3219 313.75845 706.3219 314.6647Q706.3219 315.4772 706.5875 315.82095Q706.85315 316.1647 707.2438 316.1647Q707.6344 316.1647 707.9 315.82095Q708.16565 315.4772 708.16565 314.57095Q708.16565 313.74283 707.9 313.4147Q707.6344 313.07095 707.2438 313.07095Z" fill-rule="nonzero"/><path stroke="#757575" stroke-width="1.0" stroke-linecap="butt" d="M710.15 304.07095L558.5333 304.07095L534.1401 304.07095" fill-rule="nonzero"/><path fill="#9e9e9e" d="M536.1401 304.07095C536.1401 302.9664 535.2446 302.07095 534.1401 302.07095C533.0355 302.07095 532.1401 302.9664 532.1401 304.07095C532.1401 305.17554 533.0355 306.07095 534.1401 306.07095C535.2446 306.07095 536.1401 305.17554 536.1401 304.07095" fill-rule="nonzero"/><path fill="#757575" d="M22.81875 40.85L28.31875 26.537498L30.365625 26.537498L36.225 40.85L34.06875 40.85L32.396873 36.50625L26.4125 36.50625L24.834375 40.85L22.81875 40.85ZM26.959375 34.975L31.803125 34.975L30.31875 31.006248Q29.63125 29.193748 29.303125 28.037498Q29.021875 29.412498 28.521875 30.771873L26.959375 34.975ZM40.053123 40.85L36.1 30.474998L37.959373 30.474998L40.19375 36.69375Q40.553123 37.69375 40.85 38.771873Q41.084373 37.959373 41.50625 36.803123L43.803123 30.474998L45.615623 30.474998L41.69375 40.85L40.053123 40.85ZM53.271873 37.50625L55.084373 37.740623Q54.6625 39.31875 53.490623 40.209373Q52.334373 41.084373 50.521873 41.084373Q48.25625 41.084373 46.9125 39.69375Q45.584373 38.2875 45.584373 35.75625Q45.584373 33.13125 46.928123 31.693748Q48.271873 30.240623 50.428123 30.240623Q52.50625 30.240623 53.81875 31.662498Q55.146873 33.06875 55.146873 35.646873Q55.146873 35.803123 55.13125 36.115623L47.396873 36.115623Q47.490623 37.81875 48.365623 38.725Q49.240623 39.63125 50.5375 39.63125Q51.50625 39.63125 52.178123 39.13125Q52.865623 38.615623 53.271873 37.50625ZM47.490623 34.6625L53.2875 34.6625Q53.178123 33.365623 52.63125 32.709373Q51.7875 31.693748 50.44375 31.693748Q49.240623 31.693748 48.4125 32.50625Q47.584373 33.303123 47.490623 34.6625ZM57.146873 40.85L57.146873 30.474998L58.725 30.474998L58.725 32.053123Q59.334373 30.943748 59.85 30.599998Q60.365623 30.240623 60.975 30.240623Q61.865623 30.240623 62.7875 30.803123L62.178123 32.44375Q61.5375 32.053123 60.896873 32.053123Q60.31875 32.053123 59.85 32.4125Q59.396873 32.75625 59.19375 33.365623Q58.9125 34.303123 58.9125 35.4125L58.9125 40.85L57.146873 40.85ZM70.94375 39.56875Q69.95937 40.396873 69.05312 40.740623Q68.14687 41.084373 67.11562 41.084373Q65.4125 41.084373 64.49062 40.25625Q63.56875 39.4125 63.56875 38.115623Q63.56875 37.35 63.9125 36.725Q64.27187 36.1 64.83437 35.725Q65.39687 35.334373 66.1 35.13125Q66.61562 35.00625 67.6625 34.865623Q69.7875 34.615623 70.7875 34.271873Q70.80312 33.9125 70.80312 33.803123Q70.80312 32.740623 70.30312 32.2875Q69.63125 31.693748 68.30312 31.693748Q67.05312 31.693748 66.45937 32.13125Q65.88125 32.56875 65.6 33.678123L63.88125 33.44375Q64.11562 32.334373 64.64687 31.662498Q65.17812 30.974998 66.19375 30.615623Q67.20937 30.240623 68.55312 30.240623Q69.88125 30.240623 70.70937 30.553123Q71.5375 30.865623 71.92812 31.349998Q72.31875 31.818748 72.475 32.5375Q72.56875 32.990623 72.56875 34.1625L72.56875 36.50625Q72.56875 38.959373 72.67812 39.615623Q72.7875 40.25625 73.13125 40.85L71.2875 40.85Q71.02187 40.303123 70.94375 39.56875ZM70.7875 35.646873Q69.83437 36.0375 67.9125 36.303123Q66.83437 36.459373 66.38125 36.6625Q65.94375 36.85 65.69375 37.225Q65.44375 37.6 65.44375 38.06875Q65.44375 38.771873 65.975 39.240623Q66.50625 39.709373 67.5375 39.709373Q68.55312 39.709373 69.33437 39.271873Q70.13125 38.81875 70.50625 38.053123Q70.7875 37.44375 70.7875 36.2875L70.7875 35.646873ZM74.85 41.709373L76.55312 41.959373Q76.6625 42.75625 77.14687 43.115623Q77.80312 43.6 78.94375 43.6Q80.1625 43.6 80.81875 43.115623Q81.49062 42.63125 81.725 41.75625Q81.86562 41.209373 81.85 39.490623Q80.69375 40.85 78.975 40.85Q76.83437 40.85 75.6625 39.303123Q74.49062 37.75625 74.49062 35.6Q74.49062 34.115623 75.02187 32.865623Q75.56875 31.615623 76.58437 30.928123Q77.61562 30.240623 78.99062 30.240623Q80.81875 30.240623 82.02187 31.724998L82.02187 30.474998L83.63125 30.474998L83.63125 39.44375Q83.63125 41.865623 83.13125 42.865623Q82.64687 43.88125 81.56875 44.459373Q80.50625 45.053123 78.94375 45.053123Q77.1 45.053123 75.94375 44.225Q74.80312 43.396873 74.85 41.709373ZM76.30312 35.475Q76.30312 37.521873 77.11562 38.459373Q77.92812 39.396873 79.14687 39.396873Q80.35 39.396873 81.1625 38.459373Q81.99062 37.521873 81.99062 35.5375Q81.99062 33.63125 81.14687 32.6625Q80.30312 31.693748 79.11562 31.693748Q77.94375 31.693748 77.11562 32.646873Q76.30312 33.6 76.30312 35.475ZM93.27187 37.50625L95.08437 37.740623Q94.6625 39.31875 93.49062 40.209373Q92.33437 41.084373 90.52187 41.084373Q88.25625 41.084373 86.9125 39.69375Q85.58437 38.2875 85.58437 35.75625Q85.58437 33.13125 86.92812 31.693748Q88.27187 30.240623 90.42812 30.240623Q92.50625 30.240623 93.81875 31.662498Q95.14687 33.06875 95.14687 35.646873Q95.14687 35.803123 95.13125 36.115623L87.39687 36.115623Q87.49062 37.81875 88.36562 38.725Q89.24062 39.63125 90.5375 39.63125Q91.50625 39.63125 92.17812 39.13125Q92.86562 38.615623 93.27187 37.50625ZM87.49062 34.6625L93.2875 34.6625Q93.17812 33.365623 92.63125 32.709373Q91.7875 31.693748 90.44375 31.693748Q89.24062 31.693748 88.4125 32.50625Q87.58437 33.303123 87.49062 34.6625ZM103.33437 40.85L103.33437 26.537498L106.19375 26.537498L109.56875 36.6625Q110.0375 38.084373 110.25625 38.7875Q110.50625 38.00625 111.02187 36.490623L114.44375 26.537498L116.99062 26.537498L116.99062 40.85L115.17812 40.85L115.17812 28.865623L111.00625 40.85L109.30312 40.85L105.1625 28.662498L105.1625 40.85L103.33437 40.85ZM120.17812 28.553123L120.17812 26.537498L121.94375 26.537498L121.94375 28.553123L120.17812 28.553123ZM120.17812 40.85L120.17812 30.474998L121.94375 30.474998L121.94375 40.85L120.17812 40.85ZM130.89688 40.85L130.89688 39.5375Q129.9125 41.084373 127.99062 41.084373Q126.75625 41.084373 125.70937 40.396873Q124.67812 39.709373 124.1 38.490623Q123.5375 37.271873 123.5375 35.678123Q123.5375 34.115623 124.05312 32.85Q124.56875 31.584373 125.6 30.912498Q126.64687 30.240623 127.9125 30.240623Q128.85 30.240623 129.58438 30.646873Q130.31876 31.037498 130.7875 31.662498L130.7875 26.537498L132.52188 26.537498L132.52188 40.85L130.89688 40.85ZM125.33437 35.678123Q125.33437 37.6625 126.17812 38.646873Q127.02187 39.63125 128.1625 39.63125Q129.31876 39.63125 130.11563 38.69375Q130.92813 37.75625 130.92813 35.81875Q130.92813 33.69375 130.1 32.69375Q129.2875 31.693748 128.08438 31.693748Q126.9125 31.693748 126.11562 32.6625Q125.33437 33.615623 125.33437 35.678123ZM134.42813 36.7875L136.13126 36.553123Q136.20938 38.19375 136.75626 38.803123Q137.30313 39.396873 138.27188 39.396873Q138.975 39.396873 139.49063 39.084373Q140.00626 38.75625 140.19376 38.19375Q140.39688 37.63125 140.39688 36.396873L140.39688 26.537498L142.30313 26.537498L142.30313 36.2875Q142.30313 38.084373 141.86563 39.06875Q141.42813 40.053123 140.475 40.584373Q139.5375 41.1 138.27188 41.1Q136.39688 41.1 135.38126 40.021873Q134.38126 38.928123 134.42813 36.7875ZM144.52188 35.6625Q144.52188 32.7875 146.11563 31.396873Q147.45938 30.240623 149.38126 30.240623Q151.52188 30.240623 152.86563 31.646873Q154.225 33.053123 154.225 35.521873Q154.225 37.521873 153.63126 38.678123Q153.0375 39.81875 151.88126 40.459373Q150.74063 41.084373 149.38126 41.084373Q147.19376 41.084373 145.85 39.69375Q144.52188 38.2875 144.52188 35.6625ZM146.31876 35.6625Q146.31876 37.6625 147.17813 38.646873Q148.05313 39.63125 149.38126 39.63125Q150.69376 39.63125 151.55313 38.646873Q152.42813 37.646873 152.42813 35.6Q152.42813 33.678123 151.55313 32.69375Q150.67813 31.693748 149.38126 31.693748Q148.05313 31.693748 147.17813 32.69375Q146.31876 33.678123 146.31876 35.6625ZM162.95938 40.85L162.95938 39.31875Q161.75626 41.084373 159.67813 41.084373Q158.75626 41.084373 157.95938 40.740623Q157.1625 40.38125 156.77188 39.85Q156.39688 39.31875 156.24063 38.5375Q156.13126 38.021873 156.13126 36.896873L156.13126 30.474998L157.88126 30.474998L157.88126 36.225Q157.88126 37.6 157.99063 38.084373Q158.1625 38.771873 158.69376 39.178123Q159.24063 39.56875 160.02188 39.56875Q160.81876 39.56875 161.50626 39.1625Q162.20938 38.75625 162.49063 38.06875Q162.7875 37.365623 162.7875 36.0375L162.7875 30.474998L164.5375 30.474998L164.5375 40.85L162.95938 40.85ZM166.14688 40.85L166.14688 30.474998L167.725 30.474998L167.725 32.053123Q168.33438 30.943748 168.85 30.599998Q169.36563 30.240623 169.975 30.240623Q170.86563 30.240623 171.7875 30.803123L171.17813 32.44375Q170.5375 32.053123 169.89688 32.053123Q169.31876 32.053123 168.85 32.4125Q168.39688 32.75625 168.19376 33.365623Q167.9125 34.303123 167.9125 35.4125L167.9125 40.85L166.14688 40.85ZM173.1625 40.85L173.1625 30.474998L174.75626 30.474998L174.75626 31.959373Q175.89688 30.240623 178.05313 30.240623Q178.99063 30.240623 179.77188 30.584373Q180.56876 30.912498 180.95938 31.459373Q181.35 32.00625 181.50626 32.75625Q181.6 33.25625 181.6 34.475L181.6 40.85L179.83438 40.85L179.83438 34.5375Q179.83438 33.459373 179.63126 32.928123Q179.42813 32.396873 178.89688 32.084373Q178.38126 31.771873 177.67813 31.771873Q176.55313 31.771873 175.74063 32.490623Q174.92813 33.19375 174.92813 35.178123L174.92813 40.85L173.1625 40.85ZM190.27188 37.50625L192.08438 37.740623Q191.6625 39.31875 190.49063 40.209373Q189.33438 41.084373 187.52188 41.084373Q185.25626 41.084373 183.9125 39.69375Q182.58438 38.2875 182.58438 35.75625Q182.58438 33.13125 183.92813 31.693748Q185.27188 30.240623 187.42813 30.240623Q189.50626 30.240623 190.81876 31.662498Q192.14688 33.06875 192.14688 35.646873Q192.14688 35.803123 192.13126 36.115623L184.39688 36.115623Q184.49063 37.81875 185.36563 38.725Q186.24063 39.63125 187.5375 39.63125Q188.50626 39.63125 189.17813 39.13125Q189.86563 38.615623 190.27188 37.50625ZM184.49063 34.6625L190.2875 34.6625Q190.17813 33.365623 189.63126 32.709373Q188.7875 31.693748 187.44376 31.693748Q186.24063 31.693748 185.4125 32.50625Q184.58438 33.303123 184.49063 34.6625ZM194.08438 44.85L193.89688 43.19375Q194.475 43.35 194.89688 43.35Q195.49063 43.35 195.83438 43.146873Q196.19376 42.959373 196.4125 42.615623Q196.58438 42.35 196.95938 41.303123Q197.00626 41.146873 197.11563 40.865623L193.17813 30.474998L195.06876 30.474998L197.225 36.490623Q197.64688 37.63125 197.975 38.88125Q198.2875 37.678123 198.69376 36.521873L200.9125 30.474998L202.67813 30.474998L198.725 41.021873Q198.1 42.740623 197.74063 43.38125Q197.27188 44.25625 196.6625 44.646873Q196.06876 45.053123 195.225 45.053123Q194.70938 45.053123 194.08438 44.85ZM209.45938 37.75625L211.20938 37.475Q211.35 38.521873 212.02188 39.084373Q212.69376 39.63125 213.89688 39.63125Q215.1 39.63125 215.67813 39.146873Q216.27188 38.646873 216.27188 37.990623Q216.27188 37.396873 215.75626 37.053123Q215.39688 36.81875 213.95938 36.459373Q212.02188 35.959373 211.27188 35.615623Q210.5375 35.25625 210.14688 34.63125Q209.75626 33.990623 209.75626 33.225Q209.75626 32.5375 210.06876 31.943748Q210.39688 31.349998 210.94376 30.959373Q211.35 30.662498 212.05313 30.459373Q212.77188 30.240623 213.58438 30.240623Q214.80313 30.240623 215.725 30.599998Q216.64688 30.943748 217.08438 31.553123Q217.52188 32.146873 217.69376 33.146873L215.975 33.38125Q215.85 32.584373 215.2875 32.146873Q214.725 31.693748 213.70938 31.693748Q212.49063 31.693748 211.975 32.1Q211.45938 32.490623 211.45938 33.021873Q211.45938 33.365623 211.67813 33.646873Q211.88126 33.928123 212.35 34.115623Q212.61563 34.209373 213.89688 34.553123Q215.77188 35.053123 216.50626 35.38125Q217.24063 35.69375 217.6625 36.303123Q218.08438 36.896873 218.08438 37.803123Q218.08438 38.678123 217.56876 39.459373Q217.05313 40.240623 216.08438 40.6625Q215.11563 41.084373 213.89688 41.084373Q211.88126 41.084373 210.81876 40.240623Q209.75626 39.396873 209.45938 37.75625ZM226.94376 37.053123L228.6625 37.271873Q228.38126 39.06875 227.20938 40.084373Q226.05313 41.084373 224.35 41.084373Q222.225 41.084373 220.92813 39.69375Q219.63126 38.303123 219.63126 35.709373Q219.63126 34.021873 220.17813 32.771873Q220.74063 31.506248 221.88126 30.881248Q223.02188 30.240623 224.36563 30.240623Q226.05313 30.240623 227.11563 31.099998Q228.19376 31.959373 228.50626 33.521873L226.7875 33.7875Q226.55313 32.740623 225.92813 32.225Q225.30313 31.693748 224.42813 31.693748Q223.1 31.693748 222.27188 32.646873Q221.44376 33.6 221.44376 35.646873Q221.44376 37.740623 222.24063 38.69375Q223.0375 39.63125 224.33438 39.63125Q225.36563 39.63125 226.05313 39.00625Q226.75626 38.365623 226.94376 37.053123ZM229.52188 35.6625Q229.52188 32.7875 231.11563 31.396873Q232.45938 30.240623 234.38126 30.240623Q236.52188 30.240623 237.86563 31.646873Q239.225 33.053123 239.225 35.521873Q239.225 37.521873 238.63126 38.678123Q238.0375 39.81875 236.88126 40.459373Q235.74063 41.084373 234.38126 41.084373Q232.19376 41.084373 230.85 39.69375Q229.52188 38.2875 229.52188 35.6625ZM231.31876 35.6625Q231.31876 37.6625 232.17813 38.646873Q233.05313 39.63125 234.38126 39.63125Q235.69376 39.63125 236.55313 38.646873Q237.42813 37.646873 237.42813 35.6Q237.42813 33.678123 236.55313 32.69375Q235.67813 31.693748 234.38126 31.693748Q233.05313 31.693748 232.17813 32.69375Q231.31876 33.678123 231.31876 35.6625ZM241.14688 40.85L241.14688 30.474998L242.725 30.474998L242.725 32.053123Q243.33438 30.943748 243.85 30.599998Q244.36563 30.240623 244.975 30.240623Q245.86563 30.240623 246.7875 30.803123L246.17813 32.44375Q245.5375 32.053123 244.89688 32.053123Q244.31876 32.053123 243.85 32.4125Q243.39688 32.75625 243.19376 33.365623Q242.9125 34.303123 242.9125 35.4125L242.9125 40.85L241.14688 40.85ZM255.27188 37.50625L257.08438 37.740623Q256.6625 39.31875 255.49063 40.209373Q254.33438 41.084373 252.52188 41.084373Q250.25626 41.084373 248.9125 39.69375Q247.58438 38.2875 247.58438 35.75625Q247.58438 33.13125 248.92813 31.693748Q250.27188 30.240623 252.42813 30.240623Q254.50626 30.240623 255.81876 31.662498Q257.14688 33.06875 257.14688 35.646873Q257.14688 35.803123 257.13126 36.115623L249.39688 36.115623Q249.49063 37.81875 250.36563 38.725Q251.24063 39.63125 252.5375 39.63125Q253.50626 39.63125 254.17813 39.13125Q254.86563 38.615623 255.27188 37.50625ZM249.49063 34.6625L255.2875 34.6625Q255.17813 33.365623 254.63126 32.709373Q253.7875 31.693748 252.44376 31.693748Q251.24063 31.693748 250.4125 32.50625Q249.58438 33.303123 249.49063 34.6625ZM266.7875 40.85L265.1625 40.85L265.1625 26.537498L266.9125 26.537498L266.9125 31.646873Q268.0375 30.240623 269.75626 30.240623Q270.70938 30.240623 271.56876 30.631248Q272.42813 31.021873 272.975 31.724998Q273.52188 32.4125 273.83438 33.396873Q274.14688 34.38125 274.14688 35.50625Q274.14688 38.178123 272.83438 39.63125Q271.52188 41.084373 269.67813 41.084373Q267.83438 41.084373 266.7875 39.553123L266.7875 40.85ZM266.77188 35.584373Q266.77188 37.44375 267.27188 38.2875Q268.11563 39.63125 269.52188 39.63125Q270.67813 39.63125 271.50626 38.63125Q272.35 37.63125 272.35 35.646873Q272.35 33.615623 271.5375 32.6625Q270.74063 31.693748 269.6 31.693748Q268.44376 31.693748 267.6 32.69375Q266.77188 33.69375 266.77188 35.584373ZM276.08438 44.85L275.89688 43.19375Q276.475 43.35 276.89688 43.35Q277.49063 43.35 277.83438 43.146873Q278.19376 42.959373 278.4125 42.615623Q278.58438 42.35 278.95938 41.303123Q279.00626 41.146873 279.11563 40.865623L275.17813 30.474998L277.06876 30.474998L279.225 36.490623Q279.64688 37.63125 279.975 38.88125Q280.2875 37.678123 280.69376 36.521873L282.9125 30.474998L284.67813 30.474998L280.725 41.021873Q280.1 42.740623 279.74063 43.38125Q279.27188 44.25625 278.6625 44.646873Q278.06876 45.053123 277.225 45.053123Q276.70938 45.053123 276.08438 44.85ZM298.94376 39.56875Q297.95938 40.396873 297.05313 40.740623Q296.14688 41.084373 295.11563 41.084373Q293.4125 41.084373 292.49063 40.25625Q291.56876 39.4125 291.56876 38.115623Q291.56876 37.35 291.9125 36.725Q292.27188 36.1 292.83438 35.725Q293.39688 35.334373 294.1 35.13125Q294.61563 35.00625 295.6625 34.865623Q297.7875 34.615623 298.7875 34.271873Q298.80313 33.9125 298.80313 33.803123Q298.80313 32.740623 298.30313 32.2875Q297.63126 31.693748 296.30313 31.693748Q295.05313 31.693748 294.45938 32.13125Q293.88126 32.56875 293.6 33.678123L291.88126 33.44375Q292.11563 32.334373 292.64688 31.662498Q293.17813 30.974998 294.19376 30.615623Q295.20938 30.240623 296.55313 30.240623Q297.88126 30.240623 298.70938 30.553123Q299.5375 30.865623 299.92813 31.349998Q300.31876 31.818748 300.475 32.5375Q300.56876 32.990623 300.56876 34.1625L300.56876 36.50625Q300.56876 38.959373 300.67813 39.615623Q300.7875 40.25625 301.13126 40.85L299.2875 40.85Q299.02188 40.303123 298.94376 39.56875ZM298.7875 35.646873Q297.83438 36.0375 295.9125 36.303123Q294.83438 36.459373 294.38126 36.6625Q293.94376 36.85 293.69376 37.225Q293.44376 37.6 293.44376 38.06875Q293.44376 38.771873 293.975 39.240623Q294.50626 39.709373 295.5375 39.709373Q296.55313 39.709373 297.33438 39.271873Q298.13126 38.81875 298.50626 38.053123Q298.7875 37.44375 298.7875 36.2875L298.7875 35.646873ZM303.13126 40.85L303.13126 26.537498L304.88126 26.537498L304.88126 40.85L303.13126 40.85ZM306.85 41.709373L308.55313 41.959373Q308.6625 42.75625 309.14688 43.115623Q309.80313 43.6 310.94376 43.6Q312.1625 43.6 312.81876 43.115623Q313.49063 42.63125 313.725 41.75625Q313.86563 41.209373 313.85 39.490623Q312.69376 40.85 310.975 40.85Q308.83438 40.85 307.6625 39.303123Q306.49063 37.75625 306.49063 35.6Q306.49063 34.115623 307.02188 32.865623Q307.56876 31.615623 308.58438 30.928123Q309.61563 30.240623 310.99063 30.240623Q312.81876 30.240623 314.02188 31.724998L314.02188 30.474998L315.63126 30.474998L315.63126 39.44375Q315.63126 41.865623 315.13126 42.865623Q314.64688 43.88125 313.56876 44.459373Q312.50626 45.053123 310.94376 45.053123Q309.1 45.053123 307.94376 44.225Q306.80313 43.396873 306.85 41.709373ZM308.30313 35.475Q308.30313 37.521873 309.11563 38.459373Q309.92813 39.396873 311.14688 39.396873Q312.35 39.396873 313.1625 38.459373Q313.99063 37.521873 313.99063 35.5375Q313.99063 33.63125 313.14688 32.6625Q312.30313 31.693748 311.11563 31.693748Q309.94376 31.693748 309.11563 32.646873Q308.30313 33.6 308.30313 35.475ZM317.52188 35.6625Q317.52188 32.7875 319.11563 31.396873Q320.45938 30.240623 322.38126 30.240623Q324.52188 30.240623 325.86563 31.646873Q327.225 33.053123 327.225 35.521873Q327.225 37.521873 326.63126 38.678123Q326.0375 39.81875 324.88126 40.459373Q323.74063 41.084373 322.38126 41.084373Q320.19376 41.084373 318.85 39.69375Q317.52188 38.2875 317.52188 35.6625ZM319.31876 35.6625Q319.31876 37.6625 320.17813 38.646873Q321.05313 39.63125 322.38126 39.63125Q323.69376 39.63125 324.55313 38.646873Q325.42813 37.646873 325.42813 35.6Q325.42813 33.678123 324.55313 32.69375Q323.67813 31.693748 322.38126 31.693748Q321.05313 31.693748 320.17813 32.69375Q319.31876 33.678123 319.31876 35.6625ZM329.14688 40.85L329.14688 30.474998L330.725 30.474998L330.725 32.053123Q331.33438 30.943748 331.85 30.599998Q332.36563 30.240623 332.975 30.240623Q333.86563 30.240623 334.7875 30.803123L334.17813 32.44375Q333.5375 32.053123 332.89688 32.053123Q332.31876 32.053123 331.85 32.4125Q331.39688 32.75625 331.19376 33.365623Q330.9125 34.303123 330.9125 35.4125L330.9125 40.85L329.14688 40.85ZM336.17813 28.553123L336.17813 26.537498L337.94376 26.537498L337.94376 28.553123L336.17813 28.553123ZM336.17813 40.85L336.17813 30.474998L337.94376 30.474998L337.94376 40.85L336.17813 40.85ZM344.00626 39.271873L344.25626 40.834373Q343.52188 40.990623 342.92813 40.990623Q341.975 40.990623 341.44376 40.69375Q340.92813 40.38125 340.70938 39.896873Q340.49063 39.396873 340.49063 37.81875L340.49063 31.849998L339.20938 31.849998L339.20938 30.474998L340.49063 30.474998L340.49063 27.912498L342.24063 26.849998L342.24063 30.474998L344.00626 30.474998L344.00626 31.849998L342.24063 31.849998L342.24063 37.9125Q342.24063 38.6625 342.33438 38.88125Q342.42813 39.084373 342.63126 39.225Q342.85 39.35 343.24063 39.35Q343.52188 39.35 344.00626 39.271873ZM346.1625 40.85L346.1625 26.537498L347.92813 26.537498L347.92813 31.662498Q349.1625 30.240623 351.0375 30.240623Q352.17813 30.240623 353.02188 30.693748Q353.88126 31.146873 354.24063 31.959373Q354.61563 32.75625 354.61563 34.271873L354.61563 40.85L352.86563 40.85L352.86563 34.271873Q352.86563 32.959373 352.2875 32.365623Q351.70938 31.756248 350.67813 31.756248Q349.89688 31.756248 349.19376 32.1625Q348.50626 32.56875 348.20938 33.271873Q347.92813 33.959373 347.92813 35.178123L347.92813 40.85L346.1625 40.85ZM356.1625 40.85L356.1625 30.474998L357.74063 30.474998L357.74063 31.928123Q358.225 31.178123 359.0375 30.709373Q359.85 30.240623 360.88126 30.240623Q362.0375 30.240623 362.77188 30.724998Q363.50626 31.193748 363.81876 32.053123Q365.05313 30.240623 367.02188 30.240623Q368.56876 30.240623 369.39688 31.099998Q370.225 31.959373 370.225 33.725L370.225 40.85L368.475 40.85L368.475 34.31875Q368.475 33.25625 368.30313 32.803123Q368.13126 32.334373 367.67813 32.053123Q367.24063 31.771873 366.63126 31.771873Q365.5375 31.771873 364.80313 32.50625Q364.08438 33.225 364.08438 34.81875L364.08438 40.85L362.33438 40.85L362.33438 34.115623Q362.33438 32.94375 361.89688 32.365623Q361.475 31.771873 360.49063 31.771873Q359.75626 31.771873 359.11563 32.1625Q358.49063 32.553123 358.20938 33.303123Q357.92813 34.053123 357.92813 35.475L357.92813 40.85L356.1625 40.85Z" fill-rule="nonzero"/></svg>