<svg version="1.1" viewBox="0.0 0.0 733.0 457.0" fill="none" stroke="none" stroke-linecap="square" stroke-miterlimit="10" width="733" height="457" xmlns:xlink="http://www.w3.org/1999/xlink" xmlns="http://www.w3.org/2000/svg"><path fill="#ffffff" d="M0 0L733.0 0L733.0 457.0L0 457.0L0 0Z" fill-rule="nonzero"/><path fill="#4285f4" d="M366.5 62.083332C440.05447 62.083332 506.70267 105.421646 536.5399 172.65257L366.5 248.11667Z" fill-rule="nonzero"/><path fill="#ea4335" d="M536.5399 172.65257C570.2242 248.5519 549.52795 337.5846 485.81976 390.84436L366.5 248.11667Z" fill-rule="nonzero"/><path fill="#ff6d01" d="M190.08954 189.0595C215.48141 113.21106 286.51416 62.083332 366.5 62.083332L366.5 248.11667Z" fill-rule="nonzero"/><path fill="#34a853" d="M262.98676 402.6916C193.32573 356.0421 163.47472 268.56097 190.08954 189.0595L366.5 248.11667Z" fill-rule="nonzero"/><path fill="#fbbc04" d="M485.81976 390.84436C422.418 443.84796 331.6512 448.6737 262.98676 402.6916L366.5 248.11667Z" fill-rule="nonzero"/><path fill="#000000" d="M432.40353 128.50038L433.7004 128.391Q433.84103 129.3285 434.35666 129.81288Q434.8879 130.28163 435.62228 130.28163Q436.5129 130.28163 437.12228 129.60976Q437.74728 128.93788 437.74728 127.84413Q437.74728 126.78163 437.15353 126.17226Q436.55978 125.56288 435.60666 125.56288Q435.0129 125.56288 434.52853 125.84413Q434.05978 126.10976 433.77853 126.53163L432.62228 126.39101L433.59103 121.23476L438.5754 121.23476L438.5754 122.42226L434.5754 122.42226L434.04416 125.10976Q434.9504 124.48476 435.93478 124.48476Q437.24728 124.48476 438.1379 125.39101Q439.04416 126.29726 439.04416 127.73476Q439.04416 129.09413 438.2629 130.0785Q437.29416 131.29726 435.62228 131.29726Q434.2629 131.29726 433.3879 130.53163Q432.52853 129.766 432.40353 128.50038ZM441.09103 131.12538L441.09103 129.71913L442.49728 129.71913L442.49728 131.12538L441.09103 131.12538ZM444.59103 128.81288L445.77853 128.7035Q445.91916 129.53163 446.34103 129.90663Q446.77853 130.28163 447.43478 130.28163Q447.99728 130.28163 448.41916 130.03163Q448.85666 129.766 449.12228 129.3285Q449.40353 128.891 449.59103 128.15663Q449.77853 127.42226 449.77853 126.65663Q449.77853 126.57851 449.7629 126.40663Q449.40353 127.00038 448.7629 127.37538Q448.12228 127.73476 447.37228 127.73476Q446.12228 127.73476 445.2629 126.82851Q444.40353 125.92226 444.40353 124.45351Q444.40353 122.92226 445.29416 122.00038Q446.2004 121.06288 447.55978 121.06288Q448.52853 121.06288 449.34103 121.59413Q450.15353 122.10976 450.5754 123.09413Q450.99728 124.06288 450.99728 125.90663Q450.99728 127.82851 450.5754 128.96913Q450.16916 130.10976 449.34103 130.7035Q448.5129 131.29726 447.40353 131.29726Q446.23166 131.29726 445.48166 130.641Q444.74728 129.98476 444.59103 128.81288ZM449.62228 124.39101Q449.62228 123.32851 449.05978 122.70351Q448.49728 122.07851 447.71603 122.07851Q446.8879 122.07851 446.27853 122.75038Q445.66916 123.42226 445.66916 124.48476Q445.66916 125.43788 446.24728 126.04726Q446.8254 126.64101 447.66916 126.64101Q448.52853 126.64101 449.0754 126.04726Q449.62228 125.43788 449.62228 124.39101ZM452.48166 122.42226L452.48166 121.23476L458.98166 121.23476L458.98166 122.18788Q458.0129 123.20351 457.0754 124.89101Q456.1379 126.57851 455.62228 128.37538Q455.2629 129.62538 455.15353 131.12538L453.8879 131.12538Q453.90353 129.93788 454.34103 128.266Q454.79416 126.59413 455.62228 125.04726Q456.46603 123.48476 457.40353 122.42226L452.48166 122.42226Z" fill-rule="nonzero"/><path fill="#000000" d="M502.9706 278.91214L501.75186 279.0059Q501.58 278.2715 501.2831 277.9434Q500.7831 277.42776 500.04874 277.42776Q499.455 277.42776 499.0175 277.7559Q498.43936 278.17776 498.0956 278.99026Q497.7675 279.80276 497.75186 281.30276Q498.18936 280.6309 498.83 280.30276Q499.48624 279.97464 500.18936 279.97464Q501.42374 279.97464 502.2831 280.8809Q503.1425 281.78714 503.1425 283.22464Q503.1425 284.16214 502.73624 284.97464Q502.33 285.78714 501.61124 286.22464Q500.9081 286.6465 500.00186 286.6465Q498.4706 286.6465 497.50186 285.5215Q496.5331 284.3809 496.5331 281.78714Q496.5331 278.8809 497.5956 277.55276Q498.5331 276.41214 500.12686 276.41214Q501.31436 276.41214 502.06436 277.084Q502.81436 277.74026 502.9706 278.91214ZM497.93936 283.22464Q497.93936 283.86526 498.205 284.4434Q498.48624 285.0215 498.9706 285.334Q499.455 285.6309 499.98624 285.6309Q500.7675 285.6309 501.33 285.0059Q501.8925 284.3809 501.8925 283.30276Q501.8925 282.2559 501.33 281.66214Q500.7831 281.05276 499.93936 281.05276Q499.11124 281.05276 498.5175 281.66214Q497.93936 282.2559 497.93936 283.22464ZM505.2675 286.47464L505.2675 285.0684L506.67374 285.0684L506.67374 286.47464L505.2675 286.47464ZM514.9706 278.91214L513.75183 279.0059Q513.57996 278.2715 513.2831 277.9434Q512.7831 277.42776 512.0487 277.42776Q511.455 277.42776 511.0175 277.7559Q510.43936 278.17776 510.0956 278.99026Q509.7675 279.80276 509.75186 281.30276Q510.18936 280.6309 510.83 280.30276Q511.48624 279.97464 512.18933 279.97464Q513.4237 279.97464 514.2831 280.8809Q515.14246 281.78714 515.14246 283.22464Q515.14246 284.16214 514.7362 284.97464Q514.32996 285.78714 513.6112 286.22464Q512.9081 286.6465 512.00183 286.6465Q510.4706 286.6465 509.50186 285.5215Q508.5331 284.3809 508.5331 281.78714Q508.5331 278.8809 509.5956 277.55276Q510.5331 276.41214 512.12683 276.41214Q513.31433 276.41214 514.06433 277.084Q514.81433 277.74026 514.9706 278.91214ZM509.93936 283.22464Q509.93936 283.86526 510.205 284.4434Q510.48624 285.0215 510.9706 285.334Q511.455 285.6309 511.98624 285.6309Q512.76746 285.6309 513.32996 285.0059Q513.89246 284.3809 513.89246 283.30276Q513.89246 282.2559 513.32996 281.66214Q512.7831 281.05276 511.93936 281.05276Q511.11124 281.05276 510.5175 281.66214Q509.93936 282.2559 509.93936 283.22464ZM516.76746 284.16214L517.95496 284.05276Q518.0956 284.8809 518.51746 285.2559Q518.95496 285.6309 519.6112 285.6309Q520.1737 285.6309 520.5956 285.3809Q521.0331 285.11526 521.2987 284.67776Q521.57996 284.24026 521.76746 283.5059Q521.95496 282.7715 521.95496 282.0059Q521.95496 281.92776 521.93933 281.7559Q521.57996 282.34964 520.93933 282.72464Q520.2987 283.084 519.5487 283.084Q518.2987 283.084 517.43933 282.17776Q516.57996 281.2715 516.57996 279.80276Q516.57996 278.2715 517.4706 277.34964Q518.37683 276.41214 519.7362 276.41214Q520.70496 276.41214 521.51746 276.9434Q522.32996 277.459 522.75183 278.4434Q523.1737 279.41214 523.1737 281.2559Q523.1737 283.17776 522.75183 284.3184Q522.3456 285.459 521.51746 286.05276Q520.68933 286.6465 519.57996 286.6465Q518.4081 286.6465 517.6581 285.99026Q516.9237 285.334 516.76746 284.16214ZM521.7987 279.74026Q521.7987 278.67776 521.2362 278.05276Q520.6737 277.42776 519.89246 277.42776Q519.06433 277.42776 518.45496 278.09964Q517.8456 278.7715 517.8456 279.834Q517.8456 280.78714 518.4237 281.3965Q519.00183 281.99026 519.8456 281.99026Q520.70496 281.99026 521.25183 281.3965Q521.7987 280.78714 521.7987 279.74026Z" fill-rule="nonzero"/><path fill="#000000" d="M367.7038 400.44635L366.48505 400.5401Q366.31317 399.80573 366.0163 399.4776Q365.5163 398.96198 364.78192 398.96198Q364.18817 398.96198 363.75067 399.2901Q363.17255 399.71198 362.8288 400.52448Q362.50067 401.33698 362.48505 402.83698Q362.92255 402.1651 363.56317 401.83698Q364.21942 401.50885 364.92255 401.50885Q366.15692 401.50885 367.0163 402.4151Q367.87567 403.32135 367.87567 404.75885Q367.87567 405.69635 367.46942 406.50885Q367.06317 407.32135 366.34442 407.75885Q365.6413 408.18073 364.73505 408.18073Q363.2038 408.18073 362.23505 407.05573Q361.2663 405.9151 361.2663 403.32135Q361.2663 400.4151 362.3288 399.08698Q363.2663 397.94635 364.86005 397.94635Q366.04755 397.94635 366.79755 398.61823Q367.54755 399.27448 367.7038 400.44635ZM362.67255 404.75885Q362.67255 405.39948 362.93817 405.9776Q363.21942 406.55573 363.7038 406.86823Q364.18817 407.1651 364.71942 407.1651Q365.50067 407.1651 366.06317 406.5401Q366.62567 405.9151 366.62567 404.83698Q366.62567 403.7901 366.06317 403.19635Q365.5163 402.58698 364.67255 402.58698Q363.84442 402.58698 363.25067 403.19635Q362.67255 403.7901 362.67255 404.75885ZM370.00067 408.00885L370.00067 406.6026L371.40692 406.6026L371.40692 408.00885L370.00067 408.00885ZM379.7038 400.44635L378.48505 400.5401Q378.31317 399.80573 378.0163 399.4776Q377.5163 398.96198 376.78192 398.96198Q376.18817 398.96198 375.75067 399.2901Q375.17255 399.71198 374.8288 400.52448Q374.50067 401.33698 374.48505 402.83698Q374.92255 402.1651 375.56317 401.83698Q376.21942 401.50885 376.92255 401.50885Q378.15692 401.50885 379.0163 402.4151Q379.87567 403.32135 379.87567 404.75885Q379.87567 405.69635 379.46942 406.50885Q379.06317 407.32135 378.34442 407.75885Q377.6413 408.18073 376.73505 408.18073Q375.2038 408.18073 374.23505 407.05573Q373.2663 405.9151 373.2663 403.32135Q373.2663 400.4151 374.3288 399.08698Q375.2663 397.94635 376.86005 397.94635Q378.04755 397.94635 378.79755 398.61823Q379.54755 399.27448 379.7038 400.44635ZM374.67255 404.75885Q374.67255 405.39948 374.93817 405.9776Q375.21942 406.55573 375.7038 406.86823Q376.18817 407.1651 376.71942 407.1651Q377.50067 407.1651 378.06317 406.5401Q378.62567 405.9151 378.62567 404.83698Q378.62567 403.7901 378.06317 403.19635Q377.5163 402.58698 376.67255 402.58698Q375.84442 402.58698 375.25067 403.19635Q374.67255 403.7901 374.67255 404.75885ZM387.7038 400.44635L386.48505 400.5401Q386.31317 399.80573 386.0163 399.4776Q385.5163 398.96198 384.78192 398.96198Q384.18817 398.96198 383.75067 399.2901Q383.17255 399.71198 382.8288 400.52448Q382.50067 401.33698 382.48505 402.83698Q382.92255 402.1651 383.56317 401.83698Q384.21942 401.50885 384.92255 401.50885Q386.15692 401.50885 387.0163 402.4151Q387.87567 403.32135 387.87567 404.75885Q387.87567 405.69635 387.46942 406.50885Q387.06317 407.32135 386.34442 407.75885Q385.6413 408.18073 384.73505 408.18073Q383.2038 408.18073 382.23505 407.05573Q381.2663 405.9151 381.2663 403.32135Q381.2663 400.4151 382.3288 399.08698Q383.2663 397.94635 384.86005 397.94635Q386.04755 397.94635 386.79755 398.61823Q387.54755 399.27448 387.7038 400.44635ZM382.67255 404.75885Q382.67255 405.39948 382.93817 405.9776Q383.21942 406.55573 383.7038 406.86823Q384.18817 407.1651 384.71942 407.1651Q385.50067 407.1651 386.06317 406.5401Q386.62567 405.9151 386.62567 404.83698Q386.62567 403.7901 386.06317 403.19635Q385.5163 402.58698 384.67255 402.58698Q383.84442 402.58698 383.25067 403.19635Q382.67255 403.7901 382.67255 404.75885Z" fill-rule="nonzero"/><path fill="#000000" d="M221.28423 292.70657L220.06548 292.80032Q219.8936 292.06595 219.59673 291.73782Q219.09673 291.2222 218.36235 291.2222Q217.7686 291.2222 217.3311 291.55032Q216.75298 291.9722 216.40923 292.7847Q216.0811 293.5972 216.06548 295.0972Q216.50298 294.42532 217.1436 294.0972Q217.79985 293.76907 218.50298 293.76907Q219.73735 293.76907 220.59673 294.67532Q221.4561 295.58157 221.4561 297.01907Q221.4561 297.95657 221.04985 298.76907Q220.6436 299.58157 219.92485 300.01907Q219.22173 300.44095 218.31548 300.44095Q216.78423 300.44095 215.81548 299.31595Q214.84673 298.17532 214.84673 295.58157Q214.84673 292.67532 215.90923 291.3472Q216.84673 290.20657 218.44048 290.20657Q219.62798 290.20657 220.37798 290.87845Q221.12798 291.5347 221.28423 292.70657ZM216.25298 297.01907Q216.25298 297.6597 216.5186 298.23782Q216.79985 298.81595 217.28423 299.12845Q217.7686 299.42532 218.29985 299.42532Q219.0811 299.42532 219.6436 298.80032Q220.2061 298.17532 220.2061 297.0972Q220.2061 296.05032 219.6436 295.45657Q219.09673 294.8472 218.25298 294.8472Q217.42485 294.8472 216.8311 295.45657Q216.25298 296.05032 216.25298 297.01907ZM223.5811 300.26907L223.5811 298.86282L224.98735 298.86282L224.98735 300.26907L223.5811 300.26907ZM226.97173 291.56595L226.97173 290.37845L233.47173 290.37845L233.47173 291.33157Q232.50298 292.3472 231.56548 294.0347Q230.62798 295.7222 230.11235 297.51907Q229.75298 298.76907 229.6436 300.26907L228.37798 300.26907Q228.3936 299.08157 228.8311 297.4097Q229.28423 295.73782 230.11235 294.19095Q230.9561 292.62845 231.8936 291.56595L226.97173 291.56595ZM234.8936 297.64407L236.19048 297.5347Q236.3311 298.4722 236.84673 298.95657Q237.37798 299.42532 238.11235 299.42532Q239.00298 299.42532 239.61235 298.75345Q240.23735 298.08157 240.23735 296.98782Q240.23735 295.92532 239.6436 295.31595Q239.04985 294.70657 238.09673 294.70657Q237.50298 294.70657 237.0186 294.98782Q236.54985 295.25345 236.2686 295.67532L235.11235 295.5347L236.0811 290.37845L241.06548 290.37845L241.06548 291.56595L237.06548 291.56595L236.53423 294.25345Q237.44048 293.62845 238.42485 293.62845Q239.73735 293.62845 240.62798 294.5347Q241.53423 295.44095 241.53423 296.87845Q241.53423 298.23782 240.75298 299.2222Q239.78423 300.44095 238.11235 300.44095Q236.75298 300.44095 235.87798 299.67532Q235.0186 298.9097 234.8936 297.64407Z" fill-rule="nonzero"/><path fill="#000000" d="M274.7184 127.8089L273.49966 127.90265Q273.3278 127.168274 273.0309 126.84015Q272.5309 126.324524 271.79654 126.324524Q271.2028 126.324524 270.7653 126.65265Q270.18716 127.074524 269.8434 127.887024Q269.5153 128.69952 269.49966 130.19952Q269.93716 129.52765 270.5778 129.19952Q271.23404 128.8714 271.93716 128.8714Q273.17154 128.8714 274.0309 129.77765Q274.8903 130.6839 274.8903 132.1214Q274.8903 133.0589 274.48404 133.8714Q274.0778 134.6839 273.35904 135.1214Q272.6559 135.54327 271.74966 135.54327Q270.2184 135.54327 269.24966 134.41827Q268.2809 133.27765 268.2809 130.6839Q268.2809 127.77765 269.3434 126.449524Q270.2809 125.3089 271.87466 125.3089Q273.06216 125.3089 273.81216 125.980774Q274.56216 126.637024 274.7184 127.8089ZM269.68716 132.1214Q269.68716 132.76202 269.9528 133.34015Q270.23404 133.91827 270.7184 134.23077Q271.2028 134.52765 271.73404 134.52765Q272.5153 134.52765 273.0778 133.90265Q273.6403 133.27765 273.6403 132.19952Q273.6403 131.15265 273.0778 130.5589Q272.5309 129.94952 271.68716 129.94952Q270.85904 129.94952 270.2653 130.5589Q269.68716 131.15265 269.68716 132.1214ZM277.0153 135.3714L277.0153 133.96515L278.42154 133.96515L278.42154 135.3714L277.0153 135.3714ZM284.2809 135.3714L284.2809 132.96515L279.92154 132.96515L279.92154 131.84015L284.49966 125.355774L285.49966 125.355774L285.49966 131.84015L286.85904 131.84015L286.85904 132.96515L285.49966 132.96515L285.49966 135.3714L284.2809 135.3714ZM284.2809 131.84015L284.2809 127.324524L281.1403 131.84015L284.2809 131.84015ZM294.7184 127.8089L293.49966 127.90265Q293.3278 127.168274 293.0309 126.84015Q292.5309 126.324524 291.79654 126.324524Q291.2028 126.324524 290.7653 126.65265Q290.18716 127.074524 289.8434 127.887024Q289.5153 128.69952 289.49966 130.19952Q289.93716 129.52765 290.5778 129.19952Q291.23404 128.8714 291.93716 128.8714Q293.17154 128.8714 294.0309 129.77765Q294.8903 130.6839 294.8903 132.1214Q294.8903 133.0589 294.48404 133.8714Q294.0778 134.6839 293.35904 135.1214Q292.6559 135.54327 291.74966 135.54327Q290.2184 135.54327 289.24966 134.41827Q288.2809 133.27765 288.2809 130.6839Q288.2809 127.77765 289.3434 126.449524Q290.2809 125.3089 291.87466 125.3089Q293.06216 125.3089 293.81216 125.980774Q294.56216 126.637024 294.7184 127.8089ZM289.68716 132.1214Q289.68716 132.76202 289.9528 133.34015Q290.23404 133.91827 290.7184 134.23077Q291.2028 134.52765 291.73404 134.52765Q292.5153 134.52765 293.0778 133.90265Q293.6403 133.27765 293.6403 132.19952Q293.6403 131.15265 293.0778 130.5589Q292.5309 129.94952 291.68716 129.94952Q290.85904 129.94952 290.2653 130.5589Q289.68716 131.15265 289.68716 132.1214Z" fill-rule="nonzero"/><path fill="#1a1a1a" d="M23.771875 100.17767L23.771875 91.58392L27.021875 91.58392Q27.865625 91.58392 28.31875 91.66205Q28.959375 91.77142 29.38125 92.0683Q29.81875 92.36517 30.06875 92.89642Q30.334375 93.42767 30.334375 94.0683Q30.334375 95.16205 29.63125 95.92767Q28.94375 96.67767 27.115625 96.67767L24.9125 96.67767L24.9125 100.17767L23.771875 100.17767ZM24.9125 95.67767L27.13125 95.67767Q28.240625 95.67767 28.69375 95.27142Q29.1625 94.84955 29.1625 94.09955Q29.1625 93.5683 28.88125 93.1933Q28.615625 92.80267 28.178125 92.67767Q27.88125 92.59955 27.115625 92.59955L24.9125 92.59955L24.9125 95.67767ZM31.646875 92.80267L31.646875 91.58392L32.709373 91.58392L32.709373 92.80267L31.646875 92.80267ZM31.646875 100.17767L31.646875 93.95892L32.709373 93.95892L32.709373 100.17767L31.646875 100.17767Z" fill-rule="nonzero"/><path fill="#9e9e9e" d="M27.31875 117.17767L26.271875 117.17767L26.271875 110.45892Q25.88125 110.8183 25.25625 111.1933Q24.646875 111.55267 24.1625 111.72455L24.1625 110.70892Q25.0375 110.28705 25.69375 109.70892Q26.365625 109.11517 26.646875 108.55267L27.31875 108.55267L27.31875 117.17767ZM30.50625 115.1933L31.521875 115.09955Q31.646875 115.8183 32.00625 116.14642Q32.38125 116.45892 32.94375 116.45892Q33.428123 116.45892 33.7875 116.24017Q34.1625 116.0058 34.396873 115.64642Q34.63125 115.27142 34.7875 114.64642Q34.94375 114.0058 34.94375 113.34955Q34.94375 113.27142 34.94375 113.1308Q34.63125 113.6308 34.084373 113.95892Q33.5375 114.27142 32.896873 114.27142Q31.81875 114.27142 31.084375 113.5058Q30.35 112.72455 30.35 111.45892Q30.35 110.14642 31.115625 109.34955Q31.896875 108.55267 33.053123 108.55267Q33.88125 108.55267 34.56875 109.0058Q35.271873 109.45892 35.63125 110.30267Q35.990623 111.1308 35.990623 112.70892Q35.990623 114.34955 35.63125 115.33392Q35.2875 116.30267 34.56875 116.8183Q33.865623 117.3183 32.928123 117.3183Q31.9125 117.3183 31.271875 116.77142Q30.63125 116.20892 30.50625 115.1933ZM34.81875 111.39642Q34.81875 110.49017 34.334373 109.95892Q33.865623 109.42767 33.178123 109.42767Q32.475 109.42767 31.94375 110.0058Q31.428125 110.5683 31.428125 111.49017Q31.428125 112.30267 31.928125 112.8183Q32.428123 113.33392 33.146873 113.33392Q33.88125 113.33392 34.35 112.8183Q34.81875 112.30267 34.81875 111.39642ZM37.94375 117.17767L37.94375 115.97455L39.146873 115.97455L39.146873 117.17767L37.94375 117.17767ZM40.50625 115.1933L41.521873 115.09955Q41.646873 115.8183 42.00625 116.14642Q42.38125 116.45892 42.94375 116.45892Q43.428123 116.45892 43.7875 116.24017Q44.1625 116.0058 44.396873 115.64642Q44.63125 115.27142 44.7875 114.64642Q44.94375 114.0058 44.94375 113.34955Q44.94375 113.27142 44.94375 113.1308Q44.63125 113.6308 44.084373 113.95892Q43.5375 114.27142 42.896873 114.27142Q41.81875 114.27142 41.084373 113.5058Q40.35 112.72455 40.35 111.45892Q40.35 110.14642 41.115623 109.34955Q41.896873 108.55267 43.053123 108.55267Q43.88125 108.55267 44.56875 109.0058Q45.271873 109.45892 45.63125 110.30267Q45.990623 111.1308 45.990623 112.70892Q45.990623 114.34955 45.63125 115.33392Q45.2875 116.30267 44.56875 116.8183Q43.865623 117.3183 42.928123 117.3183Q41.9125 117.3183 41.271873 116.77142Q40.63125 116.20892 40.50625 115.1933ZM44.81875 111.39642Q44.81875 110.49017 44.334373 109.95892Q43.865623 109.42767 43.178123 109.42767Q42.475 109.42767 41.94375 110.0058Q41.428123 110.5683 41.428123 111.49017Q41.428123 112.30267 41.928123 112.8183Q42.428123 113.33392 43.146873 113.33392Q43.88125 113.33392 44.35 112.8183Q44.81875 112.30267 44.81875 111.39642ZM47.553123 110.64642Q47.553123 109.72455 48.00625 109.08392Q48.475 108.4433 49.35 108.4433Q50.1625 108.4433 50.69375 109.02142Q51.225 109.59955 51.225 110.70892Q51.225 111.80267 50.678123 112.39642Q50.146873 112.97455 49.365623 112.97455Q48.584373 112.97455 48.06875 112.39642Q47.553123 111.8183 47.553123 110.64642ZM49.38125 109.16205Q48.990623 109.16205 48.725 109.5058Q48.475 109.84955 48.475 110.7558Q48.475 111.58392 48.725 111.92767Q48.990623 112.2558 49.38125 112.2558Q49.7875 112.2558 50.0375 111.91205Q50.303123 111.5683 50.303123 110.67767Q50.303123 109.83392 50.0375 109.5058Q49.771873 109.16205 49.38125 109.16205ZM49.38125 117.49017L54.084373 108.4433L54.94375 108.4433L50.25625 117.49017L49.38125 117.49017ZM53.1 115.16205Q53.1 114.24017 53.553123 113.59955Q54.021873 112.95892 54.9125 112.95892Q55.725 112.95892 56.25625 113.53705Q56.7875 114.09955 56.7875 115.22455Q56.7875 116.3183 56.240623 116.91205Q55.709373 117.49017 54.9125 117.49017Q54.146873 117.49017 53.615623 116.91205Q53.1 116.33392 53.1 115.16205ZM54.94375 113.67767Q54.5375 113.67767 54.271873 114.02142Q54.021873 114.36517 54.021873 115.27142Q54.021873 116.08392 54.2875 116.42767Q54.553123 116.77142 54.94375 116.77142Q55.334373 116.77142 55.6 116.42767Q55.865623 116.08392 55.865623 115.17767Q55.865623 114.34955 55.6 114.02142Q55.334373 113.67767 54.94375 113.67767Z" fill-rule="nonzero"/><path stroke="#757575" stroke-width="1.0" stroke-linecap="butt" d="M22.85 104.67767L174.46666 104.67767L263.25592 104.67767" fill-rule="nonzero"/><path fill="#9e9e9e" d="M265.25592 104.67767C265.25592 103.573105 264.3605 102.67767 263.25592 102.67767C262.15137 102.67767 261.25592 103.573105 261.25592 104.67767C261.25592 105.78224 262.15137 106.67767 263.25592 106.67767C264.3605 106.67767 265.25592 105.78224 265.25592 104.67767" fill-rule="nonzero"/><path fill="#1a1a1a" d="M27.803125 297.31613L27.803125 296.31613L31.428125 296.3005L31.428125 299.488Q30.6 300.15988 29.709375 300.50363Q28.81875 300.83176 27.88125 300.83176Q26.615625 300.83176 25.56875 300.3005Q24.5375 299.75363 24.00625 298.738Q23.490625 297.70676 23.490625 296.44113Q23.490625 295.1755 24.00625 294.09738Q24.5375 293.00363 25.521875 292.488Q26.50625 291.95676 27.7875 291.95676Q28.725 291.95676 29.475 292.25363Q30.225 292.5505 30.646875 293.09738Q31.084375 293.62863 31.303125 294.50363L30.2875 294.78488Q30.084375 294.12863 29.7875 293.75363Q29.50625 293.37863 28.975 293.15988Q28.44375 292.9255 27.803125 292.9255Q27.021875 292.9255 26.44375 293.15988Q25.88125 293.39426 25.521875 293.78488Q25.178125 294.1755 24.990625 294.64426Q24.6625 295.44113 24.6625 296.363Q24.6625 297.51926 25.053125 298.3005Q25.459375 299.06613 26.209375 299.44113Q26.959375 299.81613 27.81875 299.81613Q28.553125 299.81613 29.25625 299.53488Q29.959375 299.238 30.31875 298.9255L30.31875 297.31613L27.803125 297.31613ZM32.771873 300.69113L32.771873 292.09738L36.021873 292.09738Q36.865623 292.09738 37.31875 292.1755Q37.959373 292.28488 38.38125 292.58176Q38.81875 292.87863 39.06875 293.40988Q39.334373 293.94113 39.334373 294.58176Q39.334373 295.6755 38.63125 296.44113Q37.94375 297.19113 36.115623 297.19113L33.9125 297.19113L33.9125 300.69113L32.771873 300.69113ZM33.9125 296.19113L36.13125 296.19113Q37.240623 296.19113 37.69375 295.78488Q38.1625 295.363 38.1625 294.613Q38.1625 294.08176 37.88125 293.70676Q37.615623 293.31613 37.178123 293.19113Q36.88125 293.113 36.115623 293.113L33.9125 293.113L33.9125 296.19113ZM42.959373 300.69113L42.959373 293.113L40.13125 293.113L40.13125 292.09738L46.94375 292.09738L46.94375 293.113L44.1 293.113L44.1 300.69113L42.959373 300.69113ZM47.225 298.113L47.225 297.0505L50.475 297.0505L50.475 298.113L47.225 298.113ZM54.725 300.69113L54.725 298.62863L51.00625 298.62863L51.00625 297.65988L54.928123 292.09738L55.7875 292.09738L55.7875 297.65988L56.94375 297.65988L56.94375 298.62863L55.7875 298.62863L55.7875 300.69113L54.725 300.69113ZM54.725 297.65988L54.725 293.8005L52.0375 297.65988L54.725 297.65988Z" fill-rule="nonzero"/><path fill="#9e9e9e" d="M28.896875 316.6755L28.896875 317.69113L23.209375 317.69113Q23.209375 317.31613 23.334375 316.95676Q23.553125 316.37863 24.021875 315.81613Q24.50625 315.25363 25.4125 314.51926Q26.81875 313.363 27.303125 312.69113Q27.803125 312.01926 27.803125 311.4255Q27.803125 310.8005 27.35 310.37863Q26.896875 309.94113 26.178125 309.94113Q25.4125 309.94113 24.959375 310.39426Q24.50625 310.84738 24.490625 311.65988L23.4125 311.5505Q23.521875 310.33176 24.240625 309.70676Q24.975 309.06613 26.209375 309.06613Q27.44375 309.06613 28.1625 309.75363Q28.88125 310.44113 28.88125 311.45676Q28.88125 311.97238 28.6625 312.47238Q28.459375 312.95676 27.959375 313.51926Q27.475 314.06613 26.35 315.01926Q25.396875 315.81613 25.115625 316.113Q24.85 316.39426 24.678125 316.6755L28.896875 316.6755ZM30.35 313.45676Q30.35 311.9255 30.6625 311.00363Q30.975 310.06613 31.584375 309.56613Q32.209373 309.06613 33.146873 309.06613Q33.834373 309.06613 34.35 309.34738Q34.88125 309.62863 35.225 310.15988Q35.56875 310.6755 35.75625 311.4255Q35.94375 312.1755 35.94375 313.45676Q35.94375 314.97238 35.63125 315.89426Q35.334373 316.81613 34.709373 317.33176Q34.1 317.83176 33.146873 317.83176Q31.9125 317.83176 31.19375 316.94113Q30.35 315.87863 30.35 313.45676ZM31.428125 313.45676Q31.428125 315.56613 31.928125 316.26926Q32.428123 316.97238 33.146873 316.97238Q33.88125 316.97238 34.365623 316.26926Q34.865623 315.56613 34.865623 313.45676Q34.865623 311.33176 34.365623 310.64426Q33.88125 309.94113 33.13125 309.94113Q32.4125 309.94113 31.975 310.5505Q31.428125 311.33176 31.428125 313.45676ZM37.94375 317.69113L37.94375 316.488L39.146873 316.488L39.146873 317.69113L37.94375 317.69113ZM41.975 313.03488Q41.31875 312.78488 40.990623 312.34738Q40.678123 311.89426 40.678123 311.28488Q40.678123 310.34738 41.35 309.70676Q42.0375 309.06613 43.146873 309.06613Q44.271873 309.06613 44.959373 309.72238Q45.646873 310.37863 45.646873 311.31613Q45.646873 311.90988 45.334373 312.34738Q45.021873 312.78488 44.38125 313.03488Q45.178123 313.28488 45.584373 313.863Q45.990623 314.44113 45.990623 315.238Q45.990623 316.33176 45.209373 317.08176Q44.44375 317.83176 43.1625 317.83176Q41.896873 317.83176 41.115623 317.08176Q40.334373 316.33176 40.334373 315.20676Q40.334373 314.363 40.75625 313.8005Q41.19375 313.238 41.975 313.03488ZM41.75625 311.238Q41.75625 311.84738 42.146873 312.238Q42.553123 312.62863 43.178123 312.62863Q43.7875 312.62863 44.178123 312.25363Q44.56875 311.863 44.56875 311.3005Q44.56875 310.72238 44.1625 310.33176Q43.75625 309.9255 43.1625 309.9255Q42.553123 309.9255 42.146873 310.31613Q41.75625 310.70676 41.75625 311.238ZM41.428123 315.20676Q41.428123 315.65988 41.63125 316.08176Q41.85 316.50363 42.271873 316.738Q42.69375 316.97238 43.178123 316.97238Q43.928123 316.97238 44.4125 316.488Q44.9125 316.00363 44.9125 315.25363Q44.9125 314.488 44.4125 313.988Q43.9125 313.488 43.146873 313.488Q42.396873 313.488 41.9125 313.988Q41.428123 314.47238 41.428123 315.20676ZM47.553123 311.15988Q47.553123 310.238 48.00625 309.59738Q48.475 308.95676 49.35 308.95676Q50.1625 308.95676 50.69375 309.53488Q51.225 310.113 51.225 311.22238Q51.225 312.31613 50.678123 312.90988Q50.146873 313.488 49.365623 313.488Q48.584373 313.488 48.06875 312.90988Q47.553123 312.33176 47.553123 311.15988ZM49.38125 309.6755Q48.990623 309.6755 48.725 310.01926Q48.475 310.363 48.475 311.26926Q48.475 312.09738 48.725 312.44113Q48.990623 312.76926 49.38125 312.76926Q49.7875 312.76926 50.0375 312.4255Q50.303123 312.08176 50.303123 311.19113Q50.303123 310.34738 50.0375 310.01926Q49.771873 309.6755 49.38125 309.6755ZM49.38125 318.00363L54.084373 308.95676L54.94375 308.95676L50.25625 318.00363L49.38125 318.00363ZM53.1 315.6755Q53.1 314.75363 53.553123 314.113Q54.021873 313.47238 54.9125 313.47238Q55.725 313.47238 56.25625 314.0505Q56.7875 314.613 56.7875 315.738Q56.7875 316.83176 56.240623 317.4255Q55.709373 318.00363 54.9125 318.00363Q54.146873 318.00363 53.615623 317.4255Q53.1 316.84738 53.1 315.6755ZM54.94375 314.19113Q54.5375 314.19113 54.271873 314.53488Q54.021873 314.87863 54.021873 315.78488Q54.021873 316.59738 54.2875 316.94113Q54.553123 317.28488 54.94375 317.28488Q55.334373 317.28488 55.6 316.94113Q55.865623 316.59738 55.865623 315.69113Q55.865623 314.863 55.6 314.53488Q55.334373 314.19113 54.94375 314.19113Z" fill-rule="nonzero"/><path stroke="#757575" stroke-width="1.0" stroke-linecap="butt" d="M22.85 305.19113L174.46666 305.19113L199.23796 305.19113" fill-rule="nonzero"/><path fill="#9e9e9e" d="M201.23796 305.19113C201.23796 304.08655 200.34253 303.19113 199.23796 303.19113C198.13339 303.19113 197.23796 304.08655 197.23796 305.19113C197.23796 306.2957 198.13339 307.19113 199.23796 307.19113C200.34253 307.19113 201.23796 306.2957 201.23796 305.19113" fill-rule="nonzero"/><path fill="#1a1a1a" d="M670.2125 92.43874L671.3375 92.73562Q670.97815 94.12624 670.0563 94.86062Q669.1344 95.59499 667.79065 95.59499Q666.4 95.59499 665.525 95.03249Q664.65 94.46999 664.1969 93.40749Q663.7438 92.32937 663.7438 91.09499Q663.7438 89.75124 664.2594 88.75124Q664.775 87.75124 665.7125 87.23562Q666.66565 86.71999 667.8063 86.71999Q669.0875 86.71999 669.9625 87.37624Q670.85315 88.03249 671.1969 89.21999L670.0719 89.48562Q669.775 88.54812 669.1969 88.12624Q668.6344 87.68874 667.775 87.68874Q666.79065 87.68874 666.1188 88.17312Q665.4625 88.64187 665.1813 89.43874Q664.91565 90.23562 664.91565 91.09499Q664.91565 92.18874 665.22815 93.00124Q665.5563 93.81374 666.22815 94.21999Q666.9 94.62624 667.6969 94.62624Q668.65 94.62624 669.3063 94.07937Q669.97815 93.53249 670.2125 92.43874ZM672.91565 95.45437L672.91565 86.86062L673.97815 86.86062L673.97815 95.45437L672.91565 95.45437ZM680.0094 94.68874Q679.41565 95.18874 678.8688 95.39187Q678.3375 95.59499 677.7125 95.59499Q676.6813 95.59499 676.1344 95.09499Q675.5875 94.59499 675.5875 93.81374Q675.5875 93.36062 675.79065 92.98562Q675.9938 92.59499 676.3375 92.37624Q676.6813 92.14187 677.10315 92.03249Q677.4 91.93874 678.04065 91.86062Q679.3063 91.71999 679.91565 91.50124Q679.91565 91.28249 679.91565 91.23562Q679.91565 90.57937 679.6188 90.31374Q679.2125 89.96999 678.41565 89.96999Q677.6813 89.96999 677.3219 90.23562Q676.9625 90.48562 676.79065 91.14187L675.7594 91.00124Q675.9 90.34499 676.22815 89.93874Q676.5563 89.53249 677.16565 89.31374Q677.775 89.09499 678.5719 89.09499Q679.3688 89.09499 679.8688 89.28249Q680.3688 89.46999 680.60315 89.75124Q680.8375 90.03249 680.9313 90.46999Q680.97815 90.73562 680.97815 91.43874L680.97815 92.84499Q680.97815 94.31374 681.04065 94.70437Q681.1188 95.09499 681.3219 95.45437L680.2125 95.45437Q680.0563 95.12624 680.0094 94.68874ZM679.91565 92.32937Q679.3375 92.56374 678.1969 92.73562Q677.54065 92.82937 677.275 92.95437Q677.0094 93.06374 676.85315 93.28249Q676.7125 93.50124 676.7125 93.78249Q676.7125 94.20437 677.025 94.48562Q677.35315 94.76687 677.9625 94.76687Q678.5719 94.76687 679.04065 94.50124Q679.525 94.23562 679.7438 93.76687Q679.91565 93.40749 679.91565 92.71999L679.91565 92.32937ZM687.025 95.45437L687.025 94.53249Q686.29065 95.59499 685.04065 95.59499Q684.4938 95.59499 684.0094 95.39187Q683.54065 95.17312 683.3063 94.86062Q683.0719 94.53249 682.97815 94.06374Q682.91565 93.76687 682.91565 93.07937L682.91565 89.23562L683.97815 89.23562L683.97815 92.68874Q683.97815 93.50124 684.04065 93.79812Q684.1344 94.20437 684.4469 94.45437Q684.775 94.68874 685.2594 94.68874Q685.72815 94.68874 686.1344 94.45437Q686.5563 94.20437 686.72815 93.78249Q686.91565 93.36062 686.91565 92.56374L686.91565 89.23562L687.9625 89.23562L687.9625 95.45437L687.025 95.45437ZM693.97815 95.45437L693.97815 94.67312Q693.3844 95.59499 692.2438 95.59499Q691.4938 95.59499 690.8688 95.18874Q690.2438 94.76687 689.9 94.03249Q689.5563 93.29812 689.5563 92.34499Q689.5563 91.42312 689.8688 90.65749Q690.1813 89.89187 690.8063 89.50124Q691.4313 89.09499 692.1969 89.09499Q692.7594 89.09499 693.1969 89.32937Q693.6344 89.56374 693.91565 89.93874L693.91565 86.86062L694.9625 86.86062L694.9625 95.45437L693.97815 95.45437ZM690.65 92.34499Q690.65 93.54812 691.15 94.14187Q691.65 94.71999 692.3375 94.71999Q693.025 94.71999 693.5094 94.15749Q693.9938 93.59499 693.9938 92.43874Q693.9938 91.15749 693.4938 90.56374Q693.0094 89.96999 692.29065 89.96999Q691.5875 89.96999 691.1188 90.54812Q690.65 91.11062 690.65 92.34499ZM701.1969 93.45437L702.29065 93.57937Q702.04065 94.53249 701.3375 95.06374Q700.6344 95.59499 699.5563 95.59499Q698.1969 95.59499 697.3844 94.75124Q696.5875 93.90749 696.5875 92.39187Q696.5875 90.82937 697.4 89.96999Q698.2125 89.09499 699.4938 89.09499Q700.7438 89.09499 701.525 89.93874Q702.3219 90.78249 702.3219 92.32937Q702.3219 92.42312 702.3219 92.61062L697.6813 92.61062Q697.7438 93.64187 698.2594 94.18874Q698.775 94.71999 699.5563 94.71999Q700.1344 94.71999 700.54065 94.42312Q700.9625 94.11062 701.1969 93.45437ZM697.7438 91.75124L701.2125 91.75124Q701.15 90.95437 700.8219 90.56374Q700.3063 89.95437 699.5094 89.95437Q698.775 89.95437 698.275 90.43874Q697.79065 90.92312 697.7438 91.75124ZM703.65 93.18874L704.7125 93.04812Q704.8844 93.93874 705.3219 94.34499Q705.7594 94.73562 706.3844 94.73562Q707.1344 94.73562 707.65 94.21999Q708.16565 93.70437 708.16565 92.93874Q708.16565 92.21999 707.6813 91.75124Q707.2125 91.26687 706.47815 91.26687Q706.1813 91.26687 705.72815 91.39187L705.85315 90.45437Q705.9625 90.46999 706.025 90.46999Q706.6969 90.46999 707.22815 90.12624Q707.775 89.76687 707.775 89.03249Q707.775 88.45437 707.3844 88.07937Q706.9938 87.68874 706.3688 87.68874Q705.7594 87.68874 705.3375 88.07937Q704.9313 88.46999 704.8219 89.23562L703.7594 89.04812Q703.9469 88.00124 704.6344 87.42312Q705.3219 86.82937 706.3375 86.82937Q707.04065 86.82937 707.6344 87.14187Q708.22815 87.43874 708.54065 87.95437Q708.85315 88.46999 708.85315 89.06374Q708.85315 89.61062 708.5563 90.07937Q708.2594 90.53249 707.6813 90.79812Q708.4313 90.96999 708.85315 91.53249Q709.275 92.07937 709.275 92.92312Q709.275 94.04812 708.4469 94.82937Q707.6344 95.61062 706.3844 95.61062Q705.2594 95.61062 704.5094 94.93874Q703.7594 94.25124 703.65 93.18874Z" fill-rule="nonzero"/><path fill="#9e9e9e" d="M679.6188 112.45437L678.5719 112.45437L678.5719 105.73562Q678.1813 106.09499 677.5563 106.46999Q676.9469 106.82937 676.4625 107.00124L676.4625 105.98562Q677.3375 105.56374 677.9938 104.98562Q678.66565 104.39187 678.9469 103.82937L679.6188 103.82937L679.6188 112.45437ZM684.275 107.79812Q683.6188 107.54812 683.29065 107.11062Q682.97815 106.65749 682.97815 106.04812Q682.97815 105.11062 683.65 104.46999Q684.3375 103.82937 685.4469 103.82937Q686.5719 103.82937 687.2594 104.48562Q687.9469 105.14187 687.9469 106.07937Q687.9469 106.67312 687.6344 107.11062Q687.3219 107.54812 686.6813 107.79812Q687.47815 108.04812 687.8844 108.62624Q688.29065 109.20437 688.29065 110.00124Q688.29065 111.09499 687.5094 111.84499Q686.7438 112.59499 685.4625 112.59499Q684.1969 112.59499 683.41565 111.84499Q682.6344 111.09499 682.6344 109.96999Q682.6344 109.12624 683.0563 108.56374Q683.4938 108.00124 684.275 107.79812ZM684.0563 106.00124Q684.0563 106.61062 684.4469 107.00124Q684.85315 107.39187 685.47815 107.39187Q686.0875 107.39187 686.47815 107.01687Q686.8688 106.62624 686.8688 106.06374Q686.8688 105.48562 686.4625 105.09499Q686.0563 104.68874 685.4625 104.68874Q684.85315 104.68874 684.4469 105.07937Q684.0563 105.46999 684.0563 106.00124ZM683.72815 109.96999Q683.72815 110.42312 683.9313 110.84499Q684.15 111.26687 684.5719 111.50124Q684.9938 111.73562 685.47815 111.73562Q686.22815 111.73562 686.7125 111.25124Q687.2125 110.76687 687.2125 110.01687Q687.2125 109.25124 686.7125 108.75124Q686.2125 108.25124 685.4469 108.25124Q684.6969 108.25124 684.2125 108.75124Q683.72815 109.23562 683.72815 109.96999ZM690.2438 112.45437L690.2438 111.25124L691.4469 111.25124L691.4469 112.45437L690.2438 112.45437ZM696.025 112.45437L696.025 110.39187L692.3063 110.39187L692.3063 109.42312L696.22815 103.86062L697.0875 103.86062L697.0875 109.42312L698.2438 109.42312L698.2438 110.39187L697.0875 110.39187L697.0875 112.45437L696.025 112.45437ZM696.025 109.42312L696.025 105.56374L693.3375 109.42312L696.025 109.42312ZM699.85315 105.92312Q699.85315 105.00124 700.3063 104.36062Q700.775 103.71999 701.65 103.71999Q702.4625 103.71999 702.9938 104.29812Q703.525 104.87624 703.525 105.98562Q703.525 107.07937 702.97815 107.67312Q702.4469 108.25124 701.66565 108.25124Q700.8844 108.25124 700.3688 107.67312Q699.85315 107.09499 699.85315 105.92312ZM701.6813 104.43874Q701.29065 104.43874 701.025 104.78249Q700.775 105.12624 700.775 106.03249Q700.775 106.86062 701.025 107.20437Q701.29065 107.53249 701.6813 107.53249Q702.0875 107.53249 702.3375 107.18874Q702.60315 106.84499 702.60315 105.95437Q702.60315 105.11062 702.3375 104.78249Q702.0719 104.43874 701.6813 104.43874ZM701.6813 112.76687L706.3844 103.71999L707.2438 103.71999L702.5563 112.76687L701.6813 112.76687ZM705.4 110.43874Q705.4 109.51687 705.85315 108.87624Q706.3219 108.23562 707.2125 108.23562Q708.025 108.23562 708.5563 108.81374Q709.0875 109.37624 709.0875 110.50124Q709.0875 111.59499 708.54065 112.18874Q708.0094 112.76687 707.2125 112.76687Q706.4469 112.76687 705.91565 112.18874Q705.4 111.61062 705.4 110.43874ZM707.2438 108.95437Q706.8375 108.95437 706.5719 109.29812Q706.3219 109.64187 706.3219 110.54812Q706.3219 111.36062 706.5875 111.70437Q706.85315 112.04812 707.2438 112.04812Q707.6344 112.04812 707.9 111.70437Q708.16565 111.36062 708.16565 110.45437Q708.16565 109.62624 707.9 109.29812Q707.6344 108.95437 707.2438 108.95437Z" fill-rule="nonzero"/><path stroke="#757575" stroke-width="1.0" stroke-linecap="butt" d="M710.15 99.95437L558.5333 99.95437L462.84323 99.95437" fill-rule="nonzero"/><path fill="#9e9e9e" d="M464.84323 99.95437C464.84323 98.8498 463.94778 97.95437 462.84323 97.95437C461.73865 97.95437 460.84323 98.8498 460.84323 99.95437C460.84323 101.05894 461.73865 101.95437 462.84323 101.95437C463.94778 101.95437 464.84323 101.05894 464.84323 99.95437" fill-rule="nonzero"/><path fill="#1a1a1a" d="M678.2125 280.61658L679.3375 280.91345Q678.97815 282.30408 678.0563 283.03845Q677.1344 283.77283 675.79065 283.77283Q674.4 283.77283 673.525 283.21033Q672.65 282.64783 672.1969 281.58533Q671.7438 280.5072 671.7438 279.27283Q671.7438 277.92908 672.2594 276.92908Q672.775 275.92908 673.7125 275.41345Q674.66565 274.89783 675.8063 274.89783Q677.0875 274.89783 677.9625 275.55408Q678.85315 276.21033 679.1969 277.39783L678.0719 277.66345Q677.775 276.72595 677.1969 276.30408Q676.6344 275.86658 675.775 275.86658Q674.79065 275.86658 674.1188 276.35095Q673.4625 276.8197 673.1813 277.61658Q672.91565 278.41345 672.91565 279.27283Q672.91565 280.36658 673.22815 281.17908Q673.5563 281.99158 674.22815 282.39783Q674.9 282.80408 675.6969 282.80408Q676.65 282.80408 677.3063 282.2572Q677.97815 281.71033 678.2125 280.61658ZM680.5563 280.52283Q680.5563 278.78845 681.5094 277.96033Q682.3063 277.27283 683.4625 277.27283Q684.7438 277.27283 685.5563 278.11658Q686.3844 278.9447 686.3844 280.42908Q686.3844 281.6322 686.025 282.3197Q685.66565 283.0072 684.9625 283.39783Q684.275 283.77283 683.4625 283.77283Q682.16565 283.77283 681.35315 282.9447Q680.5563 282.10095 680.5563 280.52283ZM681.6344 280.52283Q681.6344 281.71033 682.15 282.30408Q682.6813 282.89783 683.4625 282.89783Q684.2594 282.89783 684.775 282.30408Q685.29065 281.71033 685.29065 280.49158Q685.29065 279.33533 684.7594 278.74158Q684.2438 278.14783 683.4625 278.14783Q682.6813 278.14783 682.15 278.74158Q681.6344 279.3197 681.6344 280.52283ZM687.9469 286.02283L687.9469 277.41345L688.9 277.41345L688.9 278.21033Q689.2438 277.74158 689.66565 277.5072Q690.10315 277.27283 690.7125 277.27283Q691.5094 277.27283 692.1188 277.67908Q692.72815 278.08533 693.025 278.83533Q693.3375 279.58533 693.3375 280.47595Q693.3375 281.42908 692.9938 282.1947Q692.66565 282.96033 692.0094 283.36658Q691.35315 283.77283 690.6344 283.77283Q690.10315 283.77283 689.6813 283.55408Q689.2594 283.3197 688.9938 282.99158L688.9938 286.02283L687.9469 286.02283ZM688.9 280.55408Q688.9 281.7572 689.3844 282.33533Q689.8688 282.89783 690.5563 282.89783Q691.2594 282.89783 691.7594 282.30408Q692.2594 281.71033 692.2594 280.46033Q692.2594 279.27283 691.775 278.6947Q691.29065 278.10095 690.60315 278.10095Q689.9313 278.10095 689.41565 278.72595Q688.9 279.35095 688.9 280.55408ZM694.9469 276.2572L694.9469 275.03845L696.0094 275.03845L696.0094 276.2572L694.9469 276.2572ZM694.9469 283.6322L694.9469 277.41345L696.0094 277.41345L696.0094 283.6322L694.9469 283.6322ZM697.91565 283.6322L697.91565 275.03845L698.97815 275.03845L698.97815 283.6322L697.91565 283.6322ZM700.5563 280.52283Q700.5563 278.78845 701.5094 277.96033Q702.3063 277.27283 703.4625 277.27283Q704.7438 277.27283 705.5563 278.11658Q706.3844 278.9447 706.3844 280.42908Q706.3844 281.6322 706.025 282.3197Q705.66565 283.0072 704.9625 283.39783Q704.275 283.77283 703.4625 283.77283Q702.16565 283.77283 701.35315 282.9447Q700.5563 282.10095 700.5563 280.52283ZM701.6344 280.52283Q701.6344 281.71033 702.15 282.30408Q702.6813 282.89783 703.4625 282.89783Q704.2594 282.89783 704.775 282.30408Q705.29065 281.71033 705.29065 280.49158Q705.29065 279.33533 704.7594 278.74158Q704.2438 278.14783 703.4625 278.14783Q702.6813 278.14783 702.15 278.74158Q701.6344 279.3197 701.6344 280.52283ZM710.2438 282.6947L710.4 283.61658Q709.9469 283.71033 709.60315 283.71033Q709.025 283.71033 708.7125 283.53845Q708.4 283.35095 708.2594 283.05408Q708.1344 282.7572 708.1344 281.80408L708.1344 278.22595L707.3688 278.22595L707.3688 277.41345L708.1344 277.41345L708.1344 275.86658L709.1813 275.24158L709.1813 277.41345L710.2438 277.41345L710.2438 278.22595L709.1813 278.22595L709.1813 281.86658Q709.1813 282.3197 709.22815 282.4447Q709.29065 282.5697 709.41565 282.64783Q709.54065 282.72595 709.775 282.72595Q709.9625 282.72595 710.2438 282.6947Z" fill-rule="nonzero"/><path fill="#9e9e9e" d="M681.1969 299.61658L681.1969 300.6322L675.5094 300.6322Q675.5094 300.2572 675.6344 299.89783Q675.85315 299.3197 676.3219 298.7572Q676.8063 298.1947 677.7125 297.46033Q679.1188 296.30408 679.60315 295.6322Q680.10315 294.96033 680.10315 294.36658Q680.10315 293.74158 679.65 293.3197Q679.1969 292.8822 678.47815 292.8822Q677.7125 292.8822 677.2594 293.33533Q676.8063 293.78845 676.79065 294.60095L675.7125 294.49158Q675.8219 293.27283 676.54065 292.64783Q677.275 292.0072 678.5094 292.0072Q679.7438 292.0072 680.4625 292.6947Q681.1813 293.3822 681.1813 294.39783Q681.1813 294.91345 680.9625 295.41345Q680.7594 295.89783 680.2594 296.46033Q679.775 297.0072 678.65 297.96033Q677.6969 298.7572 677.41565 299.05408Q677.15 299.33533 676.97815 299.61658L681.1969 299.61658ZM682.65 296.39783Q682.65 294.86658 682.9625 293.9447Q683.275 293.0072 683.8844 292.5072Q684.5094 292.0072 685.4469 292.0072Q686.1344 292.0072 686.65 292.28845Q687.1813 292.5697 687.525 293.10095Q687.8688 293.61658 688.0563 294.36658Q688.2438 295.11658 688.2438 296.39783Q688.2438 297.91345 687.9313 298.83533Q687.6344 299.7572 687.0094 300.27283Q686.4 300.77283 685.4469 300.77283Q684.2125 300.77283 683.4938 299.8822Q682.65 298.8197 682.65 296.39783ZM683.72815 296.39783Q683.72815 298.5072 684.22815 299.21033Q684.72815 299.91345 685.4469 299.91345Q686.1813 299.91345 686.66565 299.21033Q687.16565 298.5072 687.16565 296.39783Q687.16565 294.27283 686.66565 293.58533Q686.1813 292.8822 685.4313 292.8822Q684.7125 292.8822 684.275 293.49158Q683.72815 294.27283 683.72815 296.39783ZM690.2438 300.6322L690.2438 299.42908L691.4469 299.42908L691.4469 300.6322L690.2438 300.6322ZM698.1188 294.14783L697.0719 294.22595Q696.9313 293.60095 696.6813 293.3197Q696.2438 292.86658 695.6188 292.86658Q695.1188 292.86658 694.72815 293.14783Q694.2438 293.52283 693.9469 294.22595Q693.66565 294.91345 693.65 296.1947Q694.025 295.61658 694.5719 295.33533Q695.1344 295.05408 695.7438 295.05408Q696.79065 295.05408 697.525 295.83533Q698.275 296.61658 698.275 297.83533Q698.275 298.64783 697.91565 299.35095Q697.5719 300.03845 696.9625 300.41345Q696.35315 300.77283 695.5875 300.77283Q694.2594 300.77283 693.4313 299.80408Q692.60315 298.83533 692.60315 296.61658Q692.60315 294.11658 693.525 292.99158Q694.3219 292.0072 695.6813 292.0072Q696.6969 292.0072 697.3375 292.58533Q697.9938 293.14783 698.1188 294.14783ZM693.8219 297.85095Q693.8219 298.39783 694.04065 298.89783Q694.275 299.3822 694.6813 299.64783Q695.10315 299.91345 695.5719 299.91345Q696.22815 299.91345 696.7125 299.3822Q697.1969 298.83533 697.1969 297.91345Q697.1969 297.02283 696.7125 296.5072Q696.2438 295.99158 695.525 295.99158Q694.8063 295.99158 694.3063 296.5072Q693.8219 297.02283 693.8219 297.85095ZM699.85315 294.10095Q699.85315 293.17908 700.3063 292.53845Q700.775 291.89783 701.65 291.89783Q702.4625 291.89783 702.9938 292.47595Q703.525 293.05408 703.525 294.16345Q703.525 295.2572 702.97815 295.85095Q702.4469 296.42908 701.66565 296.42908Q700.8844 296.42908 700.3688 295.85095Q699.85315 295.27283 699.85315 294.10095ZM701.6813 292.61658Q701.29065 292.61658 701.025 292.96033Q700.775 293.30408 700.775 294.21033Q700.775 295.03845 701.025 295.3822Q701.29065 295.71033 701.6813 295.71033Q702.0875 295.71033 702.3375 295.36658Q702.60315 295.02283 702.60315 294.1322Q702.60315 293.28845 702.3375 292.96033Q702.0719 292.61658 701.6813 292.61658ZM701.6813 300.9447L706.3844 291.89783L707.2438 291.89783L702.5563 300.9447L701.6813 300.9447ZM705.4 298.61658Q705.4 297.6947 705.85315 297.05408Q706.3219 296.41345 707.2125 296.41345Q708.025 296.41345 708.5563 296.99158Q709.0875 297.55408 709.0875 298.67908Q709.0875 299.77283 708.54065 300.36658Q708.0094 300.9447 707.2125 300.9447Q706.4469 300.9447 705.91565 300.36658Q705.4 299.78845 705.4 298.61658ZM707.2438 297.1322Q706.8375 297.1322 706.5719 297.47595Q706.3219 297.8197 706.3219 298.72595Q706.3219 299.53845 706.5875 299.8822Q706.85315 300.22595 707.2438 300.22595Q707.6344 300.22595 707.9 299.8822Q708.16565 299.53845 708.16565 298.6322Q708.16565 297.80408 707.9 297.47595Q707.6344 297.1322 707.2438 297.1322Z" fill-rule="nonzero"/><path stroke="#757575" stroke-width="1.0" stroke-linecap="butt" d="M710.15 288.1322L558.5333 288.1322L538.6419 288.1322" fill-rule="nonzero"/><path fill="#9e9e9e" d="M540.6419 288.1322C540.6419 287.02765 539.74646 286.1322 538.6419 286.1322C537.53735 286.1322 536.6419 287.02765 536.6419 288.1322C536.6419 289.2368 537.53735 290.1322 538.6419 290.1322C539.74646 290.1322 540.6419 289.2368 540.6419 288.1322" fill-rule="nonzero"/><path fill="#1a1a1a" d="M675.10315 410.775L675.10315 409.775L678.72815 409.75937L678.72815 412.94687Q677.9 413.61874 677.0094 413.9625Q676.1188 414.29062 675.1813 414.29062Q673.91565 414.29062 672.8688 413.75937Q671.8375 413.2125 671.3063 412.19687Q670.79065 411.16562 670.79065 409.9Q670.79065 408.63437 671.3063 407.55624Q671.8375 406.4625 672.8219 405.94687Q673.8063 405.41562 675.0875 405.41562Q676.025 405.41562 676.775 405.7125Q677.525 406.00937 677.9469 406.55624Q678.3844 407.0875 678.60315 407.9625L677.5875 408.24374Q677.3844 407.5875 677.0875 407.2125Q676.8063 406.8375 676.275 406.61874Q675.7438 406.38437 675.10315 406.38437Q674.3219 406.38437 673.7438 406.61874Q673.1813 406.85312 672.8219 407.24374Q672.47815 407.63437 672.29065 408.10312Q671.9625 408.9 671.9625 409.82187Q671.9625 410.97812 672.35315 411.75937Q672.7594 412.525 673.5094 412.9Q674.2594 413.275 675.1188 413.275Q675.85315 413.275 676.5563 412.99374Q677.2594 412.69687 677.6188 412.38437L677.6188 410.775L675.10315 410.775ZM684.1969 412.15L685.29065 412.275Q685.04065 413.22812 684.3375 413.75937Q683.6344 414.29062 682.5563 414.29062Q681.1969 414.29062 680.3844 413.44687Q679.5875 412.60312 679.5875 411.0875Q679.5875 409.525 680.4 408.66562Q681.2125 407.79062 682.4938 407.79062Q683.7438 407.79062 684.525 408.63437Q685.3219 409.47812 685.3219 411.025Q685.3219 411.11874 685.3219 411.30624L680.6813 411.30624Q680.7438 412.3375 681.2594 412.88437Q681.775 413.41562 682.5563 413.41562Q683.1344 413.41562 683.54065 413.11874Q683.9625 412.80624 684.1969 412.15ZM680.7438 410.44687L684.2125 410.44687Q684.15 409.65 683.8219 409.25937Q683.3063 408.65 682.5094 408.65Q681.775 408.65 681.275 409.13437Q680.79065 409.61874 680.7438 410.44687ZM686.9469 414.15L686.9469 407.93124L687.8844 407.93124L687.8844 408.80624Q688.1813 408.3375 688.66565 408.07187Q689.15 407.79062 689.775 407.79062Q690.4625 407.79062 690.9 408.07187Q691.35315 408.35312 691.525 408.86874Q692.275 407.79062 693.4469 407.79062Q694.3844 407.79062 694.8688 408.30624Q695.3688 408.80624 695.3688 409.88437L695.3688 414.15L694.3219 414.15L694.3219 410.22812Q694.3219 409.60312 694.2125 409.32187Q694.1188 409.04062 693.85315 408.86874Q693.5875 408.69687 693.2125 408.69687Q692.5563 408.69687 692.1188 409.13437Q691.6969 409.57187 691.6969 410.54062L691.6969 414.15L690.6344 414.15L690.6344 410.10312Q690.6344 409.4 690.3688 409.05624Q690.1188 408.69687 689.54065 408.69687Q689.0875 408.69687 688.7125 408.93124Q688.3375 409.16562 688.16565 409.61874Q687.9938 410.07187 687.9938 410.91562L687.9938 414.15L686.9469 414.15ZM697.9469 406.775L697.9469 405.55624L699.0094 405.55624L699.0094 406.775L697.9469 406.775ZM697.9469 414.15L697.9469 407.93124L699.0094 407.93124L699.0094 414.15L697.9469 414.15ZM700.9469 414.15L700.9469 407.93124L701.8844 407.93124L701.8844 408.80624Q702.5719 407.79062 703.8688 407.79062Q704.4313 407.79062 704.9 407.99374Q705.3844 408.19687 705.6188 408.525Q705.85315 408.85312 705.9469 409.29062Q705.9938 409.5875 705.9938 410.32187L705.9938 414.15L704.9469 414.15L704.9469 410.36874Q704.9469 409.7125 704.8219 409.4Q704.6969 409.0875 704.3844 408.9Q704.0719 408.69687 703.65 408.69687Q702.97815 408.69687 702.47815 409.13437Q701.9938 409.55624 701.9938 410.74374L701.9938 414.15L700.9469 414.15ZM707.9469 406.775L707.9469 405.55624L709.0094 405.55624L709.0094 406.775L707.9469 406.775ZM707.9469 414.15L707.9469 407.93124L709.0094 407.93124L709.0094 414.15L707.9469 414.15Z" fill-rule="nonzero"/><path fill="#9e9e9e" d="M681.1969 430.13437L681.1969 431.15L675.5094 431.15Q675.5094 430.775 675.6344 430.41562Q675.85315 429.8375 676.3219 429.275Q676.8063 428.7125 677.7125 427.97812Q679.1188 426.82187 679.60315 426.15Q680.10315 425.47812 680.10315 424.88437Q680.10315 424.25937 679.65 423.8375Q679.1969 423.4 678.47815 423.4Q677.7125 423.4 677.2594 423.85312Q676.8063 424.30624 676.79065 425.11874L675.7125 425.00937Q675.8219 423.79062 676.54065 423.16562Q677.275 422.525 678.5094 422.525Q679.7438 422.525 680.4625 423.2125Q681.1813 423.9 681.1813 424.91562Q681.1813 425.43124 680.9625 425.93124Q680.7594 426.41562 680.2594 426.97812Q679.775 427.525 678.65 428.47812Q677.6969 429.275 677.41565 429.57187Q677.15 429.85312 676.97815 430.13437L681.1969 430.13437ZM682.65 426.91562Q682.65 425.38437 682.9625 424.4625Q683.275 423.525 683.8844 423.025Q684.5094 422.525 685.4469 422.525Q686.1344 422.525 686.65 422.80624Q687.1813 423.0875 687.525 423.61874Q687.8688 424.13437 688.0563 424.88437Q688.2438 425.63437 688.2438 426.91562Q688.2438 428.43124 687.9313 429.35312Q687.6344 430.275 687.0094 430.79062Q686.4 431.29062 685.4469 431.29062Q684.2125 431.29062 683.4938 430.4Q682.65 429.3375 682.65 426.91562ZM683.72815 426.91562Q683.72815 429.025 684.22815 429.72812Q684.72815 430.43124 685.4469 430.43124Q686.1813 430.43124 686.66565 429.72812Q687.16565 429.025 687.16565 426.91562Q687.16565 424.79062 686.66565 424.10312Q686.1813 423.4 685.4313 423.4Q684.7125 423.4 684.275 424.00937Q683.72815 424.79062 683.72815 426.91562ZM690.2438 431.15L690.2438 429.94687L691.4469 429.94687L691.4469 431.15L690.2438 431.15ZM692.65 428.9L693.7594 428.80624Q693.8844 429.61874 694.3219 430.025Q694.775 430.43124 695.41565 430.43124Q696.16565 430.43124 696.6969 429.85312Q697.22815 429.275 697.22815 428.3375Q697.22815 427.43124 696.7125 426.91562Q696.2125 426.38437 695.3844 426.38437Q694.8844 426.38437 694.4625 426.61874Q694.0563 426.85312 693.8219 427.2125L692.8375 427.0875L693.66565 422.68124L697.9469 422.68124L697.9469 423.68124L694.5094 423.68124L694.0563 425.99374Q694.8219 425.44687 695.66565 425.44687Q696.79065 425.44687 697.5563 426.22812Q698.3375 427.00937 698.3375 428.24374Q698.3375 429.4 697.66565 430.25937Q696.8375 431.29062 695.41565 431.29062Q694.2438 431.29062 693.4938 430.63437Q692.7594 429.97812 692.65 428.9ZM699.85315 424.61874Q699.85315 423.69687 700.3063 423.05624Q700.775 422.41562 701.65 422.41562Q702.4625 422.41562 702.9938 422.99374Q703.525 423.57187 703.525 424.68124Q703.525 425.775 702.97815 426.36874Q702.4469 426.94687 701.66565 426.94687Q700.8844 426.94687 700.3688 426.36874Q699.85315 425.79062 699.85315 424.61874ZM701.6813 423.13437Q701.29065 423.13437 701.025 423.47812Q700.775 423.82187 700.775 424.72812Q700.775 425.55624 701.025 425.9Q701.29065 426.22812 701.6813 426.22812Q702.0875 426.22812 702.3375 425.88437Q702.60315 425.54062 702.60315 424.65Q702.60315 423.80624 702.3375 423.47812Q702.0719 423.13437 701.6813 423.13437ZM701.6813 431.4625L706.3844 422.41562L707.2438 422.41562L702.5563 431.4625L701.6813 431.4625ZM705.4 429.13437Q705.4 428.2125 705.85315 427.57187Q706.3219 426.93124 707.2125 426.93124Q708.025 426.93124 708.5563 427.50937Q709.0875 428.07187 709.0875 429.19687Q709.0875 430.29062 708.54065 430.88437Q708.0094 431.4625 707.2125 431.4625Q706.4469 431.4625 705.91565 430.88437Q705.4 430.30624 705.4 429.13437ZM707.2438 427.65Q706.8375 427.65 706.5719 427.99374Q706.3219 428.3375 706.3219 429.24374Q706.3219 430.05624 706.5875 430.4Q706.85315 430.74374 707.2438 430.74374Q707.6344 430.74374 707.9 430.4Q708.16565 430.05624 708.16565 429.15Q708.16565 428.32187 707.9 427.99374Q707.6344 427.65 707.2438 427.65Z" fill-rule="nonzero"/><path stroke="#757575" stroke-width="1.0" stroke-linecap="butt" d="M710.15 418.65L558.5333 418.65L375.88293 424.5991" fill-rule="nonzero"/><path fill="#9e9e9e" d="M377.88293 424.5991C377.88293 423.4945 376.9875 422.5991 375.88293 422.5991C374.77835 422.5991 373.88293 423.4945 373.88293 424.5991C373.88293 425.70364 374.77835 426.5991 375.88293 426.5991C376.9875 426.5991 377.88293 425.70364 377.88293 424.5991" fill-rule="nonzero"/><path fill="#757575" d="M22.81875 40.85L28.31875 26.537498L30.365625 26.537498L36.225 40.85L34.06875 40.85L32.396873 36.50625L26.4125 36.50625L24.834375 40.85L22.81875 40.85ZM26.959375 34.975L31.803125 34.975L30.31875 31.006248Q29.63125 29.193748 29.303125 28.037498Q29.021875 29.412498 28.521875 30.771873L26.959375 34.975ZM40.053123 40.85L36.1 30.474998L37.959373 30.474998L40.19375 36.69375Q40.553123 37.69375 40.85 38.771873Q41.084373 37.959373 41.50625 36.803123L43.803123 30.474998L45.615623 30.474998L41.69375 40.85L40.053123 40.85ZM53.271873 37.50625L55.084373 37.740623Q54.6625 39.31875 53.490623 40.209373Q52.334373 41.084373 50.521873 41.084373Q48.25625 41.084373 46.9125 39.69375Q45.584373 38.2875 45.584373 35.75625Q45.584373 33.13125 46.928123 31.693748Q48.271873 30.240623 50.428123 30.240623Q52.50625 30.240623 53.81875 31.662498Q55.146873 33.06875 55.146873 35.646873Q55.146873 35.803123 55.13125 36.115623L47.396873 36.115623Q47.490623 37.81875 48.365623 38.725Q49.240623 39.63125 50.5375 39.63125Q51.50625 39.63125 52.178123 39.13125Q52.865623 38.615623 53.271873 37.50625ZM47.490623 34.6625L53.2875 34.6625Q53.178123 33.365623 52.63125 32.709373Q51.7875 31.693748 50.44375 31.693748Q49.240623 31.693748 48.4125 32.50625Q47.584373 33.303123 47.490623 34.6625ZM57.146873 40.85L57.146873 30.474998L58.725 30.474998L58.725 32.053123Q59.334373 30.943748 59.85 30.599998Q60.365623 30.240623 60.975 30.240623Q61.865623 30.240623 62.7875 30.803123L62.178123 32.44375Q61.5375 32.053123 60.896873 32.053123Q60.31875 32.053123 59.85 32.4125Q59.396873 32.75625 59.19375 33.365623Q58.9125 34.303123 58.9125 35.4125L58.9125 40.85L57.146873 40.85ZM70.94375 39.56875Q69.95937 40.396873 69.05312 40.740623Q68.14687 41.084373 67.11562 41.084373Q65.4125 41.084373 64.49062 40.25625Q63.56875 39.4125 63.56875 38.115623Q63.56875 37.35 63.9125 36.725Q64.27187 36.1 64.83437 35.725Q65.39687 35.334373 66.1 35.13125Q66.61562 35.00625 67.6625 34.865623Q69.7875 34.615623 70.7875 34.271873Q70.80312 33.9125 70.80312 33.803123Q70.80312 32.740623 70.30312 32.2875Q69.63125 31.693748 68.30312 31.693748Q67.05312 31.693748 66.45937 32.13125Q65.88125 32.56875 65.6 33.678123L63.88125 33.44375Q64.11562 32.334373 64.64687 31.662498Q65.17812 30.974998 66.19375 30.615623Q67.20937 30.240623 68.55312 30.240623Q69.88125 30.240623 70.70937 30.553123Q71.5375 30.865623 71.92812 31.349998Q72.31875 31.818748 72.475 32.5375Q72.56875 32.990623 72.56875 34.1625L72.56875 36.50625Q72.56875 38.959373 72.67812 39.615623Q72.7875 40.25625 73.13125 40.85L71.2875 40.85Q71.02187 40.303123 70.94375 39.56875ZM70.7875 35.646873Q69.83437 36.0375 67.9125 36.303123Q66.83437 36.459373 66.38125 36.6625Q65.94375 36.85 65.69375 37.225Q65.44375 37.6 65.44375 38.06875Q65.44375 38.771873 65.975 39.240623Q66.50625 39.709373 67.5375 39.709373Q68.55312 39.709373 69.33437 39.271873Q70.13125 38.81875 70.50625 38.053123Q70.7875 37.44375 70.7875 36.2875L70.7875 35.646873ZM74.85 41.709373L76.55312 41.959373Q76.6625 42.75625 77.14687 43.115623Q77.80312 43.6 78.94375 43.6Q80.1625 43.6 80.81875 43.115623Q81.49062 42.63125 81.725 41.75625Q81.86562 41.209373 81.85 39.490623Q80.69375 40.85 78.975 40.85Q76.83437 40.85 75.6625 39.303123Q74.49062 37.75625 74.49062 35.6Q74.49062 34.115623 75.02187 32.865623Q75.56875 31.615623 76.58437 30.928123Q77.61562 30.240623 78.99062 30.240623Q80.81875 30.240623 82.02187 31.724998L82.02187 30.474998L83.63125 30.474998L83.63125 39.44375Q83.63125 41.865623 83.13125 42.865623Q82.64687 43.88125 81.56875 44.459373Q80.50625 45.053123 78.94375 45.053123Q77.1 45.053123 75.94375 44.225Q74.80312 43.396873 74.85 41.709373ZM76.30312 35.475Q76.30312 37.521873 77.11562 38.459373Q77.92812 39.396873 79.14687 39.396873Q80.35 39.396873 81.1625 38.459373Q81.99062 37.521873 81.99062 35.5375Q81.99062 33.63125 81.14687 32.6625Q80.30312 31.693748 79.11562 31.693748Q77.94375 31.693748 77.11562 32.646873Q76.30312 33.6 76.30312 35.475ZM93.27187 37.50625L95.08437 37.740623Q94.6625 39.31875 93.49062 40.209373Q92.33437 41.084373 90.52187 41.084373Q88.25625 41.084373 86.9125 39.69375Q85.58437 38.2875 85.58437 35.75625Q85.58437 33.13125 86.92812 31.693748Q88.27187 30.240623 90.42812 30.240623Q92.50625 30.240623 93.81875 31.662498Q95.14687 33.06875 95.14687 35.646873Q95.14687 35.803123 95.13125 36.115623L87.39687 36.115623Q87.49062 37.81875 88.36562 38.725Q89.24062 39.63125 90.5375 39.63125Q91.50625 39.63125 92.17812 39.13125Q92.86562 38.615623 93.27187 37.50625ZM87.49062 34.6625L93.2875 34.6625Q93.17812 33.365623 92.63125 32.709373Q91.7875 31.693748 90.44375 31.693748Q89.24062 31.693748 88.4125 32.50625Q87.58437 33.303123 87.49062 34.6625ZM102.75625 36.25625L104.5375 36.1Q104.6625 37.1625 105.11562 37.85Q105.58437 38.5375 106.55312 38.975Q107.5375 39.396873 108.77187 39.396873Q109.85 39.396873 110.67812 39.084373Q111.50625 38.75625 111.9125 38.19375Q112.31875 37.63125 112.31875 36.959373Q112.31875 36.2875 111.92812 35.7875Q111.5375 35.2875 110.64687 34.94375Q110.06875 34.709373 108.08437 34.240623Q106.11562 33.771873 105.33437 33.35Q104.30312 32.81875 103.80312 32.021873Q103.30312 31.224998 103.30312 30.240623Q103.30312 29.146873 103.9125 28.209373Q104.52187 27.271873 105.70937 26.787498Q106.89687 26.287498 108.33437 26.287498Q109.92812 26.287498 111.14687 26.803123Q112.36562 27.318748 113.00625 28.318748Q113.6625 29.303123 113.70937 30.568748L111.89687 30.709373Q111.75625 29.349998 110.9125 28.662498Q110.06875 27.959373 108.4125 27.959373Q106.69375 27.959373 105.89687 28.599998Q105.11562 29.224998 105.11562 30.099998Q105.11562 30.881248 105.67812 31.381248Q106.225 31.881248 108.5375 32.396873Q110.85 32.9125 111.70937 33.303123Q112.95937 33.88125 113.55312 34.771873Q114.14687 35.646873 114.14687 36.803123Q114.14687 37.94375 113.49062 38.959373Q112.83437 39.975 111.6 40.5375Q110.38125 41.1 108.85 41.1Q106.9125 41.1 105.6 40.5375Q104.2875 39.959373 103.5375 38.81875Q102.7875 37.678123 102.75625 36.25625ZM120.00625 39.271873L120.25625 40.834373Q119.52187 40.990623 118.92812 40.990623Q117.975 40.990623 117.44375 40.69375Q116.92812 40.38125 116.70937 39.896873Q116.49062 39.396873 116.49062 37.81875L116.49062 31.849998L115.20937 31.849998L115.20937 30.474998L116.49062 30.474998L116.49062 27.912498L118.24062 26.849998L118.24062 30.474998L120.00625 30.474998L120.00625 31.849998L118.24062 31.849998L118.24062 37.9125Q118.24062 38.6625 118.33437 38.88125Q118.42812 39.084373 118.63125 39.225Q118.85 39.35 119.24062 39.35Q119.52187 39.35 120.00625 39.271873ZM128.94376 39.56875Q127.95937 40.396873 127.05312 40.740623Q126.14687 41.084373 125.11562 41.084373Q123.4125 41.084373 122.49062 40.25625Q121.56875 39.4125 121.56875 38.115623Q121.56875 37.35 121.9125 36.725Q122.27187 36.1 122.83437 35.725Q123.39687 35.334373 124.1 35.13125Q124.61562 35.00625 125.6625 34.865623Q127.7875 34.615623 128.7875 34.271873Q128.80313 33.9125 128.80313 33.803123Q128.80313 32.740623 128.30313 32.2875Q127.63125 31.693748 126.30312 31.693748Q125.05312 31.693748 124.45937 32.13125Q123.88125 32.56875 123.6 33.678123L121.88125 33.44375Q122.11562 32.334373 122.64687 31.662498Q123.17812 30.974998 124.19375 30.615623Q125.20937 30.240623 126.55312 30.240623Q127.88125 30.240623 128.70938 30.553123Q129.5375 30.865623 129.92813 31.349998Q130.31876 31.818748 130.475 32.5375Q130.56876 32.990623 130.56876 34.1625L130.56876 36.50625Q130.56876 38.959373 130.67813 39.615623Q130.7875 40.25625 131.13126 40.85L129.2875 40.85Q129.02188 40.303123 128.94376 39.56875ZM128.7875 35.646873Q127.83437 36.0375 125.9125 36.303123Q124.83437 36.459373 124.38125 36.6625Q123.94375 36.85 123.69375 37.225Q123.44375 37.6 123.44375 38.06875Q123.44375 38.771873 123.975 39.240623Q124.50625 39.709373 125.5375 39.709373Q126.55312 39.709373 127.33437 39.271873Q128.13126 38.81875 128.50626 38.053123Q128.7875 37.44375 128.7875 36.2875L128.7875 35.646873ZM134.7875 40.85L133.1625 40.85L133.1625 26.537498L134.9125 26.537498L134.9125 31.646873Q136.0375 30.240623 137.75626 30.240623Q138.70938 30.240623 139.56876 30.631248Q140.42813 31.021873 140.975 31.724998Q141.52188 32.4125 141.83438 33.396873Q142.14688 34.38125 142.14688 35.50625Q142.14688 38.178123 140.83438 39.63125Q139.52188 41.084373 137.67813 41.084373Q135.83438 41.084373 134.7875 39.553123L134.7875 40.85ZM134.77188 35.584373Q134.77188 37.44375 135.27188 38.2875Q136.11563 39.63125 137.52188 39.63125Q138.67813 39.63125 139.50626 38.63125Q140.35 37.63125 140.35 35.646873Q140.35 33.615623 139.5375 32.6625Q138.74063 31.693748 137.6 31.693748Q136.44376 31.693748 135.6 32.69375Q134.77188 33.69375 134.77188 35.584373ZM144.13126 40.85L144.13126 26.537498L145.88126 26.537498L145.88126 40.85L144.13126 40.85ZM155.27188 37.50625L157.08438 37.740623Q156.6625 39.31875 155.49063 40.209373Q154.33438 41.084373 152.52188 41.084373Q150.25626 41.084373 148.9125 39.69375Q147.58438 38.2875 147.58438 35.75625Q147.58438 33.13125 148.92813 31.693748Q150.27188 30.240623 152.42813 30.240623Q154.50626 30.240623 155.81876 31.662498Q157.14688 33.06875 157.14688 35.646873Q157.14688 35.803123 157.13126 36.115623L149.39688 36.115623Q149.49063 37.81875 150.36563 38.725Q151.24063 39.63125 152.5375 39.63125Q153.50626 39.63125 154.17813 39.13125Q154.86563 38.615623 155.27188 37.50625ZM149.49063 34.6625L155.2875 34.6625Q155.17813 33.365623 154.63126 32.709373Q153.7875 31.693748 152.44376 31.693748Q151.24063 31.693748 150.4125 32.50625Q149.58438 33.303123 149.49063 34.6625ZM165.39688 40.85L165.39688 26.537498L170.31876 26.537498Q171.99063 26.537498 172.88126 26.740623Q174.1 27.021873 174.975 27.756248Q176.1 28.724998 176.6625 30.209373Q177.225 31.693748 177.225 33.615623Q177.225 35.240623 176.85 36.50625Q176.475 37.75625 175.86563 38.584373Q175.27188 39.4125 174.56876 39.896873Q173.86563 40.365623 172.86563 40.615623Q171.86563 40.85 170.55313 40.85L165.39688 40.85ZM167.2875 39.1625L170.35 39.1625Q171.75626 39.1625 172.55313 38.896873Q173.36563 38.63125 173.85 38.146873Q174.52188 37.475 174.89688 36.35Q175.27188 35.209373 175.27188 33.584373Q175.27188 31.334373 174.5375 30.131248Q173.80313 28.928123 172.74063 28.521873Q171.99063 28.224998 170.30313 28.224998L167.2875 28.224998L167.2875 39.1625ZM179.17813 28.553123L179.17813 26.537498L180.94376 26.537498L180.94376 28.553123L179.17813 28.553123ZM179.17813 40.85L179.17813 30.474998L180.94376 30.474998L180.94376 40.85L179.17813 40.85ZM183.58438 40.85L183.58438 31.849998L182.0375 31.849998L182.0375 30.474998L183.58438 30.474998L183.58438 29.381248Q183.58438 28.334373 183.77188 27.818748Q184.02188 27.131248 184.6625 26.709373Q185.30313 26.287498 186.45938 26.287498Q187.20938 26.287498 188.1 26.459373L187.83438 27.990623Q187.2875 27.896873 186.80313 27.896873Q186.00626 27.896873 185.6625 28.240623Q185.33438 28.584373 185.33438 29.521873L185.33438 30.474998L187.36563 30.474998L187.36563 31.849998L185.33438 31.849998L185.33438 40.85L183.58438 40.85ZM189.58438 40.85L189.58438 31.849998L188.0375 31.849998L188.0375 30.474998L189.58438 30.474998L189.58438 29.381248Q189.58438 28.334373 189.77188 27.818748Q190.02188 27.131248 190.6625 26.709373Q191.30313 26.287498 192.45938 26.287498Q193.20938 26.287498 194.1 26.459373L193.83438 27.990623Q193.2875 27.896873 192.80313 27.896873Q192.00626 27.896873 191.6625 28.240623Q191.33438 28.584373 191.33438 29.521873L191.33438 30.474998L193.36563 30.474998L193.36563 31.849998L191.33438 31.849998L191.33438 40.85L189.58438 40.85ZM201.95938 40.85L201.95938 39.31875Q200.75626 41.084373 198.67813 41.084373Q197.75626 41.084373 196.95938 40.740623Q196.1625 40.38125 195.77188 39.85Q195.39688 39.31875 195.24063 38.5375Q195.13126 38.021873 195.13126 36.896873L195.13126 30.474998L196.88126 30.474998L196.88126 36.225Q196.88126 37.6 196.99063 38.084373Q197.1625 38.771873 197.69376 39.178123Q198.24063 39.56875 199.02188 39.56875Q199.81876 39.56875 200.50626 39.1625Q201.20938 38.75625 201.49063 38.06875Q201.7875 37.365623 201.7875 36.0375L201.7875 30.474998L203.5375 30.474998L203.5375 40.85L201.95938 40.85ZM204.45938 37.75625L206.20938 37.475Q206.35 38.521873 207.02188 39.084373Q207.69376 39.63125 208.89688 39.63125Q210.1 39.63125 210.67813 39.146873Q211.27188 38.646873 211.27188 37.990623Q211.27188 37.396873 210.75626 37.053123Q210.39688 36.81875 208.95938 36.459373Q207.02188 35.959373 206.27188 35.615623Q205.5375 35.25625 205.14688 34.63125Q204.75626 33.990623 204.75626 33.225Q204.75626 32.5375 205.06876 31.943748Q205.39688 31.349998 205.94376 30.959373Q206.35 30.662498 207.05313 30.459373Q207.77188 30.240623 208.58438 30.240623Q209.80313 30.240623 210.725 30.599998Q211.64688 30.943748 212.08438 31.553123Q212.52188 32.146873 212.69376 33.146873L210.975 33.38125Q210.85 32.584373 210.2875 32.146873Q209.725 31.693748 208.70938 31.693748Q207.49063 31.693748 206.975 32.1Q206.45938 32.490623 206.45938 33.021873Q206.45938 33.365623 206.67813 33.646873Q206.88126 33.928123 207.35 34.115623Q207.61563 34.209373 208.89688 34.553123Q210.77188 35.053123 211.50626 35.38125Q212.24063 35.69375 212.6625 36.303123Q213.08438 36.896873 213.08438 37.803123Q213.08438 38.678123 212.56876 39.459373Q212.05313 40.240623 211.08438 40.6625Q210.11563 41.084373 208.89688 41.084373Q206.88126 41.084373 205.81876 40.240623Q204.75626 39.396873 204.45938 37.75625ZM215.17813 28.553123L215.17813 26.537498L216.94376 26.537498L216.94376 28.553123L215.17813 28.553123ZM215.17813 40.85L215.17813 30.474998L216.94376 30.474998L216.94376 40.85L215.17813 40.85ZM218.52188 35.6625Q218.52188 32.7875 220.11563 31.396873Q221.45938 30.240623 223.38126 30.240623Q225.52188 30.240623 226.86563 31.646873Q228.225 33.053123 228.225 35.521873Q228.225 37.521873 227.63126 38.678123Q227.0375 39.81875 225.88126 40.459373Q224.74063 41.084373 223.38126 41.084373Q221.19376 41.084373 219.85 39.69375Q218.52188 38.2875 218.52188 35.6625ZM220.31876 35.6625Q220.31876 37.6625 221.17813 38.646873Q222.05313 39.63125 223.38126 39.63125Q224.69376 39.63125 225.55313 38.646873Q226.42813 37.646873 226.42813 35.6Q226.42813 33.678123 225.55313 32.69375Q224.67813 31.693748 223.38126 31.693748Q222.05313 31.693748 221.17813 32.69375Q220.31876 33.678123 220.31876 35.6625ZM230.1625 40.85L230.1625 30.474998L231.75626 30.474998L231.75626 31.959373Q232.89688 30.240623 235.05313 30.240623Q235.99063 30.240623 236.77188 30.584373Q237.56876 30.912498 237.95938 31.459373Q238.35 32.00625 238.50626 32.75625Q238.6 33.25625 238.6 34.475L238.6 40.85L236.83438 40.85L236.83438 34.5375Q236.83438 33.459373 236.63126 32.928123Q236.42813 32.396873 235.89688 32.084373Q235.38126 31.771873 234.67813 31.771873Q233.55313 31.771873 232.74063 32.490623Q231.92813 33.19375 231.92813 35.178123L231.92813 40.85L230.1625 40.85ZM245.45938 37.75625L247.20938 37.475Q247.35 38.521873 248.02188 39.084373Q248.69376 39.63125 249.89688 39.63125Q251.1 39.63125 251.67813 39.146873Q252.27188 38.646873 252.27188 37.990623Q252.27188 37.396873 251.75626 37.053123Q251.39688 36.81875 249.95938 36.459373Q248.02188 35.959373 247.27188 35.615623Q246.5375 35.25625 246.14688 34.63125Q245.75626 33.990623 245.75626 33.225Q245.75626 32.5375 246.06876 31.943748Q246.39688 31.349998 246.94376 30.959373Q247.35 30.662498 248.05313 30.459373Q248.77188 30.240623 249.58438 30.240623Q250.80313 30.240623 251.725 30.599998Q252.64688 30.943748 253.08438 31.553123Q253.52188 32.146873 253.69376 33.146873L251.975 33.38125Q251.85 32.584373 251.2875 32.146873Q250.725 31.693748 249.70938 31.693748Q248.49063 31.693748 247.975 32.1Q247.45938 32.490623 247.45938 33.021873Q247.45938 33.365623 247.67813 33.646873Q247.88126 33.928123 248.35 34.115623Q248.61563 34.209373 249.89688 34.553123Q251.77188 35.053123 252.50626 35.38125Q253.24063 35.69375 253.6625 36.303123Q254.08438 36.896873 254.08438 37.803123Q254.08438 38.678123 253.56876 39.459373Q253.05313 40.240623 252.08438 40.6625Q251.11563 41.084373 249.89688 41.084373Q247.88126 41.084373 246.81876 40.240623Q245.75626 39.396873 245.45938 37.75625ZM262.94376 37.053123L264.6625 37.271873Q264.38126 39.06875 263.20938 40.084373Q262.05313 41.084373 260.35 41.084373Q258.225 41.084373 256.92813 39.69375Q255.63126 38.303123 255.63126 35.709373Q255.63126 34.021873 256.17813 32.771873Q256.74063 31.506248 257.88126 30.881248Q259.02188 30.240623 260.36563 30.240623Q262.05313 30.240623 263.11563 31.099998Q264.19376 31.959373 264.50626 33.521873L262.7875 33.7875Q262.55313 32.740623 261.92813 32.225Q261.30313 31.693748 260.42813 31.693748Q259.1 31.693748 258.27188 32.646873Q257.44376 33.6 257.44376 35.646873Q257.44376 37.740623 258.24063 38.69375Q259.0375 39.63125 260.33438 39.63125Q261.36563 39.63125 262.05313 39.00625Q262.75626 38.365623 262.94376 37.053123ZM265.52188 35.6625Q265.52188 32.7875 267.11563 31.396873Q268.45938 30.240623 270.38126 30.240623Q272.52188 30.240623 273.86563 31.646873Q275.225 33.053123 275.225 35.521873Q275.225 37.521873 274.63126 38.678123Q274.0375 39.81875 272.88126 40.459373Q271.74063 41.084373 270.38126 41.084373Q268.19376 41.084373 266.85 39.69375Q265.52188 38.2875 265.52188 35.6625ZM267.31876 35.6625Q267.31876 37.6625 268.17813 38.646873Q269.05313 39.63125 270.38126 39.63125Q271.69376 39.63125 272.55313 38.646873Q273.42813 37.646873 273.42813 35.6Q273.42813 33.678123 272.55313 32.69375Q271.67813 31.693748 270.38126 31.693748Q269.05313 31.693748 268.17813 32.69375Q267.31876 33.678123 267.31876 35.6625ZM277.14688 40.85L277.14688 30.474998L278.725 30.474998L278.725 32.053123Q279.33438 30.943748 279.85 30.599998Q280.36563 30.240623 280.975 30.240623Q281.86563 30.240623 282.7875 30.803123L282.17813 32.44375Q281.5375 32.053123 280.89688 32.053123Q280.31876 32.053123 279.85 32.4125Q279.39688 32.75625 279.19376 33.365623Q278.9125 34.303123 278.9125 35.4125L278.9125 40.85L277.14688 40.85ZM291.27188 37.50625L293.08438 37.740623Q292.6625 39.31875 291.49063 40.209373Q290.33438 41.084373 288.52188 41.084373Q286.25626 41.084373 284.9125 39.69375Q283.58438 38.2875 283.58438 35.75625Q283.58438 33.13125 284.92813 31.693748Q286.27188 30.240623 288.42813 30.240623Q290.50626 30.240623 291.81876 31.662498Q293.14688 33.06875 293.14688 35.646873Q293.14688 35.803123 293.13126 36.115623L285.39688 36.115623Q285.49063 37.81875 286.36563 38.725Q287.24063 39.63125 288.5375 39.63125Q289.50626 39.63125 290.17813 39.13125Q290.86563 38.615623 291.27188 37.50625ZM285.49063 34.6625L291.2875 34.6625Q291.17813 33.365623 290.63126 32.709373Q289.7875 31.693748 288.44376 31.693748Q287.24063 31.693748 286.4125 32.50625Q285.58438 33.303123 285.49063 34.6625ZM302.7875 40.85L301.1625 40.85L301.1625 26.537498L302.9125 26.537498L302.9125 31.646873Q304.0375 30.240623 305.75626 30.240623Q306.70938 30.240623 307.56876 30.631248Q308.42813 31.021873 308.975 31.724998Q309.52188 32.4125 309.83438 33.396873Q310.14688 34.38125 310.14688 35.50625Q310.14688 38.178123 308.83438 39.63125Q307.52188 41.084373 305.67813 41.084373Q303.83438 41.084373 302.7875 39.553123L302.7875 40.85ZM302.77188 35.584373Q302.77188 37.44375 303.27188 38.2875Q304.11563 39.63125 305.52188 39.63125Q306.67813 39.63125 307.50626 38.63125Q308.35 37.63125 308.35 35.646873Q308.35 33.615623 307.5375 32.6625Q306.74063 31.693748 305.6 31.693748Q304.44376 31.693748 303.6 32.69375Q302.77188 33.69375 302.77188 35.584373ZM312.08438 44.85L311.89688 43.19375Q312.475 43.35 312.89688 43.35Q313.49063 43.35 313.83438 43.146873Q314.19376 42.959373 314.4125 42.615623Q314.58438 42.35 314.95938 41.303123Q315.00626 41.146873 315.11563 40.865623L311.17813 30.474998L313.06876 30.474998L315.225 36.490623Q315.64688 37.63125 315.975 38.88125Q316.2875 37.678123 316.69376 36.521873L318.9125 30.474998L320.67813 30.474998L316.725 41.021873Q316.1 42.740623 315.74063 43.38125Q315.27188 44.25625 314.6625 44.646873Q314.06876 45.053123 313.225 45.053123Q312.70938 45.053123 312.08438 44.85ZM334.94376 39.56875Q333.95938 40.396873 333.05313 40.740623Q332.14688 41.084373 331.11563 41.084373Q329.4125 41.084373 328.49063 40.25625Q327.56876 39.4125 327.56876 38.115623Q327.56876 37.35 327.9125 36.725Q328.27188 36.1 328.83438 35.725Q329.39688 35.334373 330.1 35.13125Q330.61563 35.00625 331.6625 34.865623Q333.7875 34.615623 334.7875 34.271873Q334.80313 33.9125 334.80313 33.803123Q334.80313 32.740623 334.30313 32.2875Q333.63126 31.693748 332.30313 31.693748Q331.05313 31.693748 330.45938 32.13125Q329.88126 32.56875 329.6 33.678123L327.88126 33.44375Q328.11563 32.334373 328.64688 31.662498Q329.17813 30.974998 330.19376 30.615623Q331.20938 30.240623 332.55313 30.240623Q333.88126 30.240623 334.70938 30.553123Q335.5375 30.865623 335.92813 31.349998Q336.31876 31.818748 336.475 32.5375Q336.56876 32.990623 336.56876 34.1625L336.56876 36.50625Q336.56876 38.959373 336.67813 39.615623Q336.7875 40.25625 337.13126 40.85L335.2875 40.85Q335.02188 40.303123 334.94376 39.56875ZM334.7875 35.646873Q333.83438 36.0375 331.9125 36.303123Q330.83438 36.459373 330.38126 36.6625Q329.94376 36.85 329.69376 37.225Q329.44376 37.6 329.44376 38.06875Q329.44376 38.771873 329.975 39.240623Q330.50626 39.709373 331.5375 39.709373Q332.55313 39.709373 333.33438 39.271873Q334.13126 38.81875 334.50626 38.053123Q334.7875 37.44375 334.7875 36.2875L334.7875 35.646873ZM339.13126 40.85L339.13126 26.537498L340.88126 26.537498L340.88126 40.85L339.13126 40.85ZM342.85 41.709373L344.55313 41.959373Q344.6625 42.75625 345.14688 43.115623Q345.80313 43.6 346.94376 43.6Q348.1625 43.6 348.81876 43.115623Q349.49063 42.63125 349.725 41.75625Q349.86563 41.209373 349.85 39.490623Q348.69376 40.85 346.975 40.85Q344.83438 40.85 343.6625 39.303123Q342.49063 37.75625 342.49063 35.6Q342.49063 34.115623 343.02188 32.865623Q343.56876 31.615623 344.58438 30.928123Q345.61563 30.240623 346.99063 30.240623Q348.81876 30.240623 350.02188 31.724998L350.02188 30.474998L351.63126 30.474998L351.63126 39.44375Q351.63126 41.865623 351.13126 42.865623Q350.64688 43.88125 349.56876 44.459373Q348.50626 45.053123 346.94376 45.053123Q345.1 45.053123 343.94376 44.225Q342.80313 43.396873 342.85 41.709373ZM344.30313 35.475Q344.30313 37.521873 345.11563 38.459373Q345.92813 39.396873 347.14688 39.396873Q348.35 39.396873 349.1625 38.459373Q349.99063 37.521873 349.99063 35.5375Q349.99063 33.63125 349.14688 32.6625Q348.30313 31.693748 347.11563 31.693748Q345.94376 31.693748 345.11563 32.646873Q344.30313 33.6 344.30313 35.475ZM353.52188 35.6625Q353.52188 32.7875 355.11563 31.396873Q356.45938 30.240623 358.38126 30.240623Q360.52188 30.240623 361.86563 31.646873Q363.225 33.053123 363.225 35.521873Q363.225 37.521873 362.63126 38.678123Q362.0375 39.81875 360.88126 40.459373Q359.74063 41.084373 358.38126 41.084373Q356.19376 41.084373 354.85 39.69375Q353.52188 38.2875 353.52188 35.6625ZM355.31876 35.6625Q355.31876 37.6625 356.17813 38.646873Q357.05313 39.63125 358.38126 39.63125Q359.69376 39.63125 360.55313 38.646873Q361.42813 37.646873 361.42813 35.6Q361.42813 33.678123 360.55313 32.69375Q359.67813 31.693748 358.38126 31.693748Q357.05313 31.693748 356.17813 32.69375Q355.31876 33.678123 355.31876 35.6625ZM365.14688 40.85L365.14688 30.474998L366.725 30.474998L366.725 32.053123Q367.33438 30.943748 367.85 30.599998Q368.36563 30.240623 368.975 30.240623Q369.86563 30.240623 370.7875 30.803123L370.17813 32.44375Q369.5375 32.053123 368.89688 32.053123Q368.31876 32.053123 367.85 32.4125Q367.39688 32.75625 367.19376 33.365623Q366.9125 34.303123 366.9125 35.4125L366.9125 40.85L365.14688 40.85ZM372.17813 28.553123L372.17813 26.537498L373.94376 26.537498L373.94376 28.553123L372.17813 28.553123ZM372.17813 40.85L372.17813 30.474998L373.94376 30.474998L373.94376 40.85L372.17813 40.85ZM380.00626 39.271873L380.25626 40.834373Q379.52188 40.990623 378.92813 40.990623Q377.975 40.990623 377.44376 40.69375Q376.92813 40.38125 376.70938 39.896873Q376.49063 39.396873 376.49063 37.81875L376.49063 31.849998L375.20938 31.849998L375.20938 30.474998L376.49063 30.474998L376.49063 27.912498L378.24063 26.849998L378.24063 30.474998L380.00626 30.474998L380.00626 31.849998L378.24063 31.849998L378.24063 37.9125Q378.24063 38.6625 378.33438 38.88125Q378.42813 39.084373 378.63126 39.225Q378.85 39.35 379.24063 39.35Q379.52188 39.35 380.00626 39.271873ZM382.1625 40.85L382.1625 26.537498L383.92813 26.537498L383.92813 31.662498Q385.1625 30.240623 387.0375 30.240623Q388.17813 30.240623 389.02188 30.693748Q389.88126 31.146873 390.24063 31.959373Q390.61563 32.75625 390.61563 34.271873L390.61563 40.85L388.86563 40.85L388.86563 34.271873Q388.86563 32.959373 388.2875 32.365623Q387.70938 31.756248 386.67813 31.756248Q385.89688 31.756248 385.19376 32.1625Q384.50626 32.56875 384.20938 33.271873Q383.92813 33.959373 383.92813 35.178123L383.92813 40.85L382.1625 40.85ZM392.1625 40.85L392.1625 30.474998L393.74063 30.474998L393.74063 31.928123Q394.225 31.178123 395.0375 30.709373Q395.85 30.240623 396.88126 30.240623Q398.0375 30.240623 398.77188 30.724998Q399.50626 31.193748 399.81876 32.053123Q401.05313 30.240623 403.02188 30.240623Q404.56876 30.240623 405.39688 31.099998Q406.225 31.959373 406.225 33.725L406.225 40.85L404.475 40.85L404.475 34.31875Q404.475 33.25625 404.30313 32.803123Q404.13126 32.334373 403.67813 32.053123Q403.24063 31.771873 402.63126 31.771873Q401.5375 31.771873 400.80313 32.50625Q400.08438 33.225 400.08438 34.81875L400.08438 40.85L398.33438 40.85L398.33438 34.115623Q398.33438 32.94375 397.89688 32.365623Q397.475 31.771873 396.49063 31.771873Q395.75626 31.771873 395.11563 32.1625Q394.49063 32.553123 394.20938 33.303123Q393.92813 34.053123 393.92813 35.475L393.92813 40.85L392.1625 40.85Z" fill-rule="nonzero"/></svg>