<svg version="1.1" viewBox="0.0 0.0 733.0 457.0" fill="none" stroke="none" stroke-linecap="square" stroke-miterlimit="10" width="733" height="457" xmlns:xlink="http://www.w3.org/1999/xlink" xmlns="http://www.w3.org/2000/svg"><path fill="#ffffff" d="M0 0L733.0 0L733.0 457.0L0 457.0L0 0Z" fill-rule="nonzero"/><path fill="#4285f4" d="M366.5 62.083332C447.69324 62.083332 519.5079 114.740005 543.92316 192.17537L366.5 248.11667Z" fill-rule="nonzero"/><path fill="#ea4335" d="M543.92316 192.17537C566.90515 265.065 542.9694 344.5947 483.5746 392.6917L366.5 248.11667Z" fill-rule="nonzero"/><path fill="#ff6d01" d="M190.95737 186.52783C217.11208 111.980774 287.4979 62.083332 366.5 62.083332L366.5 248.11667Z" fill-rule="nonzero"/><path fill="#34a853" d="M266.54437 405.0156C193.65959 358.5829 162.3473 268.0732 190.95737 186.52783L366.5 248.11667Z" fill-rule="nonzero"/><path fill="#fbbc04" d="M483.5746 392.6917C421.4055 443.03525 334.01288 447.99777 266.54437 405.0156L366.5 248.11667Z" fill-rule="nonzero"/><path fill="#000000" d="M446.1994 128.71158Q445.43378 128.43033 445.05878 127.9147Q444.6994 127.39908 444.6994 126.6647Q444.6994 125.57095 445.48065 124.83658Q446.27753 124.08658 447.5744 124.08658Q448.8869 124.08658 449.68378 124.8522Q450.49628 125.61783 450.49628 126.71158Q450.49628 127.39908 450.12128 127.9147Q449.7619 128.43033 449.0119 128.71158Q449.93378 129.00845 450.41815 129.68033Q450.90253 130.3522 450.90253 131.2897Q450.90253 132.57095 449.99628 133.44595Q449.09003 134.32095 447.60565 134.32095Q446.12128 134.32095 445.1994 133.44595Q444.29315 132.55533 444.29315 131.24283Q444.29315 130.27408 444.79315 129.61783Q445.29315 128.94595 446.1994 128.71158ZM445.96503 126.63345Q445.96503 127.33658 446.41815 127.7897Q446.87128 128.24283 447.60565 128.24283Q448.3244 128.24283 448.77753 127.80533Q449.23065 127.3522 449.23065 126.69595Q449.23065 126.02408 448.7619 125.57095Q448.29315 125.1022 447.59003 125.1022Q446.8869 125.1022 446.41815 125.55533Q445.96503 125.99283 445.96503 126.63345ZM445.55878 131.25845Q445.55878 131.7897 445.80878 132.2897Q446.05878 132.77408 446.54315 133.0397Q447.04315 133.30533 447.62128 133.30533Q448.49628 133.30533 449.05878 132.74283Q449.6369 132.18033 449.6369 131.30533Q449.6369 130.4147 449.04315 129.83658Q448.46503 129.24283 447.5744 129.24283Q446.6994 129.24283 446.12128 129.82095Q445.55878 130.39908 445.55878 131.25845ZM452.99628 134.14908L452.99628 132.74283L454.40253 132.74283L454.40253 134.14908L452.99628 134.14908ZM456.3869 125.44595L456.3869 124.25845L462.8869 124.25845L462.8869 125.21158Q461.91815 126.2272 460.98065 127.9147Q460.04315 129.6022 459.52753 131.39908Q459.16815 132.64908 459.05878 134.14908L457.79315 134.14908Q457.80878 132.96158 458.24628 131.2897Q458.6994 129.61783 459.52753 128.07095Q460.37128 126.50845 461.30878 125.44595L456.3869 125.44595Z" fill-rule="nonzero"/><path fill="#000000" d="M495.2053 289.88556Q494.43967 289.6043 494.06467 289.08868Q493.7053 288.57306 493.7053 287.83868Q493.7053 286.74493 494.48654 286.01056Q495.28342 285.26056 496.5803 285.26056Q497.8928 285.26056 498.68967 286.02618Q499.50217 286.7918 499.50217 287.88556Q499.50217 288.57306 499.12717 289.08868Q498.7678 289.6043 498.0178 289.88556Q498.93967 290.18243 499.42404 290.8543Q499.90842 291.52618 499.90842 292.46368Q499.90842 293.74493 499.00217 294.61993Q498.09592 295.49493 496.61154 295.49493Q495.12717 295.49493 494.2053 294.61993Q493.29904 293.7293 493.29904 292.4168Q493.29904 291.44806 493.79904 290.7918Q494.29904 290.11993 495.2053 289.88556ZM494.97092 287.80743Q494.97092 288.51056 495.42404 288.96368Q495.87717 289.4168 496.61154 289.4168Q497.3303 289.4168 497.78342 288.9793Q498.23654 288.52618 498.23654 287.86993Q498.23654 287.19806 497.7678 286.74493Q497.29904 286.27618 496.59592 286.27618Q495.8928 286.27618 495.42404 286.7293Q494.97092 287.1668 494.97092 287.80743ZM494.56467 292.43243Q494.56467 292.96368 494.81467 293.46368Q495.06467 293.94806 495.54904 294.21368Q496.04904 294.4793 496.62717 294.4793Q497.50217 294.4793 498.06467 293.9168Q498.6428 293.3543 498.6428 292.4793Q498.6428 291.58868 498.04904 291.01056Q497.47092 290.4168 496.5803 290.4168Q495.7053 290.4168 495.12717 290.99493Q494.56467 291.57306 494.56467 292.43243ZM502.00217 295.32306L502.00217 293.9168L503.40842 293.9168L503.40842 295.32306L502.00217 295.32306ZM511.78342 294.13556L511.78342 295.32306L505.15842 295.32306Q505.1428 294.88556 505.29904 294.46368Q505.56467 293.7918 506.11154 293.13556Q506.67404 292.4793 507.72092 291.61993Q509.36154 290.27618 509.92404 289.49493Q510.50217 288.71368 510.50217 288.01056Q510.50217 287.27618 509.97092 286.77618Q509.4553 286.27618 508.62717 286.27618Q507.73654 286.27618 507.18967 286.80743Q506.65842 287.33868 506.65842 288.2918L505.3928 288.15118Q505.5178 286.74493 506.36154 286.01056Q507.22092 285.26056 508.6428 285.26056Q510.09592 285.26056 510.92404 286.05743Q511.7678 286.8543 511.7678 288.0418Q511.7678 288.65118 511.5178 289.2293Q511.28342 289.80743 510.7053 290.44806Q510.1428 291.08868 508.81467 292.21368Q507.7053 293.13556 507.3928 293.4793Q507.0803 293.80743 506.87717 294.13556L511.78342 294.13556ZM519.78345 294.13556L519.78345 295.32306L513.15845 295.32306Q513.1428 294.88556 513.2991 294.46368Q513.5647 293.7918 514.1116 293.13556Q514.6741 292.4793 515.72095 291.61993Q517.3616 290.27618 517.9241 289.49493Q518.5022 288.71368 518.5022 288.01056Q518.5022 287.27618 517.97095 286.77618Q517.4553 286.27618 516.6272 286.27618Q515.7366 286.27618 515.1897 286.80743Q514.65845 287.33868 514.65845 288.2918L513.3928 288.15118Q513.5178 286.74493 514.3616 286.01056Q515.22095 285.26056 516.6428 285.26056Q518.09595 285.26056 518.9241 286.05743Q519.7678 286.8543 519.7678 288.0418Q519.7678 288.65118 519.5178 289.2293Q519.28345 289.80743 518.7053 290.44806Q518.1428 291.08868 516.8147 292.21368Q515.7053 293.13556 515.3928 293.4793Q515.0803 293.80743 514.8772 294.13556L519.78345 294.13556Z" fill-rule="nonzero"/><path fill="#000000" d="M363.75705 402.44598Q362.99142 402.16473 362.61642 401.6491Q362.25705 401.13348 362.25705 400.3991Q362.25705 399.30536 363.0383 398.57098Q363.83517 397.82098 365.13205 397.82098Q366.44455 397.82098 367.24142 398.5866Q368.05392 399.35223 368.05392 400.44598Q368.05392 401.13348 367.67892 401.6491Q367.31955 402.16473 366.56955 402.44598Q367.49142 402.74286 367.9758 403.41473Q368.46017 404.0866 368.46017 405.0241Q368.46017 406.30536 367.55392 407.18036Q366.64767 408.05536 365.1633 408.05536Q363.67892 408.05536 362.75705 407.18036Q361.8508 406.28973 361.8508 404.97723Q361.8508 404.00848 362.3508 403.35223Q362.8508 402.68036 363.75705 402.44598ZM363.52267 400.36786Q363.52267 401.07098 363.9758 401.5241Q364.42892 401.97723 365.1633 401.97723Q365.88205 401.97723 366.33517 401.53973Q366.7883 401.0866 366.7883 400.43036Q366.7883 399.75848 366.31955 399.30536Q365.8508 398.8366 365.14767 398.8366Q364.44455 398.8366 363.9758 399.28973Q363.52267 399.72723 363.52267 400.36786ZM363.11642 404.99286Q363.11642 405.5241 363.36642 406.0241Q363.61642 406.50848 364.1008 406.7741Q364.6008 407.03973 365.17892 407.03973Q366.05392 407.03973 366.61642 406.47723Q367.19455 405.91473 367.19455 405.03973Q367.19455 404.1491 366.6008 403.57098Q366.02267 402.97723 365.13205 402.97723Q364.25705 402.97723 363.67892 403.55536Q363.11642 404.13348 363.11642 404.99286ZM370.55392 407.88348L370.55392 406.47723L371.96017 406.47723L371.96017 407.88348L370.55392 407.88348ZM373.86642 405.25848L375.1633 405.1491Q375.30392 406.0866 375.81955 406.57098Q376.3508 407.03973 377.08517 407.03973Q377.9758 407.03973 378.58517 406.36786Q379.21017 405.69598 379.21017 404.60223Q379.21017 403.53973 378.61642 402.93036Q378.02267 402.32098 377.06955 402.32098Q376.4758 402.32098 375.99142 402.60223Q375.52267 402.86786 375.24142 403.28973L374.08517 403.1491L375.05392 397.99286L380.0383 397.99286L380.0383 399.18036L376.0383 399.18036L375.50705 401.86786Q376.4133 401.24286 377.39767 401.24286Q378.71017 401.24286 379.6008 402.1491Q380.50705 403.05536 380.50705 404.49286Q380.50705 405.85223 379.7258 406.8366Q378.75705 408.05536 377.08517 408.05536Q375.7258 408.05536 374.8508 407.28973Q373.99142 406.5241 373.86642 405.25848ZM383.75705 402.44598Q382.99142 402.16473 382.61642 401.6491Q382.25705 401.13348 382.25705 400.3991Q382.25705 399.30536 383.0383 398.57098Q383.83517 397.82098 385.13205 397.82098Q386.44455 397.82098 387.24142 398.5866Q388.05392 399.35223 388.05392 400.44598Q388.05392 401.13348 387.67892 401.6491Q387.31955 402.16473 386.56955 402.44598Q387.49142 402.74286 387.9758 403.41473Q388.46017 404.0866 388.46017 405.0241Q388.46017 406.30536 387.55392 407.18036Q386.64767 408.05536 385.1633 408.05536Q383.67892 408.05536 382.75705 407.18036Q381.8508 406.28973 381.8508 404.97723Q381.8508 404.00848 382.3508 403.35223Q382.8508 402.68036 383.75705 402.44598ZM383.52267 400.36786Q383.52267 401.07098 383.9758 401.5241Q384.42892 401.97723 385.1633 401.97723Q385.88205 401.97723 386.33517 401.53973Q386.7883 401.0866 386.7883 400.43036Q386.7883 399.75848 386.31955 399.30536Q385.8508 398.8366 385.14767 398.8366Q384.44455 398.8366 383.9758 399.28973Q383.52267 399.72723 383.52267 400.36786ZM383.11642 404.99286Q383.11642 405.5241 383.36642 406.0241Q383.61642 406.50848 384.1008 406.7741Q384.6008 407.03973 385.17892 407.03973Q386.05392 407.03973 386.61642 406.47723Q387.19455 405.91473 387.19455 405.03973Q387.19455 404.1491 386.6008 403.57098Q386.02267 402.97723 385.13205 402.97723Q384.25705 402.97723 383.67892 403.55536Q383.11642 404.13348 383.11642 404.99286Z" fill-rule="nonzero"/><path fill="#000000" d="M215.32753 298.5246L216.51503 298.41522Q216.65565 299.24335 217.07753 299.61835Q217.51503 299.99335 218.17128 299.99335Q218.73378 299.99335 219.15565 299.74335Q219.59315 299.47772 219.85878 299.04022Q220.14003 298.60272 220.32753 297.86835Q220.51503 297.13397 220.51503 296.36835Q220.51503 296.29022 220.4994 296.11835Q220.14003 296.7121 219.4994 297.0871Q218.85878 297.44647 218.10878 297.44647Q216.85878 297.44647 215.9994 296.54022Q215.14003 295.63397 215.14003 294.16522Q215.14003 292.63397 216.03065 291.7121Q216.9369 290.7746 218.29628 290.7746Q219.26503 290.7746 220.07753 291.30585Q220.89003 291.82147 221.3119 292.80585Q221.73378 293.7746 221.73378 295.61835Q221.73378 297.54022 221.3119 298.68085Q220.90565 299.82147 220.07753 300.41522Q219.2494 301.00897 218.14003 301.00897Q216.96815 301.00897 216.21815 300.35272Q215.48378 299.69647 215.32753 298.5246ZM220.35878 294.10272Q220.35878 293.04022 219.79628 292.41522Q219.23378 291.79022 218.45253 291.79022Q217.6244 291.79022 217.01503 292.4621Q216.40565 293.13397 216.40565 294.19647Q216.40565 295.1496 216.98378 295.75897Q217.5619 296.35272 218.40565 296.35272Q219.26503 296.35272 219.8119 295.75897Q220.35878 295.1496 220.35878 294.10272ZM223.82753 300.8371L223.82753 299.43085L225.23378 299.43085L225.23378 300.8371L223.82753 300.8371ZM233.60878 299.6496L233.60878 300.8371L226.98378 300.8371Q226.96815 300.3996 227.1244 299.97772Q227.39003 299.30585 227.9369 298.6496Q228.4994 297.99335 229.54628 297.13397Q231.1869 295.79022 231.7494 295.00897Q232.32753 294.22772 232.32753 293.5246Q232.32753 292.79022 231.79628 292.29022Q231.28065 291.79022 230.45253 291.79022Q229.5619 291.79022 229.01503 292.32147Q228.48378 292.85272 228.48378 293.80585L227.21815 293.66522Q227.34315 292.25897 228.1869 291.5246Q229.04628 290.7746 230.46815 290.7746Q231.92128 290.7746 232.7494 291.57147Q233.59315 292.36835 233.59315 293.55585Q233.59315 294.16522 233.34315 294.74335Q233.10878 295.32147 232.53065 295.9621Q231.96815 296.60272 230.64003 297.72772Q229.53065 298.6496 229.21815 298.99335Q228.90565 299.32147 228.70253 299.6496L233.60878 299.6496ZM241.60878 299.6496L241.60878 300.8371L234.98378 300.8371Q234.96815 300.3996 235.1244 299.97772Q235.39003 299.30585 235.9369 298.6496Q236.4994 297.99335 237.54628 297.13397Q239.1869 295.79022 239.7494 295.00897Q240.32753 294.22772 240.32753 293.5246Q240.32753 292.79022 239.79628 292.29022Q239.28065 291.79022 238.45253 291.79022Q237.5619 291.79022 237.01503 292.32147Q236.48378 292.85272 236.48378 293.80585L235.21815 293.66522Q235.34315 292.25897 236.1869 291.5246Q237.04628 290.7746 238.46815 290.7746Q239.92128 290.7746 240.7494 291.57147Q241.59315 292.36835 241.59315 293.55585Q241.59315 294.16522 241.34315 294.74335Q241.10878 295.32147 240.53065 295.9621Q239.96815 296.60272 238.64003 297.72772Q237.53065 298.6496 237.21815 298.99335Q236.90565 299.32147 236.70253 299.6496L241.60878 299.6496Z" fill-rule="nonzero"/><path fill="#000000" d="M271.0316 129.27658Q270.26596 128.99533 269.89096 128.4797Q269.5316 127.96408 269.5316 127.229706Q269.5316 126.135956 270.31284 125.40158Q271.1097 124.65158 272.4066 124.65158Q273.7191 124.65158 274.51596 125.417206Q275.32846 126.18283 275.32846 127.27658Q275.32846 127.96408 274.95346 128.4797Q274.5941 128.99533 273.8441 129.27658Q274.76596 129.57346 275.25034 130.24533Q275.7347 130.9172 275.7347 131.8547Q275.7347 133.13596 274.82846 134.01096Q273.9222 134.88596 272.43784 134.88596Q270.95346 134.88596 270.0316 134.01096Q269.12534 133.12033 269.12534 131.80783Q269.12534 130.83908 269.62534 130.18283Q270.12534 129.51096 271.0316 129.27658ZM270.7972 127.198456Q270.7972 127.90158 271.25034 128.3547Q271.70346 128.80783 272.43784 128.80783Q273.1566 128.80783 273.6097 128.37033Q274.06284 127.917206 274.06284 127.260956Q274.06284 126.58908 273.5941 126.135956Q273.12534 125.667206 272.4222 125.667206Q271.7191 125.667206 271.25034 126.12033Q270.7972 126.55783 270.7972 127.198456ZM270.39096 131.82346Q270.39096 132.3547 270.64096 132.8547Q270.89096 133.33908 271.37534 133.6047Q271.87534 133.87033 272.45346 133.87033Q273.32846 133.87033 273.89096 133.30783Q274.4691 132.74533 274.4691 131.87033Q274.4691 130.9797 273.87534 130.40158Q273.2972 129.80783 272.4066 129.80783Q271.5316 129.80783 270.95346 130.38596Q270.39096 130.96408 270.39096 131.82346ZM277.82846 134.71408L277.82846 133.30783L279.2347 133.30783L279.2347 134.71408L277.82846 134.71408ZM285.0941 134.71408L285.0941 132.30783L280.7347 132.30783L280.7347 131.18283L285.31284 124.698456L286.31284 124.698456L286.31284 131.18283L287.6722 131.18283L287.6722 132.30783L286.31284 132.30783L286.31284 134.71408L285.0941 134.71408ZM285.0941 131.18283L285.0941 126.667206L281.95346 131.18283L285.0941 131.18283ZM291.0316 129.27658Q290.26596 128.99533 289.89096 128.4797Q289.5316 127.96408 289.5316 127.229706Q289.5316 126.135956 290.31284 125.40158Q291.1097 124.65158 292.4066 124.65158Q293.7191 124.65158 294.51596 125.417206Q295.32846 126.18283 295.32846 127.27658Q295.32846 127.96408 294.95346 128.4797Q294.5941 128.99533 293.8441 129.27658Q294.76596 129.57346 295.25034 130.24533Q295.7347 130.9172 295.7347 131.8547Q295.7347 133.13596 294.82846 134.01096Q293.9222 134.88596 292.43784 134.88596Q290.95346 134.88596 290.0316 134.01096Q289.12534 133.12033 289.12534 131.80783Q289.12534 130.83908 289.62534 130.18283Q290.12534 129.51096 291.0316 129.27658ZM290.7972 127.198456Q290.7972 127.90158 291.25034 128.3547Q291.70346 128.80783 292.43784 128.80783Q293.1566 128.80783 293.6097 128.37033Q294.06284 127.917206 294.06284 127.260956Q294.06284 126.58908 293.5941 126.135956Q293.12534 125.667206 292.4222 125.667206Q291.7191 125.667206 291.25034 126.12033Q290.7972 126.55783 290.7972 127.198456ZM290.39096 131.82346Q290.39096 132.3547 290.64096 132.8547Q290.89096 133.33908 291.37534 133.6047Q291.87534 133.87033 292.45346 133.87033Q293.32846 133.87033 293.89096 133.30783Q294.4691 132.74533 294.4691 131.87033Q294.4691 130.9797 293.87534 130.40158Q293.2972 129.80783 292.4066 129.80783Q291.5316 129.80783 290.95346 130.38596Q290.39096 130.96408 290.39096 131.82346Z" fill-rule="nonzero"/><path fill="#1a1a1a" d="M23.771875 99.43875L23.771875 90.845L27.021875 90.845Q27.865625 90.845 28.31875 90.92313Q28.959375 91.0325 29.38125 91.32938Q29.81875 91.62625 30.06875 92.1575Q30.334375 92.68875 30.334375 93.32938Q30.334375 94.42313 29.63125 95.18875Q28.94375 95.93875 27.115625 95.93875L24.9125 95.93875L24.9125 99.43875L23.771875 99.43875ZM24.9125 94.93875L27.13125 94.93875Q28.240625 94.93875 28.69375 94.5325Q29.1625 94.11063 29.1625 93.36063Q29.1625 92.82938 28.88125 92.45438Q28.615625 92.06375 28.178125 91.93875Q27.88125 91.86063 27.115625 91.86063L24.9125 91.86063L24.9125 94.93875ZM31.646875 92.06375L31.646875 90.845L32.709373 90.845L32.709373 92.06375L31.646875 92.06375ZM31.646875 99.43875L31.646875 93.22L32.709373 93.22L32.709373 99.43875L31.646875 99.43875Z" fill-rule="nonzero"/><path fill="#9e9e9e" d="M27.31875 116.43875L26.271875 116.43875L26.271875 109.72Q25.88125 110.07938 25.25625 110.45438Q24.646875 110.81375 24.1625 110.98563L24.1625 109.97Q25.0375 109.54813 25.69375 108.97Q26.365625 108.37625 26.646875 107.81375L27.31875 107.81375L27.31875 116.43875ZM30.50625 114.45438L31.521875 114.36063Q31.646875 115.07938 32.00625 115.4075Q32.38125 115.72 32.94375 115.72Q33.428123 115.72 33.7875 115.50125Q34.1625 115.26688 34.396873 114.9075Q34.63125 114.5325 34.7875 113.9075Q34.94375 113.26688 34.94375 112.61063Q34.94375 112.5325 34.94375 112.39188Q34.63125 112.89188 34.084373 113.22Q33.5375 113.5325 32.896873 113.5325Q31.81875 113.5325 31.084375 112.76688Q30.35 111.98563 30.35 110.72Q30.35 109.4075 31.115625 108.61063Q31.896875 107.81375 33.053123 107.81375Q33.88125 107.81375 34.56875 108.26688Q35.271873 108.72 35.63125 109.56375Q35.990623 110.39188 35.990623 111.97Q35.990623 113.61063 35.63125 114.595Q35.2875 115.56375 34.56875 116.07938Q33.865623 116.57938 32.928123 116.57938Q31.9125 116.57938 31.271875 116.0325Q30.63125 115.47 30.50625 114.45438ZM34.81875 110.6575Q34.81875 109.75125 34.334373 109.22Q33.865623 108.68875 33.178123 108.68875Q32.475 108.68875 31.94375 109.26688Q31.428125 109.82938 31.428125 110.75125Q31.428125 111.56375 31.928125 112.07938Q32.428123 112.595 33.146873 112.595Q33.88125 112.595 34.35 112.07938Q34.81875 111.56375 34.81875 110.6575ZM37.94375 116.43875L37.94375 115.23563L39.146873 115.23563L39.146873 116.43875L37.94375 116.43875ZM45.81875 109.95438L44.771873 110.0325Q44.63125 109.4075 44.38125 109.12625Q43.94375 108.67313 43.31875 108.67313Q42.81875 108.67313 42.428123 108.95438Q41.94375 109.32938 41.646873 110.0325Q41.365623 110.72 41.35 112.00125Q41.725 111.42313 42.271873 111.14188Q42.834373 110.86063 43.44375 110.86063Q44.490623 110.86063 45.225 111.64188Q45.975 112.42313 45.975 113.64188Q45.975 114.45438 45.615623 115.1575Q45.271873 115.845 44.6625 116.22Q44.053123 116.57938 43.2875 116.57938Q41.959373 116.57938 41.13125 115.61063Q40.303123 114.64188 40.303123 112.42313Q40.303123 109.92313 41.225 108.79813Q42.021873 107.81375 43.38125 107.81375Q44.396873 107.81375 45.0375 108.39188Q45.69375 108.95438 45.81875 109.95438ZM41.521873 113.6575Q41.521873 114.20438 41.740623 114.70438Q41.975 115.18875 42.38125 115.45438Q42.803123 115.72 43.271873 115.72Q43.928123 115.72 44.4125 115.18875Q44.896873 114.64188 44.896873 113.72Q44.896873 112.82938 44.4125 112.31375Q43.94375 111.79813 43.225 111.79813Q42.50625 111.79813 42.00625 112.31375Q41.521873 112.82938 41.521873 113.6575ZM47.553123 109.9075Q47.553123 108.98563 48.00625 108.345Q48.475 107.70438 49.35 107.70438Q50.1625 107.70438 50.69375 108.2825Q51.225 108.86063 51.225 109.97Q51.225 111.06375 50.678123 111.6575Q50.146873 112.23563 49.365623 112.23563Q48.584373 112.23563 48.06875 111.6575Q47.553123 111.07938 47.553123 109.9075ZM49.38125 108.42313Q48.990623 108.42313 48.725 108.76688Q48.475 109.11063 48.475 110.01688Q48.475 110.845 48.725 111.18875Q48.990623 111.51688 49.38125 111.51688Q49.7875 111.51688 50.0375 111.17313Q50.303123 110.82938 50.303123 109.93875Q50.303123 109.095 50.0375 108.76688Q49.771873 108.42313 49.38125 108.42313ZM49.38125 116.75125L54.084373 107.70438L54.94375 107.70438L50.25625 116.75125L49.38125 116.75125ZM53.1 114.42313Q53.1 113.50125 53.553123 112.86063Q54.021873 112.22 54.9125 112.22Q55.725 112.22 56.25625 112.79813Q56.7875 113.36063 56.7875 114.48563Q56.7875 115.57938 56.240623 116.17313Q55.709373 116.75125 54.9125 116.75125Q54.146873 116.75125 53.615623 116.17313Q53.1 115.595 53.1 114.42313ZM54.94375 112.93875Q54.5375 112.93875 54.271873 113.2825Q54.021873 113.62625 54.021873 114.5325Q54.021873 115.345 54.2875 115.68875Q54.553123 116.0325 54.94375 116.0325Q55.334373 116.0325 55.6 115.68875Q55.865623 115.345 55.865623 114.43875Q55.865623 113.61063 55.6 113.2825Q55.334373 112.93875 54.94375 112.93875Z" fill-rule="nonzero"/><path stroke="#757575" stroke-width="1.0" stroke-linecap="butt" d="M22.85 103.93875L174.46666 103.93875L264.29037 103.93875" fill-rule="nonzero"/><path fill="#9e9e9e" d="M266.29037 103.93875C266.29037 102.83418 265.39493 101.93875 264.29037 101.93875C263.1858 101.93875 262.29037 102.83418 262.29037 103.93875C262.29037 105.04332 263.1858 105.93875 264.29037 105.93875C265.39493 105.93875 266.29037 105.04332 266.29037 103.93875" fill-rule="nonzero"/><path fill="#1a1a1a" d="M27.803125 298.02286L27.803125 297.02286L31.428125 297.00723L31.428125 300.19473Q30.6 300.8666 29.709375 301.21036Q28.81875 301.53848 27.88125 301.53848Q26.615625 301.53848 25.56875 301.00723Q24.5375 300.46036 24.00625 299.44473Q23.490625 298.41348 23.490625 297.14786Q23.490625 295.88223 24.00625 294.8041Q24.5375 293.71036 25.521875 293.19473Q26.50625 292.66348 27.7875 292.66348Q28.725 292.66348 29.475 292.96036Q30.225 293.25723 30.646875 293.8041Q31.084375 294.33536 31.303125 295.21036L30.2875 295.4916Q30.084375 294.83536 29.7875 294.46036Q29.50625 294.08536 28.975 293.8666Q28.44375 293.63223 27.803125 293.63223Q27.021875 293.63223 26.44375 293.8666Q25.88125 294.10098 25.521875 294.4916Q25.178125 294.88223 24.990625 295.35098Q24.6625 296.14786 24.6625 297.06973Q24.6625 298.22598 25.053125 299.00723Q25.459375 299.77286 26.209375 300.14786Q26.959375 300.52286 27.81875 300.52286Q28.553125 300.52286 29.25625 300.2416Q29.959375 299.94473 30.31875 299.63223L30.31875 298.02286L27.803125 298.02286ZM32.771873 301.39786L32.771873 292.8041L36.021873 292.8041Q36.865623 292.8041 37.31875 292.88223Q37.959373 292.9916 38.38125 293.28848Q38.81875 293.58536 39.06875 294.1166Q39.334373 294.64786 39.334373 295.28848Q39.334373 296.38223 38.63125 297.14786Q37.94375 297.89786 36.115623 297.89786L33.9125 297.89786L33.9125 301.39786L32.771873 301.39786ZM33.9125 296.89786L36.13125 296.89786Q37.240623 296.89786 37.69375 296.4916Q38.1625 296.06973 38.1625 295.31973Q38.1625 294.78848 37.88125 294.41348Q37.615623 294.02286 37.178123 293.89786Q36.88125 293.81973 36.115623 293.81973L33.9125 293.81973L33.9125 296.89786ZM42.959373 301.39786L42.959373 293.81973L40.13125 293.81973L40.13125 292.8041L46.94375 292.8041L46.94375 293.81973L44.1 293.81973L44.1 301.39786L42.959373 301.39786ZM47.225 298.81973L47.225 297.75723L50.475 297.75723L50.475 298.81973L47.225 298.81973ZM54.725 301.39786L54.725 299.33536L51.00625 299.33536L51.00625 298.3666L54.928123 292.8041L55.7875 292.8041L55.7875 298.3666L56.94375 298.3666L56.94375 299.33536L55.7875 299.33536L55.7875 301.39786L54.725 301.39786ZM54.725 298.3666L54.725 294.50723L52.0375 298.3666L54.725 298.3666Z" fill-rule="nonzero"/><path fill="#9e9e9e" d="M28.896875 317.38223L28.896875 318.39786L23.209375 318.39786Q23.209375 318.02286 23.334375 317.66348Q23.553125 317.08536 24.021875 316.52286Q24.50625 315.96036 25.4125 315.22598Q26.81875 314.06973 27.303125 313.39786Q27.803125 312.72598 27.803125 312.13223Q27.803125 311.50723 27.35 311.08536Q26.896875 310.64786 26.178125 310.64786Q25.4125 310.64786 24.959375 311.10098Q24.50625 311.5541 24.490625 312.3666L23.4125 312.25723Q23.521875 311.03848 24.240625 310.41348Q24.975 309.77286 26.209375 309.77286Q27.44375 309.77286 28.1625 310.46036Q28.88125 311.14786 28.88125 312.16348Q28.88125 312.6791 28.6625 313.1791Q28.459375 313.66348 27.959375 314.22598Q27.475 314.77286 26.35 315.72598Q25.396875 316.52286 25.115625 316.81973Q24.85 317.10098 24.678125 317.38223L28.896875 317.38223ZM34.31875 318.39786L33.271873 318.39786L33.271873 311.6791Q32.88125 312.03848 32.25625 312.41348Q31.646875 312.77286 31.1625 312.94473L31.1625 311.9291Q32.0375 311.50723 32.69375 310.9291Q33.365623 310.33536 33.646873 309.77286L34.31875 309.77286L34.31875 318.39786ZM37.94375 318.39786L37.94375 317.19473L39.146873 317.19473L39.146873 318.39786L37.94375 318.39786ZM40.35 316.13223L41.4125 315.9916Q41.584373 316.88223 42.021873 317.28848Q42.459373 317.6791 43.084373 317.6791Q43.834373 317.6791 44.35 317.16348Q44.865623 316.64786 44.865623 315.88223Q44.865623 315.16348 44.38125 314.69473Q43.9125 314.21036 43.178123 314.21036Q42.88125 314.21036 42.428123 314.33536L42.553123 313.39786Q42.6625 313.41348 42.725 313.41348Q43.396873 313.41348 43.928123 313.06973Q44.475 312.71036 44.475 311.97598Q44.475 311.39786 44.084373 311.02286Q43.69375 310.63223 43.06875 310.63223Q42.459373 310.63223 42.0375 311.02286Q41.63125 311.41348 41.521873 312.1791L40.459373 311.9916Q40.646873 310.94473 41.334373 310.3666Q42.021873 309.77286 43.0375 309.77286Q43.740623 309.77286 44.334373 310.08536Q44.928123 310.38223 45.240623 310.89786Q45.553123 311.41348 45.553123 312.00723Q45.553123 312.5541 45.25625 313.02286Q44.959373 313.47598 44.38125 313.7416Q45.13125 313.91348 45.553123 314.47598Q45.975 315.02286 45.975 315.8666Q45.975 316.9916 45.146873 317.77286Q44.334373 318.5541 43.084373 318.5541Q41.959373 318.5541 41.209373 317.88223Q40.459373 317.19473 40.35 316.13223ZM47.553123 311.8666Q47.553123 310.94473 48.00625 310.3041Q48.475 309.66348 49.35 309.66348Q50.1625 309.66348 50.69375 310.2416Q51.225 310.81973 51.225 311.9291Q51.225 313.02286 50.678123 313.6166Q50.146873 314.19473 49.365623 314.19473Q48.584373 314.19473 48.06875 313.6166Q47.553123 313.03848 47.553123 311.8666ZM49.38125 310.38223Q48.990623 310.38223 48.725 310.72598Q48.475 311.06973 48.475 311.97598Q48.475 312.8041 48.725 313.14786Q48.990623 313.47598 49.38125 313.47598Q49.7875 313.47598 50.0375 313.13223Q50.303123 312.78848 50.303123 311.89786Q50.303123 311.0541 50.0375 310.72598Q49.771873 310.38223 49.38125 310.38223ZM49.38125 318.71036L54.084373 309.66348L54.94375 309.66348L50.25625 318.71036L49.38125 318.71036ZM53.1 316.38223Q53.1 315.46036 53.553123 314.81973Q54.021873 314.1791 54.9125 314.1791Q55.725 314.1791 56.25625 314.75723Q56.7875 315.31973 56.7875 316.44473Q56.7875 317.53848 56.240623 318.13223Q55.709373 318.71036 54.9125 318.71036Q54.146873 318.71036 53.615623 318.13223Q53.1 317.5541 53.1 316.38223ZM54.94375 314.89786Q54.5375 314.89786 54.271873 315.2416Q54.021873 315.58536 54.021873 316.4916Q54.021873 317.3041 54.2875 317.64786Q54.553123 317.9916 54.94375 317.9916Q55.334373 317.9916 55.6 317.64786Q55.865623 317.3041 55.865623 316.39786Q55.865623 315.56973 55.6 315.2416Q55.334373 314.89786 54.94375 314.89786Z" fill-rule="nonzero"/><path stroke="#757575" stroke-width="1.0" stroke-linecap="butt" d="M22.85 305.89786L174.46666 305.89786L199.48079 305.89786" fill-rule="nonzero"/><path fill="#9e9e9e" d="M201.48079 305.89786C201.48079 304.79327 200.58536 303.89786 199.48079 303.89786C198.37622 303.89786 197.48079 304.79327 197.48079 305.89786C197.48079 307.0024 198.37622 307.89786 199.48079 307.89786C200.58536 307.89786 201.48079 307.0024 201.48079 305.89786" fill-rule="nonzero"/><path fill="#1a1a1a" d="M670.2125 98.076744L671.3375 98.37362Q670.97815 99.764244 670.0563 100.49862Q669.1344 101.232994 667.79065 101.232994Q666.4 101.232994 665.525 100.670494Q664.65 100.107994 664.1969 99.045494Q663.7438 97.96737 663.7438 96.732994Q663.7438 95.389244 664.2594 94.389244Q664.775 93.389244 665.7125 92.87362Q666.66565 92.357994 667.8063 92.357994Q669.0875 92.357994 669.9625 93.014244Q670.85315 93.670494 671.1969 94.857994L670.0719 95.12362Q669.775 94.18612 669.1969 93.764244Q668.6344 93.326744 667.775 93.326744Q666.79065 93.326744 666.1188 93.81112Q665.4625 94.27987 665.1813 95.076744Q664.91565 95.87362 664.91565 96.732994Q664.91565 97.826744 665.22815 98.639244Q665.5563 99.451744 666.22815 99.857994Q666.9 100.264244 667.6969 100.264244Q668.65 100.264244 669.3063 99.71737Q669.97815 99.170494 670.2125 98.076744ZM672.91565 101.09237L672.91565 92.49862L673.97815 92.49862L673.97815 101.09237L672.91565 101.09237ZM680.0094 100.326744Q679.41565 100.826744 678.8688 101.02987Q678.3375 101.232994 677.7125 101.232994Q676.6813 101.232994 676.1344 100.732994Q675.5875 100.232994 675.5875 99.451744Q675.5875 98.99862 675.79065 98.62362Q675.9938 98.232994 676.3375 98.014244Q676.6813 97.77987 677.10315 97.670494Q677.4 97.576744 678.04065 97.49862Q679.3063 97.357994 679.91565 97.139244Q679.91565 96.920494 679.91565 96.87362Q679.91565 96.21737 679.6188 95.951744Q679.2125 95.607994 678.41565 95.607994Q677.6813 95.607994 677.3219 95.87362Q676.9625 96.12362 676.79065 96.77987L675.7594 96.639244Q675.9 95.982994 676.22815 95.576744Q676.5563 95.170494 677.16565 94.951744Q677.775 94.732994 678.5719 94.732994Q679.3688 94.732994 679.8688 94.920494Q680.3688 95.107994 680.60315 95.389244Q680.8375 95.670494 680.9313 96.107994Q680.97815 96.37362 680.97815 97.076744L680.97815 98.482994Q680.97815 99.951744 681.04065 100.34237Q681.1188 100.732994 681.3219 101.09237L680.2125 101.09237Q680.0563 100.764244 680.0094 100.326744ZM679.91565 97.96737Q679.3375 98.201744 678.1969 98.37362Q677.54065 98.46737 677.275 98.59237Q677.0094 98.701744 676.85315 98.920494Q676.7125 99.139244 676.7125 99.420494Q676.7125 99.84237 677.025 100.12362Q677.35315 100.40487 677.9625 100.40487Q678.5719 100.40487 679.04065 100.139244Q679.525 99.87362 679.7438 99.40487Q679.91565 99.045494 679.91565 98.357994L679.91565 97.96737ZM687.025 101.09237L687.025 100.170494Q686.29065 101.232994 685.04065 101.232994Q684.4938 101.232994 684.0094 101.02987Q683.54065 100.81112 683.3063 100.49862Q683.0719 100.170494 682.97815 99.701744Q682.91565 99.40487 682.91565 98.71737L682.91565 94.87362L683.97815 94.87362L683.97815 98.326744Q683.97815 99.139244 684.04065 99.43612Q684.1344 99.84237 684.4469 100.09237Q684.775 100.326744 685.2594 100.326744Q685.72815 100.326744 686.1344 100.09237Q686.5563 99.84237 686.72815 99.420494Q686.91565 98.99862 686.91565 98.201744L686.91565 94.87362L687.9625 94.87362L687.9625 101.09237L687.025 101.09237ZM693.97815 101.09237L693.97815 100.31112Q693.3844 101.232994 692.2438 101.232994Q691.4938 101.232994 690.8688 100.826744Q690.2438 100.40487 689.9 99.670494Q689.5563 98.93612 689.5563 97.982994Q689.5563 97.06112 689.8688 96.295494Q690.1813 95.52987 690.8063 95.139244Q691.4313 94.732994 692.1969 94.732994Q692.7594 94.732994 693.1969 94.96737Q693.6344 95.201744 693.91565 95.576744L693.91565 92.49862L694.9625 92.49862L694.9625 101.09237L693.97815 101.09237ZM690.65 97.982994Q690.65 99.18612 691.15 99.77987Q691.65 100.357994 692.3375 100.357994Q693.025 100.357994 693.5094 99.795494Q693.9938 99.232994 693.9938 98.076744Q693.9938 96.795494 693.4938 96.201744Q693.0094 95.607994 692.29065 95.607994Q691.5875 95.607994 691.1188 96.18612Q690.65 96.74862 690.65 97.982994ZM701.1969 99.09237L702.29065 99.21737Q702.04065 100.170494 701.3375 100.701744Q700.6344 101.232994 699.5563 101.232994Q698.1969 101.232994 697.3844 100.389244Q696.5875 99.545494 696.5875 98.02987Q696.5875 96.46737 697.4 95.607994Q698.2125 94.732994 699.4938 94.732994Q700.7438 94.732994 701.525 95.576744Q702.3219 96.420494 702.3219 97.96737Q702.3219 98.06112 702.3219 98.24862L697.6813 98.24862Q697.7438 99.27987 698.2594 99.826744Q698.775 100.357994 699.5563 100.357994Q700.1344 100.357994 700.54065 100.06112Q700.9625 99.74862 701.1969 99.09237ZM697.7438 97.389244L701.2125 97.389244Q701.15 96.59237 700.8219 96.201744Q700.3063 95.59237 699.5094 95.59237Q698.775 95.59237 698.275 96.076744Q697.79065 96.56112 697.7438 97.389244ZM703.65 98.826744L704.7125 98.68612Q704.8844 99.576744 705.3219 99.982994Q705.7594 100.37362 706.3844 100.37362Q707.1344 100.37362 707.65 99.857994Q708.16565 99.34237 708.16565 98.576744Q708.16565 97.857994 707.6813 97.389244Q707.2125 96.90487 706.47815 96.90487Q706.1813 96.90487 705.72815 97.02987L705.85315 96.09237Q705.9625 96.107994 706.025 96.107994Q706.6969 96.107994 707.22815 95.764244Q707.775 95.40487 707.775 94.670494Q707.775 94.09237 707.3844 93.71737Q706.9938 93.326744 706.3688 93.326744Q705.7594 93.326744 705.3375 93.71737Q704.9313 94.107994 704.8219 94.87362L703.7594 94.68612Q703.9469 93.639244 704.6344 93.06112Q705.3219 92.46737 706.3375 92.46737Q707.04065 92.46737 707.6344 92.77987Q708.22815 93.076744 708.54065 93.59237Q708.85315 94.107994 708.85315 94.701744Q708.85315 95.24862 708.5563 95.71737Q708.2594 96.170494 707.6813 96.43612Q708.4313 96.607994 708.85315 97.170494Q709.275 97.71737 709.275 98.56112Q709.275 99.68612 708.4469 100.46737Q707.6344 101.24862 706.3844 101.24862Q705.2594 101.24862 704.5094 100.576744Q703.7594 99.889244 703.65 98.826744Z" fill-rule="nonzero"/><path fill="#9e9e9e" d="M681.1969 117.076744L681.1969 118.09237L675.5094 118.09237Q675.5094 117.71737 675.6344 117.357994Q675.85315 116.77987 676.3219 116.21737Q676.8063 115.65487 677.7125 114.920494Q679.1188 113.764244 679.60315 113.09237Q680.10315 112.420494 680.10315 111.826744Q680.10315 111.201744 679.65 110.77987Q679.1969 110.34237 678.47815 110.34237Q677.7125 110.34237 677.2594 110.795494Q676.8063 111.24862 676.79065 112.06112L675.7125 111.951744Q675.8219 110.732994 676.54065 110.107994Q677.275 109.46737 678.5094 109.46737Q679.7438 109.46737 680.4625 110.15487Q681.1813 110.84237 681.1813 111.857994Q681.1813 112.37362 680.9625 112.87362Q680.7594 113.357994 680.2594 113.920494Q679.775 114.46737 678.65 115.420494Q677.6969 116.21737 677.41565 116.514244Q677.15 116.795494 676.97815 117.076744L681.1969 117.076744ZM682.65 113.857994Q682.65 112.326744 682.9625 111.40487Q683.275 110.46737 683.8844 109.96737Q684.5094 109.46737 685.4469 109.46737Q686.1344 109.46737 686.65 109.74862Q687.1813 110.02987 687.525 110.56112Q687.8688 111.076744 688.0563 111.826744Q688.2438 112.576744 688.2438 113.857994Q688.2438 115.37362 687.9313 116.295494Q687.6344 117.21737 687.0094 117.732994Q686.4 118.232994 685.4469 118.232994Q684.2125 118.232994 683.4938 117.34237Q682.65 116.27987 682.65 113.857994ZM683.72815 113.857994Q683.72815 115.96737 684.22815 116.670494Q684.72815 117.37362 685.4469 117.37362Q686.1813 117.37362 686.66565 116.670494Q687.16565 115.96737 687.16565 113.857994Q687.16565 111.732994 686.66565 111.045494Q686.1813 110.34237 685.4313 110.34237Q684.7125 110.34237 684.275 110.951744Q683.72815 111.732994 683.72815 113.857994ZM690.2438 118.09237L690.2438 116.889244L691.4469 116.889244L691.4469 118.09237L690.2438 118.09237ZM696.6188 118.09237L695.5719 118.09237L695.5719 111.37362Q695.1813 111.732994 694.5563 112.107994Q693.9469 112.46737 693.4625 112.639244L693.4625 111.62362Q694.3375 111.201744 694.9938 110.62362Q695.66565 110.02987 695.9469 109.46737L696.6188 109.46737L696.6188 118.09237ZM699.85315 111.56112Q699.85315 110.639244 700.3063 109.99862Q700.775 109.357994 701.65 109.357994Q702.4625 109.357994 702.9938 109.93612Q703.525 110.514244 703.525 111.62362Q703.525 112.71737 702.97815 113.31112Q702.4469 113.889244 701.66565 113.889244Q700.8844 113.889244 700.3688 113.31112Q699.85315 112.732994 699.85315 111.56112ZM701.6813 110.076744Q701.29065 110.076744 701.025 110.420494Q700.775 110.764244 700.775 111.670494Q700.775 112.49862 701.025 112.84237Q701.29065 113.170494 701.6813 113.170494Q702.0875 113.170494 702.3375 112.826744Q702.60315 112.482994 702.60315 111.59237Q702.60315 110.74862 702.3375 110.420494Q702.0719 110.076744 701.6813 110.076744ZM701.6813 118.40487L706.3844 109.357994L707.2438 109.357994L702.5563 118.40487L701.6813 118.40487ZM705.4 116.076744Q705.4 115.15487 705.85315 114.514244Q706.3219 113.87362 707.2125 113.87362Q708.025 113.87362 708.5563 114.451744Q709.0875 115.014244 709.0875 116.139244Q709.0875 117.232994 708.54065 117.826744Q708.0094 118.40487 707.2125 118.40487Q706.4469 118.40487 705.91565 117.826744Q705.4 117.24862 705.4 116.076744ZM707.2438 114.59237Q706.8375 114.59237 706.5719 114.93612Q706.3219 115.27987 706.3219 116.18612Q706.3219 116.99862 706.5875 117.34237Q706.85315 117.68612 707.2438 117.68612Q707.6344 117.68612 707.9 117.34237Q708.16565 116.99862 708.16565 116.09237Q708.16565 115.264244 707.9 114.93612Q707.6344 114.59237 707.2438 114.59237Z" fill-rule="nonzero"/><path stroke="#757575" stroke-width="1.0" stroke-linecap="butt" d="M710.15 105.59237L558.5333 105.59237L471.00314 105.59237" fill-rule="nonzero"/><path fill="#9e9e9e" d="M473.00314 105.59237C473.00314 104.4878 472.1077 103.59237 471.00314 103.59237C469.89856 103.59237 469.00314 104.4878 469.00314 105.59237C469.00314 106.69694 469.89856 107.59237 471.00314 107.59237C472.1077 107.59237 473.00314 106.69694 473.00314 105.59237" fill-rule="nonzero"/><path fill="#1a1a1a" d="M678.2125 291.53445L679.3375 291.83133Q678.97815 293.22195 678.0563 293.95633Q677.1344 294.6907 675.79065 294.6907Q674.4 294.6907 673.525 294.1282Q672.65 293.5657 672.1969 292.5032Q671.7438 291.42508 671.7438 290.1907Q671.7438 288.84695 672.2594 287.84695Q672.775 286.84695 673.7125 286.33133Q674.66565 285.8157 675.8063 285.8157Q677.0875 285.8157 677.9625 286.47195Q678.85315 287.1282 679.1969 288.3157L678.0719 288.58133Q677.775 287.64383 677.1969 287.22195Q676.6344 286.78445 675.775 286.78445Q674.79065 286.78445 674.1188 287.26883Q673.4625 287.73758 673.1813 288.53445Q672.91565 289.33133 672.91565 290.1907Q672.91565 291.28445 673.22815 292.09695Q673.5563 292.90945 674.22815 293.3157Q674.9 293.72195 675.6969 293.72195Q676.65 293.72195 677.3063 293.17508Q677.97815 292.6282 678.2125 291.53445ZM680.5563 291.4407Q680.5563 289.70633 681.5094 288.8782Q682.3063 288.1907 683.4625 288.1907Q684.7438 288.1907 685.5563 289.03445Q686.3844 289.86258 686.3844 291.34695Q686.3844 292.55008 686.025 293.23758Q685.66565 293.92508 684.9625 294.3157Q684.275 294.6907 683.4625 294.6907Q682.16565 294.6907 681.35315 293.86258Q680.5563 293.01883 680.5563 291.4407ZM681.6344 291.4407Q681.6344 292.6282 682.15 293.22195Q682.6813 293.8157 683.4625 293.8157Q684.2594 293.8157 684.775 293.22195Q685.29065 292.6282 685.29065 291.40945Q685.29065 290.2532 684.7594 289.65945Q684.2438 289.0657 683.4625 289.0657Q682.6813 289.0657 682.15 289.65945Q681.6344 290.23758 681.6344 291.4407ZM687.9469 296.9407L687.9469 288.33133L688.9 288.33133L688.9 289.1282Q689.2438 288.65945 689.66565 288.42508Q690.10315 288.1907 690.7125 288.1907Q691.5094 288.1907 692.1188 288.59695Q692.72815 289.0032 693.025 289.7532Q693.3375 290.5032 693.3375 291.39383Q693.3375 292.34695 692.9938 293.11258Q692.66565 293.8782 692.0094 294.28445Q691.35315 294.6907 690.6344 294.6907Q690.10315 294.6907 689.6813 294.47195Q689.2594 294.23758 688.9938 293.90945L688.9938 296.9407L687.9469 296.9407ZM688.9 291.47195Q688.9 292.67508 689.3844 293.2532Q689.8688 293.8157 690.5563 293.8157Q691.2594 293.8157 691.7594 293.22195Q692.2594 292.6282 692.2594 291.3782Q692.2594 290.1907 691.775 289.61258Q691.29065 289.01883 690.60315 289.01883Q689.9313 289.01883 689.41565 289.64383Q688.9 290.26883 688.9 291.47195ZM694.9469 287.17508L694.9469 285.95633L696.0094 285.95633L696.0094 287.17508L694.9469 287.17508ZM694.9469 294.55008L694.9469 288.33133L696.0094 288.33133L696.0094 294.55008L694.9469 294.55008ZM697.91565 294.55008L697.91565 285.95633L698.97815 285.95633L698.97815 294.55008L697.91565 294.55008ZM700.5563 291.4407Q700.5563 289.70633 701.5094 288.8782Q702.3063 288.1907 703.4625 288.1907Q704.7438 288.1907 705.5563 289.03445Q706.3844 289.86258 706.3844 291.34695Q706.3844 292.55008 706.025 293.23758Q705.66565 293.92508 704.9625 294.3157Q704.275 294.6907 703.4625 294.6907Q702.16565 294.6907 701.35315 293.86258Q700.5563 293.01883 700.5563 291.4407ZM701.6344 291.4407Q701.6344 292.6282 702.15 293.22195Q702.6813 293.8157 703.4625 293.8157Q704.2594 293.8157 704.775 293.22195Q705.29065 292.6282 705.29065 291.40945Q705.29065 290.2532 704.7594 289.65945Q704.2438 289.0657 703.4625 289.0657Q702.6813 289.0657 702.15 289.65945Q701.6344 290.23758 701.6344 291.4407ZM710.2438 293.61258L710.4 294.53445Q709.9469 294.6282 709.60315 294.6282Q709.025 294.6282 708.7125 294.45633Q708.4 294.26883 708.2594 293.97195Q708.1344 293.67508 708.1344 292.72195L708.1344 289.14383L707.3688 289.14383L707.3688 288.33133L708.1344 288.33133L708.1344 286.78445L709.1813 286.15945L709.1813 288.33133L710.2438 288.33133L710.2438 289.14383L709.1813 289.14383L709.1813 292.78445Q709.1813 293.23758 709.22815 293.36258Q709.29065 293.48758 709.41565 293.5657Q709.54065 293.64383 709.775 293.64383Q709.9625 293.64383 710.2438 293.61258Z" fill-rule="nonzero"/><path fill="#9e9e9e" d="M679.6188 311.55008L678.5719 311.55008L678.5719 304.83133Q678.1813 305.1907 677.5563 305.5657Q676.9469 305.92508 676.4625 306.09695L676.4625 305.08133Q677.3375 304.65945 677.9938 304.08133Q678.66565 303.48758 678.9469 302.92508L679.6188 302.92508L679.6188 311.55008ZM682.8063 309.5657L683.8219 309.47195Q683.9469 310.1907 684.3063 310.51883Q684.6813 310.83133 685.2438 310.83133Q685.72815 310.83133 686.0875 310.61258Q686.4625 310.3782 686.6969 310.01883Q686.9313 309.64383 687.0875 309.01883Q687.2438 308.3782 687.2438 307.72195Q687.2438 307.64383 687.2438 307.5032Q686.9313 308.0032 686.3844 308.33133Q685.8375 308.64383 685.1969 308.64383Q684.1188 308.64383 683.3844 307.8782Q682.65 307.09695 682.65 305.83133Q682.65 304.51883 683.41565 303.72195Q684.1969 302.92508 685.35315 302.92508Q686.1813 302.92508 686.8688 303.3782Q687.5719 303.83133 687.9313 304.67508Q688.29065 305.5032 688.29065 307.08133Q688.29065 308.72195 687.9313 309.70633Q687.5875 310.67508 686.8688 311.1907Q686.16565 311.6907 685.22815 311.6907Q684.2125 311.6907 683.5719 311.14383Q682.9313 310.58133 682.8063 309.5657ZM687.1188 305.76883Q687.1188 304.86258 686.6344 304.33133Q686.16565 303.80008 685.47815 303.80008Q684.775 303.80008 684.2438 304.3782Q683.72815 304.9407 683.72815 305.86258Q683.72815 306.67508 684.22815 307.1907Q684.72815 307.70633 685.4469 307.70633Q686.1813 307.70633 686.65 307.1907Q687.1188 306.67508 687.1188 305.76883ZM690.2438 311.55008L690.2438 310.34695L691.4469 310.34695L691.4469 311.55008L690.2438 311.55008ZM692.65 307.3157Q692.65 305.78445 692.9625 304.86258Q693.275 303.92508 693.8844 303.42508Q694.5094 302.92508 695.4469 302.92508Q696.1344 302.92508 696.65 303.20633Q697.1813 303.48758 697.525 304.01883Q697.8688 304.53445 698.0563 305.28445Q698.2438 306.03445 698.2438 307.3157Q698.2438 308.83133 697.9313 309.7532Q697.6344 310.67508 697.0094 311.1907Q696.4 311.6907 695.4469 311.6907Q694.2125 311.6907 693.4938 310.80008Q692.65 309.73758 692.65 307.3157ZM693.72815 307.3157Q693.72815 309.42508 694.22815 310.1282Q694.72815 310.83133 695.4469 310.83133Q696.1813 310.83133 696.66565 310.1282Q697.16565 309.42508 697.16565 307.3157Q697.16565 305.1907 696.66565 304.5032Q696.1813 303.80008 695.4313 303.80008Q694.7125 303.80008 694.275 304.40945Q693.72815 305.1907 693.72815 307.3157ZM699.85315 305.01883Q699.85315 304.09695 700.3063 303.45633Q700.775 302.8157 701.65 302.8157Q702.4625 302.8157 702.9938 303.39383Q703.525 303.97195 703.525 305.08133Q703.525 306.17508 702.97815 306.76883Q702.4469 307.34695 701.66565 307.34695Q700.8844 307.34695 700.3688 306.76883Q699.85315 306.1907 699.85315 305.01883ZM701.6813 303.53445Q701.29065 303.53445 701.025 303.8782Q700.775 304.22195 700.775 305.1282Q700.775 305.95633 701.025 306.30008Q701.29065 306.6282 701.6813 306.6282Q702.0875 306.6282 702.3375 306.28445Q702.60315 305.9407 702.60315 305.05008Q702.60315 304.20633 702.3375 303.8782Q702.0719 303.53445 701.6813 303.53445ZM701.6813 311.86258L706.3844 302.8157L707.2438 302.8157L702.5563 311.86258L701.6813 311.86258ZM705.4 309.53445Q705.4 308.61258 705.85315 307.97195Q706.3219 307.33133 707.2125 307.33133Q708.025 307.33133 708.5563 307.90945Q709.0875 308.47195 709.0875 309.59695Q709.0875 310.6907 708.54065 311.28445Q708.0094 311.86258 707.2125 311.86258Q706.4469 311.86258 705.91565 311.28445Q705.4 310.70633 705.4 309.53445ZM707.2438 308.05008Q706.8375 308.05008 706.5719 308.39383Q706.3219 308.73758 706.3219 309.64383Q706.3219 310.45633 706.5875 310.80008Q706.85315 311.14383 707.2438 311.14383Q707.6344 311.14383 707.9 310.80008Q708.16565 310.45633 708.16565 309.55008Q708.16565 308.72195 707.9 308.39383Q707.6344 308.05008 707.2438 308.05008Z" fill-rule="nonzero"/><path stroke="#757575" stroke-width="1.0" stroke-linecap="butt" d="M710.15 299.05008L558.5333 299.05008L535.73315 299.05008" fill-rule="nonzero"/><path fill="#9e9e9e" d="M537.73315 299.05008C537.73315 297.9455 536.83777 297.05008 535.73315 297.05008C534.6286 297.05008 533.73315 297.9455 533.73315 299.05008C533.73315 300.15463 534.6286 301.05008 535.73315 301.05008C536.83777 301.05008 537.73315 300.15463 537.73315 299.05008" fill-rule="nonzero"/><path fill="#1a1a1a" d="M675.10315 410.775L675.10315 409.775L678.72815 409.75937L678.72815 412.94687Q677.9 413.61874 677.0094 413.9625Q676.1188 414.29062 675.1813 414.29062Q673.91565 414.29062 672.8688 413.75937Q671.8375 413.2125 671.3063 412.19687Q670.79065 411.16562 670.79065 409.9Q670.79065 408.63437 671.3063 407.55624Q671.8375 406.4625 672.8219 405.94687Q673.8063 405.41562 675.0875 405.41562Q676.025 405.41562 676.775 405.7125Q677.525 406.00937 677.9469 406.55624Q678.3844 407.0875 678.60315 407.9625L677.5875 408.24374Q677.3844 407.5875 677.0875 407.2125Q676.8063 406.8375 676.275 406.61874Q675.7438 406.38437 675.10315 406.38437Q674.3219 406.38437 673.7438 406.61874Q673.1813 406.85312 672.8219 407.24374Q672.47815 407.63437 672.29065 408.10312Q671.9625 408.9 671.9625 409.82187Q671.9625 410.97812 672.35315 411.75937Q672.7594 412.525 673.5094 412.9Q674.2594 413.275 675.1188 413.275Q675.85315 413.275 676.5563 412.99374Q677.2594 412.69687 677.6188 412.38437L677.6188 410.775L675.10315 410.775ZM684.1969 412.15L685.29065 412.275Q685.04065 413.22812 684.3375 413.75937Q683.6344 414.29062 682.5563 414.29062Q681.1969 414.29062 680.3844 413.44687Q679.5875 412.60312 679.5875 411.0875Q679.5875 409.525 680.4 408.66562Q681.2125 407.79062 682.4938 407.79062Q683.7438 407.79062 684.525 408.63437Q685.3219 409.47812 685.3219 411.025Q685.3219 411.11874 685.3219 411.30624L680.6813 411.30624Q680.7438 412.3375 681.2594 412.88437Q681.775 413.41562 682.5563 413.41562Q683.1344 413.41562 683.54065 413.11874Q683.9625 412.80624 684.1969 412.15ZM680.7438 410.44687L684.2125 410.44687Q684.15 409.65 683.8219 409.25937Q683.3063 408.65 682.5094 408.65Q681.775 408.65 681.275 409.13437Q680.79065 409.61874 680.7438 410.44687ZM686.9469 414.15L686.9469 407.93124L687.8844 407.93124L687.8844 408.80624Q688.1813 408.3375 688.66565 408.07187Q689.15 407.79062 689.775 407.79062Q690.4625 407.79062 690.9 408.07187Q691.35315 408.35312 691.525 408.86874Q692.275 407.79062 693.4469 407.79062Q694.3844 407.79062 694.8688 408.30624Q695.3688 408.80624 695.3688 409.88437L695.3688 414.15L694.3219 414.15L694.3219 410.22812Q694.3219 409.60312 694.2125 409.32187Q694.1188 409.04062 693.85315 408.86874Q693.5875 408.69687 693.2125 408.69687Q692.5563 408.69687 692.1188 409.13437Q691.6969 409.57187 691.6969 410.54062L691.6969 414.15L690.6344 414.15L690.6344 410.10312Q690.6344 409.4 690.3688 409.05624Q690.1188 408.69687 689.54065 408.69687Q689.0875 408.69687 688.7125 408.93124Q688.3375 409.16562 688.16565 409.61874Q687.9938 410.07187 687.9938 410.91562L687.9938 414.15L686.9469 414.15ZM697.9469 406.775L697.9469 405.55624L699.0094 405.55624L699.0094 406.775L697.9469 406.775ZM697.9469 414.15L697.9469 407.93124L699.0094 407.93124L699.0094 414.15L697.9469 414.15ZM700.9469 414.15L700.9469 407.93124L701.8844 407.93124L701.8844 408.80624Q702.5719 407.79062 703.8688 407.79062Q704.4313 407.79062 704.9 407.99374Q705.3844 408.19687 705.6188 408.525Q705.85315 408.85312 705.9469 409.29062Q705.9938 409.5875 705.9938 410.32187L705.9938 414.15L704.9469 414.15L704.9469 410.36874Q704.9469 409.7125 704.8219 409.4Q704.6969 409.0875 704.3844 408.9Q704.0719 408.69687 703.65 408.69687Q702.97815 408.69687 702.47815 409.13437Q701.9938 409.55624 701.9938 410.74374L701.9938 414.15L700.9469 414.15ZM707.9469 406.775L707.9469 405.55624L709.0094 405.55624L709.0094 406.775L707.9469 406.775ZM707.9469 414.15L707.9469 407.93124L709.0094 407.93124L709.0094 414.15L707.9469 414.15Z" fill-rule="nonzero"/><path fill="#9e9e9e" d="M679.6188 431.15L678.5719 431.15L678.5719 424.43124Q678.1813 424.79062 677.5563 425.16562Q676.9469 425.525 676.4625 425.69687L676.4625 424.68124Q677.3375 424.25937 677.9938 423.68124Q678.66565 423.0875 678.9469 422.525L679.6188 422.525L679.6188 431.15ZM682.8063 429.16562L683.8219 429.07187Q683.9469 429.79062 684.3063 430.11874Q684.6813 430.43124 685.2438 430.43124Q685.72815 430.43124 686.0875 430.2125Q686.4625 429.97812 686.6969 429.61874Q686.9313 429.24374 687.0875 428.61874Q687.2438 427.97812 687.2438 427.32187Q687.2438 427.24374 687.2438 427.10312Q686.9313 427.60312 686.3844 427.93124Q685.8375 428.24374 685.1969 428.24374Q684.1188 428.24374 683.3844 427.47812Q682.65 426.69687 682.65 425.43124Q682.65 424.11874 683.41565 423.32187Q684.1969 422.525 685.35315 422.525Q686.1813 422.525 686.8688 422.97812Q687.5719 423.43124 687.9313 424.275Q688.29065 425.10312 688.29065 426.68124Q688.29065 428.32187 687.9313 429.30624Q687.5875 430.275 686.8688 430.79062Q686.16565 431.29062 685.22815 431.29062Q684.2125 431.29062 683.5719 430.74374Q682.9313 430.18124 682.8063 429.16562ZM687.1188 425.36874Q687.1188 424.4625 686.6344 423.93124Q686.16565 423.4 685.47815 423.4Q684.775 423.4 684.2438 423.97812Q683.72815 424.54062 683.72815 425.4625Q683.72815 426.275 684.22815 426.79062Q684.72815 427.30624 685.4469 427.30624Q686.1813 427.30624 686.65 426.79062Q687.1188 426.275 687.1188 425.36874ZM690.2438 431.15L690.2438 429.94687L691.4469 429.94687L691.4469 431.15L690.2438 431.15ZM692.8063 429.16562L693.8219 429.07187Q693.9469 429.79062 694.3063 430.11874Q694.6813 430.43124 695.2438 430.43124Q695.72815 430.43124 696.0875 430.2125Q696.4625 429.97812 696.6969 429.61874Q696.9313 429.24374 697.0875 428.61874Q697.2438 427.97812 697.2438 427.32187Q697.2438 427.24374 697.2438 427.10312Q696.9313 427.60312 696.3844 427.93124Q695.8375 428.24374 695.1969 428.24374Q694.1188 428.24374 693.3844 427.47812Q692.65 426.69687 692.65 425.43124Q692.65 424.11874 693.41565 423.32187Q694.1969 422.525 695.35315 422.525Q696.1813 422.525 696.8688 422.97812Q697.5719 423.43124 697.9313 424.275Q698.29065 425.10312 698.29065 426.68124Q698.29065 428.32187 697.9313 429.30624Q697.5875 430.275 696.8688 430.79062Q696.16565 431.29062 695.22815 431.29062Q694.2125 431.29062 693.5719 430.74374Q692.9313 430.18124 692.8063 429.16562ZM697.1188 425.36874Q697.1188 424.4625 696.6344 423.93124Q696.16565 423.4 695.47815 423.4Q694.775 423.4 694.2438 423.97812Q693.72815 424.54062 693.72815 425.4625Q693.72815 426.275 694.22815 426.79062Q694.72815 427.30624 695.4469 427.30624Q696.1813 427.30624 696.65 426.79062Q697.1188 426.275 697.1188 425.36874ZM699.85315 424.61874Q699.85315 423.69687 700.3063 423.05624Q700.775 422.41562 701.65 422.41562Q702.4625 422.41562 702.9938 422.99374Q703.525 423.57187 703.525 424.68124Q703.525 425.775 702.97815 426.36874Q702.4469 426.94687 701.66565 426.94687Q700.8844 426.94687 700.3688 426.36874Q699.85315 425.79062 699.85315 424.61874ZM701.6813 423.13437Q701.29065 423.13437 701.025 423.47812Q700.775 423.82187 700.775 424.72812Q700.775 425.55624 701.025 425.9Q701.29065 426.22812 701.6813 426.22812Q702.0875 426.22812 702.3375 425.88437Q702.60315 425.54062 702.60315 424.65Q702.60315 423.80624 702.3375 423.47812Q702.0719 423.13437 701.6813 423.13437ZM701.6813 431.4625L706.3844 422.41562L707.2438 422.41562L702.5563 431.4625L701.6813 431.4625ZM705.4 429.13437Q705.4 428.2125 705.85315 427.57187Q706.3219 426.93124 707.2125 426.93124Q708.025 426.93124 708.5563 427.50937Q709.0875 428.07187 709.0875 429.19687Q709.0875 430.29062 708.54065 430.88437Q708.0094 431.4625 707.2125 431.4625Q706.4469 431.4625 705.91565 430.88437Q705.4 430.30624 705.4 429.13437ZM707.2438 427.65Q706.8375 427.65 706.5719 427.99374Q706.3219 428.3375 706.3219 429.24374Q706.3219 430.05624 706.5875 430.4Q706.85315 430.74374 707.2438 430.74374Q707.6344 430.74374 707.9 430.4Q708.16565 430.05624 708.16565 429.15Q708.16565 428.32187 707.9 427.99374Q707.6344 427.65 707.2438 427.65Z" fill-rule="nonzero"/><path stroke="#757575" stroke-width="1.0" stroke-linecap="butt" d="M710.15 418.65L558.5333 418.65L376.5194 424.5641" fill-rule="nonzero"/><path fill="#9e9e9e" d="M378.5194 424.5641C378.5194 423.45953 377.624 422.5641 376.5194 422.5641C375.41486 422.5641 374.5194 423.45953 374.5194 424.5641C374.5194 425.66867 375.41486 426.5641 376.5194 426.5641C377.624 426.5641 378.5194 425.66867 378.5194 424.5641" fill-rule="nonzero"/><path fill="#757575" d="M22.81875 41.85L28.31875 27.537498L30.365625 27.537498L36.225 41.85L34.06875 41.85L32.396873 37.50625L26.4125 37.50625L24.834375 41.85L22.81875 41.85ZM26.959375 35.975L31.803125 35.975L30.31875 32.00625Q29.63125 30.193748 29.303125 29.037498Q29.021875 30.412498 28.521875 31.771873L26.959375 35.975ZM40.053123 41.85L36.1 31.474998L37.959373 31.474998L40.19375 37.69375Q40.553123 38.69375 40.85 39.771873Q41.084373 38.959373 41.50625 37.803123L43.803123 31.474998L45.615623 31.474998L41.69375 41.85L40.053123 41.85ZM53.271873 38.50625L55.084373 38.740623Q54.6625 40.31875 53.490623 41.209373Q52.334373 42.084373 50.521873 42.084373Q48.25625 42.084373 46.9125 40.69375Q45.584373 39.2875 45.584373 36.75625Q45.584373 34.13125 46.928123 32.69375Q48.271873 31.240623 50.428123 31.240623Q52.50625 31.240623 53.81875 32.6625Q55.146873 34.06875 55.146873 36.646873Q55.146873 36.803123 55.13125 37.115623L47.396873 37.115623Q47.490623 38.81875 48.365623 39.725Q49.240623 40.63125 50.5375 40.63125Q51.50625 40.63125 52.178123 40.13125Q52.865623 39.615623 53.271873 38.50625ZM47.490623 35.6625L53.2875 35.6625Q53.178123 34.365623 52.63125 33.709373Q51.7875 32.69375 50.44375 32.69375Q49.240623 32.69375 48.4125 33.50625Q47.584373 34.303123 47.490623 35.6625ZM57.146873 41.85L57.146873 31.474998L58.725 31.474998L58.725 33.053123Q59.334373 31.943748 59.85 31.599998Q60.365623 31.240623 60.975 31.240623Q61.865623 31.240623 62.7875 31.803123L62.178123 33.44375Q61.5375 33.053123 60.896873 33.053123Q60.31875 33.053123 59.85 33.4125Q59.396873 33.75625 59.19375 34.365623Q58.9125 35.303123 58.9125 36.4125L58.9125 41.85L57.146873 41.85ZM70.94375 40.56875Q69.95937 41.396873 69.05312 41.740623Q68.14687 42.084373 67.11562 42.084373Q65.4125 42.084373 64.49062 41.25625Q63.56875 40.4125 63.56875 39.115623Q63.56875 38.35 63.9125 37.725Q64.27187 37.1 64.83437 36.725Q65.39687 36.334373 66.1 36.13125Q66.61562 36.00625 67.6625 35.865623Q69.7875 35.615623 70.7875 35.271873Q70.80312 34.9125 70.80312 34.803123Q70.80312 33.740623 70.30312 33.2875Q69.63125 32.69375 68.30312 32.69375Q67.05312 32.69375 66.45937 33.13125Q65.88125 33.56875 65.6 34.678123L63.88125 34.44375Q64.11562 33.334373 64.64687 32.6625Q65.17812 31.974998 66.19375 31.615623Q67.20937 31.240623 68.55312 31.240623Q69.88125 31.240623 70.70937 31.553123Q71.5375 31.865623 71.92812 32.35Q72.31875 32.81875 72.475 33.5375Q72.56875 33.990623 72.56875 35.1625L72.56875 37.50625Q72.56875 39.959373 72.67812 40.615623Q72.7875 41.25625 73.13125 41.85L71.2875 41.85Q71.02187 41.303123 70.94375 40.56875ZM70.7875 36.646873Q69.83437 37.0375 67.9125 37.303123Q66.83437 37.459373 66.38125 37.6625Q65.94375 37.85 65.69375 38.225Q65.44375 38.6 65.44375 39.06875Q65.44375 39.771873 65.975 40.240623Q66.50625 40.709373 67.5375 40.709373Q68.55312 40.709373 69.33437 40.271873Q70.13125 39.81875 70.50625 39.053123Q70.7875 38.44375 70.7875 37.2875L70.7875 36.646873ZM74.85 42.709373L76.55312 42.959373Q76.6625 43.75625 77.14687 44.115623Q77.80312 44.6 78.94375 44.6Q80.1625 44.6 80.81875 44.115623Q81.49062 43.63125 81.725 42.75625Q81.86562 42.209373 81.85 40.490623Q80.69375 41.85 78.975 41.85Q76.83437 41.85 75.6625 40.303123Q74.49062 38.75625 74.49062 36.6Q74.49062 35.115623 75.02187 33.865623Q75.56875 32.615623 76.58437 31.928123Q77.61562 31.240623 78.99062 31.240623Q80.81875 31.240623 82.02187 32.725L82.02187 31.474998L83.63125 31.474998L83.63125 40.44375Q83.63125 42.865623 83.13125 43.865623Q82.64687 44.88125 81.56875 45.459373Q80.50625 46.053123 78.94375 46.053123Q77.1 46.053123 75.94375 45.225Q74.80312 44.396873 74.85 42.709373ZM76.30312 36.475Q76.30312 38.521873 77.11562 39.459373Q77.92812 40.396873 79.14687 40.396873Q80.35 40.396873 81.1625 39.459373Q81.99062 38.521873 81.99062 36.5375Q81.99062 34.63125 81.14687 33.6625Q80.30312 32.69375 79.11562 32.69375Q77.94375 32.69375 77.11562 33.646873Q76.30312 34.6 76.30312 36.475ZM93.27187 38.50625L95.08437 38.740623Q94.6625 40.31875 93.49062 41.209373Q92.33437 42.084373 90.52187 42.084373Q88.25625 42.084373 86.9125 40.69375Q85.58437 39.2875 85.58437 36.75625Q85.58437 34.13125 86.92812 32.69375Q88.27187 31.240623 90.42812 31.240623Q92.50625 31.240623 93.81875 32.6625Q95.14687 34.06875 95.14687 36.646873Q95.14687 36.803123 95.13125 37.115623L87.39687 37.115623Q87.49062 38.81875 88.36562 39.725Q89.24062 40.63125 90.5375 40.63125Q91.50625 40.63125 92.17812 40.13125Q92.86562 39.615623 93.27187 38.50625ZM87.49062 35.6625L93.2875 35.6625Q93.17812 34.365623 92.63125 33.709373Q91.7875 32.69375 90.44375 32.69375Q89.24062 32.69375 88.4125 33.50625Q87.58437 34.303123 87.49062 35.6625ZM103.17812 41.85L103.17812 27.537498L104.94375 27.537498L104.94375 35.69375L109.1 31.474998L111.36562 31.474998L107.4125 35.31875L111.77187 41.85L109.6 41.85L106.17812 36.553123L104.94375 37.740623L104.94375 41.85L103.17812 41.85ZM120.27187 38.50625L122.08437 38.740623Q121.6625 40.31875 120.49062 41.209373Q119.33437 42.084373 117.52187 42.084373Q115.25625 42.084373 113.9125 40.69375Q112.58437 39.2875 112.58437 36.75625Q112.58437 34.13125 113.92812 32.69375Q115.27187 31.240623 117.42812 31.240623Q119.50625 31.240623 120.81875 32.6625Q122.14687 34.06875 122.14687 36.646873Q122.14687 36.803123 122.13125 37.115623L114.39687 37.115623Q114.49062 38.81875 115.36562 39.725Q116.24062 40.63125 117.5375 40.63125Q118.50625 40.63125 119.17812 40.13125Q119.86562 39.615623 120.27187 38.50625ZM114.49062 35.6625L120.2875 35.6625Q120.17812 34.365623 119.63125 33.709373Q118.7875 32.69375 117.44375 32.69375Q116.24062 32.69375 115.4125 33.50625Q114.58437 34.303123 114.49062 35.6625ZM124.08437 45.85L123.89687 44.19375Q124.475 44.35 124.89687 44.35Q125.49062 44.35 125.83437 44.146873Q126.19375 43.959373 126.4125 43.615623Q126.58437 43.35 126.95937 42.303123Q127.00625 42.146873 127.11562 41.865623L123.17812 31.474998L125.06875 31.474998L127.225 37.490623Q127.64687 38.63125 127.975 39.88125Q128.2875 38.678123 128.69376 37.521873L130.9125 31.474998L132.67813 31.474998L128.725 42.021873Q128.1 43.740623 127.74062 44.38125Q127.27187 45.25625 126.6625 45.646873Q126.06875 46.053123 125.225 46.053123Q124.70937 46.053123 124.08437 45.85ZM136.08438 41.85L132.9125 31.474998L134.725 31.474998L136.38126 37.459373L136.99063 39.69375Q137.0375 39.521873 137.52188 37.553123L139.17813 31.474998L140.99063 31.474998L142.5375 37.490623L143.05313 39.475L143.64688 37.475L145.42813 31.474998L147.13126 31.474998L143.89688 41.85L142.06876 41.85L140.4125 35.63125L140.02188 33.865623L137.9125 41.85L136.08438 41.85ZM148.52188 36.6625Q148.52188 33.7875 150.11563 32.396873Q151.45938 31.240623 153.38126 31.240623Q155.52188 31.240623 156.86563 32.646873Q158.225 34.053123 158.225 36.521873Q158.225 38.521873 157.63126 39.678123Q157.0375 40.81875 155.88126 41.459373Q154.74063 42.084373 153.38126 42.084373Q151.19376 42.084373 149.85 40.69375Q148.52188 39.2875 148.52188 36.6625ZM150.31876 36.6625Q150.31876 38.6625 151.17813 39.646873Q152.05313 40.63125 153.38126 40.63125Q154.69376 40.63125 155.55313 39.646873Q156.42813 38.646873 156.42813 36.6Q156.42813 34.678123 155.55313 33.69375Q154.67813 32.69375 153.38126 32.69375Q152.05313 32.69375 151.17813 33.69375Q150.31876 34.678123 150.31876 36.6625ZM160.14688 41.85L160.14688 31.474998L161.725 31.474998L161.725 33.053123Q162.33438 31.943748 162.85 31.599998Q163.36563 31.240623 163.975 31.240623Q164.86563 31.240623 165.7875 31.803123L165.17813 33.44375Q164.5375 33.053123 163.89688 33.053123Q163.31876 33.053123 162.85 33.4125Q162.39688 33.75625 162.19376 34.365623Q161.9125 35.303123 161.9125 36.4125L161.9125 41.85L160.14688 41.85ZM173.89688 41.85L173.89688 40.5375Q172.9125 42.084373 170.99063 42.084373Q169.75626 42.084373 168.70938 41.396873Q167.67813 40.709373 167.1 39.490623Q166.5375 38.271873 166.5375 36.678123Q166.5375 35.115623 167.05313 33.85Q167.56876 32.584373 168.6 31.912498Q169.64688 31.240623 170.9125 31.240623Q171.85 31.240623 172.58438 31.646873Q173.31876 32.0375 173.7875 32.6625L173.7875 27.537498L175.52188 27.537498L175.52188 41.85L173.89688 41.85ZM168.33438 36.678123Q168.33438 38.6625 169.17813 39.646873Q170.02188 40.63125 171.1625 40.63125Q172.31876 40.63125 173.11563 39.69375Q173.92813 38.75625 173.92813 36.81875Q173.92813 34.69375 173.1 33.69375Q172.2875 32.69375 171.08438 32.69375Q169.9125 32.69375 169.11563 33.6625Q168.33438 34.615623 168.33438 36.678123ZM177.45938 38.75625L179.20938 38.475Q179.35 39.521873 180.02188 40.084373Q180.69376 40.63125 181.89688 40.63125Q183.1 40.63125 183.67813 40.146873Q184.27188 39.646873 184.27188 38.990623Q184.27188 38.396873 183.75626 38.053123Q183.39688 37.81875 181.95938 37.459373Q180.02188 36.959373 179.27188 36.615623Q178.5375 36.25625 178.14688 35.63125Q177.75626 34.990623 177.75626 34.225Q177.75626 33.5375 178.06876 32.94375Q178.39688 32.35 178.94376 31.959373Q179.35 31.662498 180.05313 31.459373Q180.77188 31.240623 181.58438 31.240623Q182.80313 31.240623 183.725 31.599998Q184.64688 31.943748 185.08438 32.553123Q185.52188 33.146873 185.69376 34.146873L183.975 34.38125Q183.85 33.584373 183.2875 33.146873Q182.725 32.69375 181.70938 32.69375Q180.49063 32.69375 179.975 33.1Q179.45938 33.490623 179.45938 34.021873Q179.45938 34.365623 179.67813 34.646873Q179.88126 34.928123 180.35 35.115623Q180.61563 35.209373 181.89688 35.553123Q183.77188 36.053123 184.50626 36.38125Q185.24063 36.69375 185.6625 37.303123Q186.08438 37.896873 186.08438 38.803123Q186.08438 39.678123 185.56876 40.459373Q185.05313 41.240623 184.08438 41.6625Q183.11563 42.084373 181.89688 42.084373Q179.88126 42.084373 178.81876 41.240623Q177.75626 40.396873 177.45938 38.75625ZM186.85 42.1L191.00626 27.287498L192.4125 27.287498L188.27188 42.1L186.85 42.1ZM193.45938 38.75625L195.20938 38.475Q195.35 39.521873 196.02188 40.084373Q196.69376 40.63125 197.89688 40.63125Q199.1 40.63125 199.67813 40.146873Q200.27188 39.646873 200.27188 38.990623Q200.27188 38.396873 199.75626 38.053123Q199.39688 37.81875 197.95938 37.459373Q196.02188 36.959373 195.27188 36.615623Q194.5375 36.25625 194.14688 35.63125Q193.75626 34.990623 193.75626 34.225Q193.75626 33.5375 194.06876 32.94375Q194.39688 32.35 194.94376 31.959373Q195.35 31.662498 196.05313 31.459373Q196.77188 31.240623 197.58438 31.240623Q198.80313 31.240623 199.725 31.599998Q200.64688 31.943748 201.08438 32.553123Q201.52188 33.146873 201.69376 34.146873L199.975 34.38125Q199.85 33.584373 199.2875 33.146873Q198.725 32.69375 197.70938 32.69375Q196.49063 32.69375 195.975 33.1Q195.45938 33.490623 195.45938 34.021873Q195.45938 34.365623 195.67813 34.646873Q195.88126 34.928123 196.35 35.115623Q196.61563 35.209373 197.89688 35.553123Q199.77188 36.053123 200.50626 36.38125Q201.24063 36.69375 201.6625 37.303123Q202.08438 37.896873 202.08438 38.803123Q202.08438 39.678123 201.56876 40.459373Q201.05313 41.240623 200.08438 41.6625Q199.11563 42.084373 197.89688 42.084373Q195.88126 42.084373 194.81876 41.240623Q193.75626 40.396873 193.45938 38.75625ZM210.95938 41.85L210.95938 40.31875Q209.75626 42.084373 207.67813 42.084373Q206.75626 42.084373 205.95938 41.740623Q205.1625 41.38125 204.77188 40.85Q204.39688 40.31875 204.24063 39.5375Q204.13126 39.021873 204.13126 37.896873L204.13126 31.474998L205.88126 31.474998L205.88126 37.225Q205.88126 38.6 205.99063 39.084373Q206.1625 39.771873 206.69376 40.178123Q207.24063 40.56875 208.02188 40.56875Q208.81876 40.56875 209.50626 40.1625Q210.20938 39.75625 210.49063 39.06875Q210.7875 38.365623 210.7875 37.0375L210.7875 31.474998L212.5375 31.474998L212.5375 41.85L210.95938 41.85ZM214.1625 41.85L214.1625 31.474998L215.74063 31.474998L215.74063 32.928123Q216.225 32.178123 217.0375 31.709373Q217.85 31.240623 218.88126 31.240623Q220.0375 31.240623 220.77188 31.724998Q221.50626 32.19375 221.81876 33.053123Q223.05313 31.240623 225.02188 31.240623Q226.56876 31.240623 227.39688 32.1Q228.225 32.959373 228.225 34.725L228.225 41.85L226.475 41.85L226.475 35.31875Q226.475 34.25625 226.30313 33.803123Q226.13126 33.334373 225.67813 33.053123Q225.24063 32.771873 224.63126 32.771873Q223.5375 32.771873 222.80313 33.50625Q222.08438 34.225 222.08438 35.81875L222.08438 41.85L220.33438 41.85L220.33438 35.115623Q220.33438 33.94375 219.89688 33.365623Q219.475 32.771873 218.49063 32.771873Q217.75626 32.771873 217.11563 33.1625Q216.49063 33.553123 216.20938 34.303123Q215.92813 35.053123 215.92813 36.475L215.92813 41.85L214.1625 41.85ZM230.1625 41.85L230.1625 31.474998L231.74063 31.474998L231.74063 32.928123Q232.225 32.178123 233.0375 31.709373Q233.85 31.240623 234.88126 31.240623Q236.0375 31.240623 236.77188 31.724998Q237.50626 32.19375 237.81876 33.053123Q239.05313 31.240623 241.02188 31.240623Q242.56876 31.240623 243.39688 32.1Q244.225 32.959373 244.225 34.725L244.225 41.85L242.475 41.85L242.475 35.31875Q242.475 34.25625 242.30313 33.803123Q242.13126 33.334373 241.67813 33.053123Q241.24063 32.771873 240.63126 32.771873Q239.5375 32.771873 238.80313 33.50625Q238.08438 34.225 238.08438 35.81875L238.08438 41.85L236.33438 41.85L236.33438 35.115623Q236.33438 33.94375 235.89688 33.365623Q235.475 32.771873 234.49063 32.771873Q233.75626 32.771873 233.11563 33.1625Q232.49063 33.553123 232.20938 34.303123Q231.92813 35.053123 231.92813 36.475L231.92813 41.85L230.1625 41.85ZM252.94376 40.56875Q251.95938 41.396873 251.05313 41.740623Q250.14688 42.084373 249.11563 42.084373Q247.4125 42.084373 246.49063 41.25625Q245.56876 40.4125 245.56876 39.115623Q245.56876 38.35 245.9125 37.725Q246.27188 37.1 246.83438 36.725Q247.39688 36.334373 248.1 36.13125Q248.61563 36.00625 249.6625 35.865623Q251.7875 35.615623 252.7875 35.271873Q252.80313 34.9125 252.80313 34.803123Q252.80313 33.740623 252.30313 33.2875Q251.63126 32.69375 250.30313 32.69375Q249.05313 32.69375 248.45938 33.13125Q247.88126 33.56875 247.6 34.678123L245.88126 34.44375Q246.11563 33.334373 246.64688 32.6625Q247.17813 31.974998 248.19376 31.615623Q249.20938 31.240623 250.55313 31.240623Q251.88126 31.240623 252.70938 31.553123Q253.5375 31.865623 253.92813 32.35Q254.31876 32.81875 254.475 33.5375Q254.56876 33.990623 254.56876 35.1625L254.56876 37.50625Q254.56876 39.959373 254.67813 40.615623Q254.7875 41.25625 255.13126 41.85L253.2875 41.85Q253.02188 41.303123 252.94376 40.56875ZM252.7875 36.646873Q251.83438 37.0375 249.9125 37.303123Q248.83438 37.459373 248.38126 37.6625Q247.94376 37.85 247.69376 38.225Q247.44376 38.6 247.44376 39.06875Q247.44376 39.771873 247.975 40.240623Q248.50626 40.709373 249.5375 40.709373Q250.55313 40.709373 251.33438 40.271873Q252.13126 39.81875 252.50626 39.053123Q252.7875 38.44375 252.7875 37.2875L252.7875 36.646873ZM257.14688 41.85L257.14688 31.474998L258.725 31.474998L258.725 33.053123Q259.33438 31.943748 259.85 31.599998Q260.36563 31.240623 260.975 31.240623Q261.86563 31.240623 262.7875 31.803123L262.17813 33.44375Q261.5375 33.053123 260.89688 33.053123Q260.31876 33.053123 259.85 33.4125Q259.39688 33.75625 259.19376 34.365623Q258.9125 35.303123 258.9125 36.4125L258.9125 41.85L257.14688 41.85ZM264.08438 45.85L263.89688 44.19375Q264.475 44.35 264.89688 44.35Q265.49063 44.35 265.83438 44.146873Q266.19376 43.959373 266.4125 43.615623Q266.58438 43.35 266.95938 42.303123Q267.00626 42.146873 267.11563 41.865623L263.17813 31.474998L265.06876 31.474998L267.225 37.490623Q267.64688 38.63125 267.975 39.88125Q268.2875 38.678123 268.69376 37.521873L270.9125 31.474998L272.67813 31.474998L268.725 42.021873Q268.1 43.740623 267.74063 44.38125Q267.27188 45.25625 266.6625 45.646873Q266.06876 46.053123 265.225 46.053123Q264.70938 46.053123 264.08438 45.85ZM279.45938 38.75625L281.20938 38.475Q281.35 39.521873 282.02188 40.084373Q282.69376 40.63125 283.89688 40.63125Q285.1 40.63125 285.67813 40.146873Q286.27188 39.646873 286.27188 38.990623Q286.27188 38.396873 285.75626 38.053123Q285.39688 37.81875 283.95938 37.459373Q282.02188 36.959373 281.27188 36.615623Q280.5375 36.25625 280.14688 35.63125Q279.75626 34.990623 279.75626 34.225Q279.75626 33.5375 280.06876 32.94375Q280.39688 32.35 280.94376 31.959373Q281.35 31.662498 282.05313 31.459373Q282.77188 31.240623 283.58438 31.240623Q284.80313 31.240623 285.725 31.599998Q286.64688 31.943748 287.08438 32.553123Q287.52188 33.146873 287.69376 34.146873L285.975 34.38125Q285.85 33.584373 285.2875 33.146873Q284.725 32.69375 283.70938 32.69375Q282.49063 32.69375 281.975 33.1Q281.45938 33.490623 281.45938 34.021873Q281.45938 34.365623 281.67813 34.646873Q281.88126 34.928123 282.35 35.115623Q282.61563 35.209373 283.89688 35.553123Q285.77188 36.053123 286.50626 36.38125Q287.24063 36.69375 287.6625 37.303123Q288.08438 37.896873 288.08438 38.803123Q288.08438 39.678123 287.56876 40.459373Q287.05313 41.240623 286.08438 41.6625Q285.11563 42.084373 283.89688 42.084373Q281.88126 42.084373 280.81876 41.240623Q279.75626 40.396873 279.45938 38.75625ZM296.94376 38.053123L298.6625 38.271873Q298.38126 40.06875 297.20938 41.084373Q296.05313 42.084373 294.35 42.084373Q292.225 42.084373 290.92813 40.69375Q289.63126 39.303123 289.63126 36.709373Q289.63126 35.021873 290.17813 33.771873Q290.74063 32.50625 291.88126 31.881248Q293.02188 31.240623 294.36563 31.240623Q296.05313 31.240623 297.11563 32.1Q298.19376 32.959373 298.50626 34.521873L296.7875 34.7875Q296.55313 33.740623 295.92813 33.225Q295.30313 32.69375 294.42813 32.69375Q293.1 32.69375 292.27188 33.646873Q291.44376 34.6 291.44376 36.646873Q291.44376 38.740623 292.24063 39.69375Q293.0375 40.63125 294.33438 40.63125Q295.36563 40.63125 296.05313 40.00625Q296.75626 39.365623 296.94376 38.053123ZM299.52188 36.6625Q299.52188 33.7875 301.11563 32.396873Q302.45938 31.240623 304.38126 31.240623Q306.52188 31.240623 307.86563 32.646873Q309.225 34.053123 309.225 36.521873Q309.225 38.521873 308.63126 39.678123Q308.0375 40.81875 306.88126 41.459373Q305.74063 42.084373 304.38126 42.084373Q302.19376 42.084373 300.85 40.69375Q299.52188 39.2875 299.52188 36.6625ZM301.31876 36.6625Q301.31876 38.6625 302.17813 39.646873Q303.05313 40.63125 304.38126 40.63125Q305.69376 40.63125 306.55313 39.646873Q307.42813 38.646873 307.42813 36.6Q307.42813 34.678123 306.55313 33.69375Q305.67813 32.69375 304.38126 32.69375Q303.05313 32.69375 302.17813 33.69375Q301.31876 34.678123 301.31876 36.6625ZM311.14688 41.85L311.14688 31.474998L312.725 31.474998L312.725 33.053123Q313.33438 31.943748 313.85 31.599998Q314.36563 31.240623 314.975 31.240623Q315.86563 31.240623 316.7875 31.803123L316.17813 33.44375Q315.5375 33.053123 314.89688 33.053123Q314.31876 33.053123 313.85 33.4125Q313.39688 33.75625 313.19376 34.365623Q312.9125 35.303123 312.9125 36.4125L312.9125 41.85L311.14688 41.85ZM325.27188 38.50625L327.08438 38.740623Q326.6625 40.31875 325.49063 41.209373Q324.33438 42.084373 322.52188 42.084373Q320.25626 42.084373 318.9125 40.69375Q317.58438 39.2875 317.58438 36.75625Q317.58438 34.13125 318.92813 32.69375Q320.27188 31.240623 322.42813 31.240623Q324.50626 31.240623 325.81876 32.6625Q327.14688 34.06875 327.14688 36.646873Q327.14688 36.803123 327.13126 37.115623L319.39688 37.115623Q319.49063 38.81875 320.36563 39.725Q321.24063 40.63125 322.5375 40.63125Q323.50626 40.63125 324.17813 40.13125Q324.86563 39.615623 325.27188 38.50625ZM319.49063 35.6625L325.2875 35.6625Q325.17813 34.365623 324.63126 33.709373Q323.7875 32.69375 322.44376 32.69375Q321.24063 32.69375 320.4125 33.50625Q319.58438 34.303123 319.49063 35.6625ZM336.7875 41.85L335.1625 41.85L335.1625 27.537498L336.9125 27.537498L336.9125 32.646873Q338.0375 31.240623 339.75626 31.240623Q340.70938 31.240623 341.56876 31.631248Q342.42813 32.021873 342.975 32.725Q343.52188 33.4125 343.83438 34.396873Q344.14688 35.38125 344.14688 36.50625Q344.14688 39.178123 342.83438 40.63125Q341.52188 42.084373 339.67813 42.084373Q337.83438 42.084373 336.7875 40.553123L336.7875 41.85ZM336.77188 36.584373Q336.77188 38.44375 337.27188 39.2875Q338.11563 40.63125 339.52188 40.63125Q340.67813 40.63125 341.50626 39.63125Q342.35 38.63125 342.35 36.646873Q342.35 34.615623 341.5375 33.6625Q340.74063 32.69375 339.6 32.69375Q338.44376 32.69375 337.6 33.69375Q336.77188 34.69375 336.77188 36.584373ZM346.08438 45.85L345.89688 44.19375Q346.475 44.35 346.89688 44.35Q347.49063 44.35 347.83438 44.146873Q348.19376 43.959373 348.4125 43.615623Q348.58438 43.35 348.95938 42.303123Q349.00626 42.146873 349.11563 41.865623L345.17813 31.474998L347.06876 31.474998L349.225 37.490623Q349.64688 38.63125 349.975 39.88125Q350.2875 38.678123 350.69376 37.521873L352.9125 31.474998L354.67813 31.474998L350.725 42.021873Q350.1 43.740623 349.74063 44.38125Q349.27188 45.25625 348.6625 45.646873Q348.06876 46.053123 347.225 46.053123Q346.70938 46.053123 346.08438 45.85ZM368.94376 40.56875Q367.95938 41.396873 367.05313 41.740623Q366.14688 42.084373 365.11563 42.084373Q363.4125 42.084373 362.49063 41.25625Q361.56876 40.4125 361.56876 39.115623Q361.56876 38.35 361.9125 37.725Q362.27188 37.1 362.83438 36.725Q363.39688 36.334373 364.1 36.13125Q364.61563 36.00625 365.6625 35.865623Q367.7875 35.615623 368.7875 35.271873Q368.80313 34.9125 368.80313 34.803123Q368.80313 33.740623 368.30313 33.2875Q367.63126 32.69375 366.30313 32.69375Q365.05313 32.69375 364.45938 33.13125Q363.88126 33.56875 363.6 34.678123L361.88126 34.44375Q362.11563 33.334373 362.64688 32.6625Q363.17813 31.974998 364.19376 31.615623Q365.20938 31.240623 366.55313 31.240623Q367.88126 31.240623 368.70938 31.553123Q369.5375 31.865623 369.92813 32.35Q370.31876 32.81875 370.475 33.5375Q370.56876 33.990623 370.56876 35.1625L370.56876 37.50625Q370.56876 39.959373 370.67813 40.615623Q370.7875 41.25625 371.13126 41.85L369.2875 41.85Q369.02188 41.303123 368.94376 40.56875ZM368.7875 36.646873Q367.83438 37.0375 365.9125 37.303123Q364.83438 37.459373 364.38126 37.6625Q363.94376 37.85 363.69376 38.225Q363.44376 38.6 363.44376 39.06875Q363.44376 39.771873 363.975 40.240623Q364.50626 40.709373 365.5375 40.709373Q366.55313 40.709373 367.33438 40.271873Q368.13126 39.81875 368.50626 39.053123Q368.7875 38.44375 368.7875 37.2875L368.7875 36.646873ZM373.13126 41.85L373.13126 27.537498L374.88126 27.537498L374.88126 41.85L373.13126 41.85ZM376.85 42.709373L378.55313 42.959373Q378.6625 43.75625 379.14688 44.115623Q379.80313 44.6 380.94376 44.6Q382.1625 44.6 382.81876 44.115623Q383.49063 43.63125 383.725 42.75625Q383.86563 42.209373 383.85 40.490623Q382.69376 41.85 380.975 41.85Q378.83438 41.85 377.6625 40.303123Q376.49063 38.75625 376.49063 36.6Q376.49063 35.115623 377.02188 33.865623Q377.56876 32.615623 378.58438 31.928123Q379.61563 31.240623 380.99063 31.240623Q382.81876 31.240623 384.02188 32.725L384.02188 31.474998L385.63126 31.474998L385.63126 40.44375Q385.63126 42.865623 385.13126 43.865623Q384.64688 44.88125 383.56876 45.459373Q382.50626 46.053123 380.94376 46.053123Q379.1 46.053123 377.94376 45.225Q376.80313 44.396873 376.85 42.709373ZM378.30313 36.475Q378.30313 38.521873 379.11563 39.459373Q379.92813 40.396873 381.14688 40.396873Q382.35 40.396873 383.1625 39.459373Q383.99063 38.521873 383.99063 36.5375Q383.99063 34.63125 383.14688 33.6625Q382.30313 32.69375 381.11563 32.69375Q379.94376 32.69375 379.11563 33.646873Q378.30313 34.6 378.30313 36.475ZM387.52188 36.6625Q387.52188 33.7875 389.11563 32.396873Q390.45938 31.240623 392.38126 31.240623Q394.52188 31.240623 395.86563 32.646873Q397.225 34.053123 397.225 36.521873Q397.225 38.521873 396.63126 39.678123Q396.0375 40.81875 394.88126 41.459373Q393.74063 42.084373 392.38126 42.084373Q390.19376 42.084373 388.85 40.69375Q387.52188 39.2875 387.52188 36.6625ZM389.31876 36.6625Q389.31876 38.6625 390.17813 39.646873Q391.05313 40.63125 392.38126 40.63125Q393.69376 40.63125 394.55313 39.646873Q395.42813 38.646873 395.42813 36.6Q395.42813 34.678123 394.55313 33.69375Q393.67813 32.69375 392.38126 32.69375Q391.05313 32.69375 390.17813 33.69375Q389.31876 34.678123 389.31876 36.6625ZM399.14688 41.85L399.14688 31.474998L400.725 31.474998L400.725 33.053123Q401.33438 31.943748 401.85 31.599998Q402.36563 31.240623 402.975 31.240623Q403.86563 31.240623 404.7875 31.803123L404.17813 33.44375Q403.5375 33.053123 402.89688 33.053123Q402.31876 33.053123 401.85 33.4125Q401.39688 33.75625 401.19376 34.365623Q400.9125 35.303123 400.9125 36.4125L400.9125 41.85L399.14688 41.85ZM406.17813 29.553123L406.17813 27.537498L407.94376 27.537498L407.94376 29.553123L406.17813 29.553123ZM406.17813 41.85L406.17813 31.474998L407.94376 31.474998L407.94376 41.85L406.17813 41.85ZM414.00626 40.271873L414.25626 41.834373Q413.52188 41.990623 412.92813 41.990623Q411.975 41.990623 411.44376 41.69375Q410.92813 41.38125 410.70938 40.896873Q410.49063 40.396873 410.49063 38.81875L410.49063 32.85L409.20938 32.85L409.20938 31.474998L410.49063 31.474998L410.49063 28.912498L412.24063 27.849998L412.24063 31.474998L414.00626 31.474998L414.00626 32.85L412.24063 32.85L412.24063 38.9125Q412.24063 39.6625 412.33438 39.88125Q412.42813 40.084373 412.63126 40.225Q412.85 40.35 413.24063 40.35Q413.52188 40.35 414.00626 40.271873ZM416.1625 41.85L416.1625 27.537498L417.92813 27.537498L417.92813 32.6625Q419.1625 31.240623 421.0375 31.240623Q422.17813 31.240623 423.02188 31.693748Q423.88126 32.146873 424.24063 32.959373Q424.61563 33.75625 424.61563 35.271873L424.61563 41.85L422.86563 41.85L422.86563 35.271873Q422.86563 33.959373 422.2875 33.365623Q421.70938 32.75625 420.67813 32.75625Q419.89688 32.75625 419.19376 33.1625Q418.50626 33.56875 418.20938 34.271873Q417.92813 34.959373 417.92813 36.178123L417.92813 41.85L416.1625 41.85ZM426.1625 41.85L426.1625 31.474998L427.74063 31.474998L427.74063 32.928123Q428.225 32.178123 429.0375 31.709373Q429.85 31.240623 430.88126 31.240623Q432.0375 31.240623 432.77188 31.724998Q433.50626 32.19375 433.81876 33.053123Q435.05313 31.240623 437.02188 31.240623Q438.56876 31.240623 439.39688 32.1Q440.225 32.959373 440.225 34.725L440.225 41.85L438.475 41.85L438.475 35.31875Q438.475 34.25625 438.30313 33.803123Q438.13126 33.334373 437.67813 33.053123Q437.24063 32.771873 436.63126 32.771873Q435.5375 32.771873 434.80313 33.50625Q434.08438 34.225 434.08438 35.81875L434.08438 41.85L432.33438 41.85L432.33438 35.115623Q432.33438 33.94375 431.89688 33.365623Q431.475 32.771873 430.49063 32.771873Q429.75626 32.771873 429.11563 33.1625Q428.49063 33.553123 428.20938 34.303123Q427.92813 35.053123 427.92813 36.475L427.92813 41.85L426.1625 41.85Z" fill-rule="nonzero"/></svg>