<svg version="1.1" viewBox="0.0 0.0 733.0 457.0" fill="none" stroke="none" stroke-linecap="square" stroke-miterlimit="10" width="733" height="457" xmlns:xlink="http://www.w3.org/1999/xlink" xmlns="http://www.w3.org/2000/svg"><path fill="#ffffff" d="M0 0L733.0 0L733.0 457.0L0 457.0L0 0Z" fill-rule="nonzero"/><path fill="#4285f4" d="M366.5 62.083332C447.29395 62.083332 518.8515 114.23208 543.59467 191.14397L366.5 248.11667Z" fill-rule="nonzero"/><path fill="#ea4335" d="M543.59467 191.14397C568.0708 267.22598 541.2169 350.43945 476.8845 397.862L366.5 248.11667Z" fill-rule="nonzero"/><path fill="#ff6d01" d="M189.5092 190.82219C214.3537 114.07398 285.83072 62.083332 366.5 62.083332L366.5 248.11667Z" fill-rule="nonzero"/><path fill="#34a853" d="M258.02954 399.2542C192.28947 352.073 164.5879 267.8076 189.5092 190.82219L366.5 248.11667Z" fill-rule="nonzero"/><path fill="#fbbc04" d="M476.8845 397.862C411.9507 445.7278 323.56705 446.29007 258.02954 399.2542L366.5 248.11667Z" fill-rule="nonzero"/><path fill="#000000" d="M444.8826 128.35086L443.66385 128.44461Q443.49197 127.710236 443.1951 127.38211Q442.6951 126.866486 441.96072 126.866486Q441.36697 126.866486 440.92947 127.19461Q440.35135 127.616486 440.0076 128.42899Q439.67947 129.24149 439.66385 130.74149Q440.10135 130.06961 440.74197 129.74149Q441.39822 129.41336 442.10135 129.41336Q443.33572 129.41336 444.1951 130.31961Q445.05447 131.22586 445.05447 132.66336Q445.05447 133.60086 444.64822 134.41336Q444.24197 135.22586 443.52322 135.66336Q442.8201 136.08524 441.91385 136.08524Q440.3826 136.08524 439.41385 134.96024Q438.4451 133.81961 438.4451 131.22586Q438.4451 128.31961 439.5076 126.991486Q440.4451 125.85086 442.03885 125.85086Q443.22635 125.85086 443.97635 126.522736Q444.72635 127.178986 444.8826 128.35086ZM439.85135 132.66336Q439.85135 133.30399 440.11697 133.88211Q440.39822 134.46024 440.8826 134.77274Q441.36697 135.06961 441.89822 135.06961Q442.67947 135.06961 443.24197 134.44461Q443.80447 133.81961 443.80447 132.74149Q443.80447 131.69461 443.24197 131.10086Q442.6951 130.49149 441.85135 130.49149Q441.02322 130.49149 440.42947 131.10086Q439.85135 131.69461 439.85135 132.66336ZM447.17947 135.91336L447.17947 134.50711L448.58572 134.50711L448.58572 135.91336L447.17947 135.91336ZM450.67947 133.60086L451.86697 133.49149Q452.0076 134.31961 452.42947 134.69461Q452.86697 135.06961 453.52322 135.06961Q454.08572 135.06961 454.5076 134.81961Q454.9451 134.55399 455.21072 134.11649Q455.49197 133.67899 455.67947 132.94461Q455.86697 132.21024 455.86697 131.44461Q455.86697 131.36649 455.85135 131.19461Q455.49197 131.78836 454.85135 132.16336Q454.21072 132.52274 453.46072 132.52274Q452.21072 132.52274 451.35135 131.61649Q450.49197 130.71024 450.49197 129.24149Q450.49197 127.710236 451.3826 126.78836Q452.28885 125.85086 453.64822 125.85086Q454.61697 125.85086 455.42947 126.38211Q456.24197 126.897736 456.66385 127.88211Q457.08572 128.85086 457.08572 130.69461Q457.08572 132.61649 456.66385 133.75711Q456.2576 134.89774 455.42947 135.49149Q454.60135 136.08524 453.49197 136.08524Q452.3201 136.08524 451.5701 135.42899Q450.83572 134.77274 450.67947 133.60086ZM455.71072 129.17899Q455.71072 128.11649 455.14822 127.491486Q454.58572 126.866486 453.80447 126.866486Q452.97635 126.866486 452.36697 127.53836Q451.7576 128.21024 451.7576 129.27274Q451.7576 130.22586 452.33572 130.83524Q452.91385 131.42899 453.7576 131.42899Q454.61697 131.42899 455.16385 130.83524Q455.71072 130.22586 455.71072 129.17899ZM458.5076 133.27274L459.72635 133.10086Q459.9451 134.14774 460.4451 134.61649Q460.96072 135.06961 461.6951 135.06961Q462.5701 135.06961 463.16385 134.47586Q463.7576 133.86649 463.7576 132.97586Q463.7576 132.13211 463.1951 131.58524Q462.64822 131.03836 461.80447 131.03836Q461.4451 131.03836 460.92947 131.16336L461.0701 130.08524Q461.1951 130.10086 461.2576 130.10086Q462.05447 130.10086 462.67947 129.69461Q463.30447 129.28836 463.30447 128.42899Q463.30447 127.75711 462.85135 127.31961Q462.39822 126.866486 461.66385 126.866486Q460.9451 126.866486 460.46072 127.31961Q459.99197 127.75711 459.85135 128.66336L458.6326 128.44461Q458.85135 127.210236 459.64822 126.53836Q460.4451 125.85086 461.6326 125.85086Q462.46072 125.85086 463.14822 126.210236Q463.83572 126.553986 464.1951 127.16336Q464.5701 127.772736 464.5701 128.46024Q464.5701 129.10086 464.22635 129.63211Q463.8826 130.16336 463.1951 130.49149Q464.08572 130.69461 464.5701 131.33524Q465.0701 131.97586 465.0701 132.96024Q465.0701 134.27274 464.10135 135.17899Q463.14822 136.08524 461.6951 136.08524Q460.36697 136.08524 459.49197 135.30399Q458.6326 134.52274 458.5076 133.27274Z" fill-rule="nonzero"/><path fill="#000000" d="M498.60776 290.45584L497.389 290.5496Q497.21713 289.81522 496.92026 289.4871Q496.42026 288.97147 495.68588 288.97147Q495.09213 288.97147 494.65463 289.2996Q494.0765 289.72147 493.73276 290.53397Q493.40463 291.34647 493.389 292.84647Q493.8265 292.1746 494.46713 291.84647Q495.12338 291.51834 495.8265 291.51834Q497.06088 291.51834 497.92026 292.4246Q498.77963 293.33084 498.77963 294.76834Q498.77963 295.70584 498.37338 296.51834Q497.96713 297.33084 497.24838 297.76834Q496.54526 298.19022 495.639 298.19022Q494.10776 298.19022 493.139 297.06522Q492.17026 295.9246 492.17026 293.33084Q492.17026 290.4246 493.23276 289.09647Q494.17026 287.95584 495.764 287.95584Q496.9515 287.95584 497.7015 288.62772Q498.4515 289.28397 498.60776 290.45584ZM493.5765 294.76834Q493.5765 295.40897 493.84213 295.9871Q494.12338 296.56522 494.60776 296.87772Q495.09213 297.1746 495.62338 297.1746Q496.40463 297.1746 496.96713 296.5496Q497.52963 295.9246 497.52963 294.84647Q497.52963 293.7996 496.96713 293.20584Q496.42026 292.59647 495.5765 292.59647Q494.74838 292.59647 494.15463 293.20584Q493.5765 293.7996 493.5765 294.76834ZM500.90463 298.01834L500.90463 296.6121L502.31088 296.6121L502.31088 298.01834L500.90463 298.01834ZM506.10776 292.58084Q505.34213 292.2996 504.96713 291.78397Q504.60776 291.26834 504.60776 290.53397Q504.60776 289.44022 505.389 288.70584Q506.18588 287.95584 507.48276 287.95584Q508.79526 287.95584 509.59213 288.72147Q510.40463 289.4871 510.40463 290.58084Q510.40463 291.26834 510.02963 291.78397Q509.67026 292.2996 508.92026 292.58084Q509.84213 292.87772 510.3265 293.5496Q510.81088 294.22147 510.81088 295.15897Q510.81088 296.44022 509.90463 297.31522Q508.99838 298.19022 507.514 298.19022Q506.02963 298.19022 505.10776 297.31522Q504.2015 296.4246 504.2015 295.1121Q504.2015 294.14334 504.7015 293.4871Q505.2015 292.81522 506.10776 292.58084ZM505.87338 290.50272Q505.87338 291.20584 506.3265 291.65897Q506.77963 292.1121 507.514 292.1121Q508.23276 292.1121 508.68588 291.6746Q509.139 291.22147 509.139 290.56522Q509.139 289.89334 508.67026 289.44022Q508.2015 288.97147 507.49838 288.97147Q506.79526 288.97147 506.3265 289.4246Q505.87338 289.8621 505.87338 290.50272ZM505.46713 295.12772Q505.46713 295.65897 505.71713 296.15897Q505.96713 296.64334 506.4515 296.90897Q506.9515 297.1746 507.52963 297.1746Q508.40463 297.1746 508.96713 296.6121Q509.54526 296.0496 509.54526 295.1746Q509.54526 294.28397 508.9515 293.70584Q508.37338 293.1121 507.48276 293.1121Q506.60776 293.1121 506.02963 293.69022Q505.46713 294.26834 505.46713 295.12772ZM518.6078 290.45584L517.38904 290.5496Q517.21716 289.81522 516.9203 289.4871Q516.4203 288.97147 515.6859 288.97147Q515.09216 288.97147 514.65466 289.2996Q514.07654 289.72147 513.7328 290.53397Q513.40466 291.34647 513.38904 292.84647Q513.82654 292.1746 514.46716 291.84647Q515.1234 291.51834 515.82654 291.51834Q517.0609 291.51834 517.9203 292.4246Q518.77966 293.33084 518.77966 294.76834Q518.77966 295.70584 518.3734 296.51834Q517.96716 297.33084 517.2484 297.76834Q516.5453 298.19022 515.63904 298.19022Q514.1078 298.19022 513.13904 297.06522Q512.1703 295.9246 512.1703 293.33084Q512.1703 290.4246 513.2328 289.09647Q514.1703 287.95584 515.76404 287.95584Q516.95154 287.95584 517.70154 288.62772Q518.45154 289.28397 518.6078 290.45584ZM513.57654 294.76834Q513.57654 295.40897 513.84216 295.9871Q514.1234 296.56522 514.6078 296.87772Q515.09216 297.1746 515.6234 297.1746Q516.40466 297.1746 516.96716 296.5496Q517.52966 295.9246 517.52966 294.84647Q517.52966 293.7996 516.96716 293.20584Q516.4203 292.59647 515.57654 292.59647Q514.7484 292.59647 514.15466 293.20584Q513.57654 293.7996 513.57654 294.76834Z" fill-rule="nonzero"/><path fill="#000000" d="M360.4635 401.92508L359.24475 402.01883Q359.07288 401.28445 358.776 400.95633Q358.276 400.4407 357.54163 400.4407Q356.94788 400.4407 356.51038 400.76883Q355.93225 401.1907 355.5885 402.0032Q355.26038 402.8157 355.24475 404.3157Q355.68225 403.64383 356.32288 403.3157Q356.97913 402.98758 357.68225 402.98758Q358.91663 402.98758 359.776 403.89383Q360.63538 404.80008 360.63538 406.23758Q360.63538 407.17508 360.22913 407.98758Q359.82288 408.80008 359.10413 409.23758Q358.401 409.65945 357.49475 409.65945Q355.9635 409.65945 354.99475 408.53445Q354.026 407.39383 354.026 404.80008Q354.026 401.89383 355.0885 400.5657Q356.026 399.42508 357.61975 399.42508Q358.80725 399.42508 359.55725 400.09695Q360.30725 400.7532 360.4635 401.92508ZM355.43225 406.23758Q355.43225 406.8782 355.69788 407.45633Q355.97913 408.03445 356.4635 408.34695Q356.94788 408.64383 357.47913 408.64383Q358.26038 408.64383 358.82288 408.01883Q359.38538 407.39383 359.38538 406.3157Q359.38538 405.26883 358.82288 404.67508Q358.276 404.0657 357.43225 404.0657Q356.60413 404.0657 356.01038 404.67508Q355.43225 405.26883 355.43225 406.23758ZM362.76038 409.48758L362.76038 408.08133L364.16663 408.08133L364.16663 409.48758L362.76038 409.48758ZM366.26038 407.17508L367.44788 407.0657Q367.5885 407.89383 368.01038 408.26883Q368.44788 408.64383 369.10413 408.64383Q369.66663 408.64383 370.0885 408.39383Q370.526 408.1282 370.79163 407.6907Q371.07288 407.2532 371.26038 406.51883Q371.44788 405.78445 371.44788 405.01883Q371.44788 404.9407 371.43225 404.76883Q371.07288 405.36258 370.43225 405.73758Q369.79163 406.09695 369.04163 406.09695Q367.79163 406.09695 366.93225 405.1907Q366.07288 404.28445 366.07288 402.8157Q366.07288 401.28445 366.9635 400.36258Q367.86975 399.42508 369.22913 399.42508Q370.19788 399.42508 371.01038 399.95633Q371.82288 400.47195 372.24475 401.45633Q372.66663 402.42508 372.66663 404.26883Q372.66663 406.1907 372.24475 407.33133Q371.8385 408.47195 371.01038 409.0657Q370.18225 409.65945 369.07288 409.65945Q367.901 409.65945 367.151 409.0032Q366.41663 408.34695 366.26038 407.17508ZM371.29163 402.7532Q371.29163 401.6907 370.72913 401.0657Q370.16663 400.4407 369.38538 400.4407Q368.55725 400.4407 367.94788 401.11258Q367.3385 401.78445 367.3385 402.84695Q367.3385 403.80008 367.91663 404.40945Q368.49475 405.0032 369.3385 405.0032Q370.19788 405.0032 370.74475 404.40945Q371.29163 403.80008 371.29163 402.7532ZM380.54163 408.30008L380.54163 409.48758L373.91663 409.48758Q373.901 409.05008 374.05725 408.6282Q374.32288 407.95633 374.86975 407.30008Q375.43225 406.64383 376.47913 405.78445Q378.11975 404.4407 378.68225 403.65945Q379.26038 402.8782 379.26038 402.17508Q379.26038 401.4407 378.72913 400.9407Q378.2135 400.4407 377.38538 400.4407Q376.49475 400.4407 375.94788 400.97195Q375.41663 401.5032 375.41663 402.45633L374.151 402.3157Q374.276 400.90945 375.11975 400.17508Q375.97913 399.42508 377.401 399.42508Q378.85413 399.42508 379.68225 400.22195Q380.526 401.01883 380.526 402.20633Q380.526 402.8157 380.276 403.39383Q380.04163 403.97195 379.4635 404.61258Q378.901 405.2532 377.57288 406.3782Q376.4635 407.30008 376.151 407.64383Q375.8385 407.97195 375.63538 408.30008L380.54163 408.30008Z" fill-rule="nonzero"/><path fill="#000000" d="M220.63869 291.19342L219.41994 291.28717Q219.24806 290.5528 218.95119 290.22467Q218.45119 289.70905 217.71681 289.70905Q217.12306 289.70905 216.68556 290.03717Q216.10744 290.45905 215.76369 291.27155Q215.43556 292.08405 215.41994 293.58405Q215.85744 292.91217 216.49806 292.58405Q217.15431 292.25592 217.85744 292.25592Q219.09181 292.25592 219.95119 293.16217Q220.81056 294.06842 220.81056 295.50592Q220.81056 296.44342 220.40431 297.25592Q219.99806 298.06842 219.27931 298.50592Q218.57619 298.9278 217.66994 298.9278Q216.13869 298.9278 215.16994 297.8028Q214.20119 296.66217 214.20119 294.06842Q214.20119 291.16217 215.26369 289.83405Q216.20119 288.69342 217.79494 288.69342Q218.98244 288.69342 219.73244 289.3653Q220.48244 290.02155 220.63869 291.19342ZM215.60744 295.50592Q215.60744 296.14655 215.87306 296.72467Q216.15431 297.3028 216.63869 297.6153Q217.12306 297.91217 217.65431 297.91217Q218.43556 297.91217 218.99806 297.28717Q219.56056 296.66217 219.56056 295.58405Q219.56056 294.53717 218.99806 293.94342Q218.45119 293.33405 217.60744 293.33405Q216.77931 293.33405 216.18556 293.94342Q215.60744 294.53717 215.60744 295.50592ZM222.93556 298.75592L222.93556 297.34967L224.34181 297.34967L224.34181 298.75592L222.93556 298.75592ZM226.43556 296.44342L227.62306 296.33405Q227.76369 297.16217 228.18556 297.53717Q228.62306 297.91217 229.27931 297.91217Q229.84181 297.91217 230.26369 297.66217Q230.70119 297.39655 230.96681 296.95905Q231.24806 296.52155 231.43556 295.78717Q231.62306 295.0528 231.62306 294.28717Q231.62306 294.20905 231.60744 294.03717Q231.24806 294.63092 230.60744 295.00592Q229.96681 295.3653 229.21681 295.3653Q227.96681 295.3653 227.10744 294.45905Q226.24806 293.5528 226.24806 292.08405Q226.24806 290.5528 227.13869 289.63092Q228.04494 288.69342 229.40431 288.69342Q230.37306 288.69342 231.18556 289.22467Q231.99806 289.7403 232.41994 290.72467Q232.84181 291.69342 232.84181 293.53717Q232.84181 295.45905 232.41994 296.59967Q232.01369 297.7403 231.18556 298.33405Q230.35744 298.9278 229.24806 298.9278Q228.07619 298.9278 227.32619 298.27155Q226.59181 297.6153 226.43556 296.44342ZM231.46681 292.02155Q231.46681 290.95905 230.90431 290.33405Q230.34181 289.70905 229.56056 289.70905Q228.73244 289.70905 228.12306 290.38092Q227.51369 291.0528 227.51369 292.1153Q227.51369 293.06842 228.09181 293.6778Q228.66994 294.27155 229.51369 294.27155Q230.37306 294.27155 230.91994 293.6778Q231.46681 293.06842 231.46681 292.02155ZM238.20119 298.75592L238.20119 296.34967L233.84181 296.34967L233.84181 295.22467L238.41994 288.7403L239.41994 288.7403L239.41994 295.22467L240.77931 295.22467L240.77931 296.34967L239.41994 296.34967L239.41994 298.75592L238.20119 298.75592ZM238.20119 295.22467L238.20119 290.70905L235.06056 295.22467L238.20119 295.22467Z" fill-rule="nonzero"/><path fill="#000000" d="M274.15698 128.26715L272.93823 128.3609Q272.76636 127.626526 272.46948 127.2984Q271.96948 126.782776 271.2351 126.782776Q270.64136 126.782776 270.20386 127.1109Q269.62573 127.532776 269.28198 128.34528Q268.95386 129.15778 268.93823 130.65778Q269.37573 129.9859 270.01636 129.65778Q270.6726 129.32965 271.37573 129.32965Q272.6101 129.32965 273.46948 130.2359Q274.32886 131.14215 274.32886 132.57965Q274.32886 133.51715 273.9226 134.32965Q273.51636 135.14215 272.7976 135.57965Q272.09448 136.00153 271.18823 136.00153Q269.65698 136.00153 268.68823 134.87653Q267.71948 133.7359 267.71948 131.14215Q267.71948 128.2359 268.78198 126.907776Q269.71948 125.76715 271.31323 125.76715Q272.50073 125.76715 273.25073 126.439026Q274.00073 127.095276 274.15698 128.26715ZM269.12573 132.57965Q269.12573 133.22028 269.39136 133.7984Q269.6726 134.37653 270.15698 134.68903Q270.64136 134.9859 271.1726 134.9859Q271.95386 134.9859 272.51636 134.3609Q273.07886 133.7359 273.07886 132.65778Q273.07886 131.6109 272.51636 131.01715Q271.96948 130.40778 271.12573 130.40778Q270.2976 130.40778 269.70386 131.01715Q269.12573 131.6109 269.12573 132.57965ZM276.45386 135.82965L276.45386 134.4234L277.8601 134.4234L277.8601 135.82965L276.45386 135.82965ZM279.95386 133.51715L281.14136 133.40778Q281.28198 134.2359 281.70386 134.6109Q282.14136 134.9859 282.7976 134.9859Q283.3601 134.9859 283.78198 134.7359Q284.21948 134.47028 284.4851 134.03278Q284.76636 133.59528 284.95386 132.8609Q285.14136 132.12653 285.14136 131.3609Q285.14136 131.28278 285.12573 131.1109Q284.76636 131.70465 284.12573 132.07965Q283.4851 132.43903 282.7351 132.43903Q281.4851 132.43903 280.62573 131.53278Q279.76636 130.62653 279.76636 129.15778Q279.76636 127.626526 280.65698 126.70465Q281.56323 125.76715 282.9226 125.76715Q283.89136 125.76715 284.70386 126.2984Q285.51636 126.814026 285.93823 127.7984Q286.3601 128.76715 286.3601 130.6109Q286.3601 132.53278 285.93823 133.6734Q285.53198 134.81403 284.70386 135.40778Q283.87573 136.00153 282.76636 136.00153Q281.59448 136.00153 280.84448 135.34528Q280.1101 134.68903 279.95386 133.51715ZM284.9851 129.09528Q284.9851 128.03278 284.4226 127.407776Q283.8601 126.782776 283.07886 126.782776Q282.25073 126.782776 281.64136 127.45465Q281.03198 128.12653 281.03198 129.18903Q281.03198 130.14215 281.6101 130.75153Q282.18823 131.34528 283.03198 131.34528Q283.89136 131.34528 284.43823 130.75153Q284.9851 130.14215 284.9851 129.09528ZM294.2351 134.64215L294.2351 135.82965L287.6101 135.82965Q287.59448 135.39215 287.75073 134.97028Q288.01636 134.2984 288.56323 133.64215Q289.12573 132.9859 290.1726 132.12653Q291.81323 130.78278 292.37573 130.00153Q292.95386 129.22028 292.95386 128.51715Q292.95386 127.782776 292.4226 127.282776Q291.90698 126.782776 291.07886 126.782776Q290.18823 126.782776 289.64136 127.314026Q289.1101 127.845276 289.1101 128.7984L287.84448 128.65778Q287.96948 127.251526 288.81323 126.51715Q289.6726 125.76715 291.09448 125.76715Q292.5476 125.76715 293.37573 126.564026Q294.21948 127.3609 294.21948 128.5484Q294.21948 129.15778 293.96948 129.7359Q293.7351 130.31403 293.15698 130.95465Q292.59448 131.59528 291.26636 132.72028Q290.15698 133.64215 289.84448 133.9859Q289.53198 134.31403 289.32886 134.64215L294.2351 134.64215Z" fill-rule="nonzero"/><path fill="#1a1a1a" d="M23.771875 100.694405L23.771875 92.100655L27.021875 92.100655Q27.865625 92.100655 28.31875 92.17878Q28.959375 92.288155 29.38125 92.58503Q29.81875 92.881905 30.06875 93.413155Q30.334375 93.944405 30.334375 94.58503Q30.334375 95.67878 29.63125 96.444405Q28.94375 97.194405 27.115625 97.194405L24.9125 97.194405L24.9125 100.694405L23.771875 100.694405ZM24.9125 96.194405L27.13125 96.194405Q28.240625 96.194405 28.69375 95.788155Q29.1625 95.36628 29.1625 94.61628Q29.1625 94.08503 28.88125 93.71003Q28.615625 93.319405 28.178125 93.194405Q27.88125 93.11628 27.115625 93.11628L24.9125 93.11628L24.9125 96.194405ZM31.646875 93.319405L31.646875 92.100655L32.709373 92.100655L32.709373 93.319405L31.646875 93.319405ZM31.646875 100.694405L31.646875 94.475655L32.709373 94.475655L32.709373 100.694405L31.646875 100.694405Z" fill-rule="nonzero"/><path fill="#9e9e9e" d="M28.896875 116.67878L28.896875 117.694405L23.209375 117.694405Q23.209375 117.319405 23.334375 116.96003Q23.553125 116.381905 24.021875 115.819405Q24.50625 115.256905 25.4125 114.52253Q26.81875 113.36628 27.303125 112.694405Q27.803125 112.02253 27.803125 111.42878Q27.803125 110.80378 27.35 110.381905Q26.896875 109.944405 26.178125 109.944405Q25.4125 109.944405 24.959375 110.39753Q24.50625 110.850655 24.490625 111.663155L23.4125 111.55378Q23.521875 110.33503 24.240625 109.71003Q24.975 109.069405 26.209375 109.069405Q27.44375 109.069405 28.1625 109.756905Q28.88125 110.444405 28.88125 111.46003Q28.88125 111.975655 28.6625 112.475655Q28.459375 112.96003 27.959375 113.52253Q27.475 114.069405 26.35 115.02253Q25.396875 115.819405 25.115625 116.11628Q24.85 116.39753 24.678125 116.67878L28.896875 116.67878ZM30.35 113.46003Q30.35 111.92878 30.6625 111.006905Q30.975 110.069405 31.584375 109.569405Q32.209373 109.069405 33.146873 109.069405Q33.834373 109.069405 34.35 109.350655Q34.88125 109.631905 35.225 110.163155Q35.56875 110.67878 35.75625 111.42878Q35.94375 112.17878 35.94375 113.46003Q35.94375 114.975655 35.63125 115.89753Q35.334373 116.819405 34.709373 117.33503Q34.1 117.83503 33.146873 117.83503Q31.9125 117.83503 31.19375 116.944405Q30.35 115.881905 30.35 113.46003ZM31.428125 113.46003Q31.428125 115.569405 31.928125 116.27253Q32.428123 116.975655 33.146873 116.975655Q33.88125 116.975655 34.365623 116.27253Q34.865623 115.569405 34.865623 113.46003Q34.865623 111.33503 34.365623 110.64753Q33.88125 109.944405 33.13125 109.944405Q32.4125 109.944405 31.975 110.55378Q31.428125 111.33503 31.428125 113.46003ZM37.94375 117.694405L37.94375 116.49128L39.146873 116.49128L39.146873 117.694405L37.94375 117.694405ZM40.35 113.46003Q40.35 111.92878 40.6625 111.006905Q40.975 110.069405 41.584373 109.569405Q42.209373 109.069405 43.146873 109.069405Q43.834373 109.069405 44.35 109.350655Q44.88125 109.631905 45.225 110.163155Q45.56875 110.67878 45.75625 111.42878Q45.94375 112.17878 45.94375 113.46003Q45.94375 114.975655 45.63125 115.89753Q45.334373 116.819405 44.709373 117.33503Q44.1 117.83503 43.146873 117.83503Q41.9125 117.83503 41.19375 116.944405Q40.35 115.881905 40.35 113.46003ZM41.428123 113.46003Q41.428123 115.569405 41.928123 116.27253Q42.428123 116.975655 43.146873 116.975655Q43.88125 116.975655 44.365623 116.27253Q44.865623 115.569405 44.865623 113.46003Q44.865623 111.33503 44.365623 110.64753Q43.88125 109.944405 43.13125 109.944405Q42.4125 109.944405 41.975 110.55378Q41.428123 111.33503 41.428123 113.46003ZM47.553123 111.163155Q47.553123 110.24128 48.00625 109.600655Q48.475 108.96003 49.35 108.96003Q50.1625 108.96003 50.69375 109.538155Q51.225 110.11628 51.225 111.225655Q51.225 112.319405 50.678123 112.913155Q50.146873 113.49128 49.365623 113.49128Q48.584373 113.49128 48.06875 112.913155Q47.553123 112.33503 47.553123 111.163155ZM49.38125 109.67878Q48.990623 109.67878 48.725 110.02253Q48.475 110.36628 48.475 111.27253Q48.475 112.100655 48.725 112.444405Q48.990623 112.77253 49.38125 112.77253Q49.7875 112.77253 50.0375 112.42878Q50.303123 112.08503 50.303123 111.194405Q50.303123 110.350655 50.0375 110.02253Q49.771873 109.67878 49.38125 109.67878ZM49.38125 118.006905L54.084373 108.96003L54.94375 108.96003L50.25625 118.006905L49.38125 118.006905ZM53.1 115.67878Q53.1 114.756905 53.553123 114.11628Q54.021873 113.475655 54.9125 113.475655Q55.725 113.475655 56.25625 114.05378Q56.7875 114.61628 56.7875 115.74128Q56.7875 116.83503 56.240623 117.42878Q55.709373 118.006905 54.9125 118.006905Q54.146873 118.006905 53.615623 117.42878Q53.1 116.850655 53.1 115.67878ZM54.94375 114.194405Q54.5375 114.194405 54.271873 114.538155Q54.021873 114.881905 54.021873 115.788155Q54.021873 116.600655 54.2875 116.944405Q54.553123 117.288155 54.94375 117.288155Q55.334373 117.288155 55.6 116.944405Q55.865623 116.600655 55.865623 115.694405Q55.865623 114.86628 55.6 114.538155Q55.334373 114.194405 54.94375 114.194405Z" fill-rule="nonzero"/><path stroke="#757575" stroke-width="1.0" stroke-linecap="butt" d="M22.85 105.194405L174.46666 105.194405L262.54178 105.194405" fill-rule="nonzero"/><path fill="#9e9e9e" d="M264.54178 105.194405C264.54178 104.089836 263.64636 103.194405 262.54178 103.194405C261.43723 103.194405 260.54178 104.089836 260.54178 105.194405C260.54178 106.29898 261.43723 107.194405 262.54178 107.194405C263.64636 107.194405 264.54178 106.29898 264.54178 105.194405" fill-rule="nonzero"/><path fill="#1a1a1a" d="M27.803125 295.43488L27.803125 294.43488L31.428125 294.41925L31.428125 297.60675Q30.6 298.27863 29.709375 298.62238Q28.81875 298.9505 27.88125 298.9505Q26.615625 298.9505 25.56875 298.41925Q24.5375 297.87238 24.00625 296.85675Q23.490625 295.8255 23.490625 294.55988Q23.490625 293.29425 24.00625 292.21613Q24.5375 291.12238 25.521875 290.60675Q26.50625 290.0755 27.7875 290.0755Q28.725 290.0755 29.475 290.37238Q30.225 290.66925 30.646875 291.21613Q31.084375 291.74738 31.303125 292.62238L30.2875 292.90363Q30.084375 292.24738 29.7875 291.87238Q29.50625 291.49738 28.975 291.27863Q28.44375 291.04425 27.803125 291.04425Q27.021875 291.04425 26.44375 291.27863Q25.88125 291.513 25.521875 291.90363Q25.178125 292.29425 24.990625 292.763Q24.6625 293.55988 24.6625 294.48175Q24.6625 295.638 25.053125 296.41925Q25.459375 297.18488 26.209375 297.55988Q26.959375 297.93488 27.81875 297.93488Q28.553125 297.93488 29.25625 297.65363Q29.959375 297.35675 30.31875 297.04425L30.31875 295.43488L27.803125 295.43488ZM32.771873 298.80988L32.771873 290.21613L36.021873 290.21613Q36.865623 290.21613 37.31875 290.29425Q37.959373 290.40363 38.38125 290.7005Q38.81875 290.99738 39.06875 291.52863Q39.334373 292.05988 39.334373 292.7005Q39.334373 293.79425 38.63125 294.55988Q37.94375 295.30988 36.115623 295.30988L33.9125 295.30988L33.9125 298.80988L32.771873 298.80988ZM33.9125 294.30988L36.13125 294.30988Q37.240623 294.30988 37.69375 293.90363Q38.1625 293.48175 38.1625 292.73175Q38.1625 292.2005 37.88125 291.8255Q37.615623 291.43488 37.178123 291.30988Q36.88125 291.23175 36.115623 291.23175L33.9125 291.23175L33.9125 294.30988ZM42.959373 298.80988L42.959373 291.23175L40.13125 291.23175L40.13125 290.21613L46.94375 290.21613L46.94375 291.23175L44.1 291.23175L44.1 298.80988L42.959373 298.80988ZM47.225 296.23175L47.225 295.16925L50.475 295.16925L50.475 296.23175L47.225 296.23175ZM54.725 298.80988L54.725 296.74738L51.00625 296.74738L51.00625 295.77863L54.928123 290.21613L55.7875 290.21613L55.7875 295.77863L56.94375 295.77863L56.94375 296.74738L55.7875 296.74738L55.7875 298.80988L54.725 298.80988ZM54.725 295.77863L54.725 291.91925L52.0375 295.77863L54.725 295.77863Z" fill-rule="nonzero"/><path fill="#9e9e9e" d="M28.896875 314.79425L28.896875 315.80988L23.209375 315.80988Q23.209375 315.43488 23.334375 315.0755Q23.553125 314.49738 24.021875 313.93488Q24.50625 313.37238 25.4125 312.638Q26.81875 311.48175 27.303125 310.80988Q27.803125 310.138 27.803125 309.54425Q27.803125 308.91925 27.35 308.49738Q26.896875 308.05988 26.178125 308.05988Q25.4125 308.05988 24.959375 308.513Q24.50625 308.96613 24.490625 309.77863L23.4125 309.66925Q23.521875 308.4505 24.240625 307.8255Q24.975 307.18488 26.209375 307.18488Q27.44375 307.18488 28.1625 307.87238Q28.88125 308.55988 28.88125 309.5755Q28.88125 310.09113 28.6625 310.59113Q28.459375 311.0755 27.959375 311.638Q27.475 312.18488 26.35 313.138Q25.396875 313.93488 25.115625 314.23175Q24.85 314.513 24.678125 314.79425L28.896875 314.79425ZM30.35 311.5755Q30.35 310.04425 30.6625 309.12238Q30.975 308.18488 31.584375 307.68488Q32.209373 307.18488 33.146873 307.18488Q33.834373 307.18488 34.35 307.46613Q34.88125 307.74738 35.225 308.27863Q35.56875 308.79425 35.75625 309.54425Q35.94375 310.29425 35.94375 311.5755Q35.94375 313.09113 35.63125 314.013Q35.334373 314.93488 34.709373 315.4505Q34.1 315.9505 33.146873 315.9505Q31.9125 315.9505 31.19375 315.05988Q30.35 313.99738 30.35 311.5755ZM31.428125 311.5755Q31.428125 313.68488 31.928125 314.388Q32.428123 315.09113 33.146873 315.09113Q33.88125 315.09113 34.365623 314.388Q34.865623 313.68488 34.865623 311.5755Q34.865623 309.4505 34.365623 308.763Q33.88125 308.05988 33.13125 308.05988Q32.4125 308.05988 31.975 308.66925Q31.428125 309.4505 31.428125 311.5755ZM37.94375 315.80988L37.94375 314.60675L39.146873 314.60675L39.146873 315.80988L37.94375 315.80988ZM44.31875 315.80988L43.271873 315.80988L43.271873 309.09113Q42.88125 309.4505 42.25625 309.8255Q41.646873 310.18488 41.1625 310.35675L41.1625 309.34113Q42.0375 308.91925 42.69375 308.34113Q43.365623 307.74738 43.646873 307.18488L44.31875 307.18488L44.31875 315.80988ZM47.553123 309.27863Q47.553123 308.35675 48.00625 307.71613Q48.475 307.0755 49.35 307.0755Q50.1625 307.0755 50.69375 307.65363Q51.225 308.23175 51.225 309.34113Q51.225 310.43488 50.678123 311.02863Q50.146873 311.60675 49.365623 311.60675Q48.584373 311.60675 48.06875 311.02863Q47.553123 310.4505 47.553123 309.27863ZM49.38125 307.79425Q48.990623 307.79425 48.725 308.138Q48.475 308.48175 48.475 309.388Q48.475 310.21613 48.725 310.55988Q48.990623 310.888 49.38125 310.888Q49.7875 310.888 50.0375 310.54425Q50.303123 310.2005 50.303123 309.30988Q50.303123 308.46613 50.0375 308.138Q49.771873 307.79425 49.38125 307.79425ZM49.38125 316.12238L54.084373 307.0755L54.94375 307.0755L50.25625 316.12238L49.38125 316.12238ZM53.1 313.79425Q53.1 312.87238 53.553123 312.23175Q54.021873 311.59113 54.9125 311.59113Q55.725 311.59113 56.25625 312.16925Q56.7875 312.73175 56.7875 313.85675Q56.7875 314.9505 56.240623 315.54425Q55.709373 316.12238 54.9125 316.12238Q54.146873 316.12238 53.615623 315.54425Q53.1 314.96613 53.1 313.79425ZM54.94375 312.30988Q54.5375 312.30988 54.271873 312.65363Q54.021873 312.99738 54.021873 313.90363Q54.021873 314.71613 54.2875 315.05988Q54.553123 315.40363 54.94375 315.40363Q55.334373 315.40363 55.6 315.05988Q55.865623 314.71613 55.865623 313.80988Q55.865623 312.98175 55.6 312.65363Q55.334373 312.30988 54.94375 312.30988Z" fill-rule="nonzero"/><path stroke="#757575" stroke-width="1.0" stroke-linecap="butt" d="M22.85 303.30988L174.46666 303.30988L198.60779 303.30988" fill-rule="nonzero"/><path fill="#9e9e9e" d="M200.60779 303.30988C200.60779 302.2053 199.71236 301.30988 198.60779 301.30988C197.50322 301.30988 196.60779 302.2053 196.60779 303.30988C196.60779 304.41443 197.50322 305.30988 198.60779 305.30988C199.71236 305.30988 200.60779 304.41443 200.60779 303.30988" fill-rule="nonzero"/><path fill="#1a1a1a" d="M670.2125 97.773315L671.3375 98.07019Q670.97815 99.460815 670.0563 100.19519Q669.1344 100.929565 667.79065 100.929565Q666.4 100.929565 665.525 100.367065Q664.65 99.804565 664.1969 98.742065Q663.7438 97.66394 663.7438 96.429565Q663.7438 95.085815 664.2594 94.085815Q664.775 93.085815 665.7125 92.57019Q666.66565 92.054565 667.8063 92.054565Q669.0875 92.054565 669.9625 92.710815Q670.85315 93.367065 671.1969 94.554565L670.0719 94.82019Q669.775 93.88269 669.1969 93.460815Q668.6344 93.023315 667.775 93.023315Q666.79065 93.023315 666.1188 93.50769Q665.4625 93.97644 665.1813 94.773315Q664.91565 95.57019 664.91565 96.429565Q664.91565 97.523315 665.22815 98.335815Q665.5563 99.148315 666.22815 99.554565Q666.9 99.960815 667.6969 99.960815Q668.65 99.960815 669.3063 99.41394Q669.97815 98.867065 670.2125 97.773315ZM672.91565 100.78894L672.91565 92.19519L673.97815 92.19519L673.97815 100.78894L672.91565 100.78894ZM680.0094 100.023315Q679.41565 100.523315 678.8688 100.72644Q678.3375 100.929565 677.7125 100.929565Q676.6813 100.929565 676.1344 100.429565Q675.5875 99.929565 675.5875 99.148315Q675.5875 98.69519 675.79065 98.32019Q675.9938 97.929565 676.3375 97.710815Q676.6813 97.47644 677.10315 97.367065Q677.4 97.273315 678.04065 97.19519Q679.3063 97.054565 679.91565 96.835815Q679.91565 96.617065 679.91565 96.57019Q679.91565 95.91394 679.6188 95.648315Q679.2125 95.304565 678.41565 95.304565Q677.6813 95.304565 677.3219 95.57019Q676.9625 95.82019 676.79065 96.47644L675.7594 96.335815Q675.9 95.679565 676.22815 95.273315Q676.5563 94.867065 677.16565 94.648315Q677.775 94.429565 678.5719 94.429565Q679.3688 94.429565 679.8688 94.617065Q680.3688 94.804565 680.60315 95.085815Q680.8375 95.367065 680.9313 95.804565Q680.97815 96.07019 680.97815 96.773315L680.97815 98.179565Q680.97815 99.648315 681.04065 100.03894Q681.1188 100.429565 681.3219 100.78894L680.2125 100.78894Q680.0563 100.460815 680.0094 100.023315ZM679.91565 97.66394Q679.3375 97.898315 678.1969 98.07019Q677.54065 98.16394 677.275 98.28894Q677.0094 98.398315 676.85315 98.617065Q676.7125 98.835815 676.7125 99.117065Q676.7125 99.53894 677.025 99.82019Q677.35315 100.10144 677.9625 100.10144Q678.5719 100.10144 679.04065 99.835815Q679.525 99.57019 679.7438 99.10144Q679.91565 98.742065 679.91565 98.054565L679.91565 97.66394ZM687.025 100.78894L687.025 99.867065Q686.29065 100.929565 685.04065 100.929565Q684.4938 100.929565 684.0094 100.72644Q683.54065 100.50769 683.3063 100.19519Q683.0719 99.867065 682.97815 99.398315Q682.91565 99.10144 682.91565 98.41394L682.91565 94.57019L683.97815 94.57019L683.97815 98.023315Q683.97815 98.835815 684.04065 99.13269Q684.1344 99.53894 684.4469 99.78894Q684.775 100.023315 685.2594 100.023315Q685.72815 100.023315 686.1344 99.78894Q686.5563 99.53894 686.72815 99.117065Q686.91565 98.69519 686.91565 97.898315L686.91565 94.57019L687.9625 94.57019L687.9625 100.78894L687.025 100.78894ZM693.97815 100.78894L693.97815 100.00769Q693.3844 100.929565 692.2438 100.929565Q691.4938 100.929565 690.8688 100.523315Q690.2438 100.10144 689.9 99.367065Q689.5563 98.63269 689.5563 97.679565Q689.5563 96.75769 689.8688 95.992065Q690.1813 95.22644 690.8063 94.835815Q691.4313 94.429565 692.1969 94.429565Q692.7594 94.429565 693.1969 94.66394Q693.6344 94.898315 693.91565 95.273315L693.91565 92.19519L694.9625 92.19519L694.9625 100.78894L693.97815 100.78894ZM690.65 97.679565Q690.65 98.88269 691.15 99.47644Q691.65 100.054565 692.3375 100.054565Q693.025 100.054565 693.5094 99.492065Q693.9938 98.929565 693.9938 97.773315Q693.9938 96.492065 693.4938 95.898315Q693.0094 95.304565 692.29065 95.304565Q691.5875 95.304565 691.1188 95.88269Q690.65 96.44519 690.65 97.679565ZM701.1969 98.78894L702.29065 98.91394Q702.04065 99.867065 701.3375 100.398315Q700.6344 100.929565 699.5563 100.929565Q698.1969 100.929565 697.3844 100.085815Q696.5875 99.242065 696.5875 97.72644Q696.5875 96.16394 697.4 95.304565Q698.2125 94.429565 699.4938 94.429565Q700.7438 94.429565 701.525 95.273315Q702.3219 96.117065 702.3219 97.66394Q702.3219 97.75769 702.3219 97.94519L697.6813 97.94519Q697.7438 98.97644 698.2594 99.523315Q698.775 100.054565 699.5563 100.054565Q700.1344 100.054565 700.54065 99.75769Q700.9625 99.44519 701.1969 98.78894ZM697.7438 97.085815L701.2125 97.085815Q701.15 96.28894 700.8219 95.898315Q700.3063 95.28894 699.5094 95.28894Q698.775 95.28894 698.275 95.773315Q697.79065 96.25769 697.7438 97.085815ZM703.65 98.523315L704.7125 98.38269Q704.8844 99.273315 705.3219 99.679565Q705.7594 100.07019 706.3844 100.07019Q707.1344 100.07019 707.65 99.554565Q708.16565 99.03894 708.16565 98.273315Q708.16565 97.554565 707.6813 97.085815Q707.2125 96.60144 706.47815 96.60144Q706.1813 96.60144 705.72815 96.72644L705.85315 95.78894Q705.9625 95.804565 706.025 95.804565Q706.6969 95.804565 707.22815 95.460815Q707.775 95.10144 707.775 94.367065Q707.775 93.78894 707.3844 93.41394Q706.9938 93.023315 706.3688 93.023315Q705.7594 93.023315 705.3375 93.41394Q704.9313 93.804565 704.8219 94.57019L703.7594 94.38269Q703.9469 93.335815 704.6344 92.75769Q705.3219 92.16394 706.3375 92.16394Q707.04065 92.16394 707.6344 92.47644Q708.22815 92.773315 708.54065 93.28894Q708.85315 93.804565 708.85315 94.398315Q708.85315 94.94519 708.5563 95.41394Q708.2594 95.867065 707.6813 96.13269Q708.4313 96.304565 708.85315 96.867065Q709.275 97.41394 709.275 98.25769Q709.275 99.38269 708.4469 100.16394Q707.6344 100.94519 706.3844 100.94519Q705.2594 100.94519 704.5094 100.273315Q703.7594 99.585815 703.65 98.523315Z" fill-rule="nonzero"/><path fill="#9e9e9e" d="M681.1969 116.773315L681.1969 117.78894L675.5094 117.78894Q675.5094 117.41394 675.6344 117.054565Q675.85315 116.47644 676.3219 115.91394Q676.8063 115.35144 677.7125 114.617065Q679.1188 113.460815 679.60315 112.78894Q680.10315 112.117065 680.10315 111.523315Q680.10315 110.898315 679.65 110.47644Q679.1969 110.03894 678.47815 110.03894Q677.7125 110.03894 677.2594 110.492065Q676.8063 110.94519 676.79065 111.75769L675.7125 111.648315Q675.8219 110.429565 676.54065 109.804565Q677.275 109.16394 678.5094 109.16394Q679.7438 109.16394 680.4625 109.85144Q681.1813 110.53894 681.1813 111.554565Q681.1813 112.07019 680.9625 112.57019Q680.7594 113.054565 680.2594 113.617065Q679.775 114.16394 678.65 115.117065Q677.6969 115.91394 677.41565 116.210815Q677.15 116.492065 676.97815 116.773315L681.1969 116.773315ZM682.65 113.554565Q682.65 112.023315 682.9625 111.10144Q683.275 110.16394 683.8844 109.66394Q684.5094 109.16394 685.4469 109.16394Q686.1344 109.16394 686.65 109.44519Q687.1813 109.72644 687.525 110.25769Q687.8688 110.773315 688.0563 111.523315Q688.2438 112.273315 688.2438 113.554565Q688.2438 115.07019 687.9313 115.992065Q687.6344 116.91394 687.0094 117.429565Q686.4 117.929565 685.4469 117.929565Q684.2125 117.929565 683.4938 117.03894Q682.65 115.97644 682.65 113.554565ZM683.72815 113.554565Q683.72815 115.66394 684.22815 116.367065Q684.72815 117.07019 685.4469 117.07019Q686.1813 117.07019 686.66565 116.367065Q687.16565 115.66394 687.16565 113.554565Q687.16565 111.429565 686.66565 110.742065Q686.1813 110.03894 685.4313 110.03894Q684.7125 110.03894 684.275 110.648315Q683.72815 111.429565 683.72815 113.554565ZM690.2438 117.78894L690.2438 116.585815L691.4469 116.585815L691.4469 117.78894L690.2438 117.78894ZM692.65 113.554565Q692.65 112.023315 692.9625 111.10144Q693.275 110.16394 693.8844 109.66394Q694.5094 109.16394 695.4469 109.16394Q696.1344 109.16394 696.65 109.44519Q697.1813 109.72644 697.525 110.25769Q697.8688 110.773315 698.0563 111.523315Q698.2438 112.273315 698.2438 113.554565Q698.2438 115.07019 697.9313 115.992065Q697.6344 116.91394 697.0094 117.429565Q696.4 117.929565 695.4469 117.929565Q694.2125 117.929565 693.4938 117.03894Q692.65 115.97644 692.65 113.554565ZM693.72815 113.554565Q693.72815 115.66394 694.22815 116.367065Q694.72815 117.07019 695.4469 117.07019Q696.1813 117.07019 696.66565 116.367065Q697.16565 115.66394 697.16565 113.554565Q697.16565 111.429565 696.66565 110.742065Q696.1813 110.03894 695.4313 110.03894Q694.7125 110.03894 694.275 110.648315Q693.72815 111.429565 693.72815 113.554565ZM699.85315 111.25769Q699.85315 110.335815 700.3063 109.69519Q700.775 109.054565 701.65 109.054565Q702.4625 109.054565 702.9938 109.63269Q703.525 110.210815 703.525 111.32019Q703.525 112.41394 702.97815 113.00769Q702.4469 113.585815 701.66565 113.585815Q700.8844 113.585815 700.3688 113.00769Q699.85315 112.429565 699.85315 111.25769ZM701.6813 109.773315Q701.29065 109.773315 701.025 110.117065Q700.775 110.460815 700.775 111.367065Q700.775 112.19519 701.025 112.53894Q701.29065 112.867065 701.6813 112.867065Q702.0875 112.867065 702.3375 112.523315Q702.60315 112.179565 702.60315 111.28894Q702.60315 110.44519 702.3375 110.117065Q702.0719 109.773315 701.6813 109.773315ZM701.6813 118.10144L706.3844 109.054565L707.2438 109.054565L702.5563 118.10144L701.6813 118.10144ZM705.4 115.773315Q705.4 114.85144 705.85315 114.210815Q706.3219 113.57019 707.2125 113.57019Q708.025 113.57019 708.5563 114.148315Q709.0875 114.710815 709.0875 115.835815Q709.0875 116.929565 708.54065 117.523315Q708.0094 118.10144 707.2125 118.10144Q706.4469 118.10144 705.91565 117.523315Q705.4 116.94519 705.4 115.773315ZM707.2438 114.28894Q706.8375 114.28894 706.5719 114.63269Q706.3219 114.97644 706.3219 115.88269Q706.3219 116.69519 706.5875 117.03894Q706.85315 117.38269 707.2438 117.38269Q707.6344 117.38269 707.9 117.03894Q708.16565 116.69519 708.16565 115.78894Q708.16565 114.960815 707.9 114.63269Q707.6344 114.28894 707.2438 114.28894Z" fill-rule="nonzero"/><path stroke="#757575" stroke-width="1.0" stroke-linecap="butt" d="M710.15 105.28894L558.5333 105.28894L470.58804 105.28894" fill-rule="nonzero"/><path fill="#9e9e9e" d="M472.58804 105.28894C472.58804 104.18437 471.69263 103.28894 470.58804 103.28894C469.4835 103.28894 468.58804 104.18437 468.58804 105.28894C468.58804 106.39351 469.4835 107.28894 470.58804 107.28894C471.69263 107.28894 472.58804 106.39351 472.58804 105.28894" fill-rule="nonzero"/><path fill="#1a1a1a" d="M678.2125 294.878L679.3375 295.17487Q678.97815 296.5655 678.0563 297.29987Q677.1344 298.03424 675.79065 298.03424Q674.4 298.03424 673.525 297.47174Q672.65 296.90924 672.1969 295.84674Q671.7438 294.76862 671.7438 293.53424Q671.7438 292.1905 672.2594 291.1905Q672.775 290.1905 673.7125 289.67487Q674.66565 289.15924 675.8063 289.15924Q677.0875 289.15924 677.9625 289.8155Q678.85315 290.47174 679.1969 291.65924L678.0719 291.92487Q677.775 290.98737 677.1969 290.5655Q676.6344 290.128 675.775 290.128Q674.79065 290.128 674.1188 290.61237Q673.4625 291.08112 673.1813 291.878Q672.91565 292.67487 672.91565 293.53424Q672.91565 294.628 673.22815 295.4405Q673.5563 296.253 674.22815 296.65924Q674.9 297.0655 675.6969 297.0655Q676.65 297.0655 677.3063 296.51862Q677.97815 295.97174 678.2125 294.878ZM680.5563 294.78424Q680.5563 293.04987 681.5094 292.22174Q682.3063 291.53424 683.4625 291.53424Q684.7438 291.53424 685.5563 292.378Q686.3844 293.20612 686.3844 294.6905Q686.3844 295.89362 686.025 296.58112Q685.66565 297.26862 684.9625 297.65924Q684.275 298.03424 683.4625 298.03424Q682.16565 298.03424 681.35315 297.20612Q680.5563 296.36237 680.5563 294.78424ZM681.6344 294.78424Q681.6344 295.97174 682.15 296.5655Q682.6813 297.15924 683.4625 297.15924Q684.2594 297.15924 684.775 296.5655Q685.29065 295.97174 685.29065 294.753Q685.29065 293.59674 684.7594 293.003Q684.2438 292.40924 683.4625 292.40924Q682.6813 292.40924 682.15 293.003Q681.6344 293.58112 681.6344 294.78424ZM687.9469 300.28424L687.9469 291.67487L688.9 291.67487L688.9 292.47174Q689.2438 292.003 689.66565 291.76862Q690.10315 291.53424 690.7125 291.53424Q691.5094 291.53424 692.1188 291.9405Q692.72815 292.34674 693.025 293.09674Q693.3375 293.84674 693.3375 294.73737Q693.3375 295.6905 692.9938 296.45612Q692.66565 297.22174 692.0094 297.628Q691.35315 298.03424 690.6344 298.03424Q690.10315 298.03424 689.6813 297.8155Q689.2594 297.58112 688.9938 297.253L688.9938 300.28424L687.9469 300.28424ZM688.9 294.8155Q688.9 296.01862 689.3844 296.59674Q689.8688 297.15924 690.5563 297.15924Q691.2594 297.15924 691.7594 296.5655Q692.2594 295.97174 692.2594 294.72174Q692.2594 293.53424 691.775 292.95612Q691.29065 292.36237 690.60315 292.36237Q689.9313 292.36237 689.41565 292.98737Q688.9 293.61237 688.9 294.8155ZM694.9469 290.51862L694.9469 289.29987L696.0094 289.29987L696.0094 290.51862L694.9469 290.51862ZM694.9469 297.89362L694.9469 291.67487L696.0094 291.67487L696.0094 297.89362L694.9469 297.89362ZM697.91565 297.89362L697.91565 289.29987L698.97815 289.29987L698.97815 297.89362L697.91565 297.89362ZM700.5563 294.78424Q700.5563 293.04987 701.5094 292.22174Q702.3063 291.53424 703.4625 291.53424Q704.7438 291.53424 705.5563 292.378Q706.3844 293.20612 706.3844 294.6905Q706.3844 295.89362 706.025 296.58112Q705.66565 297.26862 704.9625 297.65924Q704.275 298.03424 703.4625 298.03424Q702.16565 298.03424 701.35315 297.20612Q700.5563 296.36237 700.5563 294.78424ZM701.6344 294.78424Q701.6344 295.97174 702.15 296.5655Q702.6813 297.15924 703.4625 297.15924Q704.2594 297.15924 704.775 296.5655Q705.29065 295.97174 705.29065 294.753Q705.29065 293.59674 704.7594 293.003Q704.2438 292.40924 703.4625 292.40924Q702.6813 292.40924 702.15 293.003Q701.6344 293.58112 701.6344 294.78424ZM710.2438 296.95612L710.4 297.878Q709.9469 297.97174 709.60315 297.97174Q709.025 297.97174 708.7125 297.79987Q708.4 297.61237 708.2594 297.3155Q708.1344 297.01862 708.1344 296.0655L708.1344 292.48737L707.3688 292.48737L707.3688 291.67487L708.1344 291.67487L708.1344 290.128L709.1813 289.503L709.1813 291.67487L710.2438 291.67487L710.2438 292.48737L709.1813 292.48737L709.1813 296.128Q709.1813 296.58112 709.22815 296.70612Q709.29065 296.83112 709.41565 296.90924Q709.54065 296.98737 709.775 296.98737Q709.9625 296.98737 710.2438 296.95612Z" fill-rule="nonzero"/><path fill="#9e9e9e" d="M679.6188 314.89362L678.5719 314.89362L678.5719 308.17487Q678.1813 308.53424 677.5563 308.90924Q676.9469 309.26862 676.4625 309.4405L676.4625 308.42487Q677.3375 308.003 677.9938 307.42487Q678.66565 306.83112 678.9469 306.26862L679.6188 306.26862L679.6188 314.89362ZM682.8063 312.90924L683.8219 312.8155Q683.9469 313.53424 684.3063 313.86237Q684.6813 314.17487 685.2438 314.17487Q685.72815 314.17487 686.0875 313.95612Q686.4625 313.72174 686.6969 313.36237Q686.9313 312.98737 687.0875 312.36237Q687.2438 311.72174 687.2438 311.0655Q687.2438 310.98737 687.2438 310.84674Q686.9313 311.34674 686.3844 311.67487Q685.8375 311.98737 685.1969 311.98737Q684.1188 311.98737 683.3844 311.22174Q682.65 310.4405 682.65 309.17487Q682.65 307.86237 683.41565 307.0655Q684.1969 306.26862 685.35315 306.26862Q686.1813 306.26862 686.8688 306.72174Q687.5719 307.17487 687.9313 308.01862Q688.29065 308.84674 688.29065 310.42487Q688.29065 312.0655 687.9313 313.04987Q687.5875 314.01862 686.8688 314.53424Q686.16565 315.03424 685.22815 315.03424Q684.2125 315.03424 683.5719 314.48737Q682.9313 313.92487 682.8063 312.90924ZM687.1188 309.11237Q687.1188 308.20612 686.6344 307.67487Q686.16565 307.14362 685.47815 307.14362Q684.775 307.14362 684.2438 307.72174Q683.72815 308.28424 683.72815 309.20612Q683.72815 310.01862 684.22815 310.53424Q684.72815 311.04987 685.4469 311.04987Q686.1813 311.04987 686.65 310.53424Q687.1188 310.01862 687.1188 309.11237ZM690.2438 314.89362L690.2438 313.6905L691.4469 313.6905L691.4469 314.89362L690.2438 314.89362ZM694.275 310.23737Q693.6188 309.98737 693.29065 309.54987Q692.97815 309.09674 692.97815 308.48737Q692.97815 307.54987 693.65 306.90924Q694.3375 306.26862 695.4469 306.26862Q696.5719 306.26862 697.2594 306.92487Q697.9469 307.58112 697.9469 308.51862Q697.9469 309.11237 697.6344 309.54987Q697.3219 309.98737 696.6813 310.23737Q697.47815 310.48737 697.8844 311.0655Q698.29065 311.64362 698.29065 312.4405Q698.29065 313.53424 697.5094 314.28424Q696.7438 315.03424 695.4625 315.03424Q694.1969 315.03424 693.41565 314.28424Q692.6344 313.53424 692.6344 312.40924Q692.6344 311.5655 693.0563 311.003Q693.4938 310.4405 694.275 310.23737ZM694.0563 308.4405Q694.0563 309.04987 694.4469 309.4405Q694.85315 309.83112 695.47815 309.83112Q696.0875 309.83112 696.47815 309.45612Q696.8688 309.0655 696.8688 308.503Q696.8688 307.92487 696.4625 307.53424Q696.0563 307.128 695.4625 307.128Q694.85315 307.128 694.4469 307.51862Q694.0563 307.90924 694.0563 308.4405ZM693.72815 312.40924Q693.72815 312.86237 693.9313 313.28424Q694.15 313.70612 694.5719 313.9405Q694.9938 314.17487 695.47815 314.17487Q696.22815 314.17487 696.7125 313.6905Q697.2125 313.20612 697.2125 312.45612Q697.2125 311.6905 696.7125 311.1905Q696.2125 310.6905 695.4469 310.6905Q694.6969 310.6905 694.2125 311.1905Q693.72815 311.67487 693.72815 312.40924ZM699.85315 308.36237Q699.85315 307.4405 700.3063 306.79987Q700.775 306.15924 701.65 306.15924Q702.4625 306.15924 702.9938 306.73737Q703.525 307.3155 703.525 308.42487Q703.525 309.51862 702.97815 310.11237Q702.4469 310.6905 701.66565 310.6905Q700.8844 310.6905 700.3688 310.11237Q699.85315 309.53424 699.85315 308.36237ZM701.6813 306.878Q701.29065 306.878 701.025 307.22174Q700.775 307.5655 700.775 308.47174Q700.775 309.29987 701.025 309.64362Q701.29065 309.97174 701.6813 309.97174Q702.0875 309.97174 702.3375 309.628Q702.60315 309.28424 702.60315 308.39362Q702.60315 307.54987 702.3375 307.22174Q702.0719 306.878 701.6813 306.878ZM701.6813 315.20612L706.3844 306.15924L707.2438 306.15924L702.5563 315.20612L701.6813 315.20612ZM705.4 312.878Q705.4 311.95612 705.85315 311.3155Q706.3219 310.67487 707.2125 310.67487Q708.025 310.67487 708.5563 311.253Q709.0875 311.8155 709.0875 312.9405Q709.0875 314.03424 708.54065 314.628Q708.0094 315.20612 707.2125 315.20612Q706.4469 315.20612 705.91565 314.628Q705.4 314.04987 705.4 312.878ZM707.2438 311.39362Q706.8375 311.39362 706.5719 311.73737Q706.3219 312.08112 706.3219 312.98737Q706.3219 313.79987 706.5875 314.14362Q706.85315 314.48737 707.2438 314.48737Q707.6344 314.48737 707.9 314.14362Q708.16565 313.79987 708.16565 312.89362Q708.16565 312.0655 707.9 311.73737Q707.6344 311.39362 707.2438 311.39362Z" fill-rule="nonzero"/><path stroke="#757575" stroke-width="1.0" stroke-linecap="butt" d="M710.15 302.39362L558.5333 302.39362L534.6907 302.39362" fill-rule="nonzero"/><path fill="#9e9e9e" d="M536.6907 302.39362C536.6907 301.28903 535.7952 300.39362 534.6907 300.39362C533.58606 300.39362 532.6907 301.28903 532.6907 302.39362C532.6907 303.49817 533.58606 304.39362 534.6907 304.39362C535.7952 304.39362 536.6907 303.49817 536.6907 302.39362" fill-rule="nonzero"/><path fill="#1a1a1a" d="M675.10315 410.775L675.10315 409.775L678.72815 409.75937L678.72815 412.94687Q677.9 413.61874 677.0094 413.9625Q676.1188 414.29062 675.1813 414.29062Q673.91565 414.29062 672.8688 413.75937Q671.8375 413.2125 671.3063 412.19687Q670.79065 411.16562 670.79065 409.9Q670.79065 408.63437 671.3063 407.55624Q671.8375 406.4625 672.8219 405.94687Q673.8063 405.41562 675.0875 405.41562Q676.025 405.41562 676.775 405.7125Q677.525 406.00937 677.9469 406.55624Q678.3844 407.0875 678.60315 407.9625L677.5875 408.24374Q677.3844 407.5875 677.0875 407.2125Q676.8063 406.8375 676.275 406.61874Q675.7438 406.38437 675.10315 406.38437Q674.3219 406.38437 673.7438 406.61874Q673.1813 406.85312 672.8219 407.24374Q672.47815 407.63437 672.29065 408.10312Q671.9625 408.9 671.9625 409.82187Q671.9625 410.97812 672.35315 411.75937Q672.7594 412.525 673.5094 412.9Q674.2594 413.275 675.1188 413.275Q675.85315 413.275 676.5563 412.99374Q677.2594 412.69687 677.6188 412.38437L677.6188 410.775L675.10315 410.775ZM684.1969 412.15L685.29065 412.275Q685.04065 413.22812 684.3375 413.75937Q683.6344 414.29062 682.5563 414.29062Q681.1969 414.29062 680.3844 413.44687Q679.5875 412.60312 679.5875 411.0875Q679.5875 409.525 680.4 408.66562Q681.2125 407.79062 682.4938 407.79062Q683.7438 407.79062 684.525 408.63437Q685.3219 409.47812 685.3219 411.025Q685.3219 411.11874 685.3219 411.30624L680.6813 411.30624Q680.7438 412.3375 681.2594 412.88437Q681.775 413.41562 682.5563 413.41562Q683.1344 413.41562 683.54065 413.11874Q683.9625 412.80624 684.1969 412.15ZM680.7438 410.44687L684.2125 410.44687Q684.15 409.65 683.8219 409.25937Q683.3063 408.65 682.5094 408.65Q681.775 408.65 681.275 409.13437Q680.79065 409.61874 680.7438 410.44687ZM686.9469 414.15L686.9469 407.93124L687.8844 407.93124L687.8844 408.80624Q688.1813 408.3375 688.66565 408.07187Q689.15 407.79062 689.775 407.79062Q690.4625 407.79062 690.9 408.07187Q691.35315 408.35312 691.525 408.86874Q692.275 407.79062 693.4469 407.79062Q694.3844 407.79062 694.8688 408.30624Q695.3688 408.80624 695.3688 409.88437L695.3688 414.15L694.3219 414.15L694.3219 410.22812Q694.3219 409.60312 694.2125 409.32187Q694.1188 409.04062 693.85315 408.86874Q693.5875 408.69687 693.2125 408.69687Q692.5563 408.69687 692.1188 409.13437Q691.6969 409.57187 691.6969 410.54062L691.6969 414.15L690.6344 414.15L690.6344 410.10312Q690.6344 409.4 690.3688 409.05624Q690.1188 408.69687 689.54065 408.69687Q689.0875 408.69687 688.7125 408.93124Q688.3375 409.16562 688.16565 409.61874Q687.9938 410.07187 687.9938 410.91562L687.9938 414.15L686.9469 414.15ZM697.9469 406.775L697.9469 405.55624L699.0094 405.55624L699.0094 406.775L697.9469 406.775ZM697.9469 414.15L697.9469 407.93124L699.0094 407.93124L699.0094 414.15L697.9469 414.15ZM700.9469 414.15L700.9469 407.93124L701.8844 407.93124L701.8844 408.80624Q702.5719 407.79062 703.8688 407.79062Q704.4313 407.79062 704.9 407.99374Q705.3844 408.19687 705.6188 408.525Q705.85315 408.85312 705.9469 409.29062Q705.9938 409.5875 705.9938 410.32187L705.9938 414.15L704.9469 414.15L704.9469 410.36874Q704.9469 409.7125 704.8219 409.4Q704.6969 409.0875 704.3844 408.9Q704.0719 408.69687 703.65 408.69687Q702.97815 408.69687 702.47815 409.13437Q701.9938 409.55624 701.9938 410.74374L701.9938 414.15L700.9469 414.15ZM707.9469 406.775L707.9469 405.55624L709.0094 405.55624L709.0094 406.775L707.9469 406.775ZM707.9469 414.15L707.9469 407.93124L709.0094 407.93124L709.0094 414.15L707.9469 414.15Z" fill-rule="nonzero"/><path fill="#9e9e9e" d="M681.1969 430.13437L681.1969 431.15L675.5094 431.15Q675.5094 430.775 675.6344 430.41562Q675.85315 429.8375 676.3219 429.275Q676.8063 428.7125 677.7125 427.97812Q679.1188 426.82187 679.60315 426.15Q680.10315 425.47812 680.10315 424.88437Q680.10315 424.25937 679.65 423.8375Q679.1969 423.4 678.47815 423.4Q677.7125 423.4 677.2594 423.85312Q676.8063 424.30624 676.79065 425.11874L675.7125 425.00937Q675.8219 423.79062 676.54065 423.16562Q677.275 422.525 678.5094 422.525Q679.7438 422.525 680.4625 423.2125Q681.1813 423.9 681.1813 424.91562Q681.1813 425.43124 680.9625 425.93124Q680.7594 426.41562 680.2594 426.97812Q679.775 427.525 678.65 428.47812Q677.6969 429.275 677.41565 429.57187Q677.15 429.85312 676.97815 430.13437L681.1969 430.13437ZM682.65 426.91562Q682.65 425.38437 682.9625 424.4625Q683.275 423.525 683.8844 423.025Q684.5094 422.525 685.4469 422.525Q686.1344 422.525 686.65 422.80624Q687.1813 423.0875 687.525 423.61874Q687.8688 424.13437 688.0563 424.88437Q688.2438 425.63437 688.2438 426.91562Q688.2438 428.43124 687.9313 429.35312Q687.6344 430.275 687.0094 430.79062Q686.4 431.29062 685.4469 431.29062Q684.2125 431.29062 683.4938 430.4Q682.65 429.3375 682.65 426.91562ZM683.72815 426.91562Q683.72815 429.025 684.22815 429.72812Q684.72815 430.43124 685.4469 430.43124Q686.1813 430.43124 686.66565 429.72812Q687.16565 429.025 687.16565 426.91562Q687.16565 424.79062 686.66565 424.10312Q686.1813 423.4 685.4313 423.4Q684.7125 423.4 684.275 424.00937Q683.72815 424.79062 683.72815 426.91562ZM690.2438 431.15L690.2438 429.94687L691.4469 429.94687L691.4469 431.15L690.2438 431.15ZM692.65 426.91562Q692.65 425.38437 692.9625 424.4625Q693.275 423.525 693.8844 423.025Q694.5094 422.525 695.4469 422.525Q696.1344 422.525 696.65 422.80624Q697.1813 423.0875 697.525 423.61874Q697.8688 424.13437 698.0563 424.88437Q698.2438 425.63437 698.2438 426.91562Q698.2438 428.43124 697.9313 429.35312Q697.6344 430.275 697.0094 430.79062Q696.4 431.29062 695.4469 431.29062Q694.2125 431.29062 693.4938 430.4Q692.65 429.3375 692.65 426.91562ZM693.72815 426.91562Q693.72815 429.025 694.22815 429.72812Q694.72815 430.43124 695.4469 430.43124Q696.1813 430.43124 696.66565 429.72812Q697.16565 429.025 697.16565 426.91562Q697.16565 424.79062 696.66565 424.10312Q696.1813 423.4 695.4313 423.4Q694.7125 423.4 694.275 424.00937Q693.72815 424.79062 693.72815 426.91562ZM699.85315 424.61874Q699.85315 423.69687 700.3063 423.05624Q700.775 422.41562 701.65 422.41562Q702.4625 422.41562 702.9938 422.99374Q703.525 423.57187 703.525 424.68124Q703.525 425.775 702.97815 426.36874Q702.4469 426.94687 701.66565 426.94687Q700.8844 426.94687 700.3688 426.36874Q699.85315 425.79062 699.85315 424.61874ZM701.6813 423.13437Q701.29065 423.13437 701.025 423.47812Q700.775 423.82187 700.775 424.72812Q700.775 425.55624 701.025 425.9Q701.29065 426.22812 701.6813 426.22812Q702.0875 426.22812 702.3375 425.88437Q702.60315 425.54062 702.60315 424.65Q702.60315 423.80624 702.3375 423.47812Q702.0719 423.13437 701.6813 423.13437ZM701.6813 431.4625L706.3844 422.41562L707.2438 422.41562L702.5563 431.4625L701.6813 431.4625ZM705.4 429.13437Q705.4 428.2125 705.85315 427.57187Q706.3219 426.93124 707.2125 426.93124Q708.025 426.93124 708.5563 427.50937Q709.0875 428.07187 709.0875 429.19687Q709.0875 430.29062 708.54065 430.88437Q708.0094 431.4625 707.2125 431.4625Q706.4469 431.4625 705.91565 430.88437Q705.4 430.30624 705.4 429.13437ZM707.2438 427.65Q706.8375 427.65 706.5719 427.99374Q706.3219 428.3375 706.3219 429.24374Q706.3219 430.05624 706.5875 430.4Q706.85315 430.74374 707.2438 430.74374Q707.6344 430.74374 707.9 430.4Q708.16565 430.05624 708.16565 429.15Q708.16565 428.32187 707.9 427.99374Q707.6344 427.65 707.2438 427.65Z" fill-rule="nonzero"/><path stroke="#757575" stroke-width="1.0" stroke-linecap="butt" d="M710.15 418.65L558.5333 418.65L367.62424 424.84476" fill-rule="nonzero"/><path fill="#9e9e9e" d="M369.62424 424.84476C369.62424 423.74017 368.72882 422.84476 367.62424 422.84476C366.51968 422.84476 365.62424 423.74017 365.62424 424.84476C365.62424 425.94934 366.51968 426.84476 367.62424 426.84476C368.72882 426.84476 369.62424 425.94934 369.62424 424.84476" fill-rule="nonzero"/><path fill="#757575" d="M22.81875 41.85L28.31875 27.537498L30.365625 27.537498L36.225 41.85L34.06875 41.85L32.396873 37.50625L26.4125 37.50625L24.834375 41.85L22.81875 41.85ZM26.959375 35.975L31.803125 35.975L30.31875 32.00625Q29.63125 30.193748 29.303125 29.037498Q29.021875 30.412498 28.521875 31.771873L26.959375 35.975ZM40.053123 41.85L36.1 31.474998L37.959373 31.474998L40.19375 37.69375Q40.553123 38.69375 40.85 39.771873Q41.084373 38.959373 41.50625 37.803123L43.803123 31.474998L45.615623 31.474998L41.69375 41.85L40.053123 41.85ZM53.271873 38.50625L55.084373 38.740623Q54.6625 40.31875 53.490623 41.209373Q52.334373 42.084373 50.521873 42.084373Q48.25625 42.084373 46.9125 40.69375Q45.584373 39.2875 45.584373 36.75625Q45.584373 34.13125 46.928123 32.69375Q48.271873 31.240623 50.428123 31.240623Q52.50625 31.240623 53.81875 32.6625Q55.146873 34.06875 55.146873 36.646873Q55.146873 36.803123 55.13125 37.115623L47.396873 37.115623Q47.490623 38.81875 48.365623 39.725Q49.240623 40.63125 50.5375 40.63125Q51.50625 40.63125 52.178123 40.13125Q52.865623 39.615623 53.271873 38.50625ZM47.490623 35.6625L53.2875 35.6625Q53.178123 34.365623 52.63125 33.709373Q51.7875 32.69375 50.44375 32.69375Q49.240623 32.69375 48.4125 33.50625Q47.584373 34.303123 47.490623 35.6625ZM57.146873 41.85L57.146873 31.474998L58.725 31.474998L58.725 33.053123Q59.334373 31.943748 59.85 31.599998Q60.365623 31.240623 60.975 31.240623Q61.865623 31.240623 62.7875 31.803123L62.178123 33.44375Q61.5375 33.053123 60.896873 33.053123Q60.31875 33.053123 59.85 33.4125Q59.396873 33.75625 59.19375 34.365623Q58.9125 35.303123 58.9125 36.4125L58.9125 41.85L57.146873 41.85ZM70.94375 40.56875Q69.95937 41.396873 69.05312 41.740623Q68.14687 42.084373 67.11562 42.084373Q65.4125 42.084373 64.49062 41.25625Q63.56875 40.4125 63.56875 39.115623Q63.56875 38.35 63.9125 37.725Q64.27187 37.1 64.83437 36.725Q65.39687 36.334373 66.1 36.13125Q66.61562 36.00625 67.6625 35.865623Q69.7875 35.615623 70.7875 35.271873Q70.80312 34.9125 70.80312 34.803123Q70.80312 33.740623 70.30312 33.2875Q69.63125 32.69375 68.30312 32.69375Q67.05312 32.69375 66.45937 33.13125Q65.88125 33.56875 65.6 34.678123L63.88125 34.44375Q64.11562 33.334373 64.64687 32.6625Q65.17812 31.974998 66.19375 31.615623Q67.20937 31.240623 68.55312 31.240623Q69.88125 31.240623 70.70937 31.553123Q71.5375 31.865623 71.92812 32.35Q72.31875 32.81875 72.475 33.5375Q72.56875 33.990623 72.56875 35.1625L72.56875 37.50625Q72.56875 39.959373 72.67812 40.615623Q72.7875 41.25625 73.13125 41.85L71.2875 41.85Q71.02187 41.303123 70.94375 40.56875ZM70.7875 36.646873Q69.83437 37.0375 67.9125 37.303123Q66.83437 37.459373 66.38125 37.6625Q65.94375 37.85 65.69375 38.225Q65.44375 38.6 65.44375 39.06875Q65.44375 39.771873 65.975 40.240623Q66.50625 40.709373 67.5375 40.709373Q68.55312 40.709373 69.33437 40.271873Q70.13125 39.81875 70.50625 39.053123Q70.7875 38.44375 70.7875 37.2875L70.7875 36.646873ZM74.85 42.709373L76.55312 42.959373Q76.6625 43.75625 77.14687 44.115623Q77.80312 44.6 78.94375 44.6Q80.1625 44.6 80.81875 44.115623Q81.49062 43.63125 81.725 42.75625Q81.86562 42.209373 81.85 40.490623Q80.69375 41.85 78.975 41.85Q76.83437 41.85 75.6625 40.303123Q74.49062 38.75625 74.49062 36.6Q74.49062 35.115623 75.02187 33.865623Q75.56875 32.615623 76.58437 31.928123Q77.61562 31.240623 78.99062 31.240623Q80.81875 31.240623 82.02187 32.725L82.02187 31.474998L83.63125 31.474998L83.63125 40.44375Q83.63125 42.865623 83.13125 43.865623Q82.64687 44.88125 81.56875 45.459373Q80.50625 46.053123 78.94375 46.053123Q77.1 46.053123 75.94375 45.225Q74.80312 44.396873 74.85 42.709373ZM76.30312 36.475Q76.30312 38.521873 77.11562 39.459373Q77.92812 40.396873 79.14687 40.396873Q80.35 40.396873 81.1625 39.459373Q81.99062 38.521873 81.99062 36.5375Q81.99062 34.63125 81.14687 33.6625Q80.30312 32.69375 79.11562 32.69375Q77.94375 32.69375 77.11562 33.646873Q76.30312 34.6 76.30312 36.475ZM93.27187 38.50625L95.08437 38.740623Q94.6625 40.31875 93.49062 41.209373Q92.33437 42.084373 90.52187 42.084373Q88.25625 42.084373 86.9125 40.69375Q85.58437 39.2875 85.58437 36.75625Q85.58437 34.13125 86.92812 32.69375Q88.27187 31.240623 90.42812 31.240623Q92.50625 31.240623 93.81875 32.6625Q95.14687 34.06875 95.14687 36.646873Q95.14687 36.803123 95.13125 37.115623L87.39687 37.115623Q87.49062 38.81875 88.36562 39.725Q89.24062 40.63125 90.5375 40.63125Q91.50625 40.63125 92.17812 40.13125Q92.86562 39.615623 93.27187 38.50625ZM87.49062 35.6625L93.2875 35.6625Q93.17812 34.365623 92.63125 33.709373Q91.7875 32.69375 90.44375 32.69375Q89.24062 32.69375 88.4125 33.50625Q87.58437 34.303123 87.49062 35.6625ZM103.39687 41.85L103.39687 27.537498L108.31875 27.537498Q109.99062 27.537498 110.88125 27.740623Q112.1 28.021873 112.975 28.756248Q114.1 29.724998 114.6625 31.209373Q115.225 32.69375 115.225 34.615623Q115.225 36.240623 114.85 37.50625Q114.475 38.75625 113.86562 39.584373Q113.27187 40.4125 112.56875 40.896873Q111.86562 41.365623 110.86562 41.615623Q109.86562 41.85 108.55312 41.85L103.39687 41.85ZM105.2875 40.1625L108.35 40.1625Q109.75625 40.1625 110.55312 39.896873Q111.36562 39.63125 111.85 39.146873Q112.52187 38.475 112.89687 37.35Q113.27187 36.209373 113.27187 34.584373Q113.27187 32.334373 112.5375 31.131248Q111.80312 29.928123 110.74062 29.521873Q109.99062 29.224998 108.30312 29.224998L105.2875 29.224998L105.2875 40.1625ZM123.94375 40.56875Q122.95937 41.396873 122.05312 41.740623Q121.14687 42.084373 120.11562 42.084373Q118.4125 42.084373 117.49062 41.25625Q116.56875 40.4125 116.56875 39.115623Q116.56875 38.35 116.9125 37.725Q117.27187 37.1 117.83437 36.725Q118.39687 36.334373 119.1 36.13125Q119.61562 36.00625 120.6625 35.865623Q122.7875 35.615623 123.7875 35.271873Q123.80312 34.9125 123.80312 34.803123Q123.80312 33.740623 123.30312 33.2875Q122.63125 32.69375 121.30312 32.69375Q120.05312 32.69375 119.45937 33.13125Q118.88125 33.56875 118.6 34.678123L116.88125 34.44375Q117.11562 33.334373 117.64687 32.6625Q118.17812 31.974998 119.19375 31.615623Q120.20937 31.240623 121.55312 31.240623Q122.88125 31.240623 123.70937 31.553123Q124.5375 31.865623 124.92812 32.35Q125.31875 32.81875 125.475 33.5375Q125.56875 33.990623 125.56875 35.1625L125.56875 37.50625Q125.56875 39.959373 125.67812 40.615623Q125.7875 41.25625 126.13125 41.85L124.2875 41.85Q124.02187 41.303123 123.94375 40.56875ZM123.7875 36.646873Q122.83437 37.0375 120.9125 37.303123Q119.83437 37.459373 119.38125 37.6625Q118.94375 37.85 118.69375 38.225Q118.44375 38.6 118.44375 39.06875Q118.44375 39.771873 118.975 40.240623Q119.50625 40.709373 120.5375 40.709373Q121.55312 40.709373 122.33437 40.271873Q123.13125 39.81875 123.50625 39.053123Q123.7875 38.44375 123.7875 37.2875L123.7875 36.646873ZM128.13126 41.85L128.13126 27.537498L129.88126 27.537498L129.88126 41.85L128.13126 41.85ZM132.13126 41.85L132.13126 27.537498L133.88126 27.537498L133.88126 41.85L132.13126 41.85ZM135.49063 37.553123L135.49063 35.7875L140.88126 35.7875L140.88126 37.553123L135.49063 37.553123ZM150.27188 38.50625L152.08438 38.740623Q151.6625 40.31875 150.49063 41.209373Q149.33438 42.084373 147.52188 42.084373Q145.25626 42.084373 143.9125 40.69375Q142.58438 39.2875 142.58438 36.75625Q142.58438 34.13125 143.92813 32.69375Q145.27188 31.240623 147.42813 31.240623Q149.50626 31.240623 150.81876 32.6625Q152.14688 34.06875 152.14688 36.646873Q152.14688 36.803123 152.13126 37.115623L144.39688 37.115623Q144.49063 38.81875 145.36563 39.725Q146.24063 40.63125 147.5375 40.63125Q148.50626 40.63125 149.17813 40.13125Q149.86563 39.615623 150.27188 38.50625ZM144.49063 35.6625L150.2875 35.6625Q150.17813 34.365623 149.63126 33.709373Q148.7875 32.69375 147.44376 32.69375Q146.24063 32.69375 145.4125 33.50625Q144.58438 34.303123 144.49063 35.6625ZM159.45938 38.75625L161.20938 38.475Q161.35 39.521873 162.02188 40.084373Q162.69376 40.63125 163.89688 40.63125Q165.1 40.63125 165.67813 40.146873Q166.27188 39.646873 166.27188 38.990623Q166.27188 38.396873 165.75626 38.053123Q165.39688 37.81875 163.95938 37.459373Q162.02188 36.959373 161.27188 36.615623Q160.5375 36.25625 160.14688 35.63125Q159.75626 34.990623 159.75626 34.225Q159.75626 33.5375 160.06876 32.94375Q160.39688 32.35 160.94376 31.959373Q161.35 31.662498 162.05313 31.459373Q162.77188 31.240623 163.58438 31.240623Q164.80313 31.240623 165.725 31.599998Q166.64688 31.943748 167.08438 32.553123Q167.52188 33.146873 167.69376 34.146873L165.975 34.38125Q165.85 33.584373 165.2875 33.146873Q164.725 32.69375 163.70938 32.69375Q162.49063 32.69375 161.975 33.1Q161.45938 33.490623 161.45938 34.021873Q161.45938 34.365623 161.67813 34.646873Q161.88126 34.928123 162.35 35.115623Q162.61563 35.209373 163.89688 35.553123Q165.77188 36.053123 166.50626 36.38125Q167.24063 36.69375 167.6625 37.303123Q168.08438 37.896873 168.08438 38.803123Q168.08438 39.678123 167.56876 40.459373Q167.05313 41.240623 166.08438 41.6625Q165.11563 42.084373 163.89688 42.084373Q161.88126 42.084373 160.81876 41.240623Q159.75626 40.396873 159.45938 38.75625ZM176.94376 38.053123L178.6625 38.271873Q178.38126 40.06875 177.20938 41.084373Q176.05313 42.084373 174.35 42.084373Q172.225 42.084373 170.92813 40.69375Q169.63126 39.303123 169.63126 36.709373Q169.63126 35.021873 170.17813 33.771873Q170.74063 32.50625 171.88126 31.881248Q173.02188 31.240623 174.36563 31.240623Q176.05313 31.240623 177.11563 32.1Q178.19376 32.959373 178.50626 34.521873L176.7875 34.7875Q176.55313 33.740623 175.92813 33.225Q175.30313 32.69375 174.42813 32.69375Q173.1 32.69375 172.27188 33.646873Q171.44376 34.6 171.44376 36.646873Q171.44376 38.740623 172.24063 39.69375Q173.0375 40.63125 174.33438 40.63125Q175.36563 40.63125 176.05313 40.00625Q176.75626 39.365623 176.94376 38.053123ZM179.52188 36.6625Q179.52188 33.7875 181.11563 32.396873Q182.45938 31.240623 184.38126 31.240623Q186.52188 31.240623 187.86563 32.646873Q189.225 34.053123 189.225 36.521873Q189.225 38.521873 188.63126 39.678123Q188.0375 40.81875 186.88126 41.459373Q185.74063 42.084373 184.38126 42.084373Q182.19376 42.084373 180.85 40.69375Q179.52188 39.2875 179.52188 36.6625ZM181.31876 36.6625Q181.31876 38.6625 182.17813 39.646873Q183.05313 40.63125 184.38126 40.63125Q185.69376 40.63125 186.55313 39.646873Q187.42813 38.646873 187.42813 36.6Q187.42813 34.678123 186.55313 33.69375Q185.67813 32.69375 184.38126 32.69375Q183.05313 32.69375 182.17813 33.69375Q181.31876 34.678123 181.31876 36.6625ZM191.14688 41.85L191.14688 31.474998L192.725 31.474998L192.725 33.053123Q193.33438 31.943748 193.85 31.599998Q194.36563 31.240623 194.975 31.240623Q195.86563 31.240623 196.7875 31.803123L196.17813 33.44375Q195.5375 33.053123 194.89688 33.053123Q194.31876 33.053123 193.85 33.4125Q193.39688 33.75625 193.19376 34.365623Q192.9125 35.303123 192.9125 36.4125L192.9125 41.85L191.14688 41.85ZM205.27188 38.50625L207.08438 38.740623Q206.6625 40.31875 205.49063 41.209373Q204.33438 42.084373 202.52188 42.084373Q200.25626 42.084373 198.9125 40.69375Q197.58438 39.2875 197.58438 36.75625Q197.58438 34.13125 198.92813 32.69375Q200.27188 31.240623 202.42813 31.240623Q204.50626 31.240623 205.81876 32.6625Q207.14688 34.06875 207.14688 36.646873Q207.14688 36.803123 207.13126 37.115623L199.39688 37.115623Q199.49063 38.81875 200.36563 39.725Q201.24063 40.63125 202.5375 40.63125Q203.50626 40.63125 204.17813 40.13125Q204.86563 39.615623 205.27188 38.50625ZM199.49063 35.6625L205.2875 35.6625Q205.17813 34.365623 204.63126 33.709373Q203.7875 32.69375 202.44376 32.69375Q201.24063 32.69375 200.4125 33.50625Q199.58438 34.303123 199.49063 35.6625ZM216.7875 41.85L215.1625 41.85L215.1625 27.537498L216.9125 27.537498L216.9125 32.646873Q218.0375 31.240623 219.75626 31.240623Q220.70938 31.240623 221.56876 31.631248Q222.42813 32.021873 222.975 32.725Q223.52188 33.4125 223.83438 34.396873Q224.14688 35.38125 224.14688 36.50625Q224.14688 39.178123 222.83438 40.63125Q221.52188 42.084373 219.67813 42.084373Q217.83438 42.084373 216.7875 40.553123L216.7875 41.85ZM216.77188 36.584373Q216.77188 38.44375 217.27188 39.2875Q218.11563 40.63125 219.52188 40.63125Q220.67813 40.63125 221.50626 39.63125Q222.35 38.63125 222.35 36.646873Q222.35 34.615623 221.5375 33.6625Q220.74063 32.69375 219.6 32.69375Q218.44376 32.69375 217.6 33.69375Q216.77188 34.69375 216.77188 36.584373ZM226.08438 45.85L225.89688 44.19375Q226.475 44.35 226.89688 44.35Q227.49063 44.35 227.83438 44.146873Q228.19376 43.959373 228.4125 43.615623Q228.58438 43.35 228.95938 42.303123Q229.00626 42.146873 229.11563 41.865623L225.17813 31.474998L227.06876 31.474998L229.225 37.490623Q229.64688 38.63125 229.975 39.88125Q230.2875 38.678123 230.69376 37.521873L232.9125 31.474998L234.67813 31.474998L230.725 42.021873Q230.1 43.740623 229.74063 44.38125Q229.27188 45.25625 228.6625 45.646873Q228.06876 46.053123 227.225 46.053123Q226.70938 46.053123 226.08438 45.85ZM248.94376 40.56875Q247.95938 41.396873 247.05313 41.740623Q246.14688 42.084373 245.11563 42.084373Q243.4125 42.084373 242.49063 41.25625Q241.56876 40.4125 241.56876 39.115623Q241.56876 38.35 241.9125 37.725Q242.27188 37.1 242.83438 36.725Q243.39688 36.334373 244.1 36.13125Q244.61563 36.00625 245.6625 35.865623Q247.7875 35.615623 248.7875 35.271873Q248.80313 34.9125 248.80313 34.803123Q248.80313 33.740623 248.30313 33.2875Q247.63126 32.69375 246.30313 32.69375Q245.05313 32.69375 244.45938 33.13125Q243.88126 33.56875 243.6 34.678123L241.88126 34.44375Q242.11563 33.334373 242.64688 32.6625Q243.17813 31.974998 244.19376 31.615623Q245.20938 31.240623 246.55313 31.240623Q247.88126 31.240623 248.70938 31.553123Q249.5375 31.865623 249.92813 32.35Q250.31876 32.81875 250.475 33.5375Q250.56876 33.990623 250.56876 35.1625L250.56876 37.50625Q250.56876 39.959373 250.67813 40.615623Q250.7875 41.25625 251.13126 41.85L249.2875 41.85Q249.02188 41.303123 248.94376 40.56875ZM248.7875 36.646873Q247.83438 37.0375 245.9125 37.303123Q244.83438 37.459373 244.38126 37.6625Q243.94376 37.85 243.69376 38.225Q243.44376 38.6 243.44376 39.06875Q243.44376 39.771873 243.975 40.240623Q244.50626 40.709373 245.5375 40.709373Q246.55313 40.709373 247.33438 40.271873Q248.13126 39.81875 248.50626 39.053123Q248.7875 38.44375 248.7875 37.2875L248.7875 36.646873ZM253.13126 41.85L253.13126 27.537498L254.88126 27.537498L254.88126 41.85L253.13126 41.85ZM256.85 42.709373L258.55313 42.959373Q258.6625 43.75625 259.14688 44.115623Q259.80313 44.6 260.94376 44.6Q262.1625 44.6 262.81876 44.115623Q263.49063 43.63125 263.725 42.75625Q263.86563 42.209373 263.85 40.490623Q262.69376 41.85 260.975 41.85Q258.83438 41.85 257.6625 40.303123Q256.49063 38.75625 256.49063 36.6Q256.49063 35.115623 257.02188 33.865623Q257.56876 32.615623 258.58438 31.928123Q259.61563 31.240623 260.99063 31.240623Q262.81876 31.240623 264.02188 32.725L264.02188 31.474998L265.63126 31.474998L265.63126 40.44375Q265.63126 42.865623 265.13126 43.865623Q264.64688 44.88125 263.56876 45.459373Q262.50626 46.053123 260.94376 46.053123Q259.1 46.053123 257.94376 45.225Q256.80313 44.396873 256.85 42.709373ZM258.30313 36.475Q258.30313 38.521873 259.11563 39.459373Q259.92813 40.396873 261.14688 40.396873Q262.35 40.396873 263.1625 39.459373Q263.99063 38.521873 263.99063 36.5375Q263.99063 34.63125 263.14688 33.6625Q262.30313 32.69375 261.11563 32.69375Q259.94376 32.69375 259.11563 33.646873Q258.30313 34.6 258.30313 36.475ZM267.52188 36.6625Q267.52188 33.7875 269.11563 32.396873Q270.45938 31.240623 272.38126 31.240623Q274.52188 31.240623 275.86563 32.646873Q277.225 34.053123 277.225 36.521873Q277.225 38.521873 276.63126 39.678123Q276.0375 40.81875 274.88126 41.459373Q273.74063 42.084373 272.38126 42.084373Q270.19376 42.084373 268.85 40.69375Q267.52188 39.2875 267.52188 36.6625ZM269.31876 36.6625Q269.31876 38.6625 270.17813 39.646873Q271.05313 40.63125 272.38126 40.63125Q273.69376 40.63125 274.55313 39.646873Q275.42813 38.646873 275.42813 36.6Q275.42813 34.678123 274.55313 33.69375Q273.67813 32.69375 272.38126 32.69375Q271.05313 32.69375 270.17813 33.69375Q269.31876 34.678123 269.31876 36.6625ZM279.14688 41.85L279.14688 31.474998L280.725 31.474998L280.725 33.053123Q281.33438 31.943748 281.85 31.599998Q282.36563 31.240623 282.975 31.240623Q283.86563 31.240623 284.7875 31.803123L284.17813 33.44375Q283.5375 33.053123 282.89688 33.053123Q282.31876 33.053123 281.85 33.4125Q281.39688 33.75625 281.19376 34.365623Q280.9125 35.303123 280.9125 36.4125L280.9125 41.85L279.14688 41.85ZM286.17813 29.553123L286.17813 27.537498L287.94376 27.537498L287.94376 29.553123L286.17813 29.553123ZM286.17813 41.85L286.17813 31.474998L287.94376 31.474998L287.94376 41.85L286.17813 41.85ZM294.00626 40.271873L294.25626 41.834373Q293.52188 41.990623 292.92813 41.990623Q291.975 41.990623 291.44376 41.69375Q290.92813 41.38125 290.70938 40.896873Q290.49063 40.396873 290.49063 38.81875L290.49063 32.85L289.20938 32.85L289.20938 31.474998L290.49063 31.474998L290.49063 28.912498L292.24063 27.849998L292.24063 31.474998L294.00626 31.474998L294.00626 32.85L292.24063 32.85L292.24063 38.9125Q292.24063 39.6625 292.33438 39.88125Q292.42813 40.084373 292.63126 40.225Q292.85 40.35 293.24063 40.35Q293.52188 40.35 294.00626 40.271873ZM296.1625 41.85L296.1625 27.537498L297.92813 27.537498L297.92813 32.6625Q299.1625 31.240623 301.0375 31.240623Q302.17813 31.240623 303.02188 31.693748Q303.88126 32.146873 304.24063 32.959373Q304.61563 33.75625 304.61563 35.271873L304.61563 41.85L302.86563 41.85L302.86563 35.271873Q302.86563 33.959373 302.2875 33.365623Q301.70938 32.75625 300.67813 32.75625Q299.89688 32.75625 299.19376 33.1625Q298.50626 33.56875 298.20938 34.271873Q297.92813 34.959373 297.92813 36.178123L297.92813 41.85L296.1625 41.85ZM306.1625 41.85L306.1625 31.474998L307.74063 31.474998L307.74063 32.928123Q308.225 32.178123 309.0375 31.709373Q309.85 31.240623 310.88126 31.240623Q312.0375 31.240623 312.77188 31.724998Q313.50626 32.19375 313.81876 33.053123Q315.05313 31.240623 317.02188 31.240623Q318.56876 31.240623 319.39688 32.1Q320.225 32.959373 320.225 34.725L320.225 41.85L318.475 41.85L318.475 35.31875Q318.475 34.25625 318.30313 33.803123Q318.13126 33.334373 317.67813 33.053123Q317.24063 32.771873 316.63126 32.771873Q315.5375 32.771873 314.80313 33.50625Q314.08438 34.225 314.08438 35.81875L314.08438 41.85L312.33438 41.85L312.33438 35.115623Q312.33438 33.94375 311.89688 33.365623Q311.475 32.771873 310.49063 32.771873Q309.75626 32.771873 309.11563 33.1625Q308.49063 33.553123 308.20938 34.303123Q307.92813 35.053123 307.92813 36.475L307.92813 41.85L306.1625 41.85Z" fill-rule="nonzero"/></svg>