<svg version="1.1" viewBox="0.0 0.0 922.0 457.0" fill="none" stroke="none" stroke-linecap="square" stroke-miterlimit="10" width="922" height="457" xmlns:xlink="http://www.w3.org/1999/xlink" xmlns="http://www.w3.org/2000/svg"><path fill="#ffffff" d="M0 0L922.0 0L922.0 457.0L0 457.0L0 0Z" fill-rule="nonzero"/><path stroke="#cccccc" stroke-width="1.0" stroke-linecap="butt" d="M55.5 376.5L899.5 376.5" fill-rule="nonzero"/><path stroke="#cccccc" stroke-width="1.0" stroke-linecap="butt" d="M55.5 206.5L899.5 206.5" fill-rule="nonzero"/><path stroke="#cccccc" stroke-width="1.0" stroke-linecap="butt" d="M55.5 59.5L899.5 59.5" fill-rule="nonzero"/><path stroke="#000000" stroke-width="1.0" stroke-linecap="butt" d="M899.5 414.5L55.5 414.5" fill-rule="nonzero"/><path stroke="#000000" stroke-width="1.0" stroke-linecap="butt" d="M55.5 414.5L55.5 59.5" fill-rule="nonzero"/><clipPath id="id_0"><path d="M55.85 59.083332L899.15 59.083332L899.15 414.15L55.85 414.15L55.85 59.083332Z" clip-rule="nonzero"/></clipPath><path stroke="#4285f4" stroke-width="2.0" stroke-linecap="butt" clip-path="url(#id_0)" d="M140.18 217.61469L308.84 228.82411L477.5 219.20908L646.16 216.02258L814.82 219.20908" fill-rule="nonzero"/><path stroke="#ea4335" stroke-width="2.0" stroke-linecap="butt" clip-path="url(#id_0)" d="M140.18 382.25308L308.84 256.5304L477.5 261.49274L646.16 246.67213L814.82 295.15753" fill-rule="nonzero"/><path stroke="#fbbc04" stroke-width="2.0" stroke-linecap="butt" clip-path="url(#id_0)" d="M140.18 143.67113L308.84 137.72699L477.5 142.18208L646.16 143.67113L814.82 164.73126" fill-rule="nonzero"/><path fill="#4285f4" clip-path="url(#id_0)" d="M142.18 217.61469C142.18 218.71925 141.28458 219.61469 140.18 219.61469C139.07542 219.61469 138.18 218.71925 138.18 217.61469C138.18 216.51012 139.07542 215.61469 140.18 215.61469C141.28458 215.61469 142.18 216.51012 142.18 217.61469Z" fill-rule="nonzero"/><path fill="#4285f4" clip-path="url(#id_0)" d="M310.84 228.82411C310.84 229.92868 309.94458 230.82411 308.84 230.82411C307.73544 230.82411 306.84 229.92868 306.84 228.82411C306.84 227.71954 307.73544 226.82411 308.84 226.82411C309.94458 226.82411 310.84 227.71954 310.84 228.82411Z" fill-rule="nonzero"/><path fill="#4285f4" clip-path="url(#id_0)" d="M479.5 219.20908C479.5 220.31364 478.60458 221.20908 477.5 221.20908C476.39542 221.20908 475.5 220.31364 475.5 219.20908C475.5 218.1045 476.39542 217.20908 477.5 217.20908C478.60458 217.20908 479.5 218.1045 479.5 219.20908Z" fill-rule="nonzero"/><path fill="#4285f4" clip-path="url(#id_0)" d="M648.16 216.02258C648.16 217.12715 647.2646 218.02258 646.16 218.02258C645.0554 218.02258 644.16 217.12715 644.16 216.02258C644.16 214.91801 645.0554 214.02258 646.16 214.02258C647.2646 214.02258 648.16 214.91801 648.16 216.02258Z" fill-rule="nonzero"/><path fill="#4285f4" clip-path="url(#id_0)" d="M816.82 219.20908C816.82 220.31364 815.92456 221.20908 814.82 221.20908C813.71545 221.20908 812.82 220.31364 812.82 219.20908C812.82 218.1045 813.71545 217.20908 814.82 217.20908C815.92456 217.20908 816.82 218.1045 816.82 219.20908Z" fill-rule="nonzero"/><path fill="#ea4335" clip-path="url(#id_0)" d="M142.18 382.25308C142.18 383.35767 141.28458 384.25308 140.18 384.25308C139.07542 384.25308 138.18 383.35767 138.18 382.25308C138.18 381.14853 139.07542 380.25308 140.18 380.25308C141.28458 380.25308 142.18 381.14853 142.18 382.25308Z" fill-rule="nonzero"/><path fill="#ea4335" clip-path="url(#id_0)" d="M310.84 256.5304C310.84 257.63498 309.94458 258.5304 308.84 258.5304C307.73544 258.5304 306.84 257.63498 306.84 256.5304C306.84 255.42583 307.73544 254.5304 308.84 254.5304C309.94458 254.5304 310.84 255.42583 310.84 256.5304Z" fill-rule="nonzero"/><path fill="#ea4335" clip-path="url(#id_0)" d="M479.5 261.49274C479.5 262.59732 478.60458 263.49274 477.5 263.49274C476.39542 263.49274 475.5 262.59732 475.5 261.49274C475.5 260.38818 476.39542 259.49274 477.5 259.49274C478.60458 259.49274 479.5 260.38818 479.5 261.49274Z" fill-rule="nonzero"/><path fill="#ea4335" clip-path="url(#id_0)" d="M648.16 246.67213C648.16 247.7767 647.2646 248.67213 646.16 248.67213C645.0554 248.67213 644.16 247.7767 644.16 246.67213C644.16 245.56757 645.0554 244.67213 646.16 244.67213C647.2646 244.67213 648.16 245.56757 648.16 246.67213Z" fill-rule="nonzero"/><path fill="#ea4335" clip-path="url(#id_0)" d="M816.82 295.15753C816.82 296.2621 815.92456 297.15753 814.82 297.15753C813.71545 297.15753 812.82 296.2621 812.82 295.15753C812.82 294.05295 813.71545 293.15753 814.82 293.15753C815.92456 293.15753 816.82 294.05295 816.82 295.15753Z" fill-rule="nonzero"/><path fill="#fbbc04" clip-path="url(#id_0)" d="M142.18 143.67113C142.18 144.7757 141.28458 145.67113 140.18 145.67113C139.07542 145.67113 138.18 144.7757 138.18 143.67113C138.18 142.56656 139.07542 141.67113 140.18 141.67113C141.28458 141.67113 142.18 142.56656 142.18 143.67113Z" fill-rule="nonzero"/><path fill="#fbbc04" clip-path="url(#id_0)" d="M310.84 137.72699C310.84 138.83157 309.94458 139.72699 308.84 139.72699C307.73544 139.72699 306.84 138.83157 306.84 137.72699C306.84 136.62242 307.73544 135.72699 308.84 135.72699C309.94458 135.72699 310.84 136.62242 310.84 137.72699Z" fill-rule="nonzero"/><path fill="#fbbc04" clip-path="url(#id_0)" d="M479.5 142.18208C479.5 143.28667 478.60458 144.18208 477.5 144.18208C476.39542 144.18208 475.5 143.28667 475.5 142.18208C475.5 141.07751 476.39542 140.18208 477.5 140.18208C478.60458 140.18208 479.5 141.07751 479.5 142.18208Z" fill-rule="nonzero"/><path fill="#fbbc04" clip-path="url(#id_0)" d="M648.16 143.67113C648.16 144.7757 647.2646 145.67113 646.16 145.67113C645.0554 145.67113 644.16 144.7757 644.16 143.67113C644.16 142.56656 645.0554 141.67113 646.16 141.67113C647.2646 141.67113 648.16 142.56656 648.16 143.67113Z" fill-rule="nonzero"/><path fill="#fbbc04" clip-path="url(#id_0)" d="M816.82 164.73126C816.82 165.83583 815.92456 166.73126 814.82 166.73126C813.71545 166.73126 812.82 165.83583 812.82 164.73126C812.82 163.6267 813.71545 162.73126 814.82 162.73126C815.92456 162.73126 816.82 163.6267 816.82 164.73126Z" fill-rule="nonzero"/><path stroke="#000000" stroke-width="1.0" stroke-linecap="butt" d="M49.5 376.5L61.5 376.5" fill-rule="nonzero"/><path stroke="#000000" stroke-width="1.0" stroke-linecap="butt" d="M49.5 206.5L61.5 206.5" fill-rule="nonzero"/><path stroke="#000000" stroke-width="1.0" stroke-linecap="butt" d="M49.5 59.5L61.5 59.5" fill-rule="nonzero"/><path fill="#000000" d="M42.81875 374.23428L41.771873 374.3124Q41.63125 373.6874 41.38125 373.40616Q40.94375 372.95303 40.31875 372.95303Q39.81875 372.95303 39.428123 373.23428Q38.94375 373.60928 38.646873 374.3124Q38.365623 374.9999 38.35 376.28116Q38.725 375.70303 39.271873 375.42178Q39.834373 375.14053 40.44375 375.14053Q41.490623 375.14053 42.225 375.92178Q42.975 376.70303 42.975 377.92178Q42.975 378.73428 42.615623 379.4374Q42.271873 380.1249 41.6625 380.4999Q41.053123 380.85928 40.2875 380.85928Q38.959373 380.85928 38.13125 379.89053Q37.303123 378.92178 37.303123 376.70303Q37.303123 374.20303 38.225 373.07803Q39.021873 372.09366 40.38125 372.09366Q41.396873 372.09366 42.0375 372.67178Q42.69375 373.23428 42.81875 374.23428ZM38.521873 377.9374Q38.521873 378.48428 38.740623 378.98428Q38.975 379.46866 39.38125 379.73428Q39.803123 379.9999 40.271873 379.9999Q40.928123 379.9999 41.4125 379.46866Q41.896873 378.92178 41.896873 377.9999Q41.896873 377.10928 41.4125 376.59366Q40.94375 376.07803 40.225 376.07803Q39.50625 376.07803 39.00625 376.59366Q38.521873 377.10928 38.521873 377.9374Z" fill-rule="nonzero"/><path fill="#000000" d="M37.4125 203.04916L37.4125 202.03354L42.975 202.03354L42.975 202.86166Q42.1625 203.73666 41.35 205.18979Q40.553123 206.62729 40.115623 208.15854Q39.7875 209.23666 39.709373 210.51791L38.615623 210.51791Q38.63125 209.50229 39.00625 208.06479Q39.396873 206.62729 40.1 205.29916Q40.81875 203.97104 41.63125 203.04916L37.4125 203.04916Z" fill-rule="nonzero"/><path fill="#000000" d="M38.975 58.427082Q38.31875 58.177082 37.990623 57.739582Q37.678123 57.286457 37.678123 56.677082Q37.678123 55.739582 38.35 55.098957Q39.0375 54.458332 40.146873 54.458332Q41.271873 54.458332 41.959373 55.114582Q42.646873 55.770832 42.646873 56.708332Q42.646873 57.302082 42.334373 57.739582Q42.021873 58.177082 41.38125 58.427082Q42.178123 58.677082 42.584373 59.255207Q42.990623 59.833332 42.990623 60.630207Q42.990623 61.723957 42.209373 62.473957Q41.44375 63.223957 40.1625 63.223957Q38.896873 63.223957 38.115623 62.473957Q37.334373 61.723957 37.334373 60.598957Q37.334373 59.755207 37.75625 59.192707Q38.19375 58.630207 38.975 58.427082ZM38.75625 56.630207Q38.75625 57.239582 39.146873 57.630207Q39.553123 58.020832 40.178123 58.020832Q40.7875 58.020832 41.178123 57.645832Q41.56875 57.255207 41.56875 56.692707Q41.56875 56.114582 41.1625 55.723957Q40.75625 55.317707 40.1625 55.317707Q39.553123 55.317707 39.146873 55.708332Q38.75625 56.098957 38.75625 56.630207ZM38.428123 60.598957Q38.428123 61.052082 38.63125 61.473957Q38.85 61.895832 39.271873 62.130207Q39.69375 62.364582 40.178123 62.364582Q40.928123 62.364582 41.4125 61.880207Q41.9125 61.395832 41.9125 60.645832Q41.9125 59.880207 41.4125 59.380207Q40.9125 58.880207 40.146873 58.880207Q39.396873 58.880207 38.9125 59.380207Q38.428123 59.864582 38.428123 60.598957Z" fill-rule="nonzero"/><path fill="#000000" d="M123.7425 428.13437L124.8675 428.43124Q124.508125 429.82187 123.58625 430.55624Q122.664375 431.29062 121.320625 431.29062Q119.93 431.29062 119.055 430.72812Q118.18 430.16562 117.726875 429.10312Q117.27375 428.025 117.27375 426.79062Q117.27375 425.44687 117.789375 424.44687Q118.305 423.44687 119.2425 422.93124Q120.195625 422.41562 121.33625 422.41562Q122.6175 422.41562 123.4925 423.07187Q124.383125 423.72812 124.726875 424.91562L123.601875 425.18124Q123.305 424.24374 122.726875 423.82187Q122.164375 423.38437 121.305 423.38437Q120.320625 423.38437 119.64875 423.86874Q118.9925 424.3375 118.71125 425.13437Q118.445625 425.93124 118.445625 426.79062Q118.445625 427.88437 118.758125 428.69687Q119.08625 429.50937 119.758125 429.91562Q120.43 430.32187 121.226875 430.32187Q122.18 430.32187 122.83625 429.775Q123.508125 429.22812 123.7425 428.13437ZM126.445625 431.15L126.445625 422.55624L127.508125 422.55624L127.508125 431.15L126.445625 431.15ZM133.53937 430.38437Q132.94562 430.88437 132.39874 431.0875Q131.8675 431.29062 131.2425 431.29062Q130.21124 431.29062 129.66437 430.79062Q129.1175 430.29062 129.1175 429.50937Q129.1175 429.05624 129.32062 428.68124Q129.52374 428.29062 129.8675 428.07187Q130.21124 427.8375 130.63312 427.72812Q130.93 427.63437 131.57062 427.55624Q132.83624 427.41562 133.44562 427.19687Q133.44562 426.97812 133.44562 426.93124Q133.44562 426.275 133.14874 426.00937Q132.7425 425.66562 131.94562 425.66562Q131.21124 425.66562 130.85187 425.93124Q130.4925 426.18124 130.32062 426.8375L129.28937 426.69687Q129.43 426.04062 129.75812 425.63437Q130.08624 425.22812 130.69562 425.00937Q131.305 424.79062 132.10187 424.79062Q132.89874 424.79062 133.39874 424.97812Q133.89874 425.16562 134.13312 425.44687Q134.3675 425.72812 134.46124 426.16562Q134.50812 426.43124 134.50812 427.13437L134.50812 428.54062Q134.50812 430.00937 134.57062 430.4Q134.64874 430.79062 134.85187 431.15L133.7425 431.15Q133.58624 430.82187 133.53937 430.38437ZM133.44562 428.025Q132.8675 428.25937 131.72687 428.43124Q131.07062 428.525 130.805 428.65Q130.53937 428.75937 130.38312 428.97812Q130.2425 429.19687 130.2425 429.47812Q130.2425 429.9 130.555 430.18124Q130.88312 430.4625 131.4925 430.4625Q132.10187 430.4625 132.57062 430.19687Q133.055 429.93124 133.27374 429.4625Q133.44562 429.10312 133.44562 428.41562L133.44562 428.025ZM140.555 431.15L140.555 430.22812Q139.82062 431.29062 138.57062 431.29062Q138.02374 431.29062 137.53937 431.0875Q137.07062 430.86874 136.83624 430.55624Q136.60187 430.22812 136.50812 429.75937Q136.44562 429.4625 136.44562 428.775L136.44562 424.93124L137.50812 424.93124L137.50812 428.38437Q137.50812 429.19687 137.57062 429.49374Q137.66437 429.9 137.97687 430.15Q138.305 430.38437 138.78937 430.38437Q139.25812 430.38437 139.66437 430.15Q140.08624 429.9 140.25812 429.47812Q140.44562 429.05624 140.44562 428.25937L140.44562 424.93124L141.4925 424.93124L141.4925 431.15L140.555 431.15ZM147.50812 431.15L147.50812 430.36874Q146.91437 431.29062 145.77374 431.29062Q145.02374 431.29062 144.39874 430.88437Q143.77374 430.4625 143.43 429.72812Q143.08624 428.99374 143.08624 428.04062Q143.08624 427.11874 143.39874 426.35312Q143.71124 425.5875 144.33624 425.19687Q144.96124 424.79062 145.72687 424.79062Q146.28937 424.79062 146.72687 425.025Q147.16437 425.25937 147.44562 425.63437L147.44562 422.55624L148.4925 422.55624L148.4925 431.15L147.50812 431.15ZM144.18 428.04062Q144.18 429.24374 144.68 429.8375Q145.18 430.41562 145.8675 430.41562Q146.555 430.41562 147.03937 429.85312Q147.52374 429.29062 147.52374 428.13437Q147.52374 426.85312 147.02374 426.25937Q146.53937 425.66562 145.82062 425.66562Q145.1175 425.66562 144.64874 426.24374Q144.18 426.80624 144.18 428.04062ZM154.72687 429.15L155.82062 429.275Q155.57062 430.22812 154.8675 430.75937Q154.16437 431.29062 153.08624 431.29062Q151.72687 431.29062 150.91437 430.44687Q150.1175 429.60312 150.1175 428.0875Q150.1175 426.525 150.93 425.66562Q151.7425 424.79062 153.02374 424.79062Q154.27374 424.79062 155.055 425.63437Q155.85187 426.47812 155.85187 428.025Q155.85187 428.11874 155.85187 428.30624L151.21124 428.30624Q151.27374 429.3375 151.78937 429.88437Q152.305 430.41562 153.08624 430.41562Q153.66437 430.41562 154.07062 430.11874Q154.4925 429.80624 154.72687 429.15ZM151.27374 427.44687L154.7425 427.44687Q154.68 426.65 154.35187 426.25937Q153.83624 425.65 153.03937 425.65Q152.305 425.65 151.805 426.13437Q151.32062 426.61874 151.27374 427.44687ZM157.18 428.88437L158.2425 428.74374Q158.41437 429.63437 158.85187 430.04062Q159.28937 430.43124 159.91437 430.43124Q160.66437 430.43124 161.18 429.91562Q161.69562 429.4 161.69562 428.63437Q161.69562 427.91562 161.21124 427.44687Q160.7425 426.9625 160.00812 426.9625Q159.71124 426.9625 159.25812 427.0875L159.38312 426.15Q159.4925 426.16562 159.555 426.16562Q160.22687 426.16562 160.75812 425.82187Q161.305 425.4625 161.305 424.72812Q161.305 424.15 160.91437 423.775Q160.52374 423.38437 159.89874 423.38437Q159.28937 423.38437 158.8675 423.775Q158.46124 424.16562 158.35187 424.93124L157.28937 424.74374Q157.47687 423.69687 158.16437 423.11874Q158.85187 422.525 159.8675 422.525Q160.57062 422.525 161.16437 422.8375Q161.75812 423.13437 162.07062 423.65Q162.38312 424.16562 162.38312 424.75937Q162.38312 425.30624 162.08624 425.775Q161.78937 426.22812 161.21124 426.49374Q161.96124 426.66562 162.38312 427.22812Q162.805 427.775 162.805 428.61874Q162.805 429.74374 161.97687 430.525Q161.16437 431.30624 159.91437 431.30624Q158.78937 431.30624 158.03937 430.63437Q157.28937 429.94687 157.18 428.88437Z" fill-rule="nonzero"/><path fill="#000000" d="M296.4025 428.13437L297.5275 428.43124Q297.16812 429.82187 296.24625 430.55624Q295.32437 431.29062 293.98062 431.29062Q292.59 431.29062 291.715 430.72812Q290.84 430.16562 290.38687 429.10312Q289.93375 428.025 289.93375 426.79062Q289.93375 425.44687 290.44937 424.44687Q290.965 423.44687 291.9025 422.93124Q292.85562 422.41562 293.99625 422.41562Q295.2775 422.41562 296.1525 423.07187Q297.04312 423.72812 297.38687 424.91562L296.26187 425.18124Q295.965 424.24374 295.38687 423.82187Q294.82437 423.38437 293.965 423.38437Q292.98062 423.38437 292.30875 423.86874Q291.6525 424.3375 291.37125 425.13437Q291.10562 425.93124 291.10562 426.79062Q291.10562 427.88437 291.41812 428.69687Q291.74625 429.50937 292.41812 429.91562Q293.09 430.32187 293.88687 430.32187Q294.84 430.32187 295.49625 429.775Q296.16812 429.22812 296.4025 428.13437ZM298.74625 428.04062Q298.74625 426.30624 299.69937 425.47812Q300.49625 424.79062 301.6525 424.79062Q302.93375 424.79062 303.74625 425.63437Q304.57437 426.4625 304.57437 427.94687Q304.57437 429.15 304.215 429.8375Q303.85562 430.525 303.1525 430.91562Q302.465 431.29062 301.6525 431.29062Q300.35562 431.29062 299.54312 430.4625Q298.74625 429.61874 298.74625 428.04062ZM299.82437 428.04062Q299.82437 429.22812 300.34 429.82187Q300.87125 430.41562 301.6525 430.41562Q302.44937 430.41562 302.965 429.82187Q303.48062 429.22812 303.48062 428.00937Q303.48062 426.85312 302.94937 426.25937Q302.43375 425.66562 301.6525 425.66562Q300.87125 425.66562 300.34 426.25937Q299.82437 426.8375 299.82437 428.04062ZM306.13687 433.54062L306.13687 424.93124L307.09 424.93124L307.09 425.72812Q307.43375 425.25937 307.85562 425.025Q308.29312 424.79062 308.9025 424.79062Q309.69937 424.79062 310.30875 425.19687Q310.91812 425.60312 311.215 426.35312Q311.5275 427.10312 311.5275 427.99374Q311.5275 428.94687 311.18375 429.7125Q310.85562 430.47812 310.19937 430.88437Q309.54312 431.29062 308.82437 431.29062Q308.29312 431.29062 307.87125 431.07187Q307.44937 430.8375 307.18375 430.50937L307.18375 433.54062L306.13687 433.54062ZM307.09 428.07187Q307.09 429.275 307.57437 429.85312Q308.05875 430.41562 308.74625 430.41562Q309.44937 430.41562 309.94937 429.82187Q310.44937 429.22812 310.44937 427.97812Q310.44937 426.79062 309.965 426.2125Q309.48062 425.61874 308.79312 425.61874Q308.12125 425.61874 307.60562 426.24374Q307.09 426.86874 307.09 428.07187ZM313.13687 423.775L313.13687 422.55624L314.19937 422.55624L314.19937 423.775L313.13687 423.775ZM313.13687 431.15L313.13687 424.93124L314.19937 424.93124L314.19937 431.15L313.13687 431.15ZM316.10562 431.15L316.10562 422.55624L317.16812 422.55624L317.16812 431.15L316.10562 431.15ZM318.74625 428.04062Q318.74625 426.30624 319.69937 425.47812Q320.49625 424.79062 321.6525 424.79062Q322.93375 424.79062 323.74625 425.63437Q324.57437 426.4625 324.57437 427.94687Q324.57437 429.15 324.215 429.8375Q323.85562 430.525 323.1525 430.91562Q322.465 431.29062 321.6525 431.29062Q320.35562 431.29062 319.54312 430.4625Q318.74625 429.61874 318.74625 428.04062ZM319.82437 428.04062Q319.82437 429.22812 320.34 429.82187Q320.87125 430.41562 321.6525 430.41562Q322.44937 430.41562 322.965 429.82187Q323.48062 429.22812 323.48062 428.00937Q323.48062 426.85312 322.94937 426.25937Q322.43375 425.66562 321.6525 425.66562Q320.87125 425.66562 320.34 426.25937Q319.82437 426.8375 319.82437 428.04062ZM328.43375 430.2125L328.59 431.13437Q328.13687 431.22812 327.79312 431.22812Q327.215 431.22812 326.9025 431.05624Q326.59 430.86874 326.44937 430.57187Q326.32437 430.275 326.32437 429.32187L326.32437 425.74374L325.55875 425.74374L325.55875 424.93124L326.32437 424.93124L326.32437 423.38437L327.37125 422.75937L327.37125 424.93124L328.43375 424.93124L328.43375 425.74374L327.37125 425.74374L327.37125 429.38437Q327.37125 429.8375 327.41812 429.9625Q327.48062 430.0875 327.60562 430.16562Q327.73062 430.24374 327.965 430.24374Q328.1525 430.24374 328.43375 430.2125Z" fill-rule="nonzero"/><path fill="#000000" d="M462.45312 427.775L462.45312 426.775L466.07812 426.75937L466.07812 429.94687Q465.25 430.61874 464.35938 430.9625Q463.46875 431.29062 462.53125 431.29062Q461.26562 431.29062 460.21875 430.75937Q459.1875 430.2125 458.65625 429.19687Q458.14062 428.16562 458.14062 426.9Q458.14062 425.63437 458.65625 424.55624Q459.1875 423.4625 460.17188 422.94687Q461.15625 422.41562 462.4375 422.41562Q463.375 422.41562 464.125 422.7125Q464.875 423.00937 465.29688 423.55624Q465.73438 424.0875 465.95312 424.9625L464.9375 425.24374Q464.73438 424.5875 464.4375 424.2125Q464.15625 423.8375 463.625 423.61874Q463.09375 423.38437 462.45312 423.38437Q461.67188 423.38437 461.09375 423.61874Q460.53125 423.85312 460.17188 424.24374Q459.82812 424.63437 459.64062 425.10312Q459.3125 425.9 459.3125 426.82187Q459.3125 427.97812 459.70312 428.75937Q460.10938 429.525 460.85938 429.9Q461.60938 430.275 462.46875 430.275Q463.20312 430.275 463.90625 429.99374Q464.60938 429.69687 464.96875 429.38437L464.96875 427.775L462.45312 427.775ZM471.54688 429.15L472.64062 429.275Q472.39062 430.22812 471.6875 430.75937Q470.98438 431.29062 469.90625 431.29062Q468.54688 431.29062 467.73438 430.44687Q466.9375 429.60312 466.9375 428.0875Q466.9375 426.525 467.75 425.66562Q468.5625 424.79062 469.84375 424.79062Q471.09375 424.79062 471.875 425.63437Q472.67188 426.47812 472.67188 428.025Q472.67188 428.11874 472.67188 428.30624L468.03125 428.30624Q468.09375 429.3375 468.60938 429.88437Q469.125 430.41562 469.90625 430.41562Q470.48438 430.41562 470.89062 430.11874Q471.3125 429.80624 471.54688 429.15ZM468.09375 427.44687L471.5625 427.44687Q471.5 426.65 471.17188 426.25937Q470.65625 425.65 469.85938 425.65Q469.125 425.65 468.625 426.13437Q468.14062 426.61874 468.09375 427.44687ZM474.29688 431.15L474.29688 424.93124L475.23438 424.93124L475.23438 425.80624Q475.53125 425.3375 476.01562 425.07187Q476.5 424.79062 477.125 424.79062Q477.8125 424.79062 478.25 425.07187Q478.70312 425.35312 478.875 425.86874Q479.625 424.79062 480.79688 424.79062Q481.73438 424.79062 482.21875 425.30624Q482.71875 425.80624 482.71875 426.88437L482.71875 431.15L481.67188 431.15L481.67188 427.22812Q481.67188 426.60312 481.5625 426.32187Q481.46875 426.04062 481.20312 425.86874Q480.9375 425.69687 480.5625 425.69687Q479.90625 425.69687 479.46875 426.13437Q479.04688 426.57187 479.04688 427.54062L479.04688 431.15L477.98438 431.15L477.98438 427.10312Q477.98438 426.4 477.71875 426.05624Q477.46875 425.69687 476.89062 425.69687Q476.4375 425.69687 476.0625 425.93124Q475.6875 426.16562 475.51562 426.61874Q475.34375 427.07187 475.34375 427.91562L475.34375 431.15L474.29688 431.15ZM485.29688 423.775L485.29688 422.55624L486.35938 422.55624L486.35938 423.775L485.29688 423.775ZM485.29688 431.15L485.29688 424.93124L486.35938 424.93124L486.35938 431.15L485.29688 431.15ZM488.29688 431.15L488.29688 424.93124L489.23438 424.93124L489.23438 425.80624Q489.92188 424.79062 491.21875 424.79062Q491.78125 424.79062 492.25 424.99374Q492.73438 425.19687 492.96875 425.525Q493.20312 425.85312 493.29688 426.29062Q493.34375 426.5875 493.34375 427.32187L493.34375 431.15L492.29688 431.15L492.29688 427.36874Q492.29688 426.7125 492.17188 426.4Q492.04688 426.0875 491.73438 425.9Q491.42188 425.69687 491.0 425.69687Q490.32812 425.69687 489.82812 426.13437Q489.34375 426.55624 489.34375 427.74374L489.34375 431.15L488.29688 431.15ZM495.29688 423.775L495.29688 422.55624L496.35938 422.55624L496.35938 423.775L495.29688 423.775ZM495.29688 431.15L495.29688 424.93124L496.35938 424.93124L496.35938 431.15L495.29688 431.15Z" fill-rule="nonzero"/><path fill="#000000" d="M633.6131 427.775L633.6131 426.775L637.2381 426.75937L637.2381 429.94687Q636.41 430.61874 635.51935 430.9625Q634.6287 431.29062 633.6912 431.29062Q632.4256 431.29062 631.3787 430.75937Q630.3475 430.2125 629.8162 429.19687Q629.3006 428.16562 629.3006 426.9Q629.3006 425.63437 629.8162 424.55624Q630.3475 423.4625 631.33185 422.94687Q632.3162 422.41562 633.5975 422.41562Q634.535 422.41562 635.285 422.7125Q636.035 423.00937 636.45685 423.55624Q636.89435 424.0875 637.1131 424.9625L636.0975 425.24374Q635.89435 424.5875 635.5975 424.2125Q635.3162 423.8375 634.785 423.61874Q634.2537 423.38437 633.6131 423.38437Q632.83185 423.38437 632.2537 423.61874Q631.6912 423.85312 631.33185 424.24374Q630.9881 424.63437 630.8006 425.10312Q630.4725 425.9 630.4725 426.82187Q630.4725 427.97812 630.8631 428.75937Q631.26935 429.525 632.01935 429.9Q632.76935 430.275 633.6287 430.275Q634.3631 430.275 635.0662 429.99374Q635.76935 429.69687 636.1287 429.38437L636.1287 427.775L633.6131 427.775ZM638.58185 431.15L638.58185 422.55624L641.83185 422.55624Q642.6756 422.55624 643.1287 422.63437Q643.76935 422.74374 644.1912 423.04062Q644.6287 423.3375 644.8787 423.86874Q645.14435 424.4 645.14435 425.04062Q645.14435 426.13437 644.4412 426.9Q643.7537 427.65 641.9256 427.65L639.7225 427.65L639.7225 431.15L638.58185 431.15ZM639.7225 426.65L641.9412 426.65Q643.0506 426.65 643.5037 426.24374Q643.9725 425.82187 643.9725 425.07187Q643.9725 424.54062 643.6912 424.16562Q643.4256 423.775 642.9881 423.65Q642.6912 423.57187 641.9256 423.57187L639.7225 423.57187L639.7225 426.65ZM648.76935 431.15L648.76935 423.57187L645.9412 423.57187L645.9412 422.55624L652.7537 422.55624L652.7537 423.57187L649.91 423.57187L649.91 431.15L648.76935 431.15ZM653.035 428.57187L653.035 427.50937L656.285 427.50937L656.285 428.57187L653.035 428.57187ZM660.535 431.15L660.535 429.0875L656.8162 429.0875L656.8162 428.11874L660.7381 422.55624L661.5975 422.55624L661.5975 428.11874L662.7537 428.11874L662.7537 429.0875L661.5975 429.0875L661.5975 431.15L660.535 431.15ZM660.535 428.11874L660.535 424.25937L657.8475 428.11874L660.535 428.11874Z" fill-rule="nonzero"/><path fill="#000000" d="M810.2419 431.15L810.2419 422.55624L813.4919 422.55624Q814.33563 422.55624 814.78876 422.63437Q815.4294 422.74374 815.85126 423.04062Q816.28876 423.3375 816.53876 423.86874Q816.8044 424.4 816.8044 425.04062Q816.8044 426.13437 816.10126 426.9Q815.41376 427.65 813.58563 427.65L811.3825 427.65L811.3825 431.15L810.2419 431.15ZM811.3825 426.65L813.60126 426.65Q814.71063 426.65 815.16376 426.24374Q815.6325 425.82187 815.6325 425.07187Q815.6325 424.54062 815.35126 424.16562Q815.08563 423.775 814.64813 423.65Q814.35126 423.57187 813.58563 423.57187L811.3825 423.57187L811.3825 426.65ZM818.1169 423.775L818.1169 422.55624L819.1794 422.55624L819.1794 423.775L818.1169 423.775ZM818.1169 431.15L818.1169 424.93124L819.1794 424.93124L819.1794 431.15L818.1169 431.15Z" fill-rule="nonzero"/><path fill="#4285f4" d="M337.5 29.85C337.5 33.163708 334.81372 35.85 331.5 35.85C328.18628 35.85 325.5 33.163708 325.5 29.85C325.5 26.536291 328.18628 23.85 331.5 23.85C334.81372 23.85 337.5 26.536291 337.5 29.85Z" fill-rule="nonzero"/><path fill="#1a1a1a" d="M346.42188 33.85L346.42188 25.256248L349.39062 25.256248Q350.39062 25.256248 350.92188 25.381248Q351.65625 25.553123 352.17188 25.990623Q352.85938 26.568748 353.1875 27.474998Q353.53125 28.365623 353.53125 29.506248Q353.53125 30.490623 353.29688 31.240623Q353.07812 31.990623 352.71875 32.490623Q352.35938 32.990623 351.92188 33.271873Q351.5 33.553123 350.90625 33.709373Q350.3125 33.85 349.53125 33.85L346.42188 33.85ZM347.5625 32.834373L349.39062 32.834373Q350.25 32.834373 350.73438 32.678123Q351.21875 32.521873 351.5 32.225Q351.90625 31.834373 352.125 31.146873Q352.35938 30.459373 352.35938 29.490623Q352.35938 28.146873 351.90625 27.428123Q351.46875 26.693748 350.84375 26.443748Q350.375 26.271873 349.375 26.271873L347.5625 26.271873L347.5625 32.834373ZM359.35938 33.084373Q358.76562 33.584373 358.21875 33.7875Q357.6875 33.990623 357.0625 33.990623Q356.03125 33.990623 355.48438 33.490623Q354.9375 32.990623 354.9375 32.209373Q354.9375 31.756248 355.14062 31.381248Q355.34375 30.990623 355.6875 30.771873Q356.03125 30.537498 356.45312 30.428123Q356.75 30.334373 357.39062 30.256248Q358.65625 30.115623 359.26562 29.896873Q359.26562 29.678123 359.26562 29.631248Q359.26562 28.974998 358.96875 28.709373Q358.5625 28.365623 357.76562 28.365623Q357.03125 28.365623 356.67188 28.631248Q356.3125 28.881248 356.14062 29.537498L355.10938 29.396873Q355.25 28.740623 355.57812 28.334373Q355.90625 27.928123 356.51562 27.709373Q357.125 27.490623 357.92188 27.490623Q358.71875 27.490623 359.21875 27.678123Q359.71875 27.865623 359.95312 28.146873Q360.1875 28.428123 360.28125 28.865623Q360.32812 29.131248 360.32812 29.834373L360.32812 31.240623Q360.32812 32.709373 360.39062 33.1Q360.46875 33.490623 360.67188 33.85L359.5625 33.85Q359.40625 33.521873 359.35938 33.084373ZM359.26562 30.724998Q358.6875 30.959373 357.54688 31.131248Q356.89062 31.224998 356.625 31.349998Q356.35938 31.459373 356.20312 31.678123Q356.0625 31.896873 356.0625 32.178123Q356.0625 32.6 356.375 32.88125Q356.70312 33.1625 357.3125 33.1625Q357.92188 33.1625 358.39062 32.896873Q358.875 32.63125 359.09375 32.1625Q359.26562 31.803123 359.26562 31.115623L359.26562 30.724998ZM362.26562 33.85L362.26562 25.256248L363.32812 25.256248L363.32812 33.85L362.26562 33.85ZM365.26562 33.85L365.26562 25.256248L366.32812 25.256248L366.32812 33.85L365.26562 33.85ZM367.875 31.271873L367.875 30.209373L371.125 30.209373L371.125 31.271873L367.875 31.271873ZM376.54688 31.849998L377.64062 31.974998Q377.39062 32.928123 376.6875 33.459373Q375.98438 33.990623 374.90625 33.990623Q373.54688 33.990623 372.73438 33.146873Q371.9375 32.303123 371.9375 30.787498Q371.9375 29.224998 372.75 28.365623Q373.5625 27.490623 374.84375 27.490623Q376.09375 27.490623 376.875 28.334373Q377.67188 29.178123 377.67188 30.724998Q377.67188 30.818748 377.67188 31.006248L373.03125 31.006248Q373.09375 32.0375 373.60938 32.584373Q374.125 33.115623 374.90625 33.115623Q375.48438 33.115623 375.89062 32.81875Q376.3125 32.50625 376.54688 31.849998ZM373.09375 30.146873L376.5625 30.146873Q376.5 29.349998 376.17188 28.959373Q375.65625 28.349998 374.85938 28.349998Q374.125 28.349998 373.625 28.834373Q373.14062 29.318748 373.09375 30.146873Z" fill-rule="nonzero"/><path fill="#ea4335" d="M406.5 29.85C406.5 33.163708 403.81372 35.85 400.5 35.85C397.18628 35.85 394.5 33.163708 394.5 29.85C394.5 26.536291 397.18628 23.85 400.5 23.85C403.81372 23.85 406.5 26.536291 406.5 29.85Z" fill-rule="nonzero"/><path fill="#1a1a1a" d="M415.04688 31.084373L416.10938 30.990623Q416.1875 31.646873 416.46875 32.053123Q416.75 32.459373 417.32812 32.725Q417.92188 32.975 418.65625 32.975Q419.29688 32.975 419.79688 32.7875Q420.29688 32.584373 420.53125 32.25625Q420.78125 31.912498 420.78125 31.521873Q420.78125 31.115623 420.54688 30.818748Q420.3125 30.506248 419.78125 30.303123Q419.42188 30.162498 418.23438 29.881248Q417.0625 29.599998 416.59375 29.349998Q415.96875 29.021873 415.67188 28.553123Q415.375 28.068748 415.375 27.474998Q415.375 26.834373 415.73438 26.271873Q416.10938 25.693748 416.8125 25.412498Q417.53125 25.115623 418.39062 25.115623Q419.34375 25.115623 420.07812 25.428123Q420.8125 25.724998 421.20312 26.334373Q421.59375 26.928123 421.625 27.678123L420.53125 27.756248Q420.4375 26.943748 419.92188 26.537498Q419.42188 26.115623 418.4375 26.115623Q417.40625 26.115623 416.9375 26.490623Q416.46875 26.865623 416.46875 27.396873Q416.46875 27.865623 416.79688 28.162498Q417.125 28.459373 418.5 28.771873Q419.89062 29.084373 420.40625 29.318748Q421.15625 29.678123 421.51562 30.209373Q421.875 30.724998 421.875 31.428123Q421.875 32.115623 421.48438 32.725Q421.09375 33.31875 420.35938 33.6625Q419.625 33.990623 418.70312 33.990623Q417.53125 33.990623 416.73438 33.6625Q415.95312 33.31875 415.5 32.63125Q415.0625 31.943748 415.04688 31.084373ZM425.59375 32.9125L425.75 33.834373Q425.29688 33.928123 424.95312 33.928123Q424.375 33.928123 424.0625 33.75625Q423.75 33.56875 423.60938 33.271873Q423.48438 32.975 423.48438 32.021873L423.48438 28.443748L422.71875 28.443748L422.71875 27.631248L423.48438 27.631248L423.48438 26.084373L424.53125 25.459373L424.53125 27.631248L425.59375 27.631248L425.59375 28.443748L424.53125 28.443748L424.53125 32.084373Q424.53125 32.5375 424.57812 32.6625Q424.64062 32.7875 424.76562 32.865623Q424.89062 32.94375 425.125 32.94375Q425.3125 32.94375 425.59375 32.9125ZM430.35938 33.084373Q429.76562 33.584373 429.21875 33.7875Q428.6875 33.990623 428.0625 33.990623Q427.03125 33.990623 426.48438 33.490623Q425.9375 32.990623 425.9375 32.209373Q425.9375 31.756248 426.14062 31.381248Q426.34375 30.990623 426.6875 30.771873Q427.03125 30.537498 427.45312 30.428123Q427.75 30.334373 428.39062 30.256248Q429.65625 30.115623 430.26562 29.896873Q430.26562 29.678123 430.26562 29.631248Q430.26562 28.974998 429.96875 28.709373Q429.5625 28.365623 428.76562 28.365623Q428.03125 28.365623 427.67188 28.631248Q427.3125 28.881248 427.14062 29.537498L426.10938 29.396873Q426.25 28.740623 426.57812 28.334373Q426.90625 27.928123 427.51562 27.709373Q428.125 27.490623 428.92188 27.490623Q429.71875 27.490623 430.21875 27.678123Q430.71875 27.865623 430.95312 28.146873Q431.1875 28.428123 431.28125 28.865623Q431.32812 29.131248 431.32812 29.834373L431.32812 31.240623Q431.32812 32.709373 431.39062 33.1Q431.46875 33.490623 431.67188 33.85L430.5625 33.85Q430.40625 33.521873 430.35938 33.084373ZM430.26562 30.724998Q429.6875 30.959373 428.54688 31.131248Q427.89062 31.224998 427.625 31.349998Q427.35938 31.459373 427.20312 31.678123Q427.0625 31.896873 427.0625 32.178123Q427.0625 32.6 427.375 32.88125Q427.70312 33.1625 428.3125 33.1625Q428.92188 33.1625 429.39062 32.896873Q429.875 32.63125 430.09375 32.1625Q430.26562 31.803123 430.26562 31.115623L430.26562 30.724998ZM434.26562 33.85L433.28125 33.85L433.28125 25.256248L434.34375 25.256248L434.34375 28.318748Q435.01562 27.490623 436.04688 27.490623Q436.625 27.490623 437.125 27.724998Q437.64062 27.943748 437.96875 28.365623Q438.3125 28.787498 438.5 29.381248Q438.6875 29.974998 438.6875 30.646873Q438.6875 32.240623 437.89062 33.115623Q437.09375 33.990623 436.0 33.990623Q434.89062 33.990623 434.26562 33.06875L434.26562 33.85ZM434.25 30.693748Q434.25 31.803123 434.5625 32.303123Q435.0625 33.115623 435.90625 33.115623Q436.59375 33.115623 437.09375 32.521873Q437.60938 31.928123 437.60938 30.724998Q437.60938 29.506248 437.125 28.928123Q436.64062 28.349998 435.95312 28.349998Q435.26562 28.349998 434.75 28.959373Q434.25 29.553123 434.25 30.693748ZM440.26562 33.85L440.26562 25.256248L441.32812 25.256248L441.32812 33.85L440.26562 33.85ZM447.54688 31.849998L448.64062 31.974998Q448.39062 32.928123 447.6875 33.459373Q446.98438 33.990623 445.90625 33.990623Q444.54688 33.990623 443.73438 33.146873Q442.9375 32.303123 442.9375 30.787498Q442.9375 29.224998 443.75 28.365623Q444.5625 27.490623 445.84375 27.490623Q447.09375 27.490623 447.875 28.334373Q448.67188 29.178123 448.67188 30.724998Q448.67188 30.818748 448.67188 31.006248L444.03125 31.006248Q444.09375 32.0375 444.60938 32.584373Q445.125 33.115623 445.90625 33.115623Q446.48438 33.115623 446.89062 32.81875Q447.3125 32.50625 447.54688 31.849998ZM444.09375 30.146873L447.5625 30.146873Q447.5 29.349998 447.17188 28.959373Q446.65625 28.349998 445.85938 28.349998Q445.125 28.349998 444.625 28.834373Q444.14062 29.318748 444.09375 30.146873ZM450.42188 33.85L450.42188 25.256248L453.39062 25.256248Q454.39062 25.256248 454.92188 25.381248Q455.65625 25.553123 456.17188 25.990623Q456.85938 26.568748 457.1875 27.474998Q457.53125 28.365623 457.53125 29.506248Q457.53125 30.490623 457.29688 31.240623Q457.07812 31.990623 456.71875 32.490623Q456.35938 32.990623 455.92188 33.271873Q455.5 33.553123 454.90625 33.709373Q454.3125 33.85 453.53125 33.85L450.42188 33.85ZM451.5625 32.834373L453.39062 32.834373Q454.25 32.834373 454.73438 32.678123Q455.21875 32.521873 455.5 32.225Q455.90625 31.834373 456.125 31.146873Q456.35938 30.459373 456.35938 29.490623Q456.35938 28.146873 455.90625 27.428123Q455.46875 26.693748 454.84375 26.443748Q454.375 26.271873 453.375 26.271873L451.5625 26.271873L451.5625 32.834373ZM459.29688 26.474998L459.29688 25.256248L460.35938 25.256248L460.35938 26.474998L459.29688 26.474998ZM459.29688 33.85L459.29688 27.631248L460.35938 27.631248L460.35938 33.85L459.29688 33.85ZM462.54688 33.85L462.54688 28.443748L461.60938 28.443748L461.60938 27.631248L462.54688 27.631248L462.54688 26.959373Q462.54688 26.334373 462.65625 26.037498Q462.8125 25.615623 463.1875 25.365623Q463.57812 25.115623 464.26562 25.115623Q464.71875 25.115623 465.25 25.224998L465.09375 26.131248Q464.76562 26.084373 464.46875 26.084373Q463.98438 26.084373 463.78125 26.287498Q463.59375 26.490623 463.59375 27.053123L463.59375 27.631248L464.8125 27.631248L464.8125 28.443748L463.59375 28.443748L463.59375 33.85L462.54688 33.85ZM465.54688 33.85L465.54688 28.443748L464.60938 28.443748L464.60938 27.631248L465.54688 27.631248L465.54688 26.959373Q465.54688 26.334373 465.65625 26.037498Q465.8125 25.615623 466.1875 25.365623Q466.57812 25.115623 467.26562 25.115623Q467.71875 25.115623 468.25 25.224998L468.09375 26.131248Q467.76562 26.084373 467.46875 26.084373Q466.98438 26.084373 466.78125 26.287498Q466.59375 26.490623 466.59375 27.053123L466.59375 27.631248L467.8125 27.631248L467.8125 28.443748L466.59375 28.443748L466.59375 33.85L465.54688 33.85ZM472.375 33.85L472.375 32.928123Q471.64062 33.990623 470.39062 33.990623Q469.84375 33.990623 469.35938 33.7875Q468.89062 33.56875 468.65625 33.25625Q468.42188 32.928123 468.32812 32.459373Q468.26562 32.1625 468.26562 31.474998L468.26562 27.631248L469.32812 27.631248L469.32812 31.084373Q469.32812 31.896873 469.39062 32.19375Q469.48438 32.6 469.79688 32.85Q470.125 33.084373 470.60938 33.084373Q471.07812 33.084373 471.48438 32.85Q471.90625 32.6 472.07812 32.178123Q472.26562 31.756248 472.26562 30.959373L472.26562 27.631248L473.3125 27.631248L473.3125 33.85L472.375 33.85ZM474.875 31.990623L475.90625 31.834373Q476.0 32.459373 476.39062 32.7875Q476.79688 33.115623 477.53125 33.115623Q478.25 33.115623 478.59375 32.834373Q478.95312 32.5375 478.95312 32.13125Q478.95312 31.771873 478.64062 31.568748Q478.42188 31.428123 477.5625 31.209373Q476.40625 30.912498 475.95312 30.709373Q475.51562 30.490623 475.28125 30.115623Q475.04688 29.740623 475.04688 29.271873Q475.04688 28.865623 475.23438 28.506248Q475.42188 28.146873 475.75 27.912498Q476.0 27.740623 476.42188 27.615623Q476.84375 27.490623 477.34375 27.490623Q478.0625 27.490623 478.60938 27.709373Q479.17188 27.912498 479.4375 28.271873Q479.70312 28.631248 479.79688 29.224998L478.76562 29.365623Q478.70312 28.896873 478.35938 28.631248Q478.03125 28.349998 477.40625 28.349998Q476.6875 28.349998 476.375 28.599998Q476.0625 28.834373 476.0625 29.162498Q476.0625 29.365623 476.1875 29.521873Q476.32812 29.693748 476.59375 29.803123Q476.75 29.865623 477.53125 30.068748Q478.65625 30.381248 479.09375 30.568748Q479.53125 30.756248 479.78125 31.115623Q480.03125 31.474998 480.03125 32.021873Q480.03125 32.553123 479.71875 33.021873Q479.42188 33.475 478.84375 33.740623Q478.26562 33.990623 477.53125 33.990623Q476.3125 33.990623 475.67188 33.490623Q475.04688 32.975 474.875 31.990623ZM482.29688 26.474998L482.29688 25.256248L483.35938 25.256248L483.35938 26.474998L482.29688 26.474998ZM482.29688 33.85L482.29688 27.631248L483.35938 27.631248L483.35938 33.85L482.29688 33.85ZM484.90625 30.740623Q484.90625 29.006248 485.85938 28.178123Q486.65625 27.490623 487.8125 27.490623Q489.09375 27.490623 489.90625 28.334373Q490.73438 29.162498 490.73438 30.646873Q490.73438 31.849998 490.375 32.5375Q490.01562 33.225 489.3125 33.615623Q488.625 33.990623 487.8125 33.990623Q486.51562 33.990623 485.70312 33.1625Q484.90625 32.31875 484.90625 30.740623ZM485.98438 30.740623Q485.98438 31.928123 486.5 32.521873Q487.03125 33.115623 487.8125 33.115623Q488.60938 33.115623 489.125 32.521873Q489.64062 31.928123 489.64062 30.709373Q489.64062 29.553123 489.10938 28.959373Q488.59375 28.365623 487.8125 28.365623Q487.03125 28.365623 486.5 28.959373Q485.98438 29.537498 485.98438 30.740623ZM492.29688 33.85L492.29688 27.631248L493.23438 27.631248L493.23438 28.506248Q493.92188 27.490623 495.21875 27.490623Q495.78125 27.490623 496.25 27.693748Q496.73438 27.896873 496.96875 28.224998Q497.20312 28.553123 497.29688 28.990623Q497.34375 29.287498 497.34375 30.021873L497.34375 33.85L496.29688 33.85L496.29688 30.068748Q496.29688 29.412498 496.17188 29.099998Q496.04688 28.787498 495.73438 28.599998Q495.42188 28.396873 495.0 28.396873Q494.32812 28.396873 493.82812 28.834373Q493.34375 29.256248 493.34375 30.443748L493.34375 33.85L492.29688 33.85Z" fill-rule="nonzero"/><path fill="#fbbc04" d="M526.5 29.85C526.5 33.163708 523.8137 35.85 520.5 35.85C517.1863 35.85 514.5 33.163708 514.5 29.85C514.5 26.536291 517.1863 23.85 520.5 23.85C523.8137 23.85 526.5 26.536291 526.5 29.85Z" fill-rule="nonzero"/><path fill="#1a1a1a" d="M535.3906 33.85L535.3906 25.256248L537.1094 25.256248L539.1406 31.334373Q539.4219 32.19375 539.5469 32.615623Q539.6875 32.146873 540.0 31.240623L542.0625 25.256248L543.59375 25.256248L543.59375 33.85L542.5 33.85L542.5 26.662498L540.0 33.85L538.96875 33.85L536.4844 26.537498L536.4844 33.85L535.3906 33.85ZM544.2969 26.474998L544.2969 25.256248L545.3594 25.256248L545.3594 26.474998L544.2969 26.474998ZM544.2969 33.85L544.2969 27.631248L545.3594 27.631248L545.3594 33.85L544.2969 33.85ZM551.3281 33.85L551.3281 33.06875Q550.7344 33.990623 549.59375 33.990623Q548.84375 33.990623 548.21875 33.584373Q547.59375 33.1625 547.25 32.428123Q546.90625 31.693748 546.90625 30.740623Q546.90625 29.818748 547.21875 29.053123Q547.53125 28.287498 548.15625 27.896873Q548.78125 27.490623 549.5469 27.490623Q550.1094 27.490623 550.5469 27.724998Q550.9844 27.959373 551.2656 28.334373L551.2656 25.256248L552.3125 25.256248L552.3125 33.85L551.3281 33.85ZM548.0 30.740623Q548.0 31.943748 548.5 32.5375Q549.0 33.115623 549.6875 33.115623Q550.375 33.115623 550.8594 32.553123Q551.34375 31.990623 551.34375 30.834373Q551.34375 29.553123 550.84375 28.959373Q550.3594 28.365623 549.6406 28.365623Q548.9375 28.365623 548.46875 28.943748Q548.0 29.506248 548.0 30.740623ZM553.84375 31.412498L554.875 31.271873Q554.90625 32.25625 555.2344 32.615623Q555.5625 32.975 556.15625 32.975Q556.5781 32.975 556.8906 32.7875Q557.2031 32.584373 557.3125 32.25625Q557.4375 31.912498 557.4375 31.178123L557.4375 25.256248L558.5625 25.256248L558.5625 31.115623Q558.5625 32.19375 558.2969 32.7875Q558.0469 33.38125 557.4844 33.69375Q556.9219 33.990623 556.15625 33.990623Q555.03125 33.990623 554.4219 33.35Q553.8281 32.69375 553.84375 31.412498ZM559.90625 30.740623Q559.90625 29.006248 560.8594 28.178123Q561.65625 27.490623 562.8125 27.490623Q564.09375 27.490623 564.90625 28.334373Q565.7344 29.162498 565.7344 30.646873Q565.7344 31.849998 565.375 32.5375Q565.0156 33.225 564.3125 33.615623Q563.625 33.990623 562.8125 33.990623Q561.5156 33.990623 560.7031 33.1625Q559.90625 32.31875 559.90625 30.740623ZM560.9844 30.740623Q560.9844 31.928123 561.5 32.521873Q562.03125 33.115623 562.8125 33.115623Q563.6094 33.115623 564.125 32.521873Q564.6406 31.928123 564.6406 30.709373Q564.6406 29.553123 564.1094 28.959373Q563.59375 28.365623 562.8125 28.365623Q562.03125 28.365623 561.5 28.959373Q560.9844 29.537498 560.9844 30.740623ZM571.375 33.85L571.375 32.928123Q570.6406 33.990623 569.3906 33.990623Q568.84375 33.990623 568.3594 33.7875Q567.8906 33.56875 567.65625 33.25625Q567.4219 32.928123 567.3281 32.459373Q567.2656 32.1625 567.2656 31.474998L567.2656 27.631248L568.3281 27.631248L568.3281 31.084373Q568.3281 31.896873 568.3906 32.19375Q568.4844 32.6 568.7969 32.85Q569.125 33.084373 569.6094 33.084373Q570.0781 33.084373 570.4844 32.85Q570.90625 32.6 571.0781 32.178123Q571.2656 31.756248 571.2656 30.959373L571.2656 27.631248L572.3125 27.631248L572.3125 33.85L571.375 33.85ZM574.28125 33.85L574.28125 27.631248L575.2344 27.631248L575.2344 28.568748Q575.59375 27.912498 575.8906 27.709373Q576.2031 27.490623 576.5781 27.490623Q577.1094 27.490623 577.65625 27.818748L577.2969 28.803123Q576.90625 28.568748 576.53125 28.568748Q576.1719 28.568748 575.8906 28.787498Q575.625 28.990623 575.5156 29.365623Q575.3281 29.928123 575.3281 30.584373L575.3281 33.85L574.28125 33.85ZM578.2969 33.85L578.2969 27.631248L579.2344 27.631248L579.2344 28.506248Q579.9219 27.490623 581.21875 27.490623Q581.78125 27.490623 582.25 27.693748Q582.7344 27.896873 582.96875 28.224998Q583.2031 28.553123 583.2969 28.990623Q583.34375 29.287498 583.34375 30.021873L583.34375 33.85L582.2969 33.85L582.2969 30.068748Q582.2969 29.412498 582.1719 29.099998Q582.0469 28.787498 581.7344 28.599998Q581.4219 28.396873 581.0 28.396873Q580.3281 28.396873 579.8281 28.834373Q579.34375 29.256248 579.34375 30.443748L579.34375 33.85L578.2969 33.85ZM589.5469 31.849998L590.6406 31.974998Q590.3906 32.928123 589.6875 33.459373Q588.9844 33.990623 587.90625 33.990623Q586.5469 33.990623 585.7344 33.146873Q584.9375 32.303123 584.9375 30.787498Q584.9375 29.224998 585.75 28.365623Q586.5625 27.490623 587.84375 27.490623Q589.09375 27.490623 589.875 28.334373Q590.6719 29.178123 590.6719 30.724998Q590.6719 30.818748 590.6719 31.006248L586.03125 31.006248Q586.09375 32.0375 586.6094 32.584373Q587.125 33.115623 587.90625 33.115623Q588.4844 33.115623 588.8906 32.81875Q589.3125 32.50625 589.5469 31.849998ZM586.09375 30.146873L589.5625 30.146873Q589.5 29.349998 589.1719 28.959373Q588.65625 28.349998 587.8594 28.349998Q587.125 28.349998 586.625 28.834373Q586.1406 29.318748 586.09375 30.146873ZM592.25 36.240623L592.125 35.25625Q592.46875 35.35 592.7344 35.35Q593.0781 35.35 593.28125 35.225Q593.5 35.115623 593.6406 34.9125Q593.7344 34.740623 593.96875 34.115623Q593.9844 34.0375 594.0625 33.865623L591.6875 27.631248L592.8281 27.631248L594.125 31.224998Q594.375 31.912498 594.5781 32.678123Q594.7656 31.943748 595.0156 31.256248L596.34375 27.631248L597.3906 27.631248L595.03125 33.959373Q594.6406 34.975 594.4375 35.365623Q594.15625 35.896873 593.78125 36.13125Q593.4219 36.38125 592.9219 36.38125Q592.625 36.38125 592.25 36.240623Z" fill-rule="nonzero"/></svg>