<svg version="1.1" viewBox="0.0 0.0 733.0 457.0" fill="none" stroke="none" stroke-linecap="square" stroke-miterlimit="10" width="733" height="457" xmlns:xlink="http://www.w3.org/1999/xlink" xmlns="http://www.w3.org/2000/svg"><path fill="#ffffff" d="M0 0L733.0 0L733.0 457.0L0 457.0L0 0Z" fill-rule="nonzero"/><path fill="#fbbc04" d="M188.40187 125.675C225.13771 62.04667 293.02832 22.85 366.5 22.85L366.5 228.5Z" fill-rule="nonzero"/><path fill="#4285f4" d="M366.5 22.85C459.57837 22.85 541.0522 85.36707 565.14264 175.27386C589.2331 265.18066 549.9332 360.05896 469.325 406.5981C388.71677 453.1373 286.89984 439.73285 221.0835 373.9165C155.26715 308.10016 141.8627 206.28322 188.40187 125.675L366.5 228.5Z" fill-rule="nonzero"/><path fill="#000000" d="M443.63718 375.24887L441.87155 375.24887L441.87155 364.04575Q441.24655 364.65512 440.2153 365.2645Q439.18405 365.85825 438.35593 366.17075L438.35593 364.46762Q439.8403 363.78012 440.93405 362.79575Q442.04343 361.79575 442.49655 360.87387L443.63718 360.87387L443.63718 375.24887ZM448.01218 368.18637Q448.01218 365.65512 448.5278 364.10825Q449.05905 362.54575 450.0903 361.71762Q451.12155 360.87387 452.68405 360.87387Q453.8403 360.87387 454.69968 361.34262Q455.57468 361.79575 456.13718 362.67075Q456.69968 363.54575 457.0278 364.81137Q457.35593 366.06137 457.35593 368.18637Q457.35593 370.702 456.82468 372.24887Q456.30905 373.79575 455.2778 374.65512Q454.26218 375.49887 452.68405 375.49887Q450.60593 375.49887 449.43405 374.0145Q448.01218 372.21762 448.01218 368.18637ZM449.82468 368.18637Q449.82468 371.71762 450.63718 372.8895Q451.4653 374.04575 452.68405 374.04575Q453.88718 374.04575 454.7153 372.87387Q455.54343 371.702 455.54343 368.18637Q455.54343 364.65512 454.7153 363.49887Q453.88718 362.327 452.66843 362.327Q451.44968 362.327 450.73093 363.35825Q449.82468 364.65512 449.82468 368.18637Z" fill-rule="nonzero"/><path fill="#000000" d="M288.90292 91.50794L288.90292 93.19544L279.4498 93.19544Q279.43417 92.55482 279.65292 91.97669Q280.0123 91.00794 280.80917 90.07044Q281.60605 89.13294 283.10605 87.89857Q285.4498 85.99232 286.2623 84.88294Q287.09042 83.75794 287.09042 82.75794Q287.09042 81.71107 286.34042 80.99232Q285.59042 80.27357 284.3873 80.27357Q283.12167 80.27357 282.35605 81.03919Q281.59042 81.80482 281.59042 83.14857L279.77792 82.96107Q279.96542 80.94544 281.16855 79.88294Q282.3873 78.82044 284.43417 78.82044Q286.48105 78.82044 287.68417 79.96107Q288.8873 81.10169 288.8873 82.78919Q288.8873 83.64857 288.52792 84.49232Q288.18417 85.32044 287.37167 86.24232Q286.55917 87.14857 284.66855 88.75794Q283.0748 90.08607 282.62167 90.55482Q282.18417 91.02357 281.8873 91.50794L288.90292 91.50794Z" fill-rule="nonzero"/><path fill="#1a1a1a" d="M24.63125 51.80678L24.63125 34.61928L28.053125 34.61928L32.115623 46.791157Q32.678123 48.49428 32.94375 49.33803Q33.240623 48.40053 33.85 46.572407L37.975 34.61928L41.021873 34.61928L41.021873 51.80678L38.834373 51.80678L38.834373 37.43178L33.85 51.80678L31.7875 51.80678L26.81875 37.18178L26.81875 51.80678L24.63125 51.80678ZM43.44375 37.05678L43.44375 34.61928L45.553123 34.61928L45.553123 37.05678L43.44375 37.05678ZM43.44375 51.80678L43.44375 39.353657L45.553123 39.353657L45.553123 51.80678L43.44375 51.80678ZM56.50625 51.80678L56.50625 50.228657Q55.31875 52.08803 53.021873 52.08803Q51.5375 52.08803 50.2875 51.27553Q49.0375 50.447407 48.35 48.978657Q47.678123 47.509907 47.678123 45.58803Q47.678123 43.728657 48.2875 42.21303Q48.9125 40.697407 50.146873 39.884907Q51.396873 39.072407 52.928123 39.072407Q54.053123 39.072407 54.928123 39.55678Q55.81875 40.02553 56.365623 40.791157L56.365623 34.61928L58.459373 34.61928L58.459373 51.80678L56.50625 51.80678ZM49.834373 45.58803Q49.834373 47.978657 50.834373 49.166157Q51.85 50.353657 53.225 50.353657Q54.615623 50.353657 55.56875 49.228657Q56.5375 48.08803 56.5375 45.77553Q56.5375 43.21303 55.553123 42.02553Q54.56875 40.822407 53.13125 40.822407Q51.725 40.822407 50.771873 41.978657Q49.834373 43.11928 49.834373 45.58803ZM61.5375 46.93178L63.6 46.65053Q63.678123 48.61928 64.33437 49.353657Q64.99062 50.072407 66.14687 50.072407Q67.00625 50.072407 67.61562 49.68178Q68.24062 49.291157 68.475 48.61928Q68.70937 47.93178 68.70937 46.46303L68.70937 34.61928L70.99062 34.61928L70.99062 46.33803Q70.99062 48.49428 70.45937 49.68178Q69.94375 50.853657 68.80312 51.478657Q67.67812 52.103657 66.1625 52.103657Q63.896873 52.103657 62.69375 50.80678Q61.490623 49.49428 61.5375 46.93178ZM73.64687 45.58803Q73.64687 42.11928 75.56875 40.46303Q77.17812 39.072407 79.49062 39.072407Q82.05312 39.072407 83.67812 40.759907Q85.30312 42.447407 85.30312 45.40053Q85.30312 47.80678 84.58437 49.18178Q83.86562 50.55678 82.49062 51.322407Q81.11562 52.08803 79.49062 52.08803Q76.86562 52.08803 75.25625 50.416157Q73.64687 48.728657 73.64687 45.58803ZM75.81875 45.58803Q75.81875 47.978657 76.85 49.166157Q77.89687 50.353657 79.49062 50.353657Q81.05312 50.353657 82.1 49.166157Q83.14687 47.96303 83.14687 45.509907Q83.14687 43.197407 82.08437 42.009907Q81.0375 40.822407 79.49062 40.822407Q77.89687 40.822407 76.85 42.009907Q75.81875 43.197407 75.81875 45.58803ZM95.58437 51.80678L95.58437 49.978657Q94.13125 52.08803 91.64687 52.08803Q90.5375 52.08803 89.58437 51.666157Q88.63125 51.24428 88.1625 50.603657Q87.70937 49.96303 87.52187 49.041157Q87.38125 48.416157 87.38125 47.072407L87.38125 39.353657L89.49062 39.353657L89.49062 46.259907Q89.49062 47.916157 89.63125 48.49428Q89.81875 49.322407 90.45937 49.80678Q91.11562 50.27553 92.06875 50.27553Q93.00625 50.27553 93.83437 49.791157Q94.67812 49.291157 95.02187 48.46303Q95.36562 47.61928 95.36562 46.02553L95.36562 39.353657L97.475 39.353657L97.475 51.80678L95.58437 51.80678ZM101.4125 51.80678L101.4125 39.353657L103.30312 39.353657L103.30312 41.24428Q104.0375 39.916157 104.64687 39.49428Q105.27187 39.072407 106.00625 39.072407Q107.06875 39.072407 108.17812 39.759907L107.44375 41.71303Q106.67812 41.259907 105.89687 41.259907Q105.20937 41.259907 104.64687 41.68178Q104.1 42.08803 103.86562 42.822407Q103.52187 43.947407 103.52187 45.291157L103.52187 51.80678L101.4125 51.80678ZM109.42812 51.80678L109.42812 39.353657L111.33437 39.353657L111.33437 41.134907Q112.70937 39.072407 115.2875 39.072407Q116.4125 39.072407 117.35 39.478657Q118.30312 39.884907 118.77187 40.541157Q119.24062 41.197407 119.42812 42.103657Q119.55312 42.68178 119.55312 44.15053L119.55312 51.80678L117.44375 51.80678L117.44375 44.228657Q117.44375 42.947407 117.19375 42.30678Q116.94375 41.666157 116.31875 41.291157Q115.69375 40.90053 114.85 40.90053Q113.50625 40.90053 112.52187 41.759907Q111.5375 42.61928 111.5375 45.009907L111.5375 51.80678L109.42812 51.80678ZM131.95938 47.791157L134.13126 48.072407Q133.61563 49.978657 132.225 51.041157Q130.83438 52.08803 128.6625 52.08803Q125.92812 52.08803 124.31875 50.416157Q122.725 48.728657 122.725 45.68178Q122.725 42.541157 124.33437 40.80678Q125.95937 39.072407 128.5375 39.072407Q131.0375 39.072407 132.61563 40.77553Q134.20938 42.478657 134.20938 45.55678Q134.20938 45.74428 134.19376 46.11928L124.9125 46.11928Q125.02187 48.166157 126.06875 49.259907Q127.11562 50.353657 128.67813 50.353657Q129.83438 50.353657 130.64688 49.74428Q131.475 49.134907 131.95938 47.791157ZM125.02187 44.384907L131.975 44.384907Q131.83438 42.822407 131.17813 42.02553Q130.17813 40.80678 128.56876 40.80678Q127.11562 40.80678 126.11562 41.791157Q125.13125 42.759907 125.02187 44.384907ZM136.33438 56.603657L136.1 54.61928Q136.80313 54.80678 137.31876 54.80678Q138.02188 54.80678 138.44376 54.572407Q138.86563 54.33803 139.13126 53.916157Q139.33438 53.603657 139.77188 52.353657Q139.83438 52.166157 139.95938 51.83803L135.24063 39.353657L137.50626 39.353657L140.1 46.572407Q140.6 47.93178 141.00626 49.447407Q141.36563 47.99428 141.86563 46.61928L144.5375 39.353657L146.64688 39.353657L141.9125 52.02553Q141.14688 54.072407 140.725 54.83803Q140.1625 55.884907 139.42813 56.36928Q138.70938 56.853657 137.69376 56.853657Q137.08438 56.853657 136.33438 56.603657Z" fill-rule="nonzero"/><path fill="#9e9e9e" d="M31.7875 82.806786L29.678125 82.806786L29.678125 69.369286Q28.928125 70.088036 27.678125 70.82241Q26.44375 71.54116 25.459375 71.900536L25.459375 69.869286Q27.240625 69.04116 28.553125 67.85366Q29.88125 66.66616 30.428125 65.556786L31.7875 65.556786L31.7875 82.806786ZM47.7875 69.838036L45.69375 69.994286Q45.4125 68.75991 44.896873 68.19741Q44.0375 67.29116 42.7875 67.29116Q41.7875 67.29116 41.021873 67.85366Q40.021873 68.57241 39.44375 69.97866Q38.88125 71.369286 38.85 73.94741Q39.615623 72.79116 40.709373 72.22866Q41.81875 71.66616 43.021873 71.66616Q45.13125 71.66616 46.615623 73.213036Q48.1 74.75991 48.1 77.22866Q48.1 78.838036 47.396873 80.22866Q46.709373 81.619286 45.490623 82.369286Q44.271873 83.10366 42.725 83.10366Q40.084373 83.10366 38.4125 81.16616Q36.75625 79.213036 36.75625 74.75991Q36.75625 69.79116 38.6 67.525536Q40.19375 65.556786 42.9125 65.556786Q44.94375 65.556786 46.240623 66.69741Q47.5375 67.82241 47.7875 69.838036ZM39.178123 77.244286Q39.178123 78.32241 39.63125 79.32241Q40.1 80.32241 40.928123 80.85366Q41.771873 81.369286 42.678123 81.369286Q44.021873 81.369286 44.975 80.29116Q45.94375 79.213036 45.94375 77.35366Q45.94375 75.57241 44.990623 74.556786Q44.0375 73.525536 42.6 73.525536Q41.178123 73.525536 40.178123 74.556786Q39.178123 75.57241 39.178123 77.244286ZM51.0375 82.806786L51.0375 80.400536L53.428123 80.400536L53.428123 82.806786L51.0375 82.806786ZM56.990623 67.869286L56.990623 65.85366L68.11562 65.85366L68.11562 67.494286Q66.475 69.22866 64.85 72.13491Q63.240623 75.025536 62.365623 78.088036Q61.740623 80.244286 61.553123 82.806786L59.396873 82.806786Q59.428123 80.775536 60.178123 77.91616Q60.94375 75.04116 62.365623 72.369286Q63.803123 69.69741 65.39687 67.869286L56.990623 67.869286ZM70.24062 69.744286Q70.24062 67.91616 71.1625 66.63491Q72.1 65.338036 73.85 65.338036Q75.475 65.338036 76.5375 66.494286Q77.6 67.63491 77.6 69.88491Q77.6 72.056786 76.52187 73.244286Q75.44375 74.41616 73.88125 74.41616Q72.31875 74.41616 71.27187 73.25991Q70.24062 72.088036 70.24062 69.744286ZM73.9125 66.79116Q73.13125 66.79116 72.6 67.47866Q72.08437 68.150536 72.08437 69.963036Q72.08437 71.619286 72.61562 72.29116Q73.14687 72.963036 73.9125 72.963036Q74.70937 72.963036 75.225 72.29116Q75.75625 71.60366 75.75625 69.79116Q75.75625 68.13491 75.225 67.463036Q74.69375 66.79116 73.9125 66.79116ZM73.92812 83.44741L83.31875 65.338036L85.0375 65.338036L75.67812 83.44741L73.92812 83.44741ZM81.35 78.775536Q81.35 76.91616 82.27187 75.63491Q83.20937 74.35366 84.975 74.35366Q86.6 74.35366 87.64687 75.50991Q88.70937 76.66616 88.70937 78.900536Q88.70937 81.088036 87.63125 82.275536Q86.56875 83.44741 84.99062 83.44741Q83.42812 83.44741 82.38125 82.275536Q81.35 81.10366 81.35 78.775536ZM85.0375 75.806786Q84.24062 75.806786 83.70937 76.494286Q83.19375 77.16616 83.19375 78.97866Q83.19375 80.619286 83.725 81.306786Q84.25625 81.97866 85.02187 81.97866Q85.83437 81.97866 86.35 81.306786Q86.88125 80.619286 86.88125 78.82241Q86.88125 77.150536 86.35 76.47866Q85.81875 75.806786 85.0375 75.806786Z" fill-rule="nonzero"/><path stroke="#757575" stroke-width="1.0" stroke-linecap="butt" d="M22.85 59.30678L154.85 59.30678L268.81625 59.30678" fill-rule="nonzero"/><path fill="#9e9e9e" d="M270.81625 59.30678C270.81625 58.202213 269.9208 57.30678 268.81625 57.30678C267.71167 57.30678 266.81625 58.202213 266.81625 59.30678C266.81625 60.41135 267.71167 61.30678 268.81625 61.30678C269.9208 61.30678 270.81625 60.41135 270.81625 59.30678" fill-rule="nonzero"/><path fill="#1a1a1a" d="M649.0094 390.1932L649.0094 373.0057L654.91565 373.0057Q656.9313 373.0057 657.97815 373.2557Q659.4625 373.59946 660.4938 374.49008Q661.85315 375.6307 662.525 377.42758Q663.2125 379.20883 663.2125 381.5057Q663.2125 383.45883 662.7438 384.97446Q662.29065 386.49008 661.5719 387.49008Q660.8688 388.47446 660.0094 389.03696Q659.16565 389.59946 657.9625 389.89633Q656.7594 390.1932 655.1969 390.1932L649.0094 390.1932ZM651.275 388.16196L654.9469 388.16196Q656.65 388.16196 657.60315 387.84946Q658.5719 387.53696 659.15 386.95883Q659.9625 386.14633 660.41565 384.78696Q660.8688 383.41196 660.8688 381.47446Q660.8688 378.77133 659.97815 377.33383Q659.0875 375.8807 657.8219 375.39633Q656.91565 375.03696 654.8844 375.03696L651.275 375.03696L651.275 388.16196ZM673.85315 388.66196Q672.6813 389.64633 671.5875 390.0682Q670.5094 390.47446 669.275 390.47446Q667.22815 390.47446 666.1188 389.47446Q665.025 388.47446 665.025 386.91196Q665.025 385.99008 665.4313 385.24008Q665.85315 384.49008 666.525 384.03696Q667.1969 383.5682 668.04065 383.33383Q668.66565 383.17758 669.91565 383.02133Q672.47815 382.70883 673.6813 382.28696Q673.6969 381.86508 673.6969 381.74008Q673.6969 380.45883 673.0875 379.92758Q672.29065 379.20883 670.6969 379.20883Q669.1969 379.20883 668.4938 379.74008Q667.79065 380.2557 667.4469 381.58383L665.3844 381.30258Q665.66565 379.97446 666.3063 379.16196Q666.9469 378.34946 668.16565 377.91196Q669.3844 377.45883 670.9938 377.45883Q672.5875 377.45883 673.5875 377.83383Q674.5875 378.20883 675.0563 378.78696Q675.525 379.34946 675.7125 380.22446Q675.8063 380.7557 675.8063 382.16196L675.8063 384.97446Q675.8063 387.91196 675.9469 388.6932Q676.0875 389.47446 676.47815 390.1932L674.275 390.1932Q673.9469 389.53696 673.85315 388.66196ZM673.6813 383.9432Q672.525 384.41196 670.22815 384.74008Q668.9313 384.92758 668.3844 385.16196Q667.85315 385.39633 667.5563 385.84946Q667.275 386.30258 667.275 386.84946Q667.275 387.6932 667.9 388.2557Q668.54065 388.8182 669.775 388.8182Q670.9938 388.8182 671.9469 388.28696Q672.9 387.7557 673.3375 386.83383Q673.6813 386.11508 673.6813 384.72446L673.6813 383.9432ZM678.6813 390.1932L678.6813 373.0057L680.79065 373.0057L680.79065 390.1932L678.6813 390.1932ZM684.6813 390.1932L684.6813 373.0057L686.79065 373.0057L686.79065 390.1932L684.6813 390.1932ZM689.91565 385.03696L689.91565 382.91196L696.4 382.91196L696.4 385.03696L689.91565 385.03696ZM707.2594 386.17758L709.4313 386.45883Q708.91565 388.36508 707.525 389.42758Q706.1344 390.47446 703.9625 390.47446Q701.22815 390.47446 699.6188 388.80258Q698.025 387.11508 698.025 384.0682Q698.025 380.92758 699.6344 379.1932Q701.2594 377.45883 703.8375 377.45883Q706.3375 377.45883 707.91565 379.16196Q709.5094 380.86508 709.5094 383.9432Q709.5094 384.1307 709.4938 384.5057L700.2125 384.5057Q700.3219 386.55258 701.3688 387.64633Q702.41565 388.74008 703.97815 388.74008Q705.1344 388.74008 705.9469 388.1307Q706.775 387.52133 707.2594 386.17758ZM700.3219 382.77133L707.275 382.77133Q707.1344 381.20883 706.47815 380.41196Q705.47815 379.1932 703.8688 379.1932Q702.41565 379.1932 701.41565 380.17758Q700.4313 381.14633 700.3219 382.77133Z" fill-rule="nonzero"/><path fill="#9e9e9e" d="M647.4 411.8807Q646.0875 411.39633 645.4469 410.5057Q644.8219 409.61508 644.8219 408.36508Q644.8219 406.49008 646.16565 405.22446Q647.5094 403.9432 649.7438 403.9432Q651.9938 403.9432 653.3688 405.2557Q654.7438 406.55258 654.7438 408.42758Q654.7438 409.6307 654.1188 410.52133Q653.4938 411.39633 652.2125 411.8807Q653.79065 412.39633 654.6188 413.55258Q655.4469 414.6932 655.4469 416.28696Q655.4469 418.49008 653.8844 419.99008Q652.3219 421.49008 649.79065 421.49008Q647.2438 421.49008 645.6813 419.99008Q644.1188 418.47446 644.1188 416.22446Q644.1188 414.55258 644.9625 413.42758Q645.8219 412.28696 647.4 411.8807ZM646.97815 408.30258Q646.97815 409.52133 647.7594 410.30258Q648.54065 411.0682 649.79065 411.0682Q651.0094 411.0682 651.79065 410.30258Q652.5719 409.53696 652.5719 408.41196Q652.5719 407.2557 651.7594 406.47446Q650.9625 405.67758 649.775 405.67758Q648.5719 405.67758 647.775 406.45883Q646.97815 407.22446 646.97815 408.30258ZM646.29065 416.24008Q646.29065 417.1307 646.7125 417.97446Q647.15 418.8182 647.9938 419.28696Q648.8375 419.7557 649.8063 419.7557Q651.3219 419.7557 652.3063 418.78696Q653.29065 417.80258 653.29065 416.30258Q653.29065 414.78696 652.275 413.78696Q651.2594 412.78696 649.7438 412.78696Q648.2438 412.78696 647.2594 413.77133Q646.29065 414.7557 646.29065 416.24008ZM657.16565 416.66196L659.275 416.3807Q659.6344 418.16196 660.5094 418.95883Q661.3844 419.7557 662.6344 419.7557Q664.1188 419.7557 665.1344 418.72446Q666.16565 417.6932 666.16565 416.16196Q666.16565 414.70883 665.2125 413.77133Q664.275 412.8182 662.8063 412.8182Q662.2125 412.8182 661.3219 413.05258L661.5563 411.20883Q661.7594 411.22446 661.9 411.22446Q663.2438 411.22446 664.3219 410.52133Q665.4 409.8182 665.4 408.36508Q665.4 407.1932 664.60315 406.4432Q663.8219 405.67758 662.5875 405.67758Q661.35315 405.67758 660.525 406.45883Q659.7125 407.22446 659.47815 408.77133L657.3688 408.39633Q657.7594 406.27133 659.1188 405.11508Q660.4938 403.9432 662.54065 403.9432Q663.9469 403.9432 665.1188 404.55258Q666.3063 405.14633 666.9313 406.1932Q667.5719 407.24008 667.5719 408.41196Q667.5719 409.52133 666.9625 410.4432Q666.3688 411.34946 665.1969 411.8807Q666.72815 412.24008 667.5719 413.34946Q668.41565 414.45883 668.41565 416.11508Q668.41565 418.36508 666.775 419.9432Q665.1344 421.5057 662.6188 421.5057Q660.35315 421.5057 658.85315 420.16196Q657.3688 418.80258 657.16565 416.66196ZM671.3375 421.1932L671.3375 418.78696L673.72815 418.78696L673.72815 421.1932L671.3375 421.1932ZM677.16565 416.66196L679.275 416.3807Q679.6344 418.16196 680.5094 418.95883Q681.3844 419.7557 682.6344 419.7557Q684.1188 419.7557 685.1344 418.72446Q686.16565 417.6932 686.16565 416.16196Q686.16565 414.70883 685.2125 413.77133Q684.275 412.8182 682.8063 412.8182Q682.2125 412.8182 681.3219 413.05258L681.5563 411.20883Q681.7594 411.22446 681.9 411.22446Q683.2438 411.22446 684.3219 410.52133Q685.4 409.8182 685.4 408.36508Q685.4 407.1932 684.60315 406.4432Q683.8219 405.67758 682.5875 405.67758Q681.35315 405.67758 680.525 406.45883Q679.7125 407.22446 679.47815 408.77133L677.3688 408.39633Q677.7594 406.27133 679.1188 405.11508Q680.4938 403.9432 682.54065 403.9432Q683.9469 403.9432 685.1188 404.55258Q686.3063 405.14633 686.9313 406.1932Q687.5719 407.24008 687.5719 408.41196Q687.5719 409.52133 686.9625 410.4432Q686.3688 411.34946 685.1969 411.8807Q686.72815 412.24008 687.5719 413.34946Q688.41565 414.45883 688.41565 416.11508Q688.41565 418.36508 686.775 419.9432Q685.1344 421.5057 682.6188 421.5057Q680.35315 421.5057 678.85315 420.16196Q677.3688 418.80258 677.16565 416.66196ZM690.54065 408.1307Q690.54065 406.30258 691.4625 405.02133Q692.4 403.72446 694.15 403.72446Q695.775 403.72446 696.8375 404.8807Q697.9 406.02133 697.9 408.27133Q697.9 410.4432 696.8219 411.6307Q695.7438 412.80258 694.1813 412.80258Q692.6188 412.80258 691.5719 411.64633Q690.54065 410.47446 690.54065 408.1307ZM694.2125 405.17758Q693.4313 405.17758 692.9 405.86508Q692.3844 406.53696 692.3844 408.34946Q692.3844 410.0057 692.91565 410.67758Q693.4469 411.34946 694.2125 411.34946Q695.0094 411.34946 695.525 410.67758Q696.0563 409.99008 696.0563 408.17758Q696.0563 406.52133 695.525 405.84946Q694.9938 405.17758 694.2125 405.17758ZM694.22815 421.83383L703.6188 403.72446L705.3375 403.72446L695.97815 421.83383L694.22815 421.83383ZM701.65 417.16196Q701.65 415.30258 702.5719 414.02133Q703.5094 412.74008 705.275 412.74008Q706.9 412.74008 707.9469 413.89633Q709.0094 415.05258 709.0094 417.28696Q709.0094 419.47446 707.9313 420.66196Q706.8688 421.83383 705.29065 421.83383Q703.72815 421.83383 702.6813 420.66196Q701.65 419.49008 701.65 417.16196ZM705.3375 414.1932Q704.54065 414.1932 704.0094 414.8807Q703.4938 415.55258 703.4938 417.36508Q703.4938 419.0057 704.025 419.6932Q704.5563 420.36508 705.3219 420.36508Q706.1344 420.36508 706.65 419.6932Q707.1813 419.0057 707.1813 417.20883Q707.1813 415.53696 706.65 414.86508Q706.1188 414.1932 705.3375 414.1932Z" fill-rule="nonzero"/><path stroke="#757575" stroke-width="1.0" stroke-linecap="butt" d="M710.15 397.6932L578.15 397.6932L464.18375 397.6932" fill-rule="nonzero"/><path fill="#9e9e9e" d="M466.18375 397.6932C466.18375 396.58865 465.28833 395.6932 464.18375 395.6932C463.0792 395.6932 462.18375 396.58865 462.18375 397.6932C462.18375 398.7978 463.0792 399.6932 464.18375 399.6932C465.28833 399.6932 466.18375 398.7978 466.18375 397.6932" fill-rule="nonzero"/></svg>