<svg version="1.1" viewBox="0.0 0.0 922.0 462.0" fill="none" stroke="none" stroke-linecap="square" stroke-miterlimit="10" width="922" height="462" xmlns:xlink="http://www.w3.org/1999/xlink" xmlns="http://www.w3.org/2000/svg"><path fill="#ffffff" d="M0 0L922.0 0L922.0 462.0L0 462.0L0 0Z" fill-rule="nonzero"/><path stroke="#333333" stroke-width="1.0" stroke-linecap="butt" d="M50.5 418.5L898.5 418.5" fill-rule="nonzero"/><path stroke="#cccccc" stroke-width="1.0" stroke-linecap="butt" d="M50.5 257.5L898.5 257.5" fill-rule="nonzero"/><path stroke="#cccccc" stroke-width="1.0" stroke-linecap="butt" d="M50.5 96.5L898.5 96.5" fill-rule="nonzero"/><path stroke="#e6e6e6" stroke-width="1.0" stroke-linecap="butt" d="M50.5 365.5L898.5 365.5" fill-rule="nonzero"/><path stroke="#e6e6e6" stroke-width="1.0" stroke-linecap="butt" d="M50.5 311.5L898.5 311.5" fill-rule="nonzero"/><path stroke="#e6e6e6" stroke-width="1.0" stroke-linecap="butt" d="M50.5 204.5L898.5 204.5" fill-rule="nonzero"/><path stroke="#e6e6e6" stroke-width="1.0" stroke-linecap="butt" d="M50.5 150.5L898.5 150.5" fill-rule="nonzero"/><path stroke="#000000" stroke-width="1.0" stroke-linecap="butt" d="M898.5 418.5L50.5 418.5" fill-rule="nonzero"/><path stroke="#000000" stroke-width="1.0" stroke-linecap="butt" d="M50.5 418.5L50.5 96.5" fill-rule="nonzero"/><clipPath id="id_0"><path d="M50.1 96.9L898.9 96.9L898.9 418.9L50.1 418.9L50.1 96.9Z" clip-rule="nonzero"/></clipPath><path stroke="#4285f4" stroke-width="2.0" stroke-linecap="butt" clip-path="url(#id_0)" d="M134.98 257.9L304.74 257.9L474.5 338.4L644.26 177.4L814.02 257.9" fill-rule="nonzero"/><path stroke="#ea4335" stroke-width="2.0" stroke-linecap="butt" clip-path="url(#id_0)" d="M134.98 418.9L304.74 418.9L474.5 418.9L644.26 418.9L814.02 418.9" fill-rule="nonzero"/><path stroke="#fbbc04" stroke-width="2.0" stroke-linecap="butt" clip-path="url(#id_0)" d="M134.98 418.9L304.74 338.4L474.5 338.4L644.26 418.9L814.02 418.9" fill-rule="nonzero"/><path fill="#4285f4" clip-path="url(#id_0)" d="M136.98 257.9C136.98 259.00458 136.08456 259.9 134.98 259.9C133.87543 259.9 132.98 259.00458 132.98 257.9C132.98 256.79544 133.87543 255.9 134.98 255.9C136.08456 255.9 136.98 256.79544 136.98 257.9Z" fill-rule="nonzero"/><path fill="#4285f4" clip-path="url(#id_0)" d="M306.74 257.9C306.74 259.00458 305.84457 259.9 304.74 259.9C303.63544 259.9 302.74 259.00458 302.74 257.9C302.74 256.79544 303.63544 255.9 304.74 255.9C305.84457 255.9 306.74 256.79544 306.74 257.9Z" fill-rule="nonzero"/><path fill="#4285f4" clip-path="url(#id_0)" d="M476.5 338.4C476.5 339.50458 475.60458 340.4 474.5 340.4C473.39542 340.4 472.5 339.50458 472.5 338.4C472.5 337.29544 473.39542 336.4 474.5 336.4C475.60458 336.4 476.5 337.29544 476.5 338.4Z" fill-rule="nonzero"/><path fill="#4285f4" clip-path="url(#id_0)" d="M646.26 177.4C646.26 178.50456 645.36456 179.4 644.26 179.4C643.15546 179.4 642.26 178.50456 642.26 177.4C642.26 176.29543 643.15546 175.4 644.26 175.4C645.36456 175.4 646.26 176.29543 646.26 177.4Z" fill-rule="nonzero"/><path fill="#4285f4" clip-path="url(#id_0)" d="M816.02 257.9C816.02 259.00458 815.1246 259.9 814.02 259.9C812.9154 259.9 812.02 259.00458 812.02 257.9C812.02 256.79544 812.9154 255.9 814.02 255.9C815.1246 255.9 816.02 256.79544 816.02 257.9Z" fill-rule="nonzero"/><path fill="#ea4335" clip-path="url(#id_0)" d="M136.98 418.9C136.98 420.00458 136.08456 420.9 134.98 420.9C133.87543 420.9 132.98 420.00458 132.98 418.9C132.98 417.79544 133.87543 416.9 134.98 416.9C136.08456 416.9 136.98 417.79544 136.98 418.9Z" fill-rule="nonzero"/><path fill="#ea4335" clip-path="url(#id_0)" d="M306.74 418.9C306.74 420.00458 305.84457 420.9 304.74 420.9C303.63544 420.9 302.74 420.00458 302.74 418.9C302.74 417.79544 303.63544 416.9 304.74 416.9C305.84457 416.9 306.74 417.79544 306.74 418.9Z" fill-rule="nonzero"/><path fill="#ea4335" clip-path="url(#id_0)" d="M476.5 418.9C476.5 420.00458 475.60458 420.9 474.5 420.9C473.39542 420.9 472.5 420.00458 472.5 418.9C472.5 417.79544 473.39542 416.9 474.5 416.9C475.60458 416.9 476.5 417.79544 476.5 418.9Z" fill-rule="nonzero"/><path fill="#ea4335" clip-path="url(#id_0)" d="M646.26 418.9C646.26 420.00458 645.36456 420.9 644.26 420.9C643.15546 420.9 642.26 420.00458 642.26 418.9C642.26 417.79544 643.15546 416.9 644.26 416.9C645.36456 416.9 646.26 417.79544 646.26 418.9Z" fill-rule="nonzero"/><path fill="#ea4335" clip-path="url(#id_0)" d="M816.02 418.9C816.02 420.00458 815.1246 420.9 814.02 420.9C812.9154 420.9 812.02 420.00458 812.02 418.9C812.02 417.79544 812.9154 416.9 814.02 416.9C815.1246 416.9 816.02 417.79544 816.02 418.9Z" fill-rule="nonzero"/><path fill="#fbbc04" clip-path="url(#id_0)" d="M136.98 418.9C136.98 420.00458 136.08456 420.9 134.98 420.9C133.87543 420.9 132.98 420.00458 132.98 418.9C132.98 417.79544 133.87543 416.9 134.98 416.9C136.08456 416.9 136.98 417.79544 136.98 418.9Z" fill-rule="nonzero"/><path fill="#fbbc04" clip-path="url(#id_0)" d="M306.74 338.4C306.74 339.50458 305.84457 340.4 304.74 340.4C303.63544 340.4 302.74 339.50458 302.74 338.4C302.74 337.29544 303.63544 336.4 304.74 336.4C305.84457 336.4 306.74 337.29544 306.74 338.4Z" fill-rule="nonzero"/><path fill="#fbbc04" clip-path="url(#id_0)" d="M476.5 338.4C476.5 339.50458 475.60458 340.4 474.5 340.4C473.39542 340.4 472.5 339.50458 472.5 338.4C472.5 337.29544 473.39542 336.4 474.5 336.4C475.60458 336.4 476.5 337.29544 476.5 338.4Z" fill-rule="nonzero"/><path fill="#fbbc04" clip-path="url(#id_0)" d="M646.26 418.9C646.26 420.00458 645.36456 420.9 644.26 420.9C643.15546 420.9 642.26 420.00458 642.26 418.9C642.26 417.79544 643.15546 416.9 644.26 416.9C645.36456 416.9 646.26 417.79544 646.26 418.9Z" fill-rule="nonzero"/><path fill="#fbbc04" clip-path="url(#id_0)" d="M816.02 418.9C816.02 420.00458 815.1246 420.9 814.02 420.9C812.9154 420.9 812.02 420.00458 812.02 418.9C812.02 417.79544 812.9154 416.9 814.02 416.9C815.1246 416.9 816.02 417.79544 816.02 418.9Z" fill-rule="nonzero"/><path fill="#000000" d="M37.6 418.66562Q37.6 417.13437 37.9125 416.2125Q38.225 415.275 38.834373 414.775Q39.459373 414.275 40.396873 414.275Q41.084373 414.275 41.6 414.55624Q42.13125 414.8375 42.475 415.36874Q42.81875 415.88437 43.00625 416.63437Q43.19375 417.38437 43.19375 418.66562Q43.19375 420.18124 42.88125 421.10312Q42.584373 422.025 41.959373 422.54062Q41.35 423.04062 40.396873 423.04062Q39.1625 423.04062 38.44375 422.15Q37.6 421.0875 37.6 418.66562ZM38.678123 418.66562Q38.678123 420.775 39.178123 421.47812Q39.678123 422.18124 40.396873 422.18124Q41.13125 422.18124 41.615623 421.47812Q42.115623 420.775 42.115623 418.66562Q42.115623 416.54062 41.615623 415.85312Q41.13125 415.15 40.38125 415.15Q39.6625 415.15 39.225 415.75937Q38.678123 416.54062 38.678123 418.66562Z" fill-rule="nonzero"/><path fill="#000000" d="M43.146873 260.88437L43.146873 261.9L37.459373 261.9Q37.459373 261.525 37.584373 261.16562Q37.803123 260.5875 38.271873 260.025Q38.75625 259.4625 39.6625 258.72812Q41.06875 257.57187 41.553123 256.9Q42.053123 256.22812 42.053123 255.63437Q42.053123 255.00937 41.6 254.5875Q41.146873 254.15 40.428123 254.15Q39.6625 254.15 39.209373 254.60312Q38.75625 255.05624 38.740623 255.86874L37.6625 255.75937Q37.771873 254.54062 38.490623 253.91562Q39.225 253.275 40.459373 253.275Q41.69375 253.275 42.4125 253.9625Q43.13125 254.65 43.13125 255.66562Q43.13125 256.18124 42.9125 256.68124Q42.709373 257.16562 42.209373 257.72812Q41.725 258.275 40.6 259.22812Q39.646873 260.025 39.365623 260.32187Q39.1 260.60312 38.928123 260.88437L43.146873 260.88437Z" fill-rule="nonzero"/><path fill="#000000" d="M40.975 100.9L40.975 98.8375L37.25625 98.8375L37.25625 97.86875L41.178123 92.30625L42.0375 92.30625L42.0375 97.86875L43.19375 97.86875L43.19375 98.8375L42.0375 98.8375L42.0375 100.9L40.975 100.9ZM40.975 97.86875L40.975 94.00938L38.2875 97.86875L40.975 97.86875Z" fill-rule="nonzero"/><path fill="#000000" d="M118.5425 432.88437L119.6675 433.18124Q119.30813 434.57187 118.38625 435.30624Q117.46438 436.04062 116.12063 436.04062Q114.73 436.04062 113.855 435.47812Q112.98 434.91562 112.52688 433.85312Q112.07375 432.775 112.07375 431.54062Q112.07375 430.19687 112.58938 429.19687Q113.105 428.19687 114.0425 427.68124Q114.99563 427.16562 116.13625 427.16562Q117.4175 427.16562 118.2925 427.82187Q119.18313 428.47812 119.52688 429.66562L118.40188 429.93124Q118.105 428.99374 117.52688 428.57187Q116.96438 428.13437 116.105 428.13437Q115.12063 428.13437 114.44875 428.61874Q113.7925 429.0875 113.51125 429.88437Q113.24563 430.68124 113.24563 431.54062Q113.24563 432.63437 113.55813 433.44687Q113.88625 434.25937 114.55813 434.66562Q115.23 435.07187 116.02688 435.07187Q116.98 435.07187 117.63625 434.525Q118.30813 433.97812 118.5425 432.88437ZM121.24563 435.9L121.24563 427.30624L122.30813 427.30624L122.30813 435.9L121.24563 435.9ZM128.33939 435.13437Q127.74563 435.63437 127.19875 435.8375Q126.6675 436.04062 126.0425 436.04062Q125.01125 436.04062 124.46438 435.54062Q123.9175 435.04062 123.9175 434.25937Q123.9175 433.80624 124.12063 433.43124Q124.32375 433.04062 124.6675 432.82187Q125.01125 432.5875 125.43313 432.47812Q125.73 432.38437 126.37063 432.30624Q127.63625 432.16562 128.24564 431.94687Q128.24564 431.72812 128.24564 431.68124Q128.24564 431.025 127.94875 430.75937Q127.5425 430.41562 126.74563 430.41562Q126.01125 430.41562 125.65188 430.68124Q125.2925 430.93124 125.12063 431.5875L124.08938 431.44687Q124.23 430.79062 124.55813 430.38437Q124.88625 429.97812 125.49563 429.75937Q126.105 429.54062 126.90188 429.54062Q127.69875 429.54062 128.19876 429.72812Q128.69876 429.91562 128.93314 430.19687Q129.16751 430.47812 129.26126 430.91562Q129.30814 431.18124 129.30814 431.88437L129.30814 433.29062Q129.30814 434.75937 129.37064 435.15Q129.44876 435.54062 129.65189 435.9L128.54251 435.9Q128.38626 435.57187 128.33939 435.13437ZM128.24564 432.775Q127.6675 433.00937 126.52688 433.18124Q125.87063 433.275 125.605 433.4Q125.33938 433.50937 125.18313 433.72812Q125.0425 433.94687 125.0425 434.22812Q125.0425 434.65 125.355 434.93124Q125.68313 435.2125 126.2925 435.2125Q126.90188 435.2125 127.37063 434.94687Q127.855 434.68124 128.07376 434.2125Q128.24564 433.85312 128.24564 433.16562L128.24564 432.775ZM135.35501 435.9L135.35501 434.97812Q134.62064 436.04062 133.37064 436.04062Q132.82376 436.04062 132.33939 435.8375Q131.87064 435.61874 131.63626 435.30624Q131.40189 434.97812 131.30814 434.50937Q131.24564 434.2125 131.24564 433.525L131.24564 429.68124L132.30814 429.68124L132.30814 433.13437Q132.30814 433.94687 132.37064 434.24374Q132.46439 434.65 132.77689 434.9Q133.10501 435.13437 133.58939 435.13437Q134.05814 435.13437 134.46439 434.9Q134.88626 434.65 135.05814 434.22812Q135.24564 433.80624 135.24564 433.00937L135.24564 429.68124L136.29251 429.68124L136.29251 435.9L135.35501 435.9ZM142.30814 435.9L142.30814 435.11874Q141.71439 436.04062 140.57376 436.04062Q139.82376 436.04062 139.19876 435.63437Q138.57376 435.2125 138.23001 434.47812Q137.88626 433.74374 137.88626 432.79062Q137.88626 431.86874 138.19876 431.10312Q138.51126 430.3375 139.13626 429.94687Q139.76126 429.54062 140.52689 429.54062Q141.08939 429.54062 141.52689 429.775Q141.96439 430.00937 142.24564 430.38437L142.24564 427.30624L143.29251 427.30624L143.29251 435.9L142.30814 435.9ZM138.98001 432.79062Q138.98001 433.99374 139.48001 434.5875Q139.98001 435.16562 140.66751 435.16562Q141.35501 435.16562 141.83939 434.60312Q142.32376 434.04062 142.32376 432.88437Q142.32376 431.60312 141.82376 431.00937Q141.33939 430.41562 140.62064 430.41562Q139.91751 430.41562 139.44876 430.99374Q138.98001 431.55624 138.98001 432.79062ZM149.52689 433.9L150.62064 434.025Q150.37064 434.97812 149.66751 435.50937Q148.96439 436.04062 147.88626 436.04062Q146.52689 436.04062 145.71439 435.19687Q144.91751 434.35312 144.91751 432.8375Q144.91751 431.275 145.73001 430.41562Q146.54251 429.54062 147.82376 429.54062Q149.07376 429.54062 149.85501 430.38437Q150.65189 431.22812 150.65189 432.775Q150.65189 432.86874 150.65189 433.05624L146.01126 433.05624Q146.07376 434.0875 146.58939 434.63437Q147.10501 435.16562 147.88626 435.16562Q148.46439 435.16562 148.87064 434.86874Q149.29251 434.55624 149.52689 433.9ZM146.07376 432.19687L149.54251 432.19687Q149.48001 431.4 149.15189 431.00937Q148.63626 430.4 147.83939 430.4Q147.10501 430.4 146.60501 430.88437Q146.12064 431.36874 146.07376 432.19687ZM151.98001 433.63437L153.04251 433.49374Q153.21439 434.38437 153.65189 434.79062Q154.08939 435.18124 154.71439 435.18124Q155.46439 435.18124 155.98001 434.66562Q156.49564 434.15 156.49564 433.38437Q156.49564 432.66562 156.01126 432.19687Q155.54251 431.7125 154.80814 431.7125Q154.51126 431.7125 154.05814 431.8375L154.18314 430.9Q154.29251 430.91562 154.35501 430.91562Q155.02689 430.91562 155.55814 430.57187Q156.10501 430.2125 156.10501 429.47812Q156.10501 428.9 155.71439 428.525Q155.32376 428.13437 154.69876 428.13437Q154.08939 428.13437 153.66751 428.525Q153.26126 428.91562 153.15189 429.68124L152.08939 429.49374Q152.27689 428.44687 152.96439 427.86874Q153.65189 427.275 154.66751 427.275Q155.37064 427.275 155.96439 427.5875Q156.55814 427.88437 156.87064 428.4Q157.18314 428.91562 157.18314 429.50937Q157.18314 430.05624 156.88626 430.525Q156.58939 430.97812 156.01126 431.24374Q156.76126 431.41562 157.18314 431.97812Q157.60501 432.525 157.60501 433.36874Q157.60501 434.49374 156.77689 435.275Q155.96439 436.05624 154.71439 436.05624Q153.58939 436.05624 152.83939 435.38437Q152.08939 434.69687 151.98001 433.63437Z" fill-rule="nonzero"/><path fill="#000000" d="M292.3025 432.88437L293.4275 433.18124Q293.0681 434.57187 292.14624 435.30624Q291.22437 436.04062 289.8806 436.04062Q288.49 436.04062 287.615 435.47812Q286.74 434.91562 286.28687 433.85312Q285.83374 432.775 285.83374 431.54062Q285.83374 430.19687 286.34937 429.19687Q286.865 428.19687 287.8025 427.68124Q288.7556 427.16562 289.89624 427.16562Q291.1775 427.16562 292.0525 427.82187Q292.9431 428.47812 293.28687 429.66562L292.16187 429.93124Q291.865 428.99374 291.28687 428.57187Q290.72437 428.13437 289.865 428.13437Q288.8806 428.13437 288.20874 428.61874Q287.5525 429.0875 287.27124 429.88437Q287.0056 430.68124 287.0056 431.54062Q287.0056 432.63437 287.3181 433.44687Q287.64624 434.25937 288.3181 434.66562Q288.99 435.07187 289.78687 435.07187Q290.74 435.07187 291.39624 434.525Q292.0681 433.97812 292.3025 432.88437ZM294.64624 432.79062Q294.64624 431.05624 295.59937 430.22812Q296.39624 429.54062 297.5525 429.54062Q298.83374 429.54062 299.64624 430.38437Q300.47437 431.2125 300.47437 432.69687Q300.47437 433.9 300.115 434.5875Q299.7556 435.275 299.0525 435.66562Q298.365 436.04062 297.5525 436.04062Q296.2556 436.04062 295.4431 435.2125Q294.64624 434.36874 294.64624 432.79062ZM295.72437 432.79062Q295.72437 433.97812 296.24 434.57187Q296.77124 435.16562 297.5525 435.16562Q298.34937 435.16562 298.865 434.57187Q299.3806 433.97812 299.3806 432.75937Q299.3806 431.60312 298.84937 431.00937Q298.33374 430.41562 297.5525 430.41562Q296.77124 430.41562 296.24 431.00937Q295.72437 431.5875 295.72437 432.79062ZM302.03687 438.29062L302.03687 429.68124L302.99 429.68124L302.99 430.47812Q303.33374 430.00937 303.7556 429.775Q304.1931 429.54062 304.8025 429.54062Q305.59937 429.54062 306.20874 429.94687Q306.8181 430.35312 307.115 431.10312Q307.4275 431.85312 307.4275 432.74374Q307.4275 433.69687 307.08374 434.4625Q306.7556 435.22812 306.09937 435.63437Q305.4431 436.04062 304.72437 436.04062Q304.1931 436.04062 303.77124 435.82187Q303.34937 435.5875 303.08374 435.25937L303.08374 438.29062L302.03687 438.29062ZM302.99 432.82187Q302.99 434.025 303.47437 434.60312Q303.95874 435.16562 304.64624 435.16562Q305.34937 435.16562 305.84937 434.57187Q306.34937 433.97812 306.34937 432.72812Q306.34937 431.54062 305.865 430.9625Q305.3806 430.36874 304.6931 430.36874Q304.02124 430.36874 303.5056 430.99374Q302.99 431.61874 302.99 432.82187ZM309.03687 428.525L309.03687 427.30624L310.09937 427.30624L310.09937 428.525L309.03687 428.525ZM309.03687 435.9L309.03687 429.68124L310.09937 429.68124L310.09937 435.9L309.03687 435.9ZM312.0056 435.9L312.0056 427.30624L313.0681 427.30624L313.0681 435.9L312.0056 435.9ZM314.64624 432.79062Q314.64624 431.05624 315.59937 430.22812Q316.39624 429.54062 317.5525 429.54062Q318.83374 429.54062 319.64624 430.38437Q320.47437 431.2125 320.47437 432.69687Q320.47437 433.9 320.115 434.5875Q319.7556 435.275 319.0525 435.66562Q318.365 436.04062 317.5525 436.04062Q316.2556 436.04062 315.4431 435.2125Q314.64624 434.36874 314.64624 432.79062ZM315.72437 432.79062Q315.72437 433.97812 316.24 434.57187Q316.77124 435.16562 317.5525 435.16562Q318.34937 435.16562 318.865 434.57187Q319.3806 433.97812 319.3806 432.75937Q319.3806 431.60312 318.84937 431.00937Q318.33374 430.41562 317.5525 430.41562Q316.77124 430.41562 316.24 431.00937Q315.72437 431.5875 315.72437 432.79062ZM324.33374 434.9625L324.49 435.88437Q324.03687 435.97812 323.6931 435.97812Q323.115 435.97812 322.8025 435.80624Q322.49 435.61874 322.34937 435.32187Q322.22437 435.025 322.22437 434.07187L322.22437 430.49374L321.45874 430.49374L321.45874 429.68124L322.22437 429.68124L322.22437 428.13437L323.27124 427.50937L323.27124 429.68124L324.33374 429.68124L324.33374 430.49374L323.27124 430.49374L323.27124 434.13437Q323.27124 434.5875 323.3181 434.7125Q323.3806 434.8375 323.5056 434.91562Q323.6306 434.99374 323.865 434.99374Q324.0525 434.99374 324.33374 434.9625Z" fill-rule="nonzero"/><path fill="#000000" d="M459.45312 432.525L459.45312 431.525L463.07812 431.50937L463.07812 434.69687Q462.25 435.36874 461.35938 435.7125Q460.46875 436.04062 459.53125 436.04062Q458.26562 436.04062 457.21875 435.50937Q456.1875 434.9625 455.65625 433.94687Q455.14062 432.91562 455.14062 431.65Q455.14062 430.38437 455.65625 429.30624Q456.1875 428.2125 457.17188 427.69687Q458.15625 427.16562 459.4375 427.16562Q460.375 427.16562 461.125 427.4625Q461.875 427.75937 462.29688 428.30624Q462.73438 428.8375 462.95312 429.7125L461.9375 429.99374Q461.73438 429.3375 461.4375 428.9625Q461.15625 428.5875 460.625 428.36874Q460.09375 428.13437 459.45312 428.13437Q458.67188 428.13437 458.09375 428.36874Q457.53125 428.60312 457.17188 428.99374Q456.82812 429.38437 456.64062 429.85312Q456.3125 430.65 456.3125 431.57187Q456.3125 432.72812 456.70312 433.50937Q457.10938 434.275 457.85938 434.65Q458.60938 435.025 459.46875 435.025Q460.20312 435.025 460.90625 434.74374Q461.60938 434.44687 461.96875 434.13437L461.96875 432.525L459.45312 432.525ZM468.54688 433.9L469.64062 434.025Q469.39062 434.97812 468.6875 435.50937Q467.98438 436.04062 466.90625 436.04062Q465.54688 436.04062 464.73438 435.19687Q463.9375 434.35312 463.9375 432.8375Q463.9375 431.275 464.75 430.41562Q465.5625 429.54062 466.84375 429.54062Q468.09375 429.54062 468.875 430.38437Q469.67188 431.22812 469.67188 432.775Q469.67188 432.86874 469.67188 433.05624L465.03125 433.05624Q465.09375 434.0875 465.60938 434.63437Q466.125 435.16562 466.90625 435.16562Q467.48438 435.16562 467.89062 434.86874Q468.3125 434.55624 468.54688 433.9ZM465.09375 432.19687L468.5625 432.19687Q468.5 431.4 468.17188 431.00937Q467.65625 430.4 466.85938 430.4Q466.125 430.4 465.625 430.88437Q465.14062 431.36874 465.09375 432.19687ZM471.29688 435.9L471.29688 429.68124L472.23438 429.68124L472.23438 430.55624Q472.53125 430.0875 473.01562 429.82187Q473.5 429.54062 474.125 429.54062Q474.8125 429.54062 475.25 429.82187Q475.70312 430.10312 475.875 430.61874Q476.625 429.54062 477.79688 429.54062Q478.73438 429.54062 479.21875 430.05624Q479.71875 430.55624 479.71875 431.63437L479.71875 435.9L478.67188 435.9L478.67188 431.97812Q478.67188 431.35312 478.5625 431.07187Q478.46875 430.79062 478.20312 430.61874Q477.9375 430.44687 477.5625 430.44687Q476.90625 430.44687 476.46875 430.88437Q476.04688 431.32187 476.04688 432.29062L476.04688 435.9L474.98438 435.9L474.98438 431.85312Q474.98438 431.15 474.71875 430.80624Q474.46875 430.44687 473.89062 430.44687Q473.4375 430.44687 473.0625 430.68124Q472.6875 430.91562 472.51562 431.36874Q472.34375 431.82187 472.34375 432.66562L472.34375 435.9L471.29688 435.9ZM482.29688 428.525L482.29688 427.30624L483.35938 427.30624L483.35938 428.525L482.29688 428.525ZM482.29688 435.9L482.29688 429.68124L483.35938 429.68124L483.35938 435.9L482.29688 435.9ZM485.29688 435.9L485.29688 429.68124L486.23438 429.68124L486.23438 430.55624Q486.92188 429.54062 488.21875 429.54062Q488.78125 429.54062 489.25 429.74374Q489.73438 429.94687 489.96875 430.275Q490.20312 430.60312 490.29688 431.04062Q490.34375 431.3375 490.34375 432.07187L490.34375 435.9L489.29688 435.9L489.29688 432.11874Q489.29688 431.4625 489.17188 431.15Q489.04688 430.8375 488.73438 430.65Q488.42188 430.44687 488.0 430.44687Q487.32812 430.44687 486.82812 430.88437Q486.34375 431.30624 486.34375 432.49374L486.34375 435.9L485.29688 435.9ZM492.29688 428.525L492.29688 427.30624L493.35938 427.30624L493.35938 428.525L492.29688 428.525ZM492.29688 435.9L492.29688 429.68124L493.35938 429.68124L493.35938 435.9L492.29688 435.9Z" fill-rule="nonzero"/><path fill="#000000" d="M631.71313 432.525L631.71313 431.525L635.33813 431.50937L635.33813 434.69687Q634.51 435.36874 633.6194 435.7125Q632.72876 436.04062 631.79126 436.04062Q630.52563 436.04062 629.47876 435.50937Q628.4475 434.9625 627.91626 433.94687Q627.40063 432.91562 627.40063 431.65Q627.40063 430.38437 627.91626 429.30624Q628.4475 428.2125 629.4319 427.69687Q630.41626 427.16562 631.6975 427.16562Q632.635 427.16562 633.385 427.4625Q634.135 427.75937 634.5569 428.30624Q634.9944 428.8375 635.21313 429.7125L634.1975 429.99374Q633.9944 429.3375 633.6975 428.9625Q633.41626 428.5875 632.885 428.36874Q632.35376 428.13437 631.71313 428.13437Q630.9319 428.13437 630.35376 428.36874Q629.79126 428.60312 629.4319 428.99374Q629.08813 429.38437 628.90063 429.85312Q628.5725 430.65 628.5725 431.57187Q628.5725 432.72812 628.96313 433.50937Q629.3694 434.275 630.1194 434.65Q630.8694 435.025 631.72876 435.025Q632.46313 435.025 633.16626 434.74374Q633.8694 434.44687 634.22876 434.13437L634.22876 432.525L631.71313 432.525ZM636.6819 435.9L636.6819 427.30624L639.9319 427.30624Q640.77563 427.30624 641.22876 427.38437Q641.8694 427.49374 642.29126 427.79062Q642.72876 428.0875 642.97876 428.61874Q643.2444 429.15 643.2444 429.79062Q643.2444 430.88437 642.54126 431.65Q641.85376 432.4 640.02563 432.4L637.8225 432.4L637.8225 435.9L636.6819 435.9ZM637.8225 431.4L640.04126 431.4Q641.15063 431.4 641.60376 430.99374Q642.0725 430.57187 642.0725 429.82187Q642.0725 429.29062 641.79126 428.91562Q641.52563 428.525 641.08813 428.4Q640.79126 428.32187 640.02563 428.32187L637.8225 428.32187L637.8225 431.4ZM646.8694 435.9L646.8694 428.32187L644.04126 428.32187L644.04126 427.30624L650.85376 427.30624L650.85376 428.32187L648.01 428.32187L648.01 435.9L646.8694 435.9ZM651.135 433.32187L651.135 432.25937L654.385 432.25937L654.385 433.32187L651.135 433.32187ZM658.635 435.9L658.635 433.8375L654.91626 433.8375L654.91626 432.86874L658.83813 427.30624L659.6975 427.30624L659.6975 432.86874L660.85376 432.86874L660.85376 433.8375L659.6975 433.8375L659.6975 435.9L658.635 435.9ZM658.635 432.86874L658.635 429.00937L655.9475 432.86874L658.635 432.86874Z" fill-rule="nonzero"/><path fill="#000000" d="M809.4419 435.9L809.4419 427.30624L812.6919 427.30624Q813.53564 427.30624 813.9888 427.38437Q814.6294 427.49374 815.0513 427.79062Q815.4888 428.0875 815.7388 428.61874Q816.0044 429.15 816.0044 429.79062Q816.0044 430.88437 815.3013 431.65Q814.6138 432.4 812.78564 432.4L810.5825 432.4L810.5825 435.9L809.4419 435.9ZM810.5825 431.4L812.8013 431.4Q813.91064 431.4 814.3638 430.99374Q814.8325 430.57187 814.8325 429.82187Q814.8325 429.29062 814.5513 428.91562Q814.28564 428.525 813.84814 428.4Q813.5513 428.32187 812.78564 428.32187L810.5825 428.32187L810.5825 431.4ZM817.3169 428.525L817.3169 427.30624L818.3794 427.30624L818.3794 428.525L817.3169 428.525ZM817.3169 435.9L817.3169 429.68124L818.3794 429.68124L818.3794 435.9L817.3169 435.9Z" fill-rule="nonzero"/><path fill="#4285f4" d="M287.71094 64.5C287.71094 67.813705 285.02466 70.5 281.71094 70.5C278.39722 70.5 275.71094 67.813705 275.71094 64.5C275.71094 61.18629 278.39722 58.5 281.71094 58.5C285.02466 58.5 287.71094 61.18629 287.71094 64.5Z" fill-rule="nonzero"/><path fill="#1a1a1a" d="M298.8203 68.5L298.8203 60.921875L295.9922 60.921875L295.9922 59.90625L302.8047 59.90625L302.8047 60.921875L299.96094 60.921875L299.96094 68.5L298.8203 68.5ZM303.2578 65.734375L304.3203 65.640625Q304.39844 66.296875 304.6797 66.703125Q304.96094 67.109375 305.53906 67.375Q306.1328 67.625 306.8672 67.625Q307.5078 67.625 308.0078 67.4375Q308.5078 67.234375 308.7422 66.90625Q308.9922 66.5625 308.9922 66.171875Q308.9922 65.765625 308.7578 65.46875Q308.52344 65.15625 307.9922 64.953125Q307.6328 64.8125 306.4453 64.53125Q305.27344 64.25 304.8047 64.0Q304.1797 63.671875 303.8828 63.203125Q303.58594 62.71875 303.58594 62.125Q303.58594 61.484375 303.9453 60.921875Q304.3203 60.34375 305.02344 60.0625Q305.7422 59.765625 306.60156 59.765625Q307.5547 59.765625 308.28906 60.078125Q309.02344 60.375 309.41406 60.984375Q309.8047 61.578125 309.83594 62.328125L308.7422 62.40625Q308.64844 61.59375 308.1328 61.1875Q307.6328 60.765625 306.64844 60.765625Q305.6172 60.765625 305.14844 61.140625Q304.6797 61.515625 304.6797 62.046875Q304.6797 62.515625 305.0078 62.8125Q305.33594 63.109375 306.71094 63.421875Q308.10156 63.734375 308.6172 63.96875Q309.3672 64.328125 309.72656 64.859375Q310.08594 65.375 310.08594 66.078125Q310.08594 66.765625 309.6953 67.375Q309.3047 67.96875 308.5703 68.3125Q307.83594 68.640625 306.91406 68.640625Q305.7422 68.640625 304.9453 68.3125Q304.16406 67.96875 303.71094 67.28125Q303.27344 66.59375 303.2578 65.734375Z" fill-rule="nonzero"/><path fill="#ea4335" d="M338.71094 64.5C338.71094 67.813705 336.02466 70.5 332.71094 70.5C329.39722 70.5 326.71094 67.813705 326.71094 64.5C326.71094 61.18629 329.39722 58.5 332.71094 58.5C336.02466 58.5 338.71094 61.18629 338.71094 64.5Z" fill-rule="nonzero"/><path fill="#1a1a1a" d="M347.83594 68.5L347.83594 59.90625L348.96094 59.90625L348.96094 68.5L347.83594 68.5ZM350.2578 65.734375L351.3203 65.640625Q351.39844 66.296875 351.6797 66.703125Q351.96094 67.109375 352.53906 67.375Q353.1328 67.625 353.8672 67.625Q354.5078 67.625 355.0078 67.4375Q355.5078 67.234375 355.7422 66.90625Q355.9922 66.5625 355.9922 66.171875Q355.9922 65.765625 355.7578 65.46875Q355.52344 65.15625 354.9922 64.953125Q354.6328 64.8125 353.4453 64.53125Q352.27344 64.25 351.8047 64.0Q351.1797 63.671875 350.8828 63.203125Q350.58594 62.71875 350.58594 62.125Q350.58594 61.484375 350.9453 60.921875Q351.3203 60.34375 352.02344 60.0625Q352.7422 59.765625 353.60156 59.765625Q354.5547 59.765625 355.28906 60.078125Q356.02344 60.375 356.41406 60.984375Q356.8047 61.578125 356.83594 62.328125L355.7422 62.40625Q355.64844 61.59375 355.1328 61.1875Q354.6328 60.765625 353.64844 60.765625Q352.6172 60.765625 352.14844 61.140625Q351.6797 61.515625 351.6797 62.046875Q351.6797 62.515625 352.0078 62.8125Q352.33594 63.109375 353.71094 63.421875Q355.10156 63.734375 355.6172 63.96875Q356.3672 64.328125 356.72656 64.859375Q357.08594 65.375 357.08594 66.078125Q357.08594 66.765625 356.6953 67.375Q356.3047 67.96875 355.5703 68.3125Q354.83594 68.640625 353.91406 68.640625Q352.7422 68.640625 351.9453 68.3125Q351.16406 67.96875 350.71094 67.28125Q350.27344 66.59375 350.2578 65.734375ZM358.08594 65.921875L358.08594 64.859375L361.33594 64.859375L361.33594 65.921875L358.08594 65.921875ZM362.6328 68.5L362.6328 59.90625L365.60156 59.90625Q366.60156 59.90625 367.1328 60.03125Q367.8672 60.203125 368.3828 60.640625Q369.0703 61.21875 369.39844 62.125Q369.7422 63.015625 369.7422 64.15625Q369.7422 65.140625 369.5078 65.890625Q369.28906 66.640625 368.9297 67.140625Q368.5703 67.640625 368.1328 67.921875Q367.71094 68.203125 367.1172 68.359375Q366.52344 68.5 365.7422 68.5L362.6328 68.5ZM363.77344 67.484375L365.60156 67.484375Q366.46094 67.484375 366.9453 67.328125Q367.4297 67.171875 367.71094 66.875Q368.1172 66.484375 368.33594 65.796875Q368.5703 65.109375 368.5703 64.140625Q368.5703 62.796875 368.1172 62.078125Q367.6797 61.34375 367.0547 61.09375Q366.58594 60.921875 365.58594 60.921875L363.77344 60.921875L363.77344 67.484375Z" fill-rule="nonzero"/><path fill="#fbbc04" d="M398.71094 64.5C398.71094 67.813705 396.02466 70.5 392.71094 70.5C389.39722 70.5 386.71094 67.813705 386.71094 64.5C386.71094 61.18629 389.39722 58.5 392.71094 58.5C396.02466 58.5 398.71094 61.18629 398.71094 64.5Z" fill-rule="nonzero"/><path fill="#1a1a1a" d="M407.83594 68.5L407.83594 59.90625L408.96094 59.90625L408.96094 68.5L407.83594 68.5ZM410.2578 65.734375L411.3203 65.640625Q411.39844 66.296875 411.6797 66.703125Q411.96094 67.109375 412.53906 67.375Q413.1328 67.625 413.8672 67.625Q414.5078 67.625 415.0078 67.4375Q415.5078 67.234375 415.7422 66.90625Q415.9922 66.5625 415.9922 66.171875Q415.9922 65.765625 415.7578 65.46875Q415.52344 65.15625 414.9922 64.953125Q414.6328 64.8125 413.4453 64.53125Q412.27344 64.25 411.8047 64.0Q411.1797 63.671875 410.8828 63.203125Q410.58594 62.71875 410.58594 62.125Q410.58594 61.484375 410.9453 60.921875Q411.3203 60.34375 412.02344 60.0625Q412.7422 59.765625 413.60156 59.765625Q414.5547 59.765625 415.28906 60.078125Q416.02344 60.375 416.41406 60.984375Q416.8047 61.578125 416.83594 62.328125L415.7422 62.40625Q415.64844 61.59375 415.1328 61.1875Q414.6328 60.765625 413.64844 60.765625Q412.6172 60.765625 412.14844 61.140625Q411.6797 61.515625 411.6797 62.046875Q411.6797 62.515625 412.0078 62.8125Q412.33594 63.109375 413.71094 63.421875Q415.10156 63.734375 415.6172 63.96875Q416.3672 64.328125 416.72656 64.859375Q417.08594 65.375 417.08594 66.078125Q417.08594 66.765625 416.6953 67.375Q416.3047 67.96875 415.5703 68.3125Q414.83594 68.640625 413.91406 68.640625Q412.7422 68.640625 411.9453 68.3125Q411.16406 67.96875 410.71094 67.28125Q410.27344 66.59375 410.2578 65.734375ZM418.08594 65.921875L418.08594 64.859375L421.33594 64.859375L421.33594 65.921875L418.08594 65.921875ZM422.2578 65.734375L423.3203 65.640625Q423.39844 66.296875 423.6797 66.703125Q423.96094 67.109375 424.53906 67.375Q425.1328 67.625 425.8672 67.625Q426.5078 67.625 427.0078 67.4375Q427.5078 67.234375 427.7422 66.90625Q427.9922 66.5625 427.9922 66.171875Q427.9922 65.765625 427.7578 65.46875Q427.52344 65.15625 426.9922 64.953125Q426.6328 64.8125 425.4453 64.53125Q424.27344 64.25 423.8047 64.0Q423.1797 63.671875 422.8828 63.203125Q422.58594 62.71875 422.58594 62.125Q422.58594 61.484375 422.9453 60.921875Q423.3203 60.34375 424.02344 60.0625Q424.7422 59.765625 425.60156 59.765625Q426.5547 59.765625 427.28906 60.078125Q428.02344 60.375 428.41406 60.984375Q428.8047 61.578125 428.83594 62.328125L427.7422 62.40625Q427.64844 61.59375 427.1328 61.1875Q426.6328 60.765625 425.64844 60.765625Q424.6172 60.765625 424.14844 61.140625Q423.6797 61.515625 423.6797 62.046875Q423.6797 62.515625 424.0078 62.8125Q424.33594 63.109375 425.71094 63.421875Q427.10156 63.734375 427.6172 63.96875Q428.3672 64.328125 428.72656 64.859375Q429.08594 65.375 429.08594 66.078125Q429.08594 66.765625 428.6953 67.375Q428.3047 67.96875 427.5703 68.3125Q426.83594 68.640625 425.91406 68.640625Q424.7422 68.640625 423.9453 68.3125Q423.16406 67.96875 422.71094 67.28125Q422.27344 66.59375 422.2578 65.734375ZM430.6328 68.5L430.6328 59.90625L433.60156 59.90625Q434.60156 59.90625 435.1328 60.03125Q435.8672 60.203125 436.3828 60.640625Q437.0703 61.21875 437.39844 62.125Q437.7422 63.015625 437.7422 64.15625Q437.7422 65.140625 437.5078 65.890625Q437.28906 66.640625 436.9297 67.140625Q436.5703 67.640625 436.1328 67.921875Q435.71094 68.203125 435.1172 68.359375Q434.52344 68.5 433.7422 68.5L430.6328 68.5ZM431.77344 67.484375L433.60156 67.484375Q434.46094 67.484375 434.9453 67.328125Q435.4297 67.171875 435.71094 66.875Q436.1172 66.484375 436.33594 65.796875Q436.5703 65.109375 436.5703 64.140625Q436.5703 62.796875 436.1172 62.078125Q435.6797 61.34375 435.0547 61.09375Q434.58594 60.921875 433.58594 60.921875L431.77344 60.921875L431.77344 67.484375Z" fill-rule="nonzero"/><path fill="#757575" d="M26.678125 42.1L26.678125 27.787498L37.0375 27.787498L37.0375 29.474998L28.584375 29.474998L28.584375 33.85L36.490623 33.85L36.490623 35.5375L28.584375 35.5375L28.584375 40.4125L37.365623 40.4125L37.365623 42.1L26.678125 42.1ZM39.396873 42.1L39.396873 31.724998L40.975 31.724998L40.975 33.303123Q41.584373 32.19375 42.1 31.849998Q42.615623 31.490623 43.225 31.490623Q44.115623 31.490623 45.0375 32.053123L44.428123 33.69375Q43.7875 33.303123 43.146873 33.303123Q42.56875 33.303123 42.1 33.6625Q41.646873 34.00625 41.44375 34.615623Q41.1625 35.553123 41.1625 36.6625L41.1625 42.1L39.396873 42.1ZM46.396873 42.1L46.396873 31.724998L47.975 31.724998L47.975 33.303123Q48.584373 32.19375 49.1 31.849998Q49.615623 31.490623 50.225 31.490623Q51.115623 31.490623 52.0375 32.053123L51.428123 33.69375Q50.7875 33.303123 50.146873 33.303123Q49.56875 33.303123 49.1 33.6625Q48.646873 34.00625 48.44375 34.615623Q48.1625 35.553123 48.1625 36.6625L48.1625 42.1L46.396873 42.1ZM52.771873 36.9125Q52.771873 34.0375 54.365623 32.646873Q55.709373 31.490623 57.63125 31.490623Q59.771873 31.490623 61.115623 32.896873Q62.475 34.303123 62.475 36.771873Q62.475 38.771873 61.88125 39.928123Q61.2875 41.06875 60.13125 41.709373Q58.990623 42.334373 57.63125 42.334373Q55.44375 42.334373 54.1 40.94375Q52.771873 39.5375 52.771873 36.9125ZM54.56875 36.9125Q54.56875 38.9125 55.428123 39.896873Q56.303123 40.88125 57.63125 40.88125Q58.94375 40.88125 59.803123 39.896873Q60.678123 38.896873 60.678123 36.85Q60.678123 34.928123 59.803123 33.94375Q58.928123 32.94375 57.63125 32.94375Q56.303123 32.94375 55.428123 33.94375Q54.56875 34.928123 54.56875 36.9125ZM64.39687 42.1L64.39687 31.724998L65.975 31.724998L65.975 33.303123Q66.58437 32.19375 67.1 31.849998Q67.61562 31.490623 68.225 31.490623Q69.11562 31.490623 70.0375 32.053123L69.42812 33.69375Q68.7875 33.303123 68.14687 33.303123Q67.56875 33.303123 67.1 33.6625Q66.64687 34.00625 66.44375 34.615623Q66.1625 35.553123 66.1625 36.6625L66.1625 42.1L64.39687 42.1ZM70.70937 39.00625L72.45937 38.725Q72.6 39.771873 73.27187 40.334373Q73.94375 40.88125 75.14687 40.88125Q76.35 40.88125 76.92812 40.396873Q77.52187 39.896873 77.52187 39.240623Q77.52187 38.646873 77.00625 38.303123Q76.64687 38.06875 75.20937 37.709373Q73.27187 37.209373 72.52187 36.865623Q71.7875 36.50625 71.39687 35.88125Q71.00625 35.240623 71.00625 34.475Q71.00625 33.7875 71.31875 33.19375Q71.64687 32.6 72.19375 32.209373Q72.6 31.912498 73.30312 31.709373Q74.02187 31.490623 74.83437 31.490623Q76.05312 31.490623 76.975 31.849998Q77.89687 32.19375 78.33437 32.803123Q78.77187 33.396873 78.94375 34.396873L77.225 34.63125Q77.1 33.834373 76.5375 33.396873Q75.975 32.94375 74.95937 32.94375Q73.74062 32.94375 73.225 33.35Q72.70937 33.740623 72.70937 34.271873Q72.70937 34.615623 72.92812 34.896873Q73.13125 35.178123 73.6 35.365623Q73.86562 35.459373 75.14687 35.803123Q77.02187 36.303123 77.75625 36.63125Q78.49062 36.94375 78.9125 37.553123Q79.33437 38.146873 79.33437 39.053123Q79.33437 39.928123 78.81875 40.709373Q78.30312 41.490623 77.33437 41.9125Q76.36562 42.334373 75.14687 42.334373Q73.13125 42.334373 72.06875 41.490623Q71.00625 40.646873 70.70937 39.00625ZM94.19375 38.303123L95.9125 38.521873Q95.63125 40.31875 94.45937 41.334373Q93.30312 42.334373 91.6 42.334373Q89.475 42.334373 88.17812 40.94375Q86.88125 39.553123 86.88125 36.959373Q86.88125 35.271873 87.42812 34.021873Q87.99062 32.75625 89.13125 32.13125Q90.27187 31.490623 91.61562 31.490623Q93.30312 31.490623 94.36562 32.35Q95.44375 33.209373 95.75625 34.771873L94.0375 35.0375Q93.80312 33.990623 93.17812 33.475Q92.55312 32.94375 91.67812 32.94375Q90.35 32.94375 89.52187 33.896873Q88.69375 34.85 88.69375 36.896873Q88.69375 38.990623 89.49062 39.94375Q90.2875 40.88125 91.58437 40.88125Q92.61562 40.88125 93.30312 40.25625Q94.00625 39.615623 94.19375 38.303123ZM96.77187 36.9125Q96.77187 34.0375 98.36562 32.646873Q99.70937 31.490623 101.63125 31.490623Q103.77187 31.490623 105.11562 32.896873Q106.475 34.303123 106.475 36.771873Q106.475 38.771873 105.88125 39.928123Q105.2875 41.06875 104.13125 41.709373Q102.99062 42.334373 101.63125 42.334373Q99.44375 42.334373 98.1 40.94375Q96.77187 39.5375 96.77187 36.9125ZM98.56875 36.9125Q98.56875 38.9125 99.42812 39.896873Q100.30312 40.88125 101.63125 40.88125Q102.94375 40.88125 103.80312 39.896873Q104.67812 38.896873 104.67812 36.85Q104.67812 34.928123 103.80312 33.94375Q102.92812 32.94375 101.63125 32.94375Q100.30312 32.94375 99.42812 33.94375Q98.56875 34.928123 98.56875 36.9125ZM108.4125 42.1L108.4125 31.724998L109.99062 31.724998L109.99062 33.178123Q110.475 32.428123 111.2875 31.959373Q112.1 31.490623 113.13125 31.490623Q114.2875 31.490623 115.02187 31.974998Q115.75625 32.44375 116.06875 33.303123Q117.30312 31.490623 119.27187 31.490623Q120.81875 31.490623 121.64687 32.35Q122.475 33.209373 122.475 34.975L122.475 42.1L120.725 42.1L120.725 35.56875Q120.725 34.50625 120.55312 34.053123Q120.38125 33.584373 119.92812 33.303123Q119.49062 33.021873 118.88125 33.021873Q117.7875 33.021873 117.05312 33.75625Q116.33437 34.475 116.33437 36.06875L116.33437 42.1L114.58437 42.1L114.58437 35.365623Q114.58437 34.19375 114.14687 33.615623Q113.725 33.021873 112.74062 33.021873Q112.00625 33.021873 111.36562 33.4125Q110.74062 33.803123 110.45937 34.553123Q110.17812 35.303123 110.17812 36.725L110.17812 42.1L108.4125 42.1ZM124.4125 46.06875L124.4125 31.724998L126.02187 31.724998L126.02187 33.06875Q126.58437 32.2875 127.2875 31.896873Q128.00626 31.490623 129.02188 31.490623Q130.35 31.490623 131.36563 32.178123Q132.38126 32.865623 132.89688 34.115623Q133.42813 35.35 133.42813 36.834373Q133.42813 38.428123 132.85 39.709373Q132.2875 40.975 131.19376 41.6625Q130.1 42.334373 128.89688 42.334373Q128.02188 42.334373 127.31875 41.959373Q126.63125 41.584373 126.17812 41.021873L126.17812 46.06875L124.4125 46.06875ZM126.00625 36.975Q126.00625 38.975 126.81875 39.928123Q127.63125 40.88125 128.7875 40.88125Q129.95938 40.88125 130.7875 39.896873Q131.63126 38.9125 131.63126 36.81875Q131.63126 34.85 130.80313 33.865623Q129.99063 32.865623 128.86563 32.865623Q127.74062 32.865623 126.86562 33.928123Q126.00625 34.975 126.00625 36.975ZM142.19376 40.81875Q141.20938 41.646873 140.30313 41.990623Q139.39688 42.334373 138.36563 42.334373Q136.6625 42.334373 135.74063 41.50625Q134.81876 40.6625 134.81876 39.365623Q134.81876 38.6 135.1625 37.975Q135.52188 37.35 136.08438 36.975Q136.64688 36.584373 137.35 36.38125Q137.86563 36.25625 138.9125 36.115623Q141.0375 35.865623 142.0375 35.521873Q142.05313 35.1625 142.05313 35.053123Q142.05313 33.990623 141.55313 33.5375Q140.88126 32.94375 139.55313 32.94375Q138.30313 32.94375 137.70938 33.38125Q137.13126 33.81875 136.85 34.928123L135.13126 34.69375Q135.36563 33.584373 135.89688 32.9125Q136.42813 32.225 137.44376 31.865623Q138.45938 31.490623 139.80313 31.490623Q141.13126 31.490623 141.95938 31.803123Q142.7875 32.115623 143.17813 32.6Q143.56876 33.06875 143.725 33.7875Q143.81876 34.240623 143.81876 35.4125L143.81876 37.75625Q143.81876 40.209373 143.92813 40.865623Q144.0375 41.50625 144.38126 42.1L142.5375 42.1Q142.27188 41.553123 142.19376 40.81875ZM142.0375 36.896873Q141.08438 37.2875 139.1625 37.553123Q138.08438 37.709373 137.63126 37.9125Q137.19376 38.1 136.94376 38.475Q136.69376 38.85 136.69376 39.31875Q136.69376 40.021873 137.225 40.490623Q137.75626 40.959373 138.7875 40.959373Q139.80313 40.959373 140.58438 40.521873Q141.38126 40.06875 141.75626 39.303123Q142.0375 38.69375 142.0375 37.5375L142.0375 36.896873ZM146.39688 42.1L146.39688 31.724998L147.975 31.724998L147.975 33.303123Q148.58438 32.19375 149.1 31.849998Q149.61563 31.490623 150.225 31.490623Q151.11563 31.490623 152.0375 32.053123L151.42813 33.69375Q150.7875 33.303123 150.14688 33.303123Q149.56876 33.303123 149.1 33.6625Q148.64688 34.00625 148.44376 34.615623Q148.1625 35.553123 148.1625 36.6625L148.1625 42.1L146.39688 42.1ZM153.42813 29.803123L153.42813 27.787498L155.19376 27.787498L155.19376 29.803123L153.42813 29.803123ZM153.42813 42.1L153.42813 31.724998L155.19376 31.724998L155.19376 42.1L153.42813 42.1ZM156.70938 39.00625L158.45938 38.725Q158.6 39.771873 159.27188 40.334373Q159.94376 40.88125 161.14688 40.88125Q162.35 40.88125 162.92813 40.396873Q163.52188 39.896873 163.52188 39.240623Q163.52188 38.646873 163.00626 38.303123Q162.64688 38.06875 161.20938 37.709373Q159.27188 37.209373 158.52188 36.865623Q157.7875 36.50625 157.39688 35.88125Q157.00626 35.240623 157.00626 34.475Q157.00626 33.7875 157.31876 33.19375Q157.64688 32.6 158.19376 32.209373Q158.6 31.912498 159.30313 31.709373Q160.02188 31.490623 160.83438 31.490623Q162.05313 31.490623 162.975 31.849998Q163.89688 32.19375 164.33438 32.803123Q164.77188 33.396873 164.94376 34.396873L163.225 34.63125Q163.1 33.834373 162.5375 33.396873Q161.975 32.94375 160.95938 32.94375Q159.74063 32.94375 159.225 33.35Q158.70938 33.740623 158.70938 34.271873Q158.70938 34.615623 158.92813 34.896873Q159.13126 35.178123 159.6 35.365623Q159.86563 35.459373 161.14688 35.803123Q163.02188 36.303123 163.75626 36.63125Q164.49063 36.94375 164.9125 37.553123Q165.33438 38.146873 165.33438 39.053123Q165.33438 39.928123 164.81876 40.709373Q164.30313 41.490623 163.33438 41.9125Q162.36563 42.334373 161.14688 42.334373Q159.13126 42.334373 158.06876 41.490623Q157.00626 40.646873 156.70938 39.00625ZM166.77188 36.9125Q166.77188 34.0375 168.36563 32.646873Q169.70938 31.490623 171.63126 31.490623Q173.77188 31.490623 175.11563 32.896873Q176.475 34.303123 176.475 36.771873Q176.475 38.771873 175.88126 39.928123Q175.2875 41.06875 174.13126 41.709373Q172.99063 42.334373 171.63126 42.334373Q169.44376 42.334373 168.1 40.94375Q166.77188 39.5375 166.77188 36.9125ZM168.56876 36.9125Q168.56876 38.9125 169.42813 39.896873Q170.30313 40.88125 171.63126 40.88125Q172.94376 40.88125 173.80313 39.896873Q174.67813 38.896873 174.67813 36.85Q174.67813 34.928123 173.80313 33.94375Q172.92813 32.94375 171.63126 32.94375Q170.30313 32.94375 169.42813 33.94375Q168.56876 34.928123 168.56876 36.9125ZM178.4125 42.1L178.4125 31.724998L180.00626 31.724998L180.00626 33.209373Q181.14688 31.490623 183.30313 31.490623Q184.24063 31.490623 185.02188 31.834373Q185.81876 32.1625 186.20938 32.709373Q186.6 33.25625 186.75626 34.00625Q186.85 34.50625 186.85 35.725L186.85 42.1L185.08438 42.1L185.08438 35.7875Q185.08438 34.709373 184.88126 34.178123Q184.67813 33.646873 184.14688 33.334373Q183.63126 33.021873 182.92813 33.021873Q181.80313 33.021873 180.99063 33.740623Q180.17813 34.44375 180.17813 36.428123L180.17813 42.1L178.4125 42.1ZM187.70938 39.00625L189.45938 38.725Q189.6 39.771873 190.27188 40.334373Q190.94376 40.88125 192.14688 40.88125Q193.35 40.88125 193.92813 40.396873Q194.52188 39.896873 194.52188 39.240623Q194.52188 38.646873 194.00626 38.303123Q193.64688 38.06875 192.20938 37.709373Q190.27188 37.209373 189.52188 36.865623Q188.7875 36.50625 188.39688 35.88125Q188.00626 35.240623 188.00626 34.475Q188.00626 33.7875 188.31876 33.19375Q188.64688 32.6 189.19376 32.209373Q189.6 31.912498 190.30313 31.709373Q191.02188 31.490623 191.83438 31.490623Q193.05313 31.490623 193.975 31.849998Q194.89688 32.19375 195.33438 32.803123Q195.77188 33.396873 195.94376 34.396873L194.225 34.63125Q194.1 33.834373 193.5375 33.396873Q192.975 32.94375 191.95938 32.94375Q190.74063 32.94375 190.225 33.35Q189.70938 33.740623 189.70938 34.271873Q189.70938 34.615623 189.92813 34.896873Q190.13126 35.178123 190.6 35.365623Q190.86563 35.459373 192.14688 35.803123Q194.02188 36.303123 194.75626 36.63125Q195.49063 36.94375 195.9125 37.553123Q196.33438 38.146873 196.33438 39.053123Q196.33438 39.928123 195.81876 40.709373Q195.30313 41.490623 194.33438 41.9125Q193.36563 42.334373 192.14688 42.334373Q190.13126 42.334373 189.06876 41.490623Q188.00626 40.646873 187.70938 39.00625Z" fill-rule="nonzero"/></svg>