<svg version="1.1" viewBox="0.0 0.0 600.0 371.0" fill="none" stroke="none" stroke-linecap="square" stroke-miterlimit="10" width="600" height="371" xmlns:xlink="http://www.w3.org/1999/xlink" xmlns="http://www.w3.org/2000/svg"><path fill="#ffffff" d="M0 0L600.0 0L600.0 371.0L0 371.0L0 0Z" fill-rule="nonzero"/><path stroke="#cccccc" stroke-width="1.0" stroke-linecap="butt" d="M79.5 25.5L79.5 332.5" fill-rule="nonzero"/><path stroke="#cccccc" stroke-width="1.0" stroke-linecap="butt" d="M166.5 25.5L166.5 332.5" fill-rule="nonzero"/><path stroke="#cccccc" stroke-width="1.0" stroke-linecap="butt" d="M252.5 25.5L252.5 332.5" fill-rule="nonzero"/><path stroke="#cccccc" stroke-width="1.0" stroke-linecap="butt" d="M339.5 25.5L339.5 332.5" fill-rule="nonzero"/><path stroke="#cccccc" stroke-width="1.0" stroke-linecap="butt" d="M426.5 25.5L426.5 332.5" fill-rule="nonzero"/><path stroke="#cccccc" stroke-width="1.0" stroke-linecap="butt" d="M512.5 25.5L512.5 332.5" fill-rule="nonzero"/><path stroke="#333333" stroke-width="1.0" stroke-linecap="butt" d="M45.5 332.5L581.5 332.5" fill-rule="nonzero"/><path stroke="#cccccc" stroke-width="1.0" stroke-linecap="butt" d="M45.5 281.5L581.5 281.5" fill-rule="nonzero"/><path stroke="#cccccc" stroke-width="1.0" stroke-linecap="butt" d="M45.5 230.5L581.5 230.5" fill-rule="nonzero"/><path stroke="#cccccc" stroke-width="1.0" stroke-linecap="butt" d="M45.5 179.5L581.5 179.5" fill-rule="nonzero"/><path stroke="#cccccc" stroke-width="1.0" stroke-linecap="butt" d="M45.5 127.5L581.5 127.5" fill-rule="nonzero"/><path stroke="#cccccc" stroke-width="1.0" stroke-linecap="butt" d="M45.5 76.5L581.5 76.5" fill-rule="nonzero"/><path stroke="#cccccc" stroke-width="1.0" stroke-linecap="butt" d="M45.5 25.5L581.5 25.5" fill-rule="nonzero"/><clipPath id="id_0"><path d="M45.55 25.55L581.45 25.55L581.45 332.45L45.55 332.45L45.55 25.55Z" clip-rule="nonzero"/></clipPath><path fill="#4285f4" fill-opacity="0.8" clip-path="url(#id_0)" d="M281.93237 102.275C281.93237 113.56025 272.78387 122.708755 261.49863 122.708755C250.21336 122.708755 241.06487 113.56025 241.06487 102.275C241.06487 90.989746 250.21336 81.84124 261.49863 81.84124C272.78387 81.84124 281.93237 90.989746 281.93237 102.275Z" fill-rule="nonzero"/><path fill="#4285f4" fill-opacity="0.8" clip-path="url(#id_0)" d="M379.16757 102.275C379.16757 119.39583 365.28842 133.275 348.16757 133.275C331.04675 133.275 317.16757 119.39583 317.16757 102.275C317.16757 85.154175 331.04675 71.275 348.16757 71.275C365.28842 71.275 379.16757 85.154175 379.16757 102.275Z" fill-rule="nonzero"/><path fill="#4285f4" fill-opacity="0.8" clip-path="url(#id_0)" d="M325.26685 102.275C325.26685 113.56025 316.11835 122.708755 304.8331 122.708755C293.54785 122.708755 284.39935 113.56025 284.39935 102.275C284.39935 90.989746 293.54785 81.84124 304.8331 81.84124C316.11835 81.84124 325.26685 90.989746 325.26685 102.275Z" fill-rule="nonzero"/><path fill="#4285f4" fill-opacity="0.8" clip-path="url(#id_0)" d="M379.16757 102.275C379.16757 119.39583 365.28842 133.275 348.16757 133.275C331.04675 133.275 317.16757 119.39583 317.16757 102.275C317.16757 85.154175 331.04675 71.275 348.16757 71.275C365.28842 71.275 379.16757 85.154175 379.16757 102.275Z" fill-rule="nonzero"/><path fill="#ea4335" fill-opacity="0.8" clip-path="url(#id_0)" d="M316.59998 255.725C316.59998 267.01025 307.45145 276.15875 296.1662 276.15875C284.88095 276.15875 275.73245 267.01025 275.73245 255.725C275.73245 244.43974 284.88095 235.29124 296.1662 235.29124C307.45145 235.29124 316.59998 244.43974 316.59998 255.725Z" fill-rule="nonzero"/><path fill="#ea4335" fill-opacity="0.8" clip-path="url(#id_0)" d="M238.5979 255.725C238.5979 267.01025 229.44939 276.15875 218.16414 276.15875C206.87889 276.15875 197.73038 267.01025 197.73038 255.725C197.73038 244.43974 206.87889 235.29124 218.16414 235.29124C229.44939 235.29124 238.5979 244.43974 238.5979 255.725Z" fill-rule="nonzero"/><path fill="#ea4335" fill-opacity="0.8" clip-path="url(#id_0)" d="M342.60065 255.725C342.60065 267.01025 333.45215 276.15875 322.1669 276.15875C310.88165 276.15875 301.73315 267.01025 301.73315 255.725C301.73315 244.43974 310.88165 235.29124 322.1669 235.29124C333.45215 235.29124 342.60065 244.43974 342.60065 255.725Z" fill-rule="nonzero"/><path fill="#ea4335" fill-opacity="0.8" clip-path="url(#id_0)" d="M290.59927 255.725C290.59927 267.01025 281.45078 276.15875 270.16553 276.15875C258.88028 276.15875 249.73177 267.01025 249.73177 255.725C249.73177 244.43974 258.88028 235.29124 270.16553 235.29124C281.45078 235.29124 290.59927 244.43974 290.59927 255.725Z" fill-rule="nonzero"/><path fill="#fbbc04" fill-opacity="0.8" clip-path="url(#id_0)" d="M383.2469 179.0C383.2469 193.58717 371.42166 205.41241 356.83447 205.41241C342.2473 205.41241 330.42206 193.58717 330.42206 179.0C330.42206 164.41283 342.2473 152.58759 356.83447 152.58759C371.42166 152.58759 383.2469 164.41283 383.2469 179.0Z" fill-rule="nonzero"/><path fill="#4285f4" fill-opacity="0.8" clip-path="url(#id_0)" d="M264.59857 102.275C264.59857 113.56025 255.45007 122.708755 244.16483 122.708755C232.87958 122.708755 223.73106 113.56025 223.73106 102.275C223.73106 90.989746 232.87958 81.84124 244.16483 81.84124C255.45007 81.84124 264.59857 90.989746 264.59857 102.275Z" fill-rule="nonzero"/><path fill="#fbbc04" fill-opacity="0.8" clip-path="url(#id_0)" d="M305.24484 179.0C305.24484 193.58717 293.4196 205.41241 278.83243 205.41241C264.24524 205.41241 252.42 193.58717 252.42 179.0C252.42 164.41283 264.24524 152.58759 278.83243 152.58759C293.4196 152.58759 305.24484 164.41283 305.24484 179.0Z" fill-rule="nonzero"/><path fill="#34a853" fill-opacity="0.8" clip-path="url(#id_0)" d="M309.83243 153.425C309.83243 170.54582 295.95325 184.425 278.83243 184.425C261.71158 184.425 247.83241 170.54582 247.83241 153.425C247.83241 136.30417 261.71158 122.425 278.83243 122.425C295.95325 122.425 309.83243 136.30417 309.83243 153.425Z" fill-rule="nonzero"/><path fill="#34a853" fill-opacity="0.8" clip-path="url(#id_0)" d="M481.271 153.425C481.271 164.71025 472.1225 173.85875 460.83725 173.85875C449.552 173.85875 440.40347 164.71025 440.40347 153.425C440.40347 142.13976 449.552 132.99124 460.83725 132.99124C472.1225 132.99124 481.271 142.13976 481.271 153.425Z" fill-rule="nonzero"/><path fill="#fbbc04" fill-opacity="0.8" clip-path="url(#id_0)" d="M391.9138 179.0C391.9138 193.58717 380.08856 205.41241 365.50137 205.41241C350.9142 205.41241 339.08896 193.58717 339.08896 179.0C339.08896 164.41283 350.9142 152.58759 365.50137 152.58759C380.08856 152.58759 391.9138 164.41283 391.9138 179.0Z" fill-rule="nonzero"/><path fill="#34a853" fill-opacity="0.8" clip-path="url(#id_0)" d="M348.5793 153.425C348.5793 168.01218 336.75406 179.83742 322.1669 179.83742C307.5797 179.83742 295.7545 168.01218 295.7545 153.425C295.7545 138.83783 307.5797 127.01259 322.1669 127.01259C336.75406 127.01259 348.5793 138.83783 348.5793 153.425Z" fill-rule="nonzero"/><path fill="#ff6d01" fill-opacity="0.8" clip-path="url(#id_0)" d="M279.24414 127.85C279.24414 142.43718 267.41888 154.26242 252.83173 154.26242C238.24455 154.26242 226.41931 142.43718 226.41931 127.85C226.41931 113.262825 238.24455 101.437584 252.83173 101.437584C267.41888 101.437584 279.24414 113.262825 279.24414 127.85Z" fill-rule="nonzero"/><path fill="#4285f4" fill-opacity="0.8" clip-path="url(#id_0)" d="M365.91312 102.275C365.91312 116.862175 354.08786 128.68741 339.5007 128.68741C324.9135 128.68741 313.0883 116.862175 313.0883 102.275C313.0883 87.68783 324.9135 75.86259 339.5007 75.86259C354.08786 75.86259 365.91312 87.68783 365.91312 102.275Z" fill-rule="nonzero"/><path fill="#ff6d01" fill-opacity="0.8" clip-path="url(#id_0)" d="M195.26341 127.85C195.26341 139.13525 186.11491 148.28375 174.82965 148.28375C163.5444 148.28375 154.3959 139.13525 154.3959 127.85C154.3959 116.56475 163.5444 107.416245 174.82965 107.416245C186.11491 107.416245 195.26341 116.56475 195.26341 127.85Z" fill-rule="nonzero"/><path fill="#46bdc6" fill-opacity="0.8" clip-path="url(#id_0)" d="M446.60342 204.575C446.60342 215.86024 437.4549 225.00876 426.16965 225.00876C414.8844 225.00876 405.7359 215.86024 405.7359 204.575C405.7359 193.28975 414.8844 184.14125 426.16965 184.14125C437.4549 184.14125 446.60342 193.28975 446.60342 204.575Z" fill-rule="nonzero"/><path fill="#46bdc6" fill-opacity="0.8" clip-path="url(#id_0)" d="M348.5793 204.575C348.5793 219.16217 336.75406 230.98741 322.1669 230.98741C307.5797 230.98741 295.7545 219.16217 295.7545 204.575C295.7545 189.98782 307.5797 178.16258 322.1669 178.16258C336.75406 178.16258 348.5793 189.98782 348.5793 204.575Z" fill-rule="nonzero"/><path fill="#34a853" fill-opacity="0.8" clip-path="url(#id_0)" d="M351.26755 153.425C351.26755 164.71025 342.11905 173.85875 330.8338 173.85875C319.54855 173.85875 310.40002 164.71025 310.40002 153.425C310.40002 142.13976 319.54855 132.99124 330.8338 132.99124C342.11905 132.99124 351.26755 142.13976 351.26755 153.425Z" fill-rule="nonzero"/><path fill="#ea4335" fill-opacity="0.8" clip-path="url(#id_0)" d="M455.2703 255.725C455.2703 267.01025 446.1218 276.15875 434.83655 276.15875C423.5513 276.15875 414.4028 267.01025 414.4028 255.725C414.4028 244.43974 423.5513 235.29124 434.83655 235.29124C446.1218 235.29124 455.2703 244.43974 455.2703 255.725Z" fill-rule="nonzero"/><path fill="#ff6d01" fill-opacity="0.8" clip-path="url(#id_0)" d="M383.2469 127.85C383.2469 142.43718 371.42166 154.26242 356.83447 154.26242C342.2473 154.26242 330.42206 142.43718 330.42206 127.85C330.42206 113.262825 342.2473 101.437584 356.83447 101.437584C371.42166 101.437584 383.2469 113.262825 383.2469 127.85Z" fill-rule="nonzero"/><path fill="#46bdc6" fill-opacity="0.8" clip-path="url(#id_0)" d="M351.26755 204.575C351.26755 215.86024 342.11905 225.00876 330.8338 225.00876C319.54855 225.00876 310.40002 215.86024 310.40002 204.575C310.40002 193.28975 319.54855 184.14125 330.8338 184.14125C342.11905 184.14125 351.26755 193.28975 351.26755 204.575Z" fill-rule="nonzero"/><path fill="#ff6d01" fill-opacity="0.8" clip-path="url(#id_0)" d="M335.8331 127.85C335.8331 144.97083 321.95392 158.85 304.8331 158.85C287.71228 158.85 273.8331 144.97083 273.8331 127.85C273.8331 110.72917 287.71228 96.85 304.8331 96.85C321.95392 96.85 335.8331 110.72917 335.8331 127.85Z" fill-rule="nonzero"/><path fill="#7baaf7" fill-opacity="0.8" clip-path="url(#id_0)" d="M463.9372 230.15C463.9372 241.43526 454.7887 250.58376 443.50345 250.58376C432.2182 250.58376 423.0697 241.43526 423.0697 230.15C423.0697 218.86475 432.2182 209.71625 443.50345 209.71625C454.7887 209.71625 463.9372 218.86475 463.9372 230.15Z" fill-rule="nonzero"/><path fill="#f07b72" fill-opacity="0.8" clip-path="url(#id_0)" d="M377.26825 281.3C377.26825 292.58527 368.11972 301.73376 356.83447 301.73376C345.54922 301.73376 336.40073 292.58527 336.40073 281.3C336.40073 270.01474 345.54922 260.86624 356.83447 260.86624C368.11972 260.86624 377.26825 270.01474 377.26825 281.3Z" fill-rule="nonzero"/><path fill="#fbbc04" fill-opacity="0.8" clip-path="url(#id_0)" d="M469.91586 179.0C469.91586 193.58717 458.09064 205.41241 443.50345 205.41241C428.91626 205.41241 417.09103 193.58717 417.09103 179.0C417.09103 164.41283 428.91626 152.58759 443.50345 152.58759C458.09064 152.58759 469.91586 164.41283 469.91586 179.0Z" fill-rule="nonzero"/><path fill="#7baaf7" fill-opacity="0.8" clip-path="url(#id_0)" d="M351.26755 230.15C351.26755 241.43526 342.11905 250.58376 330.8338 250.58376C319.54855 250.58376 310.40002 241.43526 310.40002 230.15C310.40002 218.86475 319.54855 209.71625 330.8338 209.71625C342.11905 209.71625 351.26755 218.86475 351.26755 230.15Z" fill-rule="nonzero"/><path fill="#34a853" fill-opacity="0.8" clip-path="url(#id_0)" d="M333.93375 153.425C333.93375 164.71025 324.78525 173.85875 313.5 173.85875C302.21475 173.85875 293.06625 164.71025 293.06625 153.425C293.06625 142.13976 302.21475 132.99124 313.5 132.99124C324.78525 132.99124 333.93375 142.13976 333.93375 153.425Z" fill-rule="nonzero"/><path fill="#46bdc6" fill-opacity="0.8" clip-path="url(#id_0)" d="M481.271 204.575C481.271 215.86024 472.1225 225.00876 460.83725 225.00876C449.552 225.00876 440.40347 215.86024 440.40347 204.575C440.40347 193.28975 449.552 184.14125 460.83725 184.14125C472.1225 184.14125 481.271 193.28975 481.271 204.575Z" fill-rule="nonzero"/><path fill="#f07b72" fill-opacity="0.8" clip-path="url(#id_0)" d="M281.93237 281.3C281.93237 292.58527 272.78387 301.73376 261.49863 301.73376C250.21336 301.73376 241.06487 292.58527 241.06487 281.3C241.06487 270.01474 250.21336 260.86624 261.49863 260.86624C272.78387 260.86624 281.93237 270.01474 281.93237 281.3Z" fill-rule="nonzero"/><path fill="#ff6d01" fill-opacity="0.8" clip-path="url(#id_0)" d="M446.60342 127.85C446.60342 139.13525 437.4549 148.28375 426.16965 148.28375C414.8844 148.28375 405.7359 139.13525 405.7359 127.85C405.7359 116.56475 414.8844 107.416245 426.16965 107.416245C437.4549 107.416245 446.60342 116.56475 446.60342 127.85Z" fill-rule="nonzero"/><path fill="#34a853" fill-opacity="0.8" clip-path="url(#id_0)" d="M409.2476 153.425C409.2476 168.01218 397.42233 179.83742 382.83517 179.83742C368.248 179.83742 356.42276 168.01218 356.42276 153.425C356.42276 138.83783 368.248 127.01259 382.83517 127.01259C397.42233 127.01259 409.2476 138.83783 409.2476 153.425Z" fill-rule="nonzero"/><path fill="#34a853" fill-opacity="0.8" clip-path="url(#id_0)" d="M409.2476 153.425C409.2476 168.01218 397.42233 179.83742 382.83517 179.83742C368.248 179.83742 356.42276 168.01218 356.42276 153.425C356.42276 138.83783 368.248 127.01259 382.83517 127.01259C397.42233 127.01259 409.2476 138.83783 409.2476 153.425Z" fill-rule="nonzero"/><path fill="#f07b72" fill-opacity="0.8" clip-path="url(#id_0)" d="M420.60272 281.3C420.60272 292.58527 411.45422 301.73376 400.16898 301.73376C388.88373 301.73376 379.7352 292.58527 379.7352 281.3C379.7352 270.01474 388.88373 260.86624 400.16898 260.86624C411.45422 260.86624 420.60272 270.01474 420.60272 281.3Z" fill-rule="nonzero"/><path fill="#4285f4" fill-opacity="0.8" clip-path="url(#id_0)" d="M400.5807 102.275C400.5807 116.862175 388.75546 128.68741 374.16827 128.68741C359.58112 128.68741 347.75586 116.862175 347.75586 102.275C347.75586 87.68783 359.58112 75.86259 374.16827 75.86259C388.75546 75.86259 400.5807 87.68783 400.5807 102.275Z" fill-rule="nonzero"/><path fill="#fbbc04" fill-opacity="0.8" clip-path="url(#id_0)" d="M253.24345 179.0C253.24345 193.58717 241.41821 205.41241 226.83104 205.41241C212.24387 205.41241 200.41862 193.58717 200.41862 179.0C200.41862 164.41283 212.24387 152.58759 226.83104 152.58759C241.41821 152.58759 253.24345 164.41283 253.24345 179.0Z" fill-rule="nonzero"/><path fill="#fbbc04" fill-opacity="0.8" clip-path="url(#id_0)" d="M99.92755 179.0C99.92755 190.28525 90.779045 199.43376 79.49379 199.43376C68.20854 199.43376 59.060036 190.28525 59.060036 179.0C59.060036 167.71475 68.20854 158.56624 79.49379 158.56624C90.779045 158.56624 99.92755 167.71475 99.92755 179.0Z" fill-rule="nonzero"/><path fill="#fbbc04" fill-opacity="0.8" clip-path="url(#id_0)" d="M469.91586 179.0C469.91586 193.58717 458.09064 205.41241 443.50345 205.41241C428.91626 205.41241 417.09103 193.58717 417.09103 179.0C417.09103 164.41283 428.91626 152.58759 443.50345 152.58759C458.09064 152.58759 469.91586 164.41283 469.91586 179.0Z" fill-rule="nonzero"/><path fill="#ff6d01" fill-opacity="0.8" clip-path="url(#id_0)" d="M344.5 127.85C344.5 144.97083 330.62082 158.85 313.5 158.85C296.37918 158.85 282.5 144.97083 282.5 127.85C282.5 110.72917 296.37918 96.85 313.5 96.85C330.62082 96.85 344.5 110.72917 344.5 127.85Z" fill-rule="nonzero"/><path fill="#fbbc04" fill-opacity="0.8" clip-path="url(#id_0)" d="M455.2703 179.0C455.2703 190.28525 446.1218 199.43376 434.83655 199.43376C423.5513 199.43376 414.4028 190.28525 414.4028 179.0C414.4028 167.71475 423.5513 158.56624 434.83655 158.56624C446.1218 158.56624 455.2703 167.71475 455.2703 179.0Z" fill-rule="nonzero"/><path fill="#fbbc04" fill-opacity="0.8" clip-path="url(#id_0)" d="M391.9138 179.0C391.9138 193.58717 380.08856 205.41241 365.50137 205.41241C350.9142 205.41241 339.08896 193.58717 339.08896 179.0C339.08896 164.41283 350.9142 152.58759 365.50137 152.58759C380.08856 152.58759 391.9138 164.41283 391.9138 179.0Z" fill-rule="nonzero"/><path fill="#ff6d01" fill-opacity="0.8" clip-path="url(#id_0)" d="M365.91312 127.85C365.91312 142.43718 354.08786 154.26242 339.5007 154.26242C324.9135 154.26242 313.0883 142.43718 313.0883 127.85C313.0883 113.262825 324.9135 101.437584 339.5007 101.437584C354.08786 101.437584 365.91312 113.262825 365.91312 127.85Z" fill-rule="nonzero"/><path fill="#34a853" fill-opacity="0.8" clip-path="url(#id_0)" d="M309.83243 153.425C309.83243 170.54582 295.95325 184.425 278.83243 184.425C261.71158 184.425 247.83241 170.54582 247.83241 153.425C247.83241 136.30417 261.71158 122.425 278.83243 122.425C295.95325 122.425 309.83243 136.30417 309.83243 153.425Z" fill-rule="nonzero"/><path fill="#34a853" fill-opacity="0.8" clip-path="url(#id_0)" d="M411.93582 153.425C411.93582 164.71025 402.78732 173.85875 391.50208 173.85875C380.21683 173.85875 371.0683 164.71025 371.0683 153.425C371.0683 142.13976 380.21683 132.99124 391.50208 132.99124C402.78732 132.99124 411.93582 142.13976 411.93582 153.425Z" fill-rule="nonzero"/><path fill="#ff6d01" fill-opacity="0.8" clip-path="url(#id_0)" d="M489.9379 127.85C489.9379 139.13525 480.7894 148.28375 469.50415 148.28375C458.21887 148.28375 449.07037 139.13525 449.07037 127.85C449.07037 116.56475 458.21887 107.416245 469.50415 107.416245C480.7894 107.416245 489.9379 116.56475 489.9379 127.85Z" fill-rule="nonzero"/><path fill="#ff6d01" fill-opacity="0.8" clip-path="url(#id_0)" d="M307.93307 127.85C307.93307 139.13525 298.78458 148.28375 287.4993 148.28375C276.21405 148.28375 267.06555 139.13525 267.06555 127.85C267.06555 116.56475 276.21405 107.416245 287.4993 107.416245C298.78458 107.416245 307.93307 116.56475 307.93307 127.85Z" fill-rule="nonzero"/><path fill="#4285f4" fill-opacity="0.8" clip-path="url(#id_0)" d="M307.93307 102.275C307.93307 113.56025 298.78458 122.708755 287.4993 122.708755C276.21405 122.708755 267.06555 113.56025 267.06555 102.275C267.06555 90.989746 276.21405 81.84124 287.4993 81.84124C298.78458 81.84124 307.93307 90.989746 307.93307 102.275Z" fill-rule="nonzero"/><path fill="#ff6d01" fill-opacity="0.8" clip-path="url(#id_0)" d="M279.24414 127.85C279.24414 142.43718 267.41888 154.26242 252.83173 154.26242C238.24455 154.26242 226.41931 142.43718 226.41931 127.85C226.41931 113.262825 238.24455 101.437584 252.83173 101.437584C267.41888 101.437584 279.24414 113.262825 279.24414 127.85Z" fill-rule="nonzero"/><path fill="#ff6d01" fill-opacity="0.8" clip-path="url(#id_0)" d="M515.9386 127.85C515.9386 139.13525 506.79007 148.28375 495.50482 148.28375C484.21957 148.28375 475.07108 139.13525 475.07108 127.85C475.07108 116.56475 484.21957 107.416245 495.50482 107.416245C506.79007 107.416245 515.9386 116.56475 515.9386 127.85Z" fill-rule="nonzero"/><path fill="#ff6d01" fill-opacity="0.8" clip-path="url(#id_0)" d="M365.91312 127.85C365.91312 142.43718 354.08786 154.26242 339.5007 154.26242C324.9135 154.26242 313.0883 142.43718 313.0883 127.85C313.0883 113.262825 324.9135 101.437584 339.5007 101.437584C354.08786 101.437584 365.91312 113.262825 365.91312 127.85Z" fill-rule="nonzero"/><path fill="#ff6d01" fill-opacity="0.8" clip-path="url(#id_0)" d="M322.5786 127.85C322.5786 142.43718 310.7534 154.26242 296.1662 154.26242C281.57904 154.26242 269.75378 142.43718 269.75378 127.85C269.75378 113.262825 281.57904 101.437584 296.1662 101.437584C310.7534 101.437584 322.5786 113.262825 322.5786 127.85Z" fill-rule="nonzero"/><path fill="#fbbc04" fill-opacity="0.8" clip-path="url(#id_0)" d="M339.9124 179.0C339.9124 193.58717 328.0872 205.41241 313.5 205.41241C298.9128 205.41241 287.0876 193.58717 287.0876 179.0C287.0876 164.41283 298.9128 152.58759 313.5 152.58759C328.0872 152.58759 339.9124 164.41283 339.9124 179.0Z" fill-rule="nonzero"/><path fill="#ff6d01" fill-opacity="0.8" clip-path="url(#id_0)" d="M567.93994 127.85C567.93994 139.13525 558.79144 148.28375 547.5062 148.28375C536.22095 148.28375 527.07245 139.13525 527.07245 127.85C527.07245 116.56475 536.22095 107.416245 547.5062 107.416245C558.79144 107.416245 567.93994 116.56475 567.93994 127.85Z" fill-rule="nonzero"/><path fill="#fbbc04" fill-opacity="0.8" clip-path="url(#id_0)" d="M322.5786 179.0C322.5786 193.58717 310.7534 205.41241 296.1662 205.41241C281.57904 205.41241 269.75378 193.58717 269.75378 179.0C269.75378 164.41283 281.57904 152.58759 296.1662 152.58759C310.7534 152.58759 322.5786 164.41283 322.5786 179.0Z" fill-rule="nonzero"/><path fill="#fbbc04" fill-opacity="0.8" clip-path="url(#id_0)" d="M305.24484 179.0C305.24484 193.58717 293.4196 205.41241 278.83243 205.41241C264.24524 205.41241 252.42 193.58717 252.42 179.0C252.42 164.41283 264.24524 152.58759 278.83243 152.58759C293.4196 152.58759 305.24484 164.41283 305.24484 179.0Z" fill-rule="nonzero"/><path fill="#34a853" fill-opacity="0.8" clip-path="url(#id_0)" d="M307.93307 153.425C307.93307 164.71025 298.78458 173.85875 287.4993 173.85875C276.21405 173.85875 267.06555 164.71025 267.06555 153.425C267.06555 142.13976 276.21405 132.99124 287.4993 132.99124C298.78458 132.99124 307.93307 142.13976 307.93307 153.425Z" fill-rule="nonzero"/><path fill="#7baaf7" fill-opacity="0.8" clip-path="url(#id_0)" d="M290.59927 230.15C290.59927 241.43526 281.45078 250.58376 270.16553 250.58376C258.88028 250.58376 249.73177 241.43526 249.73177 230.15C249.73177 218.86475 258.88028 209.71625 270.16553 209.71625C281.45078 209.71625 290.59927 218.86475 290.59927 230.15Z" fill-rule="nonzero"/><path fill="#4285f4" fill-opacity="0.8" clip-path="url(#id_0)" d="M400.5807 102.275C400.5807 116.862175 388.75546 128.68741 374.16827 128.68741C359.58112 128.68741 347.75586 116.862175 347.75586 102.275C347.75586 87.68783 359.58112 75.86259 374.16827 75.86259C388.75546 75.86259 400.5807 87.68783 400.5807 102.275Z" fill-rule="nonzero"/><path fill="#fbbc04" fill-opacity="0.8" clip-path="url(#id_0)" d="M437.93652 179.0C437.93652 190.28525 428.78802 199.43376 417.50275 199.43376C406.2175 199.43376 397.069 190.28525 397.069 179.0C397.069 167.71475 406.2175 158.56624 417.50275 158.56624C428.78802 158.56624 437.93652 167.71475 437.93652 179.0Z" fill-rule="nonzero"/><path fill="#ff6d01" fill-opacity="0.8" clip-path="url(#id_0)" d="M335.8331 127.85C335.8331 144.97083 321.95392 158.85 304.8331 158.85C287.71228 158.85 273.8331 144.97083 273.8331 127.85C273.8331 110.72917 287.71228 96.85 304.8331 96.85C321.95392 96.85 335.8331 110.72917 335.8331 127.85Z" fill-rule="nonzero"/><path fill="#34a853" fill-opacity="0.8" clip-path="url(#id_0)" d="M290.59927 153.425C290.59927 164.71025 281.45078 173.85875 270.16553 173.85875C258.88028 173.85875 249.73177 164.71025 249.73177 153.425C249.73177 142.13976 258.88028 132.99124 270.16553 132.99124C281.45078 132.99124 290.59927 142.13976 290.59927 153.425Z" fill-rule="nonzero"/><path fill="#34a853" fill-opacity="0.8" clip-path="url(#id_0)" d="M348.5793 153.425C348.5793 168.01218 336.75406 179.83742 322.1669 179.83742C307.5797 179.83742 295.7545 168.01218 295.7545 153.425C295.7545 138.83783 307.5797 127.01259 322.1669 127.01259C336.75406 127.01259 348.5793 138.83783 348.5793 153.425Z" fill-rule="nonzero"/><path fill="#71c287" fill-opacity="0.8" clip-path="url(#id_0)" d="M559.2731 76.7C559.2731 87.98525 550.1246 97.13376 538.8393 97.13376C527.5541 97.13376 518.4056 87.98525 518.4056 76.7C518.4056 65.41475 527.5541 56.266243 538.8393 56.266243C550.1246 56.266243 559.2731 65.41475 559.2731 76.7Z" fill-rule="nonzero"/><path fill="#ff6d01" fill-opacity="0.8" clip-path="url(#id_0)" d="M335.8331 127.85C335.8331 144.97083 321.95392 158.85 304.8331 158.85C287.71228 158.85 273.8331 144.97083 273.8331 127.85C273.8331 110.72917 287.71228 96.85 304.8331 96.85C321.95392 96.85 335.8331 110.72917 335.8331 127.85Z" fill-rule="nonzero"/><path fill="#fbbc04" fill-opacity="0.8" clip-path="url(#id_0)" d="M322.5786 179.0C322.5786 193.58717 310.7534 205.41241 296.1662 205.41241C281.57904 205.41241 269.75378 193.58717 269.75378 179.0C269.75378 164.41283 281.57904 152.58759 296.1662 152.58759C310.7534 152.58759 322.5786 164.41283 322.5786 179.0Z" fill-rule="nonzero"/><path fill="#ff6d01" fill-opacity="0.8" clip-path="url(#id_0)" d="M322.5786 127.85C322.5786 142.43718 310.7534 154.26242 296.1662 154.26242C281.57904 154.26242 269.75378 142.43718 269.75378 127.85C269.75378 113.262825 281.57904 101.437584 296.1662 101.437584C310.7534 101.437584 322.5786 113.262825 322.5786 127.85Z" fill-rule="nonzero"/><path fill="#71c287" fill-opacity="0.8" clip-path="url(#id_0)" d="M264.59857 76.7C264.59857 87.98525 255.45007 97.13376 244.16483 97.13376C232.87958 97.13376 223.73106 87.98525 223.73106 76.7C223.73106 65.41475 232.87958 56.266243 244.16483 56.266243C255.45007 56.266243 264.59857 65.41475 264.59857 76.7Z" fill-rule="nonzero"/><path fill="#34a853" fill-opacity="0.8" clip-path="url(#id_0)" d="M374.58 153.425C374.58 168.01218 362.75476 179.83742 348.16757 179.83742C333.5804 179.83742 321.75516 168.01218 321.75516 153.425C321.75516 138.83783 333.5804 127.01259 348.16757 127.01259C362.75476 127.01259 374.58 138.83783 374.58 153.425Z" fill-rule="nonzero"/><path fill="#fbbc04" fill-opacity="0.8" clip-path="url(#id_0)" d="M339.9124 179.0C339.9124 193.58717 328.0872 205.41241 313.5 205.41241C298.9128 205.41241 287.0876 193.58717 287.0876 179.0C287.0876 164.41283 298.9128 152.58759 313.5 152.58759C328.0872 152.58759 339.9124 164.41283 339.9124 179.0Z" fill-rule="nonzero"/><path fill="#4285f4" fill-opacity="0.8" clip-path="url(#id_0)" d="M299.26617 102.275C299.26617 113.56025 290.11768 122.708755 278.83243 122.708755C267.54715 122.708755 258.39865 113.56025 258.39865 102.275C258.39865 90.989746 267.54715 81.84124 278.83243 81.84124C290.11768 81.84124 299.26617 90.989746 299.26617 102.275Z" fill-rule="nonzero"/><path fill="#34a853" fill-opacity="0.8" clip-path="url(#id_0)" d="M455.2703 153.425C455.2703 164.71025 446.1218 173.85875 434.83655 173.85875C423.5513 173.85875 414.4028 164.71025 414.4028 153.425C414.4028 142.13976 423.5513 132.99124 434.83655 132.99124C446.1218 132.99124 455.2703 142.13976 455.2703 153.425Z" fill-rule="nonzero"/><path fill="#34a853" fill-opacity="0.8" clip-path="url(#id_0)" d="M374.58 153.425C374.58 168.01218 362.75476 179.83742 348.16757 179.83742C333.5804 179.83742 321.75516 168.01218 321.75516 153.425C321.75516 138.83783 333.5804 127.01259 348.16757 127.01259C362.75476 127.01259 374.58 138.83783 374.58 153.425Z" fill-rule="nonzero"/><path fill="#fbbc04" fill-opacity="0.8" clip-path="url(#id_0)" d="M255.93169 179.0C255.93169 190.28525 246.78319 199.43376 235.49792 199.43376C224.21268 199.43376 215.06418 190.28525 215.06418 179.0C215.06418 167.71475 224.21268 158.56624 235.49792 158.56624C246.78319 158.56624 255.93169 167.71475 255.93169 179.0Z" fill-rule="nonzero"/><path fill="#34a853" fill-opacity="0.8" clip-path="url(#id_0)" d="M255.93169 153.425C255.93169 164.71025 246.78319 173.85875 235.49792 173.85875C224.21268 173.85875 215.06418 164.71025 215.06418 153.425C215.06418 142.13976 224.21268 132.99124 235.49792 132.99124C246.78319 132.99124 255.93169 142.13976 255.93169 153.425Z" fill-rule="nonzero"/><path fill="#ff6d01" fill-opacity="0.8" clip-path="url(#id_0)" d="M281.93237 127.85C281.93237 139.13525 272.78387 148.28375 261.49863 148.28375C250.21336 148.28375 241.06487 139.13525 241.06487 127.85C241.06487 116.56475 250.21336 107.416245 261.49863 107.416245C272.78387 107.416245 281.93237 116.56475 281.93237 127.85Z" fill-rule="nonzero"/><path fill="#34a853" fill-opacity="0.8" clip-path="url(#id_0)" d="M177.92963 153.425C177.92963 164.71025 168.78111 173.85875 157.49586 173.85875C146.21062 173.85875 137.0621 164.71025 137.0621 153.425C137.0621 142.13976 146.21062 132.99124 157.49586 132.99124C168.78111 132.99124 177.92963 142.13976 177.92963 153.425Z" fill-rule="nonzero"/><path fill="#4285f4" fill-opacity="0.8" clip-path="url(#id_0)" d="M212.5972 102.275C212.5972 113.56025 203.4487 122.708755 192.16345 122.708755C180.87819 122.708755 171.72969 113.56025 171.72969 102.275C171.72969 90.989746 180.87819 81.84124 192.16345 81.84124C203.4487 81.84124 212.5972 90.989746 212.5972 102.275Z" fill-rule="nonzero"/><path fill="#34a853" fill-opacity="0.8" clip-path="url(#id_0)" d="M383.2469 153.425C383.2469 168.01218 371.42166 179.83742 356.83447 179.83742C342.2473 179.83742 330.42206 168.01218 330.42206 153.425C330.42206 138.83783 342.2473 127.01259 356.83447 127.01259C371.42166 127.01259 383.2469 138.83783 383.2469 153.425Z" fill-rule="nonzero"/><path fill="#ff6d01" fill-opacity="0.8" clip-path="url(#id_0)" d="M344.5 127.85C344.5 144.97083 330.62082 158.85 313.5 158.85C296.37918 158.85 282.5 144.97083 282.5 127.85C282.5 110.72917 296.37918 96.85 313.5 96.85C330.62082 96.85 344.5 110.72917 344.5 127.85Z" fill-rule="nonzero"/><path fill="#46bdc6" fill-opacity="0.8" clip-path="url(#id_0)" d="M348.5793 204.575C348.5793 219.16217 336.75406 230.98741 322.1669 230.98741C307.5797 230.98741 295.7545 219.16217 295.7545 204.575C295.7545 189.98782 307.5797 178.16258 322.1669 178.16258C336.75406 178.16258 348.5793 189.98782 348.5793 204.575Z" fill-rule="nonzero"/><path fill="#4285f4" fill-opacity="0.8" clip-path="url(#id_0)" d="M365.91312 102.275C365.91312 116.862175 354.08786 128.68741 339.5007 128.68741C324.9135 128.68741 313.0883 116.862175 313.0883 102.275C313.0883 87.68783 324.9135 75.86259 339.5007 75.86259C354.08786 75.86259 365.91312 87.68783 365.91312 102.275Z" fill-rule="nonzero"/><path fill="#ff6d01" fill-opacity="0.8" clip-path="url(#id_0)" d="M344.5 127.85C344.5 144.97083 330.62082 158.85 313.5 158.85C296.37918 158.85 282.5 144.97083 282.5 127.85C282.5 110.72917 296.37918 96.85 313.5 96.85C330.62082 96.85 344.5 110.72917 344.5 127.85Z" fill-rule="nonzero"/><path fill="#fbbc04" fill-opacity="0.8" clip-path="url(#id_0)" d="M359.93445 179.0C359.93445 190.28525 350.78595 199.43376 339.5007 199.43376C328.21542 199.43376 319.06693 190.28525 319.06693 179.0C319.06693 167.71475 328.21542 158.56624 339.5007 158.56624C350.78595 158.56624 359.93445 167.71475 359.93445 179.0Z" fill-rule="nonzero"/><path fill="#34a853" fill-opacity="0.8" clip-path="url(#id_0)" d="M316.59998 153.425C316.59998 164.71025 307.45145 173.85875 296.1662 173.85875C284.88095 173.85875 275.73245 164.71025 275.73245 153.425C275.73245 142.13976 284.88095 132.99124 296.1662 132.99124C307.45145 132.99124 316.59998 142.13976 316.59998 153.425Z" fill-rule="nonzero"/><path fill="#34a853" fill-opacity="0.8" clip-path="url(#id_0)" d="M383.2469 153.425C383.2469 168.01218 371.42166 179.83742 356.83447 179.83742C342.2473 179.83742 330.42206 168.01218 330.42206 153.425C330.42206 138.83783 342.2473 127.01259 356.83447 127.01259C371.42166 127.01259 383.2469 138.83783 383.2469 153.425Z" fill-rule="nonzero"/><path fill="#ff6d01" fill-opacity="0.8" clip-path="url(#id_0)" d="M264.59857 127.85C264.59857 139.13525 255.45007 148.28375 244.16483 148.28375C232.87958 148.28375 223.73106 139.13525 223.73106 127.85C223.73106 116.56475 232.87958 107.416245 244.16483 107.416245C255.45007 107.416245 264.59857 116.56475 264.59857 127.85Z" fill-rule="nonzero"/><path fill="#ff6d01" fill-opacity="0.8" clip-path="url(#id_0)" d="M255.93169 127.85C255.93169 139.13525 246.78319 148.28375 235.49792 148.28375C224.21268 148.28375 215.06418 139.13525 215.06418 127.85C215.06418 116.56475 224.21268 107.416245 235.49792 107.416245C246.78319 107.416245 255.93169 116.56475 255.93169 127.85Z" fill-rule="nonzero"/><path fill="#ff6d01" fill-opacity="0.8" clip-path="url(#id_0)" d="M383.2469 127.85C383.2469 142.43718 371.42166 154.26242 356.83447 154.26242C342.2473 154.26242 330.42206 142.43718 330.42206 127.85C330.42206 113.262825 342.2473 101.437584 356.83447 101.437584C371.42166 101.437584 383.2469 113.262825 383.2469 127.85Z" fill-rule="nonzero"/><path fill="#ea4335" fill-opacity="0.8" clip-path="url(#id_0)" d="M420.60272 255.725C420.60272 267.01025 411.45422 276.15875 400.16898 276.15875C388.88373 276.15875 379.7352 267.01025 379.7352 255.725C379.7352 244.43974 388.88373 235.29124 400.16898 235.29124C411.45422 235.29124 420.60272 244.43974 420.60272 255.725Z" fill-rule="nonzero"/><path fill="#4285f4" fill-opacity="0.8" clip-path="url(#id_0)" d="M455.2703 102.275C455.2703 113.56025 446.1218 122.708755 434.83655 122.708755C423.5513 122.708755 414.4028 113.56025 414.4028 102.275C414.4028 90.989746 423.5513 81.84124 434.83655 81.84124C446.1218 81.84124 455.2703 90.989746 455.2703 102.275Z" fill-rule="nonzero"/><path fill="#4285f4" fill-opacity="0.8" clip-path="url(#id_0)" d="M379.16757 102.275C379.16757 119.39583 365.28842 133.275 348.16757 133.275C331.04675 133.275 317.16757 119.39583 317.16757 102.275C317.16757 85.154175 331.04675 71.275 348.16757 71.275C365.28842 71.275 379.16757 85.154175 379.16757 102.275Z" fill-rule="nonzero"/><path fill="#4285f4" fill-opacity="0.8" clip-path="url(#id_0)" d="M273.26547 102.275C273.26547 113.56025 264.11697 122.708755 252.83173 122.708755C241.54648 122.708755 232.39796 113.56025 232.39796 102.275C232.39796 90.989746 241.54648 81.84124 252.83173 81.84124C264.11697 81.84124 273.26547 90.989746 273.26547 102.275Z" fill-rule="nonzero"/><path fill="#fbbc04" fill-opacity="0.8" clip-path="url(#id_0)" d="M253.24345 179.0C253.24345 193.58717 241.41821 205.41241 226.83104 205.41241C212.24387 205.41241 200.41862 193.58717 200.41862 179.0C200.41862 164.41283 212.24387 152.58759 226.83104 152.58759C241.41821 152.58759 253.24345 164.41283 253.24345 179.0Z" fill-rule="nonzero"/><path fill="#34a853" fill-opacity="0.8" clip-path="url(#id_0)" d="M309.83243 153.425C309.83243 170.54582 295.95325 184.425 278.83243 184.425C261.71158 184.425 247.83241 170.54582 247.83241 153.425C247.83241 136.30417 261.71158 122.425 278.83243 122.425C295.95325 122.425 309.83243 136.30417 309.83243 153.425Z" fill-rule="nonzero"/><path fill="#fbbc04" fill-opacity="0.8" clip-path="url(#id_0)" d="M383.2469 179.0C383.2469 193.58717 371.42166 205.41241 356.83447 205.41241C342.2473 205.41241 330.42206 193.58717 330.42206 179.0C330.42206 164.41283 342.2473 152.58759 356.83447 152.58759C371.42166 152.58759 383.2469 164.41283 383.2469 179.0Z" fill-rule="nonzero"/><path fill="#ff6d01" fill-opacity="0.8" clip-path="url(#id_0)" d="M221.2641 127.85C221.2641 139.13525 212.1156 148.28375 200.83034 148.28375C189.54509 148.28375 180.39659 139.13525 180.39659 127.85C180.39659 116.56475 189.54509 107.416245 200.83034 107.416245C212.1156 107.416245 221.2641 116.56475 221.2641 127.85Z" fill-rule="nonzero"/><path fill="#000000" d="M33.05 332.21564Q33.05 330.6844 33.3625 329.7625Q33.675 328.825 34.284374 328.325Q34.909374 327.825 35.846874 327.825Q36.534374 327.825 37.05 328.10626Q37.58125 328.3875 37.925 328.91876Q38.26875 329.4344 38.45625 330.1844Q38.64375 330.9344 38.64375 332.21564Q38.64375 333.73126 38.33125 334.65314Q38.034374 335.575 37.409374 336.09064Q36.8 336.59064 35.846874 336.59064Q34.6125 336.59064 33.89375 335.7Q33.05 334.6375 33.05 332.21564ZM34.128124 332.21564Q34.128124 334.325 34.628124 335.02814Q35.128124 335.73126 35.846874 335.73126Q36.58125 335.73126 37.065624 335.02814Q37.565624 334.325 37.565624 332.21564Q37.565624 330.09064 37.065624 329.40314Q36.58125 328.7 35.83125 328.7Q35.1125 328.7 34.675 329.3094Q34.128124 330.09064 34.128124 332.21564Z" fill-rule="nonzero"/><path fill="#000000" d="M38.596874 284.28436L38.596874 285.3L32.909374 285.3Q32.909374 284.925 33.034374 284.5656Q33.253124 283.9875 33.721874 283.425Q34.20625 282.8625 35.1125 282.1281Q36.51875 280.97186 37.003124 280.3Q37.503124 279.6281 37.503124 279.03436Q37.503124 278.40936 37.05 277.9875Q36.596874 277.55 35.878124 277.55Q35.1125 277.55 34.659374 278.0031Q34.20625 278.45624 34.190624 279.26874L33.1125 279.15936Q33.221874 277.9406 33.940624 277.3156Q34.675 276.675 35.909374 276.675Q37.14375 276.675 37.8625 277.3625Q38.58125 278.05 38.58125 279.0656Q38.58125 279.58124 38.3625 280.08124Q38.159374 280.5656 37.659374 281.1281Q37.175 281.675 36.05 282.6281Q35.096874 283.425 34.815624 283.72186Q34.55 284.0031 34.378124 284.28436L38.596874 284.28436Z" fill-rule="nonzero"/><path fill="#000000" d="M36.425 234.15L36.425 232.0875L32.70625 232.0875L32.70625 231.11874L36.628124 225.55624L37.4875 225.55624L37.4875 231.11874L38.64375 231.11874L38.64375 232.0875L37.4875 232.0875L37.4875 234.15L36.425 234.15ZM36.425 231.11874L36.425 227.25937L33.7375 231.11874L36.425 231.11874Z" fill-rule="nonzero"/><path fill="#000000" d="M38.51875 176.51562L37.471874 176.59375Q37.33125 175.96875 37.08125 175.6875Q36.64375 175.23438 36.01875 175.23438Q35.51875 175.23438 35.128124 175.51562Q34.64375 175.89062 34.346874 176.59375Q34.065624 177.28125 34.05 178.5625Q34.425 177.98438 34.971874 177.70312Q35.534374 177.42188 36.14375 177.42188Q37.190624 177.42188 37.925 178.20312Q38.675 178.98438 38.675 180.20312Q38.675 181.01562 38.315624 181.71875Q37.971874 182.40625 37.3625 182.78125Q36.753124 183.14062 35.9875 183.14062Q34.659374 183.14062 33.83125 182.17188Q33.003124 181.20312 33.003124 178.98438Q33.003124 176.48438 33.925 175.35938Q34.721874 174.375 36.08125 174.375Q37.096874 174.375 37.7375 174.95312Q38.39375 175.51562 38.51875 176.51562ZM34.221874 180.21875Q34.221874 180.76562 34.440624 181.26562Q34.675 181.75 35.08125 182.01562Q35.503124 182.28125 35.971874 182.28125Q36.628124 182.28125 37.1125 181.75Q37.596874 181.20312 37.596874 180.28125Q37.596874 179.39062 37.1125 178.875Q36.64375 178.35938 35.925 178.35938Q35.20625 178.35938 34.70625 178.875Q34.221874 179.39062 34.221874 180.21875Z" fill-rule="nonzero"/><path fill="#000000" d="M34.675 127.193756Q34.01875 126.943756 33.690624 126.506256Q33.378124 126.05313 33.378124 125.443756Q33.378124 124.506256 34.05 123.86563Q34.7375 123.225006 35.846874 123.225006Q36.971874 123.225006 37.659374 123.881256Q38.346874 124.537506 38.346874 125.475006Q38.346874 126.068756 38.034374 126.506256Q37.721874 126.943756 37.08125 127.193756Q37.878124 127.443756 38.284374 128.02188Q38.690624 128.6 38.690624 129.39688Q38.690624 130.49063 37.909374 131.24063Q37.14375 131.99063 35.8625 131.99063Q34.596874 131.99063 33.815624 131.24063Q33.034374 130.49063 33.034374 129.36563Q33.034374 128.52188 33.45625 127.95938Q33.89375 127.39688 34.675 127.193756ZM34.45625 125.39688Q34.45625 126.006256 34.846874 126.39688Q35.253124 126.787506 35.878124 126.787506Q36.4875 126.787506 36.878124 126.412506Q37.26875 126.02188 37.26875 125.45938Q37.26875 124.881256 36.8625 124.49063Q36.45625 124.08438 35.8625 124.08438Q35.253124 124.08438 34.846874 124.475006Q34.45625 124.86563 34.45625 125.39688ZM34.128124 129.36563Q34.128124 129.81876 34.33125 130.24063Q34.55 130.6625 34.971874 130.89688Q35.39375 131.13126 35.878124 131.13126Q36.628124 131.13126 37.1125 130.64688Q37.6125 130.1625 37.6125 129.4125Q37.6125 128.64688 37.1125 128.14688Q36.6125 127.64688 35.846874 127.64688Q35.096874 127.64688 34.6125 128.14688Q34.128124 128.63126 34.128124 129.36563Z" fill-rule="nonzero"/><path fill="#000000" d="M30.01875 80.7L28.971874 80.7L28.971874 73.98125Q28.58125 74.34062 27.95625 74.71562Q27.346874 75.075 26.8625 75.24687L26.8625 74.23125Q27.7375 73.80937 28.39375 73.23125Q29.065624 72.6375 29.346874 72.075L30.01875 72.075L30.01875 80.7ZM33.05 76.46562Q33.05 74.93437 33.3625 74.0125Q33.675 73.075 34.284374 72.575Q34.909374 72.075 35.846874 72.075Q36.534374 72.075 37.05 72.35625Q37.58125 72.6375 37.925 73.16875Q38.26875 73.68437 38.45625 74.43437Q38.64375 75.18437 38.64375 76.46562Q38.64375 77.98125 38.33125 78.90312Q38.034374 79.825 37.409374 80.34062Q36.8 80.84062 35.846874 80.84062Q34.6125 80.84062 33.89375 79.95Q33.05 78.8875 33.05 76.46562ZM34.128124 76.46562Q34.128124 78.575 34.628124 79.27812Q35.128124 79.98125 35.846874 79.98125Q36.58125 79.98125 37.065624 79.27812Q37.565624 78.575 37.565624 76.46562Q37.565624 74.34062 37.065624 73.65312Q36.58125 72.95 35.83125 72.95Q35.1125 72.95 34.675 73.55937Q34.128124 74.34062 34.128124 76.46562Z" fill-rule="nonzero"/><path fill="#000000" d="M30.01875 29.55L28.971874 29.55L28.971874 22.83125Q28.58125 23.190624 27.95625 23.565624Q27.346874 23.925 26.8625 24.096874L26.8625 23.08125Q27.7375 22.659374 28.39375 22.08125Q29.065624 21.4875 29.346874 20.925L30.01875 20.925L30.01875 29.55ZM38.596874 28.534374L38.596874 29.55L32.909374 29.55Q32.909374 29.175 33.034374 28.815624Q33.253124 28.2375 33.721874 27.675Q34.20625 27.1125 35.1125 26.378124Q36.51875 25.221874 37.003124 24.55Q37.503124 23.878124 37.503124 23.284374Q37.503124 22.659374 37.05 22.2375Q36.596874 21.8 35.878124 21.8Q35.1125 21.8 34.659374 22.253124Q34.20625 22.70625 34.190624 23.51875L33.1125 23.409374Q33.221874 22.190624 33.940624 21.565624Q34.675 20.925 35.909374 20.925Q37.14375 20.925 37.8625 21.6125Q38.58125 22.3 38.58125 23.315624Q38.58125 23.83125 38.3625 24.33125Q38.159374 24.815624 37.659374 25.378124Q37.175 25.925 36.05 26.878124Q35.096874 27.675 34.815624 27.971874Q34.55 28.253124 34.378124 28.534374L38.596874 28.534374Z" fill-rule="nonzero"/><path fill="#000000" d="M76.96254 349.45L75.915665 349.45L75.915665 342.73126Q75.52504 343.09064 74.90004 343.46564Q74.290665 343.825 73.80629 343.9969L73.80629 342.98126Q74.68129 342.5594 75.33754 341.98126Q76.009415 341.3875 76.290665 340.825L76.96254 340.825L76.96254 349.45ZM79.99379 345.21564Q79.99379 343.6844 80.30629 342.7625Q80.61879 341.825 81.228165 341.325Q81.853165 340.825 82.790665 340.825Q83.478165 340.825 83.99379 341.10626Q84.52504 341.3875 84.86879 341.91876Q85.21254 342.4344 85.40004 343.1844Q85.58754 343.9344 85.58754 345.21564Q85.58754 346.73126 85.27504 347.65314Q84.978165 348.575 84.353165 349.09064Q83.74379 349.59064 82.790665 349.59064Q81.55629 349.59064 80.83754 348.7Q79.99379 347.6375 79.99379 345.21564ZM81.071915 345.21564Q81.071915 347.325 81.571915 348.02814Q82.071915 348.73126 82.790665 348.73126Q83.52504 348.73126 84.009415 348.02814Q84.509415 347.325 84.509415 345.21564Q84.509415 343.09064 84.009415 342.40314Q83.52504 341.7 82.77504 341.7Q82.05629 341.7 81.61879 342.3094Q81.071915 343.09064 81.071915 345.21564Z" fill-rule="nonzero"/><path fill="#000000" d="M165.20964 348.4344L165.20964 349.45L159.52214 349.45Q159.52214 349.075 159.64714 348.71564Q159.86589 348.1375 160.33464 347.575Q160.81902 347.0125 161.72527 346.27814Q163.13152 345.1219 163.61589 344.45Q164.11589 343.77814 164.11589 343.1844Q164.11589 342.5594 163.66277 342.1375Q163.20964 341.7 162.49089 341.7Q161.72527 341.7 161.27214 342.15314Q160.81902 342.60626 160.80339 343.41876L159.72527 343.3094Q159.83464 342.09064 160.55339 341.46564Q161.28777 340.825 162.52214 340.825Q163.75652 340.825 164.47527 341.5125Q165.19402 342.2 165.19402 343.21564Q165.19402 343.73126 164.97527 344.23126Q164.77214 344.71564 164.27214 345.27814Q163.78777 345.825 162.66277 346.77814Q161.70964 347.575 161.42839 347.8719Q161.16277 348.15314 160.99089 348.4344L165.20964 348.4344ZM166.66277 345.21564Q166.66277 343.6844 166.97527 342.7625Q167.28777 341.825 167.89714 341.325Q168.52214 340.825 169.45964 340.825Q170.14714 340.825 170.66277 341.10626Q171.19402 341.3875 171.53777 341.91876Q171.88152 342.4344 172.06902 343.1844Q172.25652 343.9344 172.25652 345.21564Q172.25652 346.73126 171.94402 347.65314Q171.64714 348.575 171.02214 349.09064Q170.41277 349.59064 169.45964 349.59064Q168.22527 349.59064 167.50652 348.7Q166.66277 347.6375 166.66277 345.21564ZM167.74089 345.21564Q167.74089 347.325 168.24089 348.02814Q168.74089 348.73126 169.45964 348.73126Q170.19402 348.73126 170.67839 348.02814Q171.17839 347.325 171.17839 345.21564Q171.17839 343.09064 170.67839 342.40314Q170.19402 341.7 169.44402 341.7Q168.72527 341.7 168.28777 342.3094Q167.74089 343.09064 167.74089 345.21564Z" fill-rule="nonzero"/><path fill="#000000" d="M246.33173 347.1844L247.39423 347.04376Q247.5661 347.9344 248.0036 348.34064Q248.4411 348.73126 249.0661 348.73126Q249.8161 348.73126 250.33173 348.21564Q250.84735 347.7 250.84735 346.9344Q250.84735 346.21564 250.36298 345.7469Q249.89423 345.2625 249.15985 345.2625Q248.86298 345.2625 248.40985 345.3875L248.53485 344.45Q248.64423 344.46564 248.70673 344.46564Q249.3786 344.46564 249.90985 344.1219Q250.45673 343.7625 250.45673 343.02814Q250.45673 342.45 250.0661 342.075Q249.67548 341.6844 249.05048 341.6844Q248.4411 341.6844 248.01923 342.075Q247.61298 342.46564 247.5036 343.23126L246.4411 343.04376Q246.6286 341.9969 247.3161 341.41876Q248.0036 340.825 249.01923 340.825Q249.72235 340.825 250.3161 341.1375Q250.90985 341.4344 251.22235 341.95Q251.53485 342.46564 251.53485 343.0594Q251.53485 343.60626 251.23798 344.075Q250.9411 344.52814 250.36298 344.79376Q251.11298 344.96564 251.53485 345.52814Q251.95673 346.075 251.95673 346.91876Q251.95673 348.04376 251.1286 348.825Q250.3161 349.60626 249.0661 349.60626Q247.9411 349.60626 247.1911 348.9344Q246.4411 348.2469 246.33173 347.1844ZM253.33173 345.21564Q253.33173 343.6844 253.64423 342.7625Q253.95673 341.825 254.5661 341.325Q255.1911 340.825 256.1286 340.825Q256.8161 340.825 257.33173 341.10626Q257.86298 341.3875 258.20673 341.91876Q258.55048 342.4344 258.73798 343.1844Q258.92548 343.9344 258.92548 345.21564Q258.92548 346.73126 258.61298 347.65314Q258.3161 348.575 257.6911 349.09064Q257.08173 349.59064 256.1286 349.59064Q254.89423 349.59064 254.17548 348.7Q253.33173 347.6375 253.33173 345.21564ZM254.40985 345.21564Q254.40985 347.325 254.90985 348.02814Q255.40985 348.73126 256.1286 348.73126Q256.86298 348.73126 257.34735 348.02814Q257.84735 347.325 257.84735 345.21564Q257.84735 343.09064 257.34735 342.40314Q256.86298 341.7 256.11298 341.7Q255.39423 341.7 254.95673 342.3094Q254.40985 343.09064 254.40985 345.21564Z" fill-rule="nonzero"/><path fill="#000000" d="M336.3757 349.45L336.3757 347.3875L332.65695 347.3875L332.65695 346.41876L336.57883 340.85626L337.4382 340.85626L337.4382 346.41876L338.59445 346.41876L338.59445 347.3875L337.4382 347.3875L337.4382 349.45L336.3757 349.45ZM336.3757 346.41876L336.3757 342.5594L333.6882 346.41876L336.3757 346.41876ZM340.0007 345.21564Q340.0007 343.6844 340.3132 342.7625Q340.6257 341.825 341.23508 341.325Q341.86008 340.825 342.79758 340.825Q343.48508 340.825 344.0007 341.10626Q344.53195 341.3875 344.8757 341.91876Q345.21945 342.4344 345.40695 343.1844Q345.59445 343.9344 345.59445 345.21564Q345.59445 346.73126 345.28195 347.65314Q344.98508 348.575 344.36008 349.09064Q343.7507 349.59064 342.79758 349.59064Q341.5632 349.59064 340.84445 348.7Q340.0007 347.6375 340.0007 345.21564ZM341.07883 345.21564Q341.07883 347.325 341.57883 348.02814Q342.07883 348.73126 342.79758 348.73126Q343.53195 348.73126 344.01633 348.02814Q344.51633 347.325 344.51633 345.21564Q344.51633 343.09064 344.01633 342.40314Q343.53195 341.7 342.78195 341.7Q342.0632 341.7 341.6257 342.3094Q341.07883 343.09064 341.07883 345.21564Z" fill-rule="nonzero"/><path fill="#000000" d="M419.66965 347.2L420.77902 347.10626Q420.90402 347.91876 421.34152 348.325Q421.79465 348.73126 422.43527 348.73126Q423.18527 348.73126 423.71652 348.15314Q424.24777 347.575 424.24777 346.6375Q424.24777 345.73126 423.73215 345.21564Q423.23215 344.6844 422.40402 344.6844Q421.90402 344.6844 421.48215 344.91876Q421.0759 345.15314 420.84152 345.5125L419.85715 345.3875L420.68527 340.98126L424.96652 340.98126L424.96652 341.98126L421.52902 341.98126L421.0759 344.29376Q421.84152 343.7469 422.68527 343.7469Q423.81027 343.7469 424.5759 344.52814Q425.35715 345.3094 425.35715 346.54376Q425.35715 347.7 424.68527 348.5594Q423.85715 349.59064 422.43527 349.59064Q421.2634 349.59064 420.5134 348.9344Q419.77902 348.27814 419.66965 347.2ZM426.66965 345.21564Q426.66965 343.6844 426.98215 342.7625Q427.29465 341.825 427.90402 341.325Q428.52902 340.825 429.46652 340.825Q430.15402 340.825 430.66965 341.10626Q431.2009 341.3875 431.54465 341.91876Q431.8884 342.4344 432.0759 343.1844Q432.2634 343.9344 432.2634 345.21564Q432.2634 346.73126 431.9509 347.65314Q431.65402 348.575 431.02902 349.09064Q430.41965 349.59064 429.46652 349.59064Q428.23215 349.59064 427.5134 348.7Q426.66965 347.6375 426.66965 345.21564ZM427.74777 345.21564Q427.74777 347.325 428.24777 348.02814Q428.74777 348.73126 429.46652 348.73126Q430.2009 348.73126 430.68527 348.02814Q431.18527 347.325 431.18527 345.21564Q431.18527 343.09064 430.68527 342.40314Q430.2009 341.7 429.4509 341.7Q428.73215 341.7 428.29465 342.3094Q427.74777 343.09064 427.74777 345.21564Z" fill-rule="nonzero"/><path fill="#000000" d="M511.80737 342.96564L510.7605 343.04376Q510.61987 342.41876 510.36987 342.1375Q509.93237 341.6844 509.30737 341.6844Q508.80737 341.6844 508.41675 341.96564Q507.93237 342.34064 507.6355 343.04376Q507.35425 343.73126 507.33862 345.0125Q507.71362 344.4344 508.2605 344.15314Q508.823 343.8719 509.43237 343.8719Q510.47925 343.8719 511.21362 344.65314Q511.96362 345.4344 511.96362 346.65314Q511.96362 347.46564 511.60425 348.16876Q511.2605 348.85626 510.65112 349.23126Q510.04175 349.59064 509.27612 349.59064Q507.948 349.59064 507.11987 348.6219Q506.29175 347.65314 506.29175 345.4344Q506.29175 342.9344 507.21362 341.8094Q508.0105 340.825 509.36987 340.825Q510.3855 340.825 511.02612 341.40314Q511.68237 341.96564 511.80737 342.96564ZM507.5105 346.66876Q507.5105 347.21564 507.72925 347.71564Q507.96362 348.2 508.36987 348.46564Q508.79175 348.73126 509.2605 348.73126Q509.91675 348.73126 510.40112 348.2Q510.8855 347.65314 510.8855 346.73126Q510.8855 345.84064 510.40112 345.325Q509.93237 344.8094 509.21362 344.8094Q508.49487 344.8094 507.99487 345.325Q507.5105 345.84064 507.5105 346.66876ZM513.3386 345.21564Q513.3386 343.6844 513.6511 342.7625Q513.9636 341.825 514.573 341.325Q515.198 340.825 516.1355 340.825Q516.823 340.825 517.3386 341.10626Q517.8699 341.3875 518.2136 341.91876Q518.5574 342.4344 518.7449 343.1844Q518.9324 343.9344 518.9324 345.21564Q518.9324 346.73126 518.6199 347.65314Q518.323 348.575 517.698 349.09064Q517.0886 349.59064 516.1355 349.59064Q514.9011 349.59064 514.1824 348.7Q513.3386 347.6375 513.3386 345.21564ZM514.41675 345.21564Q514.41675 347.325 514.91675 348.02814Q515.41675 348.73126 516.1355 348.73126Q516.8699 348.73126 517.35425 348.02814Q517.85425 347.325 517.85425 345.21564Q517.85425 343.09064 517.35425 342.40314Q516.8699 341.7 516.1199 341.7Q515.4011 341.7 514.9636 342.3094Q514.41675 343.09064 514.41675 345.21564Z" fill-rule="nonzero"/></svg>