<svg version="1.1" viewBox="0.0 0.0 600.0 371.0" fill="none" stroke="none" stroke-linecap="square" stroke-miterlimit="10" width="600" height="371" xmlns:xlink="http://www.w3.org/1999/xlink" xmlns="http://www.w3.org/2000/svg"><path fill="#ffffff" d="M0 0L600.0 0L600.0 371.0L0 371.0L0 0Z" fill-rule="nonzero"/><path stroke="#cccccc" stroke-width="1.0" stroke-linecap="butt" d="M119.5 25.5L119.5 332.5" fill-rule="nonzero"/><path stroke="#cccccc" stroke-width="1.0" stroke-linecap="butt" d="M233.5 25.5L233.5 332.5" fill-rule="nonzero"/><path stroke="#cccccc" stroke-width="1.0" stroke-linecap="butt" d="M347.5 25.5L347.5 332.5" fill-rule="nonzero"/><path stroke="#cccccc" stroke-width="1.0" stroke-linecap="butt" d="M461.5 25.5L461.5 332.5" fill-rule="nonzero"/><path stroke="#cccccc" stroke-width="1.0" stroke-linecap="butt" d="M575.5 25.5L575.5 332.5" fill-rule="nonzero"/><path stroke="#333333" stroke-width="1.0" stroke-linecap="butt" d="M45.5 332.5L581.5 332.5" fill-rule="nonzero"/><path stroke="#cccccc" stroke-width="1.0" stroke-linecap="butt" d="M45.5 281.5L581.5 281.5" fill-rule="nonzero"/><path stroke="#cccccc" stroke-width="1.0" stroke-linecap="butt" d="M45.5 230.5L581.5 230.5" fill-rule="nonzero"/><path stroke="#cccccc" stroke-width="1.0" stroke-linecap="butt" d="M45.5 179.5L581.5 179.5" fill-rule="nonzero"/><path stroke="#cccccc" stroke-width="1.0" stroke-linecap="butt" d="M45.5 127.5L581.5 127.5" fill-rule="nonzero"/><path stroke="#cccccc" stroke-width="1.0" stroke-linecap="butt" d="M45.5 76.5L581.5 76.5" fill-rule="nonzero"/><path stroke="#cccccc" stroke-width="1.0" stroke-linecap="butt" d="M45.5 25.5L581.5 25.5" fill-rule="nonzero"/><clipPath id="id_0"><path d="M45.55 25.55L581.45 25.55L581.45 332.45L45.55 332.45L45.55 25.55Z" clip-rule="nonzero"/></clipPath><path fill="#4285f4" fill-opacity="0.8" clip-path="url(#id_0)" d="M244.23465 102.275C244.23465 114.3211 234.46936 124.08639 222.42326 124.08639C210.37717 124.08639 200.61188 114.3211 200.61188 102.275C200.61188 90.228905 210.37717 80.463615 222.42326 80.463615C234.46936 80.463615 244.23465 90.228905 244.23465 102.275Z" fill-rule="nonzero"/><path fill="#ea4335" fill-opacity="0.8" clip-path="url(#id_0)" d="M330.68033 127.85C330.68033 137.33844 322.98843 145.03033 313.5 145.03033C304.01157 145.03033 296.31967 137.33844 296.31967 127.85C296.31967 118.36156 304.01157 110.66966 313.5 110.66966C322.98843 110.66966 330.68033 118.36156 330.68033 127.85Z" fill-rule="nonzero"/><path fill="#fbbc04" fill-opacity="0.8" clip-path="url(#id_0)" d="M228.21901 179.0C228.21901 188.48843 220.52711 196.18034 211.03868 196.18034C201.55023 196.18034 193.85834 188.48843 193.85834 179.0C193.85834 169.51157 201.55023 161.81966 211.03868 161.81966C220.52711 161.81966 228.21901 169.51157 228.21901 179.0Z" fill-rule="nonzero"/><path fill="#ea4335" fill-opacity="0.8" clip-path="url(#id_0)" d="M307.91116 127.85C307.91116 137.33844 300.21927 145.03033 290.7308 145.03033C281.24237 145.03033 273.55048 137.33844 273.55048 127.85C273.55048 118.36156 281.24237 110.66966 290.7308 110.66966C300.21927 110.66966 307.91116 118.36156 307.91116 127.85Z" fill-rule="nonzero"/><path fill="#34a853" fill-opacity="0.8" clip-path="url(#id_0)" d="M338.86493 153.425C338.86493 167.43365 327.50867 178.78992 313.5 178.78992C299.49133 178.78992 288.13507 167.43365 288.13507 153.425C288.13507 139.41634 299.49133 128.06009 313.5 128.06009C327.50867 128.06009 338.86493 139.41634 338.86493 153.425Z" fill-rule="nonzero"/><path fill="#34a853" fill-opacity="0.8" clip-path="url(#id_0)" d="M327.48032 153.425C327.48032 167.43365 316.12405 178.78992 302.11542 178.78992C288.10675 178.78992 276.7505 167.43365 276.7505 153.425C276.7505 139.41634 288.10675 128.06009 302.11542 128.06009C316.12405 128.06009 327.48032 139.41634 327.48032 153.425Z" fill-rule="nonzero"/><path fill="#ff6d01" fill-opacity="0.8" clip-path="url(#id_0)" d="M330.68033 306.875C330.68033 316.36343 322.98843 324.05533 313.5 324.05533C304.01157 324.05533 296.31967 316.36343 296.31967 306.875C296.31967 297.38657 304.01157 289.69467 313.5 289.69467C322.98843 289.69467 330.68033 297.38657 330.68033 306.875Z" fill-rule="nonzero"/><path fill="#46bdc6" fill-opacity="0.8" clip-path="url(#id_0)" d="M216.83443 204.575C216.83443 214.06345 209.14253 221.75534 199.65408 221.75534C190.16565 221.75534 182.47374 214.06345 182.47374 204.575C182.47374 195.08656 190.16565 187.39465 199.65408 187.39465C209.14253 187.39465 216.83443 195.08656 216.83443 204.575Z" fill-rule="nonzero"/><path fill="#34a853" fill-opacity="0.8" clip-path="url(#id_0)" d="M262.3728 153.425C262.3728 162.91344 254.6809 170.60535 245.19244 170.60535C235.70401 170.60535 228.01212 162.91344 228.01212 153.425C228.01212 143.93655 235.70401 136.24466 245.19244 136.24466C254.6809 136.24466 262.3728 143.93655 262.3728 153.425Z" fill-rule="nonzero"/><path fill="#7baaf7" fill-opacity="0.8" clip-path="url(#id_0)" d="M387.6033 76.7C387.6033 86.18844 379.9114 93.88034 370.42294 93.88034C360.9345 93.88034 353.2426 86.18844 353.2426 76.7C353.2426 67.21156 360.9345 59.51966 370.42294 59.51966C379.9114 59.51966 387.6033 67.21156 387.6033 76.7Z" fill-rule="nonzero"/><path fill="#4285f4" fill-opacity="0.8" clip-path="url(#id_0)" d="M244.23465 102.275C244.23465 114.3211 234.46936 124.08639 222.42326 124.08639C210.37717 124.08639 200.61188 114.3211 200.61188 102.275C200.61188 90.228905 210.37717 80.463615 222.42326 80.463615C234.46936 80.463615 244.23465 90.228905 244.23465 102.275Z" fill-rule="nonzero"/><path fill="#ff6d01" fill-opacity="0.8" clip-path="url(#id_0)" d="M250.9882 306.875C250.9882 316.36343 243.2963 324.05533 233.80786 324.05533C224.31943 324.05533 216.62752 316.36343 216.62752 306.875C216.62752 297.38657 224.31943 289.69467 233.80786 289.69467C243.2963 289.69467 250.9882 297.38657 250.9882 306.875Z" fill-rule="nonzero"/><path fill="#34a853" fill-opacity="0.8" clip-path="url(#id_0)" d="M239.6036 153.425C239.6036 162.91344 231.91171 170.60535 222.42326 170.60535C212.93483 170.60535 205.24294 162.91344 205.24294 153.425C205.24294 143.93655 212.93483 136.24466 222.42326 136.24466C231.91171 136.24466 239.6036 143.93655 239.6036 153.425Z" fill-rule="nonzero"/><path fill="#4285f4" fill-opacity="0.8" clip-path="url(#id_0)" d="M130.38875 102.275C130.38875 114.3211 120.62345 124.08639 108.577354 124.08639C96.53126 124.08639 86.76597 114.3211 86.76597 102.275C86.76597 90.228905 96.53126 80.463615 108.577354 80.463615C120.62345 80.463615 130.38875 90.228905 130.38875 102.275Z" fill-rule="nonzero"/><path fill="#46bdc6" fill-opacity="0.8" clip-path="url(#id_0)" d="M159.91147 204.575C159.91147 214.06345 152.21957 221.75534 142.73112 221.75534C133.24269 221.75534 125.55079 214.06345 125.55079 204.575C125.55079 195.08656 133.24269 187.39465 142.73112 187.39465C152.21957 187.39465 159.91147 195.08656 159.91147 204.575Z" fill-rule="nonzero"/><path fill="#4285f4" fill-opacity="0.8" clip-path="url(#id_0)" d="M216.83443 102.275C216.83443 111.76344 209.14253 119.45534 199.65408 119.45534C190.16565 119.45534 182.47374 111.76344 182.47374 102.275C182.47374 92.78656 190.16565 85.09466 199.65408 85.09466C209.14253 85.09466 216.83443 92.78656 216.83443 102.275Z" fill-rule="nonzero"/><path fill="#4285f4" fill-opacity="0.8" clip-path="url(#id_0)" d="M175.92711 102.275C175.92711 114.3211 166.16182 124.08639 154.11572 124.08639C142.06963 124.08639 132.30434 114.3211 132.30434 102.275C132.30434 90.228905 142.06963 80.463615 154.11572 80.463615C166.16182 80.463615 175.92711 90.228905 175.92711 102.275Z" fill-rule="nonzero"/><path fill="#ea4335" fill-opacity="0.8" clip-path="url(#id_0)" d="M153.15793 127.85C153.15793 139.8961 143.39264 149.66139 131.34654 149.66139C119.30044 149.66139 109.53515 139.8961 109.53515 127.85C109.53515 115.8039 119.30044 106.03861 131.34654 106.03861C143.39264 106.03861 153.15793 115.8039 153.15793 127.85Z" fill-rule="nonzero"/><path fill="#34a853" fill-opacity="0.8" clip-path="url(#id_0)" d="M194.06525 153.425C194.06525 162.91344 186.37334 170.60535 176.8849 170.60535C167.39647 170.60535 159.70456 162.91344 159.70456 153.425C159.70456 143.93655 167.39647 136.24466 176.8849 136.24466C186.37334 136.24466 194.06525 143.93655 194.06525 153.425Z" fill-rule="nonzero"/><path fill="#34a853" fill-opacity="0.8" clip-path="url(#id_0)" d="M148.52687 153.425C148.52687 162.91344 140.83498 170.60535 131.34654 170.60535C121.85809 170.60535 114.1662 162.91344 114.1662 153.425C114.1662 143.93655 121.85809 136.24466 131.34654 136.24466C140.83498 136.24466 148.52687 143.93655 148.52687 153.425Z" fill-rule="nonzero"/><path fill="#fbbc04" fill-opacity="0.8" clip-path="url(#id_0)" d="M353.44952 179.0C353.44952 188.48843 345.75763 196.18034 336.2692 196.18034C326.78073 196.18034 319.08884 188.48843 319.08884 179.0C319.08884 169.51157 326.78073 161.81966 336.2692 161.81966C345.75763 161.81966 353.44952 169.51157 353.44952 179.0Z" fill-rule="nonzero"/><path fill="#f07b72" fill-opacity="0.8" clip-path="url(#id_0)" d="M250.9882 255.725C250.9882 265.21344 243.2963 272.90533 233.80786 272.90533C224.31943 272.90533 216.62752 265.21344 216.62752 255.725C216.62752 246.23656 224.31943 238.54466 233.80786 238.54466C243.2963 238.54466 250.9882 246.23656 250.9882 255.725Z" fill-rule="nonzero"/><path fill="#ea4335" fill-opacity="0.8" clip-path="url(#id_0)" d="M346.69598 127.85C346.69598 139.8961 336.9307 149.66139 324.88458 149.66139C312.8385 149.66139 303.0732 139.8961 303.0732 127.85C303.0732 115.8039 312.8385 106.03861 324.88458 106.03861C336.9307 106.03861 346.69598 115.8039 346.69598 127.85Z" fill-rule="nonzero"/><path fill="#34a853" fill-opacity="0.8" clip-path="url(#id_0)" d="M301.15762 153.425C301.15762 165.4711 291.39233 175.23639 279.34622 175.23639C267.30014 175.23639 257.53485 165.4711 257.53485 153.425C257.53485 141.3789 267.30014 131.61362 279.34622 131.61362C291.39233 131.61362 301.15762 141.3789 301.15762 153.425Z" fill-rule="nonzero"/><path fill="#ea4335" fill-opacity="0.8" clip-path="url(#id_0)" d="M387.6033 127.85C387.6033 137.33844 379.9114 145.03033 370.42294 145.03033C360.9345 145.03033 353.2426 137.33844 353.2426 127.85C353.2426 118.36156 360.9345 110.66966 370.42294 110.66966C379.9114 110.66966 387.6033 118.36156 387.6033 127.85Z" fill-rule="nonzero"/><path fill="#34a853" fill-opacity="0.8" clip-path="url(#id_0)" d="M327.48032 153.425C327.48032 167.43365 316.12405 178.78992 302.11542 178.78992C288.10675 178.78992 276.7505 167.43365 276.7505 153.425C276.7505 139.41634 288.10675 128.06009 302.11542 128.06009C316.12405 128.06009 327.48032 139.41634 327.48032 153.425Z" fill-rule="nonzero"/><path fill="#f07b72" fill-opacity="0.8" clip-path="url(#id_0)" d="M330.68033 255.725C330.68033 265.21344 322.98843 272.90533 313.5 272.90533C304.01157 272.90533 296.31967 265.21344 296.31967 255.725C296.31967 246.23656 304.01157 238.54466 313.5 238.54466C322.98843 238.54466 330.68033 246.23656 330.68033 255.725Z" fill-rule="nonzero"/><path fill="#34a853" fill-opacity="0.8" clip-path="url(#id_0)" d="M187.3117 153.425C187.3117 165.4711 177.5464 175.23639 165.5003 175.23639C153.45421 175.23639 143.68892 165.4711 143.68892 153.425C143.68892 141.3789 153.45421 131.61362 165.5003 131.61362C177.5464 131.61362 187.3117 141.3789 187.3117 153.425Z" fill-rule="nonzero"/><path fill="#fcd04f" fill-opacity="0.8" clip-path="url(#id_0)" d="M262.3728 230.15C262.3728 239.63844 254.6809 247.33034 245.19244 247.33034C235.70401 247.33034 228.01212 239.63844 228.01212 230.15C228.01212 220.66156 235.70401 212.96967 245.19244 212.96967C254.6809 212.96967 262.3728 220.66156 262.3728 230.15Z" fill-rule="nonzero"/><path fill="#34a853" fill-opacity="0.8" clip-path="url(#id_0)" d="M301.15762 153.425C301.15762 165.4711 291.39233 175.23639 279.34622 175.23639C267.30014 175.23639 257.53485 165.4711 257.53485 153.425C257.53485 141.3789 267.30014 131.61362 279.34622 131.61362C291.39233 131.61362 301.15762 141.3789 301.15762 153.425Z" fill-rule="nonzero"/><path fill="#fbbc04" fill-opacity="0.8" clip-path="url(#id_0)" d="M285.14197 179.0C285.14197 188.48843 277.45007 196.18034 267.96164 196.18034C258.4732 196.18034 250.7813 188.48843 250.7813 179.0C250.7813 169.51157 258.4732 161.81966 267.96164 161.81966C277.45007 161.81966 285.14197 169.51157 285.14197 179.0Z" fill-rule="nonzero"/><path fill="#46bdc6" fill-opacity="0.8" clip-path="url(#id_0)" d="M250.9882 204.575C250.9882 214.06345 243.2963 221.75534 233.80786 221.75534C224.31943 221.75534 216.62752 214.06345 216.62752 204.575C216.62752 195.08656 224.31943 187.39465 233.80786 187.39465C243.2963 187.39465 250.9882 195.08656 250.9882 204.575Z" fill-rule="nonzero"/><path fill="#34a853" fill-opacity="0.8" clip-path="url(#id_0)" d="M213.63441 153.425C213.63441 167.43365 202.27815 178.78992 188.2695 178.78992C174.26083 178.78992 162.90457 167.43365 162.90457 153.425C162.90457 139.41634 174.26083 128.06009 188.2695 128.06009C202.27815 128.06009 213.63441 139.41634 213.63441 153.425Z" fill-rule="nonzero"/><path fill="#4285f4" fill-opacity="0.8" clip-path="url(#id_0)" d="M342.06494 102.275C342.06494 111.76344 334.37302 119.45534 324.88458 119.45534C315.39615 119.45534 307.70425 111.76344 307.70425 102.275C307.70425 92.78656 315.39615 85.09466 324.88458 85.09466C334.37302 85.09466 342.06494 92.78656 342.06494 102.275Z" fill-rule="nonzero"/><path fill="#34a853" fill-opacity="0.8" clip-path="url(#id_0)" d="M213.63441 153.425C213.63441 167.43365 202.27815 178.78992 188.2695 178.78992C174.26083 178.78992 162.90457 167.43365 162.90457 153.425C162.90457 139.41634 174.26083 128.06009 188.2695 128.06009C202.27815 128.06009 213.63441 139.41634 213.63441 153.425Z" fill-rule="nonzero"/><path fill="#fbbc04" fill-opacity="0.8" clip-path="url(#id_0)" d="M296.52655 179.0C296.52655 188.48843 288.83466 196.18034 279.34622 196.18034C269.8578 196.18034 262.1659 188.48843 262.1659 179.0C262.1659 169.51157 269.8578 161.81966 279.34622 161.81966C288.83466 161.81966 296.52655 169.51157 296.52655 179.0Z" fill-rule="nonzero"/><path fill="#34a853" fill-opacity="0.8" clip-path="url(#id_0)" d="M228.21901 153.425C228.21901 162.91344 220.52711 170.60535 211.03868 170.60535C201.55023 170.60535 193.85834 162.91344 193.85834 153.425C193.85834 143.93655 201.55023 136.24466 211.03868 136.24466C220.52711 136.24466 228.21901 143.93655 228.21901 153.425Z" fill-rule="nonzero"/><path fill="#fbbc04" fill-opacity="0.8" clip-path="url(#id_0)" d="M216.83443 179.0C216.83443 188.48843 209.14253 196.18034 199.65408 196.18034C190.16565 196.18034 182.47374 188.48843 182.47374 179.0C182.47374 169.51157 190.16565 161.81966 199.65408 161.81966C209.14253 161.81966 216.83443 169.51157 216.83443 179.0Z" fill-rule="nonzero"/><path fill="#34a853" fill-opacity="0.8" clip-path="url(#id_0)" d="M114.3731 153.425C114.3731 162.91344 106.6812 170.60535 97.192764 170.60535C87.70432 170.60535 80.01242 162.91344 80.01242 153.425C80.01242 143.93655 87.70432 136.24466 97.192764 136.24466C106.6812 136.24466 114.3731 143.93655 114.3731 153.425Z" fill-rule="nonzero"/><path fill="#fbbc04" fill-opacity="0.8" clip-path="url(#id_0)" d="M182.68065 179.0C182.68065 188.48843 174.98875 196.18034 165.5003 196.18034C156.01187 196.18034 148.31998 188.48843 148.31998 179.0C148.31998 169.51157 156.01187 161.81966 165.5003 161.81966C174.98875 161.81966 182.68065 169.51157 182.68065 179.0Z" fill-rule="nonzero"/><path fill="#34a853" fill-opacity="0.8" clip-path="url(#id_0)" d="M327.48032 153.425C327.48032 167.43365 316.12405 178.78992 302.11542 178.78992C288.10675 178.78992 276.7505 167.43365 276.7505 153.425C276.7505 139.41634 288.10675 128.06009 302.11542 128.06009C316.12405 128.06009 327.48032 139.41634 327.48032 153.425Z" fill-rule="nonzero"/><path fill="#34a853" fill-opacity="0.8" clip-path="url(#id_0)" d="M316.09573 153.425C316.09573 167.43365 304.73947 178.78992 290.7308 178.78992C276.72217 178.78992 265.3659 167.43365 265.3659 153.425C265.3659 139.41634 276.72217 128.06009 290.7308 128.06009C304.73947 128.06009 316.09573 139.41634 316.09573 153.425Z" fill-rule="nonzero"/><path fill="#fbbc04" fill-opacity="0.8" clip-path="url(#id_0)" d="M307.91116 179.0C307.91116 188.48843 300.21927 196.18034 290.7308 196.18034C281.24237 196.18034 273.55048 188.48843 273.55048 179.0C273.55048 169.51157 281.24237 161.81966 290.7308 161.81966C300.21927 161.81966 307.91116 169.51157 307.91116 179.0Z" fill-rule="nonzero"/><path fill="#34a853" fill-opacity="0.8" clip-path="url(#id_0)" d="M316.09573 153.425C316.09573 167.43365 304.73947 178.78992 290.7308 178.78992C276.72217 178.78992 265.3659 167.43365 265.3659 153.425C265.3659 139.41634 276.72217 128.06009 290.7308 128.06009C304.73947 128.06009 316.09573 139.41634 316.09573 153.425Z" fill-rule="nonzero"/><path fill="#34a853" fill-opacity="0.8" clip-path="url(#id_0)" d="M213.63441 153.425C213.63441 167.43365 202.27815 178.78992 188.2695 178.78992C174.26083 178.78992 162.90457 167.43365 162.90457 153.425C162.90457 139.41634 174.26083 128.06009 188.2695 128.06009C202.27815 128.06009 213.63441 139.41634 213.63441 153.425Z" fill-rule="nonzero"/><path fill="#ea4335" fill-opacity="0.8" clip-path="url(#id_0)" d="M225.019 127.85C225.019 141.85866 213.66273 153.21492 199.65408 153.21492C185.64543 153.21492 174.28917 141.85866 174.28917 127.85C174.28917 113.84135 185.64543 102.485085 199.65408 102.485085C213.66273 102.485085 225.019 113.84135 225.019 127.85Z" fill-rule="nonzero"/><path fill="#34a853" fill-opacity="0.8" clip-path="url(#id_0)" d="M467.29544 153.425C467.29544 162.91344 459.60355 170.60535 450.1151 170.60535C440.62665 170.60535 432.93475 162.91344 432.93475 153.425C432.93475 143.93655 440.62665 136.24466 450.1151 136.24466C459.60355 136.24466 467.29544 143.93655 467.29544 153.425Z" fill-rule="nonzero"/><path fill="#ea4335" fill-opacity="0.8" clip-path="url(#id_0)" d="M421.75708 127.85C421.75708 137.33844 414.0652 145.03033 404.57672 145.03033C395.0883 145.03033 387.3964 137.33844 387.3964 127.85C387.3964 118.36156 395.0883 110.66966 404.57672 110.66966C414.0652 110.66966 421.75708 118.36156 421.75708 127.85Z" fill-rule="nonzero"/><path fill="#ea4335" fill-opacity="0.8" clip-path="url(#id_0)" d="M267.00385 127.85C267.00385 139.8961 257.23856 149.66139 245.19244 149.66139C233.14635 149.66139 223.38106 139.8961 223.38106 127.85C223.38106 115.8039 233.14635 106.03861 245.19244 106.03861C257.23856 106.03861 267.00385 115.8039 267.00385 127.85Z" fill-rule="nonzero"/><path fill="#ea4335" fill-opacity="0.8" clip-path="url(#id_0)" d="M171.29607 127.85C171.29607 137.33844 163.60416 145.03033 154.11572 145.03033C144.62727 145.03033 136.93538 137.33844 136.93538 127.85C136.93538 118.36156 144.62727 110.66966 154.11572 110.66966C163.60416 110.66966 171.29607 118.36156 171.29607 127.85Z" fill-rule="nonzero"/><path fill="#fbbc04" fill-opacity="0.8" clip-path="url(#id_0)" d="M433.14166 179.0C433.14166 188.48843 425.44977 196.18034 415.96133 196.18034C406.47287 196.18034 398.78098 188.48843 398.78098 179.0C398.78098 169.51157 406.47287 161.81966 415.96133 161.81966C425.44977 161.81966 433.14166 169.51157 433.14166 179.0Z" fill-rule="nonzero"/><path fill="#34a853" fill-opacity="0.8" clip-path="url(#id_0)" d="M185.11572 153.425C185.11572 170.54582 171.23654 184.425 154.11572 184.425C136.99489 184.425 123.11572 170.54582 123.11572 153.425C123.11572 136.30417 136.99489 122.425 154.11572 122.425C171.23654 122.425 185.11572 136.30417 185.11572 153.425Z" fill-rule="nonzero"/><path fill="#34a853" fill-opacity="0.8" clip-path="url(#id_0)" d="M338.86493 153.425C338.86493 167.43365 327.50867 178.78992 313.5 178.78992C299.49133 178.78992 288.13507 167.43365 288.13507 153.425C288.13507 139.41634 299.49133 128.06009 313.5 128.06009C327.50867 128.06009 338.86493 139.41634 338.86493 153.425Z" fill-rule="nonzero"/><path fill="#7baaf7" fill-opacity="0.8" clip-path="url(#id_0)" d="M455.91086 76.7C455.91086 86.18844 448.21893 93.88034 438.7305 93.88034C429.24207 93.88034 421.55017 86.18844 421.55017 76.7C421.55017 67.21156 429.24207 59.51966 438.7305 59.51966C448.21893 59.51966 455.91086 67.21156 455.91086 76.7Z" fill-rule="nonzero"/><path fill="#4285f4" fill-opacity="0.8" clip-path="url(#id_0)" d="M307.91116 102.275C307.91116 111.76344 300.21927 119.45534 290.7308 119.45534C281.24237 119.45534 273.55048 111.76344 273.55048 102.275C273.55048 92.78656 281.24237 85.09466 290.7308 85.09466C300.21927 85.09466 307.91116 92.78656 307.91116 102.275Z" fill-rule="nonzero"/><path fill="#34a853" fill-opacity="0.8" clip-path="url(#id_0)" d="M185.11572 153.425C185.11572 170.54582 171.23654 184.425 154.11572 184.425C136.99489 184.425 123.11572 170.54582 123.11572 153.425C123.11572 136.30417 136.99489 122.425 154.11572 122.425C171.23654 122.425 185.11572 136.30417 185.11572 153.425Z" fill-rule="nonzero"/><path fill="#34a853" fill-opacity="0.8" clip-path="url(#id_0)" d="M569.7568 153.425C569.7568 162.91344 562.0649 170.60535 552.5764 170.60535C543.08795 170.60535 535.39606 162.91344 535.39606 153.425C535.39606 143.93655 543.08795 136.24466 552.5764 136.24466C562.0649 136.24466 569.7568 143.93655 569.7568 153.425Z" fill-rule="nonzero"/><path fill="#34a853" fill-opacity="0.8" clip-path="url(#id_0)" d="M185.11572 153.425C185.11572 170.54582 171.23654 184.425 154.11572 184.425C136.99489 184.425 123.11572 170.54582 123.11572 153.425C123.11572 136.30417 136.99489 122.425 154.11572 122.425C171.23654 122.425 185.11572 136.30417 185.11572 153.425Z" fill-rule="nonzero"/><path fill="#f07b72" fill-opacity="0.8" clip-path="url(#id_0)" d="M262.3728 255.725C262.3728 265.21344 254.6809 272.90533 245.19244 272.90533C235.70401 272.90533 228.01212 265.21344 228.01212 255.725C228.01212 246.23656 235.70401 238.54466 245.19244 238.54466C254.6809 238.54466 262.3728 246.23656 262.3728 255.725Z" fill-rule="nonzero"/><path fill="#4285f4" fill-opacity="0.8" clip-path="url(#id_0)" d="M114.3731 102.275C114.3731 111.76344 106.6812 119.45534 97.192764 119.45534C87.70432 119.45534 80.01242 111.76344 80.01242 102.275C80.01242 92.78656 87.70432 85.09466 97.192764 85.09466C106.6812 85.09466 114.3731 92.78656 114.3731 102.275Z" fill-rule="nonzero"/><path fill="#fbbc04" fill-opacity="0.8" clip-path="url(#id_0)" d="M255.61925 179.0C255.61925 191.0461 245.85396 200.81139 233.80786 200.81139C221.76176 200.81139 211.99648 191.0461 211.99648 179.0C211.99648 166.9539 221.76176 157.18861 233.80786 157.18861C245.85396 157.18861 255.61925 166.9539 255.61925 179.0Z" fill-rule="nonzero"/><path fill="#ea4335" fill-opacity="0.8" clip-path="url(#id_0)" d="M319.29575 127.85C319.29575 137.33844 311.60385 145.03033 302.11542 145.03033C292.62698 145.03033 284.93506 137.33844 284.93506 127.85C284.93506 118.36156 292.62698 110.66966 302.11542 110.66966C311.60385 110.66966 319.29575 118.36156 319.29575 127.85Z" fill-rule="nonzero"/><path fill="#fbbc04" fill-opacity="0.8" clip-path="url(#id_0)" d="M239.6036 179.0C239.6036 188.48843 231.91171 196.18034 222.42326 196.18034C212.93483 196.18034 205.24294 188.48843 205.24294 179.0C205.24294 169.51157 212.93483 161.81966 222.42326 161.81966C231.91171 161.81966 239.6036 169.51157 239.6036 179.0Z" fill-rule="nonzero"/><path fill="#fbbc04" fill-opacity="0.8" clip-path="url(#id_0)" d="M255.61925 179.0C255.61925 191.0461 245.85396 200.81139 233.80786 200.81139C221.76176 200.81139 211.99648 191.0461 211.99648 179.0C211.99648 166.9539 221.76176 157.18861 233.80786 157.18861C245.85396 157.18861 255.61925 166.9539 255.61925 179.0Z" fill-rule="nonzero"/><path fill="#fbbc04" fill-opacity="0.8" clip-path="url(#id_0)" d="M148.52687 179.0C148.52687 188.48843 140.83498 196.18034 131.34654 196.18034C121.85809 196.18034 114.1662 188.48843 114.1662 179.0C114.1662 169.51157 121.85809 161.81966 131.34654 161.81966C140.83498 161.81966 148.52687 169.51157 148.52687 179.0Z" fill-rule="nonzero"/><path fill="#ea4335" fill-opacity="0.8" clip-path="url(#id_0)" d="M225.019 127.85C225.019 141.85866 213.66273 153.21492 199.65408 153.21492C185.64543 153.21492 174.28917 141.85866 174.28917 127.85C174.28917 113.84135 185.64543 102.485085 199.65408 102.485085C213.66273 102.485085 225.019 113.84135 225.019 127.85Z" fill-rule="nonzero"/><path fill="#34a853" fill-opacity="0.8" clip-path="url(#id_0)" d="M185.11572 153.425C185.11572 170.54582 171.23654 184.425 154.11572 184.425C136.99489 184.425 123.11572 170.54582 123.11572 153.425C123.11572 136.30417 136.99489 122.425 154.11572 122.425C171.23654 122.425 185.11572 136.30417 185.11572 153.425Z" fill-rule="nonzero"/><path fill="#ea4335" fill-opacity="0.8" clip-path="url(#id_0)" d="M153.15793 127.85C153.15793 139.8961 143.39264 149.66139 131.34654 149.66139C119.30044 149.66139 109.53515 139.8961 109.53515 127.85C109.53515 115.8039 119.30044 106.03861 131.34654 106.03861C143.39264 106.03861 153.15793 115.8039 153.15793 127.85Z" fill-rule="nonzero"/><path fill="#4285f4" fill-opacity="0.8" clip-path="url(#id_0)" d="M130.38875 102.275C130.38875 114.3211 120.62345 124.08639 108.577354 124.08639C96.53126 124.08639 86.76597 114.3211 86.76597 102.275C86.76597 90.228905 96.53126 80.463615 108.577354 80.463615C120.62345 80.463615 130.38875 90.228905 130.38875 102.275Z" fill-rule="nonzero"/><path fill="#34a853" fill-opacity="0.8" clip-path="url(#id_0)" d="M273.7574 153.425C273.7574 162.91344 266.0655 170.60535 256.57706 170.60535C247.08861 170.60535 239.3967 162.91344 239.3967 153.425C239.3967 143.93655 247.08861 136.24466 256.57706 136.24466C266.0655 136.24466 273.7574 143.93655 273.7574 153.425Z" fill-rule="nonzero"/><path fill="#fcd04f" fill-opacity="0.8" clip-path="url(#id_0)" d="M171.29607 230.15C171.29607 239.63844 163.60416 247.33034 154.11572 247.33034C144.62727 247.33034 136.93538 239.63844 136.93538 230.15C136.93538 220.66156 144.62727 212.96967 154.11572 212.96967C163.60416 212.96967 171.29607 220.66156 171.29607 230.15Z" fill-rule="nonzero"/><path fill="#ea4335" fill-opacity="0.8" clip-path="url(#id_0)" d="M239.6036 127.85C239.6036 137.33844 231.91171 145.03033 222.42326 145.03033C212.93483 145.03033 205.24294 137.33844 205.24294 127.85C205.24294 118.36156 212.93483 110.66966 222.42326 110.66966C231.91171 110.66966 239.6036 118.36156 239.6036 127.85Z" fill-rule="nonzero"/><path fill="#4285f4" fill-opacity="0.8" clip-path="url(#id_0)" d="M182.68065 102.275C182.68065 111.76344 174.98875 119.45534 165.5003 119.45534C156.01187 119.45534 148.31998 111.76344 148.31998 102.275C148.31998 92.78656 156.01187 85.09466 165.5003 85.09466C174.98875 85.09466 182.68065 92.78656 182.68065 102.275Z" fill-rule="nonzero"/><path fill="#46bdc6" fill-opacity="0.8" clip-path="url(#id_0)" d="M535.60297 204.575C535.60297 214.06345 527.9111 221.75534 518.42267 221.75534C508.9342 221.75534 501.2423 214.06345 501.2423 204.575C501.2423 195.08656 508.9342 187.39465 518.42267 187.39465C527.9111 187.39465 535.60297 195.08656 535.60297 204.575Z" fill-rule="nonzero"/><path fill="#ea4335" fill-opacity="0.8" clip-path="url(#id_0)" d="M546.98755 127.85C546.98755 137.33844 539.29565 145.03033 529.80725 145.03033C520.3188 145.03033 512.6269 137.33844 512.6269 127.85C512.6269 118.36156 520.3188 110.66966 529.80725 110.66966C539.29565 110.66966 546.98755 118.36156 546.98755 127.85Z" fill-rule="nonzero"/><path fill="#46bdc6" fill-opacity="0.8" clip-path="url(#id_0)" d="M228.21901 204.575C228.21901 214.06345 220.52711 221.75534 211.03868 221.75534C201.55023 221.75534 193.85834 214.06345 193.85834 204.575C193.85834 195.08656 201.55023 187.39465 211.03868 187.39465C220.52711 187.39465 228.21901 195.08656 228.21901 204.575Z" fill-rule="nonzero"/><path fill="#ea4335" fill-opacity="0.8" clip-path="url(#id_0)" d="M267.00385 127.85C267.00385 139.8961 257.23856 149.66139 245.19244 149.66139C233.14635 149.66139 223.38106 139.8961 223.38106 127.85C223.38106 115.8039 233.14635 106.03861 245.19244 106.03861C257.23856 106.03861 267.00385 115.8039 267.00385 127.85Z" fill-rule="nonzero"/><path fill="#34a853" fill-opacity="0.8" clip-path="url(#id_0)" d="M187.3117 153.425C187.3117 165.4711 177.5464 175.23639 165.5003 175.23639C153.45421 175.23639 143.68892 165.4711 143.68892 153.425C143.68892 141.3789 153.45421 131.61362 165.5003 131.61362C177.5464 131.61362 187.3117 141.3789 187.3117 153.425Z" fill-rule="nonzero"/><path fill="#34a853" fill-opacity="0.8" clip-path="url(#id_0)" d="M338.86493 153.425C338.86493 167.43365 327.50867 178.78992 313.5 178.78992C299.49133 178.78992 288.13507 167.43365 288.13507 153.425C288.13507 139.41634 299.49133 128.06009 313.5 128.06009C327.50867 128.06009 338.86493 139.41634 338.86493 153.425Z" fill-rule="nonzero"/><path fill="#ea4335" fill-opacity="0.8" clip-path="url(#id_0)" d="M137.14229 127.85C137.14229 137.33844 129.45038 145.03033 119.961945 145.03033C110.4735 145.03033 102.78161 137.33844 102.78161 127.85C102.78161 118.36156 110.4735 110.66966 119.961945 110.66966C129.45038 110.66966 137.14229 118.36156 137.14229 127.85Z" fill-rule="nonzero"/><path fill="#ea4335" fill-opacity="0.8" clip-path="url(#id_0)" d="M225.019 127.85C225.019 141.85866 213.66273 153.21492 199.65408 153.21492C185.64543 153.21492 174.28917 141.85866 174.28917 127.85C174.28917 113.84135 185.64543 102.485085 199.65408 102.485085C213.66273 102.485085 225.019 113.84135 225.019 127.85Z" fill-rule="nonzero"/><path fill="#34a853" fill-opacity="0.8" clip-path="url(#id_0)" d="M376.21872 153.425C376.21872 162.91344 368.5268 170.60535 359.03836 170.60535C349.54993 170.60535 341.85803 162.91344 341.85803 153.425C341.85803 143.93655 349.54993 136.24466 359.03836 136.24466C368.5268 136.24466 376.21872 143.93655 376.21872 153.425Z" fill-rule="nonzero"/><path fill="#ea4335" fill-opacity="0.8" clip-path="url(#id_0)" d="M228.21901 127.85C228.21901 137.33844 220.52711 145.03033 211.03868 145.03033C201.55023 145.03033 193.85834 137.33844 193.85834 127.85C193.85834 118.36156 201.55023 110.66966 211.03868 110.66966C220.52711 110.66966 228.21901 118.36156 228.21901 127.85Z" fill-rule="nonzero"/><path fill="#34a853" fill-opacity="0.8" clip-path="url(#id_0)" d="M316.09573 153.425C316.09573 167.43365 304.73947 178.78992 290.7308 178.78992C276.72217 178.78992 265.3659 167.43365 265.3659 153.425C265.3659 139.41634 276.72217 128.06009 290.7308 128.06009C304.73947 128.06009 316.09573 139.41634 316.09573 153.425Z" fill-rule="nonzero"/><path fill="#4285f4" fill-opacity="0.8" clip-path="url(#id_0)" d="M175.92711 102.275C175.92711 114.3211 166.16182 124.08639 154.11572 124.08639C142.06963 124.08639 132.30434 114.3211 132.30434 102.275C132.30434 90.228905 142.06963 80.463615 154.11572 80.463615C166.16182 80.463615 175.92711 90.228905 175.92711 102.275Z" fill-rule="nonzero"/><path fill="#34a853" fill-opacity="0.8" clip-path="url(#id_0)" d="M102.98851 153.425C102.98851 162.91344 95.29661 170.60535 85.808174 170.60535C76.31973 170.60535 68.62783 162.91344 68.62783 153.425C68.62783 143.93655 76.31973 136.24466 85.808174 136.24466C95.29661 136.24466 102.98851 143.93655 102.98851 153.425Z" fill-rule="nonzero"/><path fill="#4285f4" fill-opacity="0.8" clip-path="url(#id_0)" d="M198.69629 102.275C198.69629 114.3211 188.931 124.08639 176.8849 124.08639C164.8388 124.08639 155.07352 114.3211 155.07352 102.275C155.07352 90.228905 164.8388 80.463615 176.8849 80.463615C188.931 80.463615 198.69629 90.228905 198.69629 102.275Z" fill-rule="nonzero"/><path fill="#4285f4" fill-opacity="0.8" clip-path="url(#id_0)" d="M376.21872 102.275C376.21872 111.76344 368.5268 119.45534 359.03836 119.45534C349.54993 119.45534 341.85803 111.76344 341.85803 102.275C341.85803 92.78656 349.54993 85.09466 359.03836 85.09466C368.5268 85.09466 376.21872 92.78656 376.21872 102.275Z" fill-rule="nonzero"/><path fill="#34a853" fill-opacity="0.8" clip-path="url(#id_0)" d="M444.52625 153.425C444.52625 162.91344 436.83435 170.60535 427.34592 170.60535C417.85748 170.60535 410.1656 162.91344 410.1656 153.425C410.1656 143.93655 417.85748 136.24466 427.34592 136.24466C436.83435 136.24466 444.52625 143.93655 444.52625 153.425Z" fill-rule="nonzero"/><path fill="#4285f4" fill-opacity="0.8" clip-path="url(#id_0)" d="M198.69629 102.275C198.69629 114.3211 188.931 124.08639 176.8849 124.08639C164.8388 124.08639 155.07352 114.3211 155.07352 102.275C155.07352 90.228905 164.8388 80.463615 176.8849 80.463615C188.931 80.463615 198.69629 90.228905 198.69629 102.275Z" fill-rule="nonzero"/><path fill="#46bdc6" fill-opacity="0.8" clip-path="url(#id_0)" d="M273.7574 204.575C273.7574 214.06345 266.0655 221.75534 256.57706 221.75534C247.08861 221.75534 239.3967 214.06345 239.3967 204.575C239.3967 195.08656 247.08861 187.39465 256.57706 187.39465C266.0655 187.39465 273.7574 195.08656 273.7574 204.575Z" fill-rule="nonzero"/><path fill="#ea4335" fill-opacity="0.8" clip-path="url(#id_0)" d="M296.52655 127.85C296.52655 137.33844 288.83466 145.03033 279.34622 145.03033C269.8578 145.03033 262.1659 137.33844 262.1659 127.85C262.1659 118.36156 269.8578 110.66966 279.34622 110.66966C288.83466 110.66966 296.52655 118.36156 296.52655 127.85Z" fill-rule="nonzero"/><path fill="#34a853" fill-opacity="0.8" clip-path="url(#id_0)" d="M185.11572 153.425C185.11572 170.54582 171.23654 184.425 154.11572 184.425C136.99489 184.425 123.11572 170.54582 123.11572 153.425C123.11572 136.30417 136.99489 122.425 154.11572 122.425C171.23654 122.425 185.11572 136.30417 185.11572 153.425Z" fill-rule="nonzero"/><path fill="#4285f4" fill-opacity="0.8" clip-path="url(#id_0)" d="M228.21901 102.275C228.21901 111.76344 220.52711 119.45534 211.03868 119.45534C201.55023 119.45534 193.85834 111.76344 193.85834 102.275C193.85834 92.78656 201.55023 85.09466 211.03868 85.09466C220.52711 85.09466 228.21901 92.78656 228.21901 102.275Z" fill-rule="nonzero"/><path fill="#4285f4" fill-opacity="0.8" clip-path="url(#id_0)" d="M137.14229 102.275C137.14229 111.76344 129.45038 119.45534 119.961945 119.45534C110.4735 119.45534 102.78161 111.76344 102.78161 102.275C102.78161 92.78656 110.4735 85.09466 119.961945 85.09466C129.45038 85.09466 137.14229 92.78656 137.14229 102.275Z" fill-rule="nonzero"/><path fill="#ea4335" fill-opacity="0.8" clip-path="url(#id_0)" d="M91.60392 127.85C91.60392 137.33844 83.91202 145.03033 74.42358 145.03033C64.93514 145.03033 57.24324 137.33844 57.24324 127.85C57.24324 118.36156 64.93514 110.66966 74.42358 110.66966C83.91202 110.66966 91.60392 118.36156 91.60392 127.85Z" fill-rule="nonzero"/><path fill="#fbbc04" fill-opacity="0.8" clip-path="url(#id_0)" d="M125.75769 179.0C125.75769 188.48843 118.065796 196.18034 108.577354 196.18034C99.08891 196.18034 91.39701 188.48843 91.39701 179.0C91.39701 169.51157 99.08891 161.81966 108.577354 161.81966C118.065796 161.81966 125.75769 169.51157 125.75769 179.0Z" fill-rule="nonzero"/><path fill="#ea4335" fill-opacity="0.8" clip-path="url(#id_0)" d="M346.69598 127.85C346.69598 139.8961 336.9307 149.66139 324.88458 149.66139C312.8385 149.66139 303.0732 139.8961 303.0732 127.85C303.0732 115.8039 312.8385 106.03861 324.88458 106.03861C336.9307 106.03861 346.69598 115.8039 346.69598 127.85Z" fill-rule="nonzero"/><path fill="#34a853" fill-opacity="0.8" clip-path="url(#id_0)" d="M216.83443 153.425C216.83443 162.91344 209.14253 170.60535 199.65408 170.60535C190.16565 170.60535 182.47374 162.91344 182.47374 153.425C182.47374 143.93655 190.16565 136.24466 199.65408 136.24466C209.14253 136.24466 216.83443 143.93655 216.83443 153.425Z" fill-rule="nonzero"/><path fill="#000000" d="M33.05 332.21564Q33.05 330.6844 33.3625 329.7625Q33.675 328.825 34.284374 328.325Q34.909374 327.825 35.846874 327.825Q36.534374 327.825 37.05 328.10626Q37.58125 328.3875 37.925 328.91876Q38.26875 329.4344 38.45625 330.1844Q38.64375 330.9344 38.64375 332.21564Q38.64375 333.73126 38.33125 334.65314Q38.034374 335.575 37.409374 336.09064Q36.8 336.59064 35.846874 336.59064Q34.6125 336.59064 33.89375 335.7Q33.05 334.6375 33.05 332.21564ZM34.128124 332.21564Q34.128124 334.325 34.628124 335.02814Q35.128124 335.73126 35.846874 335.73126Q36.58125 335.73126 37.065624 335.02814Q37.565624 334.325 37.565624 332.21564Q37.565624 330.09064 37.065624 329.40314Q36.58125 328.7 35.83125 328.7Q35.1125 328.7 34.675 329.3094Q34.128124 330.09064 34.128124 332.21564Z" fill-rule="nonzero"/><path fill="#000000" d="M38.596874 284.28436L38.596874 285.3L32.909374 285.3Q32.909374 284.925 33.034374 284.5656Q33.253124 283.9875 33.721874 283.425Q34.20625 282.8625 35.1125 282.1281Q36.51875 280.97186 37.003124 280.3Q37.503124 279.6281 37.503124 279.03436Q37.503124 278.40936 37.05 277.9875Q36.596874 277.55 35.878124 277.55Q35.1125 277.55 34.659374 278.0031Q34.20625 278.45624 34.190624 279.26874L33.1125 279.15936Q33.221874 277.9406 33.940624 277.3156Q34.675 276.675 35.909374 276.675Q37.14375 276.675 37.8625 277.3625Q38.58125 278.05 38.58125 279.0656Q38.58125 279.58124 38.3625 280.08124Q38.159374 280.5656 37.659374 281.1281Q37.175 281.675 36.05 282.6281Q35.096874 283.425 34.815624 283.72186Q34.55 284.0031 34.378124 284.28436L38.596874 284.28436Z" fill-rule="nonzero"/><path fill="#000000" d="M36.425 234.15L36.425 232.0875L32.70625 232.0875L32.70625 231.11874L36.628124 225.55624L37.4875 225.55624L37.4875 231.11874L38.64375 231.11874L38.64375 232.0875L37.4875 232.0875L37.4875 234.15L36.425 234.15ZM36.425 231.11874L36.425 227.25937L33.7375 231.11874L36.425 231.11874Z" fill-rule="nonzero"/><path fill="#000000" d="M38.51875 176.51562L37.471874 176.59375Q37.33125 175.96875 37.08125 175.6875Q36.64375 175.23438 36.01875 175.23438Q35.51875 175.23438 35.128124 175.51562Q34.64375 175.89062 34.346874 176.59375Q34.065624 177.28125 34.05 178.5625Q34.425 177.98438 34.971874 177.70312Q35.534374 177.42188 36.14375 177.42188Q37.190624 177.42188 37.925 178.20312Q38.675 178.98438 38.675 180.20312Q38.675 181.01562 38.315624 181.71875Q37.971874 182.40625 37.3625 182.78125Q36.753124 183.14062 35.9875 183.14062Q34.659374 183.14062 33.83125 182.17188Q33.003124 181.20312 33.003124 178.98438Q33.003124 176.48438 33.925 175.35938Q34.721874 174.375 36.08125 174.375Q37.096874 174.375 37.7375 174.95312Q38.39375 175.51562 38.51875 176.51562ZM34.221874 180.21875Q34.221874 180.76562 34.440624 181.26562Q34.675 181.75 35.08125 182.01562Q35.503124 182.28125 35.971874 182.28125Q36.628124 182.28125 37.1125 181.75Q37.596874 181.20312 37.596874 180.28125Q37.596874 179.39062 37.1125 178.875Q36.64375 178.35938 35.925 178.35938Q35.20625 178.35938 34.70625 178.875Q34.221874 179.39062 34.221874 180.21875Z" fill-rule="nonzero"/><path fill="#000000" d="M34.675 127.193756Q34.01875 126.943756 33.690624 126.506256Q33.378124 126.05313 33.378124 125.443756Q33.378124 124.506256 34.05 123.86563Q34.7375 123.225006 35.846874 123.225006Q36.971874 123.225006 37.659374 123.881256Q38.346874 124.537506 38.346874 125.475006Q38.346874 126.068756 38.034374 126.506256Q37.721874 126.943756 37.08125 127.193756Q37.878124 127.443756 38.284374 128.02188Q38.690624 128.6 38.690624 129.39688Q38.690624 130.49063 37.909374 131.24063Q37.14375 131.99063 35.8625 131.99063Q34.596874 131.99063 33.815624 131.24063Q33.034374 130.49063 33.034374 129.36563Q33.034374 128.52188 33.45625 127.95938Q33.89375 127.39688 34.675 127.193756ZM34.45625 125.39688Q34.45625 126.006256 34.846874 126.39688Q35.253124 126.787506 35.878124 126.787506Q36.4875 126.787506 36.878124 126.412506Q37.26875 126.02188 37.26875 125.45938Q37.26875 124.881256 36.8625 124.49063Q36.45625 124.08438 35.8625 124.08438Q35.253124 124.08438 34.846874 124.475006Q34.45625 124.86563 34.45625 125.39688ZM34.128124 129.36563Q34.128124 129.81876 34.33125 130.24063Q34.55 130.6625 34.971874 130.89688Q35.39375 131.13126 35.878124 131.13126Q36.628124 131.13126 37.1125 130.64688Q37.6125 130.1625 37.6125 129.4125Q37.6125 128.64688 37.1125 128.14688Q36.6125 127.64688 35.846874 127.64688Q35.096874 127.64688 34.6125 128.14688Q34.128124 128.63126 34.128124 129.36563Z" fill-rule="nonzero"/><path fill="#000000" d="M30.01875 80.7L28.971874 80.7L28.971874 73.98125Q28.58125 74.34062 27.95625 74.71562Q27.346874 75.075 26.8625 75.24687L26.8625 74.23125Q27.7375 73.80937 28.39375 73.23125Q29.065624 72.6375 29.346874 72.075L30.01875 72.075L30.01875 80.7ZM33.05 76.46562Q33.05 74.93437 33.3625 74.0125Q33.675 73.075 34.284374 72.575Q34.909374 72.075 35.846874 72.075Q36.534374 72.075 37.05 72.35625Q37.58125 72.6375 37.925 73.16875Q38.26875 73.68437 38.45625 74.43437Q38.64375 75.18437 38.64375 76.46562Q38.64375 77.98125 38.33125 78.90312Q38.034374 79.825 37.409374 80.34062Q36.8 80.84062 35.846874 80.84062Q34.6125 80.84062 33.89375 79.95Q33.05 78.8875 33.05 76.46562ZM34.128124 76.46562Q34.128124 78.575 34.628124 79.27812Q35.128124 79.98125 35.846874 79.98125Q36.58125 79.98125 37.065624 79.27812Q37.565624 78.575 37.565624 76.46562Q37.565624 74.34062 37.065624 73.65312Q36.58125 72.95 35.83125 72.95Q35.1125 72.95 34.675 73.55937Q34.128124 74.34062 34.128124 76.46562Z" fill-rule="nonzero"/><path fill="#000000" d="M30.01875 29.55L28.971874 29.55L28.971874 22.83125Q28.58125 23.190624 27.95625 23.565624Q27.346874 23.925 26.8625 24.096874L26.8625 23.08125Q27.7375 22.659374 28.39375 22.08125Q29.065624 21.4875 29.346874 20.925L30.01875 20.925L30.01875 29.55ZM38.596874 28.534374L38.596874 29.55L32.909374 29.55Q32.909374 29.175 33.034374 28.815624Q33.253124 28.2375 33.721874 27.675Q34.20625 27.1125 35.1125 26.378124Q36.51875 25.221874 37.003124 24.55Q37.503124 23.878124 37.503124 23.284374Q37.503124 22.659374 37.05 22.2375Q36.596874 21.8 35.878124 21.8Q35.1125 21.8 34.659374 22.253124Q34.20625 22.70625 34.190624 23.51875L33.1125 23.409374Q33.221874 22.190624 33.940624 21.565624Q34.675 20.925 35.909374 20.925Q37.14375 20.925 37.8625 21.6125Q38.58125 22.3 38.58125 23.315624Q38.58125 23.83125 38.3625 24.33125Q38.159374 24.815624 37.659374 25.378124Q37.175 25.925 36.05 26.878124Q35.096874 27.675 34.815624 27.971874Q34.55 28.253124 34.378124 28.534374L38.596874 28.534374Z" fill-rule="nonzero"/><path fill="#000000" d="M119.00882 348.4344L119.00882 349.45L113.32132 349.45Q113.32132 349.075 113.44632 348.71564Q113.66507 348.1375 114.13382 347.575Q114.618195 347.0125 115.524445 346.27814Q116.930695 345.1219 117.41507 344.45Q117.91507 343.77814 117.91507 343.1844Q117.91507 342.5594 117.461945 342.1375Q117.00882 341.7 116.29007 341.7Q115.524445 341.7 115.07132 342.15314Q114.618195 342.60626 114.60257 343.41876L113.524445 343.3094Q113.63382 342.09064 114.35257 341.46564Q115.086945 340.825 116.32132 340.825Q117.555695 340.825 118.274445 341.5125Q118.993195 342.2 118.993195 343.21564Q118.993195 343.73126 118.774445 344.23126Q118.57132 344.71564 118.07132 345.27814Q117.586945 345.825 116.461945 346.77814Q115.50882 347.575 115.22757 347.8719Q114.961945 348.15314 114.79007 348.4344L119.00882 348.4344ZM120.461945 345.21564Q120.461945 343.6844 120.774445 342.7625Q121.086945 341.825 121.69632 341.325Q122.32132 340.825 123.25882 340.825Q123.94632 340.825 124.461945 341.10626Q124.993195 341.3875 125.336945 341.91876Q125.680695 342.4344 125.868195 343.1844Q126.055695 343.9344 126.055695 345.21564Q126.055695 346.73126 125.743195 347.65314Q125.44632 348.575 124.82132 349.09064Q124.211945 349.59064 123.25882 349.59064Q122.024445 349.59064 121.305695 348.7Q120.461945 347.6375 120.461945 345.21564ZM121.54007 345.21564Q121.54007 347.325 122.04007 348.02814Q122.54007 348.73126 123.25882 348.73126Q123.993195 348.73126 124.47757 348.02814Q124.97757 347.325 124.97757 345.21564Q124.97757 343.09064 124.47757 342.40314Q123.993195 341.7 123.243195 341.7Q122.524445 341.7 122.086945 342.3094Q121.54007 343.09064 121.54007 345.21564Z" fill-rule="nonzero"/><path fill="#000000" d="M227.30786 347.1844L228.37036 347.04376Q228.54224 347.9344 228.97974 348.34064Q229.41724 348.73126 230.04224 348.73126Q230.79224 348.73126 231.30786 348.21564Q231.82349 347.7 231.82349 346.9344Q231.82349 346.21564 231.33911 345.7469Q230.87036 345.2625 230.13599 345.2625Q229.83911 345.2625 229.38599 345.3875L229.51099 344.45Q229.62036 344.46564 229.68286 344.46564Q230.35474 344.46564 230.88599 344.1219Q231.43286 343.7625 231.43286 343.02814Q231.43286 342.45 231.04224 342.075Q230.65161 341.6844 230.02661 341.6844Q229.41724 341.6844 228.99536 342.075Q228.58911 342.46564 228.47974 343.23126L227.41724 343.04376Q227.60474 341.9969 228.29224 341.41876Q228.97974 340.825 229.99536 340.825Q230.69849 340.825 231.29224 341.1375Q231.88599 341.4344 232.19849 341.95Q232.51099 342.46564 232.51099 343.0594Q232.51099 343.60626 232.21411 344.075Q231.91724 344.52814 231.33911 344.79376Q232.08911 344.96564 232.51099 345.52814Q232.93286 346.075 232.93286 346.91876Q232.93286 348.04376 232.10474 348.825Q231.29224 349.60626 230.04224 349.60626Q228.91724 349.60626 228.16724 348.9344Q227.41724 348.2469 227.30786 347.1844ZM234.30786 345.21564Q234.30786 343.6844 234.62036 342.7625Q234.93286 341.825 235.54224 341.325Q236.16724 340.825 237.10474 340.825Q237.79224 340.825 238.30786 341.10626Q238.83911 341.3875 239.18286 341.91876Q239.52661 342.4344 239.71411 343.1844Q239.90161 343.9344 239.90161 345.21564Q239.90161 346.73126 239.58911 347.65314Q239.29224 348.575 238.66724 349.09064Q238.05786 349.59064 237.10474 349.59064Q235.87036 349.59064 235.15161 348.7Q234.30786 347.6375 234.30786 345.21564ZM235.38599 345.21564Q235.38599 347.325 235.88599 348.02814Q236.38599 348.73126 237.10474 348.73126Q237.83911 348.73126 238.32349 348.02814Q238.82349 347.325 238.82349 345.21564Q238.82349 343.09064 238.32349 342.40314Q237.83911 341.7 237.08911 341.7Q236.37036 341.7 235.93286 342.3094Q235.38599 343.09064 235.38599 345.21564Z" fill-rule="nonzero"/><path fill="#000000" d="M344.52878 349.45L344.52878 347.3875L340.81003 347.3875L340.81003 346.41876L344.7319 340.85626L345.59128 340.85626L345.59128 346.41876L346.74753 346.41876L346.74753 347.3875L345.59128 347.3875L345.59128 349.45L344.52878 349.45ZM344.52878 346.41876L344.52878 342.5594L341.84128 346.41876L344.52878 346.41876ZM348.15378 345.21564Q348.15378 343.6844 348.46628 342.7625Q348.77878 341.825 349.38815 341.325Q350.01315 340.825 350.95065 340.825Q351.63815 340.825 352.15378 341.10626Q352.68503 341.3875 353.02878 341.91876Q353.37253 342.4344 353.56003 343.1844Q353.74753 343.9344 353.74753 345.21564Q353.74753 346.73126 353.43503 347.65314Q353.13815 348.575 352.51315 349.09064Q351.90378 349.59064 350.95065 349.59064Q349.71628 349.59064 348.99753 348.7Q348.15378 347.6375 348.15378 345.21564ZM349.2319 345.21564Q349.2319 347.325 349.7319 348.02814Q350.2319 348.73126 350.95065 348.73126Q351.68503 348.73126 352.1694 348.02814Q352.6694 347.325 352.6694 345.21564Q352.6694 343.09064 352.1694 342.40314Q351.68503 341.7 350.93503 341.7Q350.21628 341.7 349.77878 342.3094Q349.2319 343.09064 349.2319 345.21564Z" fill-rule="nonzero"/><path fill="#000000" d="M454.9997 347.2L456.10907 347.10626Q456.23407 347.91876 456.67157 348.325Q457.1247 348.73126 457.76532 348.73126Q458.51532 348.73126 459.04657 348.15314Q459.57782 347.575 459.57782 346.6375Q459.57782 345.73126 459.0622 345.21564Q458.5622 344.6844 457.73407 344.6844Q457.23407 344.6844 456.8122 344.91876Q456.40594 345.15314 456.17157 345.5125L455.1872 345.3875L456.01532 340.98126L460.29657 340.98126L460.29657 341.98126L456.85907 341.98126L456.40594 344.29376Q457.17157 343.7469 458.01532 343.7469Q459.14032 343.7469 459.90594 344.52814Q460.6872 345.3094 460.6872 346.54376Q460.6872 347.7 460.01532 348.5594Q459.1872 349.59064 457.76532 349.59064Q456.59344 349.59064 455.84344 348.9344Q455.10907 348.27814 454.9997 347.2ZM461.9997 345.21564Q461.9997 343.6844 462.3122 342.7625Q462.6247 341.825 463.23407 341.325Q463.85907 340.825 464.79657 340.825Q465.48407 340.825 465.9997 341.10626Q466.53094 341.3875 466.8747 341.91876Q467.21844 342.4344 467.40594 343.1844Q467.59344 343.9344 467.59344 345.21564Q467.59344 346.73126 467.28094 347.65314Q466.98407 348.575 466.35907 349.09064Q465.7497 349.59064 464.79657 349.59064Q463.5622 349.59064 462.84344 348.7Q461.9997 347.6375 461.9997 345.21564ZM463.07782 345.21564Q463.07782 347.325 463.57782 348.02814Q464.07782 348.73126 464.79657 348.73126Q465.53094 348.73126 466.01532 348.02814Q466.51532 347.325 466.51532 345.21564Q466.51532 343.09064 466.01532 342.40314Q465.53094 341.7 464.78094 341.7Q464.0622 341.7 463.6247 342.3094Q463.07782 343.09064 463.07782 345.21564Z" fill-rule="nonzero"/><path fill="#000000" d="M574.31433 342.96564L573.26746 343.04376Q573.12683 342.41876 572.87683 342.1375Q572.43933 341.6844 571.81433 341.6844Q571.31433 341.6844 570.9237 341.96564Q570.43933 342.34064 570.14246 343.04376Q569.8612 343.73126 569.8456 345.0125Q570.2206 344.4344 570.76746 344.15314Q571.32996 343.8719 571.93933 343.8719Q572.9862 343.8719 573.7206 344.65314Q574.4706 345.4344 574.4706 346.65314Q574.4706 347.46564 574.1112 348.16876Q573.76746 348.85626 573.1581 349.23126Q572.5487 349.59064 571.7831 349.59064Q570.45496 349.59064 569.62683 348.6219Q568.7987 347.65314 568.7987 345.4344Q568.7987 342.9344 569.7206 341.8094Q570.51746 340.825 571.87683 340.825Q572.89246 340.825 573.5331 341.40314Q574.18933 341.96564 574.31433 342.96564ZM570.01746 346.66876Q570.01746 347.21564 570.2362 347.71564Q570.4706 348.2 570.87683 348.46564Q571.2987 348.73126 571.76746 348.73126Q572.4237 348.73126 572.9081 348.2Q573.39246 347.65314 573.39246 346.73126Q573.39246 345.84064 572.9081 345.325Q572.43933 344.8094 571.7206 344.8094Q571.00183 344.8094 570.50183 345.325Q570.01746 345.84064 570.01746 346.66876ZM575.8456 345.21564Q575.8456 343.6844 576.1581 342.7625Q576.4706 341.825 577.07996 341.325Q577.70496 340.825 578.64246 340.825Q579.32996 340.825 579.8456 341.10626Q580.37683 341.3875 580.7206 341.91876Q581.06433 342.4344 581.25183 343.1844Q581.43933 343.9344 581.43933 345.21564Q581.43933 346.73126 581.12683 347.65314Q580.82996 348.575 580.20496 349.09064Q579.5956 349.59064 578.64246 349.59064Q577.4081 349.59064 576.68933 348.7Q575.8456 347.6375 575.8456 345.21564ZM576.9237 345.21564Q576.9237 347.325 577.4237 348.02814Q577.9237 348.73126 578.64246 348.73126Q579.37683 348.73126 579.8612 348.02814Q580.3612 347.325 580.3612 345.21564Q580.3612 343.09064 579.8612 342.40314Q579.37683 341.7 578.62683 341.7Q577.9081 341.7 577.4706 342.3094Q576.9237 343.09064 576.9237 345.21564Z" fill-rule="nonzero"/></svg>