<svg version="1.1" viewBox="0.0 0.0 600.0 371.0" fill="none" stroke="none" stroke-linecap="square" stroke-miterlimit="10" width="600" height="371" xmlns:xlink="http://www.w3.org/1999/xlink" xmlns="http://www.w3.org/2000/svg"><path fill="#ffffff" d="M0 0L600.0 0L600.0 371.0L0 371.0L0 0Z" fill-rule="nonzero"/><path stroke="#cccccc" stroke-width="1.0" stroke-linecap="butt" d="M121.5 25.5L121.5 332.5" fill-rule="nonzero"/><path stroke="#cccccc" stroke-width="1.0" stroke-linecap="butt" d="M234.5 25.5L234.5 332.5" fill-rule="nonzero"/><path stroke="#cccccc" stroke-width="1.0" stroke-linecap="butt" d="M347.5 25.5L347.5 332.5" fill-rule="nonzero"/><path stroke="#cccccc" stroke-width="1.0" stroke-linecap="butt" d="M460.5 25.5L460.5 332.5" fill-rule="nonzero"/><path stroke="#cccccc" stroke-width="1.0" stroke-linecap="butt" d="M573.5 25.5L573.5 332.5" fill-rule="nonzero"/><path stroke="#333333" stroke-width="1.0" stroke-linecap="butt" d="M45.5 332.5L581.5 332.5" fill-rule="nonzero"/><path stroke="#cccccc" stroke-width="1.0" stroke-linecap="butt" d="M45.5 281.5L581.5 281.5" fill-rule="nonzero"/><path stroke="#cccccc" stroke-width="1.0" stroke-linecap="butt" d="M45.5 230.5L581.5 230.5" fill-rule="nonzero"/><path stroke="#cccccc" stroke-width="1.0" stroke-linecap="butt" d="M45.5 179.5L581.5 179.5" fill-rule="nonzero"/><path stroke="#cccccc" stroke-width="1.0" stroke-linecap="butt" d="M45.5 127.5L581.5 127.5" fill-rule="nonzero"/><path stroke="#cccccc" stroke-width="1.0" stroke-linecap="butt" d="M45.5 76.5L581.5 76.5" fill-rule="nonzero"/><path stroke="#cccccc" stroke-width="1.0" stroke-linecap="butt" d="M45.5 25.5L581.5 25.5" fill-rule="nonzero"/><clipPath id="id_0"><path d="M45.55 25.55L581.45 25.55L581.45 332.45L45.55 332.45L45.55 25.55Z" clip-rule="nonzero"/></clipPath><path fill="#4285f4" fill-opacity="0.8" clip-path="url(#id_0)" d="M241.71674 102.275C241.71674 112.49227 233.434 120.775 223.21674 120.775C212.99947 120.775 204.71674 112.49227 204.71674 102.275C204.71674 92.05773 212.99947 83.775 223.21674 83.775C233.434 83.775 241.71674 92.05773 241.71674 102.275Z" fill-rule="nonzero"/><path fill="#ea4335" fill-opacity="0.8" clip-path="url(#id_0)" d="M332.0 127.85C332.0 138.06726 323.71725 146.35 313.5 146.35C303.28275 146.35 295.0 138.06726 295.0 127.85C295.0 117.63273 303.28275 109.35 313.5 109.35C323.71725 109.35 332.0 117.63273 332.0 127.85Z" fill-rule="nonzero"/><path fill="#34a853" fill-opacity="0.8" clip-path="url(#id_0)" d="M309.42917 76.7C309.42917 86.91727 301.14645 95.2 290.92917 95.2C280.7119 95.2 272.42917 86.91727 272.42917 76.7C272.42917 66.482735 280.7119 58.2 290.92917 58.2C301.14645 58.2 309.42917 66.482735 309.42917 76.7Z" fill-rule="nonzero"/><path fill="#4285f4" fill-opacity="0.8" clip-path="url(#id_0)" d="M337.17767 102.275C337.17767 115.351814 326.5768 125.95267 313.5 125.95267C300.4232 125.95267 289.82233 115.351814 289.82233 102.275C289.82233 89.19818 300.4232 78.59733 313.5 78.59733C326.5768 78.59733 337.17767 89.19818 337.17767 102.275Z" fill-rule="nonzero"/><path fill="#ff6d01" fill-opacity="0.8" clip-path="url(#id_0)" d="M325.89227 153.425C325.89227 166.50182 315.2914 177.10268 302.2146 177.10268C289.1378 177.10268 278.53693 166.50182 278.53693 153.425C278.53693 140.34819 289.1378 129.74733 302.2146 129.74733C315.2914 129.74733 325.89227 140.34819 325.89227 153.425Z" fill-rule="nonzero"/><path fill="#46bdc6" fill-opacity="0.8" clip-path="url(#id_0)" d="M332.0 230.15C332.0 240.36726 323.71725 248.65 313.5 248.65C303.28275 248.65 295.0 240.36726 295.0 230.15C295.0 219.93274 303.28275 211.65 313.5 211.65C323.71725 211.65 332.0 219.93274 332.0 230.15Z" fill-rule="nonzero"/><path fill="#7baaf7" fill-opacity="0.8" clip-path="url(#id_0)" d="M224.3236 204.575C224.3236 217.65181 213.72273 228.25267 200.64592 228.25267C187.5691 228.25267 176.96825 217.65181 176.96825 204.575C176.96825 191.49818 187.5691 180.89732 200.64592 180.89732C213.72273 180.89732 224.3236 191.49818 224.3236 204.575Z" fill-rule="nonzero"/><path fill="#4285f4" fill-opacity="0.8" clip-path="url(#id_0)" d="M269.4652 102.275C269.4652 115.351814 258.86438 125.95267 245.78755 125.95267C232.71074 125.95267 222.10988 115.351814 222.10988 102.275C222.10988 89.19818 232.71074 78.59733 245.78755 78.59733C258.86438 78.59733 269.4652 89.19818 269.4652 102.275Z" fill-rule="nonzero"/><path fill="#ea4335" fill-opacity="0.8" clip-path="url(#id_0)" d="M388.42703 127.85C388.42703 138.06726 380.14432 146.35 369.92703 146.35C359.70978 146.35 351.42703 138.06726 351.42703 127.85C351.42703 117.63273 359.70978 109.35 369.92703 109.35C380.14432 109.35 388.42703 117.63273 388.42703 127.85Z" fill-rule="nonzero"/><path fill="#ea4335" fill-opacity="0.8" clip-path="url(#id_0)" d="M241.71674 127.85C241.71674 138.06726 233.434 146.35 223.21674 146.35C212.99947 146.35 204.71674 138.06726 204.71674 127.85C204.71674 117.63273 212.99947 109.35 223.21674 109.35C233.434 109.35 241.71674 117.63273 241.71674 127.85Z" fill-rule="nonzero"/><path fill="#f07b72" fill-opacity="0.8" clip-path="url(#id_0)" d="M253.00214 281.3C253.00214 291.51727 244.7194 299.8 234.50214 299.8C224.28488 299.8 216.00214 291.51727 216.00214 281.3C216.00214 271.08273 224.28488 262.8 234.50214 262.8C244.7194 262.8 253.00214 271.08273 253.00214 281.3Z" fill-rule="nonzero"/><path fill="#fcd04f" fill-opacity="0.8" clip-path="url(#id_0)" d="M250.86737 179.0C250.86737 194.27103 238.48776 206.65063 223.21674 206.65063C207.94571 206.65063 195.5661 194.27103 195.5661 179.0C195.5661 163.72897 207.94571 151.34937 223.21674 151.34937C238.48776 151.34937 250.86737 163.72897 250.86737 179.0Z" fill-rule="nonzero"/><path fill="#ea4335" fill-opacity="0.8" clip-path="url(#id_0)" d="M128.86266 127.85C128.86266 138.06726 120.57992 146.35 110.362656 146.35C100.145386 146.35 91.862656 138.06726 91.862656 127.85C91.862656 117.63273 100.145386 109.35 110.362656 109.35C120.57992 109.35 128.86266 117.63273 128.86266 127.85Z" fill-rule="nonzero"/><path fill="#fcd04f" fill-opacity="0.8" clip-path="url(#id_0)" d="M162.71887 179.0C162.71887 189.21727 154.43614 197.5 144.21887 197.5C134.0016 197.5 125.71888 189.21727 125.71888 179.0C125.71888 168.78273 134.0016 160.5 144.21887 160.5C154.43614 160.5 162.71887 168.78273 162.71887 179.0Z" fill-rule="nonzero"/><path fill="#ea4335" fill-opacity="0.8" clip-path="url(#id_0)" d="M219.14592 127.85C219.14592 138.06726 210.86319 146.35 200.64592 146.35C190.42865 146.35 182.14592 138.06726 182.14592 127.85C182.14592 117.63273 190.42865 109.35 200.64592 109.35C210.86319 109.35 219.14592 117.63273 219.14592 127.85Z" fill-rule="nonzero"/><path fill="#4285f4" fill-opacity="0.8" clip-path="url(#id_0)" d="M179.18196 102.275C179.18196 115.351814 168.5811 125.95267 155.50429 125.95267C142.42747 125.95267 131.82661 115.351814 131.82661 102.275C131.82661 89.19818 142.42747 78.59733 155.50429 78.59733C168.5811 78.59733 179.18196 89.19818 179.18196 102.275Z" fill-rule="nonzero"/><path fill="#ff6d01" fill-opacity="0.8" clip-path="url(#id_0)" d="M160.5841 153.425C160.5841 168.69603 148.2045 181.07564 132.93347 181.07564C117.662445 181.07564 105.28284 168.69603 105.28284 153.425C105.28284 138.15398 117.662445 125.77437 132.93347 125.77437C148.2045 125.77437 160.5841 138.15398 160.5841 153.425Z" fill-rule="nonzero"/><path fill="#ff6d01" fill-opacity="0.8" clip-path="url(#id_0)" d="M205.72574 153.425C205.72574 168.69603 193.34613 181.07564 178.0751 181.07564C162.80408 181.07564 150.42447 168.69603 150.42447 153.425C150.42447 138.15398 162.80408 125.77437 178.0751 125.77437C193.34613 125.77437 205.72574 138.15398 205.72574 153.425Z" fill-rule="nonzero"/><path fill="#ff6d01" fill-opacity="0.8" clip-path="url(#id_0)" d="M160.5841 153.425C160.5841 168.69603 148.2045 181.07564 132.93347 181.07564C117.662445 181.07564 105.28284 168.69603 105.28284 153.425C105.28284 138.15398 117.662445 125.77437 132.93347 125.77437C148.2045 125.77437 160.5841 138.15398 160.5841 153.425Z" fill-rule="nonzero"/><path fill="#fcd04f" fill-opacity="0.8" clip-path="url(#id_0)" d="M354.57083 179.0C354.57083 189.21727 346.2881 197.5 336.07083 197.5C325.85355 197.5 317.57083 189.21727 317.57083 179.0C317.57083 168.78273 325.85355 160.5 336.07083 160.5C346.2881 160.5 354.57083 168.78273 354.57083 179.0Z" fill-rule="nonzero"/><path fill="#7baaf7" fill-opacity="0.8" clip-path="url(#id_0)" d="M258.1798 204.575C258.1798 217.65181 247.57896 228.25267 234.50214 228.25267C221.42532 228.25267 210.82448 217.65181 210.82448 204.575C210.82448 191.49818 221.42532 180.89732 234.50214 180.89732C247.57896 180.89732 258.1798 191.49818 258.1798 204.575Z" fill-rule="nonzero"/><path fill="#ea4335" fill-opacity="0.8" clip-path="url(#id_0)" d="M343.2854 127.85C343.2854 138.06726 335.0027 146.35 324.7854 146.35C314.56815 146.35 306.2854 138.06726 306.2854 127.85C306.2854 117.63273 314.56815 109.35 324.7854 109.35C335.0027 109.35 343.2854 117.63273 343.2854 127.85Z" fill-rule="nonzero"/><path fill="#ea4335" fill-opacity="0.8" clip-path="url(#id_0)" d="M303.32144 127.85C303.32144 140.92682 292.72058 151.52766 279.64377 151.52766C266.56696 151.52766 255.96611 140.92682 255.96611 127.85C255.96611 114.773186 266.56696 104.17233 279.64377 104.17233C292.72058 104.17233 303.32144 114.773186 303.32144 127.85Z" fill-rule="nonzero"/><path fill="#ff6d01" fill-opacity="0.8" clip-path="url(#id_0)" d="M388.42703 153.425C388.42703 163.64227 380.14432 171.925 369.92703 171.925C359.70978 171.925 351.42703 163.64227 351.42703 153.425C351.42703 143.20773 359.70978 134.925 369.92703 134.925C380.14432 134.925 388.42703 143.20773 388.42703 153.425Z" fill-rule="nonzero"/><path fill="#ff6d01" fill-opacity="0.8" clip-path="url(#id_0)" d="M325.89227 153.425C325.89227 166.50182 315.2914 177.10268 302.2146 177.10268C289.1378 177.10268 278.53693 166.50182 278.53693 153.425C278.53693 140.34819 289.1378 129.74733 302.2146 129.74733C315.2914 129.74733 325.89227 140.34819 325.89227 153.425Z" fill-rule="nonzero"/><path fill="#71c287" fill-opacity="0.8" clip-path="url(#id_0)" d="M332.0 255.725C332.0 265.94226 323.71725 274.225 313.5 274.225C303.28275 274.225 295.0 265.94226 295.0 255.725C295.0 245.50774 303.28275 237.225 313.5 237.225C323.71725 237.225 332.0 245.50774 332.0 255.725Z" fill-rule="nonzero"/><path fill="#ff6d01" fill-opacity="0.8" clip-path="url(#id_0)" d="M185.28969 153.425C185.28969 163.64227 177.00696 171.925 166.78969 171.925C156.57243 171.925 148.28969 163.64227 148.28969 153.425C148.28969 143.20773 156.57243 134.925 166.78969 134.925C177.00696 134.925 185.28969 143.20773 185.28969 153.425Z" fill-rule="nonzero"/><path fill="#ea4335" fill-opacity="0.8" clip-path="url(#id_0)" d="M269.4652 127.85C269.4652 140.92682 258.86438 151.52766 245.78755 151.52766C232.71074 151.52766 222.10988 140.92682 222.10988 127.85C222.10988 114.773186 232.71074 104.17233 245.78755 104.17233C258.86438 104.17233 269.4652 114.773186 269.4652 127.85Z" fill-rule="nonzero"/><path fill="#4285f4" fill-opacity="0.8" clip-path="url(#id_0)" d="M298.14377 102.275C298.14377 112.49227 289.86105 120.775 279.64377 120.775C269.4265 120.775 261.14377 112.49227 261.14377 102.275C261.14377 92.05773 269.4265 83.775 279.64377 83.775C289.86105 83.775 298.14377 92.05773 298.14377 102.275Z" fill-rule="nonzero"/><path fill="#7baaf7" fill-opacity="0.8" clip-path="url(#id_0)" d="M286.85837 204.575C286.85837 214.79227 278.57562 223.075 268.35837 223.075C258.1411 223.075 249.85837 214.79227 249.85837 204.575C249.85837 194.35773 258.1411 186.075 268.35837 186.075C278.57562 186.075 286.85837 194.35773 286.85837 204.575Z" fill-rule="nonzero"/><path fill="#7baaf7" fill-opacity="0.8" clip-path="url(#id_0)" d="M258.1798 204.575C258.1798 217.65181 247.57896 228.25267 234.50214 228.25267C221.42532 228.25267 210.82448 217.65181 210.82448 204.575C210.82448 191.49818 221.42532 180.89732 234.50214 180.89732C247.57896 180.89732 258.1798 191.49818 258.1798 204.575Z" fill-rule="nonzero"/><path fill="#46bdc6" fill-opacity="0.8" clip-path="url(#id_0)" d="M207.8605 230.15C207.8605 240.36726 199.57777 248.65 189.3605 248.65C179.14325 248.65 170.8605 240.36726 170.8605 230.15C170.8605 219.93274 179.14325 211.65 189.3605 211.65C199.57777 211.65 207.8605 219.93274 207.8605 230.15Z" fill-rule="nonzero"/><path fill="#4285f4" fill-opacity="0.8" clip-path="url(#id_0)" d="M343.2854 102.275C343.2854 112.49227 335.0027 120.775 324.7854 120.775C314.56815 120.775 306.2854 112.49227 306.2854 102.275C306.2854 92.05773 314.56815 83.775 324.7854 83.775C335.0027 83.775 343.2854 92.05773 343.2854 102.275Z" fill-rule="nonzero"/><path fill="#7baaf7" fill-opacity="0.8" clip-path="url(#id_0)" d="M207.8605 204.575C207.8605 214.79227 199.57777 223.075 189.3605 223.075C179.14325 223.075 170.8605 214.79227 170.8605 204.575C170.8605 194.35773 179.14325 186.075 189.3605 186.075C199.57777 186.075 207.8605 194.35773 207.8605 204.575Z" fill-rule="nonzero"/><path fill="#fcd04f" fill-opacity="0.8" clip-path="url(#id_0)" d="M298.14377 179.0C298.14377 189.21727 289.86105 197.5 279.64377 197.5C269.4265 197.5 261.14377 189.21727 261.14377 179.0C261.14377 168.78273 269.4265 160.5 279.64377 160.5C289.86105 160.5 298.14377 168.78273 298.14377 179.0Z" fill-rule="nonzero"/><path fill="#ff6d01" fill-opacity="0.8" clip-path="url(#id_0)" d="M239.58195 153.425C239.58195 168.69603 227.20235 181.07564 211.93132 181.07564C196.66031 181.07564 184.28069 168.69603 184.28069 153.425C184.28069 138.15398 196.66031 125.77437 211.93132 125.77437C227.20235 125.77437 239.58195 138.15398 239.58195 153.425Z" fill-rule="nonzero"/><path fill="#fcd04f" fill-opacity="0.8" clip-path="url(#id_0)" d="M219.14592 179.0C219.14592 189.21727 210.86319 197.5 200.64592 197.5C190.42865 197.5 182.14592 189.21727 182.14592 179.0C182.14592 168.78273 190.42865 160.5 200.64592 160.5C210.86319 160.5 219.14592 168.78273 219.14592 179.0Z" fill-rule="nonzero"/><path fill="#ff6d01" fill-opacity="0.8" clip-path="url(#id_0)" d="M117.57725 153.425C117.57725 163.64227 109.29451 171.925 99.07725 171.925C88.85998 171.925 80.57725 163.64227 80.57725 153.425C80.57725 143.20773 88.85998 134.925 99.07725 134.925C109.29451 134.925 117.57725 143.20773 117.57725 153.425Z" fill-rule="nonzero"/><path fill="#fcd04f" fill-opacity="0.8" clip-path="url(#id_0)" d="M185.28969 179.0C185.28969 189.21727 177.00696 197.5 166.78969 197.5C156.57243 197.5 148.28969 189.21727 148.28969 179.0C148.28969 168.78273 156.57243 160.5 166.78969 160.5C177.00696 160.5 185.28969 168.78273 185.28969 179.0Z" fill-rule="nonzero"/><path fill="#ea4335" fill-opacity="0.8" clip-path="url(#id_0)" d="M275.57297 127.85C275.57297 138.06726 267.29022 146.35 257.07297 146.35C246.8557 146.35 238.57295 138.06726 238.57295 127.85C238.57295 117.63273 246.8557 109.35 257.07297 109.35C267.29022 109.35 275.57297 117.63273 275.57297 127.85Z" fill-rule="nonzero"/><path fill="#ea4335" fill-opacity="0.8" clip-path="url(#id_0)" d="M320.7146 127.85C320.7146 138.06726 312.43185 146.35 302.2146 146.35C291.9973 146.35 283.7146 138.06726 283.7146 127.85C283.7146 117.63273 291.9973 109.35 302.2146 109.35C312.43185 109.35 320.7146 117.63273 320.7146 127.85Z" fill-rule="nonzero"/><path fill="#ff6d01" fill-opacity="0.8" clip-path="url(#id_0)" d="M314.60684 153.425C314.60684 166.50182 304.006 177.10268 290.92917 177.10268C277.85236 177.10268 267.25153 166.50182 267.25153 153.425C267.25153 140.34819 277.85236 129.74733 290.92917 129.74733C304.006 129.74733 314.60684 140.34819 314.60684 153.425Z" fill-rule="nonzero"/><path fill="#ff6d01" fill-opacity="0.8" clip-path="url(#id_0)" d="M314.60684 153.425C314.60684 166.50182 304.006 177.10268 290.92917 177.10268C277.85236 177.10268 267.25153 166.50182 267.25153 153.425C267.25153 140.34819 277.85236 129.74733 290.92917 129.74733C304.006 129.74733 314.60684 140.34819 314.60684 153.425Z" fill-rule="nonzero"/><path fill="#fcd04f" fill-opacity="0.8" clip-path="url(#id_0)" d="M309.42917 179.0C309.42917 189.21727 301.14645 197.5 290.92917 197.5C280.7119 197.5 272.42917 189.21727 272.42917 179.0C272.42917 168.78273 280.7119 160.5 290.92917 160.5C301.14645 160.5 309.42917 168.78273 309.42917 179.0Z" fill-rule="nonzero"/><path fill="#ff6d01" fill-opacity="0.8" clip-path="url(#id_0)" d="M207.8605 153.425C207.8605 163.64227 199.57777 171.925 189.3605 171.925C179.14325 171.925 170.8605 163.64227 170.8605 153.425C170.8605 143.20773 179.14325 134.925 189.3605 134.925C199.57777 134.925 207.8605 143.20773 207.8605 153.425Z" fill-rule="nonzero"/><path fill="#ff6d01" fill-opacity="0.8" clip-path="url(#id_0)" d="M228.29655 153.425C228.29655 168.69603 215.91695 181.07564 200.64592 181.07564C185.3749 181.07564 172.99529 168.69603 172.99529 153.425C172.99529 138.15398 185.3749 125.77437 200.64592 125.77437C215.91695 125.77437 228.29655 138.15398 228.29655 153.425Z" fill-rule="nonzero"/><path fill="#ea4335" fill-opacity="0.8" clip-path="url(#id_0)" d="M467.4249 127.85C467.4249 138.06726 459.14215 146.35 448.9249 146.35C438.70764 146.35 430.4249 138.06726 430.4249 127.85C430.4249 117.63273 438.70764 109.35 448.9249 109.35C459.14215 109.35 467.4249 117.63273 467.4249 127.85Z" fill-rule="nonzero"/><path fill="#ea4335" fill-opacity="0.8" clip-path="url(#id_0)" d="M422.28326 127.85C422.28326 138.06726 414.00052 146.35 403.78326 146.35C393.566 146.35 385.28326 138.06726 385.28326 127.85C385.28326 117.63273 393.566 109.35 403.78326 109.35C414.00052 109.35 422.28326 117.63273 422.28326 127.85Z" fill-rule="nonzero"/><path fill="#ff6d01" fill-opacity="0.8" clip-path="url(#id_0)" d="M264.28754 153.425C264.28754 163.64227 256.00482 171.925 245.78755 171.925C235.57028 171.925 227.28755 163.64227 227.28755 153.425C227.28755 143.20773 235.57028 134.925 245.78755 134.925C256.00482 134.925 264.28754 143.20773 264.28754 153.425Z" fill-rule="nonzero"/><path fill="#ff6d01" fill-opacity="0.8" clip-path="url(#id_0)" d="M186.50429 153.425C186.50429 170.54582 172.6251 184.425 155.50429 184.425C138.38345 184.425 124.50429 170.54582 124.50429 153.425C124.50429 136.30417 138.38345 122.425 155.50429 122.425C172.6251 122.425 186.50429 136.30417 186.50429 153.425Z" fill-rule="nonzero"/><path fill="#ff6d01" fill-opacity="0.8" clip-path="url(#id_0)" d="M433.56866 153.425C433.56866 163.64227 425.28595 171.925 415.06866 171.925C404.8514 171.925 396.56866 163.64227 396.56866 153.425C396.56866 143.20773 404.8514 134.925 415.06866 134.925C425.28595 134.925 433.56866 143.20773 433.56866 153.425Z" fill-rule="nonzero"/><path fill="#ff6d01" fill-opacity="0.8" clip-path="url(#id_0)" d="M186.50429 153.425C186.50429 170.54582 172.6251 184.425 155.50429 184.425C138.38345 184.425 124.50429 170.54582 124.50429 153.425C124.50429 136.30417 138.38345 122.425 155.50429 122.425C172.6251 122.425 186.50429 136.30417 186.50429 153.425Z" fill-rule="nonzero"/><path fill="#ff6d01" fill-opacity="0.8" clip-path="url(#id_0)" d="M332.0 153.425C332.0 163.64227 323.71725 171.925 313.5 171.925C303.28275 171.925 295.0 163.64227 295.0 153.425C295.0 143.20773 303.28275 134.925 313.5 134.925C323.71725 134.925 332.0 143.20773 332.0 153.425Z" fill-rule="nonzero"/><path fill="#4285f4" fill-opacity="0.8" clip-path="url(#id_0)" d="M456.1395 102.275C456.1395 112.49227 447.85675 120.775 437.6395 120.775C427.4222 120.775 419.1395 112.49227 419.1395 102.275C419.1395 92.05773 427.4222 83.775 437.6395 83.775C447.85675 83.775 456.1395 92.05773 456.1395 102.275Z" fill-rule="nonzero"/><path fill="#ea4335" fill-opacity="0.8" clip-path="url(#id_0)" d="M314.60684 127.85C314.60684 140.92682 304.006 151.52766 290.92917 151.52766C277.85236 151.52766 267.25153 140.92682 267.25153 127.85C267.25153 114.773186 277.85236 104.17233 290.92917 104.17233C304.006 104.17233 314.60684 114.773186 314.60684 127.85Z" fill-rule="nonzero"/><path fill="#fcd04f" fill-opacity="0.8" clip-path="url(#id_0)" d="M174.00429 179.0C174.00429 189.21727 165.72156 197.5 155.50429 197.5C145.28702 197.5 137.00429 189.21727 137.00429 179.0C137.00429 168.78273 145.28702 160.5 155.50429 160.5C165.72156 160.5 174.00429 168.78273 174.00429 179.0Z" fill-rule="nonzero"/><path fill="#ea4335" fill-opacity="0.8" clip-path="url(#id_0)" d="M568.9936 127.85C568.9936 138.06726 560.7108 146.35 550.4936 146.35C540.2763 146.35 531.9936 138.06726 531.9936 127.85C531.9936 117.63273 540.2763 109.35 550.4936 109.35C560.7108 109.35 568.9936 117.63273 568.9936 127.85Z" fill-rule="nonzero"/><path fill="#ff6d01" fill-opacity="0.8" clip-path="url(#id_0)" d="M186.50429 153.425C186.50429 170.54582 172.6251 184.425 155.50429 184.425C138.38345 184.425 124.50429 170.54582 124.50429 153.425C124.50429 136.30417 138.38345 122.425 155.50429 122.425C172.6251 122.425 186.50429 136.30417 186.50429 153.425Z" fill-rule="nonzero"/><path fill="#4285f4" fill-opacity="0.8" clip-path="url(#id_0)" d="M269.4652 102.275C269.4652 115.351814 258.86438 125.95267 245.78755 125.95267C232.71074 125.95267 222.10988 115.351814 222.10988 102.275C222.10988 89.19818 232.71074 78.59733 245.78755 78.59733C258.86438 78.59733 269.4652 89.19818 269.4652 102.275Z" fill-rule="nonzero"/><path fill="#4285f4" fill-opacity="0.8" clip-path="url(#id_0)" d="M117.57725 102.275C117.57725 112.49227 109.29451 120.775 99.07725 120.775C88.85998 120.775 80.57725 112.49227 80.57725 102.275C80.57725 92.05773 88.85998 83.775 99.07725 83.775C109.29451 83.775 117.57725 92.05773 117.57725 102.275Z" fill-rule="nonzero"/><path fill="#fcd04f" fill-opacity="0.8" clip-path="url(#id_0)" d="M253.00214 179.0C253.00214 189.21727 244.7194 197.5 234.50214 197.5C224.28488 197.5 216.00214 189.21727 216.00214 179.0C216.00214 168.78273 224.28488 160.5 234.50214 160.5C244.7194 160.5 253.00214 168.78273 253.00214 179.0Z" fill-rule="nonzero"/><path fill="#4285f4" fill-opacity="0.8" clip-path="url(#id_0)" d="M320.7146 102.275C320.7146 112.49227 312.43185 120.775 302.2146 120.775C291.9973 120.775 283.7146 112.49227 283.7146 102.275C283.7146 92.05773 291.9973 83.775 302.2146 83.775C312.43185 83.775 320.7146 92.05773 320.7146 102.275Z" fill-rule="nonzero"/><path fill="#fcd04f" fill-opacity="0.8" clip-path="url(#id_0)" d="M250.86737 179.0C250.86737 194.27103 238.48776 206.65063 223.21674 206.65063C207.94571 206.65063 195.5661 194.27103 195.5661 179.0C195.5661 163.72897 207.94571 151.34937 223.21674 151.34937C238.48776 151.34937 250.86737 163.72897 250.86737 179.0Z" fill-rule="nonzero"/><path fill="#ff6d01" fill-opacity="0.8" clip-path="url(#id_0)" d="M253.00214 153.425C253.00214 163.64227 244.7194 171.925 234.50214 171.925C224.28488 171.925 216.00214 163.64227 216.00214 153.425C216.00214 143.20773 224.28488 134.925 234.50214 134.925C244.7194 134.925 253.00214 143.20773 253.00214 153.425Z" fill-rule="nonzero"/><path fill="#ff6d01" fill-opacity="0.8" clip-path="url(#id_0)" d="M160.5841 153.425C160.5841 168.69603 148.2045 181.07564 132.93347 181.07564C117.662445 181.07564 105.28284 168.69603 105.28284 153.425C105.28284 138.15398 117.662445 125.77437 132.93347 125.77437C148.2045 125.77437 160.5841 138.15398 160.5841 153.425Z" fill-rule="nonzero"/><path fill="#ff6d01" fill-opacity="0.8" clip-path="url(#id_0)" d="M228.29655 153.425C228.29655 168.69603 215.91695 181.07564 200.64592 181.07564C185.3749 181.07564 172.99529 168.69603 172.99529 153.425C172.99529 138.15398 185.3749 125.77437 200.64592 125.77437C215.91695 125.77437 228.29655 138.15398 228.29655 153.425Z" fill-rule="nonzero"/><path fill="#ff6d01" fill-opacity="0.8" clip-path="url(#id_0)" d="M186.50429 153.425C186.50429 170.54582 172.6251 184.425 155.50429 184.425C138.38345 184.425 124.50429 170.54582 124.50429 153.425C124.50429 136.30417 138.38345 122.425 155.50429 122.425C172.6251 122.425 186.50429 136.30417 186.50429 153.425Z" fill-rule="nonzero"/><path fill="#ea4335" fill-opacity="0.8" clip-path="url(#id_0)" d="M151.43347 127.85C151.43347 138.06726 143.15074 146.35 132.93347 146.35C122.7162 146.35 114.43347 138.06726 114.43347 127.85C114.43347 117.63273 122.7162 109.35 132.93347 109.35C143.15074 109.35 151.43347 117.63273 151.43347 127.85Z" fill-rule="nonzero"/><path fill="#4285f4" fill-opacity="0.8" clip-path="url(#id_0)" d="M128.86266 102.275C128.86266 112.49227 120.57992 120.775 110.362656 120.775C100.145386 120.775 91.862656 112.49227 91.862656 102.275C91.862656 92.05773 100.145386 83.775 110.362656 83.775C120.57992 83.775 128.86266 92.05773 128.86266 102.275Z" fill-rule="nonzero"/><path fill="#ff6d01" fill-opacity="0.8" clip-path="url(#id_0)" d="M275.57297 153.425C275.57297 163.64227 267.29022 171.925 257.07297 171.925C246.8557 171.925 238.57295 163.64227 238.57295 153.425C238.57295 143.20773 246.8557 134.925 257.07297 134.925C267.29022 134.925 275.57297 143.20773 275.57297 153.425Z" fill-rule="nonzero"/><path fill="#46bdc6" fill-opacity="0.8" clip-path="url(#id_0)" d="M174.00429 230.15C174.00429 240.36726 165.72156 248.65 155.50429 248.65C145.28702 248.65 137.00429 240.36726 137.00429 230.15C137.00429 219.93274 145.28702 211.65 155.50429 211.65C165.72156 211.65 174.00429 219.93274 174.00429 230.15Z" fill-rule="nonzero"/><path fill="#fcd04f" fill-opacity="0.8" clip-path="url(#id_0)" d="M250.86737 179.0C250.86737 194.27103 238.48776 206.65063 223.21674 206.65063C207.94571 206.65063 195.5661 194.27103 195.5661 179.0C195.5661 163.72897 207.94571 151.34937 223.21674 151.34937C238.48776 151.34937 250.86737 163.72897 250.86737 179.0Z" fill-rule="nonzero"/><path fill="#ea4335" fill-opacity="0.8" clip-path="url(#id_0)" d="M190.46736 127.85C190.46736 140.92682 179.86652 151.52766 166.78969 151.52766C153.71288 151.52766 143.11203 140.92682 143.11203 127.85C143.11203 114.773186 153.71288 104.17233 166.78969 104.17233C179.86652 104.17233 190.46736 114.773186 190.46736 127.85Z" fill-rule="nonzero"/><path fill="#7baaf7" fill-opacity="0.8" clip-path="url(#id_0)" d="M535.1373 204.575C535.1373 214.79227 526.8546 223.075 516.6373 223.075C506.42007 223.075 498.13736 214.79227 498.13736 204.575C498.13736 194.35773 506.42007 186.075 516.6373 186.075C526.8546 186.075 535.1373 194.35773 535.1373 204.575Z" fill-rule="nonzero"/><path fill="#ea4335" fill-opacity="0.8" clip-path="url(#id_0)" d="M546.4227 127.85C546.4227 138.06726 538.14 146.35 527.9227 146.35C517.7055 146.35 509.42276 138.06726 509.42276 127.85C509.42276 117.63273 517.7055 109.35 527.9227 109.35C538.14 109.35 546.4227 117.63273 546.4227 127.85Z" fill-rule="nonzero"/><path fill="#ff6d01" fill-opacity="0.8" clip-path="url(#id_0)" d="M239.58195 153.425C239.58195 168.69603 227.20235 181.07564 211.93132 181.07564C196.66031 181.07564 184.28069 168.69603 184.28069 153.425C184.28069 138.15398 196.66031 125.77437 211.93132 125.77437C227.20235 125.77437 239.58195 138.15398 239.58195 153.425Z" fill-rule="nonzero"/><path fill="#ea4335" fill-opacity="0.8" clip-path="url(#id_0)" d="M269.4652 127.85C269.4652 140.92682 258.86438 151.52766 245.78755 151.52766C232.71074 151.52766 222.10988 140.92682 222.10988 127.85C222.10988 114.773186 232.71074 104.17233 245.78755 104.17233C258.86438 104.17233 269.4652 114.773186 269.4652 127.85Z" fill-rule="nonzero"/><path fill="#ea4335" fill-opacity="0.8" clip-path="url(#id_0)" d="M190.46736 127.85C190.46736 140.92682 179.86652 151.52766 166.78969 151.52766C153.71288 151.52766 143.11203 140.92682 143.11203 127.85C143.11203 114.773186 153.71288 104.17233 166.78969 104.17233C179.86652 104.17233 190.46736 114.773186 190.46736 127.85Z" fill-rule="nonzero"/><path fill="#4285f4" fill-opacity="0.8" clip-path="url(#id_0)" d="M337.17767 102.275C337.17767 115.351814 326.5768 125.95267 313.5 125.95267C300.4232 125.95267 289.82233 115.351814 289.82233 102.275C289.82233 89.19818 300.4232 78.59733 313.5 78.59733C326.5768 78.59733 337.17767 89.19818 337.17767 102.275Z" fill-rule="nonzero"/><path fill="#4285f4" fill-opacity="0.8" clip-path="url(#id_0)" d="M140.14806 102.275C140.14806 112.49227 131.86533 120.775 121.64806 120.775C111.43079 120.775 103.14806 112.49227 103.14806 102.275C103.14806 92.05773 111.43079 83.775 121.64806 83.775C131.86533 83.775 140.14806 92.05773 140.14806 102.275Z" fill-rule="nonzero"/><path fill="#7baaf7" fill-opacity="0.8" clip-path="url(#id_0)" d="M224.3236 204.575C224.3236 217.65181 213.72273 228.25267 200.64592 228.25267C187.5691 228.25267 176.96825 217.65181 176.96825 204.575C176.96825 191.49818 187.5691 180.89732 200.64592 180.89732C213.72273 180.89732 224.3236 191.49818 224.3236 204.575Z" fill-rule="nonzero"/><path fill="#fcd04f" fill-opacity="0.8" clip-path="url(#id_0)" d="M377.14163 179.0C377.14163 189.21727 368.8589 197.5 358.64163 197.5C348.42438 197.5 340.14163 189.21727 340.14163 179.0C340.14163 168.78273 348.42438 160.5 358.64163 160.5C368.8589 160.5 377.14163 168.78273 377.14163 179.0Z" fill-rule="nonzero"/><path fill="#ff6d01" fill-opacity="0.8" clip-path="url(#id_0)" d="M239.58195 153.425C239.58195 168.69603 227.20235 181.07564 211.93132 181.07564C196.66031 181.07564 184.28069 168.69603 184.28069 153.425C184.28069 138.15398 196.66031 125.77437 211.93132 125.77437C227.20235 125.77437 239.58195 138.15398 239.58195 153.425Z" fill-rule="nonzero"/><path fill="#ea4335" fill-opacity="0.8" clip-path="url(#id_0)" d="M314.60684 127.85C314.60684 140.92682 304.006 151.52766 290.92917 151.52766C277.85236 151.52766 267.25153 140.92682 267.25153 127.85C267.25153 114.773186 277.85236 104.17233 290.92917 104.17233C304.006 104.17233 314.60684 114.773186 314.60684 127.85Z" fill-rule="nonzero"/><path fill="#ea4335" fill-opacity="0.8" clip-path="url(#id_0)" d="M174.00429 127.85C174.00429 138.06726 165.72156 146.35 155.50429 146.35C145.28702 146.35 137.00429 138.06726 137.00429 127.85C137.00429 117.63273 145.28702 109.35 155.50429 109.35C165.72156 109.35 174.00429 117.63273 174.00429 127.85Z" fill-rule="nonzero"/><path fill="#ff6d01" fill-opacity="0.8" clip-path="url(#id_0)" d="M106.29184 153.425C106.29184 163.64227 98.0091 171.925 87.79184 171.925C77.57457 171.925 69.29184 163.64227 69.29184 153.425C69.29184 143.20773 77.57457 134.925 87.79184 134.925C98.0091 134.925 106.29184 143.20773 106.29184 153.425Z" fill-rule="nonzero"/><path fill="#ff6d01" fill-opacity="0.8" clip-path="url(#id_0)" d="M205.72574 153.425C205.72574 168.69603 193.34613 181.07564 178.0751 181.07564C162.80408 181.07564 150.42447 168.69603 150.42447 153.425C150.42447 138.15398 162.80408 125.77437 178.0751 125.77437C193.34613 125.77437 205.72574 138.15398 205.72574 153.425Z" fill-rule="nonzero"/><path fill="#ea4335" fill-opacity="0.8" clip-path="url(#id_0)" d="M377.14163 127.85C377.14163 138.06726 368.8589 146.35 358.64163 146.35C348.42438 146.35 340.14163 138.06726 340.14163 127.85C340.14163 117.63273 348.42438 109.35 358.64163 109.35C368.8589 109.35 377.14163 117.63273 377.14163 127.85Z" fill-rule="nonzero"/><path fill="#ff6d01" fill-opacity="0.8" clip-path="url(#id_0)" d="M444.8541 153.425C444.8541 163.64227 436.57135 171.925 426.3541 171.925C416.1368 171.925 407.8541 163.64227 407.8541 153.425C407.8541 143.20773 416.1368 134.925 426.3541 134.925C436.57135 134.925 444.8541 143.20773 444.8541 153.425Z" fill-rule="nonzero"/><path fill="#ff6d01" fill-opacity="0.8" clip-path="url(#id_0)" d="M205.72574 153.425C205.72574 168.69603 193.34613 181.07564 178.0751 181.07564C162.80408 181.07564 150.42447 168.69603 150.42447 153.425C150.42447 138.15398 162.80408 125.77437 178.0751 125.77437C193.34613 125.77437 205.72574 138.15398 205.72574 153.425Z" fill-rule="nonzero"/><path fill="#fcd04f" fill-opacity="0.8" clip-path="url(#id_0)" d="M275.57297 179.0C275.57297 189.21727 267.29022 197.5 257.07297 197.5C246.8557 197.5 238.57295 189.21727 238.57295 179.0C238.57295 168.78273 246.8557 160.5 257.07297 160.5C267.29022 160.5 275.57297 168.78273 275.57297 179.0Z" fill-rule="nonzero"/><path fill="#ea4335" fill-opacity="0.8" clip-path="url(#id_0)" d="M303.32144 127.85C303.32144 140.92682 292.72058 151.52766 279.64377 151.52766C266.56696 151.52766 255.96611 140.92682 255.96611 127.85C255.96611 114.773186 266.56696 104.17233 279.64377 104.17233C292.72058 104.17233 303.32144 114.773186 303.32144 127.85Z" fill-rule="nonzero"/><path fill="#4285f4" fill-opacity="0.8" clip-path="url(#id_0)" d="M179.18196 102.275C179.18196 115.351814 168.5811 125.95267 155.50429 125.95267C142.42747 125.95267 131.82661 115.351814 131.82661 102.275C131.82661 89.19818 142.42747 78.59733 155.50429 78.59733C168.5811 78.59733 179.18196 89.19818 179.18196 102.275Z" fill-rule="nonzero"/><path fill="#ea4335" fill-opacity="0.8" clip-path="url(#id_0)" d="M230.43132 127.85C230.43132 138.06726 222.14859 146.35 211.93132 146.35C201.71407 146.35 193.43132 138.06726 193.43132 127.85C193.43132 117.63273 201.71407 109.35 211.93132 109.35C222.14859 109.35 230.43132 117.63273 230.43132 127.85Z" fill-rule="nonzero"/><path fill="#ea4335" fill-opacity="0.8" clip-path="url(#id_0)" d="M140.14806 127.85C140.14806 138.06726 131.86533 146.35 121.64806 146.35C111.43079 146.35 103.14806 138.06726 103.14806 127.85C103.14806 117.63273 111.43079 109.35 121.64806 109.35C131.86533 109.35 140.14806 117.63273 140.14806 127.85Z" fill-rule="nonzero"/><path fill="#ff6d01" fill-opacity="0.8" clip-path="url(#id_0)" d="M95.00643 153.425C95.00643 163.64227 86.723694 171.925 76.50643 171.925C66.28916 171.925 58.006428 163.64227 58.006428 153.425C58.006428 143.20773 66.28916 134.925 76.50643 134.925C86.723694 134.925 95.00643 143.20773 95.00643 153.425Z" fill-rule="nonzero"/><path fill="#ff6d01" fill-opacity="0.8" clip-path="url(#id_0)" d="M128.86266 153.425C128.86266 163.64227 120.57992 171.925 110.362656 171.925C100.145386 171.925 91.862656 163.64227 91.862656 153.425C91.862656 143.20773 100.145386 134.925 110.362656 134.925C120.57992 134.925 128.86266 143.20773 128.86266 153.425Z" fill-rule="nonzero"/><path fill="#ff6d01" fill-opacity="0.8" clip-path="url(#id_0)" d="M343.2854 153.425C343.2854 163.64227 335.0027 171.925 324.7854 171.925C314.56815 171.925 306.2854 163.64227 306.2854 153.425C306.2854 143.20773 314.56815 134.925 324.7854 134.925C335.0027 134.925 343.2854 143.20773 343.2854 153.425Z" fill-rule="nonzero"/><path fill="#ff6d01" fill-opacity="0.8" clip-path="url(#id_0)" d="M228.29655 153.425C228.29655 168.69603 215.91695 181.07564 200.64592 181.07564C185.3749 181.07564 172.99529 168.69603 172.99529 153.425C172.99529 138.15398 185.3749 125.77437 200.64592 125.77437C215.91695 125.77437 228.29655 138.15398 228.29655 153.425Z" fill-rule="nonzero"/><path fill="#000000" d="M33.05 332.21564Q33.05 330.6844 33.3625 329.7625Q33.675 328.825 34.284374 328.325Q34.909374 327.825 35.846874 327.825Q36.534374 327.825 37.05 328.10626Q37.58125 328.3875 37.925 328.91876Q38.26875 329.4344 38.45625 330.1844Q38.64375 330.9344 38.64375 332.21564Q38.64375 333.73126 38.33125 334.65314Q38.034374 335.575 37.409374 336.09064Q36.8 336.59064 35.846874 336.59064Q34.6125 336.59064 33.89375 335.7Q33.05 334.6375 33.05 332.21564ZM34.128124 332.21564Q34.128124 334.325 34.628124 335.02814Q35.128124 335.73126 35.846874 335.73126Q36.58125 335.73126 37.065624 335.02814Q37.565624 334.325 37.565624 332.21564Q37.565624 330.09064 37.065624 329.40314Q36.58125 328.7 35.83125 328.7Q35.1125 328.7 34.675 329.3094Q34.128124 330.09064 34.128124 332.21564Z" fill-rule="nonzero"/><path fill="#000000" d="M38.596874 284.28436L38.596874 285.3L32.909374 285.3Q32.909374 284.925 33.034374 284.5656Q33.253124 283.9875 33.721874 283.425Q34.20625 282.8625 35.1125 282.1281Q36.51875 280.97186 37.003124 280.3Q37.503124 279.6281 37.503124 279.03436Q37.503124 278.40936 37.05 277.9875Q36.596874 277.55 35.878124 277.55Q35.1125 277.55 34.659374 278.0031Q34.20625 278.45624 34.190624 279.26874L33.1125 279.15936Q33.221874 277.9406 33.940624 277.3156Q34.675 276.675 35.909374 276.675Q37.14375 276.675 37.8625 277.3625Q38.58125 278.05 38.58125 279.0656Q38.58125 279.58124 38.3625 280.08124Q38.159374 280.5656 37.659374 281.1281Q37.175 281.675 36.05 282.6281Q35.096874 283.425 34.815624 283.72186Q34.55 284.0031 34.378124 284.28436L38.596874 284.28436Z" fill-rule="nonzero"/><path fill="#000000" d="M36.425 234.15L36.425 232.0875L32.70625 232.0875L32.70625 231.11874L36.628124 225.55624L37.4875 225.55624L37.4875 231.11874L38.64375 231.11874L38.64375 232.0875L37.4875 232.0875L37.4875 234.15L36.425 234.15ZM36.425 231.11874L36.425 227.25937L33.7375 231.11874L36.425 231.11874Z" fill-rule="nonzero"/><path fill="#000000" d="M38.51875 176.51562L37.471874 176.59375Q37.33125 175.96875 37.08125 175.6875Q36.64375 175.23438 36.01875 175.23438Q35.51875 175.23438 35.128124 175.51562Q34.64375 175.89062 34.346874 176.59375Q34.065624 177.28125 34.05 178.5625Q34.425 177.98438 34.971874 177.70312Q35.534374 177.42188 36.14375 177.42188Q37.190624 177.42188 37.925 178.20312Q38.675 178.98438 38.675 180.20312Q38.675 181.01562 38.315624 181.71875Q37.971874 182.40625 37.3625 182.78125Q36.753124 183.14062 35.9875 183.14062Q34.659374 183.14062 33.83125 182.17188Q33.003124 181.20312 33.003124 178.98438Q33.003124 176.48438 33.925 175.35938Q34.721874 174.375 36.08125 174.375Q37.096874 174.375 37.7375 174.95312Q38.39375 175.51562 38.51875 176.51562ZM34.221874 180.21875Q34.221874 180.76562 34.440624 181.26562Q34.675 181.75 35.08125 182.01562Q35.503124 182.28125 35.971874 182.28125Q36.628124 182.28125 37.1125 181.75Q37.596874 181.20312 37.596874 180.28125Q37.596874 179.39062 37.1125 178.875Q36.64375 178.35938 35.925 178.35938Q35.20625 178.35938 34.70625 178.875Q34.221874 179.39062 34.221874 180.21875Z" fill-rule="nonzero"/><path fill="#000000" d="M34.675 127.193756Q34.01875 126.943756 33.690624 126.506256Q33.378124 126.05313 33.378124 125.443756Q33.378124 124.506256 34.05 123.86563Q34.7375 123.225006 35.846874 123.225006Q36.971874 123.225006 37.659374 123.881256Q38.346874 124.537506 38.346874 125.475006Q38.346874 126.068756 38.034374 126.506256Q37.721874 126.943756 37.08125 127.193756Q37.878124 127.443756 38.284374 128.02188Q38.690624 128.6 38.690624 129.39688Q38.690624 130.49063 37.909374 131.24063Q37.14375 131.99063 35.8625 131.99063Q34.596874 131.99063 33.815624 131.24063Q33.034374 130.49063 33.034374 129.36563Q33.034374 128.52188 33.45625 127.95938Q33.89375 127.39688 34.675 127.193756ZM34.45625 125.39688Q34.45625 126.006256 34.846874 126.39688Q35.253124 126.787506 35.878124 126.787506Q36.4875 126.787506 36.878124 126.412506Q37.26875 126.02188 37.26875 125.45938Q37.26875 124.881256 36.8625 124.49063Q36.45625 124.08438 35.8625 124.08438Q35.253124 124.08438 34.846874 124.475006Q34.45625 124.86563 34.45625 125.39688ZM34.128124 129.36563Q34.128124 129.81876 34.33125 130.24063Q34.55 130.6625 34.971874 130.89688Q35.39375 131.13126 35.878124 131.13126Q36.628124 131.13126 37.1125 130.64688Q37.6125 130.1625 37.6125 129.4125Q37.6125 128.64688 37.1125 128.14688Q36.6125 127.64688 35.846874 127.64688Q35.096874 127.64688 34.6125 128.14688Q34.128124 128.63126 34.128124 129.36563Z" fill-rule="nonzero"/><path fill="#000000" d="M30.01875 80.7L28.971874 80.7L28.971874 73.98125Q28.58125 74.34062 27.95625 74.71562Q27.346874 75.075 26.8625 75.24687L26.8625 74.23125Q27.7375 73.80937 28.39375 73.23125Q29.065624 72.6375 29.346874 72.075L30.01875 72.075L30.01875 80.7ZM33.05 76.46562Q33.05 74.93437 33.3625 74.0125Q33.675 73.075 34.284374 72.575Q34.909374 72.075 35.846874 72.075Q36.534374 72.075 37.05 72.35625Q37.58125 72.6375 37.925 73.16875Q38.26875 73.68437 38.45625 74.43437Q38.64375 75.18437 38.64375 76.46562Q38.64375 77.98125 38.33125 78.90312Q38.034374 79.825 37.409374 80.34062Q36.8 80.84062 35.846874 80.84062Q34.6125 80.84062 33.89375 79.95Q33.05 78.8875 33.05 76.46562ZM34.128124 76.46562Q34.128124 78.575 34.628124 79.27812Q35.128124 79.98125 35.846874 79.98125Q36.58125 79.98125 37.065624 79.27812Q37.565624 78.575 37.565624 76.46562Q37.565624 74.34062 37.065624 73.65312Q36.58125 72.95 35.83125 72.95Q35.1125 72.95 34.675 73.55937Q34.128124 74.34062 34.128124 76.46562Z" fill-rule="nonzero"/><path fill="#000000" d="M30.01875 29.55L28.971874 29.55L28.971874 22.83125Q28.58125 23.190624 27.95625 23.565624Q27.346874 23.925 26.8625 24.096874L26.8625 23.08125Q27.7375 22.659374 28.39375 22.08125Q29.065624 21.4875 29.346874 20.925L30.01875 20.925L30.01875 29.55ZM38.596874 28.534374L38.596874 29.55L32.909374 29.55Q32.909374 29.175 33.034374 28.815624Q33.253124 28.2375 33.721874 27.675Q34.20625 27.1125 35.1125 26.378124Q36.51875 25.221874 37.003124 24.55Q37.503124 23.878124 37.503124 23.284374Q37.503124 22.659374 37.05 22.2375Q36.596874 21.8 35.878124 21.8Q35.1125 21.8 34.659374 22.253124Q34.20625 22.70625 34.190624 23.51875L33.1125 23.409374Q33.221874 22.190624 33.940624 21.565624Q34.675 20.925 35.909374 20.925Q37.14375 20.925 37.8625 21.6125Q38.58125 22.3 38.58125 23.315624Q38.58125 23.83125 38.3625 24.33125Q38.159374 24.815624 37.659374 25.378124Q37.175 25.925 36.05 26.878124Q35.096874 27.675 34.815624 27.971874Q34.55 28.253124 34.378124 28.534374L38.596874 28.534374Z" fill-rule="nonzero"/><path fill="#000000" d="M120.69494 348.4344L120.69494 349.45L115.00744 349.45Q115.00744 349.075 115.13244 348.71564Q115.35119 348.1375 115.81994 347.575Q116.30431 347.0125 117.21056 346.27814Q118.61681 345.1219 119.10119 344.45Q119.60119 343.77814 119.60119 343.1844Q119.60119 342.5594 119.14806 342.1375Q118.69494 341.7 117.97619 341.7Q117.21056 341.7 116.75744 342.15314Q116.30431 342.60626 116.28869 343.41876L115.21056 343.3094Q115.31994 342.09064 116.03869 341.46564Q116.77306 340.825 118.00744 340.825Q119.24181 340.825 119.96056 341.5125Q120.67931 342.2 120.67931 343.21564Q120.67931 343.73126 120.46056 344.23126Q120.25744 344.71564 119.75744 345.27814Q119.27306 345.825 118.14806 346.77814Q117.19494 347.575 116.91369 347.8719Q116.64806 348.15314 116.47619 348.4344L120.69494 348.4344ZM122.14806 345.21564Q122.14806 343.6844 122.46056 342.7625Q122.77306 341.825 123.38244 341.325Q124.00744 340.825 124.94494 340.825Q125.63244 340.825 126.14806 341.10626Q126.67931 341.3875 127.02306 341.91876Q127.36681 342.4344 127.55431 343.1844Q127.74181 343.9344 127.74181 345.21564Q127.74181 346.73126 127.42931 347.65314Q127.13244 348.575 126.50744 349.09064Q125.89806 349.59064 124.94494 349.59064Q123.71056 349.59064 122.99181 348.7Q122.14806 347.6375 122.14806 345.21564ZM123.22619 345.21564Q123.22619 347.325 123.72619 348.02814Q124.22619 348.73126 124.94494 348.73126Q125.67931 348.73126 126.16369 348.02814Q126.66369 347.325 126.66369 345.21564Q126.66369 343.09064 126.16369 342.40314Q125.67931 341.7 124.92931 341.7Q124.21056 341.7 123.77306 342.3094Q123.22619 343.09064 123.22619 345.21564Z" fill-rule="nonzero"/><path fill="#000000" d="M228.00214 347.1844L229.06464 347.04376Q229.23651 347.9344 229.67401 348.34064Q230.11151 348.73126 230.73651 348.73126Q231.48651 348.73126 232.00214 348.21564Q232.51776 347.7 232.51776 346.9344Q232.51776 346.21564 232.03339 345.7469Q231.56464 345.2625 230.83026 345.2625Q230.53339 345.2625 230.08026 345.3875L230.20526 344.45Q230.31464 344.46564 230.37714 344.46564Q231.04901 344.46564 231.58026 344.1219Q232.12714 343.7625 232.12714 343.02814Q232.12714 342.45 231.73651 342.075Q231.34589 341.6844 230.72089 341.6844Q230.11151 341.6844 229.68964 342.075Q229.28339 342.46564 229.17401 343.23126L228.11151 343.04376Q228.29901 341.9969 228.98651 341.41876Q229.67401 340.825 230.68964 340.825Q231.39276 340.825 231.98651 341.1375Q232.58026 341.4344 232.89276 341.95Q233.20526 342.46564 233.20526 343.0594Q233.20526 343.60626 232.90839 344.075Q232.61151 344.52814 232.03339 344.79376Q232.78339 344.96564 233.20526 345.52814Q233.62714 346.075 233.62714 346.91876Q233.62714 348.04376 232.79901 348.825Q231.98651 349.60626 230.73651 349.60626Q229.61151 349.60626 228.86151 348.9344Q228.11151 348.2469 228.00214 347.1844ZM235.00214 345.21564Q235.00214 343.6844 235.31464 342.7625Q235.62714 341.825 236.23651 341.325Q236.86151 340.825 237.79901 340.825Q238.48651 340.825 239.00214 341.10626Q239.53339 341.3875 239.87714 341.91876Q240.22089 342.4344 240.40839 343.1844Q240.59589 343.9344 240.59589 345.21564Q240.59589 346.73126 240.28339 347.65314Q239.98651 348.575 239.36151 349.09064Q238.75214 349.59064 237.79901 349.59064Q236.56464 349.59064 235.84589 348.7Q235.00214 347.6375 235.00214 345.21564ZM236.08026 345.21564Q236.08026 347.325 236.58026 348.02814Q237.08026 348.73126 237.79901 348.73126Q238.53339 348.73126 239.01776 348.02814Q239.51776 347.325 239.51776 345.21564Q239.51776 343.09064 239.01776 342.40314Q238.53339 341.7 237.78339 341.7Q237.06464 341.7 236.62714 342.3094Q236.08026 343.09064 236.08026 345.21564Z" fill-rule="nonzero"/><path fill="#000000" d="M344.23123 349.45L344.23123 347.3875L340.51248 347.3875L340.51248 346.41876L344.43436 340.85626L345.29373 340.85626L345.29373 346.41876L346.44998 346.41876L346.44998 347.3875L345.29373 347.3875L345.29373 349.45L344.23123 349.45ZM344.23123 346.41876L344.23123 342.5594L341.54373 346.41876L344.23123 346.41876ZM347.85623 345.21564Q347.85623 343.6844 348.16873 342.7625Q348.48123 341.825 349.0906 341.325Q349.7156 340.825 350.6531 340.825Q351.3406 340.825 351.85623 341.10626Q352.38748 341.3875 352.73123 341.91876Q353.07498 342.4344 353.26248 343.1844Q353.44998 343.9344 353.44998 345.21564Q353.44998 346.73126 353.13748 347.65314Q352.8406 348.575 352.2156 349.09064Q351.60623 349.59064 350.6531 349.59064Q349.41873 349.59064 348.69998 348.7Q347.85623 347.6375 347.85623 345.21564ZM348.93436 345.21564Q348.93436 347.325 349.43436 348.02814Q349.93436 348.73126 350.6531 348.73126Q351.38748 348.73126 351.87186 348.02814Q352.37186 347.325 352.37186 345.21564Q352.37186 343.09064 351.87186 342.40314Q351.38748 341.7 350.63748 341.7Q349.91873 341.7 349.48123 342.3094Q348.93436 343.09064 348.93436 345.21564Z" fill-rule="nonzero"/><path fill="#000000" d="M453.7103 347.2L454.81967 347.10626Q454.94467 347.91876 455.38217 348.325Q455.8353 348.73126 456.47592 348.73126Q457.22592 348.73126 457.75717 348.15314Q458.28842 347.575 458.28842 346.6375Q458.28842 345.73126 457.7728 345.21564Q457.2728 344.6844 456.44467 344.6844Q455.94467 344.6844 455.5228 344.91876Q455.11655 345.15314 454.88217 345.5125L453.8978 345.3875L454.72592 340.98126L459.00717 340.98126L459.00717 341.98126L455.56967 341.98126L455.11655 344.29376Q455.88217 343.7469 456.72592 343.7469Q457.85092 343.7469 458.61655 344.52814Q459.3978 345.3094 459.3978 346.54376Q459.3978 347.7 458.72592 348.5594Q457.8978 349.59064 456.47592 349.59064Q455.30405 349.59064 454.55405 348.9344Q453.81967 348.27814 453.7103 347.2ZM460.7103 345.21564Q460.7103 343.6844 461.0228 342.7625Q461.3353 341.825 461.94467 341.325Q462.56967 340.825 463.50717 340.825Q464.19467 340.825 464.7103 341.10626Q465.24155 341.3875 465.5853 341.91876Q465.92905 342.4344 466.11655 343.1844Q466.30405 343.9344 466.30405 345.21564Q466.30405 346.73126 465.99155 347.65314Q465.69467 348.575 465.06967 349.09064Q464.4603 349.59064 463.50717 349.59064Q462.2728 349.59064 461.55405 348.7Q460.7103 347.6375 460.7103 345.21564ZM461.78842 345.21564Q461.78842 347.325 462.28842 348.02814Q462.78842 348.73126 463.50717 348.73126Q464.24155 348.73126 464.72592 348.02814Q465.22592 347.325 465.22592 345.21564Q465.22592 343.09064 464.72592 342.40314Q464.24155 341.7 463.49155 341.7Q462.7728 341.7 462.3353 342.3094Q461.78842 343.09064 461.78842 345.21564Z" fill-rule="nonzero"/><path fill="#000000" d="M572.03314 342.96564L570.98627 343.04376Q570.84564 342.41876 570.59564 342.1375Q570.15814 341.6844 569.53314 341.6844Q569.03314 341.6844 568.6425 341.96564Q568.15814 342.34064 567.86127 343.04376Q567.58 343.73126 567.5644 345.0125Q567.9394 344.4344 568.48627 344.15314Q569.04877 343.8719 569.65814 343.8719Q570.705 343.8719 571.4394 344.65314Q572.1894 345.4344 572.1894 346.65314Q572.1894 347.46564 571.83 348.16876Q571.48627 348.85626 570.8769 349.23126Q570.2675 349.59064 569.5019 349.59064Q568.17377 349.59064 567.34564 348.6219Q566.5175 347.65314 566.5175 345.4344Q566.5175 342.9344 567.4394 341.8094Q568.23627 340.825 569.59564 340.825Q570.61127 340.825 571.2519 341.40314Q571.90814 341.96564 572.03314 342.96564ZM567.73627 346.66876Q567.73627 347.21564 567.955 347.71564Q568.1894 348.2 568.59564 348.46564Q569.0175 348.73126 569.48627 348.73126Q570.1425 348.73126 570.6269 348.2Q571.11127 347.65314 571.11127 346.73126Q571.11127 345.84064 570.6269 345.325Q570.15814 344.8094 569.4394 344.8094Q568.72064 344.8094 568.22064 345.325Q567.73627 345.84064 567.73627 346.66876ZM573.5644 345.21564Q573.5644 343.6844 573.8769 342.7625Q574.1894 341.825 574.79877 341.325Q575.42377 340.825 576.36127 340.825Q577.04877 340.825 577.5644 341.10626Q578.09564 341.3875 578.4394 341.91876Q578.78314 342.4344 578.97064 343.1844Q579.15814 343.9344 579.15814 345.21564Q579.15814 346.73126 578.84564 347.65314Q578.54877 348.575 577.92377 349.09064Q577.3144 349.59064 576.36127 349.59064Q575.1269 349.59064 574.40814 348.7Q573.5644 347.6375 573.5644 345.21564ZM574.6425 345.21564Q574.6425 347.325 575.1425 348.02814Q575.6425 348.73126 576.36127 348.73126Q577.09564 348.73126 577.58 348.02814Q578.08 347.325 578.08 345.21564Q578.08 343.09064 577.58 342.40314Q577.09564 341.7 576.34564 341.7Q575.6269 341.7 575.1894 342.3094Q574.6425 343.09064 574.6425 345.21564Z" fill-rule="nonzero"/></svg>