<svg version="1.1" viewBox="0.0 0.0 600.0 371.0" fill="none" stroke="none" stroke-linecap="square" stroke-miterlimit="10" width="600" height="371" xmlns:xlink="http://www.w3.org/1999/xlink" xmlns="http://www.w3.org/2000/svg"><path fill="#ffffff" d="M0 0L600.0 0L600.0 371.0L0 371.0L0 0Z" fill-rule="nonzero"/><path stroke="#cccccc" stroke-width="1.0" stroke-linecap="butt" d="M104.5 25.5L104.5 332.5" fill-rule="nonzero"/><path stroke="#cccccc" stroke-width="1.0" stroke-linecap="butt" d="M227.5 25.5L227.5 332.5" fill-rule="nonzero"/><path stroke="#cccccc" stroke-width="1.0" stroke-linecap="butt" d="M350.5 25.5L350.5 332.5" fill-rule="nonzero"/><path stroke="#cccccc" stroke-width="1.0" stroke-linecap="butt" d="M473.5 25.5L473.5 332.5" fill-rule="nonzero"/><path stroke="#333333" stroke-width="1.0" stroke-linecap="butt" d="M45.5 332.5L581.5 332.5" fill-rule="nonzero"/><path stroke="#cccccc" stroke-width="1.0" stroke-linecap="butt" d="M45.5 281.5L581.5 281.5" fill-rule="nonzero"/><path stroke="#cccccc" stroke-width="1.0" stroke-linecap="butt" d="M45.5 230.5L581.5 230.5" fill-rule="nonzero"/><path stroke="#cccccc" stroke-width="1.0" stroke-linecap="butt" d="M45.5 179.5L581.5 179.5" fill-rule="nonzero"/><path stroke="#cccccc" stroke-width="1.0" stroke-linecap="butt" d="M45.5 127.5L581.5 127.5" fill-rule="nonzero"/><path stroke="#cccccc" stroke-width="1.0" stroke-linecap="butt" d="M45.5 76.5L581.5 76.5" fill-rule="nonzero"/><path stroke="#cccccc" stroke-width="1.0" stroke-linecap="butt" d="M45.5 25.5L581.5 25.5" fill-rule="nonzero"/><clipPath id="id_0"><path d="M45.55 25.55L581.45 25.55L581.45 332.45L45.55 332.45L45.55 25.55Z" clip-rule="nonzero"/></clipPath><path fill="#4285f4" fill-opacity="0.8" clip-path="url(#id_0)" d="M235.53003 153.425C235.53003 164.71025 226.38153 173.85875 215.09628 173.85875C203.81102 173.85875 194.66252 164.71025 194.66252 153.425C194.66252 142.13976 203.81102 132.99124 215.09628 132.99124C226.38153 132.99124 235.53003 142.13976 235.53003 153.425Z" fill-rule="nonzero"/><path fill="#ea4335" fill-opacity="0.8" clip-path="url(#id_0)" d="M319.5 179.0C319.5 182.3137 316.81372 185.0 313.5 185.0C310.18628 185.0 307.5 182.3137 307.5 179.0C307.5 175.6863 310.18628 173.0 313.5 173.0C316.81372 173.0 319.5 175.6863 319.5 179.0Z" fill-rule="nonzero"/><path fill="#fbbc04" fill-opacity="0.8" clip-path="url(#id_0)" d="M208.7958 127.85C208.7958 131.16371 206.10951 133.85 202.7958 133.85C199.4821 133.85 196.7958 131.16371 196.7958 127.85C196.7958 124.53629 199.4821 121.85 202.7958 121.85C206.10951 121.85 208.7958 124.53629 208.7958 127.85Z" fill-rule="nonzero"/><path fill="#ea4335" fill-opacity="0.8" clip-path="url(#id_0)" d="M315.3115 179.0C315.3115 193.58717 303.48624 205.41241 288.89908 205.41241C274.3119 205.41241 262.48666 193.58717 262.48666 179.0C262.48666 164.41283 274.3119 152.58759 288.89908 152.58759C303.48624 152.58759 315.3115 164.41283 315.3115 179.0Z" fill-rule="nonzero"/><path fill="#fbbc04" fill-opacity="0.8" clip-path="url(#id_0)" d="M319.5 127.85C319.5 131.16371 316.81372 133.85 313.5 133.85C310.18628 133.85 307.5 131.16371 307.5 127.85C307.5 124.53629 310.18628 121.85 313.5 121.85C316.81372 121.85 319.5 124.53629 319.5 127.85Z" fill-rule="nonzero"/><path fill="#34a853" fill-opacity="0.8" clip-path="url(#id_0)" d="M307.19952 230.15C307.19952 233.46371 304.51324 236.15 301.19952 236.15C297.88583 236.15 295.19952 233.46371 295.19952 230.15C295.19952 226.83629 297.88583 224.15 301.19952 224.15C304.51324 224.15 307.19952 226.83629 307.19952 230.15Z" fill-rule="nonzero"/><path fill="#ff6d01" fill-opacity="0.8" clip-path="url(#id_0)" d="M319.5 306.875C319.5 310.18872 316.81372 312.875 313.5 312.875C310.18628 312.875 307.5 310.18872 307.5 306.875C307.5 303.56128 310.18628 300.875 313.5 300.875C316.81372 300.875 319.5 303.56128 319.5 306.875Z" fill-rule="nonzero"/><path fill="#34a853" fill-opacity="0.8" clip-path="url(#id_0)" d="M196.49535 230.15C196.49535 233.46371 193.80905 236.15 190.49535 236.15C187.18164 236.15 184.49535 233.46371 184.49535 230.15C184.49535 226.83629 187.18164 224.15 190.49535 224.15C193.80905 224.15 196.49535 226.83629 196.49535 230.15Z" fill-rule="nonzero"/><path fill="#fbbc04" fill-opacity="0.8" clip-path="url(#id_0)" d="M266.10962 127.85C266.10962 142.43718 254.28438 154.26242 239.6972 154.26242C225.11003 154.26242 213.28479 142.43718 213.28479 127.85C213.28479 113.262825 225.11003 101.437584 239.6972 101.437584C254.28438 101.437584 266.10962 113.262825 266.10962 127.85Z" fill-rule="nonzero"/><path fill="#ea4335" fill-opacity="0.8" clip-path="url(#id_0)" d="M381.00232 179.0C381.00232 182.3137 378.31604 185.0 375.00232 185.0C371.68863 185.0 369.00232 182.3137 369.00232 179.0C369.00232 175.6863 371.68863 173.0 375.00232 173.0C378.31604 173.0 381.00232 175.6863 381.00232 179.0Z" fill-rule="nonzero"/><path fill="#4285f4" fill-opacity="0.8" clip-path="url(#id_0)" d="M235.53003 153.425C235.53003 164.71025 226.38153 173.85875 215.09628 173.85875C203.81102 173.85875 194.66252 164.71025 194.66252 153.425C194.66252 142.13976 203.81102 132.99124 215.09628 132.99124C226.38153 132.99124 235.53003 142.13976 235.53003 153.425Z" fill-rule="nonzero"/><path fill="#46bdc6" fill-opacity="0.8" clip-path="url(#id_0)" d="M233.39674 281.3C233.39674 284.6137 230.71045 287.3 227.39674 287.3C224.08304 287.3 221.39674 284.6137 221.39674 281.3C221.39674 277.9863 224.08304 275.3 227.39674 275.3C230.71045 275.3 233.39674 277.9863 233.39674 281.3Z" fill-rule="nonzero"/><path fill="#7baaf7" fill-opacity="0.8" clip-path="url(#id_0)" d="M235.53003 204.575C235.53003 215.86024 226.38153 225.00876 215.09628 225.00876C203.81102 225.00876 194.66252 215.86024 194.66252 204.575C194.66252 193.28975 203.81102 184.14125 215.09628 184.14125C226.38153 184.14125 235.53003 193.28975 235.53003 204.575Z" fill-rule="nonzero"/><path fill="#34a853" fill-opacity="0.8" clip-path="url(#id_0)" d="M98.09162 230.15C98.09162 233.46371 95.40533 236.15 92.09162 236.15C88.77791 236.15 86.09162 233.46371 86.09162 230.15C86.09162 226.83629 88.77791 224.15 92.09162 224.15C95.40533 224.15 98.09162 226.83629 98.09162 230.15Z" fill-rule="nonzero"/><path fill="#7baaf7" fill-opacity="0.8" clip-path="url(#id_0)" d="M134.99301 204.575C134.99301 207.8887 132.30673 210.575 128.99301 210.575C125.679306 210.575 122.99302 207.8887 122.99302 204.575C122.99302 201.26129 125.679306 198.575 128.99301 198.575C132.30673 198.575 134.99301 201.26129 134.99301 204.575Z" fill-rule="nonzero"/><path fill="#ea4335" fill-opacity="0.8" clip-path="url(#id_0)" d="M221.49535 179.0C221.49535 196.12083 207.61617 210.0 190.49535 210.0C173.37451 210.0 159.49535 196.12083 159.49535 179.0C159.49535 161.87917 173.37451 148.0 190.49535 148.0C207.61617 148.0 221.49535 161.87917 221.49535 179.0Z" fill-rule="nonzero"/><path fill="#4285f4" fill-opacity="0.8" clip-path="url(#id_0)" d="M172.29349 153.425C172.29349 170.54582 158.4143 184.425 141.29349 184.425C124.17265 184.425 110.29348 170.54582 110.29348 153.425C110.29348 136.30417 124.17265 122.425 141.29349 122.425C158.4143 122.425 172.29349 136.30417 172.29349 153.425Z" fill-rule="nonzero"/><path fill="#ea4335" fill-opacity="0.8" clip-path="url(#id_0)" d="M122.69255 179.0C122.69255 182.3137 120.006256 185.0 116.69255 185.0C113.378845 185.0 110.69255 182.3137 110.69255 179.0C110.69255 175.6863 113.378845 173.0 116.69255 173.0C120.006256 173.0 122.69255 175.6863 122.69255 179.0Z" fill-rule="nonzero"/><path fill="#7baaf7" fill-opacity="0.8" clip-path="url(#id_0)" d="M171.89441 204.575C171.89441 207.8887 169.20811 210.575 165.89441 210.575C162.5807 210.575 159.89441 207.8887 159.89441 204.575C159.89441 201.26129 162.5807 198.575 165.89441 198.575C169.20811 198.575 171.89441 201.26129 171.89441 204.575Z" fill-rule="nonzero"/><path fill="#7baaf7" fill-opacity="0.8" clip-path="url(#id_0)" d="M122.69255 204.575C122.69255 207.8887 120.006256 210.575 116.69255 210.575C113.378845 210.575 110.69255 207.8887 110.69255 204.575C110.69255 201.26129 113.378845 198.575 116.69255 198.575C120.006256 198.575 122.69255 201.26129 122.69255 204.575Z" fill-rule="nonzero"/><path fill="#7baaf7" fill-opacity="0.8" clip-path="url(#id_0)" d="M344.10092 204.575C344.10092 207.8887 341.41464 210.575 338.10092 210.575C334.78723 210.575 332.10092 207.8887 332.10092 204.575C332.10092 201.26129 334.78723 198.575 338.10092 198.575C341.41464 198.575 344.10092 201.26129 344.10092 204.575Z" fill-rule="nonzero"/><path fill="#f07b72" fill-opacity="0.8" clip-path="url(#id_0)" d="M247.8305 255.725C247.8305 267.01025 238.68199 276.15875 227.39674 276.15875C216.1115 276.15875 206.96298 267.01025 206.96298 255.725C206.96298 244.43974 216.1115 235.29124 227.39674 235.29124C238.68199 235.29124 247.8305 244.43974 247.8305 255.725Z" fill-rule="nonzero"/><path fill="#fbbc04" fill-opacity="0.8" clip-path="url(#id_0)" d="M331.80048 127.85C331.80048 131.16371 329.11417 133.85 325.80048 133.85C322.48676 133.85 319.80048 131.16371 319.80048 127.85C319.80048 124.53629 322.48676 121.85 325.80048 121.85C329.11417 121.85 331.80048 124.53629 331.80048 127.85Z" fill-rule="nonzero"/><path fill="#ea4335" fill-opacity="0.8" clip-path="url(#id_0)" d="M282.5986 179.0C282.5986 182.3137 279.91232 185.0 276.5986 185.0C273.28488 185.0 270.5986 182.3137 270.5986 179.0C270.5986 175.6863 273.28488 173.0 276.5986 173.0C279.91232 173.0 282.5986 175.6863 282.5986 179.0Z" fill-rule="nonzero"/><path fill="#f07b72" fill-opacity="0.8" clip-path="url(#id_0)" d="M381.00232 255.725C381.00232 259.0387 378.31604 261.725 375.00232 261.725C371.68863 261.725 369.00232 259.0387 369.00232 255.725C369.00232 252.41129 371.68863 249.725 375.00232 249.725C378.31604 249.725 381.00232 252.41129 381.00232 255.725Z" fill-rule="nonzero"/><path fill="#4285f4" fill-opacity="0.8" clip-path="url(#id_0)" d="M321.6333 153.425C321.6333 164.71025 312.48477 173.85875 301.19952 173.85875C289.91428 173.85875 280.76578 164.71025 280.76578 153.425C280.76578 142.13976 289.91428 132.99124 301.19952 132.99124C312.48477 132.99124 321.6333 142.13976 321.6333 153.425Z" fill-rule="nonzero"/><path fill="#f07b72" fill-opacity="0.8" clip-path="url(#id_0)" d="M319.5 255.725C319.5 259.0387 316.81372 261.725 313.5 261.725C310.18628 261.725 307.5 259.0387 307.5 255.725C307.5 252.41129 310.18628 249.725 313.5 249.725C316.81372 249.725 319.5 252.41129 319.5 255.725Z" fill-rule="nonzero"/><path fill="#7baaf7" fill-opacity="0.8" clip-path="url(#id_0)" d="M174.02771 204.575C174.02771 215.86024 164.8792 225.00876 153.59395 225.00876C142.3087 225.00876 133.16019 215.86024 133.16019 204.575C133.16019 193.28975 142.3087 184.14125 153.59395 184.14125C164.8792 184.14125 174.02771 193.28975 174.02771 204.575Z" fill-rule="nonzero"/><path fill="#fbbc04" fill-opacity="0.8" clip-path="url(#id_0)" d="M266.10962 127.85C266.10962 142.43718 254.28438 154.26242 239.6972 154.26242C225.11003 154.26242 213.28479 142.43718 213.28479 127.85C213.28479 113.262825 225.11003 101.437584 239.6972 101.437584C254.28438 101.437584 266.10962 113.262825 266.10962 127.85Z" fill-rule="nonzero"/><path fill="#fcd04f" fill-opacity="0.8" clip-path="url(#id_0)" d="M282.5986 102.275C282.5986 105.58871 279.91232 108.275 276.5986 108.275C273.28488 108.275 270.5986 105.58871 270.5986 102.275C270.5986 98.96129 273.28488 96.275 276.5986 96.275C279.91232 96.275 282.5986 98.96129 282.5986 102.275Z" fill-rule="nonzero"/><path fill="#46bdc6" fill-opacity="0.8" clip-path="url(#id_0)" d="M270.29813 281.3C270.29813 284.6137 267.61185 287.3 264.29813 287.3C260.98444 287.3 258.29813 284.6137 258.29813 281.3C258.29813 277.9863 260.98444 275.3 264.29813 275.3C267.61185 275.3 270.29813 277.9863 270.29813 281.3Z" fill-rule="nonzero"/><path fill="#7baaf7" fill-opacity="0.8" clip-path="url(#id_0)" d="M233.39674 204.575C233.39674 207.8887 230.71045 210.575 227.39674 210.575C224.08304 210.575 221.39674 207.8887 221.39674 204.575C221.39674 201.26129 224.08304 198.575 227.39674 198.575C230.71045 198.575 233.39674 201.26129 233.39674 204.575Z" fill-rule="nonzero"/><path fill="#34a853" fill-opacity="0.8" clip-path="url(#id_0)" d="M184.19489 230.15C184.19489 233.46371 181.50859 236.15 178.19489 236.15C174.88116 236.15 172.19489 233.46371 172.19489 230.15C172.19489 226.83629 174.88116 224.15 178.19489 224.15C181.50859 224.15 184.19489 226.83629 184.19489 230.15Z" fill-rule="nonzero"/><path fill="#71c287" fill-opacity="0.8" clip-path="url(#id_0)" d="M331.80048 332.45C331.80048 335.7637 329.11417 338.45 325.80048 338.45C322.48676 338.45 319.80048 335.7637 319.80048 332.45C319.80048 329.1363 322.48676 326.45 325.80048 326.45C329.11417 326.45 331.80048 329.1363 331.80048 332.45Z" fill-rule="nonzero"/><path fill="#7baaf7" fill-opacity="0.8" clip-path="url(#id_0)" d="M184.19489 204.575C184.19489 207.8887 181.50859 210.575 178.19489 210.575C174.88116 210.575 172.19489 207.8887 172.19489 204.575C172.19489 201.26129 174.88116 198.575 178.19489 198.575C181.50859 198.575 184.19489 201.26129 184.19489 204.575Z" fill-rule="nonzero"/><path fill="#4285f4" fill-opacity="0.8" clip-path="url(#id_0)" d="M297.03235 153.425C297.03235 164.71025 287.88385 173.85875 276.5986 173.85875C265.31335 173.85875 256.16486 164.71025 256.16486 153.425C256.16486 142.13976 265.31335 132.99124 276.5986 132.99124C287.88385 132.99124 297.03235 142.13976 297.03235 153.425Z" fill-rule="nonzero"/><path fill="#4285f4" fill-opacity="0.8" clip-path="url(#id_0)" d="M223.22957 153.425C223.22957 164.71025 214.08105 173.85875 202.7958 173.85875C191.51056 173.85875 182.36206 164.71025 182.36206 153.425C182.36206 142.13976 191.51056 132.99124 202.7958 132.99124C214.08105 132.99124 223.22957 142.13976 223.22957 153.425Z" fill-rule="nonzero"/><path fill="#ea4335" fill-opacity="0.8" clip-path="url(#id_0)" d="M221.49535 179.0C221.49535 196.12083 207.61617 210.0 190.49535 210.0C173.37451 210.0 159.49535 196.12083 159.49535 179.0C159.49535 161.87917 173.37451 148.0 190.49535 148.0C207.61617 148.0 221.49535 161.87917 221.49535 179.0Z" fill-rule="nonzero"/><path fill="#4285f4" fill-opacity="0.8" clip-path="url(#id_0)" d="M85.79115 153.425C85.79115 156.73871 83.104866 159.425 79.79115 159.425C76.47745 159.425 73.79115 156.73871 73.79115 153.425C73.79115 150.1113 76.47745 147.425 79.79115 147.425C83.104866 147.425 85.79115 150.1113 85.79115 153.425Z" fill-rule="nonzero"/><path fill="#7baaf7" fill-opacity="0.8" clip-path="url(#id_0)" d="M174.02771 204.575C174.02771 215.86024 164.8792 225.00876 153.59395 225.00876C142.3087 225.00876 133.16019 215.86024 133.16019 204.575C133.16019 193.28975 142.3087 184.14125 153.59395 184.14125C164.8792 184.14125 174.02771 193.28975 174.02771 204.575Z" fill-rule="nonzero"/><path fill="#ea4335" fill-opacity="0.8" clip-path="url(#id_0)" d="M272.43143 179.0C272.43143 190.28525 263.28293 199.43376 251.99767 199.43376C240.71242 199.43376 231.56392 190.28525 231.56392 179.0C231.56392 167.71475 240.71242 158.56624 251.99767 158.56624C263.28293 158.56624 272.43143 167.71475 272.43143 179.0Z" fill-rule="nonzero"/><path fill="#4285f4" fill-opacity="0.8" clip-path="url(#id_0)" d="M321.6333 153.425C321.6333 164.71025 312.48477 173.85875 301.19952 173.85875C289.91428 173.85875 280.76578 164.71025 280.76578 153.425C280.76578 142.13976 289.91428 132.99124 301.19952 132.99124C312.48477 132.99124 321.6333 142.13976 321.6333 153.425Z" fill-rule="nonzero"/><path fill="#4285f4" fill-opacity="0.8" clip-path="url(#id_0)" d="M309.33282 153.425C309.33282 164.71025 300.18433 173.85875 288.89908 173.85875C277.61383 173.85875 268.4653 164.71025 268.4653 153.425C268.4653 142.13976 277.61383 132.99124 288.89908 132.99124C300.18433 132.99124 309.33282 142.13976 309.33282 153.425Z" fill-rule="nonzero"/><path fill="#34a853" fill-opacity="0.8" clip-path="url(#id_0)" d="M294.89908 230.15C294.89908 233.46371 292.21277 236.15 288.89908 236.15C285.58536 236.15 282.89908 233.46371 282.89908 230.15C282.89908 226.83629 285.58536 224.15 288.89908 224.15C292.21277 224.15 294.89908 226.83629 294.89908 230.15Z" fill-rule="nonzero"/><path fill="#ea4335" fill-opacity="0.8" clip-path="url(#id_0)" d="M315.3115 179.0C315.3115 193.58717 303.48624 205.41241 288.89908 205.41241C274.3119 205.41241 262.48666 193.58717 262.48666 179.0C262.48666 164.41283 274.3119 152.58759 288.89908 152.58759C303.48624 152.58759 315.3115 164.41283 315.3115 179.0Z" fill-rule="nonzero"/><path fill="#4285f4" fill-opacity="0.8" clip-path="url(#id_0)" d="M184.19489 153.425C184.19489 156.73871 181.50859 159.425 178.19489 159.425C174.88116 159.425 172.19489 156.73871 172.19489 153.425C172.19489 150.1113 174.88116 147.425 178.19489 147.425C181.50859 147.425 184.19489 150.1113 184.19489 153.425Z" fill-rule="nonzero"/><path fill="#ea4335" fill-opacity="0.8" clip-path="url(#id_0)" d="M221.49535 179.0C221.49535 196.12083 207.61617 210.0 190.49535 210.0C173.37451 210.0 159.49535 196.12083 159.49535 179.0C159.49535 161.87917 173.37451 148.0 190.49535 148.0C207.61617 148.0 221.49535 161.87917 221.49535 179.0Z" fill-rule="nonzero"/><path fill="#4285f4" fill-opacity="0.8" clip-path="url(#id_0)" d="M467.1056 153.425C467.1056 156.73871 464.41928 159.425 461.1056 159.425C457.79187 159.425 455.1056 156.73871 455.1056 153.425C455.1056 150.1113 457.79187 147.425 461.1056 147.425C464.41928 147.425 467.1056 150.1113 467.1056 153.425Z" fill-rule="nonzero"/><path fill="#ea4335" fill-opacity="0.8" clip-path="url(#id_0)" d="M417.90372 179.0C417.90372 182.3137 415.21744 185.0 411.90372 185.0C408.59003 185.0 405.90372 182.3137 405.90372 179.0C405.90372 175.6863 408.59003 173.0 411.90372 173.0C415.21744 173.0 417.90372 175.6863 417.90372 179.0Z" fill-rule="nonzero"/><path fill="#ea4335" fill-opacity="0.8" clip-path="url(#id_0)" d="M245.6972 179.0C245.6972 182.3137 243.01091 185.0 239.6972 185.0C236.3835 185.0 233.6972 182.3137 233.6972 179.0C233.6972 175.6863 236.3835 173.0 239.6972 173.0C243.01091 173.0 245.6972 175.6863 245.6972 179.0Z" fill-rule="nonzero"/><path fill="#4285f4" fill-opacity="0.8" clip-path="url(#id_0)" d="M172.29349 153.425C172.29349 170.54582 158.4143 184.425 141.29349 184.425C124.17265 184.425 110.29348 170.54582 110.29348 153.425C110.29348 136.30417 124.17265 122.425 141.29349 122.425C158.4143 122.425 172.29349 136.30417 172.29349 153.425Z" fill-rule="nonzero"/><path fill="#4285f4" fill-opacity="0.8" clip-path="url(#id_0)" d="M430.2042 153.425C430.2042 156.73871 427.5179 159.425 424.2042 159.425C420.89047 159.425 418.2042 156.73871 418.2042 153.425C418.2042 150.1113 420.89047 147.425 424.2042 147.425C427.5179 147.425 430.2042 150.1113 430.2042 153.425Z" fill-rule="nonzero"/><path fill="#fbbc04" fill-opacity="0.8" clip-path="url(#id_0)" d="M161.72723 127.85C161.72723 139.13525 152.57874 148.28375 141.29349 148.28375C130.00822 148.28375 120.859726 139.13525 120.859726 127.85C120.859726 116.56475 130.00822 107.416245 141.29349 107.416245C152.57874 107.416245 161.72723 116.56475 161.72723 127.85Z" fill-rule="nonzero"/><path fill="#4285f4" fill-opacity="0.8" clip-path="url(#id_0)" d="M319.5 153.425C319.5 156.73871 316.81372 159.425 313.5 159.425C310.18628 159.425 307.5 156.73871 307.5 153.425C307.5 150.1113 310.18628 147.425 313.5 147.425C316.81372 147.425 319.5 150.1113 319.5 153.425Z" fill-rule="nonzero"/><path fill="#fbbc04" fill-opacity="0.8" clip-path="url(#id_0)" d="M454.8051 127.85C454.8051 131.16371 452.11884 133.85 448.8051 133.85C445.49142 133.85 442.8051 131.16371 442.8051 127.85C442.8051 124.53629 445.49142 121.85 448.8051 121.85C452.11884 121.85 454.8051 124.53629 454.8051 127.85Z" fill-rule="nonzero"/><path fill="#4285f4" fill-opacity="0.8" clip-path="url(#id_0)" d="M309.33282 153.425C309.33282 164.71025 300.18433 173.85875 288.89908 173.85875C277.61383 173.85875 268.4653 164.71025 268.4653 153.425C268.4653 142.13976 277.61383 132.99124 288.89908 132.99124C300.18433 132.99124 309.33282 142.13976 309.33282 153.425Z" fill-rule="nonzero"/><path fill="#4285f4" fill-opacity="0.8" clip-path="url(#id_0)" d="M172.29349 153.425C172.29349 170.54582 158.4143 184.425 141.29349 184.425C124.17265 184.425 110.29348 170.54582 110.29348 153.425C110.29348 136.30417 124.17265 122.425 141.29349 122.425C158.4143 122.425 172.29349 136.30417 172.29349 153.425Z" fill-rule="nonzero"/><path fill="#4285f4" fill-opacity="0.8" clip-path="url(#id_0)" d="M577.80975 153.425C577.80975 156.73871 575.1235 159.425 571.80975 159.425C568.4961 159.425 565.80975 156.73871 565.80975 153.425C565.80975 150.1113 568.4961 147.425 571.80975 147.425C575.1235 147.425 577.80975 150.1113 577.80975 153.425Z" fill-rule="nonzero"/><path fill="#4285f4" fill-opacity="0.8" clip-path="url(#id_0)" d="M172.29349 153.425C172.29349 170.54582 158.4143 184.425 141.29349 184.425C124.17265 184.425 110.29348 170.54582 110.29348 153.425C110.29348 136.30417 124.17265 122.425 141.29349 122.425C158.4143 122.425 172.29349 136.30417 172.29349 153.425Z" fill-rule="nonzero"/><path fill="#fbbc04" fill-opacity="0.8" clip-path="url(#id_0)" d="M266.10962 127.85C266.10962 142.43718 254.28438 154.26242 239.6972 154.26242C225.11003 154.26242 213.28479 142.43718 213.28479 127.85C213.28479 113.262825 225.11003 101.437584 239.6972 101.437584C254.28438 101.437584 266.10962 113.262825 266.10962 127.85Z" fill-rule="nonzero"/><path fill="#fcd04f" fill-opacity="0.8" clip-path="url(#id_0)" d="M85.79115 102.275C85.79115 105.58871 83.104866 108.275 79.79115 108.275C76.47745 108.275 73.79115 105.58871 73.79115 102.275C73.79115 98.96129 76.47745 96.275 79.79115 96.275C83.104866 96.275 85.79115 98.96129 85.79115 102.275Z" fill-rule="nonzero"/><path fill="#ea4335" fill-opacity="0.8" clip-path="url(#id_0)" d="M233.39674 179.0C233.39674 182.3137 230.71045 185.0 227.39674 185.0C224.08304 185.0 221.39674 182.3137 221.39674 179.0C221.39674 175.6863 224.08304 173.0 227.39674 173.0C230.71045 173.0 233.39674 175.6863 233.39674 179.0Z" fill-rule="nonzero"/><path fill="#fcd04f" fill-opacity="0.8" clip-path="url(#id_0)" d="M307.19952 102.275C307.19952 105.58871 304.51324 108.275 301.19952 108.275C297.88583 108.275 295.19952 105.58871 295.19952 102.275C295.19952 98.96129 297.88583 96.275 301.19952 96.275C304.51324 96.275 307.19952 98.96129 307.19952 102.275Z" fill-rule="nonzero"/><path fill="#7baaf7" fill-opacity="0.8" clip-path="url(#id_0)" d="M235.53003 204.575C235.53003 215.86024 226.38153 225.00876 215.09628 225.00876C203.81102 225.00876 194.66252 215.86024 194.66252 204.575C194.66252 193.28975 203.81102 184.14125 215.09628 184.14125C226.38153 184.14125 235.53003 193.28975 235.53003 204.575Z" fill-rule="nonzero"/><path fill="#f07b72" fill-opacity="0.8" clip-path="url(#id_0)" d="M247.8305 255.725C247.8305 267.01025 238.68199 276.15875 227.39674 276.15875C216.1115 276.15875 206.96298 267.01025 206.96298 255.725C206.96298 244.43974 216.1115 235.29124 227.39674 235.29124C238.68199 235.29124 247.8305 244.43974 247.8305 255.725Z" fill-rule="nonzero"/><path fill="#4285f4" fill-opacity="0.8" clip-path="url(#id_0)" d="M122.69255 153.425C122.69255 156.73871 120.006256 159.425 116.69255 159.425C113.378845 159.425 110.69255 156.73871 110.69255 153.425C110.69255 150.1113 113.378845 147.425 116.69255 147.425C120.006256 147.425 122.69255 150.1113 122.69255 153.425Z" fill-rule="nonzero"/><path fill="#4285f4" fill-opacity="0.8" clip-path="url(#id_0)" d="M210.92911 153.425C210.92911 164.71025 201.7806 173.85875 190.49535 173.85875C179.2101 173.85875 170.06158 164.71025 170.06158 153.425C170.06158 142.13976 179.2101 132.99124 190.49535 132.99124C201.7806 132.99124 210.92911 142.13976 210.92911 153.425Z" fill-rule="nonzero"/><path fill="#7baaf7" fill-opacity="0.8" clip-path="url(#id_0)" d="M147.29349 204.575C147.29349 207.8887 144.6072 210.575 141.29349 210.575C137.97977 210.575 135.29349 207.8887 135.29349 204.575C135.29349 201.26129 137.97977 198.575 141.29349 198.575C144.6072 198.575 147.29349 201.26129 147.29349 204.575Z" fill-rule="nonzero"/><path fill="#fbbc04" fill-opacity="0.8" clip-path="url(#id_0)" d="M122.69255 127.85C122.69255 131.16371 120.006256 133.85 116.69255 133.85C113.378845 133.85 110.69255 131.16371 110.69255 127.85C110.69255 124.53629 113.378845 121.85 116.69255 121.85C120.006256 121.85 122.69255 124.53629 122.69255 127.85Z" fill-rule="nonzero"/><path fill="#4285f4" fill-opacity="0.8" clip-path="url(#id_0)" d="M98.09162 153.425C98.09162 156.73871 95.40533 159.425 92.09162 159.425C88.77791 159.425 86.09162 156.73871 86.09162 153.425C86.09162 150.1113 88.77791 147.425 92.09162 147.425C95.40533 147.425 98.09162 150.1113 98.09162 153.425Z" fill-rule="nonzero"/><path fill="#ea4335" fill-opacity="0.8" clip-path="url(#id_0)" d="M272.43143 179.0C272.43143 190.28525 263.28293 199.43376 251.99767 199.43376C240.71242 199.43376 231.56392 190.28525 231.56392 179.0C231.56392 167.71475 240.71242 158.56624 251.99767 158.56624C263.28293 158.56624 272.43143 167.71475 272.43143 179.0Z" fill-rule="nonzero"/><path fill="#34a853" fill-opacity="0.8" clip-path="url(#id_0)" d="M147.29349 230.15C147.29349 233.46371 144.6072 236.15 141.29349 236.15C137.97977 236.15 135.29349 233.46371 135.29349 230.15C135.29349 226.83629 137.97977 224.15 141.29349 224.15C144.6072 224.15 147.29349 226.83629 147.29349 230.15Z" fill-rule="nonzero"/><path fill="#ea4335" fill-opacity="0.8" clip-path="url(#id_0)" d="M221.09628 179.0C221.09628 182.3137 218.40999 185.0 215.09628 185.0C211.78256 185.0 209.09628 182.3137 209.09628 179.0C209.09628 175.6863 211.78256 173.0 215.09628 173.0C218.40999 173.0 221.09628 175.6863 221.09628 179.0Z" fill-rule="nonzero"/><path fill="#ea4335" fill-opacity="0.8" clip-path="url(#id_0)" d="M159.59395 179.0C159.59395 182.3137 156.90765 185.0 153.59395 185.0C150.28024 185.0 147.59395 182.3137 147.59395 179.0C147.59395 175.6863 150.28024 173.0 153.59395 173.0C156.90765 173.0 159.59395 175.6863 159.59395 179.0Z" fill-rule="nonzero"/><path fill="#7baaf7" fill-opacity="0.8" clip-path="url(#id_0)" d="M540.9084 204.575C540.9084 207.8887 538.2221 210.575 534.9084 210.575C531.59467 210.575 528.9084 207.8887 528.9084 204.575C528.9084 201.26129 531.59467 198.575 534.9084 198.575C538.2221 198.575 540.9084 201.26129 540.9084 204.575Z" fill-rule="nonzero"/><path fill="#ea4335" fill-opacity="0.8" clip-path="url(#id_0)" d="M553.20886 179.0C553.20886 182.3137 550.5226 185.0 547.20886 185.0C543.89514 185.0 541.20886 182.3137 541.20886 179.0C541.20886 175.6863 543.89514 173.0 547.20886 173.0C550.5226 173.0 553.20886 175.6863 553.20886 179.0Z" fill-rule="nonzero"/><path fill="#7baaf7" fill-opacity="0.8" clip-path="url(#id_0)" d="M223.22957 204.575C223.22957 215.86024 214.08105 225.00876 202.7958 225.00876C191.51056 225.00876 182.36206 215.86024 182.36206 204.575C182.36206 193.28975 191.51056 184.14125 202.7958 184.14125C214.08105 184.14125 223.22957 193.28975 223.22957 204.575Z" fill-rule="nonzero"/><path fill="#4285f4" fill-opacity="0.8" clip-path="url(#id_0)" d="M245.6972 153.425C245.6972 156.73871 243.01091 159.425 239.6972 159.425C236.3835 159.425 233.6972 156.73871 233.6972 153.425C233.6972 150.1113 236.3835 147.425 239.6972 147.425C243.01091 147.425 245.6972 150.1113 245.6972 153.425Z" fill-rule="nonzero"/><path fill="#4285f4" fill-opacity="0.8" clip-path="url(#id_0)" d="M159.59395 153.425C159.59395 156.73871 156.90765 159.425 153.59395 159.425C150.28024 159.425 147.59395 156.73871 147.59395 153.425C147.59395 150.1113 150.28024 147.425 153.59395 147.425C156.90765 147.425 159.59395 150.1113 159.59395 153.425Z" fill-rule="nonzero"/><path fill="#34a853" fill-opacity="0.8" clip-path="url(#id_0)" d="M319.5 230.15C319.5 233.46371 316.81372 236.15 313.5 236.15C310.18628 236.15 307.5 233.46371 307.5 230.15C307.5 226.83629 310.18628 224.15 313.5 224.15C316.81372 224.15 319.5 226.83629 319.5 230.15Z" fill-rule="nonzero"/><path fill="#fcd04f" fill-opacity="0.8" clip-path="url(#id_0)" d="M110.39208 102.275C110.39208 105.58871 107.705795 108.275 104.39208 108.275C101.07838 108.275 98.39208 105.58871 98.39208 102.275C98.39208 98.96129 101.07838 96.275 104.39208 96.275C107.705795 96.275 110.39208 98.96129 110.39208 102.275Z" fill-rule="nonzero"/><path fill="#ea4335" fill-opacity="0.8" clip-path="url(#id_0)" d="M221.49535 179.0C221.49535 196.12083 207.61617 210.0 190.49535 210.0C173.37451 210.0 159.49535 196.12083 159.49535 179.0C159.49535 161.87917 173.37451 148.0 190.49535 148.0C207.61617 148.0 221.49535 161.87917 221.49535 179.0Z" fill-rule="nonzero"/><path fill="#7baaf7" fill-opacity="0.8" clip-path="url(#id_0)" d="M368.70187 204.575C368.70187 207.8887 366.01556 210.575 362.70187 210.575C359.38815 210.575 356.70187 207.8887 356.70187 204.575C356.70187 201.26129 359.38815 198.575 362.70187 198.575C366.01556 198.575 368.70187 201.26129 368.70187 204.575Z" fill-rule="nonzero"/><path fill="#7baaf7" fill-opacity="0.8" clip-path="url(#id_0)" d="M223.22957 204.575C223.22957 215.86024 214.08105 225.00876 202.7958 225.00876C191.51056 225.00876 182.36206 215.86024 182.36206 204.575C182.36206 193.28975 191.51056 184.14125 202.7958 184.14125C214.08105 184.14125 223.22957 193.28975 223.22957 204.575Z" fill-rule="nonzero"/><path fill="#ea4335" fill-opacity="0.8" clip-path="url(#id_0)" d="M315.3115 179.0C315.3115 193.58717 303.48624 205.41241 288.89908 205.41241C274.3119 205.41241 262.48666 193.58717 262.48666 179.0C262.48666 164.41283 274.3119 152.58759 288.89908 152.58759C303.48624 152.58759 315.3115 164.41283 315.3115 179.0Z" fill-rule="nonzero"/><path fill="#fcd04f" fill-opacity="0.8" clip-path="url(#id_0)" d="M147.29349 102.275C147.29349 105.58871 144.6072 108.275 141.29349 108.275C137.97977 108.275 135.29349 105.58871 135.29349 102.275C135.29349 98.96129 137.97977 96.275 141.29349 96.275C144.6072 96.275 147.29349 98.96129 147.29349 102.275Z" fill-rule="nonzero"/><path fill="#7baaf7" fill-opacity="0.8" clip-path="url(#id_0)" d="M73.49069 204.575C73.49069 207.8887 70.8044 210.575 67.49069 210.575C64.17698 210.575 61.49069 207.8887 61.49069 204.575C61.49069 201.26129 64.17698 198.575 67.49069 198.575C70.8044 198.575 73.49069 201.26129 73.49069 204.575Z" fill-rule="nonzero"/><path fill="#fcd04f" fill-opacity="0.8" clip-path="url(#id_0)" d="M171.89441 102.275C171.89441 105.58871 169.20811 108.275 165.89441 108.275C162.5807 108.275 159.89441 105.58871 159.89441 102.275C159.89441 98.96129 162.5807 96.275 165.89441 96.275C169.20811 96.275 171.89441 98.96129 171.89441 102.275Z" fill-rule="nonzero"/><path fill="#ea4335" fill-opacity="0.8" clip-path="url(#id_0)" d="M368.70187 179.0C368.70187 182.3137 366.01556 185.0 362.70187 185.0C359.38815 185.0 356.70187 182.3137 356.70187 179.0C356.70187 175.6863 359.38815 173.0 362.70187 173.0C366.01556 173.0 368.70187 175.6863 368.70187 179.0Z" fill-rule="nonzero"/><path fill="#ea4335" fill-opacity="0.8" clip-path="url(#id_0)" d="M442.50467 179.0C442.50467 182.3137 439.81836 185.0 436.50467 185.0C433.19095 185.0 430.50467 182.3137 430.50467 179.0C430.50467 175.6863 433.19095 173.0 436.50467 173.0C439.81836 173.0 442.50467 175.6863 442.50467 179.0Z" fill-rule="nonzero"/><path fill="#4285f4" fill-opacity="0.8" clip-path="url(#id_0)" d="M171.89441 153.425C171.89441 156.73871 169.20811 159.425 165.89441 159.425C162.5807 159.425 159.89441 156.73871 159.89441 153.425C159.89441 150.1113 162.5807 147.425 165.89441 147.425C169.20811 147.425 171.89441 150.1113 171.89441 153.425Z" fill-rule="nonzero"/><path fill="#7baaf7" fill-opacity="0.8" clip-path="url(#id_0)" d="M257.99768 204.575C257.99768 207.8887 255.31139 210.575 251.99767 210.575C248.68396 210.575 245.99767 207.8887 245.99767 204.575C245.99767 201.26129 248.68396 198.575 251.99767 198.575C255.31139 198.575 257.99768 201.26129 257.99768 204.575Z" fill-rule="nonzero"/><path fill="#4285f4" fill-opacity="0.8" clip-path="url(#id_0)" d="M297.03235 153.425C297.03235 164.71025 287.88385 173.85875 276.5986 173.85875C265.31335 173.85875 256.16486 164.71025 256.16486 153.425C256.16486 142.13976 265.31335 132.99124 276.5986 132.99124C287.88385 132.99124 297.03235 142.13976 297.03235 153.425Z" fill-rule="nonzero"/><path fill="#fbbc04" fill-opacity="0.8" clip-path="url(#id_0)" d="M161.72723 127.85C161.72723 139.13525 152.57874 148.28375 141.29349 148.28375C130.00822 148.28375 120.859726 139.13525 120.859726 127.85C120.859726 116.56475 130.00822 107.416245 141.29349 107.416245C152.57874 107.416245 161.72723 116.56475 161.72723 127.85Z" fill-rule="nonzero"/><path fill="#4285f4" fill-opacity="0.8" clip-path="url(#id_0)" d="M223.22957 153.425C223.22957 164.71025 214.08105 173.85875 202.7958 173.85875C191.51056 173.85875 182.36206 164.71025 182.36206 153.425C182.36206 142.13976 191.51056 132.99124 202.7958 132.99124C214.08105 132.99124 223.22957 142.13976 223.22957 153.425Z" fill-rule="nonzero"/><path fill="#4285f4" fill-opacity="0.8" clip-path="url(#id_0)" d="M110.39208 153.425C110.39208 156.73871 107.705795 159.425 104.39208 159.425C101.07838 159.425 98.39208 156.73871 98.39208 153.425C98.39208 150.1113 101.07838 147.425 104.39208 147.425C107.705795 147.425 110.39208 150.1113 110.39208 153.425Z" fill-rule="nonzero"/><path fill="#4285f4" fill-opacity="0.8" clip-path="url(#id_0)" d="M61.190224 153.425C61.190224 156.73871 58.503933 159.425 55.190224 159.425C51.876514 159.425 49.190224 156.73871 49.190224 153.425C49.190224 150.1113 51.876514 147.425 55.190224 147.425C58.503933 147.425 61.190224 150.1113 61.190224 153.425Z" fill-rule="nonzero"/><path fill="#ea4335" fill-opacity="0.8" clip-path="url(#id_0)" d="M98.09162 179.0C98.09162 182.3137 95.40533 185.0 92.09162 185.0C88.77791 185.0 86.09162 182.3137 86.09162 179.0C86.09162 175.6863 88.77791 173.0 92.09162 173.0C95.40533 173.0 98.09162 175.6863 98.09162 179.0Z" fill-rule="nonzero"/><path fill="#ea4335" fill-opacity="0.8" clip-path="url(#id_0)" d="M331.80048 179.0C331.80048 182.3137 329.11417 185.0 325.80048 185.0C322.48676 185.0 319.80048 182.3137 319.80048 179.0C319.80048 175.6863 322.48676 173.0 325.80048 173.0C329.11417 173.0 331.80048 175.6863 331.80048 179.0Z" fill-rule="nonzero"/><path fill="#4285f4" fill-opacity="0.8" clip-path="url(#id_0)" d="M210.92911 153.425C210.92911 164.71025 201.7806 173.85875 190.49535 173.85875C179.2101 173.85875 170.06158 164.71025 170.06158 153.425C170.06158 142.13976 179.2101 132.99124 190.49535 132.99124C201.7806 132.99124 210.92911 142.13976 210.92911 153.425Z" fill-rule="nonzero"/><path fill="#000000" d="M33.05 332.21564Q33.05 330.6844 33.3625 329.7625Q33.675 328.825 34.284374 328.325Q34.909374 327.825 35.846874 327.825Q36.534374 327.825 37.05 328.10626Q37.58125 328.3875 37.925 328.91876Q38.26875 329.4344 38.45625 330.1844Q38.64375 330.9344 38.64375 332.21564Q38.64375 333.73126 38.33125 334.65314Q38.034374 335.575 37.409374 336.09064Q36.8 336.59064 35.846874 336.59064Q34.6125 336.59064 33.89375 335.7Q33.05 334.6375 33.05 332.21564ZM34.128124 332.21564Q34.128124 334.325 34.628124 335.02814Q35.128124 335.73126 35.846874 335.73126Q36.58125 335.73126 37.065624 335.02814Q37.565624 334.325 37.565624 332.21564Q37.565624 330.09064 37.065624 329.40314Q36.58125 328.7 35.83125 328.7Q35.1125 328.7 34.675 329.3094Q34.128124 330.09064 34.128124 332.21564Z" fill-rule="nonzero"/><path fill="#000000" d="M38.596874 284.28436L38.596874 285.3L32.909374 285.3Q32.909374 284.925 33.034374 284.5656Q33.253124 283.9875 33.721874 283.425Q34.20625 282.8625 35.1125 282.1281Q36.51875 280.97186 37.003124 280.3Q37.503124 279.6281 37.503124 279.03436Q37.503124 278.40936 37.05 277.9875Q36.596874 277.55 35.878124 277.55Q35.1125 277.55 34.659374 278.0031Q34.20625 278.45624 34.190624 279.26874L33.1125 279.15936Q33.221874 277.9406 33.940624 277.3156Q34.675 276.675 35.909374 276.675Q37.14375 276.675 37.8625 277.3625Q38.58125 278.05 38.58125 279.0656Q38.58125 279.58124 38.3625 280.08124Q38.159374 280.5656 37.659374 281.1281Q37.175 281.675 36.05 282.6281Q35.096874 283.425 34.815624 283.72186Q34.55 284.0031 34.378124 284.28436L38.596874 284.28436Z" fill-rule="nonzero"/><path fill="#000000" d="M36.425 234.15L36.425 232.0875L32.70625 232.0875L32.70625 231.11874L36.628124 225.55624L37.4875 225.55624L37.4875 231.11874L38.64375 231.11874L38.64375 232.0875L37.4875 232.0875L37.4875 234.15L36.425 234.15ZM36.425 231.11874L36.425 227.25937L33.7375 231.11874L36.425 231.11874Z" fill-rule="nonzero"/><path fill="#000000" d="M38.51875 176.51562L37.471874 176.59375Q37.33125 175.96875 37.08125 175.6875Q36.64375 175.23438 36.01875 175.23438Q35.51875 175.23438 35.128124 175.51562Q34.64375 175.89062 34.346874 176.59375Q34.065624 177.28125 34.05 178.5625Q34.425 177.98438 34.971874 177.70312Q35.534374 177.42188 36.14375 177.42188Q37.190624 177.42188 37.925 178.20312Q38.675 178.98438 38.675 180.20312Q38.675 181.01562 38.315624 181.71875Q37.971874 182.40625 37.3625 182.78125Q36.753124 183.14062 35.9875 183.14062Q34.659374 183.14062 33.83125 182.17188Q33.003124 181.20312 33.003124 178.98438Q33.003124 176.48438 33.925 175.35938Q34.721874 174.375 36.08125 174.375Q37.096874 174.375 37.7375 174.95312Q38.39375 175.51562 38.51875 176.51562ZM34.221874 180.21875Q34.221874 180.76562 34.440624 181.26562Q34.675 181.75 35.08125 182.01562Q35.503124 182.28125 35.971874 182.28125Q36.628124 182.28125 37.1125 181.75Q37.596874 181.20312 37.596874 180.28125Q37.596874 179.39062 37.1125 178.875Q36.64375 178.35938 35.925 178.35938Q35.20625 178.35938 34.70625 178.875Q34.221874 179.39062 34.221874 180.21875Z" fill-rule="nonzero"/><path fill="#000000" d="M34.675 127.193756Q34.01875 126.943756 33.690624 126.506256Q33.378124 126.05313 33.378124 125.443756Q33.378124 124.506256 34.05 123.86563Q34.7375 123.225006 35.846874 123.225006Q36.971874 123.225006 37.659374 123.881256Q38.346874 124.537506 38.346874 125.475006Q38.346874 126.068756 38.034374 126.506256Q37.721874 126.943756 37.08125 127.193756Q37.878124 127.443756 38.284374 128.02188Q38.690624 128.6 38.690624 129.39688Q38.690624 130.49063 37.909374 131.24063Q37.14375 131.99063 35.8625 131.99063Q34.596874 131.99063 33.815624 131.24063Q33.034374 130.49063 33.034374 129.36563Q33.034374 128.52188 33.45625 127.95938Q33.89375 127.39688 34.675 127.193756ZM34.45625 125.39688Q34.45625 126.006256 34.846874 126.39688Q35.253124 126.787506 35.878124 126.787506Q36.4875 126.787506 36.878124 126.412506Q37.26875 126.02188 37.26875 125.45938Q37.26875 124.881256 36.8625 124.49063Q36.45625 124.08438 35.8625 124.08438Q35.253124 124.08438 34.846874 124.475006Q34.45625 124.86563 34.45625 125.39688ZM34.128124 129.36563Q34.128124 129.81876 34.33125 130.24063Q34.55 130.6625 34.971874 130.89688Q35.39375 131.13126 35.878124 131.13126Q36.628124 131.13126 37.1125 130.64688Q37.6125 130.1625 37.6125 129.4125Q37.6125 128.64688 37.1125 128.14688Q36.6125 127.64688 35.846874 127.64688Q35.096874 127.64688 34.6125 128.14688Q34.128124 128.63126 34.128124 129.36563Z" fill-rule="nonzero"/><path fill="#000000" d="M30.01875 80.7L28.971874 80.7L28.971874 73.98125Q28.58125 74.34062 27.95625 74.71562Q27.346874 75.075 26.8625 75.24687L26.8625 74.23125Q27.7375 73.80937 28.39375 73.23125Q29.065624 72.6375 29.346874 72.075L30.01875 72.075L30.01875 80.7ZM33.05 76.46562Q33.05 74.93437 33.3625 74.0125Q33.675 73.075 34.284374 72.575Q34.909374 72.075 35.846874 72.075Q36.534374 72.075 37.05 72.35625Q37.58125 72.6375 37.925 73.16875Q38.26875 73.68437 38.45625 74.43437Q38.64375 75.18437 38.64375 76.46562Q38.64375 77.98125 38.33125 78.90312Q38.034374 79.825 37.409374 80.34062Q36.8 80.84062 35.846874 80.84062Q34.6125 80.84062 33.89375 79.95Q33.05 78.8875 33.05 76.46562ZM34.128124 76.46562Q34.128124 78.575 34.628124 79.27812Q35.128124 79.98125 35.846874 79.98125Q36.58125 79.98125 37.065624 79.27812Q37.565624 78.575 37.565624 76.46562Q37.565624 74.34062 37.065624 73.65312Q36.58125 72.95 35.83125 72.95Q35.1125 72.95 34.675 73.55937Q34.128124 74.34062 34.128124 76.46562Z" fill-rule="nonzero"/><path fill="#000000" d="M30.01875 29.55L28.971874 29.55L28.971874 22.83125Q28.58125 23.190624 27.95625 23.565624Q27.346874 23.925 26.8625 24.096874L26.8625 23.08125Q27.7375 22.659374 28.39375 22.08125Q29.065624 21.4875 29.346874 20.925L30.01875 20.925L30.01875 29.55ZM38.596874 28.534374L38.596874 29.55L32.909374 29.55Q32.909374 29.175 33.034374 28.815624Q33.253124 28.2375 33.721874 27.675Q34.20625 27.1125 35.1125 26.378124Q36.51875 25.221874 37.003124 24.55Q37.503124 23.878124 37.503124 23.284374Q37.503124 22.659374 37.05 22.2375Q36.596874 21.8 35.878124 21.8Q35.1125 21.8 34.659374 22.253124Q34.20625 22.70625 34.190624 23.51875L33.1125 23.409374Q33.221874 22.190624 33.940624 21.565624Q34.675 20.925 35.909374 20.925Q37.14375 20.925 37.8625 21.6125Q38.58125 22.3 38.58125 23.315624Q38.58125 23.83125 38.3625 24.33125Q38.159374 24.815624 37.659374 25.378124Q37.175 25.925 36.05 26.878124Q35.096874 27.675 34.815624 27.971874Q34.55 28.253124 34.378124 28.534374L38.596874 28.534374Z" fill-rule="nonzero"/><path fill="#000000" d="M103.43896 348.4344L103.43896 349.45L97.75146 349.45Q97.75146 349.075 97.87646 348.71564Q98.09521 348.1375 98.56396 347.575Q99.04833 347.0125 99.95458 346.27814Q101.36083 345.1219 101.84521 344.45Q102.34521 343.77814 102.34521 343.1844Q102.34521 342.5594 101.89208 342.1375Q101.43896 341.7 100.72021 341.7Q99.95458 341.7 99.50146 342.15314Q99.04833 342.60626 99.03271 343.41876L97.95458 343.3094Q98.06396 342.09064 98.78271 341.46564Q99.51708 340.825 100.75146 340.825Q101.98583 340.825 102.70458 341.5125Q103.42333 342.2 103.42333 343.21564Q103.42333 343.73126 103.20458 344.23126Q103.00146 344.71564 102.50146 345.27814Q102.01708 345.825 100.89208 346.77814Q99.93896 347.575 99.65771 347.8719Q99.39208 348.15314 99.22021 348.4344L103.43896 348.4344ZM104.89208 345.21564Q104.89208 343.6844 105.20458 342.7625Q105.51708 341.825 106.12646 341.325Q106.75146 340.825 107.68896 340.825Q108.37646 340.825 108.89208 341.10626Q109.42333 341.3875 109.76708 341.91876Q110.11083 342.4344 110.29833 343.1844Q110.48583 343.9344 110.48583 345.21564Q110.48583 346.73126 110.17333 347.65314Q109.87646 348.575 109.25146 349.09064Q108.64208 349.59064 107.68896 349.59064Q106.45458 349.59064 105.73583 348.7Q104.89208 347.6375 104.89208 345.21564ZM105.97021 345.21564Q105.97021 347.325 106.47021 348.02814Q106.97021 348.73126 107.68896 348.73126Q108.42333 348.73126 108.90771 348.02814Q109.40771 347.325 109.40771 345.21564Q109.40771 343.09064 108.90771 342.40314Q108.42333 341.7 107.67333 341.7Q106.95458 341.7 106.51708 342.3094Q105.97021 343.09064 105.97021 345.21564Z" fill-rule="nonzero"/><path fill="#000000" d="M220.89674 347.1844L221.95924 347.04376Q222.13112 347.9344 222.56862 348.34064Q223.00612 348.73126 223.63112 348.73126Q224.38112 348.73126 224.89674 348.21564Q225.41237 347.7 225.41237 346.9344Q225.41237 346.21564 224.928 345.7469Q224.45924 345.2625 223.72487 345.2625Q223.428 345.2625 222.97487 345.3875L223.09987 344.45Q223.20924 344.46564 223.27174 344.46564Q223.94362 344.46564 224.47487 344.1219Q225.02174 343.7625 225.02174 343.02814Q225.02174 342.45 224.63112 342.075Q224.2405 341.6844 223.6155 341.6844Q223.00612 341.6844 222.58424 342.075Q222.178 342.46564 222.06862 343.23126L221.00612 343.04376Q221.19362 341.9969 221.88112 341.41876Q222.56862 340.825 223.58424 340.825Q224.28737 340.825 224.88112 341.1375Q225.47487 341.4344 225.78737 341.95Q226.09987 342.46564 226.09987 343.0594Q226.09987 343.60626 225.803 344.075Q225.50612 344.52814 224.928 344.79376Q225.678 344.96564 226.09987 345.52814Q226.52174 346.075 226.52174 346.91876Q226.52174 348.04376 225.69362 348.825Q224.88112 349.60626 223.63112 349.60626Q222.50612 349.60626 221.75612 348.9344Q221.00612 348.2469 220.89674 347.1844ZM227.89674 345.21564Q227.89674 343.6844 228.20924 342.7625Q228.52174 341.825 229.13112 341.325Q229.75612 340.825 230.69362 340.825Q231.38112 340.825 231.89674 341.10626Q232.428 341.3875 232.77174 341.91876Q233.1155 342.4344 233.303 343.1844Q233.4905 343.9344 233.4905 345.21564Q233.4905 346.73126 233.178 347.65314Q232.88112 348.575 232.25612 349.09064Q231.64674 349.59064 230.69362 349.59064Q229.45924 349.59064 228.7405 348.7Q227.89674 347.6375 227.89674 345.21564ZM228.97487 345.21564Q228.97487 347.325 229.47487 348.02814Q229.97487 348.73126 230.69362 348.73126Q231.428 348.73126 231.91237 348.02814Q232.41237 347.325 232.41237 345.21564Q232.41237 343.09064 231.91237 342.40314Q231.428 341.7 230.678 341.7Q229.95924 341.7 229.52174 342.3094Q228.97487 343.09064 228.97487 345.21564Z" fill-rule="nonzero"/><path fill="#000000" d="M347.2764 349.45L347.2764 347.3875L343.55765 347.3875L343.55765 346.41876L347.47952 340.85626L348.3389 340.85626L348.3389 346.41876L349.49515 346.41876L349.49515 347.3875L348.3389 347.3875L348.3389 349.45L347.2764 349.45ZM347.2764 346.41876L347.2764 342.5594L344.5889 346.41876L347.2764 346.41876ZM350.9014 345.21564Q350.9014 343.6844 351.2139 342.7625Q351.5264 341.825 352.13577 341.325Q352.76077 340.825 353.69827 340.825Q354.38577 340.825 354.9014 341.10626Q355.43265 341.3875 355.7764 341.91876Q356.12015 342.4344 356.30765 343.1844Q356.49515 343.9344 356.49515 345.21564Q356.49515 346.73126 356.18265 347.65314Q355.88577 348.575 355.26077 349.09064Q354.6514 349.59064 353.69827 349.59064Q352.4639 349.59064 351.74515 348.7Q350.9014 347.6375 350.9014 345.21564ZM351.97952 345.21564Q351.97952 347.325 352.47952 348.02814Q352.97952 348.73126 353.69827 348.73126Q354.43265 348.73126 354.91702 348.02814Q355.41702 347.325 355.41702 345.21564Q355.41702 343.09064 354.91702 342.40314Q354.43265 341.7 353.68265 341.7Q352.9639 341.7 352.5264 342.3094Q351.97952 343.09064 351.97952 345.21564Z" fill-rule="nonzero"/><path fill="#000000" d="M466.90607 347.2L468.01544 347.10626Q468.14044 347.91876 468.57794 348.325Q469.03107 348.73126 469.6717 348.73126Q470.4217 348.73126 470.95294 348.15314Q471.4842 347.575 471.4842 346.6375Q471.4842 345.73126 470.96857 345.21564Q470.46857 344.6844 469.64044 344.6844Q469.14044 344.6844 468.71857 344.91876Q468.31232 345.15314 468.07794 345.5125L467.09357 345.3875L467.9217 340.98126L472.20294 340.98126L472.20294 341.98126L468.76544 341.98126L468.31232 344.29376Q469.07794 343.7469 469.9217 343.7469Q471.0467 343.7469 471.81232 344.52814Q472.59357 345.3094 472.59357 346.54376Q472.59357 347.7 471.9217 348.5594Q471.09357 349.59064 469.6717 349.59064Q468.49982 349.59064 467.74982 348.9344Q467.01544 348.27814 466.90607 347.2ZM473.90607 345.21564Q473.90607 343.6844 474.21857 342.7625Q474.53107 341.825 475.14044 341.325Q475.76544 340.825 476.70294 340.825Q477.39044 340.825 477.90607 341.10626Q478.43732 341.3875 478.78107 341.91876Q479.12482 342.4344 479.31232 343.1844Q479.49982 343.9344 479.49982 345.21564Q479.49982 346.73126 479.18732 347.65314Q478.89044 348.575 478.26544 349.09064Q477.65607 349.59064 476.70294 349.59064Q475.46857 349.59064 474.74982 348.7Q473.90607 347.6375 473.90607 345.21564ZM474.9842 345.21564Q474.9842 347.325 475.4842 348.02814Q475.9842 348.73126 476.70294 348.73126Q477.43732 348.73126 477.9217 348.02814Q478.4217 347.325 478.4217 345.21564Q478.4217 343.09064 477.9217 342.40314Q477.43732 341.7 476.68732 341.7Q475.96857 341.7 475.53107 342.3094Q474.9842 343.09064 474.9842 345.21564Z" fill-rule="nonzero"/></svg>