<svg version="1.1" viewBox="0.0 0.0 600.0 371.0" fill="none" stroke="none" stroke-linecap="square" stroke-miterlimit="10" width="600" height="371" xmlns:xlink="http://www.w3.org/1999/xlink" xmlns="http://www.w3.org/2000/svg"><path fill="#ffffff" d="M0 0L600.0 0L600.0 371.0L0 371.0L0 0Z" fill-rule="nonzero"/><path stroke="#cccccc" stroke-width="1.0" stroke-linecap="butt" d="M55.5 25.5L55.5 332.5" fill-rule="nonzero"/><path stroke="#cccccc" stroke-width="1.0" stroke-linecap="butt" d="M150.5 25.5L150.5 332.5" fill-rule="nonzero"/><path stroke="#cccccc" stroke-width="1.0" stroke-linecap="butt" d="M246.5 25.5L246.5 332.5" fill-rule="nonzero"/><path stroke="#cccccc" stroke-width="1.0" stroke-linecap="butt" d="M342.5 25.5L342.5 332.5" fill-rule="nonzero"/><path stroke="#cccccc" stroke-width="1.0" stroke-linecap="butt" d="M437.5 25.5L437.5 332.5" fill-rule="nonzero"/><path stroke="#cccccc" stroke-width="1.0" stroke-linecap="butt" d="M533.5 25.5L533.5 332.5" fill-rule="nonzero"/><path stroke="#333333" stroke-width="1.0" stroke-linecap="butt" d="M45.5 332.5L581.5 332.5" fill-rule="nonzero"/><path stroke="#cccccc" stroke-width="1.0" stroke-linecap="butt" d="M45.5 281.5L581.5 281.5" fill-rule="nonzero"/><path stroke="#cccccc" stroke-width="1.0" stroke-linecap="butt" d="M45.5 230.5L581.5 230.5" fill-rule="nonzero"/><path stroke="#cccccc" stroke-width="1.0" stroke-linecap="butt" d="M45.5 179.5L581.5 179.5" fill-rule="nonzero"/><path stroke="#cccccc" stroke-width="1.0" stroke-linecap="butt" d="M45.5 127.5L581.5 127.5" fill-rule="nonzero"/><path stroke="#cccccc" stroke-width="1.0" stroke-linecap="butt" d="M45.5 76.5L581.5 76.5" fill-rule="nonzero"/><path stroke="#cccccc" stroke-width="1.0" stroke-linecap="butt" d="M45.5 25.5L581.5 25.5" fill-rule="nonzero"/><clipPath id="id_0"><path d="M45.55 25.55L581.45 25.55L581.45 332.45L45.55 332.45L45.55 25.55Z" clip-rule="nonzero"/></clipPath><path fill="#4285f4" fill-opacity="0.8" clip-path="url(#id_0)" d="M279.77548 127.85C279.77548 140.92682 269.17465 151.52766 256.09784 151.52766C243.02101 151.52766 232.42015 140.92682 232.42015 127.85C232.42015 114.773186 243.02101 104.17233 256.09784 104.17233C269.17465 104.17233 279.77548 114.773186 279.77548 127.85Z" fill-rule="nonzero"/><path fill="#4285f4" fill-opacity="0.8" clip-path="url(#id_0)" d="M375.44577 127.85C375.44577 140.92682 364.84494 151.52766 351.76813 151.52766C338.69128 151.52766 328.09045 140.92682 328.09045 127.85C328.09045 114.773186 338.69128 104.17233 351.76813 104.17233C364.84494 104.17233 375.44577 114.773186 375.44577 127.85Z" fill-rule="nonzero"/><path fill="#4285f4" fill-opacity="0.8" clip-path="url(#id_0)" d="M309.93298 127.85C309.93298 131.16371 307.24667 133.85 303.93298 133.85C300.61926 133.85 297.93298 131.16371 297.93298 127.85C297.93298 124.53629 300.61926 121.85 303.93298 121.85C307.24667 121.85 309.93298 124.53629 309.93298 127.85Z" fill-rule="nonzero"/><path fill="#ea4335" fill-opacity="0.8" clip-path="url(#id_0)" d="M357.76813 102.275C357.76813 105.58871 355.08182 108.275 351.76813 108.275C348.4544 108.275 345.76813 105.58871 345.76813 102.275C345.76813 98.96129 348.4544 96.275 351.76813 96.275C355.08182 96.275 357.76813 98.96129 357.76813 102.275Z" fill-rule="nonzero"/><path fill="#ea4335" fill-opacity="0.8" clip-path="url(#id_0)" d="M318.0436 102.275C318.0436 115.351814 307.44275 125.95267 294.36594 125.95267C281.28912 125.95267 270.68826 115.351814 270.68826 102.275C270.68826 89.19818 281.28912 78.59733 294.36594 78.59733C307.44275 78.59733 318.0436 89.19818 318.0436 102.275Z" fill-rule="nonzero"/><path fill="#fbbc04" fill-opacity="0.8" clip-path="url(#id_0)" d="M214.26268 179.0C214.26268 182.3137 211.57639 185.0 208.26268 185.0C204.94897 185.0 202.26268 182.3137 202.26268 179.0C202.26268 175.6863 204.94897 173.0 208.26268 173.0C211.57639 173.0 214.26268 175.6863 214.26268 179.0Z" fill-rule="nonzero"/><path fill="#34a853" fill-opacity="0.8" clip-path="url(#id_0)" d="M329.06702 255.725C329.06702 259.0387 326.38074 261.725 323.06702 261.725C319.75333 261.725 317.06702 259.0387 317.06702 255.725C317.06702 252.41129 319.75333 249.725 323.06702 249.725C326.38074 249.725 329.06702 252.41129 329.06702 255.725Z" fill-rule="nonzero"/><path fill="#fbbc04" fill-opacity="0.8" clip-path="url(#id_0)" d="M271.66486 179.0C271.66486 182.3137 268.97858 185.0 265.66486 185.0C262.35114 185.0 259.66486 182.3137 259.66486 179.0C259.66486 175.6863 262.35114 173.0 265.66486 173.0C268.97858 173.0 271.66486 175.6863 271.66486 179.0Z" fill-rule="nonzero"/><path fill="#fbbc04" fill-opacity="0.8" clip-path="url(#id_0)" d="M367.33514 179.0C367.33514 182.3137 364.64886 185.0 361.33514 185.0C358.02142 185.0 355.33514 182.3137 355.33514 179.0C355.33514 175.6863 358.02142 173.0 361.33514 173.0C364.64886 173.0 367.33514 175.6863 367.33514 179.0Z" fill-rule="nonzero"/><path fill="#ff6d01" fill-opacity="0.8" clip-path="url(#id_0)" d="M260.64145 153.425C260.64145 166.50182 250.04059 177.10268 236.96378 177.10268C223.88695 177.10268 213.2861 166.50182 213.2861 153.425C213.2861 140.34819 223.88695 129.74733 236.96378 129.74733C250.04059 129.74733 260.64145 140.34819 260.64145 153.425Z" fill-rule="nonzero"/><path fill="#4285f4" fill-opacity="0.8" clip-path="url(#id_0)" d="M298.90955 127.85C298.90955 140.92682 288.30872 151.52766 275.23187 151.52766C262.15506 151.52766 251.55421 140.92682 251.55421 127.85C251.55421 114.773186 262.15506 104.17233 275.23187 104.17233C288.30872 104.17233 298.90955 114.773186 298.90955 127.85Z" fill-rule="nonzero"/><path fill="#ff6d01" fill-opacity="0.8" clip-path="url(#id_0)" d="M306.23187 153.425C306.23187 170.54582 292.35272 184.425 275.23187 184.425C258.11105 184.425 244.23189 170.54582 244.23189 153.425C244.23189 136.30417 258.11105 122.425 275.23187 122.425C292.35272 122.425 306.23187 136.30417 306.23187 153.425Z" fill-rule="nonzero"/><path fill="#fbbc04" fill-opacity="0.8" clip-path="url(#id_0)" d="M482.1395 179.0C482.1395 182.3137 479.4532 185.0 476.1395 185.0C472.82578 185.0 470.1395 182.3137 470.1395 179.0C470.1395 175.6863 472.82578 173.0 476.1395 173.0C479.4532 173.0 482.1395 175.6863 482.1395 179.0Z" fill-rule="nonzero"/><path fill="#4285f4" fill-opacity="0.8" clip-path="url(#id_0)" d="M376.90216 127.85C376.90216 131.16371 374.21588 133.85 370.90216 133.85C367.58847 133.85 364.90216 131.16371 364.90216 127.85C364.90216 124.53629 367.58847 121.85 370.90216 121.85C374.21588 121.85 376.90216 124.53629 376.90216 127.85Z" fill-rule="nonzero"/><path fill="#ff6d01" fill-opacity="0.8" clip-path="url(#id_0)" d="M354.06702 153.425C354.06702 170.54582 340.18787 184.425 323.06702 184.425C305.9462 184.425 292.06702 170.54582 292.06702 153.425C292.06702 136.30417 305.9462 122.425 323.06702 122.425C340.18787 122.425 354.06702 136.30417 354.06702 153.425Z" fill-rule="nonzero"/><path fill="#46bdc6" fill-opacity="0.8" clip-path="url(#id_0)" d="M252.53079 76.7C252.53079 80.01371 249.84451 82.7 246.53079 82.7C243.21709 82.7 240.53079 80.01371 240.53079 76.7C240.53079 73.38629 243.21709 70.7 246.53079 70.7C249.84451 70.7 252.53079 73.38629 252.53079 76.7Z" fill-rule="nonzero"/><path fill="#ea4335" fill-opacity="0.8" clip-path="url(#id_0)" d="M365.87875 102.275C365.87875 115.351814 355.2779 125.95267 342.20108 125.95267C329.12427 125.95267 318.5234 115.351814 318.5234 102.275C318.5234 89.19818 329.12427 78.59733 342.20108 78.59733C355.2779 78.59733 365.87875 89.19818 365.87875 102.275Z" fill-rule="nonzero"/><path fill="#ea4335" fill-opacity="0.8" clip-path="url(#id_0)" d="M166.42754 102.275C166.42754 105.58871 163.74124 108.275 160.42754 108.275C157.11383 108.275 154.42754 105.58871 154.42754 102.275C154.42754 98.96129 157.11383 96.275 160.42754 96.275C163.74124 96.275 166.42754 98.96129 166.42754 102.275Z" fill-rule="nonzero"/><path fill="#4285f4" fill-opacity="0.8" clip-path="url(#id_0)" d="M443.87137 127.85C443.87137 131.16371 441.1851 133.85 437.87137 133.85C434.55768 133.85 431.87137 131.16371 431.87137 127.85C431.87137 124.53629 434.55768 121.85 437.87137 121.85C441.1851 121.85 443.87137 124.53629 443.87137 127.85Z" fill-rule="nonzero"/><path fill="#ff6d01" fill-opacity="0.8" clip-path="url(#id_0)" d="M354.06702 153.425C354.06702 170.54582 340.18787 184.425 323.06702 184.425C305.9462 184.425 292.06702 170.54582 292.06702 153.425C292.06702 136.30417 305.9462 122.425 323.06702 122.425C340.18787 122.425 354.06702 136.30417 354.06702 153.425Z" fill-rule="nonzero"/><path fill="#4285f4" fill-opacity="0.8" clip-path="url(#id_0)" d="M356.31174 127.85C356.31174 140.92682 345.71088 151.52766 332.63406 151.52766C319.55725 151.52766 308.9564 140.92682 308.9564 127.85C308.9564 114.773186 319.55725 104.17233 332.63406 104.17233C345.71088 104.17233 356.31174 114.773186 356.31174 127.85Z" fill-rule="nonzero"/><path fill="#fbbc04" fill-opacity="0.8" clip-path="url(#id_0)" d="M453.43842 179.0C453.43842 182.3137 450.7521 185.0 447.43842 185.0C444.1247 185.0 441.43842 182.3137 441.43842 179.0C441.43842 175.6863 444.1247 173.0 447.43842 173.0C450.7521 173.0 453.43842 175.6863 453.43842 179.0Z" fill-rule="nonzero"/><path fill="#4285f4" fill-opacity="0.8" clip-path="url(#id_0)" d="M392.33514 127.85C392.33514 144.97083 378.45596 158.85 361.33514 158.85C344.21432 158.85 330.33514 144.97083 330.33514 127.85C330.33514 110.72917 344.21432 96.85 361.33514 96.85C378.45596 96.85 392.33514 110.72917 392.33514 127.85Z" fill-rule="nonzero"/><path fill="#7baaf7" fill-opacity="0.8" clip-path="url(#id_0)" d="M338.63406 230.15C338.63406 233.46371 335.94775 236.15 332.63406 236.15C329.32034 236.15 326.63406 233.46371 326.63406 230.15C326.63406 226.83629 329.32034 224.15 332.63406 224.15C335.94775 224.15 338.63406 226.83629 338.63406 230.15Z" fill-rule="nonzero"/><path fill="#ff6d01" fill-opacity="0.8" clip-path="url(#id_0)" d="M309.93298 153.425C309.93298 156.73871 307.24667 159.425 303.93298 159.425C300.61926 159.425 297.93298 156.73871 297.93298 153.425C297.93298 150.1113 300.61926 147.425 303.93298 147.425C307.24667 147.425 309.93298 150.1113 309.93298 153.425Z" fill-rule="nonzero"/><path fill="#fbbc04" fill-opacity="0.8" clip-path="url(#id_0)" d="M488.00543 179.0C488.00543 196.12083 474.12625 210.0 457.00543 210.0C439.8846 210.0 426.00543 196.12083 426.00543 179.0C426.00543 161.87917 439.8846 148.0 457.00543 148.0C474.12625 148.0 488.00543 161.87917 488.00543 179.0Z" fill-rule="nonzero"/><path fill="#f07b72" fill-opacity="0.8" clip-path="url(#id_0)" d="M367.33514 204.575C367.33514 207.8887 364.64886 210.575 361.33514 210.575C358.02142 210.575 355.33514 207.8887 355.33514 204.575C355.33514 201.26129 358.02142 198.575 361.33514 198.575C364.64886 198.575 367.33514 201.26129 367.33514 204.575Z" fill-rule="nonzero"/><path fill="#fbbc04" fill-opacity="0.8" clip-path="url(#id_0)" d="M488.00543 179.0C488.00543 196.12083 474.12625 210.0 457.00543 210.0C439.8846 210.0 426.00543 196.12083 426.00543 179.0C426.00543 161.87917 439.8846 148.0 457.00543 148.0C474.12625 148.0 488.00543 161.87917 488.00543 179.0Z" fill-rule="nonzero"/><path fill="#4285f4" fill-opacity="0.8" clip-path="url(#id_0)" d="M356.31174 127.85C356.31174 140.92682 345.71088 151.52766 332.63406 151.52766C319.55725 151.52766 308.9564 140.92682 308.9564 127.85C308.9564 114.773186 319.55725 104.17233 332.63406 104.17233C345.71088 104.17233 356.31174 114.773186 356.31174 127.85Z" fill-rule="nonzero"/><path fill="#4285f4" fill-opacity="0.8" clip-path="url(#id_0)" d="M344.5 127.85C344.5 144.97083 330.62082 158.85 313.5 158.85C296.37918 158.85 282.5 144.97083 282.5 127.85C282.5 110.72917 296.37918 96.85 313.5 96.85C330.62082 96.85 344.5 110.72917 344.5 127.85Z" fill-rule="nonzero"/><path fill="#f07b72" fill-opacity="0.8" clip-path="url(#id_0)" d="M482.1395 204.575C482.1395 207.8887 479.4532 210.575 476.1395 210.575C472.82578 210.575 470.1395 207.8887 470.1395 204.575C470.1395 201.26129 472.82578 198.575 476.1395 198.575C479.4532 198.575 482.1395 201.26129 482.1395 204.575Z" fill-rule="nonzero"/><path fill="#34a853" fill-opacity="0.8" clip-path="url(#id_0)" d="M262.09784 255.725C262.09784 259.0387 259.41153 261.725 256.09784 261.725C252.78412 261.725 250.09782 259.0387 250.09782 255.725C250.09782 252.41129 252.78412 249.725 256.09784 249.725C259.41153 249.725 262.09784 252.41129 262.09784 255.725Z" fill-rule="nonzero"/><path fill="#46bdc6" fill-opacity="0.8" clip-path="url(#id_0)" d="M443.87137 76.7C443.87137 80.01371 441.1851 82.7 437.87137 82.7C434.55768 82.7 431.87137 80.01371 431.87137 76.7C431.87137 73.38629 434.55768 70.7 437.87137 70.7C441.1851 70.7 443.87137 73.38629 443.87137 76.7Z" fill-rule="nonzero"/><path fill="#f07b72" fill-opacity="0.8" clip-path="url(#id_0)" d="M396.03622 204.575C396.03622 207.8887 393.34995 210.575 390.03622 210.575C386.72253 210.575 384.03622 207.8887 384.03622 204.575C384.03622 201.26129 386.72253 198.575 390.03622 198.575C393.34995 198.575 396.03622 201.26129 396.03622 204.575Z" fill-rule="nonzero"/><path fill="#ea4335" fill-opacity="0.8" clip-path="url(#id_0)" d="M396.03622 102.275C396.03622 105.58871 393.34995 108.275 390.03622 108.275C386.72253 108.275 384.03622 105.58871 384.03622 102.275C384.03622 98.96129 386.72253 96.275 390.03622 96.275C393.34995 96.275 396.03622 98.96129 396.03622 102.275Z" fill-rule="nonzero"/><path fill="#34a853" fill-opacity="0.8" clip-path="url(#id_0)" d="M415.1703 255.725C415.1703 259.0387 412.484 261.725 409.1703 261.725C405.85657 261.725 403.1703 259.0387 403.1703 255.725C403.1703 252.41129 405.85657 249.725 409.1703 249.725C412.484 249.725 415.1703 252.41129 415.1703 255.725Z" fill-rule="nonzero"/><path fill="#4285f4" fill-opacity="0.8" clip-path="url(#id_0)" d="M386.4692 127.85C386.4692 131.16371 383.7829 133.85 380.4692 133.85C377.1555 133.85 374.4692 131.16371 374.4692 127.85C374.4692 124.53629 377.1555 121.85 380.4692 121.85C383.7829 121.85 386.4692 124.53629 386.4692 127.85Z" fill-rule="nonzero"/><path fill="#ff6d01" fill-opacity="0.8" clip-path="url(#id_0)" d="M241.50739 153.425C241.50739 166.50182 230.90652 177.10268 217.82971 177.10268C204.7529 177.10268 194.15204 166.50182 194.15204 153.425C194.15204 140.34819 204.7529 129.74733 217.82971 129.74733C230.90652 129.74733 241.50739 140.34819 241.50739 153.425Z" fill-rule="nonzero"/><path fill="#f07b72" fill-opacity="0.8" clip-path="url(#id_0)" d="M61.190224 204.575C61.190224 207.8887 58.503933 210.575 55.190224 210.575C51.876514 210.575 49.190224 207.8887 49.190224 204.575C49.190224 201.26129 51.876514 198.575 55.190224 198.575C58.503933 198.575 61.190224 201.26129 61.190224 204.575Z" fill-rule="nonzero"/><path fill="#fbbc04" fill-opacity="0.8" clip-path="url(#id_0)" d="M488.00543 179.0C488.00543 196.12083 474.12625 210.0 457.00543 210.0C439.8846 210.0 426.00543 196.12083 426.00543 179.0C426.00543 161.87917 439.8846 148.0 457.00543 148.0C474.12625 148.0 488.00543 161.87917 488.00543 179.0Z" fill-rule="nonzero"/><path fill="#4285f4" fill-opacity="0.8" clip-path="url(#id_0)" d="M175.99457 127.85C175.99457 131.16371 173.30827 133.85 169.99457 133.85C166.68086 133.85 163.99457 131.16371 163.99457 127.85C163.99457 124.53629 166.68086 121.85 169.99457 121.85C173.30827 121.85 175.99457 124.53629 175.99457 127.85Z" fill-rule="nonzero"/><path fill="#4285f4" fill-opacity="0.8" clip-path="url(#id_0)" d="M344.5 127.85C344.5 144.97083 330.62082 158.85 313.5 158.85C296.37918 158.85 282.5 144.97083 282.5 127.85C282.5 110.72917 296.37918 96.85 313.5 96.85C330.62082 96.85 344.5 110.72917 344.5 127.85Z" fill-rule="nonzero"/><path fill="#ff6d01" fill-opacity="0.8" clip-path="url(#id_0)" d="M471.11606 153.425C471.11606 166.50182 460.51523 177.10268 447.43842 177.10268C434.36157 177.10268 423.76074 166.50182 423.76074 153.425C423.76074 140.34819 434.36157 129.74733 447.43842 129.74733C460.51523 129.74733 471.11606 140.34819 471.11606 153.425Z" fill-rule="nonzero"/><path fill="#ff6d01" fill-opacity="0.8" clip-path="url(#id_0)" d="M376.90216 153.425C376.90216 156.73871 374.21588 159.425 370.90216 159.425C367.58847 159.425 364.90216 156.73871 364.90216 153.425C364.90216 150.1113 367.58847 147.425 370.90216 147.425C374.21588 147.425 376.90216 150.1113 376.90216 153.425Z" fill-rule="nonzero"/><path fill="#fbbc04" fill-opacity="0.8" clip-path="url(#id_0)" d="M365.87875 179.0C365.87875 192.07681 355.2779 202.67767 342.20108 202.67767C329.12427 202.67767 318.5234 192.07681 318.5234 179.0C318.5234 165.92319 329.12427 155.32233 342.20108 155.32233C355.2779 155.32233 365.87875 165.92319 365.87875 179.0Z" fill-rule="nonzero"/><path fill="#fbbc04" fill-opacity="0.8" clip-path="url(#id_0)" d="M281.23187 179.0C281.23187 182.3137 278.5456 185.0 275.23187 185.0C271.91818 185.0 269.23187 182.3137 269.23187 179.0C269.23187 175.6863 271.91818 173.0 275.23187 173.0C278.5456 173.0 281.23187 175.6863 281.23187 179.0Z" fill-rule="nonzero"/><path fill="#ff6d01" fill-opacity="0.8" clip-path="url(#id_0)" d="M405.60327 153.425C405.60327 156.73871 402.91696 159.425 399.60327 159.425C396.28955 159.425 393.60327 156.73871 393.60327 153.425C393.60327 150.1113 396.28955 147.425 399.60327 147.425C402.91696 147.425 405.60327 150.1113 405.60327 153.425Z" fill-rule="nonzero"/><path fill="#ff6d01" fill-opacity="0.8" clip-path="url(#id_0)" d="M491.7065 153.425C491.7065 156.73871 489.02023 159.425 485.7065 159.425C482.39282 159.425 479.7065 156.73871 479.7065 153.425C479.7065 150.1113 482.39282 147.425 485.7065 147.425C489.02023 147.425 491.7065 150.1113 491.7065 153.425Z" fill-rule="nonzero"/><path fill="#4285f4" fill-opacity="0.8" clip-path="url(#id_0)" d="M290.79892 127.85C290.79892 131.16371 288.1126 133.85 284.79892 133.85C281.4852 133.85 278.79892 131.16371 278.79892 127.85C278.79892 124.53629 281.4852 121.85 284.79892 121.85C288.1126 121.85 290.79892 124.53629 290.79892 127.85Z" fill-rule="nonzero"/><path fill="#ff6d01" fill-opacity="0.8" clip-path="url(#id_0)" d="M308.4766 153.425C308.4766 166.50182 297.87573 177.10268 284.79892 177.10268C271.7221 177.10268 261.12125 166.50182 261.12125 153.425C261.12125 140.34819 271.7221 129.74733 284.79892 129.74733C297.87573 129.74733 308.4766 140.34819 308.4766 153.425Z" fill-rule="nonzero"/><path fill="#4285f4" fill-opacity="0.8" clip-path="url(#id_0)" d="M252.53079 127.85C252.53079 131.16371 249.84451 133.85 246.53079 133.85C243.21709 133.85 240.53079 131.16371 240.53079 127.85C240.53079 124.53629 243.21709 121.85 246.53079 121.85C249.84451 121.85 252.53079 124.53629 252.53079 127.85Z" fill-rule="nonzero"/><path fill="#ff6d01" fill-opacity="0.8" clip-path="url(#id_0)" d="M520.4076 153.425C520.4076 156.73871 517.7213 159.425 514.4076 159.425C511.0939 159.425 508.4076 156.73871 508.4076 153.425C508.4076 150.1113 511.0939 147.425 514.4076 147.425C517.7213 147.425 520.4076 150.1113 520.4076 153.425Z" fill-rule="nonzero"/><path fill="#ea4335" fill-opacity="0.8" clip-path="url(#id_0)" d="M365.87875 102.275C365.87875 115.351814 355.2779 125.95267 342.20108 125.95267C329.12427 125.95267 318.5234 115.351814 318.5234 102.275C318.5234 89.19818 329.12427 78.59733 342.20108 78.59733C355.2779 78.59733 365.87875 89.19818 365.87875 102.275Z" fill-rule="nonzero"/><path fill="#4285f4" fill-opacity="0.8" clip-path="url(#id_0)" d="M300.36594 127.85C300.36594 131.16371 297.67966 133.85 294.36594 133.85C291.05225 133.85 288.36594 131.16371 288.36594 127.85C288.36594 124.53629 291.05225 121.85 294.36594 121.85C297.67966 121.85 300.36594 124.53629 300.36594 127.85Z" fill-rule="nonzero"/><path fill="#ea4335" fill-opacity="0.8" clip-path="url(#id_0)" d="M319.5 102.275C319.5 105.58871 316.81372 108.275 313.5 108.275C310.18628 108.275 307.5 105.58871 307.5 102.275C307.5 98.96129 310.18628 96.275 313.5 96.275C316.81372 96.275 319.5 98.96129 319.5 102.275Z" fill-rule="nonzero"/><path fill="#4285f4" fill-opacity="0.8" clip-path="url(#id_0)" d="M577.80975 127.85C577.80975 131.16371 575.1235 133.85 571.80975 133.85C568.4961 133.85 565.80975 131.16371 565.80975 127.85C565.80975 124.53629 568.4961 121.85 571.80975 121.85C575.1235 121.85 577.80975 124.53629 577.80975 127.85Z" fill-rule="nonzero"/><path fill="#fbbc04" fill-opacity="0.8" clip-path="url(#id_0)" d="M300.36594 179.0C300.36594 182.3137 297.67966 185.0 294.36594 185.0C291.05225 185.0 288.36594 182.3137 288.36594 179.0C288.36594 175.6863 291.05225 173.0 294.36594 173.0C297.67966 173.0 300.36594 175.6863 300.36594 179.0Z" fill-rule="nonzero"/><path fill="#ff6d01" fill-opacity="0.8" clip-path="url(#id_0)" d="M306.23187 153.425C306.23187 170.54582 292.35272 184.425 275.23187 184.425C258.11105 184.425 244.23189 170.54582 244.23189 153.425C244.23189 136.30417 258.11105 122.425 275.23187 122.425C292.35272 122.425 306.23187 136.30417 306.23187 153.425Z" fill-rule="nonzero"/><path fill="#ff6d01" fill-opacity="0.8" clip-path="url(#id_0)" d="M308.4766 153.425C308.4766 166.50182 297.87573 177.10268 284.79892 177.10268C271.7221 177.10268 261.12125 166.50182 261.12125 153.425C261.12125 140.34819 271.7221 129.74733 284.79892 129.74733C297.87573 129.74733 308.4766 140.34819 308.4766 153.425Z" fill-rule="nonzero"/><path fill="#ea4335" fill-opacity="0.8" clip-path="url(#id_0)" d="M271.66486 102.275C271.66486 105.58871 268.97858 108.275 265.66486 108.275C262.35114 108.275 259.66486 105.58871 259.66486 102.275C259.66486 98.96129 262.35114 96.275 265.66486 96.275C268.97858 96.275 271.66486 98.96129 271.66486 102.275Z" fill-rule="nonzero"/><path fill="#ea4335" fill-opacity="0.8" clip-path="url(#id_0)" d="M386.4692 102.275C386.4692 105.58871 383.7829 108.275 380.4692 108.275C377.1555 108.275 374.4692 105.58871 374.4692 102.275C374.4692 98.96129 377.1555 96.275 380.4692 96.275C383.7829 96.275 386.4692 98.96129 386.4692 102.275Z" fill-rule="nonzero"/><path fill="#fbbc04" fill-opacity="0.8" clip-path="url(#id_0)" d="M434.30435 179.0C434.30435 182.3137 431.61804 185.0 428.30435 185.0C424.99063 185.0 422.30435 182.3137 422.30435 179.0C422.30435 175.6863 424.99063 173.0 428.30435 173.0C431.61804 173.0 434.30435 175.6863 434.30435 179.0Z" fill-rule="nonzero"/><path fill="#ea4335" fill-opacity="0.8" clip-path="url(#id_0)" d="M327.61063 102.275C327.61063 115.351814 317.0098 125.95267 303.93298 125.95267C290.85617 125.95267 280.2553 115.351814 280.2553 102.275C280.2553 89.19818 290.85617 78.59733 303.93298 78.59733C317.0098 78.59733 327.61063 89.19818 327.61063 102.275Z" fill-rule="nonzero"/><path fill="#ff6d01" fill-opacity="0.8" clip-path="url(#id_0)" d="M271.66486 153.425C271.66486 156.73871 268.97858 159.425 265.66486 159.425C262.35114 159.425 259.66486 156.73871 259.66486 153.425C259.66486 150.1113 262.35114 147.425 265.66486 147.425C268.97858 147.425 271.66486 150.1113 271.66486 153.425Z" fill-rule="nonzero"/><path fill="#ff6d01" fill-opacity="0.8" clip-path="url(#id_0)" d="M354.06702 153.425C354.06702 170.54582 340.18787 184.425 323.06702 184.425C305.9462 184.425 292.06702 170.54582 292.06702 153.425C292.06702 136.30417 305.9462 122.425 323.06702 122.425C340.18787 122.425 354.06702 136.30417 354.06702 153.425Z" fill-rule="nonzero"/><path fill="#4285f4" fill-opacity="0.8" clip-path="url(#id_0)" d="M568.24274 127.85C568.24274 131.16371 565.55646 133.85 562.24274 133.85C558.929 133.85 556.24274 131.16371 556.24274 127.85C556.24274 124.53629 558.929 121.85 562.24274 121.85C565.55646 121.85 568.24274 124.53629 568.24274 127.85Z" fill-rule="nonzero"/><path fill="#ea4335" fill-opacity="0.8" clip-path="url(#id_0)" d="M327.61063 102.275C327.61063 115.351814 317.0098 125.95267 303.93298 125.95267C290.85617 125.95267 280.2553 115.351814 280.2553 102.275C280.2553 89.19818 290.85617 78.59733 303.93298 78.59733C317.0098 78.59733 327.61063 89.19818 327.61063 102.275Z" fill-rule="nonzero"/><path fill="#ff6d01" fill-opacity="0.8" clip-path="url(#id_0)" d="M318.0436 153.425C318.0436 166.50182 307.44275 177.10268 294.36594 177.10268C281.28912 177.10268 270.68826 166.50182 270.68826 153.425C270.68826 140.34819 281.28912 129.74733 294.36594 129.74733C307.44275 129.74733 318.0436 140.34819 318.0436 153.425Z" fill-rule="nonzero"/><path fill="#ff6d01" fill-opacity="0.8" clip-path="url(#id_0)" d="M318.0436 153.425C318.0436 166.50182 307.44275 177.10268 294.36594 177.10268C281.28912 177.10268 270.68826 166.50182 270.68826 153.425C270.68826 140.34819 281.28912 129.74733 294.36594 129.74733C307.44275 129.74733 318.0436 140.34819 318.0436 153.425Z" fill-rule="nonzero"/><path fill="#ea4335" fill-opacity="0.8" clip-path="url(#id_0)" d="M242.96378 102.275C242.96378 105.58871 240.27748 108.275 236.96378 108.275C233.65005 108.275 230.96378 105.58871 230.96378 102.275C230.96378 98.96129 233.65005 96.275 236.96378 96.275C240.27748 96.275 242.96378 98.96129 242.96378 102.275Z" fill-rule="nonzero"/><path fill="#fbbc04" fill-opacity="0.8" clip-path="url(#id_0)" d="M357.76813 179.0C357.76813 182.3137 355.08182 185.0 351.76813 185.0C348.4544 185.0 345.76813 182.3137 345.76813 179.0C345.76813 175.6863 348.4544 173.0 351.76813 173.0C355.08182 173.0 357.76813 175.6863 357.76813 179.0Z" fill-rule="nonzero"/><path fill="#4285f4" fill-opacity="0.8" clip-path="url(#id_0)" d="M298.90955 127.85C298.90955 140.92682 288.30872 151.52766 275.23187 151.52766C262.15506 151.52766 251.55421 140.92682 251.55421 127.85C251.55421 114.773186 262.15506 104.17233 275.23187 104.17233C288.30872 104.17233 298.90955 114.773186 298.90955 127.85Z" fill-rule="nonzero"/><path fill="#fbbc04" fill-opacity="0.8" clip-path="url(#id_0)" d="M337.17767 179.0C337.17767 192.07681 326.5768 202.67767 313.5 202.67767C300.4232 202.67767 289.82233 192.07681 289.82233 179.0C289.82233 165.92319 300.4232 155.32233 313.5 155.32233C326.5768 155.32233 337.17767 165.92319 337.17767 179.0Z" fill-rule="nonzero"/><path fill="#ff6d01" fill-opacity="0.8" clip-path="url(#id_0)" d="M306.23187 153.425C306.23187 170.54582 292.35272 184.425 275.23187 184.425C258.11105 184.425 244.23189 170.54582 244.23189 153.425C244.23189 136.30417 258.11105 122.425 275.23187 122.425C292.35272 122.425 306.23187 136.30417 306.23187 153.425Z" fill-rule="nonzero"/><path fill="#ff6d01" fill-opacity="0.8" clip-path="url(#id_0)" d="M471.11606 153.425C471.11606 166.50182 460.51523 177.10268 447.43842 177.10268C434.36157 177.10268 423.76074 166.50182 423.76074 153.425C423.76074 140.34819 434.36157 129.74733 447.43842 129.74733C460.51523 129.74733 471.11606 140.34819 471.11606 153.425Z" fill-rule="nonzero"/><path fill="#4285f4" fill-opacity="0.8" clip-path="url(#id_0)" d="M375.44577 127.85C375.44577 140.92682 364.84494 151.52766 351.76813 151.52766C338.69128 151.52766 328.09045 140.92682 328.09045 127.85C328.09045 114.773186 338.69128 104.17233 351.76813 104.17233C364.84494 104.17233 375.44577 114.773186 375.44577 127.85Z" fill-rule="nonzero"/><path fill="#4285f4" fill-opacity="0.8" clip-path="url(#id_0)" d="M251.07442 127.85C251.07442 140.92682 240.47356 151.52766 227.39674 151.52766C214.31993 151.52766 203.71907 140.92682 203.71907 127.85C203.71907 114.773186 214.31993 104.17233 227.39674 104.17233C240.47356 104.17233 251.07442 114.773186 251.07442 127.85Z" fill-rule="nonzero"/><path fill="#f07b72" fill-opacity="0.8" clip-path="url(#id_0)" d="M233.39674 204.575C233.39674 207.8887 230.71045 210.575 227.39674 210.575C224.08304 210.575 221.39674 207.8887 221.39674 204.575C221.39674 201.26129 224.08304 198.575 227.39674 198.575C230.71045 198.575 233.39674 201.26129 233.39674 204.575Z" fill-rule="nonzero"/><path fill="#4285f4" fill-opacity="0.8" clip-path="url(#id_0)" d="M279.77548 127.85C279.77548 140.92682 269.17465 151.52766 256.09784 151.52766C243.02101 151.52766 232.42015 140.92682 232.42015 127.85C232.42015 114.773186 243.02101 104.17233 256.09784 104.17233C269.17465 104.17233 279.77548 114.773186 279.77548 127.85Z" fill-rule="nonzero"/><path fill="#4285f4" fill-opacity="0.8" clip-path="url(#id_0)" d="M147.29349 127.85C147.29349 131.16371 144.6072 133.85 141.29349 133.85C137.97977 133.85 135.29349 131.16371 135.29349 127.85C135.29349 124.53629 137.97977 121.85 141.29349 121.85C144.6072 121.85 147.29349 124.53629 147.29349 127.85Z" fill-rule="nonzero"/><path fill="#ea4335" fill-opacity="0.8" clip-path="url(#id_0)" d="M185.5616 102.275C185.5616 105.58871 182.8753 108.275 179.5616 108.275C176.2479 108.275 173.5616 105.58871 173.5616 102.275C173.5616 98.96129 176.2479 96.275 179.5616 96.275C182.8753 96.275 185.5616 98.96129 185.5616 102.275Z" fill-rule="nonzero"/><path fill="#4285f4" fill-opacity="0.8" clip-path="url(#id_0)" d="M392.33514 127.85C392.33514 144.97083 378.45596 158.85 361.33514 158.85C344.21432 158.85 330.33514 144.97083 330.33514 127.85C330.33514 110.72917 344.21432 96.85 361.33514 96.85C378.45596 96.85 392.33514 110.72917 392.33514 127.85Z" fill-rule="nonzero"/><path fill="#fbbc04" fill-opacity="0.8" clip-path="url(#id_0)" d="M337.17767 179.0C337.17767 192.07681 326.5768 202.67767 313.5 202.67767C300.4232 202.67767 289.82233 192.07681 289.82233 179.0C289.82233 165.92319 300.4232 155.32233 313.5 155.32233C326.5768 155.32233 337.17767 165.92319 337.17767 179.0Z" fill-rule="nonzero"/><path fill="#fbbc04" fill-opacity="0.8" clip-path="url(#id_0)" d="M329.06702 179.0C329.06702 182.3137 326.38074 185.0 323.06702 185.0C319.75333 185.0 317.06702 182.3137 317.06702 179.0C317.06702 175.6863 319.75333 173.0 323.06702 173.0C326.38074 173.0 329.06702 175.6863 329.06702 179.0Z" fill-rule="nonzero"/><path fill="#4285f4" fill-opacity="0.8" clip-path="url(#id_0)" d="M348.20108 127.85C348.20108 131.16371 345.5148 133.85 342.20108 133.85C338.8874 133.85 336.20108 131.16371 336.20108 127.85C336.20108 124.53629 338.8874 121.85 342.20108 121.85C345.5148 121.85 348.20108 124.53629 348.20108 127.85Z" fill-rule="nonzero"/><path fill="#4285f4" fill-opacity="0.8" clip-path="url(#id_0)" d="M344.5 127.85C344.5 144.97083 330.62082 158.85 313.5 158.85C296.37918 158.85 282.5 144.97083 282.5 127.85C282.5 110.72917 296.37918 96.85 313.5 96.85C330.62082 96.85 344.5 110.72917 344.5 127.85Z" fill-rule="nonzero"/><path fill="#fbbc04" fill-opacity="0.8" clip-path="url(#id_0)" d="M365.87875 179.0C365.87875 192.07681 355.2779 202.67767 342.20108 202.67767C329.12427 202.67767 318.5234 192.07681 318.5234 179.0C318.5234 165.92319 329.12427 155.32233 342.20108 155.32233C355.2779 155.32233 365.87875 165.92319 365.87875 179.0Z" fill-rule="nonzero"/><path fill="#ea4335" fill-opacity="0.8" clip-path="url(#id_0)" d="M318.0436 102.275C318.0436 115.351814 307.44275 125.95267 294.36594 125.95267C281.28912 125.95267 270.68826 115.351814 270.68826 102.275C270.68826 89.19818 281.28912 78.59733 294.36594 78.59733C307.44275 78.59733 318.0436 89.19818 318.0436 102.275Z" fill-rule="nonzero"/><path fill="#4285f4" fill-opacity="0.8" clip-path="url(#id_0)" d="M392.33514 127.85C392.33514 144.97083 378.45596 158.85 361.33514 158.85C344.21432 158.85 330.33514 144.97083 330.33514 127.85C330.33514 110.72917 344.21432 96.85 361.33514 96.85C378.45596 96.85 392.33514 110.72917 392.33514 127.85Z" fill-rule="nonzero"/><path fill="#ff6d01" fill-opacity="0.8" clip-path="url(#id_0)" d="M260.64145 153.425C260.64145 166.50182 250.04059 177.10268 236.96378 177.10268C223.88695 177.10268 213.2861 166.50182 213.2861 153.425C213.2861 140.34819 223.88695 129.74733 236.96378 129.74733C250.04059 129.74733 260.64145 140.34819 260.64145 153.425Z" fill-rule="nonzero"/><path fill="#4285f4" fill-opacity="0.8" clip-path="url(#id_0)" d="M251.07442 127.85C251.07442 140.92682 240.47356 151.52766 227.39674 151.52766C214.31993 151.52766 203.71907 140.92682 203.71907 127.85C203.71907 114.773186 214.31993 104.17233 227.39674 104.17233C240.47356 104.17233 251.07442 114.773186 251.07442 127.85Z" fill-rule="nonzero"/><path fill="#ff6d01" fill-opacity="0.8" clip-path="url(#id_0)" d="M385.01282 153.425C385.01282 166.50182 374.41196 177.10268 361.33514 177.10268C348.25833 177.10268 337.65747 166.50182 337.65747 153.425C337.65747 140.34819 348.25833 129.74733 361.33514 129.74733C374.41196 129.74733 385.01282 140.34819 385.01282 153.425Z" fill-rule="nonzero"/><path fill="#4285f4" fill-opacity="0.8" clip-path="url(#id_0)" d="M415.1703 127.85C415.1703 131.16371 412.484 133.85 409.1703 133.85C405.85657 133.85 403.1703 131.16371 403.1703 127.85C403.1703 124.53629 405.85657 121.85 409.1703 121.85C412.484 121.85 415.1703 124.53629 415.1703 127.85Z" fill-rule="nonzero"/><path fill="#4285f4" fill-opacity="0.8" clip-path="url(#id_0)" d="M453.43842 127.85C453.43842 131.16371 450.7521 133.85 447.43842 133.85C444.1247 133.85 441.43842 131.16371 441.43842 127.85C441.43842 124.53629 444.1247 121.85 447.43842 121.85C450.7521 121.85 453.43842 124.53629 453.43842 127.85Z" fill-rule="nonzero"/><path fill="#46bdc6" fill-opacity="0.8" clip-path="url(#id_0)" d="M357.76813 76.7C357.76813 80.01371 355.08182 82.7 351.76813 82.7C348.4544 82.7 345.76813 80.01371 345.76813 76.7C345.76813 73.38629 348.4544 70.7 351.76813 70.7C355.08182 70.7 357.76813 73.38629 357.76813 76.7Z" fill-rule="nonzero"/><path fill="#ea4335" fill-opacity="0.8" clip-path="url(#id_0)" d="M252.53079 102.275C252.53079 105.58871 249.84451 108.275 246.53079 108.275C243.21709 108.275 240.53079 105.58871 240.53079 102.275C240.53079 98.96129 243.21709 96.275 246.53079 96.275C249.84451 96.275 252.53079 98.96129 252.53079 102.275Z" fill-rule="nonzero"/><path fill="#ff6d01" fill-opacity="0.8" clip-path="url(#id_0)" d="M241.50739 153.425C241.50739 166.50182 230.90652 177.10268 217.82971 177.10268C204.7529 177.10268 194.15204 166.50182 194.15204 153.425C194.15204 140.34819 204.7529 129.74733 217.82971 129.74733C230.90652 129.74733 241.50739 140.34819 241.50739 153.425Z" fill-rule="nonzero"/><path fill="#ea4335" fill-opacity="0.8" clip-path="url(#id_0)" d="M281.23187 102.275C281.23187 105.58871 278.5456 108.275 275.23187 108.275C271.91818 108.275 269.23187 105.58871 269.23187 102.275C269.23187 98.96129 271.91818 96.275 275.23187 96.275C278.5456 96.275 281.23187 98.96129 281.23187 102.275Z" fill-rule="nonzero"/><path fill="#ff6d01" fill-opacity="0.8" clip-path="url(#id_0)" d="M385.01282 153.425C385.01282 166.50182 374.41196 177.10268 361.33514 177.10268C348.25833 177.10268 337.65747 166.50182 337.65747 153.425C337.65747 140.34819 348.25833 129.74733 361.33514 129.74733C374.41196 129.74733 385.01282 140.34819 385.01282 153.425Z" fill-rule="nonzero"/><path fill="#4285f4" fill-opacity="0.8" clip-path="url(#id_0)" d="M195.12863 127.85C195.12863 131.16371 192.44234 133.85 189.12863 133.85C185.81491 133.85 183.12863 131.16371 183.12863 127.85C183.12863 124.53629 185.81491 121.85 189.12863 121.85C192.44234 121.85 195.12863 124.53629 195.12863 127.85Z" fill-rule="nonzero"/><path fill="#000000" d="M33.05 332.21564Q33.05 330.6844 33.3625 329.7625Q33.675 328.825 34.284374 328.325Q34.909374 327.825 35.846874 327.825Q36.534374 327.825 37.05 328.10626Q37.58125 328.3875 37.925 328.91876Q38.26875 329.4344 38.45625 330.1844Q38.64375 330.9344 38.64375 332.21564Q38.64375 333.73126 38.33125 334.65314Q38.034374 335.575 37.409374 336.09064Q36.8 336.59064 35.846874 336.59064Q34.6125 336.59064 33.89375 335.7Q33.05 334.6375 33.05 332.21564ZM34.128124 332.21564Q34.128124 334.325 34.628124 335.02814Q35.128124 335.73126 35.846874 335.73126Q36.58125 335.73126 37.065624 335.02814Q37.565624 334.325 37.565624 332.21564Q37.565624 330.09064 37.065624 329.40314Q36.58125 328.7 35.83125 328.7Q35.1125 328.7 34.675 329.3094Q34.128124 330.09064 34.128124 332.21564Z" fill-rule="nonzero"/><path fill="#000000" d="M38.596874 284.28436L38.596874 285.3L32.909374 285.3Q32.909374 284.925 33.034374 284.5656Q33.253124 283.9875 33.721874 283.425Q34.20625 282.8625 35.1125 282.1281Q36.51875 280.97186 37.003124 280.3Q37.503124 279.6281 37.503124 279.03436Q37.503124 278.40936 37.05 277.9875Q36.596874 277.55 35.878124 277.55Q35.1125 277.55 34.659374 278.0031Q34.20625 278.45624 34.190624 279.26874L33.1125 279.15936Q33.221874 277.9406 33.940624 277.3156Q34.675 276.675 35.909374 276.675Q37.14375 276.675 37.8625 277.3625Q38.58125 278.05 38.58125 279.0656Q38.58125 279.58124 38.3625 280.08124Q38.159374 280.5656 37.659374 281.1281Q37.175 281.675 36.05 282.6281Q35.096874 283.425 34.815624 283.72186Q34.55 284.0031 34.378124 284.28436L38.596874 284.28436Z" fill-rule="nonzero"/><path fill="#000000" d="M36.425 234.15L36.425 232.0875L32.70625 232.0875L32.70625 231.11874L36.628124 225.55624L37.4875 225.55624L37.4875 231.11874L38.64375 231.11874L38.64375 232.0875L37.4875 232.0875L37.4875 234.15L36.425 234.15ZM36.425 231.11874L36.425 227.25937L33.7375 231.11874L36.425 231.11874Z" fill-rule="nonzero"/><path fill="#000000" d="M38.51875 176.51562L37.471874 176.59375Q37.33125 175.96875 37.08125 175.6875Q36.64375 175.23438 36.01875 175.23438Q35.51875 175.23438 35.128124 175.51562Q34.64375 175.89062 34.346874 176.59375Q34.065624 177.28125 34.05 178.5625Q34.425 177.98438 34.971874 177.70312Q35.534374 177.42188 36.14375 177.42188Q37.190624 177.42188 37.925 178.20312Q38.675 178.98438 38.675 180.20312Q38.675 181.01562 38.315624 181.71875Q37.971874 182.40625 37.3625 182.78125Q36.753124 183.14062 35.9875 183.14062Q34.659374 183.14062 33.83125 182.17188Q33.003124 181.20312 33.003124 178.98438Q33.003124 176.48438 33.925 175.35938Q34.721874 174.375 36.08125 174.375Q37.096874 174.375 37.7375 174.95312Q38.39375 175.51562 38.51875 176.51562ZM34.221874 180.21875Q34.221874 180.76562 34.440624 181.26562Q34.675 181.75 35.08125 182.01562Q35.503124 182.28125 35.971874 182.28125Q36.628124 182.28125 37.1125 181.75Q37.596874 181.20312 37.596874 180.28125Q37.596874 179.39062 37.1125 178.875Q36.64375 178.35938 35.925 178.35938Q35.20625 178.35938 34.70625 178.875Q34.221874 179.39062 34.221874 180.21875Z" fill-rule="nonzero"/><path fill="#000000" d="M34.675 127.193756Q34.01875 126.943756 33.690624 126.506256Q33.378124 126.05313 33.378124 125.443756Q33.378124 124.506256 34.05 123.86563Q34.7375 123.225006 35.846874 123.225006Q36.971874 123.225006 37.659374 123.881256Q38.346874 124.537506 38.346874 125.475006Q38.346874 126.068756 38.034374 126.506256Q37.721874 126.943756 37.08125 127.193756Q37.878124 127.443756 38.284374 128.02188Q38.690624 128.6 38.690624 129.39688Q38.690624 130.49063 37.909374 131.24063Q37.14375 131.99063 35.8625 131.99063Q34.596874 131.99063 33.815624 131.24063Q33.034374 130.49063 33.034374 129.36563Q33.034374 128.52188 33.45625 127.95938Q33.89375 127.39688 34.675 127.193756ZM34.45625 125.39688Q34.45625 126.006256 34.846874 126.39688Q35.253124 126.787506 35.878124 126.787506Q36.4875 126.787506 36.878124 126.412506Q37.26875 126.02188 37.26875 125.45938Q37.26875 124.881256 36.8625 124.49063Q36.45625 124.08438 35.8625 124.08438Q35.253124 124.08438 34.846874 124.475006Q34.45625 124.86563 34.45625 125.39688ZM34.128124 129.36563Q34.128124 129.81876 34.33125 130.24063Q34.55 130.6625 34.971874 130.89688Q35.39375 131.13126 35.878124 131.13126Q36.628124 131.13126 37.1125 130.64688Q37.6125 130.1625 37.6125 129.4125Q37.6125 128.64688 37.1125 128.14688Q36.6125 127.64688 35.846874 127.64688Q35.096874 127.64688 34.6125 128.14688Q34.128124 128.63126 34.128124 129.36563Z" fill-rule="nonzero"/><path fill="#000000" d="M30.01875 80.7L28.971874 80.7L28.971874 73.98125Q28.58125 74.34062 27.95625 74.71562Q27.346874 75.075 26.8625 75.24687L26.8625 74.23125Q27.7375 73.80937 28.39375 73.23125Q29.065624 72.6375 29.346874 72.075L30.01875 72.075L30.01875 80.7ZM33.05 76.46562Q33.05 74.93437 33.3625 74.0125Q33.675 73.075 34.284374 72.575Q34.909374 72.075 35.846874 72.075Q36.534374 72.075 37.05 72.35625Q37.58125 72.6375 37.925 73.16875Q38.26875 73.68437 38.45625 74.43437Q38.64375 75.18437 38.64375 76.46562Q38.64375 77.98125 38.33125 78.90312Q38.034374 79.825 37.409374 80.34062Q36.8 80.84062 35.846874 80.84062Q34.6125 80.84062 33.89375 79.95Q33.05 78.8875 33.05 76.46562ZM34.128124 76.46562Q34.128124 78.575 34.628124 79.27812Q35.128124 79.98125 35.846874 79.98125Q36.58125 79.98125 37.065624 79.27812Q37.565624 78.575 37.565624 76.46562Q37.565624 74.34062 37.065624 73.65312Q36.58125 72.95 35.83125 72.95Q35.1125 72.95 34.675 73.55937Q34.128124 74.34062 34.128124 76.46562Z" fill-rule="nonzero"/><path fill="#000000" d="M30.01875 29.55L28.971874 29.55L28.971874 22.83125Q28.58125 23.190624 27.95625 23.565624Q27.346874 23.925 26.8625 24.096874L26.8625 23.08125Q27.7375 22.659374 28.39375 22.08125Q29.065624 21.4875 29.346874 20.925L30.01875 20.925L30.01875 29.55ZM38.596874 28.534374L38.596874 29.55L32.909374 29.55Q32.909374 29.175 33.034374 28.815624Q33.253124 28.2375 33.721874 27.675Q34.20625 27.1125 35.1125 26.378124Q36.51875 25.221874 37.003124 24.55Q37.503124 23.878124 37.503124 23.284374Q37.503124 22.659374 37.05 22.2375Q36.596874 21.8 35.878124 21.8Q35.1125 21.8 34.659374 22.253124Q34.20625 22.70625 34.190624 23.51875L33.1125 23.409374Q33.221874 22.190624 33.940624 21.565624Q34.675 20.925 35.909374 20.925Q37.14375 20.925 37.8625 21.6125Q38.58125 22.3 38.58125 23.315624Q38.58125 23.83125 38.3625 24.33125Q38.159374 24.815624 37.659374 25.378124Q37.175 25.925 36.05 26.878124Q35.096874 27.675 34.815624 27.971874Q34.55 28.253124 34.378124 28.534374L38.596874 28.534374Z" fill-rule="nonzero"/><path fill="#000000" d="M52.658974 349.45L51.6121 349.45L51.6121 342.73126Q51.221474 343.09064 50.596474 343.46564Q49.9871 343.825 49.502724 343.9969L49.502724 342.98126Q50.377724 342.5594 51.033974 341.98126Q51.70585 341.3875 51.9871 340.825L52.658974 340.825L52.658974 349.45ZM55.690224 345.21564Q55.690224 343.6844 56.002724 342.7625Q56.315224 341.825 56.9246 341.325Q57.5496 340.825 58.4871 340.825Q59.1746 340.825 59.690224 341.10626Q60.221474 341.3875 60.565224 341.91876Q60.908974 342.4344 61.096474 343.1844Q61.283974 343.9344 61.283974 345.21564Q61.283974 346.73126 60.971474 347.65314Q60.6746 348.575 60.0496 349.09064Q59.440224 349.59064 58.4871 349.59064Q57.252724 349.59064 56.533974 348.7Q55.690224 347.6375 55.690224 345.21564ZM56.76835 345.21564Q56.76835 347.325 57.26835 348.02814Q57.76835 348.73126 58.4871 348.73126Q59.221474 348.73126 59.70585 348.02814Q60.20585 347.325 60.20585 345.21564Q60.20585 343.09064 59.70585 342.40314Q59.221474 341.7 58.471474 341.7Q57.752724 341.7 57.315224 342.3094Q56.76835 343.09064 56.76835 345.21564Z" fill-rule="nonzero"/><path fill="#000000" d="M149.90738 348.4344L149.90738 349.45L144.21988 349.45Q144.21988 349.075 144.34488 348.71564Q144.56363 348.1375 145.03238 347.575Q145.51675 347.0125 146.423 346.27814Q147.82925 345.1219 148.31363 344.45Q148.81363 343.77814 148.81363 343.1844Q148.81363 342.5594 148.3605 342.1375Q147.90738 341.7 147.18863 341.7Q146.423 341.7 145.96988 342.15314Q145.51675 342.60626 145.50113 343.41876L144.423 343.3094Q144.53238 342.09064 145.25113 341.46564Q145.9855 340.825 147.21988 340.825Q148.45425 340.825 149.173 341.5125Q149.89175 342.2 149.89175 343.21564Q149.89175 343.73126 149.673 344.23126Q149.46988 344.71564 148.96988 345.27814Q148.4855 345.825 147.3605 346.77814Q146.40738 347.575 146.12613 347.8719Q145.8605 348.15314 145.68863 348.4344L149.90738 348.4344ZM151.3605 345.21564Q151.3605 343.6844 151.673 342.7625Q151.9855 341.825 152.59488 341.325Q153.21988 340.825 154.15738 340.825Q154.84488 340.825 155.3605 341.10626Q155.89175 341.3875 156.2355 341.91876Q156.57925 342.4344 156.76675 343.1844Q156.95425 343.9344 156.95425 345.21564Q156.95425 346.73126 156.64175 347.65314Q156.34488 348.575 155.71988 349.09064Q155.1105 349.59064 154.15738 349.59064Q152.923 349.59064 152.20425 348.7Q151.3605 347.6375 151.3605 345.21564ZM152.43863 345.21564Q152.43863 347.325 152.93863 348.02814Q153.43863 348.73126 154.15738 348.73126Q154.89175 348.73126 155.37613 348.02814Q155.87613 347.325 155.87613 345.21564Q155.87613 343.09064 155.37613 342.40314Q154.89175 341.7 154.14175 341.7Q153.423 341.7 152.9855 342.3094Q152.43863 343.09064 152.43863 345.21564Z" fill-rule="nonzero"/><path fill="#000000" d="M240.03079 347.1844L241.09329 347.04376Q241.26517 347.9344 241.70267 348.34064Q242.14017 348.73126 242.76517 348.73126Q243.51517 348.73126 244.03079 348.21564Q244.54642 347.7 244.54642 346.9344Q244.54642 346.21564 244.06204 345.7469Q243.59329 345.2625 242.85892 345.2625Q242.56204 345.2625 242.10892 345.3875L242.23392 344.45Q242.34329 344.46564 242.40579 344.46564Q243.07767 344.46564 243.60892 344.1219Q244.15579 343.7625 244.15579 343.02814Q244.15579 342.45 243.76517 342.075Q243.37454 341.6844 242.74954 341.6844Q242.14017 341.6844 241.71829 342.075Q241.31204 342.46564 241.20267 343.23126L240.14017 343.04376Q240.32767 341.9969 241.01517 341.41876Q241.70267 340.825 242.71829 340.825Q243.42142 340.825 244.01517 341.1375Q244.60892 341.4344 244.92142 341.95Q245.23392 342.46564 245.23392 343.0594Q245.23392 343.60626 244.93704 344.075Q244.64017 344.52814 244.06204 344.79376Q244.81204 344.96564 245.23392 345.52814Q245.65579 346.075 245.65579 346.91876Q245.65579 348.04376 244.82767 348.825Q244.01517 349.60626 242.76517 349.60626Q241.64017 349.60626 240.89017 348.9344Q240.14017 348.2469 240.03079 347.1844ZM247.03079 345.21564Q247.03079 343.6844 247.34329 342.7625Q247.65579 341.825 248.26517 341.325Q248.89017 340.825 249.82767 340.825Q250.51517 340.825 251.03079 341.10626Q251.56204 341.3875 251.90579 341.91876Q252.24954 342.4344 252.43704 343.1844Q252.62454 343.9344 252.62454 345.21564Q252.62454 346.73126 252.31204 347.65314Q252.01517 348.575 251.39017 349.09064Q250.78079 349.59064 249.82767 349.59064Q248.59329 349.59064 247.87454 348.7Q247.03079 347.6375 247.03079 345.21564ZM248.10892 345.21564Q248.10892 347.325 248.60892 348.02814Q249.10892 348.73126 249.82767 348.73126Q250.56204 348.73126 251.04642 348.02814Q251.54642 347.325 251.54642 345.21564Q251.54642 343.09064 251.04642 342.40314Q250.56204 341.7 249.81204 341.7Q249.09329 341.7 248.65579 342.3094Q248.10892 343.09064 248.10892 345.21564Z" fill-rule="nonzero"/><path fill="#000000" d="M339.07608 349.45L339.07608 347.3875L335.35733 347.3875L335.35733 346.41876L339.2792 340.85626L340.13858 340.85626L340.13858 346.41876L341.29483 346.41876L341.29483 347.3875L340.13858 347.3875L340.13858 349.45L339.07608 349.45ZM339.07608 346.41876L339.07608 342.5594L336.38858 346.41876L339.07608 346.41876ZM342.70108 345.21564Q342.70108 343.6844 343.01358 342.7625Q343.32608 341.825 343.93546 341.325Q344.56046 340.825 345.49796 340.825Q346.18546 340.825 346.70108 341.10626Q347.23233 341.3875 347.57608 341.91876Q347.91983 342.4344 348.10733 343.1844Q348.29483 343.9344 348.29483 345.21564Q348.29483 346.73126 347.98233 347.65314Q347.68546 348.575 347.06046 349.09064Q346.45108 349.59064 345.49796 349.59064Q344.26358 349.59064 343.54483 348.7Q342.70108 347.6375 342.70108 345.21564ZM343.7792 345.21564Q343.7792 347.325 344.2792 348.02814Q344.7792 348.73126 345.49796 348.73126Q346.23233 348.73126 346.7167 348.02814Q347.2167 347.325 347.2167 345.21564Q347.2167 343.09064 346.7167 342.40314Q346.23233 341.7 345.48233 341.7Q344.76358 341.7 344.32608 342.3094Q343.7792 343.09064 343.7792 345.21564Z" fill-rule="nonzero"/><path fill="#000000" d="M431.37137 347.2L432.48074 347.10626Q432.60574 347.91876 433.04324 348.325Q433.49637 348.73126 434.137 348.73126Q434.887 348.73126 435.41824 348.15314Q435.9495 347.575 435.9495 346.6375Q435.9495 345.73126 435.43387 345.21564Q434.93387 344.6844 434.10574 344.6844Q433.60574 344.6844 433.18387 344.91876Q432.77762 345.15314 432.54324 345.5125L431.55887 345.3875L432.387 340.98126L436.66824 340.98126L436.66824 341.98126L433.23074 341.98126L432.77762 344.29376Q433.54324 343.7469 434.387 343.7469Q435.512 343.7469 436.27762 344.52814Q437.05887 345.3094 437.05887 346.54376Q437.05887 347.7 436.387 348.5594Q435.55887 349.59064 434.137 349.59064Q432.96512 349.59064 432.21512 348.9344Q431.48074 348.27814 431.37137 347.2ZM438.37137 345.21564Q438.37137 343.6844 438.68387 342.7625Q438.99637 341.825 439.60574 341.325Q440.23074 340.825 441.16824 340.825Q441.85574 340.825 442.37137 341.10626Q442.90262 341.3875 443.24637 341.91876Q443.59012 342.4344 443.77762 343.1844Q443.96512 343.9344 443.96512 345.21564Q443.96512 346.73126 443.65262 347.65314Q443.35574 348.575 442.73074 349.09064Q442.12137 349.59064 441.16824 349.59064Q439.93387 349.59064 439.21512 348.7Q438.37137 347.6375 438.37137 345.21564ZM439.4495 345.21564Q439.4495 347.325 439.9495 348.02814Q440.4495 348.73126 441.16824 348.73126Q441.90262 348.73126 442.387 348.02814Q442.887 347.325 442.887 345.21564Q442.887 343.09064 442.387 342.40314Q441.90262 341.7 441.15262 341.7Q440.43387 341.7 439.99637 342.3094Q439.4495 343.09064 439.4495 345.21564Z" fill-rule="nonzero"/><path fill="#000000" d="M532.51044 342.96564L531.46356 343.04376Q531.32294 342.41876 531.07294 342.1375Q530.63544 341.6844 530.01044 341.6844Q529.51044 341.6844 529.1198 341.96564Q528.63544 342.34064 528.33856 343.04376Q528.0573 343.73126 528.0417 345.0125Q528.4167 344.4344 528.96356 344.15314Q529.52606 343.8719 530.13544 343.8719Q531.1823 343.8719 531.9167 344.65314Q532.6667 345.4344 532.6667 346.65314Q532.6667 347.46564 532.3073 348.16876Q531.96356 348.85626 531.3542 349.23126Q530.7448 349.59064 529.9792 349.59064Q528.65106 349.59064 527.82294 348.6219Q526.9948 347.65314 526.9948 345.4344Q526.9948 342.9344 527.9167 341.8094Q528.71356 340.825 530.07294 340.825Q531.08856 340.825 531.7292 341.40314Q532.38544 341.96564 532.51044 342.96564ZM528.21356 346.66876Q528.21356 347.21564 528.4323 347.71564Q528.6667 348.2 529.07294 348.46564Q529.4948 348.73126 529.96356 348.73126Q530.6198 348.73126 531.1042 348.2Q531.58856 347.65314 531.58856 346.73126Q531.58856 345.84064 531.1042 345.325Q530.63544 344.8094 529.9167 344.8094Q529.19794 344.8094 528.69794 345.325Q528.21356 345.84064 528.21356 346.66876ZM534.0417 345.21564Q534.0417 343.6844 534.3542 342.7625Q534.6667 341.825 535.27606 341.325Q535.90106 340.825 536.83856 340.825Q537.52606 340.825 538.0417 341.10626Q538.57294 341.3875 538.9167 341.91876Q539.26044 342.4344 539.44794 343.1844Q539.63544 343.9344 539.63544 345.21564Q539.63544 346.73126 539.32294 347.65314Q539.02606 348.575 538.40106 349.09064Q537.7917 349.59064 536.83856 349.59064Q535.6042 349.59064 534.88544 348.7Q534.0417 347.6375 534.0417 345.21564ZM535.1198 345.21564Q535.1198 347.325 535.6198 348.02814Q536.1198 348.73126 536.83856 348.73126Q537.57294 348.73126 538.0573 348.02814Q538.5573 347.325 538.5573 345.21564Q538.5573 343.09064 538.0573 342.40314Q537.57294 341.7 536.82294 341.7Q536.1042 341.7 535.6667 342.3094Q535.1198 343.09064 535.1198 345.21564Z" fill-rule="nonzero"/></svg>