<svg version="1.1" viewBox="0.0 0.0 733.0 457.0" fill="none" stroke="none" stroke-linecap="square" stroke-miterlimit="10" width="733" height="457" xmlns:xlink="http://www.w3.org/1999/xlink" xmlns="http://www.w3.org/2000/svg"><path fill="#ffffff" d="M0 0L733.0 0L733.0 457.0L0 457.0L0 0Z" fill-rule="nonzero"/><path fill="#4285f4" d="M366.5 22.85C439.97168 22.85 507.8623 62.04667 544.59814 125.675C581.334 189.30333 581.334 267.69666 544.59814 331.325L366.5 228.5Z" fill-rule="nonzero"/><path fill="#ff6d01" d="M234.31073 70.96296C271.3481 39.884914 318.15115 22.85 366.5 22.85L366.5 228.5Z" fill-rule="nonzero"/><path fill="#34a853" d="M160.97528 221.32292C163.00932 163.07541 189.66335 108.42656 234.31073 70.96296L366.5 228.5Z" fill-rule="nonzero"/><path fill="#fbbc04" d="M204.44559 355.11078C174.67906 317.01135 159.28792 269.64233 160.97528 221.32292L366.5 228.5Z" fill-rule="nonzero"/><path fill="#ea4335" d="M544.59814 331.325C510.41525 390.53146 449.04462 428.8801 380.84543 433.64905C312.6462 438.418 246.53574 408.98373 204.44559 355.11078L366.5 228.5Z" fill-rule="nonzero"/><path fill="#000000" d="M502.95135 154.67198L501.18573 154.67198L501.18573 143.46886Q500.56073 144.07823 499.52948 144.6876Q498.49823 145.28136 497.6701 145.59386L497.6701 143.89073Q499.15448 143.20323 500.24823 142.21886Q501.3576 141.21886 501.81073 140.29698L502.95135 140.29698L502.95135 154.67198ZM507.32635 150.92198L509.1701 150.76573Q509.37323 152.10948 510.12323 152.79698Q510.87323 153.46886 511.93573 153.46886Q513.20135 153.46886 514.07635 152.51573Q514.95135 151.5626 514.95135 149.96886Q514.95135 148.46886 514.1076 147.60948Q513.26385 146.73448 511.90448 146.73448Q511.0451 146.73448 510.3576 147.1251Q509.68573 147.5001 509.2951 148.1251L507.63885 147.90636L509.02948 140.54698L516.1545 140.54698L516.1545 142.23448L510.43573 142.23448L509.6701 146.07823Q510.95135 145.17198 512.3732 145.17198Q514.2482 145.17198 515.5295 146.48448Q516.82635 147.78136 516.82635 149.8126Q516.82635 151.76573 515.6857 153.17198Q514.3107 154.92198 511.93573 154.92198Q509.9826 154.92198 508.7326 153.82823Q507.49823 152.73448 507.32635 150.92198Z" fill-rule="nonzero"/><path fill="#000000" d="M374.73337 403.96512L372.96774 403.96512L372.96774 392.762Q372.34274 393.37137 371.3115 393.98074Q370.28024 394.5745 369.45212 394.887L369.45212 393.18387Q370.9365 392.49637 372.03024 391.512Q373.13962 390.512 373.59274 389.59012L374.73337 389.59012L374.73337 403.96512ZM384.749 403.96512L384.749 400.54324L378.53024 400.54324L378.53024 398.91824L385.0615 389.65262L386.499 389.65262L386.499 398.91824L388.4365 398.91824L388.4365 400.54324L386.499 400.54324L386.499 403.96512L384.749 403.96512ZM384.749 398.91824L384.749 392.46512L380.26462 398.91824L384.749 398.91824Z" fill-rule="nonzero"/><path fill="#000000" d="M200.60814 284.13354L202.45189 283.9773Q202.65501 285.32104 203.40501 286.00854Q204.15501 286.68042 205.21751 286.68042Q206.48314 286.68042 207.35814 285.7273Q208.23314 284.77417 208.23314 283.18042Q208.23314 281.68042 207.38939 280.82104Q206.54564 279.94604 205.18626 279.94604Q204.32689 279.94604 203.63939 280.33667Q202.96751 280.71167 202.57689 281.33667L200.92064 281.11792L202.31126 273.75854L209.43626 273.75854L209.43626 275.44604L203.71751 275.44604L202.95189 279.2898Q204.23314 278.38354 205.65501 278.38354Q207.53001 278.38354 208.81126 279.69604Q210.10814 280.99292 210.10814 283.02417Q210.10814 284.9773 208.96751 286.38354Q207.59251 288.13354 205.21751 288.13354Q203.26439 288.13354 202.01439 287.0398Q200.78001 285.94604 200.60814 284.13354Z" fill-rule="nonzero"/><path fill="#000000" d="M220.70007 151.40419L218.95007 151.54482Q218.7157 150.51357 218.29382 150.04482Q217.57507 149.27919 216.5282 149.27919Q215.68445 149.27919 215.05945 149.74794Q214.23132 150.35732 213.74695 151.52919Q213.26257 152.68544 213.24695 154.82607Q213.88757 153.87294 214.79382 153.40419Q215.7157 152.93544 216.73132 152.93544Q218.48132 152.93544 219.7157 154.23232Q220.95007 155.51357 220.95007 157.56044Q220.95007 158.91982 220.37195 160.07607Q219.79382 161.23232 218.7782 161.85732Q217.76257 162.46669 216.4657 162.46669Q214.2782 162.46669 212.88757 160.85732Q211.49695 159.23232 211.49695 155.51357Q211.49695 151.37294 213.0282 149.48232Q214.37195 147.84169 216.63757 147.84169Q218.32507 147.84169 219.4032 148.79482Q220.48132 149.73232 220.70007 151.40419ZM213.5282 157.57607Q213.5282 158.48232 213.9032 159.31044Q214.29382 160.13857 214.98132 160.57607Q215.68445 161.01357 216.43445 161.01357Q217.55945 161.01357 218.35632 160.12294Q219.1532 159.21669 219.1532 157.66982Q219.1532 156.18544 218.35632 155.34169Q217.57507 154.48232 216.37195 154.48232Q215.18445 154.48232 214.35632 155.34169Q213.5282 156.18544 213.5282 157.57607Z" fill-rule="nonzero"/><path fill="#000000" d="M305.15536 76.04289L306.9991 75.88664Q307.20224 77.23039 307.95224 77.91789Q308.70224 78.58977 309.76474 78.58977Q311.03036 78.58977 311.90536 77.63664Q312.78036 76.68352 312.78036 75.08977Q312.78036 73.58977 311.9366 72.73039Q311.09286 71.85539 309.7335 71.85539Q308.8741 71.85539 308.1866 72.24602Q307.51474 72.62102 307.1241 73.24602L305.46786 73.02727L306.8585 65.66789L313.9835 65.66789L313.9835 67.35539L308.26474 67.35539L307.4991 71.19914Q308.78036 70.29289 310.20224 70.29289Q312.07724 70.29289 313.3585 71.60539Q314.65536 72.90227 314.65536 74.93352Q314.65536 76.88664 313.51474 78.29289Q312.13974 80.04289 309.76474 80.04289Q307.8116 80.04289 306.5616 78.94914Q305.32724 77.85539 305.15536 76.04289Z" fill-rule="nonzero"/><path fill="#1a1a1a" d="M24.709375 44.85L24.709375 27.662498L31.178125 27.662498Q32.896873 27.662498 33.803123 27.834373Q35.06875 28.037498 35.9125 28.631248Q36.771873 29.224998 37.2875 30.303123Q37.81875 31.365623 37.81875 32.63125Q37.81875 34.834373 36.4125 36.35Q35.021873 37.865623 31.38125 37.865623L26.975 37.865623L26.975 44.85L24.709375 44.85ZM26.975 35.834373L31.4125 35.834373Q33.615623 35.834373 34.5375 35.021873Q35.475 34.19375 35.475 32.709373Q35.475 31.631248 34.928123 30.865623Q34.38125 30.099998 33.490623 29.849998Q32.9125 29.693748 31.365625 29.693748L26.975 29.693748L26.975 35.834373ZM40.44375 30.099998L40.44375 27.662498L42.553123 27.662498L42.553123 30.099998L40.44375 30.099998ZM40.44375 44.85L40.44375 32.396873L42.553123 32.396873L42.553123 44.85L40.44375 44.85Z" fill-rule="nonzero"/><path fill="#9e9e9e" d="M31.7875 75.85L29.678125 75.85L29.678125 62.4125Q28.928125 63.13125 27.678125 63.865623Q26.44375 64.58437 25.459375 64.94375L25.459375 62.9125Q27.240625 62.084373 28.553125 60.896873Q29.88125 59.709373 30.428125 58.6L31.7875 58.6L31.7875 75.85ZM44.7875 75.85L42.678123 75.85L42.678123 62.4125Q41.928123 63.13125 40.678123 63.865623Q39.44375 64.58437 38.459373 64.94375L38.459373 62.9125Q40.240623 62.084373 41.553123 60.896873Q42.88125 59.709373 43.428123 58.6L44.7875 58.6L44.7875 75.85ZM51.0375 75.85L51.0375 73.44375L53.428123 73.44375L53.428123 75.85L51.0375 75.85ZM64.7875 75.85L62.678123 75.85L62.678123 62.4125Q61.928123 63.13125 60.678123 63.865623Q59.44375 64.58437 58.459373 64.94375L58.459373 62.9125Q60.240623 62.084373 61.553123 60.896873Q62.88125 59.709373 63.428123 58.6L64.7875 58.6L64.7875 75.85ZM70.24062 62.7875Q70.24062 60.959373 71.1625 59.678123Q72.1 58.38125 73.85 58.38125Q75.475 58.38125 76.5375 59.5375Q77.6 60.678123 77.6 62.928123Q77.6 65.1 76.52187 66.2875Q75.44375 67.45937 73.88125 67.45937Q72.31875 67.45937 71.27187 66.30312Q70.24062 65.13125 70.24062 62.7875ZM73.9125 59.834373Q73.13125 59.834373 72.6 60.521873Q72.08437 61.19375 72.08437 63.00625Q72.08437 64.6625 72.61562 65.33437Q73.14687 66.00625 73.9125 66.00625Q74.70937 66.00625 75.225 65.33437Q75.75625 64.64687 75.75625 62.834373Q75.75625 61.178123 75.225 60.50625Q74.69375 59.834373 73.9125 59.834373ZM73.92812 76.49062L83.31875 58.38125L85.0375 58.38125L75.67812 76.49062L73.92812 76.49062ZM81.35 71.81875Q81.35 69.95937 82.27187 68.67812Q83.20937 67.39687 84.975 67.39687Q86.6 67.39687 87.64687 68.55312Q88.70937 69.70937 88.70937 71.94375Q88.70937 74.13125 87.63125 75.31875Q86.56875 76.49062 84.99062 76.49062Q83.42812 76.49062 82.38125 75.31875Q81.35 74.14687 81.35 71.81875ZM85.0375 68.85Q84.24062 68.85 83.70937 69.5375Q83.19375 70.20937 83.19375 72.02187Q83.19375 73.6625 83.725 74.35Q84.25625 75.02187 85.02187 75.02187Q85.83437 75.02187 86.35 74.35Q86.88125 73.6625 86.88125 71.86562Q86.88125 70.19375 86.35 69.52187Q85.81875 68.85 85.0375 68.85Z" fill-rule="nonzero"/><path stroke="#757575" stroke-width="1.0" stroke-linecap="butt" d="M22.85 52.35L154.85 52.35L299.6804 44.9146" fill-rule="nonzero"/><path fill="#9e9e9e" d="M301.6804 44.9146C301.6804 43.81003 300.78494 42.9146 299.6804 42.9146C298.5758 42.9146 297.6804 43.81003 297.6804 44.9146C297.6804 46.019173 298.5758 46.9146 299.6804 46.9146C300.78494 46.9146 301.6804 46.019173 301.6804 44.9146" fill-rule="nonzero"/><path fill="#1a1a1a" d="M32.740623 128.62215L32.740623 126.60652L40.021873 126.5909L40.021873 132.9659Q38.35 134.29402 36.56875 134.98152Q34.7875 135.6534 32.9125 135.6534Q30.38125 135.6534 28.303125 134.57527Q26.240625 133.48152 25.178125 131.43465Q24.13125 129.37215 24.13125 126.8409Q24.13125 124.3409 25.178125 122.16902Q26.225 119.99715 28.19375 118.95027Q30.1625 117.88777 32.725 117.88777Q34.6 117.88777 36.1 118.49715Q37.6 119.0909 38.459373 120.16902Q39.31875 121.24715 39.75625 122.98152L37.709373 123.54402Q37.31875 122.23152 36.740623 121.48152Q36.178123 120.73152 35.1 120.2784Q34.0375 119.82527 32.740623 119.82527Q31.178125 119.82527 30.0375 120.30965Q28.9125 120.7784 28.209375 121.55965Q27.521875 122.32527 27.13125 123.24715Q26.475 124.8409 26.475 126.70027Q26.475 128.99715 27.25625 130.54402Q28.053125 132.0909 29.56875 132.8409Q31.084375 133.5909 32.771873 133.5909Q34.25625 133.5909 35.6625 133.0284Q37.06875 132.4659 37.7875 131.80965L37.7875 128.62215L32.740623 128.62215ZM43.709373 135.35652L43.709373 118.16902L50.178123 118.16902Q51.896873 118.16902 52.803123 118.3409Q54.06875 118.54402 54.9125 119.13777Q55.771873 119.73152 56.2875 120.80965Q56.81875 121.87215 56.81875 123.13777Q56.81875 125.3409 55.4125 126.85652Q54.021873 128.37215 50.38125 128.37215L45.975 128.37215L45.975 135.35652L43.709373 135.35652ZM45.975 126.3409L50.4125 126.3409Q52.615623 126.3409 53.5375 125.5284Q54.475 124.70027 54.475 123.2159Q54.475 122.13777 53.928123 121.37215Q53.38125 120.60652 52.490623 120.35652Q51.9125 120.20027 50.365623 120.20027L45.975 120.20027L45.975 126.3409ZM64.06875 135.35652L64.06875 120.20027L58.4125 120.20027L58.4125 118.16902L72.0375 118.16902L72.0375 120.20027L66.35 120.20027L66.35 135.35652L64.06875 135.35652ZM72.61562 130.20027L72.61562 128.07527L79.1 128.07527L79.1 130.20027L72.61562 130.20027ZM87.61562 135.35652L87.61562 131.24715L80.1625 131.24715L80.1625 129.30965L87.99062 118.16902L89.725 118.16902L89.725 129.30965L92.0375 129.30965L92.0375 131.24715L89.725 131.24715L89.725 135.35652L87.61562 135.35652ZM87.61562 129.30965L87.61562 121.55965L82.225 129.30965L87.61562 129.30965Z" fill-rule="nonzero"/><path fill="#9e9e9e" d="M31.7875 166.35652L29.678125 166.35652L29.678125 152.91902Q28.928125 153.63777 27.678125 154.37215Q26.44375 155.0909 25.459375 155.45027L25.459375 153.41902Q27.240625 152.5909 28.553125 151.4034Q29.88125 150.2159 30.428125 149.10652L31.7875 149.10652L31.7875 166.35652ZM36.865623 161.82527L38.975 161.54402Q39.334373 163.32527 40.209373 164.12215Q41.084373 164.91902 42.334373 164.91902Q43.81875 164.91902 44.834373 163.88777Q45.865623 162.85652 45.865623 161.32527Q45.865623 159.87215 44.9125 158.93465Q43.975 157.98152 42.50625 157.98152Q41.9125 157.98152 41.021873 158.2159L41.25625 156.37215Q41.459373 156.38777 41.6 156.38777Q42.94375 156.38777 44.021873 155.68465Q45.1 154.98152 45.1 153.5284Q45.1 152.35652 44.303123 151.60652Q43.521873 150.8409 42.2875 150.8409Q41.053123 150.8409 40.225 151.62215Q39.4125 152.38777 39.178123 153.93465L37.06875 153.55965Q37.459373 151.43465 38.81875 150.2784Q40.19375 149.10652 42.240623 149.10652Q43.646873 149.10652 44.81875 149.7159Q46.00625 150.30965 46.63125 151.35652Q47.271873 152.4034 47.271873 153.57527Q47.271873 154.68465 46.6625 155.60652Q46.06875 156.51277 44.896873 157.04402Q46.428123 157.4034 47.271873 158.51277Q48.115623 159.62215 48.115623 161.2784Q48.115623 163.5284 46.475 165.10652Q44.834373 166.66902 42.31875 166.66902Q40.053123 166.66902 38.553123 165.32527Q37.06875 163.9659 36.865623 161.82527ZM51.0375 166.35652L51.0375 163.95027L53.428123 163.95027L53.428123 166.35652L51.0375 166.35652ZM56.865623 161.82527L58.975 161.54402Q59.334373 163.32527 60.209373 164.12215Q61.084373 164.91902 62.334373 164.91902Q63.81875 164.91902 64.83437 163.88777Q65.86562 162.85652 65.86562 161.32527Q65.86562 159.87215 64.9125 158.93465Q63.975 157.98152 62.50625 157.98152Q61.9125 157.98152 61.021873 158.2159L61.25625 156.37215Q61.459373 156.38777 61.6 156.38777Q62.94375 156.38777 64.02187 155.68465Q65.1 154.98152 65.1 153.5284Q65.1 152.35652 64.30312 151.60652Q63.521873 150.8409 62.2875 150.8409Q61.053123 150.8409 60.225 151.62215Q59.4125 152.38777 59.178123 153.93465L57.06875 153.55965Q57.459373 151.43465 58.81875 150.2784Q60.19375 149.10652 62.240623 149.10652Q63.646873 149.10652 64.81875 149.7159Q66.00625 150.30965 66.63125 151.35652Q67.27187 152.4034 67.27187 153.57527Q67.27187 154.68465 66.6625 155.60652Q66.06875 156.51277 64.89687 157.04402Q66.42812 157.4034 67.27187 158.51277Q68.11562 159.62215 68.11562 161.2784Q68.11562 163.5284 66.475 165.10652Q64.83437 166.66902 62.31875 166.66902Q60.053123 166.66902 58.553123 165.32527Q57.06875 163.9659 56.865623 161.82527ZM70.24062 153.29402Q70.24062 151.4659 71.1625 150.18465Q72.1 148.88777 73.85 148.88777Q75.475 148.88777 76.5375 150.04402Q77.6 151.18465 77.6 153.43465Q77.6 155.60652 76.52187 156.79402Q75.44375 157.9659 73.88125 157.9659Q72.31875 157.9659 71.27187 156.80965Q70.24062 155.63777 70.24062 153.29402ZM73.9125 150.3409Q73.13125 150.3409 72.6 151.0284Q72.08437 151.70027 72.08437 153.51277Q72.08437 155.16902 72.61562 155.8409Q73.14687 156.51277 73.9125 156.51277Q74.70937 156.51277 75.225 155.8409Q75.75625 155.1534 75.75625 153.3409Q75.75625 151.68465 75.225 151.01277Q74.69375 150.3409 73.9125 150.3409ZM73.92812 166.99715L83.31875 148.88777L85.0375 148.88777L75.67812 166.99715L73.92812 166.99715ZM81.35 162.32527Q81.35 160.4659 82.27187 159.18465Q83.20937 157.9034 84.975 157.9034Q86.6 157.9034 87.64687 159.05965Q88.70937 160.2159 88.70937 162.45027Q88.70937 164.63777 87.63125 165.82527Q86.56875 166.99715 84.99062 166.99715Q83.42812 166.99715 82.38125 165.82527Q81.35 164.6534 81.35 162.32527ZM85.0375 159.35652Q84.24062 159.35652 83.70937 160.04402Q83.19375 160.7159 83.19375 162.5284Q83.19375 164.16902 83.725 164.85652Q84.25625 165.5284 85.02187 165.5284Q85.83437 165.5284 86.35 164.85652Q86.88125 164.16902 86.88125 162.37215Q86.88125 160.70027 86.35 160.0284Q85.81875 159.35652 85.0375 159.35652Z" fill-rule="nonzero"/><path stroke="#757575" stroke-width="1.0" stroke-linecap="butt" d="M22.85 142.85652L154.85 142.85652L190.90486 142.85652" fill-rule="nonzero"/><path fill="#9e9e9e" d="M192.90486 142.85652C192.90486 141.75195 192.00943 140.85652 190.90486 140.85652C189.80028 140.85652 188.90486 141.75195 188.90486 142.85652C188.90486 143.96109 189.80028 144.85652 190.90486 144.85652C192.00943 144.85652 192.90486 143.96109 192.90486 142.85652" fill-rule="nonzero"/><path fill="#1a1a1a" d="M32.740623 274.6375L32.740623 272.6219L40.021873 272.60626L40.021873 278.98126Q38.35 280.3094 36.56875 280.9969Q34.7875 281.66876 32.9125 281.66876Q30.38125 281.66876 28.303125 280.59064Q26.240625 279.4969 25.178125 277.45Q24.13125 275.3875 24.13125 272.85626Q24.13125 270.35626 25.178125 268.1844Q26.225 266.0125 28.19375 264.96564Q30.1625 263.90314 32.725 263.90314Q34.6 263.90314 36.1 264.5125Q37.6 265.10626 38.459373 266.1844Q39.31875 267.2625 39.75625 268.9969L37.709373 269.5594Q37.31875 268.2469 36.740623 267.4969Q36.178123 266.7469 35.1 266.29376Q34.0375 265.84064 32.740623 265.84064Q31.178125 265.84064 30.0375 266.325Q28.9125 266.79376 28.209375 267.575Q27.521875 268.34064 27.13125 269.2625Q26.475 270.85626 26.475 272.71564Q26.475 275.0125 27.25625 276.5594Q28.053125 278.10626 29.56875 278.85626Q31.084375 279.60626 32.771873 279.60626Q34.25625 279.60626 35.6625 279.04376Q37.06875 278.48126 37.7875 277.825L37.7875 274.6375L32.740623 274.6375ZM51.959373 277.35626L54.13125 277.6375Q53.615623 279.54376 52.225 280.60626Q50.834373 281.65314 48.6625 281.65314Q45.928123 281.65314 44.31875 279.98126Q42.725 278.29376 42.725 275.2469Q42.725 272.10626 44.334373 270.3719Q45.959373 268.6375 48.5375 268.6375Q51.0375 268.6375 52.615623 270.34064Q54.209373 272.04376 54.209373 275.1219Q54.209373 275.3094 54.19375 275.6844L44.9125 275.6844Q45.021873 277.73126 46.06875 278.825Q47.115623 279.91876 48.678123 279.91876Q49.834373 279.91876 50.646873 279.3094Q51.475 278.7 51.959373 277.35626ZM45.021873 273.95L51.975 273.95Q51.834373 272.3875 51.178123 271.59064Q50.178123 270.3719 48.56875 270.3719Q47.115623 270.3719 46.115623 271.35626Q45.13125 272.325 45.021873 273.95ZM56.428123 281.3719L56.428123 268.91876L58.31875 268.91876L58.31875 270.66876Q58.9125 269.7625 59.88125 269.2Q60.85 268.6375 62.1 268.6375Q63.475 268.6375 64.35 269.21564Q65.24062 269.79376 65.61562 270.825Q67.08437 268.6375 69.45937 268.6375Q71.30312 268.6375 72.30312 269.66876Q73.30312 270.7 73.30312 272.825L73.30312 281.3719L71.19375 281.3719L71.19375 273.52814Q71.19375 272.2625 70.99062 271.71564Q70.7875 271.15314 70.24062 270.8094Q69.70937 270.46564 68.99062 270.46564Q67.67812 270.46564 66.80312 271.34064Q65.94375 272.21564 65.94375 274.1375L65.94375 281.3719L63.834373 281.3719L63.834373 273.27814Q63.834373 271.8719 63.31875 271.16876Q62.803123 270.46564 61.63125 270.46564Q60.740623 270.46564 59.975 270.9344Q59.225 271.40314 58.88125 272.3094Q58.5375 273.21564 58.5375 274.91876L58.5375 281.3719L56.428123 281.3719ZM76.44375 266.6219L76.44375 264.1844L78.55312 264.1844L78.55312 266.6219L76.44375 266.6219ZM76.44375 281.3719L76.44375 268.91876L78.55312 268.91876L78.55312 281.3719L76.44375 281.3719ZM81.42812 281.3719L81.42812 268.91876L83.33437 268.91876L83.33437 270.7Q84.70937 268.6375 87.2875 268.6375Q88.4125 268.6375 89.35 269.04376Q90.30312 269.45 90.77187 270.10626Q91.24062 270.7625 91.42812 271.66876Q91.55312 272.2469 91.55312 273.71564L91.55312 281.3719L89.44375 281.3719L89.44375 273.79376Q89.44375 272.5125 89.19375 271.8719Q88.94375 271.23126 88.31875 270.85626Q87.69375 270.46564 86.85 270.46564Q85.50625 270.46564 84.52187 271.325Q83.5375 272.1844 83.5375 274.575L83.5375 281.3719L81.42812 281.3719ZM95.44375 266.6219L95.44375 264.1844L97.55312 264.1844L97.55312 266.6219L95.44375 266.6219ZM95.44375 281.3719L95.44375 268.91876L97.55312 268.91876L97.55312 281.3719L95.44375 281.3719Z" fill-rule="nonzero"/><path fill="#9e9e9e" d="M31.7875 312.3719L29.678125 312.3719L29.678125 298.9344Q28.928125 299.65314 27.678125 300.3875Q26.44375 301.10626 25.459375 301.46564L25.459375 299.4344Q27.240625 298.60626 28.553125 297.41876Q29.88125 296.23126 30.428125 295.1219L31.7875 295.1219L31.7875 312.3719ZM44.7875 312.3719L42.678123 312.3719L42.678123 298.9344Q41.928123 299.65314 40.678123 300.3875Q39.44375 301.10626 38.459373 301.46564L38.459373 299.4344Q40.240623 298.60626 41.553123 297.41876Q42.88125 296.23126 43.428123 295.1219L44.7875 295.1219L44.7875 312.3719ZM51.0375 312.3719L51.0375 309.96564L53.428123 309.96564L53.428123 312.3719L51.0375 312.3719ZM64.7875 312.3719L62.678123 312.3719L62.678123 298.9344Q61.928123 299.65314 60.678123 300.3875Q59.44375 301.10626 58.459373 301.46564L58.459373 299.4344Q60.240623 298.60626 61.553123 297.41876Q62.88125 296.23126 63.428123 295.1219L64.7875 295.1219L64.7875 312.3719ZM70.24062 299.3094Q70.24062 297.48126 71.1625 296.2Q72.1 294.90314 73.85 294.90314Q75.475 294.90314 76.5375 296.0594Q77.6 297.2 77.6 299.45Q77.6 301.6219 76.52187 302.8094Q75.44375 303.98126 73.88125 303.98126Q72.31875 303.98126 71.27187 302.825Q70.24062 301.65314 70.24062 299.3094ZM73.9125 296.35626Q73.13125 296.35626 72.6 297.04376Q72.08437 297.71564 72.08437 299.52814Q72.08437 301.1844 72.61562 301.85626Q73.14687 302.52814 73.9125 302.52814Q74.70937 302.52814 75.225 301.85626Q75.75625 301.16876 75.75625 299.35626Q75.75625 297.7 75.225 297.02814Q74.69375 296.35626 73.9125 296.35626ZM73.92812 313.0125L83.31875 294.90314L85.0375 294.90314L75.67812 313.0125L73.92812 313.0125ZM81.35 308.34064Q81.35 306.48126 82.27187 305.2Q83.20937 303.91876 84.975 303.91876Q86.6 303.91876 87.64687 305.075Q88.70937 306.23126 88.70937 308.46564Q88.70937 310.65314 87.63125 311.84064Q86.56875 313.0125 84.99062 313.0125Q83.42812 313.0125 82.38125 311.84064Q81.35 310.66876 81.35 308.34064ZM85.0375 305.3719Q84.24062 305.3719 83.70937 306.0594Q83.19375 306.73126 83.19375 308.54376Q83.19375 310.1844 83.725 310.8719Q84.25625 311.54376 85.02187 311.54376Q85.83437 311.54376 86.35 310.8719Q86.88125 310.1844 86.88125 308.3875Q86.88125 306.71564 86.35 306.04376Q85.81875 305.3719 85.0375 305.3719Z" fill-rule="nonzero"/><path stroke="#757575" stroke-width="1.0" stroke-linecap="butt" d="M22.85 288.8719L154.85 288.8719L180.69447 288.8719" fill-rule="nonzero"/><path fill="#9e9e9e" d="M182.69447 288.8719C182.69447 287.7673 181.79904 286.8719 180.69447 286.8719C179.58989 286.8719 178.69447 287.7673 178.69447 288.8719C178.69447 289.97644 179.58989 290.8719 180.69447 290.8719C181.79904 290.8719 182.69447 289.97644 182.69447 288.8719" fill-rule="nonzero"/><path fill="#1a1a1a" d="M634.2594 117.285L636.54065 117.86313Q635.8219 120.66 633.9625 122.14438Q632.10315 123.61313 629.41565 123.61313Q626.65 123.61313 624.9 122.48813Q623.16565 121.3475 622.2594 119.20688Q621.35315 117.05063 621.35315 114.5975Q621.35315 111.91 622.3688 109.91Q623.4 107.91 625.29065 106.87875Q627.1813 105.8475 629.4625 105.8475Q632.04065 105.8475 633.79065 107.16Q635.5563 108.4725 636.2438 110.8475L634.0094 111.37875Q633.4 109.50375 632.2594 108.64438Q631.1344 107.785 629.41565 107.785Q627.4313 107.785 626.10315 108.73813Q624.775 109.69125 624.22815 111.285Q623.6969 112.87875 623.6969 114.58188Q623.6969 116.76938 624.3219 118.41Q624.9625 120.05063 626.3063 120.86313Q627.66565 121.66 629.22815 121.66Q631.15 121.66 632.4625 120.56625Q633.79065 119.45688 634.2594 117.285ZM638.6813 123.31625L638.6813 106.12875L640.79065 106.12875L640.79065 123.31625L638.6813 123.31625ZM652.85315 121.785Q651.6813 122.76938 650.5875 123.19125Q649.5094 123.5975 648.275 123.5975Q646.22815 123.5975 645.1188 122.5975Q644.025 121.5975 644.025 120.035Q644.025 119.11313 644.4313 118.36313Q644.85315 117.61313 645.525 117.16Q646.1969 116.69125 647.04065 116.45688Q647.66565 116.30063 648.91565 116.14438Q651.47815 115.83188 652.6813 115.41Q652.6969 114.98813 652.6969 114.86313Q652.6969 113.58188 652.0875 113.05063Q651.29065 112.33188 649.6969 112.33188Q648.1969 112.33188 647.4938 112.86313Q646.79065 113.37875 646.4469 114.70688L644.3844 114.42563Q644.66565 113.0975 645.3063 112.285Q645.9469 111.4725 647.16565 111.035Q648.3844 110.58188 649.9938 110.58188Q651.5875 110.58188 652.5875 110.95688Q653.5875 111.33188 654.0563 111.91Q654.525 112.4725 654.7125 113.3475Q654.8063 113.87875 654.8063 115.285L654.8063 118.0975Q654.8063 121.035 654.9469 121.81625Q655.0875 122.5975 655.47815 123.31625L653.275 123.31625Q652.9469 122.66 652.85315 121.785ZM652.6813 117.06625Q651.525 117.535 649.22815 117.86313Q647.9313 118.05063 647.3844 118.285Q646.85315 118.51938 646.5563 118.9725Q646.275 119.42563 646.275 119.9725Q646.275 120.81625 646.9 121.37875Q647.54065 121.94125 648.775 121.94125Q649.9938 121.94125 650.9469 121.41Q651.9 120.87875 652.3375 119.95688Q652.6813 119.23813 652.6813 117.8475L652.6813 117.06625ZM665.8844 123.31625L665.8844 121.48813Q664.4313 123.5975 661.9469 123.5975Q660.8375 123.5975 659.8844 123.17563Q658.9313 122.75375 658.4625 122.11313Q658.0094 121.4725 657.8219 120.55063Q657.6813 119.92563 657.6813 118.58188L657.6813 110.86313L659.79065 110.86313L659.79065 117.76938Q659.79065 119.42563 659.9313 120.00375Q660.1188 120.83188 660.7594 121.31625Q661.41565 121.785 662.3688 121.785Q663.3063 121.785 664.1344 121.30063Q664.97815 120.80063 665.3219 119.9725Q665.66565 119.12875 665.66565 117.535L665.66565 110.86313L667.775 110.86313L667.775 123.31625L665.8844 123.31625ZM679.8063 123.31625L679.8063 121.73813Q678.6188 123.5975 676.3219 123.5975Q674.8375 123.5975 673.5875 122.785Q672.3375 121.95688 671.65 120.48813Q670.97815 119.01938 670.97815 117.0975Q670.97815 115.23813 671.5875 113.7225Q672.2125 112.20688 673.4469 111.39438Q674.6969 110.58188 676.22815 110.58188Q677.35315 110.58188 678.22815 111.06625Q679.1188 111.535 679.66565 112.30063L679.66565 106.12875L681.7594 106.12875L681.7594 123.31625L679.8063 123.31625ZM673.1344 117.0975Q673.1344 119.48813 674.1344 120.67563Q675.15 121.86313 676.525 121.86313Q677.91565 121.86313 678.8688 120.73813Q679.8375 119.5975 679.8375 117.285Q679.8375 114.7225 678.85315 113.535Q677.8688 112.33188 676.4313 112.33188Q675.025 112.33188 674.0719 113.48813Q673.1344 114.62875 673.1344 117.0975ZM694.2594 119.30063L696.4313 119.58188Q695.91565 121.48813 694.525 122.55063Q693.1344 123.5975 690.9625 123.5975Q688.22815 123.5975 686.6188 121.92563Q685.025 120.23813 685.025 117.19125Q685.025 114.05063 686.6344 112.31625Q688.2594 110.58188 690.8375 110.58188Q693.3375 110.58188 694.91565 112.285Q696.5094 113.98813 696.5094 117.06625Q696.5094 117.25375 696.4938 117.62875L687.2125 117.62875Q687.3219 119.67563 688.3688 120.76938Q689.41565 121.86313 690.97815 121.86313Q692.1344 121.86313 692.9469 121.25375Q693.775 120.64438 694.2594 119.30063ZM687.3219 115.89438L694.275 115.89438Q694.1344 114.33188 693.47815 113.535Q692.47815 112.31625 690.8688 112.31625Q689.41565 112.31625 688.41565 113.30063Q687.4313 114.26938 687.3219 115.89438ZM698.16565 118.785L700.275 118.50375Q700.6344 120.285 701.5094 121.08188Q702.3844 121.87875 703.6344 121.87875Q705.1188 121.87875 706.1344 120.8475Q707.16565 119.81625 707.16565 118.285Q707.16565 116.83188 706.2125 115.89438Q705.275 114.94125 703.8063 114.94125Q703.2125 114.94125 702.3219 115.17563L702.5563 113.33188Q702.7594 113.3475 702.9 113.3475Q704.2438 113.3475 705.3219 112.64438Q706.4 111.94125 706.4 110.48813Q706.4 109.31625 705.60315 108.56625Q704.8219 107.80063 703.5875 107.80063Q702.35315 107.80063 701.525 108.58188Q700.7125 109.3475 700.47815 110.89438L698.3688 110.51938Q698.7594 108.39438 700.1188 107.23813Q701.4938 106.06625 703.54065 106.06625Q704.9469 106.06625 706.1188 106.67563Q707.3063 107.26938 707.9313 108.31625Q708.5719 109.36313 708.5719 110.535Q708.5719 111.64438 707.9625 112.56625Q707.3688 113.4725 706.1969 114.00375Q707.72815 114.36313 708.5719 115.4725Q709.41565 116.58188 709.41565 118.23813Q709.41565 120.48813 707.775 122.06625Q706.1344 123.62875 703.6188 123.62875Q701.35315 123.62875 699.85315 122.285Q698.3688 120.92563 698.16565 118.785Z" fill-rule="nonzero"/><path fill="#9e9e9e" d="M644.16565 149.785L646.275 149.50375Q646.6344 151.285 647.5094 152.08188Q648.3844 152.87875 649.6344 152.87875Q651.1188 152.87875 652.1344 151.8475Q653.16565 150.81625 653.16565 149.285Q653.16565 147.83188 652.2125 146.89438Q651.275 145.94125 649.8063 145.94125Q649.2125 145.94125 648.3219 146.17563L648.5563 144.33188Q648.7594 144.3475 648.9 144.3475Q650.2438 144.3475 651.3219 143.64438Q652.4 142.94125 652.4 141.48813Q652.4 140.31625 651.60315 139.56625Q650.8219 138.80063 649.5875 138.80063Q648.35315 138.80063 647.525 139.58188Q646.7125 140.3475 646.47815 141.89438L644.3688 141.51938Q644.7594 139.39438 646.1188 138.23813Q647.4938 137.06625 649.54065 137.06625Q650.9469 137.06625 652.1188 137.67563Q653.3063 138.26938 653.9313 139.31625Q654.5719 140.36313 654.5719 141.535Q654.5719 142.64438 653.9625 143.56625Q653.3688 144.4725 652.1969 145.00375Q653.72815 145.36313 654.5719 146.4725Q655.41565 147.58188 655.41565 149.23813Q655.41565 151.48813 653.775 153.06625Q652.1344 154.62875 649.6188 154.62875Q647.35315 154.62875 645.85315 153.285Q644.3688 151.92563 644.16565 149.785ZM657.16565 149.785L659.275 149.50375Q659.6344 151.285 660.5094 152.08188Q661.3844 152.87875 662.6344 152.87875Q664.1188 152.87875 665.1344 151.8475Q666.16565 150.81625 666.16565 149.285Q666.16565 147.83188 665.2125 146.89438Q664.275 145.94125 662.8063 145.94125Q662.2125 145.94125 661.3219 146.17563L661.5563 144.33188Q661.7594 144.3475 661.9 144.3475Q663.2438 144.3475 664.3219 143.64438Q665.4 142.94125 665.4 141.48813Q665.4 140.31625 664.60315 139.56625Q663.8219 138.80063 662.5875 138.80063Q661.35315 138.80063 660.525 139.58188Q659.7125 140.3475 659.47815 141.89438L657.3688 141.51938Q657.7594 139.39438 659.1188 138.23813Q660.4938 137.06625 662.54065 137.06625Q663.9469 137.06625 665.1188 137.67563Q666.3063 138.26938 666.9313 139.31625Q667.5719 140.36313 667.5719 141.535Q667.5719 142.64438 666.9625 143.56625Q666.3688 144.4725 665.1969 145.00375Q666.72815 145.36313 667.5719 146.4725Q668.41565 147.58188 668.41565 149.23813Q668.41565 151.48813 666.775 153.06625Q665.1344 154.62875 662.6188 154.62875Q660.35315 154.62875 658.85315 153.285Q657.3688 151.92563 657.16565 149.785ZM671.3375 154.31625L671.3375 151.91L673.72815 151.91L673.72815 154.31625L671.3375 154.31625ZM677.16565 149.785L679.275 149.50375Q679.6344 151.285 680.5094 152.08188Q681.3844 152.87875 682.6344 152.87875Q684.1188 152.87875 685.1344 151.8475Q686.16565 150.81625 686.16565 149.285Q686.16565 147.83188 685.2125 146.89438Q684.275 145.94125 682.8063 145.94125Q682.2125 145.94125 681.3219 146.17563L681.5563 144.33188Q681.7594 144.3475 681.9 144.3475Q683.2438 144.3475 684.3219 143.64438Q685.4 142.94125 685.4 141.48813Q685.4 140.31625 684.60315 139.56625Q683.8219 138.80063 682.5875 138.80063Q681.35315 138.80063 680.525 139.58188Q679.7125 140.3475 679.47815 141.89438L677.3688 141.51938Q677.7594 139.39438 679.1188 138.23813Q680.4938 137.06625 682.54065 137.06625Q683.9469 137.06625 685.1188 137.67563Q686.3063 138.26938 686.9313 139.31625Q687.5719 140.36313 687.5719 141.535Q687.5719 142.64438 686.9625 143.56625Q686.3688 144.4725 685.1969 145.00375Q686.72815 145.36313 687.5719 146.4725Q688.41565 147.58188 688.41565 149.23813Q688.41565 151.48813 686.775 153.06625Q685.1344 154.62875 682.6188 154.62875Q680.35315 154.62875 678.85315 153.285Q677.3688 151.92563 677.16565 149.785ZM690.54065 141.25375Q690.54065 139.42563 691.4625 138.14438Q692.4 136.8475 694.15 136.8475Q695.775 136.8475 696.8375 138.00375Q697.9 139.14438 697.9 141.39438Q697.9 143.56625 696.8219 144.75375Q695.7438 145.92563 694.1813 145.92563Q692.6188 145.92563 691.5719 144.76938Q690.54065 143.5975 690.54065 141.25375ZM694.2125 138.30063Q693.4313 138.30063 692.9 138.98813Q692.3844 139.66 692.3844 141.4725Q692.3844 143.12875 692.91565 143.80063Q693.4469 144.4725 694.2125 144.4725Q695.0094 144.4725 695.525 143.80063Q696.0563 143.11313 696.0563 141.30063Q696.0563 139.64438 695.525 138.9725Q694.9938 138.30063 694.2125 138.30063ZM694.22815 154.95688L703.6188 136.8475L705.3375 136.8475L695.97815 154.95688L694.22815 154.95688ZM701.65 150.285Q701.65 148.42563 702.5719 147.14438Q703.5094 145.86313 705.275 145.86313Q706.9 145.86313 707.9469 147.01938Q709.0094 148.17563 709.0094 150.41Q709.0094 152.5975 707.9313 153.785Q706.8688 154.95688 705.29065 154.95688Q703.72815 154.95688 702.6813 153.785Q701.65 152.61313 701.65 150.285ZM705.3375 147.31625Q704.54065 147.31625 704.0094 148.00375Q703.4938 148.67563 703.4938 150.48813Q703.4938 152.12875 704.025 152.81625Q704.5563 153.48813 705.3219 153.48813Q706.1344 153.48813 706.65 152.81625Q707.1813 152.12875 707.1813 150.33188Q707.1813 148.66 706.65 147.98813Q706.1188 147.31625 705.3375 147.31625Z" fill-rule="nonzero"/><path stroke="#757575" stroke-width="1.0" stroke-linecap="butt" d="M710.15 130.81625L578.15 130.81625L535.69324 130.81625" fill-rule="nonzero"/><path fill="#9e9e9e" d="M537.69324 130.81625C537.69324 129.71169 536.7978 128.81625 535.69324 128.81625C534.5886 128.81625 533.69324 129.71169 533.69324 130.81625C533.69324 131.92082 534.5886 132.81625 535.69324 132.81625C536.7978 132.81625 537.69324 131.92082 537.69324 130.81625" fill-rule="nonzero"/><path fill="#1a1a1a" d="M649.2594 391.11874L651.54065 391.69687Q650.8219 394.49374 648.9625 395.97812Q647.10315 397.44687 644.41565 397.44687Q641.65 397.44687 639.9 396.32187Q638.16565 395.18124 637.2594 393.04062Q636.35315 390.88437 636.35315 388.43124Q636.35315 385.74374 637.3688 383.74374Q638.4 381.74374 640.29065 380.7125Q642.1813 379.68124 644.4625 379.68124Q647.04065 379.68124 648.79065 380.99374Q650.5563 382.30624 651.2438 384.68124L649.0094 385.2125Q648.4 383.3375 647.2594 382.47812Q646.1344 381.61874 644.41565 381.61874Q642.4313 381.61874 641.10315 382.57187Q639.775 383.525 639.22815 385.11874Q638.6969 386.7125 638.6969 388.41562Q638.6969 390.60312 639.3219 392.24374Q639.9625 393.88437 641.3063 394.69687Q642.66565 395.49374 644.22815 395.49374Q646.15 395.49374 647.4625 394.4Q648.79065 393.29062 649.2594 391.11874ZM652.9469 390.93124Q652.9469 387.4625 654.8688 385.80624Q656.47815 384.41562 658.79065 384.41562Q661.35315 384.41562 662.97815 386.10312Q664.60315 387.79062 664.60315 390.74374Q664.60315 393.15 663.8844 394.525Q663.16565 395.9 661.79065 396.66562Q660.41565 397.43124 658.79065 397.43124Q656.16565 397.43124 654.5563 395.75937Q652.9469 394.07187 652.9469 390.93124ZM655.1188 390.93124Q655.1188 393.32187 656.15 394.50937Q657.1969 395.69687 658.79065 395.69687Q660.35315 395.69687 661.4 394.50937Q662.4469 393.30624 662.4469 390.85312Q662.4469 388.54062 661.3844 387.35312Q660.3375 386.16562 658.79065 386.16562Q657.1969 386.16562 656.15 387.35312Q655.1188 388.54062 655.1188 390.93124ZM666.72815 401.91562L666.72815 384.69687L668.65 384.69687L668.65 386.32187Q669.3375 385.36874 670.1813 384.9Q671.04065 384.41562 672.2594 384.41562Q673.85315 384.41562 675.0719 385.24374Q676.29065 386.05624 676.91565 387.55624Q677.54065 389.05624 677.54065 390.8375Q677.54065 392.74374 676.85315 394.275Q676.16565 395.80624 674.85315 396.61874Q673.5563 397.43124 672.1188 397.43124Q671.0563 397.43124 670.2125 396.99374Q669.3844 396.54062 668.8375 395.85312L668.8375 401.91562L666.72815 401.91562ZM668.65 390.99374Q668.65 393.4 669.6188 394.55624Q670.5875 395.69687 671.97815 395.69687Q673.3844 395.69687 674.3844 394.50937Q675.3844 393.32187 675.3844 390.82187Q675.3844 388.44687 674.4 387.25937Q673.4313 386.07187 672.0719 386.07187Q670.7125 386.07187 669.6813 387.3375Q668.65 388.5875 668.65 390.99374ZM680.7438 382.4L680.7438 379.9625L682.85315 379.9625L682.85315 382.4L680.7438 382.4ZM680.7438 397.15L680.7438 384.69687L682.85315 384.69687L682.85315 397.15L680.7438 397.15ZM685.6813 397.15L685.6813 379.9625L687.79065 379.9625L687.79065 397.15L685.6813 397.15ZM690.9469 390.93124Q690.9469 387.4625 692.8688 385.80624Q694.47815 384.41562 696.79065 384.41562Q699.35315 384.41562 700.97815 386.10312Q702.60315 387.79062 702.60315 390.74374Q702.60315 393.15 701.8844 394.525Q701.16565 395.9 699.79065 396.66562Q698.41565 397.43124 696.79065 397.43124Q694.16565 397.43124 692.5563 395.75937Q690.9469 394.07187 690.9469 390.93124ZM693.1188 390.93124Q693.1188 393.32187 694.15 394.50937Q695.1969 395.69687 696.79065 395.69687Q698.35315 395.69687 699.4 394.50937Q700.4469 393.30624 700.4469 390.85312Q700.4469 388.54062 699.3844 387.35312Q698.3375 386.16562 696.79065 386.16562Q695.1969 386.16562 694.15 387.35312Q693.1188 388.54062 693.1188 390.93124ZM709.3375 395.25937L709.65 397.11874Q708.7594 397.32187 708.0563 397.32187Q706.9 397.32187 706.2594 396.9625Q705.6344 396.5875 705.3688 395.99374Q705.1188 395.4 705.1188 393.50937L705.1188 386.3375L703.5719 386.3375L703.5719 384.69687L705.1188 384.69687L705.1188 381.61874L707.2125 380.35312L707.2125 384.69687L709.3375 384.69687L709.3375 386.3375L707.2125 386.3375L707.2125 393.61874Q707.2125 394.525 707.3219 394.79062Q707.4469 395.04062 707.6969 395.19687Q707.9469 395.3375 708.41565 395.3375Q708.7594 395.3375 709.3375 395.25937Z" fill-rule="nonzero"/><path fill="#9e9e9e" d="M644.16565 423.61874L646.275 423.3375Q646.6344 425.11874 647.5094 425.91562Q648.3844 426.7125 649.6344 426.7125Q651.1188 426.7125 652.1344 425.68124Q653.16565 424.65 653.16565 423.11874Q653.16565 421.66562 652.2125 420.72812Q651.275 419.775 649.8063 419.775Q649.2125 419.775 648.3219 420.00937L648.5563 418.16562Q648.7594 418.18124 648.9 418.18124Q650.2438 418.18124 651.3219 417.47812Q652.4 416.775 652.4 415.32187Q652.4 414.15 651.60315 413.4Q650.8219 412.63437 649.5875 412.63437Q648.35315 412.63437 647.525 413.41562Q646.7125 414.18124 646.47815 415.72812L644.3688 415.35312Q644.7594 413.22812 646.1188 412.07187Q647.4938 410.9 649.54065 410.9Q650.9469 410.9 652.1188 411.50937Q653.3063 412.10312 653.9313 413.15Q654.5719 414.19687 654.5719 415.36874Q654.5719 416.47812 653.9625 417.4Q653.3688 418.30624 652.1969 418.8375Q653.72815 419.19687 654.5719 420.30624Q655.41565 421.41562 655.41565 423.07187Q655.41565 425.32187 653.775 426.9Q652.1344 428.4625 649.6188 428.4625Q647.35315 428.4625 645.85315 427.11874Q644.3688 425.75937 644.16565 423.61874ZM665.0875 428.15L662.97815 428.15L662.97815 414.7125Q662.22815 415.43124 660.97815 416.16562Q659.7438 416.88437 658.7594 417.24374L658.7594 415.2125Q660.54065 414.38437 661.85315 413.19687Q663.1813 412.00937 663.72815 410.9L665.0875 410.9L665.0875 428.15ZM671.3375 428.15L671.3375 425.74374L673.72815 425.74374L673.72815 428.15L671.3375 428.15ZM685.0875 428.15L682.97815 428.15L682.97815 414.7125Q682.22815 415.43124 680.97815 416.16562Q679.7438 416.88437 678.7594 417.24374L678.7594 415.2125Q680.54065 414.38437 681.85315 413.19687Q683.1813 412.00937 683.72815 410.9L685.0875 410.9L685.0875 428.15ZM690.54065 415.0875Q690.54065 413.25937 691.4625 411.97812Q692.4 410.68124 694.15 410.68124Q695.775 410.68124 696.8375 411.8375Q697.9 412.97812 697.9 415.22812Q697.9 417.4 696.8219 418.5875Q695.7438 419.75937 694.1813 419.75937Q692.6188 419.75937 691.5719 418.60312Q690.54065 417.43124 690.54065 415.0875ZM694.2125 412.13437Q693.4313 412.13437 692.9 412.82187Q692.3844 413.49374 692.3844 415.30624Q692.3844 416.9625 692.91565 417.63437Q693.4469 418.30624 694.2125 418.30624Q695.0094 418.30624 695.525 417.63437Q696.0563 416.94687 696.0563 415.13437Q696.0563 413.47812 695.525 412.80624Q694.9938 412.13437 694.2125 412.13437ZM694.22815 428.79062L703.6188 410.68124L705.3375 410.68124L695.97815 428.79062L694.22815 428.79062ZM701.65 424.11874Q701.65 422.25937 702.5719 420.97812Q703.5094 419.69687 705.275 419.69687Q706.9 419.69687 707.9469 420.85312Q709.0094 422.00937 709.0094 424.24374Q709.0094 426.43124 707.9313 427.61874Q706.8688 428.79062 705.29065 428.79062Q703.72815 428.79062 702.6813 427.61874Q701.65 426.44687 701.65 424.11874ZM705.3375 421.15Q704.54065 421.15 704.0094 421.8375Q703.4938 422.50937 703.4938 424.32187Q703.4938 425.9625 704.025 426.65Q704.5563 427.32187 705.3219 427.32187Q706.1344 427.32187 706.65 426.65Q707.1813 425.9625 707.1813 424.16562Q707.1813 422.49374 706.65 421.82187Q706.1188 421.15 705.3375 421.15Z" fill-rule="nonzero"/><path stroke="#757575" stroke-width="1.0" stroke-linecap="butt" d="M710.15 404.65L578.15 404.65L380.12814 423.3916" fill-rule="nonzero"/><path fill="#9e9e9e" d="M382.12814 423.3916C382.12814 422.28702 381.23273 421.3916 380.12814 421.3916C379.0236 421.3916 378.12814 422.28702 378.12814 423.3916C378.12814 424.49615 379.0236 425.3916 380.12814 425.3916C381.23273 425.3916 382.12814 424.49615 382.12814 423.3916" fill-rule="nonzero"/></svg>