<svg version="1.1" viewBox="0.0 0.0 922.0 462.0" fill="none" stroke="none" stroke-linecap="square" stroke-miterlimit="10" width="922" height="462" xmlns:xlink="http://www.w3.org/1999/xlink" xmlns="http://www.w3.org/2000/svg"><path fill="#ffffff" d="M0 0L922.0 0L922.0 462.0L0 462.0L0 0Z" fill-rule="nonzero"/><path stroke="#333333" stroke-width="1.0" stroke-linecap="butt" d="M50.5 418.5L898.5 418.5" fill-rule="nonzero"/><path stroke="#cccccc" stroke-width="1.0" stroke-linecap="butt" d="M50.5 347.5L898.5 347.5" fill-rule="nonzero"/><path stroke="#cccccc" stroke-width="1.0" stroke-linecap="butt" d="M50.5 275.5L898.5 275.5" fill-rule="nonzero"/><path stroke="#cccccc" stroke-width="1.0" stroke-linecap="butt" d="M50.5 203.5L898.5 203.5" fill-rule="nonzero"/><path stroke="#cccccc" stroke-width="1.0" stroke-linecap="butt" d="M50.5 131.5L898.5 131.5" fill-rule="nonzero"/><path stroke="#cccccc" stroke-width="1.0" stroke-linecap="butt" d="M50.5 59.5L898.5 59.5" fill-rule="nonzero"/><path stroke="#e6e6e6" stroke-width="1.0" stroke-linecap="butt" d="M50.5 394.5L898.5 394.5" fill-rule="nonzero"/><path stroke="#e6e6e6" stroke-width="1.0" stroke-linecap="butt" d="M50.5 370.5L898.5 370.5" fill-rule="nonzero"/><path stroke="#e6e6e6" stroke-width="1.0" stroke-linecap="butt" d="M50.5 323.5L898.5 323.5" fill-rule="nonzero"/><path stroke="#e6e6e6" stroke-width="1.0" stroke-linecap="butt" d="M50.5 299.5L898.5 299.5" fill-rule="nonzero"/><path stroke="#e6e6e6" stroke-width="1.0" stroke-linecap="butt" d="M50.5 251.5L898.5 251.5" fill-rule="nonzero"/><path stroke="#e6e6e6" stroke-width="1.0" stroke-linecap="butt" d="M50.5 227.5L898.5 227.5" fill-rule="nonzero"/><path stroke="#e6e6e6" stroke-width="1.0" stroke-linecap="butt" d="M50.5 179.5L898.5 179.5" fill-rule="nonzero"/><path stroke="#e6e6e6" stroke-width="1.0" stroke-linecap="butt" d="M50.5 155.5L898.5 155.5" fill-rule="nonzero"/><path stroke="#e6e6e6" stroke-width="1.0" stroke-linecap="butt" d="M50.5 107.5L898.5 107.5" fill-rule="nonzero"/><path stroke="#e6e6e6" stroke-width="1.0" stroke-linecap="butt" d="M50.5 83.5L898.5 83.5" fill-rule="nonzero"/><path stroke="#000000" stroke-width="1.0" stroke-linecap="butt" d="M898.5 418.5L50.5 418.5" fill-rule="nonzero"/><path stroke="#000000" stroke-width="1.0" stroke-linecap="butt" d="M50.5 418.5L50.5 59.5" fill-rule="nonzero"/><clipPath id="id_0"><path d="M50.1 59.5L898.9 59.5L898.9 418.9L50.1 418.9L50.1 59.5Z" clip-rule="nonzero"/></clipPath><path stroke="#000000" stroke-width="2.0" stroke-linecap="butt" stroke-opacity="0.0" clip-path="url(#id_0)" d="M171.0 419.0L140.0 419.0L140.0 189.0C140.0 187.89543 140.89543 187.0 142.0 187.0L169.0 187.0C170.10457 187.0 171.0 187.89543 171.0 189.0Z" fill-rule="nonzero"/><path fill="#4285f4" clip-path="url(#id_0)" d="M171.0 419.0L140.0 419.0L140.0 189.0C140.0 187.89543 140.89543 187.0 142.0 187.0L169.0 187.0C170.10457 187.0 171.0 187.89543 171.0 189.0Z" fill-rule="nonzero"/><path stroke="#000000" stroke-width="2.0" stroke-linecap="butt" stroke-opacity="0.0" clip-path="url(#id_0)" d="M425.0 419.0L394.0 419.0L394.0 200.0C394.0 198.89543 394.89542 198.0 396.0 198.0L423.0 198.0C424.10458 198.0 425.0 198.89543 425.0 200.0Z" fill-rule="nonzero"/><path fill="#4285f4" clip-path="url(#id_0)" d="M425.0 419.0L394.0 419.0L394.0 200.0C394.0 198.89543 394.89542 198.0 396.0 198.0L423.0 198.0C424.10458 198.0 425.0 198.89543 425.0 200.0Z" fill-rule="nonzero"/><path stroke="#000000" stroke-width="2.0" stroke-linecap="butt" stroke-opacity="0.0" clip-path="url(#id_0)" d="M678.0 419.0L647.0 419.0L647.0 190.0C647.0 188.89543 647.89545 188.0 649.0 188.0L676.0 188.0C677.10455 188.0 678.0 188.89543 678.0 190.0Z" fill-rule="nonzero"/><path fill="#4285f4" clip-path="url(#id_0)" d="M678.0 419.0L647.0 419.0L647.0 190.0C647.0 188.89543 647.89545 188.0 649.0 188.0L676.0 188.0C677.10455 188.0 678.0 188.89543 678.0 190.0Z" fill-rule="nonzero"/><path stroke="#000000" stroke-width="2.0" stroke-linecap="butt" stroke-opacity="0.0" clip-path="url(#id_0)" d="M204.0 419.0L173.0 419.0L173.0 178.0C173.0 176.89543 173.89543 176.0 175.0 176.0L202.0 176.0C203.10457 176.0 204.0 176.89543 204.0 178.0Z" fill-rule="nonzero"/><path fill="#ea4335" clip-path="url(#id_0)" d="M204.0 419.0L173.0 419.0L173.0 178.0C173.0 176.89543 173.89543 176.0 175.0 176.0L202.0 176.0C203.10457 176.0 204.0 176.89543 204.0 178.0Z" fill-rule="nonzero"/><path stroke="#000000" stroke-width="2.0" stroke-linecap="butt" stroke-opacity="0.0" clip-path="url(#id_0)" d="M458.0 419.0L427.0 419.0L427.0 197.0C427.0 195.89543 427.89542 195.0 429.0 195.0L456.0 195.0C457.10458 195.0 458.0 195.89543 458.0 197.0Z" fill-rule="nonzero"/><path fill="#ea4335" clip-path="url(#id_0)" d="M458.0 419.0L427.0 419.0L427.0 197.0C427.0 195.89543 427.89542 195.0 429.0 195.0L456.0 195.0C457.10458 195.0 458.0 195.89543 458.0 197.0Z" fill-rule="nonzero"/><path stroke="#000000" stroke-width="2.0" stroke-linecap="butt" stroke-opacity="0.0" clip-path="url(#id_0)" d="M711.0 419.0L680.0 419.0L680.0 182.0C680.0 180.89543 680.89545 180.0 682.0 180.0L709.0 180.0C710.10455 180.0 711.0 180.89543 711.0 182.0Z" fill-rule="nonzero"/><path fill="#ea4335" clip-path="url(#id_0)" d="M711.0 419.0L680.0 419.0L680.0 182.0C680.0 180.89543 680.89545 180.0 682.0 180.0L709.0 180.0C710.10455 180.0 711.0 180.89543 711.0 182.0Z" fill-rule="nonzero"/><path stroke="#000000" stroke-width="2.0" stroke-linecap="butt" stroke-opacity="0.0" clip-path="url(#id_0)" d="M237.0 419.0L206.0 419.0L206.0 203.0C206.0 201.89543 206.89543 201.0 208.0 201.0L235.0 201.0C236.10457 201.0 237.0 201.89543 237.0 203.0Z" fill-rule="nonzero"/><path fill="#fbbc04" clip-path="url(#id_0)" d="M237.0 419.0L206.0 419.0L206.0 203.0C206.0 201.89543 206.89543 201.0 208.0 201.0L235.0 201.0C236.10457 201.0 237.0 201.89543 237.0 203.0Z" fill-rule="nonzero"/><path stroke="#000000" stroke-width="2.0" stroke-linecap="butt" stroke-opacity="0.0" clip-path="url(#id_0)" d="M491.0 419.0L460.0 419.0L460.0 199.0C460.0 197.89543 460.89542 197.0 462.0 197.0L489.0 197.0C490.10458 197.0 491.0 197.89543 491.0 199.0Z" fill-rule="nonzero"/><path fill="#fbbc04" clip-path="url(#id_0)" d="M491.0 419.0L460.0 419.0L460.0 199.0C460.0 197.89543 460.89542 197.0 462.0 197.0L489.0 197.0C490.10458 197.0 491.0 197.89543 491.0 199.0Z" fill-rule="nonzero"/><path stroke="#000000" stroke-width="2.0" stroke-linecap="butt" stroke-opacity="0.0" clip-path="url(#id_0)" d="M744.0 419.0L713.0 419.0L713.0 190.0C713.0 188.89543 713.89545 188.0 715.0 188.0L742.0 188.0C743.10455 188.0 744.0 188.89543 744.0 190.0Z" fill-rule="nonzero"/><path fill="#fbbc04" clip-path="url(#id_0)" d="M744.0 419.0L713.0 419.0L713.0 190.0C713.0 188.89543 713.89545 188.0 715.0 188.0L742.0 188.0C743.10455 188.0 744.0 188.89543 744.0 190.0Z" fill-rule="nonzero"/><path stroke="#000000" stroke-width="2.0" stroke-linecap="butt" stroke-opacity="0.0" clip-path="url(#id_0)" d="M270.0 419.0L239.0 419.0L239.0 191.0C239.0 189.89543 239.89543 189.0 241.0 189.0L268.0 189.0C269.10458 189.0 270.0 189.89543 270.0 191.0Z" fill-rule="nonzero"/><path fill="#34a853" clip-path="url(#id_0)" d="M270.0 419.0L239.0 419.0L239.0 191.0C239.0 189.89543 239.89543 189.0 241.0 189.0L268.0 189.0C269.10458 189.0 270.0 189.89543 270.0 191.0Z" fill-rule="nonzero"/><path stroke="#000000" stroke-width="2.0" stroke-linecap="butt" stroke-opacity="0.0" clip-path="url(#id_0)" d="M524.0 419.0L493.0 419.0L493.0 201.0C493.0 199.89543 493.89542 199.0 495.0 199.0L522.0 199.0C523.10455 199.0 524.0 199.89543 524.0 201.0Z" fill-rule="nonzero"/><path fill="#34a853" clip-path="url(#id_0)" d="M524.0 419.0L493.0 419.0L493.0 201.0C493.0 199.89543 493.89542 199.0 495.0 199.0L522.0 199.0C523.10455 199.0 524.0 199.89543 524.0 201.0Z" fill-rule="nonzero"/><path stroke="#000000" stroke-width="2.0" stroke-linecap="butt" stroke-opacity="0.0" clip-path="url(#id_0)" d="M777.0 419.0L746.0 419.0L746.0 192.0C746.0 190.89543 746.89545 190.0 748.0 190.0L775.0 190.0C776.10455 190.0 777.0 190.89543 777.0 192.0Z" fill-rule="nonzero"/><path fill="#34a853" clip-path="url(#id_0)" d="M777.0 419.0L746.0 419.0L746.0 192.0C746.0 190.89543 746.89545 190.0 748.0 190.0L775.0 190.0C776.10455 190.0 777.0 190.89543 777.0 192.0Z" fill-rule="nonzero"/><path stroke="#000000" stroke-width="2.0" stroke-linecap="butt" stroke-opacity="0.0" clip-path="url(#id_0)" d="M303.0 419.0L272.0 419.0L272.0 168.0C272.0 166.89543 272.89542 166.0 274.0 166.0L301.0 166.0C302.10458 166.0 303.0 166.89543 303.0 168.0Z" fill-rule="nonzero"/><path fill="#ff6d01" clip-path="url(#id_0)" d="M303.0 419.0L272.0 419.0L272.0 168.0C272.0 166.89543 272.89542 166.0 274.0 166.0L301.0 166.0C302.10458 166.0 303.0 166.89543 303.0 168.0Z" fill-rule="nonzero"/><path stroke="#000000" stroke-width="2.0" stroke-linecap="butt" stroke-opacity="0.0" clip-path="url(#id_0)" d="M557.0 419.0L526.0 419.0L526.0 189.0C526.0 187.89543 526.89545 187.0 528.0 187.0L555.0 187.0C556.10455 187.0 557.0 187.89543 557.0 189.0Z" fill-rule="nonzero"/><path fill="#ff6d01" clip-path="url(#id_0)" d="M557.0 419.0L526.0 419.0L526.0 189.0C526.0 187.89543 526.89545 187.0 528.0 187.0L555.0 187.0C556.10455 187.0 557.0 187.89543 557.0 189.0Z" fill-rule="nonzero"/><path stroke="#000000" stroke-width="2.0" stroke-linecap="butt" stroke-opacity="0.0" clip-path="url(#id_0)" d="M810.0 419.0L779.0 419.0L779.0 176.0C779.0 174.89543 779.89545 174.0 781.0 174.0L808.0 174.0C809.10455 174.0 810.0 174.89543 810.0 176.0Z" fill-rule="nonzero"/><path fill="#ff6d01" clip-path="url(#id_0)" d="M810.0 419.0L779.0 419.0L779.0 176.0C779.0 174.89543 779.89545 174.0 781.0 174.0L808.0 174.0C809.10455 174.0 810.0 174.89543 810.0 176.0Z" fill-rule="nonzero"/><path fill="#000000" d="M37.6 418.66562Q37.6 417.13437 37.9125 416.2125Q38.225 415.275 38.834373 414.775Q39.459373 414.275 40.396873 414.275Q41.084373 414.275 41.6 414.55624Q42.13125 414.8375 42.475 415.36874Q42.81875 415.88437 43.00625 416.63437Q43.19375 417.38437 43.19375 418.66562Q43.19375 420.18124 42.88125 421.10312Q42.584373 422.025 41.959373 422.54062Q41.35 423.04062 40.396873 423.04062Q39.1625 423.04062 38.44375 422.15Q37.6 421.0875 37.6 418.66562ZM38.678123 418.66562Q38.678123 420.775 39.178123 421.47812Q39.678123 422.18124 40.396873 422.18124Q41.13125 422.18124 41.615623 421.47812Q42.115623 420.775 42.115623 418.66562Q42.115623 416.54062 41.615623 415.85312Q41.13125 415.15 40.38125 415.15Q39.6625 415.15 39.225 415.75937Q38.678123 416.54062 38.678123 418.66562Z" fill-rule="nonzero"/><path fill="#000000" d="M43.146873 350.00436L43.146873 351.02L37.459373 351.02Q37.459373 350.645 37.584373 350.2856Q37.803123 349.7075 38.271873 349.145Q38.75625 348.5825 39.6625 347.8481Q41.06875 346.69186 41.553123 346.02Q42.053123 345.3481 42.053123 344.75436Q42.053123 344.12936 41.6 343.7075Q41.146873 343.27 40.428123 343.27Q39.6625 343.27 39.209373 343.7231Q38.75625 344.17624 38.740623 344.98874L37.6625 344.87936Q37.771873 343.6606 38.490623 343.0356Q39.225 342.395 40.459373 342.395Q41.69375 342.395 42.4125 343.0825Q43.13125 343.77 43.13125 344.7856Q43.13125 345.30124 42.9125 345.80124Q42.709373 346.2856 42.209373 346.8481Q41.725 347.395 40.6 348.3481Q39.646873 349.145 39.365623 349.44186Q39.1 349.7231 38.928123 350.00436L43.146873 350.00436Z" fill-rule="nonzero"/><path fill="#000000" d="M40.975 279.14L40.975 277.0775L37.25625 277.0775L37.25625 276.10876L41.178123 270.54626L42.0375 270.54626L42.0375 276.10876L43.19375 276.10876L43.19375 277.0775L42.0375 277.0775L42.0375 279.14L40.975 279.14ZM40.975 276.10876L40.975 272.2494L38.2875 276.10876L40.975 276.10876Z" fill-rule="nonzero"/><path fill="#000000" d="M43.06875 200.77562L42.021873 200.85374Q41.88125 200.22874 41.63125 199.9475Q41.19375 199.49437 40.56875 199.49437Q40.06875 199.49437 39.678123 199.77562Q39.19375 200.15062 38.896873 200.85374Q38.615623 201.54124 38.6 202.8225Q38.975 202.24437 39.521873 201.96312Q40.084373 201.68187 40.69375 201.68187Q41.740623 201.68187 42.475 202.46312Q43.225 203.24437 43.225 204.46312Q43.225 205.27562 42.865623 205.97874Q42.521873 206.66624 41.9125 207.04124Q41.303123 207.40062 40.5375 207.40062Q39.209373 207.40062 38.38125 206.43187Q37.553123 205.46312 37.553123 203.24437Q37.553123 200.74437 38.475 199.61937Q39.271873 198.635 40.63125 198.635Q41.646873 198.635 42.2875 199.21312Q42.94375 199.77562 43.06875 200.77562ZM38.771873 204.47874Q38.771873 205.02562 38.990623 205.52562Q39.225 206.01 39.63125 206.27562Q40.053123 206.54124 40.521873 206.54124Q41.178123 206.54124 41.6625 206.01Q42.146873 205.46312 42.146873 204.54124Q42.146873 203.65062 41.6625 203.135Q41.19375 202.61937 40.475 202.61937Q39.75625 202.61937 39.25625 203.135Q38.771873 203.65062 38.771873 204.47874Z" fill-rule="nonzero"/><path fill="#000000" d="M39.225 130.72375Q38.56875 130.47375 38.240623 130.03625Q37.928123 129.58313 37.928123 128.97375Q37.928123 128.03625 38.6 127.39563Q39.2875 126.755005 40.396873 126.755005Q41.521873 126.755005 42.209373 127.411255Q42.896873 128.0675 42.896873 129.005Q42.896873 129.59875 42.584373 130.03625Q42.271873 130.47375 41.63125 130.72375Q42.428123 130.97375 42.834373 131.55188Q43.240623 132.13 43.240623 132.92688Q43.240623 134.02063 42.459373 134.77063Q41.69375 135.52063 40.4125 135.52063Q39.146873 135.52063 38.365623 134.77063Q37.584373 134.02063 37.584373 132.89563Q37.584373 132.05188 38.00625 131.48938Q38.44375 130.92688 39.225 130.72375ZM39.00625 128.92688Q39.00625 129.53625 39.396873 129.92688Q39.803123 130.3175 40.428123 130.3175Q41.0375 130.3175 41.428123 129.9425Q41.81875 129.55188 41.81875 128.98938Q41.81875 128.41125 41.4125 128.02063Q41.00625 127.61438 40.4125 127.61438Q39.803123 127.61438 39.396873 128.005Q39.00625 128.39563 39.00625 128.92688ZM38.678123 132.89563Q38.678123 133.34875 38.88125 133.77063Q39.1 134.1925 39.521873 134.42688Q39.94375 134.66125 40.428123 134.66125Q41.178123 134.66125 41.6625 134.17688Q42.1625 133.6925 42.1625 132.9425Q42.1625 132.17688 41.6625 131.67688Q41.1625 131.17688 40.396873 131.17688Q39.646873 131.17688 39.1625 131.67688Q38.678123 132.16125 38.678123 132.89563Z" fill-rule="nonzero"/><path fill="#000000" d="M34.56875 63.5L33.521873 63.5L33.521873 56.78125Q33.13125 57.140625 32.50625 57.515625Q31.896875 57.875 31.4125 58.046875L31.4125 57.03125Q32.2875 56.609375 32.94375 56.03125Q33.615623 55.4375 33.896873 54.875L34.56875 54.875L34.56875 63.5ZM37.6 59.265625Q37.6 57.734375 37.9125 56.8125Q38.225 55.875 38.834373 55.375Q39.459373 54.875 40.396873 54.875Q41.084373 54.875 41.6 55.15625Q42.13125 55.4375 42.475 55.96875Q42.81875 56.484375 43.00625 57.234375Q43.19375 57.984375 43.19375 59.265625Q43.19375 60.78125 42.88125 61.703125Q42.584373 62.625 41.959373 63.140625Q41.35 63.640625 40.396873 63.640625Q39.1625 63.640625 38.44375 62.75Q37.6 61.6875 37.6 59.265625ZM38.678123 59.265625Q38.678123 61.375 39.178123 62.078125Q39.678123 62.78125 40.396873 62.78125Q41.13125 62.78125 41.615623 62.078125Q42.115623 61.375 42.115623 59.265625Q42.115623 57.140625 41.615623 56.453125Q41.13125 55.75 40.38125 55.75Q39.6625 55.75 39.225 56.359375Q38.678123 57.140625 38.678123 59.265625Z" fill-rule="nonzero"/><path fill="#000000" d="M204.68936 432.88437L205.81436 433.18124Q205.45499 434.57187 204.53311 435.30624Q203.61124 436.04062 202.26749 436.04062Q200.87686 436.04062 200.00186 435.47812Q199.12686 434.91562 198.67374 433.85312Q198.22061 432.775 198.22061 431.54062Q198.22061 430.19687 198.73624 429.19687Q199.25186 428.19687 200.18936 427.68124Q201.14249 427.16562 202.28311 427.16562Q203.56436 427.16562 204.43936 427.82187Q205.32999 428.47812 205.67374 429.66562L204.54874 429.93124Q204.25186 428.99374 203.67374 428.57187Q203.11124 428.13437 202.25186 428.13437Q201.26749 428.13437 200.59561 428.61874Q199.93936 429.0875 199.65811 429.88437Q199.39249 430.68124 199.39249 431.54062Q199.39249 432.63437 199.70499 433.44687Q200.03311 434.25937 200.70499 434.66562Q201.37686 435.07187 202.17374 435.07187Q203.12686 435.07187 203.78311 434.525Q204.45499 433.97812 204.68936 432.88437ZM207.39249 435.9L207.39249 427.30624L208.45499 427.30624L208.45499 435.9L207.39249 435.9ZM214.48624 435.13437Q213.89249 435.63437 213.34561 435.8375Q212.81436 436.04062 212.18936 436.04062Q211.15811 436.04062 210.61124 435.54062Q210.06436 435.04062 210.06436 434.25937Q210.06436 433.80624 210.26749 433.43124Q210.47061 433.04062 210.81436 432.82187Q211.15811 432.5875 211.57999 432.47812Q211.87686 432.38437 212.51749 432.30624Q213.78311 432.16562 214.39249 431.94687Q214.39249 431.72812 214.39249 431.68124Q214.39249 431.025 214.09561 430.75937Q213.68936 430.41562 212.89249 430.41562Q212.15811 430.41562 211.79874 430.68124Q211.43936 430.93124 211.26749 431.5875L210.23624 431.44687Q210.37686 430.79062 210.70499 430.38437Q211.03311 429.97812 211.64249 429.75937Q212.25186 429.54062 213.04874 429.54062Q213.84561 429.54062 214.34561 429.72812Q214.84561 429.91562 215.07999 430.19687Q215.31436 430.47812 215.40811 430.91562Q215.45499 431.18124 215.45499 431.88437L215.45499 433.29062Q215.45499 434.75937 215.51749 435.15Q215.59561 435.54062 215.79874 435.9L214.68936 435.9Q214.53311 435.57187 214.48624 435.13437ZM214.39249 432.775Q213.81436 433.00937 212.67374 433.18124Q212.01749 433.275 211.75186 433.4Q211.48624 433.50937 211.32999 433.72812Q211.18936 433.94687 211.18936 434.22812Q211.18936 434.65 211.50186 434.93124Q211.82999 435.2125 212.43936 435.2125Q213.04874 435.2125 213.51749 434.94687Q214.00186 434.68124 214.22061 434.2125Q214.39249 433.85312 214.39249 433.16562L214.39249 432.775ZM221.50186 435.9L221.50186 434.97812Q220.76749 436.04062 219.51749 436.04062Q218.97061 436.04062 218.48624 435.8375Q218.01749 435.61874 217.78311 435.30624Q217.54874 434.97812 217.45499 434.50937Q217.39249 434.2125 217.39249 433.525L217.39249 429.68124L218.45499 429.68124L218.45499 433.13437Q218.45499 433.94687 218.51749 434.24374Q218.61124 434.65 218.92374 434.9Q219.25186 435.13437 219.73624 435.13437Q220.20499 435.13437 220.61124 434.9Q221.03311 434.65 221.20499 434.22812Q221.39249 433.80624 221.39249 433.00937L221.39249 429.68124L222.43936 429.68124L222.43936 435.9L221.50186 435.9ZM228.45499 435.9L228.45499 435.11874Q227.86124 436.04062 226.72061 436.04062Q225.97061 436.04062 225.34561 435.63437Q224.72061 435.2125 224.37686 434.47812Q224.03311 433.74374 224.03311 432.79062Q224.03311 431.86874 224.34561 431.10312Q224.65811 430.3375 225.28311 429.94687Q225.90811 429.54062 226.67374 429.54062Q227.23624 429.54062 227.67374 429.775Q228.11124 430.00937 228.39249 430.38437L228.39249 427.30624L229.43936 427.30624L229.43936 435.9L228.45499 435.9ZM225.12686 432.79062Q225.12686 433.99374 225.62686 434.5875Q226.12686 435.16562 226.81436 435.16562Q227.50186 435.16562 227.98624 434.60312Q228.47061 434.04062 228.47061 432.88437Q228.47061 431.60312 227.97061 431.00937Q227.48624 430.41562 226.76749 430.41562Q226.06436 430.41562 225.59561 430.99374Q225.12686 431.55624 225.12686 432.79062ZM235.67374 433.9L236.76749 434.025Q236.51749 434.97812 235.81436 435.50937Q235.11124 436.04062 234.03311 436.04062Q232.67374 436.04062 231.86124 435.19687Q231.06436 434.35312 231.06436 432.8375Q231.06436 431.275 231.87686 430.41562Q232.68936 429.54062 233.97061 429.54062Q235.22061 429.54062 236.00186 430.38437Q236.79874 431.22812 236.79874 432.775Q236.79874 432.86874 236.79874 433.05624L232.15811 433.05624Q232.22061 434.0875 232.73624 434.63437Q233.25186 435.16562 234.03311 435.16562Q234.61124 435.16562 235.01749 434.86874Q235.43936 434.55624 235.67374 433.9ZM232.22061 432.19687L235.68936 432.19687Q235.62686 431.4 235.29874 431.00937Q234.78311 430.4 233.98624 430.4Q233.25186 430.4 232.75186 430.88437Q232.26749 431.36874 232.22061 432.19687ZM238.12686 433.63437L239.18936 433.49374Q239.36124 434.38437 239.79874 434.79062Q240.23624 435.18124 240.86124 435.18124Q241.61124 435.18124 242.12686 434.66562Q242.64249 434.15 242.64249 433.38437Q242.64249 432.66562 242.15811 432.19687Q241.68936 431.7125 240.95499 431.7125Q240.65811 431.7125 240.20499 431.8375L240.32999 430.9Q240.43936 430.91562 240.50186 430.91562Q241.17374 430.91562 241.70499 430.57187Q242.25186 430.2125 242.25186 429.47812Q242.25186 428.9 241.86124 428.525Q241.47061 428.13437 240.84561 428.13437Q240.23624 428.13437 239.81436 428.525Q239.40811 428.91562 239.29874 429.68124L238.23624 429.49374Q238.42374 428.44687 239.11124 427.86874Q239.79874 427.275 240.81436 427.275Q241.51749 427.275 242.11124 427.5875Q242.70499 427.88437 243.01749 428.4Q243.32999 428.91562 243.32999 429.50937Q243.32999 430.05624 243.03311 430.525Q242.73624 430.97812 242.15811 431.24374Q242.90811 431.41562 243.32999 431.97812Q243.75186 432.525 243.75186 433.36874Q243.75186 434.49374 242.92374 435.275Q242.11124 436.05624 240.86124 436.05624Q239.73624 436.05624 238.98624 435.38437Q238.23624 434.69687 238.12686 433.63437Z" fill-rule="nonzero"/><path fill="#000000" d="M459.45312 432.525L459.45312 431.525L463.07812 431.50937L463.07812 434.69687Q462.25 435.36874 461.35938 435.7125Q460.46875 436.04062 459.53125 436.04062Q458.26562 436.04062 457.21875 435.50937Q456.1875 434.9625 455.65625 433.94687Q455.14062 432.91562 455.14062 431.65Q455.14062 430.38437 455.65625 429.30624Q456.1875 428.2125 457.17188 427.69687Q458.15625 427.16562 459.4375 427.16562Q460.375 427.16562 461.125 427.4625Q461.875 427.75937 462.29688 428.30624Q462.73438 428.8375 462.95312 429.7125L461.9375 429.99374Q461.73438 429.3375 461.4375 428.9625Q461.15625 428.5875 460.625 428.36874Q460.09375 428.13437 459.45312 428.13437Q458.67188 428.13437 458.09375 428.36874Q457.53125 428.60312 457.17188 428.99374Q456.82812 429.38437 456.64062 429.85312Q456.3125 430.65 456.3125 431.57187Q456.3125 432.72812 456.70312 433.50937Q457.10938 434.275 457.85938 434.65Q458.60938 435.025 459.46875 435.025Q460.20312 435.025 460.90625 434.74374Q461.60938 434.44687 461.96875 434.13437L461.96875 432.525L459.45312 432.525ZM468.54688 433.9L469.64062 434.025Q469.39062 434.97812 468.6875 435.50937Q467.98438 436.04062 466.90625 436.04062Q465.54688 436.04062 464.73438 435.19687Q463.9375 434.35312 463.9375 432.8375Q463.9375 431.275 464.75 430.41562Q465.5625 429.54062 466.84375 429.54062Q468.09375 429.54062 468.875 430.38437Q469.67188 431.22812 469.67188 432.775Q469.67188 432.86874 469.67188 433.05624L465.03125 433.05624Q465.09375 434.0875 465.60938 434.63437Q466.125 435.16562 466.90625 435.16562Q467.48438 435.16562 467.89062 434.86874Q468.3125 434.55624 468.54688 433.9ZM465.09375 432.19687L468.5625 432.19687Q468.5 431.4 468.17188 431.00937Q467.65625 430.4 466.85938 430.4Q466.125 430.4 465.625 430.88437Q465.14062 431.36874 465.09375 432.19687ZM471.29688 435.9L471.29688 429.68124L472.23438 429.68124L472.23438 430.55624Q472.53125 430.0875 473.01562 429.82187Q473.5 429.54062 474.125 429.54062Q474.8125 429.54062 475.25 429.82187Q475.70312 430.10312 475.875 430.61874Q476.625 429.54062 477.79688 429.54062Q478.73438 429.54062 479.21875 430.05624Q479.71875 430.55624 479.71875 431.63437L479.71875 435.9L478.67188 435.9L478.67188 431.97812Q478.67188 431.35312 478.5625 431.07187Q478.46875 430.79062 478.20312 430.61874Q477.9375 430.44687 477.5625 430.44687Q476.90625 430.44687 476.46875 430.88437Q476.04688 431.32187 476.04688 432.29062L476.04688 435.9L474.98438 435.9L474.98438 431.85312Q474.98438 431.15 474.71875 430.80624Q474.46875 430.44687 473.89062 430.44687Q473.4375 430.44687 473.0625 430.68124Q472.6875 430.91562 472.51562 431.36874Q472.34375 431.82187 472.34375 432.66562L472.34375 435.9L471.29688 435.9ZM482.29688 428.525L482.29688 427.30624L483.35938 427.30624L483.35938 428.525L482.29688 428.525ZM482.29688 435.9L482.29688 429.68124L483.35938 429.68124L483.35938 435.9L482.29688 435.9ZM485.29688 435.9L485.29688 429.68124L486.23438 429.68124L486.23438 430.55624Q486.92188 429.54062 488.21875 429.54062Q488.78125 429.54062 489.25 429.74374Q489.73438 429.94687 489.96875 430.275Q490.20312 430.60312 490.29688 431.04062Q490.34375 431.3375 490.34375 432.07187L490.34375 435.9L489.29688 435.9L489.29688 432.11874Q489.29688 431.4625 489.17188 431.15Q489.04688 430.8375 488.73438 430.65Q488.42188 430.44687 488.0 430.44687Q487.32812 430.44687 486.82812 430.88437Q486.34375 431.30624 486.34375 432.49374L486.34375 435.9L485.29688 435.9ZM492.29688 428.525L492.29688 427.30624L493.35938 427.30624L493.35938 428.525L492.29688 428.525ZM492.29688 435.9L492.29688 429.68124L493.35938 429.68124L493.35938 435.9L492.29688 435.9Z" fill-rule="nonzero"/><path fill="#000000" d="M715.32623 432.525L715.32623 431.525L718.95123 431.50937L718.95123 434.69687Q718.1231 435.36874 717.2325 435.7125Q716.34186 436.04062 715.40436 436.04062Q714.13873 436.04062 713.09186 435.50937Q712.0606 434.9625 711.52936 433.94687Q711.01373 432.91562 711.01373 431.65Q711.01373 430.38437 711.52936 429.30624Q712.0606 428.2125 713.045 427.69687Q714.02936 427.16562 715.3106 427.16562Q716.2481 427.16562 716.9981 427.4625Q717.7481 427.75937 718.17 428.30624Q718.6075 428.8375 718.82623 429.7125L717.8106 429.99374Q717.6075 429.3375 717.3106 428.9625Q717.02936 428.5875 716.4981 428.36874Q715.96686 428.13437 715.32623 428.13437Q714.545 428.13437 713.96686 428.36874Q713.40436 428.60312 713.045 428.99374Q712.70123 429.38437 712.51373 429.85312Q712.1856 430.65 712.1856 431.57187Q712.1856 432.72812 712.57623 433.50937Q712.9825 434.275 713.7325 434.65Q714.4825 435.025 715.34186 435.025Q716.07623 435.025 716.77936 434.74374Q717.4825 434.44687 717.84186 434.13437L717.84186 432.525L715.32623 432.525ZM720.295 435.9L720.295 427.30624L723.545 427.30624Q724.38873 427.30624 724.84186 427.38437Q725.4825 427.49374 725.90436 427.79062Q726.34186 428.0875 726.59186 428.61874Q726.8575 429.15 726.8575 429.79062Q726.8575 430.88437 726.15436 431.65Q725.46686 432.4 723.63873 432.4L721.4356 432.4L721.4356 435.9L720.295 435.9ZM721.4356 431.4L723.65436 431.4Q724.76373 431.4 725.21686 430.99374Q725.6856 430.57187 725.6856 429.82187Q725.6856 429.29062 725.40436 428.91562Q725.13873 428.525 724.70123 428.4Q724.40436 428.32187 723.63873 428.32187L721.4356 428.32187L721.4356 431.4ZM730.4825 435.9L730.4825 428.32187L727.65436 428.32187L727.65436 427.30624L734.46686 427.30624L734.46686 428.32187L731.6231 428.32187L731.6231 435.9L730.4825 435.9ZM734.7481 433.32187L734.7481 432.25937L737.9981 432.25937L737.9981 433.32187L734.7481 433.32187ZM742.2481 435.9L742.2481 433.8375L738.52936 433.8375L738.52936 432.86874L742.45123 427.30624L743.3106 427.30624L743.3106 432.86874L744.46686 432.86874L744.46686 433.8375L743.3106 433.8375L743.3106 435.9L742.2481 435.9ZM742.2481 432.86874L742.2481 429.00937L739.5606 432.86874L742.2481 432.86874Z" fill-rule="nonzero"/><path fill="#4285f4" d="M341.5 25.1C341.5 24.547716 341.94772 24.1 342.5 24.1L352.5 24.1C353.05228 24.1 353.5 24.547716 353.5 25.1L353.5 35.1C353.5 35.652287 353.05228 36.1 352.5 36.1L342.5 36.1C341.94772 36.1 341.5 35.652287 341.5 35.1Z" fill-rule="nonzero"/><path fill="#1a1a1a" d="M362.42188 34.1L362.42188 25.506248L365.67188 25.506248Q366.51562 25.506248 366.96875 25.584373Q367.60938 25.693748 368.03125 25.990623Q368.46875 26.287498 368.71875 26.818748Q368.98438 27.349998 368.98438 27.990623Q368.98438 29.084373 368.28125 29.849998Q367.59375 30.599998 365.76562 30.599998L363.5625 30.599998L363.5625 34.1L362.42188 34.1ZM363.5625 29.599998L365.78125 29.599998Q366.89062 29.599998 367.34375 29.193748Q367.8125 28.771873 367.8125 28.021873Q367.8125 27.490623 367.53125 27.115623Q367.26562 26.724998 366.82812 26.599998Q366.53125 26.521873 365.76562 26.521873L363.5625 26.521873L363.5625 29.599998ZM373.96875 34.1L372.92188 34.1L372.92188 27.381248Q372.53125 27.740623 371.90625 28.115623Q371.29688 28.474998 370.8125 28.646873L370.8125 27.631248Q371.6875 27.209373 372.34375 26.631248Q373.01562 26.037498 373.29688 25.474998L373.96875 25.474998L373.96875 34.1Z" fill-rule="nonzero"/><path fill="#ea4335" d="M392.5 25.1C392.5 24.547716 392.94772 24.1 393.5 24.1L403.5 24.1C404.05228 24.1 404.5 24.547716 404.5 25.1L404.5 35.1C404.5 35.652287 404.05228 36.1 403.5 36.1L393.5 36.1C392.94772 36.1 392.5 35.652287 392.5 35.1Z" fill-rule="nonzero"/><path fill="#1a1a1a" d="M413.42188 34.1L413.42188 25.506248L416.67188 25.506248Q417.51562 25.506248 417.96875 25.584373Q418.60938 25.693748 419.03125 25.990623Q419.46875 26.287498 419.71875 26.818748Q419.98438 27.349998 419.98438 27.990623Q419.98438 29.084373 419.28125 29.849998Q418.59375 30.599998 416.76562 30.599998L414.5625 30.599998L414.5625 34.1L413.42188 34.1ZM414.5625 29.599998L416.78125 29.599998Q417.89062 29.599998 418.34375 29.193748Q418.8125 28.771873 418.8125 28.021873Q418.8125 27.490623 418.53125 27.115623Q418.26562 26.724998 417.82812 26.599998Q417.53125 26.521873 416.76562 26.521873L414.5625 26.521873L414.5625 29.599998ZM426.54688 33.084373L426.54688 34.1L420.85938 34.1Q420.85938 33.725 420.98438 33.365623Q421.20312 32.7875 421.67188 32.225Q422.15625 31.662498 423.0625 30.928123Q424.46875 29.771873 424.95312 29.099998Q425.45312 28.428123 425.45312 27.834373Q425.45312 27.209373 425.0 26.787498Q424.54688 26.349998 423.82812 26.349998Q423.0625 26.349998 422.60938 26.803123Q422.15625 27.256248 422.14062 28.068748L421.0625 27.959373Q421.17188 26.740623 421.89062 26.115623Q422.625 25.474998 423.85938 25.474998Q425.09375 25.474998 425.8125 26.162498Q426.53125 26.849998 426.53125 27.865623Q426.53125 28.381248 426.3125 28.881248Q426.10938 29.365623 425.60938 29.928123Q425.125 30.474998 424.0 31.428123Q423.04688 32.225 422.76562 32.521873Q422.5 32.803123 422.32812 33.084373L426.54688 33.084373Z" fill-rule="nonzero"/><path fill="#fbbc04" d="M443.5 25.1C443.5 24.547716 443.94772 24.1 444.5 24.1L454.5 24.1C455.05228 24.1 455.5 24.547716 455.5 25.1L455.5 35.1C455.5 35.652287 455.05228 36.1 454.5 36.1L444.5 36.1C443.94772 36.1 443.5 35.652287 443.5 35.1Z" fill-rule="nonzero"/><path fill="#1a1a1a" d="M464.42188 34.1L464.42188 25.506248L467.67188 25.506248Q468.51562 25.506248 468.96875 25.584373Q469.60938 25.693748 470.03125 25.990623Q470.46875 26.287498 470.71875 26.818748Q470.98438 27.349998 470.98438 27.990623Q470.98438 29.084373 470.28125 29.849998Q469.59375 30.599998 467.76562 30.599998L465.5625 30.599998L465.5625 34.1L464.42188 34.1ZM465.5625 29.599998L467.78125 29.599998Q468.89062 29.599998 469.34375 29.193748Q469.8125 28.771873 469.8125 28.021873Q469.8125 27.490623 469.53125 27.115623Q469.26562 26.724998 468.82812 26.599998Q468.53125 26.521873 467.76562 26.521873L465.5625 26.521873L465.5625 29.599998ZM472.0 31.834373L473.0625 31.693748Q473.23438 32.584373 473.67188 32.990623Q474.10938 33.38125 474.73438 33.38125Q475.48438 33.38125 476.0 32.865623Q476.51562 32.35 476.51562 31.584373Q476.51562 30.865623 476.03125 30.396873Q475.5625 29.912498 474.82812 29.912498Q474.53125 29.912498 474.07812 30.037498L474.20312 29.099998Q474.3125 29.115623 474.375 29.115623Q475.04688 29.115623 475.57812 28.771873Q476.125 28.412498 476.125 27.678123Q476.125 27.099998 475.73438 26.724998Q475.34375 26.334373 474.71875 26.334373Q474.10938 26.334373 473.6875 26.724998Q473.28125 27.115623 473.17188 27.881248L472.10938 27.693748Q472.29688 26.646873 472.98438 26.068748Q473.67188 25.474998 474.6875 25.474998Q475.39062 25.474998 475.98438 25.787498Q476.57812 26.084373 476.89062 26.599998Q477.20312 27.115623 477.20312 27.709373Q477.20312 28.256248 476.90625 28.724998Q476.60938 29.178123 476.03125 29.443748Q476.78125 29.615623 477.20312 30.178123Q477.625 30.724998 477.625 31.568748Q477.625 32.69375 476.79688 33.475Q475.98438 34.25625 474.73438 34.25625Q473.60938 34.25625 472.85938 33.584373Q472.10938 32.896873 472.0 31.834373Z" fill-rule="nonzero"/><path fill="#34a853" d="M494.5 25.1C494.5 24.547716 494.94772 24.1 495.5 24.1L505.5 24.1C506.05228 24.1 506.5 24.547716 506.5 25.1L506.5 35.1C506.5 35.652287 506.05228 36.1 505.5 36.1L495.5 36.1C494.94772 36.1 494.5 35.652287 494.5 35.1Z" fill-rule="nonzero"/><path fill="#1a1a1a" d="M515.4219 34.1L515.4219 25.506248L518.6719 25.506248Q519.5156 25.506248 519.96875 25.584373Q520.6094 25.693748 521.03125 25.990623Q521.46875 26.287498 521.71875 26.818748Q521.9844 27.349998 521.9844 27.990623Q521.9844 29.084373 521.28125 29.849998Q520.59375 30.599998 518.7656 30.599998L516.5625 30.599998L516.5625 34.1L515.4219 34.1ZM516.5625 29.599998L518.78125 29.599998Q519.8906 29.599998 520.34375 29.193748Q520.8125 28.771873 520.8125 28.021873Q520.8125 27.490623 520.53125 27.115623Q520.2656 26.724998 519.8281 26.599998Q519.53125 26.521873 518.7656 26.521873L516.5625 26.521873L516.5625 29.599998ZM526.375 34.1L526.375 32.0375L522.65625 32.0375L522.65625 31.068748L526.5781 25.506248L527.4375 25.506248L527.4375 31.068748L528.59375 31.068748L528.59375 32.0375L527.4375 32.0375L527.4375 34.1L526.375 34.1ZM526.375 31.068748L526.375 27.209373L523.6875 31.068748L526.375 31.068748Z" fill-rule="nonzero"/><path fill="#ff6d01" d="M545.5 25.1C545.5 24.547716 545.9477 24.1 546.5 24.1L556.5 24.1C557.0523 24.1 557.5 24.547716 557.5 25.1L557.5 35.1C557.5 35.652287 557.0523 36.1 556.5 36.1L546.5 36.1C545.9477 36.1 545.5 35.652287 545.5 35.1Z" fill-rule="nonzero"/><path fill="#1a1a1a" d="M566.4219 34.1L566.4219 25.506248L569.6719 25.506248Q570.5156 25.506248 570.96875 25.584373Q571.6094 25.693748 572.03125 25.990623Q572.46875 26.287498 572.71875 26.818748Q572.9844 27.349998 572.9844 27.990623Q572.9844 29.084373 572.28125 29.849998Q571.59375 30.599998 569.7656 30.599998L567.5625 30.599998L567.5625 34.1L566.4219 34.1ZM567.5625 29.599998L569.78125 29.599998Q570.8906 29.599998 571.34375 29.193748Q571.8125 28.771873 571.8125 28.021873Q571.8125 27.490623 571.53125 27.115623Q571.2656 26.724998 570.8281 26.599998Q570.53125 26.521873 569.7656 26.521873L567.5625 26.521873L567.5625 29.599998ZM574.0 31.849998L575.1094 31.756248Q575.2344 32.56875 575.6719 32.975Q576.125 33.38125 576.7656 33.38125Q577.5156 33.38125 578.0469 32.803123Q578.5781 32.225 578.5781 31.287498Q578.5781 30.381248 578.0625 29.865623Q577.5625 29.334373 576.7344 29.334373Q576.2344 29.334373 575.8125 29.568748Q575.40625 29.803123 575.1719 30.162498L574.1875 30.037498L575.0156 25.631248L579.2969 25.631248L579.2969 26.631248L575.8594 26.631248L575.40625 28.943748Q576.1719 28.396873 577.0156 28.396873Q578.1406 28.396873 578.90625 29.178123Q579.6875 29.959373 579.6875 31.193748Q579.6875 32.35 579.0156 33.209373Q578.1875 34.240623 576.7656 34.240623Q575.59375 34.240623 574.84375 33.584373Q574.1094 32.928123 574.0 31.849998Z" fill-rule="nonzero"/></svg>