<svg version="1.1" viewBox="0.0 0.0 733.0 457.0" fill="none" stroke="none" stroke-linecap="square" stroke-miterlimit="10" width="733" height="457" xmlns:xlink="http://www.w3.org/1999/xlink" xmlns="http://www.w3.org/2000/svg"><path fill="#ffffff" d="M0 0L733.0 0L733.0 457.0L0 457.0L0 0Z" fill-rule="nonzero"/><path fill="#4285f4" d="M366.5 62.083332C433.34143 62.083332 495.04498 97.942215 528.136 156.01772C561.2269 214.0932 560.61816 285.45718 526.54126 342.9597L366.5 248.11667Z" fill-rule="nonzero"/><path fill="#fbbc04" d="M207.39096 344.5154C172.58702 287.07043 171.45035 215.32536 204.41702 156.80669C237.38371 98.28802 299.33426 62.083332 366.5 62.083332L366.5 248.11667Z" fill-rule="nonzero"/><path fill="#ea4335" d="M526.54126 342.9597C493.20706 399.2089 432.7906 433.82907 367.4068 434.1478C302.023 434.4665 241.27193 400.43695 207.39096 344.5154L366.5 248.11667Z" fill-rule="nonzero"/><path fill="#000000" d="M480.43536 176.18922Q479.66974 175.90797 479.29474 175.39235Q478.93536 174.87672 478.93536 174.14235Q478.93536 173.0486 479.7166 172.31422Q480.5135 171.56422 481.81036 171.56422Q483.12286 171.56422 483.91974 172.32985Q484.73224 173.09547 484.73224 174.18922Q484.73224 174.87672 484.35724 175.39235Q483.99786 175.90797 483.24786 176.18922Q484.16974 176.4861 484.6541 177.15797Q485.1385 177.82985 485.1385 178.76735Q485.1385 180.0486 484.23224 180.9236Q483.326 181.7986 481.8416 181.7986Q480.35724 181.7986 479.43536 180.9236Q478.5291 180.03297 478.5291 178.72047Q478.5291 177.75172 479.0291 177.09547Q479.5291 176.4236 480.43536 176.18922ZM480.201 174.1111Q480.201 174.81422 480.6541 175.26735Q481.10724 175.72047 481.8416 175.72047Q482.56036 175.72047 483.0135 175.28297Q483.4666 174.82985 483.4666 174.1736Q483.4666 173.50172 482.99786 173.0486Q482.5291 172.57985 481.826 172.57985Q481.12286 172.57985 480.6541 173.03297Q480.201 173.47047 480.201 174.1111ZM479.79474 178.7361Q479.79474 179.26735 480.04474 179.76735Q480.29474 180.25172 480.7791 180.51735Q481.2791 180.78297 481.85724 180.78297Q482.73224 180.78297 483.29474 180.22047Q483.87286 179.65797 483.87286 178.78297Q483.87286 177.89235 483.2791 177.31422Q482.701 176.72047 481.81036 176.72047Q480.93536 176.72047 480.35724 177.2986Q479.79474 177.87672 479.79474 178.7361ZM487.23224 181.62672L487.23224 180.22047L488.6385 180.22047L488.6385 181.62672L487.23224 181.62672ZM496.93536 174.06422L495.7166 174.15797Q495.54474 173.4236 495.24786 173.09547Q494.74786 172.57985 494.0135 172.57985Q493.41974 172.57985 492.98224 172.90797Q492.4041 173.32985 492.06036 174.14235Q491.73224 174.95485 491.7166 176.45485Q492.1541 175.78297 492.79474 175.45485Q493.451 175.12672 494.1541 175.12672Q495.3885 175.12672 496.24786 176.03297Q497.10724 176.93922 497.10724 178.37672Q497.10724 179.31422 496.701 180.12672Q496.29474 180.93922 495.576 181.37672Q494.87286 181.7986 493.9666 181.7986Q492.43536 181.7986 491.4666 180.6736Q490.49786 179.53297 490.49786 176.93922Q490.49786 174.03297 491.56036 172.70485Q492.49786 171.56422 494.0916 171.56422Q495.2791 171.56422 496.0291 172.2361Q496.7791 172.89235 496.93536 174.06422ZM491.9041 178.37672Q491.9041 179.01735 492.16974 179.59547Q492.451 180.1736 492.93536 180.4861Q493.41974 180.78297 493.951 180.78297Q494.73224 180.78297 495.29474 180.15797Q495.85724 179.53297 495.85724 178.45485Q495.85724 177.40797 495.29474 176.81422Q494.74786 176.20485 493.9041 176.20485Q493.076 176.20485 492.48224 176.81422Q491.9041 177.40797 491.9041 178.37672ZM502.49786 181.62672L502.49786 179.22047L498.1385 179.22047L498.1385 178.09547L502.7166 171.6111L503.7166 171.6111L503.7166 178.09547L505.076 178.09547L505.076 179.22047L503.7166 179.22047L503.7166 181.62672L502.49786 181.62672ZM502.49786 178.09547L502.49786 173.57985L499.35724 178.09547L502.49786 178.09547Z" fill-rule="nonzero"/><path fill="#000000" d="M355.7312 404.09256Q354.96558 403.8113 354.59058 403.2957Q354.2312 402.78006 354.2312 402.0457Q354.2312 400.95193 355.01245 400.21756Q355.80933 399.46756 357.1062 399.46756Q358.4187 399.46756 359.21558 400.2332Q360.02808 400.9988 360.02808 402.09256Q360.02808 402.78006 359.65308 403.2957Q359.2937 403.8113 358.5437 404.09256Q359.46558 404.38943 359.94995 405.0613Q360.43433 405.7332 360.43433 406.6707Q360.43433 407.95193 359.52808 408.82693Q358.62183 409.70193 357.13745 409.70193Q355.65308 409.70193 354.7312 408.82693Q353.82495 407.9363 353.82495 406.6238Q353.82495 405.65506 354.32495 404.9988Q354.82495 404.32693 355.7312 404.09256ZM355.49683 402.01443Q355.49683 402.71756 355.94995 403.1707Q356.40308 403.6238 357.13745 403.6238Q357.8562 403.6238 358.30933 403.1863Q358.76245 402.7332 358.76245 402.07693Q358.76245 401.40506 358.2937 400.95193Q357.82495 400.4832 357.12183 400.4832Q356.4187 400.4832 355.94995 400.9363Q355.49683 401.3738 355.49683 402.01443ZM355.09058 406.63943Q355.09058 407.1707 355.34058 407.6707Q355.59058 408.15506 356.07495 408.4207Q356.57495 408.6863 357.15308 408.6863Q358.02808 408.6863 358.59058 408.1238Q359.1687 407.5613 359.1687 406.6863Q359.1687 405.7957 358.57495 405.21756Q357.99683 404.6238 357.1062 404.6238Q356.2312 404.6238 355.65308 405.20193Q355.09058 405.78006 355.09058 406.63943ZM362.52808 409.53006L362.52808 408.1238L363.93433 408.1238L363.93433 409.53006L362.52808 409.53006ZM369.7937 409.53006L369.7937 407.1238L365.43433 407.1238L365.43433 405.9988L370.01245 399.51443L371.01245 399.51443L371.01245 405.9988L372.37183 405.9988L372.37183 407.1238L371.01245 407.1238L371.01245 409.53006L369.7937 409.53006ZM369.7937 405.9988L369.7937 401.4832L366.65308 405.9988L369.7937 405.9988ZM380.2312 401.96756L379.01245 402.0613Q378.84058 401.32693 378.5437 400.9988Q378.0437 400.4832 377.30933 400.4832Q376.71558 400.4832 376.27808 400.8113Q375.69995 401.2332 375.3562 402.0457Q375.02808 402.8582 375.01245 404.3582Q375.44995 403.6863 376.09058 403.3582Q376.74683 403.03006 377.44995 403.03006Q378.68433 403.03006 379.5437 403.9363Q380.40308 404.84256 380.40308 406.28006Q380.40308 407.21756 379.99683 408.03006Q379.59058 408.84256 378.87183 409.28006Q378.1687 409.70193 377.26245 409.70193Q375.7312 409.70193 374.76245 408.57693Q373.7937 407.4363 373.7937 404.84256Q373.7937 401.9363 374.8562 400.6082Q375.7937 399.46756 377.38745 399.46756Q378.57495 399.46756 379.32495 400.13943Q380.07495 400.7957 380.2312 401.96756ZM375.19995 406.28006Q375.19995 406.9207 375.46558 407.4988Q375.74683 408.07693 376.2312 408.38943Q376.71558 408.6863 377.24683 408.6863Q378.02808 408.6863 378.59058 408.0613Q379.15308 407.4363 379.15308 406.3582Q379.15308 405.3113 378.59058 404.71756Q378.0437 404.1082 377.19995 404.1082Q376.37183 404.1082 375.77808 404.71756Q375.19995 405.3113 375.19995 406.28006Z" fill-rule="nonzero"/><path fill="#000000" d="M229.1318 176.78851Q228.36618 176.50726 227.99118 175.99164Q227.6318 175.47601 227.6318 174.74164Q227.6318 173.64789 228.41306 172.91351Q229.20993 172.16351 230.5068 172.16351Q231.8193 172.16351 232.61618 172.92914Q233.42868 173.69476 233.42868 174.78851Q233.42868 175.47601 233.05368 175.99164Q232.6943 176.50726 231.9443 176.78851Q232.86618 177.08539 233.35056 177.75726Q233.83493 178.42914 233.83493 179.36664Q233.83493 180.64789 232.92868 181.52289Q232.02243 182.39789 230.53806 182.39789Q229.05368 182.39789 228.1318 181.52289Q227.22556 180.63226 227.22556 179.31976Q227.22556 178.35101 227.72556 177.69476Q228.22556 177.02289 229.1318 176.78851ZM228.89743 174.71039Q228.89743 175.41351 229.35056 175.86664Q229.80368 176.31976 230.53806 176.31976Q231.2568 176.31976 231.70993 175.88226Q232.16306 175.42914 232.16306 174.77289Q232.16306 174.10101 231.6943 173.64789Q231.22556 173.17914 230.52243 173.17914Q229.8193 173.17914 229.35056 173.63226Q228.89743 174.06976 228.89743 174.71039ZM228.49118 179.33539Q228.49118 179.86664 228.74118 180.36664Q228.99118 180.85101 229.47556 181.11664Q229.97556 181.38226 230.55368 181.38226Q231.42868 181.38226 231.99118 180.81976Q232.5693 180.25726 232.5693 179.38226Q232.5693 178.49164 231.97556 177.91351Q231.39743 177.31976 230.5068 177.31976Q229.6318 177.31976 229.05368 177.89789Q228.49118 178.47601 228.49118 179.33539ZM235.92868 182.22601L235.92868 180.81976L237.33493 180.81976L237.33493 182.22601L235.92868 182.22601ZM245.6318 174.66351L244.41306 174.75726Q244.24118 174.02289 243.9443 173.69476Q243.4443 173.17914 242.70993 173.17914Q242.11618 173.17914 241.67868 173.50726Q241.10056 173.92914 240.7568 174.74164Q240.42868 175.55414 240.41306 177.05414Q240.85056 176.38226 241.49118 176.05414Q242.14743 175.72601 242.85056 175.72601Q244.08493 175.72601 244.9443 176.63226Q245.80368 177.53851 245.80368 178.97601Q245.80368 179.91351 245.39743 180.72601Q244.99118 181.53851 244.27243 181.97601Q243.5693 182.39789 242.66306 182.39789Q241.1318 182.39789 240.16306 181.27289Q239.1943 180.13226 239.1943 177.53851Q239.1943 174.63226 240.2568 173.30414Q241.1943 172.16351 242.78806 172.16351Q243.97556 172.16351 244.72556 172.83539Q245.47556 173.49164 245.6318 174.66351ZM240.60056 178.97601Q240.60056 179.61664 240.86618 180.19476Q241.14743 180.77289 241.6318 181.08539Q242.11618 181.38226 242.64743 181.38226Q243.42868 181.38226 243.99118 180.75726Q244.55368 180.13226 244.55368 179.05414Q244.55368 178.00726 243.99118 177.41351Q243.4443 176.80414 242.60056 176.80414Q241.77243 176.80414 241.17868 177.41351Q240.60056 178.00726 240.60056 178.97601ZM249.1318 176.78851Q248.36618 176.50726 247.99118 175.99164Q247.6318 175.47601 247.6318 174.74164Q247.6318 173.64789 248.41306 172.91351Q249.20993 172.16351 250.5068 172.16351Q251.8193 172.16351 252.61618 172.92914Q253.42868 173.69476 253.42868 174.78851Q253.42868 175.47601 253.05368 175.99164Q252.6943 176.50726 251.9443 176.78851Q252.86618 177.08539 253.35056 177.75726Q253.83493 178.42914 253.83493 179.36664Q253.83493 180.64789 252.92868 181.52289Q252.02243 182.39789 250.53806 182.39789Q249.05368 182.39789 248.1318 181.52289Q247.22556 180.63226 247.22556 179.31976Q247.22556 178.35101 247.72556 177.69476Q248.22556 177.02289 249.1318 176.78851ZM248.89743 174.71039Q248.89743 175.41351 249.35056 175.86664Q249.80368 176.31976 250.53806 176.31976Q251.2568 176.31976 251.70993 175.88226Q252.16306 175.42914 252.16306 174.77289Q252.16306 174.10101 251.6943 173.64789Q251.22556 173.17914 250.52243 173.17914Q249.8193 173.17914 249.35056 173.63226Q248.89743 174.06976 248.89743 174.71039ZM248.49118 179.33539Q248.49118 179.86664 248.74118 180.36664Q248.99118 180.85101 249.47556 181.11664Q249.97556 181.38226 250.55368 181.38226Q251.42868 181.38226 251.99118 180.81976Q252.5693 180.25726 252.5693 179.38226Q252.5693 178.49164 251.97556 177.91351Q251.39743 177.31976 250.5068 177.31976Q249.6318 177.31976 249.05368 177.89789Q248.49118 178.47601 248.49118 179.33539Z" fill-rule="nonzero"/><path fill="#1a1a1a" d="M27.803125 153.4972L27.803125 152.4972L31.428125 152.48157L31.428125 155.66907Q30.6 156.34094 29.709375 156.6847Q28.81875 157.01282 27.88125 157.01282Q26.615625 157.01282 25.56875 156.48157Q24.5375 155.9347 24.00625 154.91907Q23.490625 153.88782 23.490625 152.6222Q23.490625 151.35657 24.00625 150.27844Q24.5375 149.1847 25.521875 148.66907Q26.50625 148.13782 27.7875 148.13782Q28.725 148.13782 29.475 148.4347Q30.225 148.73157 30.646875 149.27844Q31.084375 149.8097 31.303125 150.6847L30.2875 150.96594Q30.084375 150.3097 29.7875 149.9347Q29.50625 149.5597 28.975 149.34094Q28.44375 149.10657 27.803125 149.10657Q27.021875 149.10657 26.44375 149.34094Q25.88125 149.57532 25.521875 149.96594Q25.178125 150.35657 24.990625 150.82532Q24.6625 151.6222 24.6625 152.54407Q24.6625 153.70032 25.053125 154.48157Q25.459375 155.2472 26.209375 155.6222Q26.959375 155.9972 27.81875 155.9972Q28.553125 155.9972 29.25625 155.71594Q29.959375 155.41907 30.31875 155.10657L30.31875 153.4972L27.803125 153.4972ZM32.771873 156.8722L32.771873 148.27844L36.021873 148.27844Q36.865623 148.27844 37.31875 148.35657Q37.959373 148.46594 38.38125 148.76282Q38.81875 149.0597 39.06875 149.59094Q39.334373 150.1222 39.334373 150.76282Q39.334373 151.85657 38.63125 152.6222Q37.94375 153.3722 36.115623 153.3722L33.9125 153.3722L33.9125 156.8722L32.771873 156.8722ZM33.9125 152.3722L36.13125 152.3722Q37.240623 152.3722 37.69375 151.96594Q38.1625 151.54407 38.1625 150.79407Q38.1625 150.26282 37.88125 149.88782Q37.615623 149.4972 37.178123 149.3722Q36.88125 149.29407 36.115623 149.29407L33.9125 149.29407L33.9125 152.3722ZM42.959373 156.8722L42.959373 149.29407L40.13125 149.29407L40.13125 148.27844L46.94375 148.27844L46.94375 149.29407L44.1 149.29407L44.1 156.8722L42.959373 156.8722ZM47.225 154.29407L47.225 153.23157L50.475 153.23157L50.475 154.29407L47.225 154.29407ZM54.725 156.8722L54.725 154.8097L51.00625 154.8097L51.00625 153.84094L54.928123 148.27844L55.7875 148.27844L55.7875 153.84094L56.94375 153.84094L56.94375 154.8097L55.7875 154.8097L55.7875 156.8722L54.725 156.8722ZM54.725 153.84094L54.725 149.98157L52.0375 153.84094L54.725 153.84094Z" fill-rule="nonzero"/><path fill="#9e9e9e" d="M23.35 171.60657L24.4125 171.46594Q24.584375 172.35657 25.021875 172.76282Q25.459375 173.15344 26.084375 173.15344Q26.834375 173.15344 27.35 172.63782Q27.865625 172.1222 27.865625 171.35657Q27.865625 170.63782 27.38125 170.16907Q26.9125 169.6847 26.178125 169.6847Q25.88125 169.6847 25.428125 169.8097L25.553125 168.8722Q25.6625 168.88782 25.725 168.88782Q26.396875 168.88782 26.928125 168.54407Q27.475 168.1847 27.475 167.45032Q27.475 166.8722 27.084375 166.4972Q26.69375 166.10657 26.06875 166.10657Q25.459375 166.10657 25.0375 166.4972Q24.63125 166.88782 24.521875 167.65344L23.459375 167.46594Q23.646875 166.41907 24.334375 165.84094Q25.021875 165.2472 26.0375 165.2472Q26.740625 165.2472 27.334375 165.5597Q27.928125 165.85657 28.240625 166.3722Q28.553125 166.88782 28.553125 167.48157Q28.553125 168.02844 28.25625 168.4972Q27.959375 168.95032 27.38125 169.21594Q28.13125 169.38782 28.553125 169.95032Q28.975 170.4972 28.975 171.34094Q28.975 172.46594 28.146875 173.2472Q27.334375 174.02844 26.084375 174.02844Q24.959375 174.02844 24.209375 173.35657Q23.459375 172.66907 23.35 171.60657ZM30.35 171.60657L31.4125 171.46594Q31.584375 172.35657 32.021873 172.76282Q32.459373 173.15344 33.084373 173.15344Q33.834373 173.15344 34.35 172.63782Q34.865623 172.1222 34.865623 171.35657Q34.865623 170.63782 34.38125 170.16907Q33.9125 169.6847 33.178123 169.6847Q32.88125 169.6847 32.428123 169.8097L32.553123 168.8722Q32.6625 168.88782 32.725 168.88782Q33.396873 168.88782 33.928123 168.54407Q34.475 168.1847 34.475 167.45032Q34.475 166.8722 34.084373 166.4972Q33.69375 166.10657 33.06875 166.10657Q32.459373 166.10657 32.0375 166.4972Q31.63125 166.88782 31.521875 167.65344L30.459375 167.46594Q30.646875 166.41907 31.334375 165.84094Q32.021873 165.2472 33.0375 165.2472Q33.740623 165.2472 34.334373 165.5597Q34.928123 165.85657 35.240623 166.3722Q35.553123 166.88782 35.553123 167.48157Q35.553123 168.02844 35.25625 168.4972Q34.959373 168.95032 34.38125 169.21594Q35.13125 169.38782 35.553123 169.95032Q35.975 170.4972 35.975 171.34094Q35.975 172.46594 35.146873 173.2472Q34.334373 174.02844 33.084373 174.02844Q31.959375 174.02844 31.209375 173.35657Q30.459375 172.66907 30.35 171.60657ZM37.94375 173.8722L37.94375 172.66907L39.146873 172.66907L39.146873 173.8722L37.94375 173.8722ZM40.4125 166.40344L40.4125 165.38782L45.975 165.38782L45.975 166.21594Q45.1625 167.09094 44.35 168.54407Q43.553123 169.98157 43.115623 171.51282Q42.7875 172.59094 42.709373 173.8722L41.615623 173.8722Q41.63125 172.85657 42.00625 171.41907Q42.396873 169.98157 43.1 168.65344Q43.81875 167.32532 44.63125 166.40344L40.4125 166.40344ZM47.553123 167.34094Q47.553123 166.41907 48.00625 165.77844Q48.475 165.13782 49.35 165.13782Q50.1625 165.13782 50.69375 165.71594Q51.225 166.29407 51.225 167.40344Q51.225 168.4972 50.678123 169.09094Q50.146873 169.66907 49.365623 169.66907Q48.584373 169.66907 48.06875 169.09094Q47.553123 168.51282 47.553123 167.34094ZM49.38125 165.85657Q48.990623 165.85657 48.725 166.20032Q48.475 166.54407 48.475 167.45032Q48.475 168.27844 48.725 168.6222Q48.990623 168.95032 49.38125 168.95032Q49.7875 168.95032 50.0375 168.60657Q50.303123 168.26282 50.303123 167.3722Q50.303123 166.52844 50.0375 166.20032Q49.771873 165.85657 49.38125 165.85657ZM49.38125 174.1847L54.084373 165.13782L54.94375 165.13782L50.25625 174.1847L49.38125 174.1847ZM53.1 171.85657Q53.1 170.9347 53.553123 170.29407Q54.021873 169.65344 54.9125 169.65344Q55.725 169.65344 56.25625 170.23157Q56.7875 170.79407 56.7875 171.91907Q56.7875 173.01282 56.240623 173.60657Q55.709373 174.1847 54.9125 174.1847Q54.146873 174.1847 53.615623 173.60657Q53.1 173.02844 53.1 171.85657ZM54.94375 170.3722Q54.5375 170.3722 54.271873 170.71594Q54.021873 171.0597 54.021873 171.96594Q54.021873 172.77844 54.2875 173.1222Q54.553123 173.46594 54.94375 173.46594Q55.334373 173.46594 55.6 173.1222Q55.865623 172.77844 55.865623 171.8722Q55.865623 171.04407 55.6 170.71594Q55.334373 170.3722 54.94375 170.3722Z" fill-rule="nonzero"/><path stroke="#757575" stroke-width="1.0" stroke-linecap="butt" d="M22.85 161.3722L174.46666 161.3722L212.52118 161.3722" fill-rule="nonzero"/><path fill="#9e9e9e" d="M214.52118 161.3722C214.52118 160.26762 213.62575 159.3722 212.52118 159.3722C211.41661 159.3722 210.52118 160.26762 210.52118 161.3722C210.52118 162.47676 211.41661 163.3722 212.52118 163.3722C213.62575 163.3722 214.52118 162.47676 214.52118 161.3722" fill-rule="nonzero"/><path fill="#1a1a1a" d="M670.2125 153.10703L671.3375 153.4039Q670.97815 154.79453 670.0563 155.5289Q669.1344 156.26328 667.79065 156.26328Q666.4 156.26328 665.525 155.70078Q664.65 155.13828 664.1969 154.07578Q663.7438 152.99765 663.7438 151.76328Q663.7438 150.41953 664.2594 149.41953Q664.775 148.41953 665.7125 147.9039Q666.66565 147.38828 667.8063 147.38828Q669.0875 147.38828 669.9625 148.04453Q670.85315 148.70078 671.1969 149.88828L670.0719 150.1539Q669.775 149.2164 669.1969 148.79453Q668.6344 148.35703 667.775 148.35703Q666.79065 148.35703 666.1188 148.8414Q665.4625 149.31015 665.1813 150.10703Q664.91565 150.9039 664.91565 151.76328Q664.91565 152.85703 665.22815 153.66953Q665.5563 154.48203 666.22815 154.88828Q666.9 155.29453 667.6969 155.29453Q668.65 155.29453 669.3063 154.74765Q669.97815 154.20078 670.2125 153.10703ZM672.91565 156.12265L672.91565 147.5289L673.97815 147.5289L673.97815 156.12265L672.91565 156.12265ZM680.0094 155.35703Q679.41565 155.85703 678.8688 156.06015Q678.3375 156.26328 677.7125 156.26328Q676.6813 156.26328 676.1344 155.76328Q675.5875 155.26328 675.5875 154.48203Q675.5875 154.0289 675.79065 153.6539Q675.9938 153.26328 676.3375 153.04453Q676.6813 152.81015 677.10315 152.70078Q677.4 152.60703 678.04065 152.5289Q679.3063 152.38828 679.91565 152.16953Q679.91565 151.95078 679.91565 151.9039Q679.91565 151.24765 679.6188 150.98203Q679.2125 150.63828 678.41565 150.63828Q677.6813 150.63828 677.3219 150.9039Q676.9625 151.1539 676.79065 151.81015L675.7594 151.66953Q675.9 151.01328 676.22815 150.60703Q676.5563 150.20078 677.16565 149.98203Q677.775 149.76328 678.5719 149.76328Q679.3688 149.76328 679.8688 149.95078Q680.3688 150.13828 680.60315 150.41953Q680.8375 150.70078 680.9313 151.13828Q680.97815 151.4039 680.97815 152.10703L680.97815 153.51328Q680.97815 154.98203 681.04065 155.37265Q681.1188 155.76328 681.3219 156.12265L680.2125 156.12265Q680.0563 155.79453 680.0094 155.35703ZM679.91565 152.99765Q679.3375 153.23203 678.1969 153.4039Q677.54065 153.49765 677.275 153.62265Q677.0094 153.73203 676.85315 153.95078Q676.7125 154.16953 676.7125 154.45078Q676.7125 154.87265 677.025 155.1539Q677.35315 155.43515 677.9625 155.43515Q678.5719 155.43515 679.04065 155.16953Q679.525 154.9039 679.7438 154.43515Q679.91565 154.07578 679.91565 153.38828L679.91565 152.99765ZM687.025 156.12265L687.025 155.20078Q686.29065 156.26328 685.04065 156.26328Q684.4938 156.26328 684.0094 156.06015Q683.54065 155.8414 683.3063 155.5289Q683.0719 155.20078 682.97815 154.73203Q682.91565 154.43515 682.91565 153.74765L682.91565 149.9039L683.97815 149.9039L683.97815 153.35703Q683.97815 154.16953 684.04065 154.4664Q684.1344 154.87265 684.4469 155.12265Q684.775 155.35703 685.2594 155.35703Q685.72815 155.35703 686.1344 155.12265Q686.5563 154.87265 686.72815 154.45078Q686.91565 154.0289 686.91565 153.23203L686.91565 149.9039L687.9625 149.9039L687.9625 156.12265L687.025 156.12265ZM693.97815 156.12265L693.97815 155.3414Q693.3844 156.26328 692.2438 156.26328Q691.4938 156.26328 690.8688 155.85703Q690.2438 155.43515 689.9 154.70078Q689.5563 153.9664 689.5563 153.01328Q689.5563 152.0914 689.8688 151.32578Q690.1813 150.56015 690.8063 150.16953Q691.4313 149.76328 692.1969 149.76328Q692.7594 149.76328 693.1969 149.99765Q693.6344 150.23203 693.91565 150.60703L693.91565 147.5289L694.9625 147.5289L694.9625 156.12265L693.97815 156.12265ZM690.65 153.01328Q690.65 154.2164 691.15 154.81015Q691.65 155.38828 692.3375 155.38828Q693.025 155.38828 693.5094 154.82578Q693.9938 154.26328 693.9938 153.10703Q693.9938 151.82578 693.4938 151.23203Q693.0094 150.63828 692.29065 150.63828Q691.5875 150.63828 691.1188 151.2164Q690.65 151.7789 690.65 153.01328ZM701.1969 154.12265L702.29065 154.24765Q702.04065 155.20078 701.3375 155.73203Q700.6344 156.26328 699.5563 156.26328Q698.1969 156.26328 697.3844 155.41953Q696.5875 154.57578 696.5875 153.06015Q696.5875 151.49765 697.4 150.63828Q698.2125 149.76328 699.4938 149.76328Q700.7438 149.76328 701.525 150.60703Q702.3219 151.45078 702.3219 152.99765Q702.3219 153.0914 702.3219 153.2789L697.6813 153.2789Q697.7438 154.31015 698.2594 154.85703Q698.775 155.38828 699.5563 155.38828Q700.1344 155.38828 700.54065 155.0914Q700.9625 154.7789 701.1969 154.12265ZM697.7438 152.41953L701.2125 152.41953Q701.15 151.62265 700.8219 151.23203Q700.3063 150.62265 699.5094 150.62265Q698.775 150.62265 698.275 151.10703Q697.79065 151.5914 697.7438 152.41953ZM703.65 153.85703L704.7125 153.7164Q704.8844 154.60703 705.3219 155.01328Q705.7594 155.4039 706.3844 155.4039Q707.1344 155.4039 707.65 154.88828Q708.16565 154.37265 708.16565 153.60703Q708.16565 152.88828 707.6813 152.41953Q707.2125 151.93515 706.47815 151.93515Q706.1813 151.93515 705.72815 152.06015L705.85315 151.12265Q705.9625 151.13828 706.025 151.13828Q706.6969 151.13828 707.22815 150.79453Q707.775 150.43515 707.775 149.70078Q707.775 149.12265 707.3844 148.74765Q706.9938 148.35703 706.3688 148.35703Q705.7594 148.35703 705.3375 148.74765Q704.9313 149.13828 704.8219 149.9039L703.7594 149.7164Q703.9469 148.66953 704.6344 148.0914Q705.3219 147.49765 706.3375 147.49765Q707.04065 147.49765 707.6344 147.81015Q708.22815 148.10703 708.54065 148.62265Q708.85315 149.13828 708.85315 149.73203Q708.85315 150.2789 708.5563 150.74765Q708.2594 151.20078 707.6813 151.4664Q708.4313 151.63828 708.85315 152.20078Q709.275 152.74765 709.275 153.5914Q709.275 154.7164 708.4469 155.49765Q707.6344 156.2789 706.3844 156.2789Q705.2594 156.2789 704.5094 155.60703Q703.7594 154.91953 703.65 153.85703Z" fill-rule="nonzero"/><path fill="#9e9e9e" d="M675.65 170.85703L676.7125 170.7164Q676.8844 171.60703 677.3219 172.01328Q677.7594 172.4039 678.3844 172.4039Q679.1344 172.4039 679.65 171.88828Q680.16565 171.37265 680.16565 170.60703Q680.16565 169.88828 679.6813 169.41953Q679.2125 168.93515 678.47815 168.93515Q678.1813 168.93515 677.72815 169.06015L677.85315 168.12265Q677.9625 168.13828 678.025 168.13828Q678.6969 168.13828 679.22815 167.79453Q679.775 167.43515 679.775 166.70078Q679.775 166.12265 679.3844 165.74765Q678.9938 165.35703 678.3688 165.35703Q677.7594 165.35703 677.3375 165.74765Q676.9313 166.13828 676.8219 166.9039L675.7594 166.7164Q675.9469 165.66953 676.6344 165.0914Q677.3219 164.49765 678.3375 164.49765Q679.04065 164.49765 679.6344 164.81015Q680.22815 165.10703 680.54065 165.62265Q680.85315 166.13828 680.85315 166.73203Q680.85315 167.2789 680.5563 167.74765Q680.2594 168.20078 679.6813 168.4664Q680.4313 168.63828 680.85315 169.20078Q681.275 169.74765 681.275 170.5914Q681.275 171.7164 680.4469 172.49765Q679.6344 173.2789 678.3844 173.2789Q677.2594 173.2789 676.5094 172.60703Q675.7594 171.91953 675.65 170.85703ZM682.65 170.85703L683.7125 170.7164Q683.8844 171.60703 684.3219 172.01328Q684.7594 172.4039 685.3844 172.4039Q686.1344 172.4039 686.65 171.88828Q687.16565 171.37265 687.16565 170.60703Q687.16565 169.88828 686.6813 169.41953Q686.2125 168.93515 685.47815 168.93515Q685.1813 168.93515 684.72815 169.06015L684.85315 168.12265Q684.9625 168.13828 685.025 168.13828Q685.6969 168.13828 686.22815 167.79453Q686.775 167.43515 686.775 166.70078Q686.775 166.12265 686.3844 165.74765Q685.9938 165.35703 685.3688 165.35703Q684.7594 165.35703 684.3375 165.74765Q683.9313 166.13828 683.8219 166.9039L682.7594 166.7164Q682.9469 165.66953 683.6344 165.0914Q684.3219 164.49765 685.3375 164.49765Q686.04065 164.49765 686.6344 164.81015Q687.22815 165.10703 687.54065 165.62265Q687.85315 166.13828 687.85315 166.73203Q687.85315 167.2789 687.5563 167.74765Q687.2594 168.20078 686.6813 168.4664Q687.4313 168.63828 687.85315 169.20078Q688.275 169.74765 688.275 170.5914Q688.275 171.7164 687.4469 172.49765Q686.6344 173.2789 685.3844 173.2789Q684.2594 173.2789 683.5094 172.60703Q682.7594 171.91953 682.65 170.85703ZM690.2438 173.12265L690.2438 171.91953L691.4469 171.91953L691.4469 173.12265L690.2438 173.12265ZM692.65 170.87265L693.7594 170.7789Q693.8844 171.5914 694.3219 171.99765Q694.775 172.4039 695.41565 172.4039Q696.16565 172.4039 696.6969 171.82578Q697.22815 171.24765 697.22815 170.31015Q697.22815 169.4039 696.7125 168.88828Q696.2125 168.35703 695.3844 168.35703Q694.8844 168.35703 694.4625 168.5914Q694.0563 168.82578 693.8219 169.18515L692.8375 169.06015L693.66565 164.6539L697.9469 164.6539L697.9469 165.6539L694.5094 165.6539L694.0563 167.9664Q694.8219 167.41953 695.66565 167.41953Q696.79065 167.41953 697.5563 168.20078Q698.3375 168.98203 698.3375 170.2164Q698.3375 171.37265 697.66565 172.23203Q696.8375 173.26328 695.41565 173.26328Q694.2438 173.26328 693.4938 172.60703Q692.7594 171.95078 692.65 170.87265ZM699.85315 166.5914Q699.85315 165.66953 700.3063 165.0289Q700.775 164.38828 701.65 164.38828Q702.4625 164.38828 702.9938 164.9664Q703.525 165.54453 703.525 166.6539Q703.525 167.74765 702.97815 168.3414Q702.4469 168.91953 701.66565 168.91953Q700.8844 168.91953 700.3688 168.3414Q699.85315 167.76328 699.85315 166.5914ZM701.6813 165.10703Q701.29065 165.10703 701.025 165.45078Q700.775 165.79453 700.775 166.70078Q700.775 167.5289 701.025 167.87265Q701.29065 168.20078 701.6813 168.20078Q702.0875 168.20078 702.3375 167.85703Q702.60315 167.51328 702.60315 166.62265Q702.60315 165.7789 702.3375 165.45078Q702.0719 165.10703 701.6813 165.10703ZM701.6813 173.43515L706.3844 164.38828L707.2438 164.38828L702.5563 173.43515L701.6813 173.43515ZM705.4 171.10703Q705.4 170.18515 705.85315 169.54453Q706.3219 168.9039 707.2125 168.9039Q708.025 168.9039 708.5563 169.48203Q709.0875 170.04453 709.0875 171.16953Q709.0875 172.26328 708.54065 172.85703Q708.0094 173.43515 707.2125 173.43515Q706.4469 173.43515 705.91565 172.85703Q705.4 172.2789 705.4 171.10703ZM707.2438 169.62265Q706.8375 169.62265 706.5719 169.9664Q706.3219 170.31015 706.3219 171.2164Q706.3219 172.0289 706.5875 172.37265Q706.85315 172.7164 707.2438 172.7164Q707.6344 172.7164 707.9 172.37265Q708.16565 172.0289 708.16565 171.12265Q708.16565 170.29453 707.9 169.9664Q707.6344 169.62265 707.2438 169.62265Z" fill-rule="nonzero"/><path stroke="#757575" stroke-width="1.0" stroke-linecap="butt" d="M710.15 160.62265L558.5333 160.62265L520.05414 160.62265" fill-rule="nonzero"/><path fill="#9e9e9e" d="M522.05414 160.62265C522.05414 159.51808 521.15875 158.62265 520.05414 158.62265C518.9496 158.62265 518.05414 159.51808 518.05414 160.62265C518.05414 161.72723 518.9496 162.62265 520.05414 162.62265C521.15875 162.62265 522.05414 161.72723 522.05414 160.62265" fill-rule="nonzero"/><path fill="#1a1a1a" d="M675.10315 410.775L675.10315 409.775L678.72815 409.75937L678.72815 412.94687Q677.9 413.61874 677.0094 413.9625Q676.1188 414.29062 675.1813 414.29062Q673.91565 414.29062 672.8688 413.75937Q671.8375 413.2125 671.3063 412.19687Q670.79065 411.16562 670.79065 409.9Q670.79065 408.63437 671.3063 407.55624Q671.8375 406.4625 672.8219 405.94687Q673.8063 405.41562 675.0875 405.41562Q676.025 405.41562 676.775 405.7125Q677.525 406.00937 677.9469 406.55624Q678.3844 407.0875 678.60315 407.9625L677.5875 408.24374Q677.3844 407.5875 677.0875 407.2125Q676.8063 406.8375 676.275 406.61874Q675.7438 406.38437 675.10315 406.38437Q674.3219 406.38437 673.7438 406.61874Q673.1813 406.85312 672.8219 407.24374Q672.47815 407.63437 672.29065 408.10312Q671.9625 408.9 671.9625 409.82187Q671.9625 410.97812 672.35315 411.75937Q672.7594 412.525 673.5094 412.9Q674.2594 413.275 675.1188 413.275Q675.85315 413.275 676.5563 412.99374Q677.2594 412.69687 677.6188 412.38437L677.6188 410.775L675.10315 410.775ZM684.1969 412.15L685.29065 412.275Q685.04065 413.22812 684.3375 413.75937Q683.6344 414.29062 682.5563 414.29062Q681.1969 414.29062 680.3844 413.44687Q679.5875 412.60312 679.5875 411.0875Q679.5875 409.525 680.4 408.66562Q681.2125 407.79062 682.4938 407.79062Q683.7438 407.79062 684.525 408.63437Q685.3219 409.47812 685.3219 411.025Q685.3219 411.11874 685.3219 411.30624L680.6813 411.30624Q680.7438 412.3375 681.2594 412.88437Q681.775 413.41562 682.5563 413.41562Q683.1344 413.41562 683.54065 413.11874Q683.9625 412.80624 684.1969 412.15ZM680.7438 410.44687L684.2125 410.44687Q684.15 409.65 683.8219 409.25937Q683.3063 408.65 682.5094 408.65Q681.775 408.65 681.275 409.13437Q680.79065 409.61874 680.7438 410.44687ZM686.9469 414.15L686.9469 407.93124L687.8844 407.93124L687.8844 408.80624Q688.1813 408.3375 688.66565 408.07187Q689.15 407.79062 689.775 407.79062Q690.4625 407.79062 690.9 408.07187Q691.35315 408.35312 691.525 408.86874Q692.275 407.79062 693.4469 407.79062Q694.3844 407.79062 694.8688 408.30624Q695.3688 408.80624 695.3688 409.88437L695.3688 414.15L694.3219 414.15L694.3219 410.22812Q694.3219 409.60312 694.2125 409.32187Q694.1188 409.04062 693.85315 408.86874Q693.5875 408.69687 693.2125 408.69687Q692.5563 408.69687 692.1188 409.13437Q691.6969 409.57187 691.6969 410.54062L691.6969 414.15L690.6344 414.15L690.6344 410.10312Q690.6344 409.4 690.3688 409.05624Q690.1188 408.69687 689.54065 408.69687Q689.0875 408.69687 688.7125 408.93124Q688.3375 409.16562 688.16565 409.61874Q687.9938 410.07187 687.9938 410.91562L687.9938 414.15L686.9469 414.15ZM697.9469 406.775L697.9469 405.55624L699.0094 405.55624L699.0094 406.775L697.9469 406.775ZM697.9469 414.15L697.9469 407.93124L699.0094 407.93124L699.0094 414.15L697.9469 414.15ZM700.9469 414.15L700.9469 407.93124L701.8844 407.93124L701.8844 408.80624Q702.5719 407.79062 703.8688 407.79062Q704.4313 407.79062 704.9 407.99374Q705.3844 408.19687 705.6188 408.525Q705.85315 408.85312 705.9469 409.29062Q705.9938 409.5875 705.9938 410.32187L705.9938 414.15L704.9469 414.15L704.9469 410.36874Q704.9469 409.7125 704.8219 409.4Q704.6969 409.0875 704.3844 408.9Q704.0719 408.69687 703.65 408.69687Q702.97815 408.69687 702.47815 409.13437Q701.9938 409.55624 701.9938 410.74374L701.9938 414.15L700.9469 414.15ZM707.9469 406.775L707.9469 405.55624L709.0094 405.55624L709.0094 406.775L707.9469 406.775ZM707.9469 414.15L707.9469 407.93124L709.0094 407.93124L709.0094 414.15L707.9469 414.15Z" fill-rule="nonzero"/><path fill="#9e9e9e" d="M675.65 428.88437L676.7125 428.74374Q676.8844 429.63437 677.3219 430.04062Q677.7594 430.43124 678.3844 430.43124Q679.1344 430.43124 679.65 429.91562Q680.16565 429.4 680.16565 428.63437Q680.16565 427.91562 679.6813 427.44687Q679.2125 426.9625 678.47815 426.9625Q678.1813 426.9625 677.72815 427.0875L677.85315 426.15Q677.9625 426.16562 678.025 426.16562Q678.6969 426.16562 679.22815 425.82187Q679.775 425.4625 679.775 424.72812Q679.775 424.15 679.3844 423.775Q678.9938 423.38437 678.3688 423.38437Q677.7594 423.38437 677.3375 423.775Q676.9313 424.16562 676.8219 424.93124L675.7594 424.74374Q675.9469 423.69687 676.6344 423.11874Q677.3219 422.525 678.3375 422.525Q679.04065 422.525 679.6344 422.8375Q680.22815 423.13437 680.54065 423.65Q680.85315 424.16562 680.85315 424.75937Q680.85315 425.30624 680.5563 425.775Q680.2594 426.22812 679.6813 426.49374Q680.4313 426.66562 680.85315 427.22812Q681.275 427.775 681.275 428.61874Q681.275 429.74374 680.4469 430.525Q679.6344 431.30624 678.3844 431.30624Q677.2594 431.30624 676.5094 430.63437Q675.7594 429.94687 675.65 428.88437ZM688.1969 430.13437L688.1969 431.15L682.5094 431.15Q682.5094 430.775 682.6344 430.41562Q682.85315 429.8375 683.3219 429.275Q683.8063 428.7125 684.7125 427.97812Q686.1188 426.82187 686.60315 426.15Q687.10315 425.47812 687.10315 424.88437Q687.10315 424.25937 686.65 423.8375Q686.1969 423.4 685.47815 423.4Q684.7125 423.4 684.2594 423.85312Q683.8063 424.30624 683.79065 425.11874L682.7125 425.00937Q682.8219 423.79062 683.54065 423.16562Q684.275 422.525 685.5094 422.525Q686.7438 422.525 687.4625 423.2125Q688.1813 423.9 688.1813 424.91562Q688.1813 425.43124 687.9625 425.93124Q687.7594 426.41562 687.2594 426.97812Q686.775 427.525 685.65 428.47812Q684.6969 429.275 684.41565 429.57187Q684.15 429.85312 683.97815 430.13437L688.1969 430.13437ZM690.2438 431.15L690.2438 429.94687L691.4469 429.94687L691.4469 431.15L690.2438 431.15ZM694.275 426.49374Q693.6188 426.24374 693.29065 425.80624Q692.97815 425.35312 692.97815 424.74374Q692.97815 423.80624 693.65 423.16562Q694.3375 422.525 695.4469 422.525Q696.5719 422.525 697.2594 423.18124Q697.9469 423.8375 697.9469 424.775Q697.9469 425.36874 697.6344 425.80624Q697.3219 426.24374 696.6813 426.49374Q697.47815 426.74374 697.8844 427.32187Q698.29065 427.9 698.29065 428.69687Q698.29065 429.79062 697.5094 430.54062Q696.7438 431.29062 695.4625 431.29062Q694.1969 431.29062 693.41565 430.54062Q692.6344 429.79062 692.6344 428.66562Q692.6344 427.82187 693.0563 427.25937Q693.4938 426.69687 694.275 426.49374ZM694.0563 424.69687Q694.0563 425.30624 694.4469 425.69687Q694.85315 426.0875 695.47815 426.0875Q696.0875 426.0875 696.47815 425.7125Q696.8688 425.32187 696.8688 424.75937Q696.8688 424.18124 696.4625 423.79062Q696.0563 423.38437 695.4625 423.38437Q694.85315 423.38437 694.4469 423.775Q694.0563 424.16562 694.0563 424.69687ZM693.72815 428.66562Q693.72815 429.11874 693.9313 429.54062Q694.15 429.9625 694.5719 430.19687Q694.9938 430.43124 695.47815 430.43124Q696.22815 430.43124 696.7125 429.94687Q697.2125 429.4625 697.2125 428.7125Q697.2125 427.94687 696.7125 427.44687Q696.2125 426.94687 695.4469 426.94687Q694.6969 426.94687 694.2125 427.44687Q693.72815 427.93124 693.72815 428.66562ZM699.85315 424.61874Q699.85315 423.69687 700.3063 423.05624Q700.775 422.41562 701.65 422.41562Q702.4625 422.41562 702.9938 422.99374Q703.525 423.57187 703.525 424.68124Q703.525 425.775 702.97815 426.36874Q702.4469 426.94687 701.66565 426.94687Q700.8844 426.94687 700.3688 426.36874Q699.85315 425.79062 699.85315 424.61874ZM701.6813 423.13437Q701.29065 423.13437 701.025 423.47812Q700.775 423.82187 700.775 424.72812Q700.775 425.55624 701.025 425.9Q701.29065 426.22812 701.6813 426.22812Q702.0875 426.22812 702.3375 425.88437Q702.60315 425.54062 702.60315 424.65Q702.60315 423.80624 702.3375 423.47812Q702.0719 423.13437 701.6813 423.13437ZM701.6813 431.4625L706.3844 422.41562L707.2438 422.41562L702.5563 431.4625L701.6813 431.4625ZM705.4 429.13437Q705.4 428.2125 705.85315 427.57187Q706.3219 426.93124 707.2125 426.93124Q708.025 426.93124 708.5563 427.50937Q709.0875 428.07187 709.0875 429.19687Q709.0875 430.29062 708.54065 430.88437Q708.0094 431.4625 707.2125 431.4625Q706.4469 431.4625 705.91565 430.88437Q705.4 430.30624 705.4 429.13437ZM707.2438 427.65Q706.8375 427.65 706.5719 427.99374Q706.3219 428.3375 706.3219 429.24374Q706.3219 430.05624 706.5875 430.4Q706.85315 430.74374 707.2438 430.74374Q707.6344 430.74374 707.9 430.4Q708.16565 430.05624 708.16565 429.15Q708.16565 428.32187 707.9 427.99374Q707.6344 427.65 707.2438 427.65Z" fill-rule="nonzero"/><path stroke="#757575" stroke-width="1.0" stroke-linecap="butt" d="M710.15 418.65L558.5333 418.65L367.36148 424.84622" fill-rule="nonzero"/><path fill="#9e9e9e" d="M369.36148 424.84622C369.36148 423.74167 368.46603 422.84622 367.36148 422.84622C366.2569 422.84622 365.36148 423.74167 365.36148 424.84622C365.36148 425.9508 366.2569 426.84622 367.36148 426.84622C368.46603 426.84622 369.36148 425.9508 369.36148 424.84622" fill-rule="nonzero"/><path fill="#757575" d="M22.81875 41.85L28.31875 27.537498L30.365625 27.537498L36.225 41.85L34.06875 41.85L32.396873 37.50625L26.4125 37.50625L24.834375 41.85L22.81875 41.85ZM26.959375 35.975L31.803125 35.975L30.31875 32.00625Q29.63125 30.193748 29.303125 29.037498Q29.021875 30.412498 28.521875 31.771873L26.959375 35.975ZM40.053123 41.85L36.1 31.474998L37.959373 31.474998L40.19375 37.69375Q40.553123 38.69375 40.85 39.771873Q41.084373 38.959373 41.50625 37.803123L43.803123 31.474998L45.615623 31.474998L41.69375 41.85L40.053123 41.85ZM53.271873 38.50625L55.084373 38.740623Q54.6625 40.31875 53.490623 41.209373Q52.334373 42.084373 50.521873 42.084373Q48.25625 42.084373 46.9125 40.69375Q45.584373 39.2875 45.584373 36.75625Q45.584373 34.13125 46.928123 32.69375Q48.271873 31.240623 50.428123 31.240623Q52.50625 31.240623 53.81875 32.6625Q55.146873 34.06875 55.146873 36.646873Q55.146873 36.803123 55.13125 37.115623L47.396873 37.115623Q47.490623 38.81875 48.365623 39.725Q49.240623 40.63125 50.5375 40.63125Q51.50625 40.63125 52.178123 40.13125Q52.865623 39.615623 53.271873 38.50625ZM47.490623 35.6625L53.2875 35.6625Q53.178123 34.365623 52.63125 33.709373Q51.7875 32.69375 50.44375 32.69375Q49.240623 32.69375 48.4125 33.50625Q47.584373 34.303123 47.490623 35.6625ZM57.146873 41.85L57.146873 31.474998L58.725 31.474998L58.725 33.053123Q59.334373 31.943748 59.85 31.599998Q60.365623 31.240623 60.975 31.240623Q61.865623 31.240623 62.7875 31.803123L62.178123 33.44375Q61.5375 33.053123 60.896873 33.053123Q60.31875 33.053123 59.85 33.4125Q59.396873 33.75625 59.19375 34.365623Q58.9125 35.303123 58.9125 36.4125L58.9125 41.85L57.146873 41.85ZM70.94375 40.56875Q69.95937 41.396873 69.05312 41.740623Q68.14687 42.084373 67.11562 42.084373Q65.4125 42.084373 64.49062 41.25625Q63.56875 40.4125 63.56875 39.115623Q63.56875 38.35 63.9125 37.725Q64.27187 37.1 64.83437 36.725Q65.39687 36.334373 66.1 36.13125Q66.61562 36.00625 67.6625 35.865623Q69.7875 35.615623 70.7875 35.271873Q70.80312 34.9125 70.80312 34.803123Q70.80312 33.740623 70.30312 33.2875Q69.63125 32.69375 68.30312 32.69375Q67.05312 32.69375 66.45937 33.13125Q65.88125 33.56875 65.6 34.678123L63.88125 34.44375Q64.11562 33.334373 64.64687 32.6625Q65.17812 31.974998 66.19375 31.615623Q67.20937 31.240623 68.55312 31.240623Q69.88125 31.240623 70.70937 31.553123Q71.5375 31.865623 71.92812 32.35Q72.31875 32.81875 72.475 33.5375Q72.56875 33.990623 72.56875 35.1625L72.56875 37.50625Q72.56875 39.959373 72.67812 40.615623Q72.7875 41.25625 73.13125 41.85L71.2875 41.85Q71.02187 41.303123 70.94375 40.56875ZM70.7875 36.646873Q69.83437 37.0375 67.9125 37.303123Q66.83437 37.459373 66.38125 37.6625Q65.94375 37.85 65.69375 38.225Q65.44375 38.6 65.44375 39.06875Q65.44375 39.771873 65.975 40.240623Q66.50625 40.709373 67.5375 40.709373Q68.55312 40.709373 69.33437 40.271873Q70.13125 39.81875 70.50625 39.053123Q70.7875 38.44375 70.7875 37.2875L70.7875 36.646873ZM74.85 42.709373L76.55312 42.959373Q76.6625 43.75625 77.14687 44.115623Q77.80312 44.6 78.94375 44.6Q80.1625 44.6 80.81875 44.115623Q81.49062 43.63125 81.725 42.75625Q81.86562 42.209373 81.85 40.490623Q80.69375 41.85 78.975 41.85Q76.83437 41.85 75.6625 40.303123Q74.49062 38.75625 74.49062 36.6Q74.49062 35.115623 75.02187 33.865623Q75.56875 32.615623 76.58437 31.928123Q77.61562 31.240623 78.99062 31.240623Q80.81875 31.240623 82.02187 32.725L82.02187 31.474998L83.63125 31.474998L83.63125 40.44375Q83.63125 42.865623 83.13125 43.865623Q82.64687 44.88125 81.56875 45.459373Q80.50625 46.053123 78.94375 46.053123Q77.1 46.053123 75.94375 45.225Q74.80312 44.396873 74.85 42.709373ZM76.30312 36.475Q76.30312 38.521873 77.11562 39.459373Q77.92812 40.396873 79.14687 40.396873Q80.35 40.396873 81.1625 39.459373Q81.99062 38.521873 81.99062 36.5375Q81.99062 34.63125 81.14687 33.6625Q80.30312 32.69375 79.11562 32.69375Q77.94375 32.69375 77.11562 33.646873Q76.30312 34.6 76.30312 36.475ZM93.27187 38.50625L95.08437 38.740623Q94.6625 40.31875 93.49062 41.209373Q92.33437 42.084373 90.52187 42.084373Q88.25625 42.084373 86.9125 40.69375Q85.58437 39.2875 85.58437 36.75625Q85.58437 34.13125 86.92812 32.69375Q88.27187 31.240623 90.42812 31.240623Q92.50625 31.240623 93.81875 32.6625Q95.14687 34.06875 95.14687 36.646873Q95.14687 36.803123 95.13125 37.115623L87.39687 37.115623Q87.49062 38.81875 88.36562 39.725Q89.24062 40.63125 90.5375 40.63125Q91.50625 40.63125 92.17812 40.13125Q92.86562 39.615623 93.27187 38.50625ZM87.49062 35.6625L93.2875 35.6625Q93.17812 34.365623 92.63125 33.709373Q91.7875 32.69375 90.44375 32.69375Q89.24062 32.69375 88.4125 33.50625Q87.58437 34.303123 87.49062 35.6625ZM103.17812 41.85L103.17812 27.537498L104.94375 27.537498L104.94375 35.69375L109.1 31.474998L111.36562 31.474998L107.4125 35.31875L111.77187 41.85L109.6 41.85L106.17812 36.553123L104.94375 37.740623L104.94375 41.85L103.17812 41.85ZM120.27187 38.50625L122.08437 38.740623Q121.6625 40.31875 120.49062 41.209373Q119.33437 42.084373 117.52187 42.084373Q115.25625 42.084373 113.9125 40.69375Q112.58437 39.2875 112.58437 36.75625Q112.58437 34.13125 113.92812 32.69375Q115.27187 31.240623 117.42812 31.240623Q119.50625 31.240623 120.81875 32.6625Q122.14687 34.06875 122.14687 36.646873Q122.14687 36.803123 122.13125 37.115623L114.39687 37.115623Q114.49062 38.81875 115.36562 39.725Q116.24062 40.63125 117.5375 40.63125Q118.50625 40.63125 119.17812 40.13125Q119.86562 39.615623 120.27187 38.50625ZM114.49062 35.6625L120.2875 35.6625Q120.17812 34.365623 119.63125 33.709373Q118.7875 32.69375 117.44375 32.69375Q116.24062 32.69375 115.4125 33.50625Q114.58437 34.303123 114.49062 35.6625ZM124.08437 45.85L123.89687 44.19375Q124.475 44.35 124.89687 44.35Q125.49062 44.35 125.83437 44.146873Q126.19375 43.959373 126.4125 43.615623Q126.58437 43.35 126.95937 42.303123Q127.00625 42.146873 127.11562 41.865623L123.17812 31.474998L125.06875 31.474998L127.225 37.490623Q127.64687 38.63125 127.975 39.88125Q128.2875 38.678123 128.69376 37.521873L130.9125 31.474998L132.67813 31.474998L128.725 42.021873Q128.1 43.740623 127.74062 44.38125Q127.27187 45.25625 126.6625 45.646873Q126.06875 46.053123 125.225 46.053123Q124.70937 46.053123 124.08437 45.85ZM136.08438 41.85L132.9125 31.474998L134.725 31.474998L136.38126 37.459373L136.99063 39.69375Q137.0375 39.521873 137.52188 37.553123L139.17813 31.474998L140.99063 31.474998L142.5375 37.490623L143.05313 39.475L143.64688 37.475L145.42813 31.474998L147.13126 31.474998L143.89688 41.85L142.06876 41.85L140.4125 35.63125L140.02188 33.865623L137.9125 41.85L136.08438 41.85ZM148.52188 36.6625Q148.52188 33.7875 150.11563 32.396873Q151.45938 31.240623 153.38126 31.240623Q155.52188 31.240623 156.86563 32.646873Q158.225 34.053123 158.225 36.521873Q158.225 38.521873 157.63126 39.678123Q157.0375 40.81875 155.88126 41.459373Q154.74063 42.084373 153.38126 42.084373Q151.19376 42.084373 149.85 40.69375Q148.52188 39.2875 148.52188 36.6625ZM150.31876 36.6625Q150.31876 38.6625 151.17813 39.646873Q152.05313 40.63125 153.38126 40.63125Q154.69376 40.63125 155.55313 39.646873Q156.42813 38.646873 156.42813 36.6Q156.42813 34.678123 155.55313 33.69375Q154.67813 32.69375 153.38126 32.69375Q152.05313 32.69375 151.17813 33.69375Q150.31876 34.678123 150.31876 36.6625ZM160.14688 41.85L160.14688 31.474998L161.725 31.474998L161.725 33.053123Q162.33438 31.943748 162.85 31.599998Q163.36563 31.240623 163.975 31.240623Q164.86563 31.240623 165.7875 31.803123L165.17813 33.44375Q164.5375 33.053123 163.89688 33.053123Q163.31876 33.053123 162.85 33.4125Q162.39688 33.75625 162.19376 34.365623Q161.9125 35.303123 161.9125 36.4125L161.9125 41.85L160.14688 41.85ZM173.89688 41.85L173.89688 40.5375Q172.9125 42.084373 170.99063 42.084373Q169.75626 42.084373 168.70938 41.396873Q167.67813 40.709373 167.1 39.490623Q166.5375 38.271873 166.5375 36.678123Q166.5375 35.115623 167.05313 33.85Q167.56876 32.584373 168.6 31.912498Q169.64688 31.240623 170.9125 31.240623Q171.85 31.240623 172.58438 31.646873Q173.31876 32.0375 173.7875 32.6625L173.7875 27.537498L175.52188 27.537498L175.52188 41.85L173.89688 41.85ZM168.33438 36.678123Q168.33438 38.6625 169.17813 39.646873Q170.02188 40.63125 171.1625 40.63125Q172.31876 40.63125 173.11563 39.69375Q173.92813 38.75625 173.92813 36.81875Q173.92813 34.69375 173.1 33.69375Q172.2875 32.69375 171.08438 32.69375Q169.9125 32.69375 169.11563 33.6625Q168.33438 34.615623 168.33438 36.678123ZM177.45938 38.75625L179.20938 38.475Q179.35 39.521873 180.02188 40.084373Q180.69376 40.63125 181.89688 40.63125Q183.1 40.63125 183.67813 40.146873Q184.27188 39.646873 184.27188 38.990623Q184.27188 38.396873 183.75626 38.053123Q183.39688 37.81875 181.95938 37.459373Q180.02188 36.959373 179.27188 36.615623Q178.5375 36.25625 178.14688 35.63125Q177.75626 34.990623 177.75626 34.225Q177.75626 33.5375 178.06876 32.94375Q178.39688 32.35 178.94376 31.959373Q179.35 31.662498 180.05313 31.459373Q180.77188 31.240623 181.58438 31.240623Q182.80313 31.240623 183.725 31.599998Q184.64688 31.943748 185.08438 32.553123Q185.52188 33.146873 185.69376 34.146873L183.975 34.38125Q183.85 33.584373 183.2875 33.146873Q182.725 32.69375 181.70938 32.69375Q180.49063 32.69375 179.975 33.1Q179.45938 33.490623 179.45938 34.021873Q179.45938 34.365623 179.67813 34.646873Q179.88126 34.928123 180.35 35.115623Q180.61563 35.209373 181.89688 35.553123Q183.77188 36.053123 184.50626 36.38125Q185.24063 36.69375 185.6625 37.303123Q186.08438 37.896873 186.08438 38.803123Q186.08438 39.678123 185.56876 40.459373Q185.05313 41.240623 184.08438 41.6625Q183.11563 42.084373 181.89688 42.084373Q179.88126 42.084373 178.81876 41.240623Q177.75626 40.396873 177.45938 38.75625ZM186.85 42.1L191.00626 27.287498L192.4125 27.287498L188.27188 42.1L186.85 42.1ZM193.45938 38.75625L195.20938 38.475Q195.35 39.521873 196.02188 40.084373Q196.69376 40.63125 197.89688 40.63125Q199.1 40.63125 199.67813 40.146873Q200.27188 39.646873 200.27188 38.990623Q200.27188 38.396873 199.75626 38.053123Q199.39688 37.81875 197.95938 37.459373Q196.02188 36.959373 195.27188 36.615623Q194.5375 36.25625 194.14688 35.63125Q193.75626 34.990623 193.75626 34.225Q193.75626 33.5375 194.06876 32.94375Q194.39688 32.35 194.94376 31.959373Q195.35 31.662498 196.05313 31.459373Q196.77188 31.240623 197.58438 31.240623Q198.80313 31.240623 199.725 31.599998Q200.64688 31.943748 201.08438 32.553123Q201.52188 33.146873 201.69376 34.146873L199.975 34.38125Q199.85 33.584373 199.2875 33.146873Q198.725 32.69375 197.70938 32.69375Q196.49063 32.69375 195.975 33.1Q195.45938 33.490623 195.45938 34.021873Q195.45938 34.365623 195.67813 34.646873Q195.88126 34.928123 196.35 35.115623Q196.61563 35.209373 197.89688 35.553123Q199.77188 36.053123 200.50626 36.38125Q201.24063 36.69375 201.6625 37.303123Q202.08438 37.896873 202.08438 38.803123Q202.08438 39.678123 201.56876 40.459373Q201.05313 41.240623 200.08438 41.6625Q199.11563 42.084373 197.89688 42.084373Q195.88126 42.084373 194.81876 41.240623Q193.75626 40.396873 193.45938 38.75625ZM210.95938 41.85L210.95938 40.31875Q209.75626 42.084373 207.67813 42.084373Q206.75626 42.084373 205.95938 41.740623Q205.1625 41.38125 204.77188 40.85Q204.39688 40.31875 204.24063 39.5375Q204.13126 39.021873 204.13126 37.896873L204.13126 31.474998L205.88126 31.474998L205.88126 37.225Q205.88126 38.6 205.99063 39.084373Q206.1625 39.771873 206.69376 40.178123Q207.24063 40.56875 208.02188 40.56875Q208.81876 40.56875 209.50626 40.1625Q210.20938 39.75625 210.49063 39.06875Q210.7875 38.365623 210.7875 37.0375L210.7875 31.474998L212.5375 31.474998L212.5375 41.85L210.95938 41.85ZM214.1625 41.85L214.1625 31.474998L215.74063 31.474998L215.74063 32.928123Q216.225 32.178123 217.0375 31.709373Q217.85 31.240623 218.88126 31.240623Q220.0375 31.240623 220.77188 31.724998Q221.50626 32.19375 221.81876 33.053123Q223.05313 31.240623 225.02188 31.240623Q226.56876 31.240623 227.39688 32.1Q228.225 32.959373 228.225 34.725L228.225 41.85L226.475 41.85L226.475 35.31875Q226.475 34.25625 226.30313 33.803123Q226.13126 33.334373 225.67813 33.053123Q225.24063 32.771873 224.63126 32.771873Q223.5375 32.771873 222.80313 33.50625Q222.08438 34.225 222.08438 35.81875L222.08438 41.85L220.33438 41.85L220.33438 35.115623Q220.33438 33.94375 219.89688 33.365623Q219.475 32.771873 218.49063 32.771873Q217.75626 32.771873 217.11563 33.1625Q216.49063 33.553123 216.20938 34.303123Q215.92813 35.053123 215.92813 36.475L215.92813 41.85L214.1625 41.85ZM230.1625 41.85L230.1625 31.474998L231.74063 31.474998L231.74063 32.928123Q232.225 32.178123 233.0375 31.709373Q233.85 31.240623 234.88126 31.240623Q236.0375 31.240623 236.77188 31.724998Q237.50626 32.19375 237.81876 33.053123Q239.05313 31.240623 241.02188 31.240623Q242.56876 31.240623 243.39688 32.1Q244.225 32.959373 244.225 34.725L244.225 41.85L242.475 41.85L242.475 35.31875Q242.475 34.25625 242.30313 33.803123Q242.13126 33.334373 241.67813 33.053123Q241.24063 32.771873 240.63126 32.771873Q239.5375 32.771873 238.80313 33.50625Q238.08438 34.225 238.08438 35.81875L238.08438 41.85L236.33438 41.85L236.33438 35.115623Q236.33438 33.94375 235.89688 33.365623Q235.475 32.771873 234.49063 32.771873Q233.75626 32.771873 233.11563 33.1625Q232.49063 33.553123 232.20938 34.303123Q231.92813 35.053123 231.92813 36.475L231.92813 41.85L230.1625 41.85ZM252.94376 40.56875Q251.95938 41.396873 251.05313 41.740623Q250.14688 42.084373 249.11563 42.084373Q247.4125 42.084373 246.49063 41.25625Q245.56876 40.4125 245.56876 39.115623Q245.56876 38.35 245.9125 37.725Q246.27188 37.1 246.83438 36.725Q247.39688 36.334373 248.1 36.13125Q248.61563 36.00625 249.6625 35.865623Q251.7875 35.615623 252.7875 35.271873Q252.80313 34.9125 252.80313 34.803123Q252.80313 33.740623 252.30313 33.2875Q251.63126 32.69375 250.30313 32.69375Q249.05313 32.69375 248.45938 33.13125Q247.88126 33.56875 247.6 34.678123L245.88126 34.44375Q246.11563 33.334373 246.64688 32.6625Q247.17813 31.974998 248.19376 31.615623Q249.20938 31.240623 250.55313 31.240623Q251.88126 31.240623 252.70938 31.553123Q253.5375 31.865623 253.92813 32.35Q254.31876 32.81875 254.475 33.5375Q254.56876 33.990623 254.56876 35.1625L254.56876 37.50625Q254.56876 39.959373 254.67813 40.615623Q254.7875 41.25625 255.13126 41.85L253.2875 41.85Q253.02188 41.303123 252.94376 40.56875ZM252.7875 36.646873Q251.83438 37.0375 249.9125 37.303123Q248.83438 37.459373 248.38126 37.6625Q247.94376 37.85 247.69376 38.225Q247.44376 38.6 247.44376 39.06875Q247.44376 39.771873 247.975 40.240623Q248.50626 40.709373 249.5375 40.709373Q250.55313 40.709373 251.33438 40.271873Q252.13126 39.81875 252.50626 39.053123Q252.7875 38.44375 252.7875 37.2875L252.7875 36.646873ZM257.14688 41.85L257.14688 31.474998L258.725 31.474998L258.725 33.053123Q259.33438 31.943748 259.85 31.599998Q260.36563 31.240623 260.975 31.240623Q261.86563 31.240623 262.7875 31.803123L262.17813 33.44375Q261.5375 33.053123 260.89688 33.053123Q260.31876 33.053123 259.85 33.4125Q259.39688 33.75625 259.19376 34.365623Q258.9125 35.303123 258.9125 36.4125L258.9125 41.85L257.14688 41.85ZM264.08438 45.85L263.89688 44.19375Q264.475 44.35 264.89688 44.35Q265.49063 44.35 265.83438 44.146873Q266.19376 43.959373 266.4125 43.615623Q266.58438 43.35 266.95938 42.303123Q267.00626 42.146873 267.11563 41.865623L263.17813 31.474998L265.06876 31.474998L267.225 37.490623Q267.64688 38.63125 267.975 39.88125Q268.2875 38.678123 268.69376 37.521873L270.9125 31.474998L272.67813 31.474998L268.725 42.021873Q268.1 43.740623 267.74063 44.38125Q267.27188 45.25625 266.6625 45.646873Q266.06876 46.053123 265.225 46.053123Q264.70938 46.053123 264.08438 45.85ZM279.45938 38.75625L281.20938 38.475Q281.35 39.521873 282.02188 40.084373Q282.69376 40.63125 283.89688 40.63125Q285.1 40.63125 285.67813 40.146873Q286.27188 39.646873 286.27188 38.990623Q286.27188 38.396873 285.75626 38.053123Q285.39688 37.81875 283.95938 37.459373Q282.02188 36.959373 281.27188 36.615623Q280.5375 36.25625 280.14688 35.63125Q279.75626 34.990623 279.75626 34.225Q279.75626 33.5375 280.06876 32.94375Q280.39688 32.35 280.94376 31.959373Q281.35 31.662498 282.05313 31.459373Q282.77188 31.240623 283.58438 31.240623Q284.80313 31.240623 285.725 31.599998Q286.64688 31.943748 287.08438 32.553123Q287.52188 33.146873 287.69376 34.146873L285.975 34.38125Q285.85 33.584373 285.2875 33.146873Q284.725 32.69375 283.70938 32.69375Q282.49063 32.69375 281.975 33.1Q281.45938 33.490623 281.45938 34.021873Q281.45938 34.365623 281.67813 34.646873Q281.88126 34.928123 282.35 35.115623Q282.61563 35.209373 283.89688 35.553123Q285.77188 36.053123 286.50626 36.38125Q287.24063 36.69375 287.6625 37.303123Q288.08438 37.896873 288.08438 38.803123Q288.08438 39.678123 287.56876 40.459373Q287.05313 41.240623 286.08438 41.6625Q285.11563 42.084373 283.89688 42.084373Q281.88126 42.084373 280.81876 41.240623Q279.75626 40.396873 279.45938 38.75625ZM296.94376 38.053123L298.6625 38.271873Q298.38126 40.06875 297.20938 41.084373Q296.05313 42.084373 294.35 42.084373Q292.225 42.084373 290.92813 40.69375Q289.63126 39.303123 289.63126 36.709373Q289.63126 35.021873 290.17813 33.771873Q290.74063 32.50625 291.88126 31.881248Q293.02188 31.240623 294.36563 31.240623Q296.05313 31.240623 297.11563 32.1Q298.19376 32.959373 298.50626 34.521873L296.7875 34.7875Q296.55313 33.740623 295.92813 33.225Q295.30313 32.69375 294.42813 32.69375Q293.1 32.69375 292.27188 33.646873Q291.44376 34.6 291.44376 36.646873Q291.44376 38.740623 292.24063 39.69375Q293.0375 40.63125 294.33438 40.63125Q295.36563 40.63125 296.05313 40.00625Q296.75626 39.365623 296.94376 38.053123ZM299.52188 36.6625Q299.52188 33.7875 301.11563 32.396873Q302.45938 31.240623 304.38126 31.240623Q306.52188 31.240623 307.86563 32.646873Q309.225 34.053123 309.225 36.521873Q309.225 38.521873 308.63126 39.678123Q308.0375 40.81875 306.88126 41.459373Q305.74063 42.084373 304.38126 42.084373Q302.19376 42.084373 300.85 40.69375Q299.52188 39.2875 299.52188 36.6625ZM301.31876 36.6625Q301.31876 38.6625 302.17813 39.646873Q303.05313 40.63125 304.38126 40.63125Q305.69376 40.63125 306.55313 39.646873Q307.42813 38.646873 307.42813 36.6Q307.42813 34.678123 306.55313 33.69375Q305.67813 32.69375 304.38126 32.69375Q303.05313 32.69375 302.17813 33.69375Q301.31876 34.678123 301.31876 36.6625ZM311.14688 41.85L311.14688 31.474998L312.725 31.474998L312.725 33.053123Q313.33438 31.943748 313.85 31.599998Q314.36563 31.240623 314.975 31.240623Q315.86563 31.240623 316.7875 31.803123L316.17813 33.44375Q315.5375 33.053123 314.89688 33.053123Q314.31876 33.053123 313.85 33.4125Q313.39688 33.75625 313.19376 34.365623Q312.9125 35.303123 312.9125 36.4125L312.9125 41.85L311.14688 41.85ZM325.27188 38.50625L327.08438 38.740623Q326.6625 40.31875 325.49063 41.209373Q324.33438 42.084373 322.52188 42.084373Q320.25626 42.084373 318.9125 40.69375Q317.58438 39.2875 317.58438 36.75625Q317.58438 34.13125 318.92813 32.69375Q320.27188 31.240623 322.42813 31.240623Q324.50626 31.240623 325.81876 32.6625Q327.14688 34.06875 327.14688 36.646873Q327.14688 36.803123 327.13126 37.115623L319.39688 37.115623Q319.49063 38.81875 320.36563 39.725Q321.24063 40.63125 322.5375 40.63125Q323.50626 40.63125 324.17813 40.13125Q324.86563 39.615623 325.27188 38.50625ZM319.49063 35.6625L325.2875 35.6625Q325.17813 34.365623 324.63126 33.709373Q323.7875 32.69375 322.44376 32.69375Q321.24063 32.69375 320.4125 33.50625Q319.58438 34.303123 319.49063 35.6625ZM336.7875 41.85L335.1625 41.85L335.1625 27.537498L336.9125 27.537498L336.9125 32.646873Q338.0375 31.240623 339.75626 31.240623Q340.70938 31.240623 341.56876 31.631248Q342.42813 32.021873 342.975 32.725Q343.52188 33.4125 343.83438 34.396873Q344.14688 35.38125 344.14688 36.50625Q344.14688 39.178123 342.83438 40.63125Q341.52188 42.084373 339.67813 42.084373Q337.83438 42.084373 336.7875 40.553123L336.7875 41.85ZM336.77188 36.584373Q336.77188 38.44375 337.27188 39.2875Q338.11563 40.63125 339.52188 40.63125Q340.67813 40.63125 341.50626 39.63125Q342.35 38.63125 342.35 36.646873Q342.35 34.615623 341.5375 33.6625Q340.74063 32.69375 339.6 32.69375Q338.44376 32.69375 337.6 33.69375Q336.77188 34.69375 336.77188 36.584373ZM346.08438 45.85L345.89688 44.19375Q346.475 44.35 346.89688 44.35Q347.49063 44.35 347.83438 44.146873Q348.19376 43.959373 348.4125 43.615623Q348.58438 43.35 348.95938 42.303123Q349.00626 42.146873 349.11563 41.865623L345.17813 31.474998L347.06876 31.474998L349.225 37.490623Q349.64688 38.63125 349.975 39.88125Q350.2875 38.678123 350.69376 37.521873L352.9125 31.474998L354.67813 31.474998L350.725 42.021873Q350.1 43.740623 349.74063 44.38125Q349.27188 45.25625 348.6625 45.646873Q348.06876 46.053123 347.225 46.053123Q346.70938 46.053123 346.08438 45.85ZM368.94376 40.56875Q367.95938 41.396873 367.05313 41.740623Q366.14688 42.084373 365.11563 42.084373Q363.4125 42.084373 362.49063 41.25625Q361.56876 40.4125 361.56876 39.115623Q361.56876 38.35 361.9125 37.725Q362.27188 37.1 362.83438 36.725Q363.39688 36.334373 364.1 36.13125Q364.61563 36.00625 365.6625 35.865623Q367.7875 35.615623 368.7875 35.271873Q368.80313 34.9125 368.80313 34.803123Q368.80313 33.740623 368.30313 33.2875Q367.63126 32.69375 366.30313 32.69375Q365.05313 32.69375 364.45938 33.13125Q363.88126 33.56875 363.6 34.678123L361.88126 34.44375Q362.11563 33.334373 362.64688 32.6625Q363.17813 31.974998 364.19376 31.615623Q365.20938 31.240623 366.55313 31.240623Q367.88126 31.240623 368.70938 31.553123Q369.5375 31.865623 369.92813 32.35Q370.31876 32.81875 370.475 33.5375Q370.56876 33.990623 370.56876 35.1625L370.56876 37.50625Q370.56876 39.959373 370.67813 40.615623Q370.7875 41.25625 371.13126 41.85L369.2875 41.85Q369.02188 41.303123 368.94376 40.56875ZM368.7875 36.646873Q367.83438 37.0375 365.9125 37.303123Q364.83438 37.459373 364.38126 37.6625Q363.94376 37.85 363.69376 38.225Q363.44376 38.6 363.44376 39.06875Q363.44376 39.771873 363.975 40.240623Q364.50626 40.709373 365.5375 40.709373Q366.55313 40.709373 367.33438 40.271873Q368.13126 39.81875 368.50626 39.053123Q368.7875 38.44375 368.7875 37.2875L368.7875 36.646873ZM373.13126 41.85L373.13126 27.537498L374.88126 27.537498L374.88126 41.85L373.13126 41.85ZM376.85 42.709373L378.55313 42.959373Q378.6625 43.75625 379.14688 44.115623Q379.80313 44.6 380.94376 44.6Q382.1625 44.6 382.81876 44.115623Q383.49063 43.63125 383.725 42.75625Q383.86563 42.209373 383.85 40.490623Q382.69376 41.85 380.975 41.85Q378.83438 41.85 377.6625 40.303123Q376.49063 38.75625 376.49063 36.6Q376.49063 35.115623 377.02188 33.865623Q377.56876 32.615623 378.58438 31.928123Q379.61563 31.240623 380.99063 31.240623Q382.81876 31.240623 384.02188 32.725L384.02188 31.474998L385.63126 31.474998L385.63126 40.44375Q385.63126 42.865623 385.13126 43.865623Q384.64688 44.88125 383.56876 45.459373Q382.50626 46.053123 380.94376 46.053123Q379.1 46.053123 377.94376 45.225Q376.80313 44.396873 376.85 42.709373ZM378.30313 36.475Q378.30313 38.521873 379.11563 39.459373Q379.92813 40.396873 381.14688 40.396873Q382.35 40.396873 383.1625 39.459373Q383.99063 38.521873 383.99063 36.5375Q383.99063 34.63125 383.14688 33.6625Q382.30313 32.69375 381.11563 32.69375Q379.94376 32.69375 379.11563 33.646873Q378.30313 34.6 378.30313 36.475ZM387.52188 36.6625Q387.52188 33.7875 389.11563 32.396873Q390.45938 31.240623 392.38126 31.240623Q394.52188 31.240623 395.86563 32.646873Q397.225 34.053123 397.225 36.521873Q397.225 38.521873 396.63126 39.678123Q396.0375 40.81875 394.88126 41.459373Q393.74063 42.084373 392.38126 42.084373Q390.19376 42.084373 388.85 40.69375Q387.52188 39.2875 387.52188 36.6625ZM389.31876 36.6625Q389.31876 38.6625 390.17813 39.646873Q391.05313 40.63125 392.38126 40.63125Q393.69376 40.63125 394.55313 39.646873Q395.42813 38.646873 395.42813 36.6Q395.42813 34.678123 394.55313 33.69375Q393.67813 32.69375 392.38126 32.69375Q391.05313 32.69375 390.17813 33.69375Q389.31876 34.678123 389.31876 36.6625ZM399.14688 41.85L399.14688 31.474998L400.725 31.474998L400.725 33.053123Q401.33438 31.943748 401.85 31.599998Q402.36563 31.240623 402.975 31.240623Q403.86563 31.240623 404.7875 31.803123L404.17813 33.44375Q403.5375 33.053123 402.89688 33.053123Q402.31876 33.053123 401.85 33.4125Q401.39688 33.75625 401.19376 34.365623Q400.9125 35.303123 400.9125 36.4125L400.9125 41.85L399.14688 41.85ZM406.17813 29.553123L406.17813 27.537498L407.94376 27.537498L407.94376 29.553123L406.17813 29.553123ZM406.17813 41.85L406.17813 31.474998L407.94376 31.474998L407.94376 41.85L406.17813 41.85ZM414.00626 40.271873L414.25626 41.834373Q413.52188 41.990623 412.92813 41.990623Q411.975 41.990623 411.44376 41.69375Q410.92813 41.38125 410.70938 40.896873Q410.49063 40.396873 410.49063 38.81875L410.49063 32.85L409.20938 32.85L409.20938 31.474998L410.49063 31.474998L410.49063 28.912498L412.24063 27.849998L412.24063 31.474998L414.00626 31.474998L414.00626 32.85L412.24063 32.85L412.24063 38.9125Q412.24063 39.6625 412.33438 39.88125Q412.42813 40.084373 412.63126 40.225Q412.85 40.35 413.24063 40.35Q413.52188 40.35 414.00626 40.271873ZM416.1625 41.85L416.1625 27.537498L417.92813 27.537498L417.92813 32.6625Q419.1625 31.240623 421.0375 31.240623Q422.17813 31.240623 423.02188 31.693748Q423.88126 32.146873 424.24063 32.959373Q424.61563 33.75625 424.61563 35.271873L424.61563 41.85L422.86563 41.85L422.86563 35.271873Q422.86563 33.959373 422.2875 33.365623Q421.70938 32.75625 420.67813 32.75625Q419.89688 32.75625 419.19376 33.1625Q418.50626 33.56875 418.20938 34.271873Q417.92813 34.959373 417.92813 36.178123L417.92813 41.85L416.1625 41.85ZM426.1625 41.85L426.1625 31.474998L427.74063 31.474998L427.74063 32.928123Q428.225 32.178123 429.0375 31.709373Q429.85 31.240623 430.88126 31.240623Q432.0375 31.240623 432.77188 31.724998Q433.50626 32.19375 433.81876 33.053123Q435.05313 31.240623 437.02188 31.240623Q438.56876 31.240623 439.39688 32.1Q440.225 32.959373 440.225 34.725L440.225 41.85L438.475 41.85L438.475 35.31875Q438.475 34.25625 438.30313 33.803123Q438.13126 33.334373 437.67813 33.053123Q437.24063 32.771873 436.63126 32.771873Q435.5375 32.771873 434.80313 33.50625Q434.08438 34.225 434.08438 35.81875L434.08438 41.85L432.33438 41.85L432.33438 35.115623Q432.33438 33.94375 431.89688 33.365623Q431.475 32.771873 430.49063 32.771873Q429.75626 32.771873 429.11563 33.1625Q428.49063 33.553123 428.20938 34.303123Q427.92813 35.053123 427.92813 36.475L427.92813 41.85L426.1625 41.85Z" fill-rule="nonzero"/></svg>