<svg version="1.1" viewBox="0.0 0.0 686.0 283.0" fill="none" stroke="none" stroke-linecap="square" stroke-miterlimit="10" width="686" height="283" xmlns:xlink="http://www.w3.org/1999/xlink" xmlns="http://www.w3.org/2000/svg"><path fill="#ffffff" d="M0 0L686.0 0L686.0 283.0L0 283.0L0 0Z" fill-rule="nonzero"/><path stroke="#cccccc" stroke-width="1.0" stroke-linecap="butt" d="M47.5 248.5L671.5 248.5" fill-rule="nonzero"/><path stroke="#cccccc" stroke-width="1.0" stroke-linecap="butt" d="M47.5 169.5L671.5 169.5" fill-rule="nonzero"/><path stroke="#cccccc" stroke-width="1.0" stroke-linecap="butt" d="M47.5 102.5L671.5 102.5" fill-rule="nonzero"/><path stroke="#cccccc" stroke-width="1.0" stroke-linecap="butt" d="M47.5 44.5L671.5 44.5" fill-rule="nonzero"/><path stroke="#000000" stroke-width="1.0" stroke-linecap="butt" d="M671.5 248.5L47.5 248.5" fill-rule="nonzero"/><path stroke="#000000" stroke-width="1.0" stroke-linecap="butt" d="M47.5 248.5L47.5 44.5" fill-rule="nonzero"/><clipPath id="id_0"><path d="M47.15 44.583332L671.85 44.583332L671.85 248.85L47.15 248.85L47.15 44.583332Z" clip-rule="nonzero"/></clipPath><path stroke="#4285f4" stroke-width="2.0" stroke-linecap="butt" clip-path="url(#id_0)" d="M125.2375 86.16877L281.4125 101.37699L437.5875 91.58263L593.7625 87.965904" fill-rule="nonzero"/><path stroke="#ea4335" stroke-width="2.0" stroke-linecap="butt" clip-path="url(#id_0)" d="M125.2375 131.49443L281.4125 153.26332L437.5875 132.15846L593.7625 231.80441" fill-rule="nonzero"/><path stroke="#fbbc04" stroke-width="2.0" stroke-linecap="butt" clip-path="url(#id_0)" d="M125.2375 74.374115L281.4125 98.90763L437.5875 85.57137L593.7625 142.92326" fill-rule="nonzero"/><path fill="#4285f4" clip-path="url(#id_0)" d="M127.2375 86.16877C127.2375 87.27334 126.34207 88.16877 125.2375 88.16877C124.13293 88.16877 123.2375 87.27334 123.2375 86.16877C123.2375 85.0642 124.13293 84.16877 125.2375 84.16877C126.34207 84.16877 127.2375 85.0642 127.2375 86.16877Z" fill-rule="nonzero"/><path fill="#4285f4" clip-path="url(#id_0)" d="M283.4125 101.37699C283.4125 102.48156 282.51706 103.37699 281.4125 103.37699C280.30792 103.37699 279.4125 102.48156 279.4125 101.37699C279.4125 100.27242 280.30792 99.37699 281.4125 99.37699C282.51706 99.37699 283.4125 100.27242 283.4125 101.37699Z" fill-rule="nonzero"/><path fill="#4285f4" clip-path="url(#id_0)" d="M439.5875 91.58263C439.5875 92.687195 438.69208 93.58263 437.5875 93.58263C436.48294 93.58263 435.5875 92.687195 435.5875 91.58263C435.5875 90.47806 436.48294 89.58263 437.5875 89.58263C438.69208 89.58263 439.5875 90.47806 439.5875 91.58263Z" fill-rule="nonzero"/><path fill="#4285f4" clip-path="url(#id_0)" d="M595.7625 87.965904C595.7625 89.07048 594.86707 89.965904 593.7625 89.965904C592.65796 89.965904 591.7625 89.07048 591.7625 87.965904C591.7625 86.861336 592.65796 85.965904 593.7625 85.965904C594.86707 85.965904 595.7625 86.861336 595.7625 87.965904Z" fill-rule="nonzero"/><path fill="#ea4335" clip-path="url(#id_0)" d="M127.2375 131.49443C127.2375 132.599 126.34207 133.49443 125.2375 133.49443C124.13293 133.49443 123.2375 132.599 123.2375 131.49443C123.2375 130.38986 124.13293 129.49443 125.2375 129.49443C126.34207 129.49443 127.2375 130.38986 127.2375 131.49443Z" fill-rule="nonzero"/><path fill="#ea4335" clip-path="url(#id_0)" d="M283.4125 153.26332C283.4125 154.36789 282.51706 155.26332 281.4125 155.26332C280.30792 155.26332 279.4125 154.36789 279.4125 153.26332C279.4125 152.15875 280.30792 151.26332 281.4125 151.26332C282.51706 151.26332 283.4125 152.15875 283.4125 153.26332Z" fill-rule="nonzero"/><path fill="#ea4335" clip-path="url(#id_0)" d="M439.5875 132.15846C439.5875 133.26303 438.69208 134.15846 437.5875 134.15846C436.48294 134.15846 435.5875 133.26303 435.5875 132.15846C435.5875 131.0539 436.48294 130.15846 437.5875 130.15846C438.69208 130.15846 439.5875 131.0539 439.5875 132.15846Z" fill-rule="nonzero"/><path fill="#ea4335" clip-path="url(#id_0)" d="M595.7625 231.80441C595.7625 232.909 594.86707 233.80441 593.7625 233.80441C592.65796 233.80441 591.7625 232.909 591.7625 231.80441C591.7625 230.69984 592.65796 229.80441 593.7625 229.80441C594.86707 229.80441 595.7625 230.69984 595.7625 231.80441Z" fill-rule="nonzero"/><path fill="#fbbc04" clip-path="url(#id_0)" d="M127.2375 74.374115C127.2375 75.47868 126.34207 76.374115 125.2375 76.374115C124.13293 76.374115 123.2375 75.47868 123.2375 74.374115C123.2375 73.26954 124.13293 72.374115 125.2375 72.374115C126.34207 72.374115 127.2375 73.26954 127.2375 74.374115Z" fill-rule="nonzero"/><path fill="#fbbc04" clip-path="url(#id_0)" d="M283.4125 98.90763C283.4125 100.0122 282.51706 100.90763 281.4125 100.90763C280.30792 100.90763 279.4125 100.0122 279.4125 98.90763C279.4125 97.80306 280.30792 96.90763 281.4125 96.90763C282.51706 96.90763 283.4125 97.80306 283.4125 98.90763Z" fill-rule="nonzero"/><path fill="#fbbc04" clip-path="url(#id_0)" d="M439.5875 85.57137C439.5875 86.67594 438.69208 87.57137 437.5875 87.57137C436.48294 87.57137 435.5875 86.67594 435.5875 85.57137C435.5875 84.466805 436.48294 83.57137 437.5875 83.57137C438.69208 83.57137 439.5875 84.466805 439.5875 85.57137Z" fill-rule="nonzero"/><path fill="#fbbc04" clip-path="url(#id_0)" d="M595.7625 142.92326C595.7625 144.02783 594.86707 144.92326 593.7625 144.92326C592.65796 144.92326 591.7625 144.02783 591.7625 142.92326C591.7625 141.8187 592.65796 140.92326 593.7625 140.92326C594.86707 140.92326 595.7625 141.8187 595.7625 142.92326Z" fill-rule="nonzero"/><path stroke="#000000" stroke-width="1.0" stroke-linecap="butt" d="M41.5 248.5L53.5 248.5" fill-rule="nonzero"/><path stroke="#000000" stroke-width="1.0" stroke-linecap="butt" d="M41.5 169.5L53.5 169.5" fill-rule="nonzero"/><path stroke="#000000" stroke-width="1.0" stroke-linecap="butt" d="M41.5 102.5L53.5 102.5" fill-rule="nonzero"/><path stroke="#000000" stroke-width="1.0" stroke-linecap="butt" d="M41.5 44.5L53.5 44.5" fill-rule="nonzero"/><path fill="#000000" d="M28.65 250.6L29.759375 250.50626Q29.884375 251.31876 30.321875 251.725Q30.775 252.13126 31.415625 252.13126Q32.165627 252.13126 32.696877 251.55313Q33.228127 250.975 33.228127 250.0375Q33.228127 249.13126 32.7125 248.61563Q32.2125 248.08438 31.384375 248.08438Q30.884375 248.08438 30.4625 248.31876Q30.05625 248.55313 29.821875 248.9125L28.8375 248.7875L29.665625 244.38126L33.946877 244.38126L33.946877 245.38126L30.509375 245.38126L30.05625 247.69376Q30.821875 247.14688 31.665625 247.14688Q32.790627 247.14688 33.55625 247.92813Q34.3375 248.70938 34.3375 249.94376Q34.3375 251.1 33.665627 251.95938Q32.8375 252.99063 31.415625 252.99063Q30.24375 252.99063 29.49375 252.33438Q28.759375 251.67813 28.65 250.6Z" fill-rule="nonzero"/><path fill="#000000" d="M34.11875 167.12747L33.071877 167.2056Q32.93125 166.5806 32.68125 166.29935Q32.24375 165.84622 31.61875 165.84622Q31.11875 165.84622 30.728125 166.12747Q30.24375 166.50247 29.946875 167.2056Q29.665625 167.8931 29.65 169.17435Q30.025 168.59622 30.571875 168.31497Q31.134375 168.03372 31.74375 168.03372Q32.790627 168.03372 33.525 168.81497Q34.275 169.59622 34.275 170.81497Q34.275 171.62747 33.915627 172.3306Q33.571877 173.0181 32.9625 173.3931Q32.353127 173.75247 31.5875 173.75247Q30.259375 173.75247 29.43125 172.78372Q28.603125 171.81497 28.603125 169.59622Q28.603125 167.09622 29.525 165.97122Q30.321875 164.98685 31.68125 164.98685Q32.696877 164.98685 33.3375 165.56497Q33.99375 166.12747 34.11875 167.12747ZM29.821875 170.8306Q29.821875 171.37747 30.040625 171.87747Q30.275 172.36185 30.68125 172.62747Q31.103125 172.8931 31.571875 172.8931Q32.228127 172.8931 32.7125 172.36185Q33.196877 171.81497 33.196877 170.8931Q33.196877 170.00247 32.7125 169.48685Q32.24375 168.97122 31.525 168.97122Q30.80625 168.97122 30.30625 169.48685Q29.821875 170.00247 29.821875 170.8306Z" fill-rule="nonzero"/><path fill="#000000" d="M28.7125 99.1482L28.7125 98.132576L34.275 98.132576L34.275 98.9607Q33.4625 99.8357 32.65 101.288826Q31.853125 102.726326 31.415625 104.257576Q31.0875 105.3357 31.009375 106.61695L29.915625 106.61695Q29.93125 105.601326 30.30625 104.163826Q30.696875 102.726326 31.4 101.3982Q32.11875 100.070076 32.93125 99.1482L28.7125 99.1482Z" fill-rule="nonzero"/><path fill="#000000" d="M30.275 43.927082Q29.61875 43.677082 29.290625 43.239582Q28.978125 42.786457 28.978125 42.177082Q28.978125 41.239582 29.65 40.598957Q30.3375 39.958332 31.446875 39.958332Q32.571877 39.958332 33.259377 40.614582Q33.946877 41.270832 33.946877 42.208332Q33.946877 42.802082 33.634377 43.239582Q33.321877 43.677082 32.68125 43.927082Q33.478127 44.177082 33.884377 44.755207Q34.290627 45.333332 34.290627 46.130207Q34.290627 47.223957 33.509377 47.973957Q32.74375 48.723957 31.4625 48.723957Q30.196875 48.723957 29.415625 47.973957Q28.634375 47.223957 28.634375 46.098957Q28.634375 45.255207 29.05625 44.692707Q29.49375 44.130207 30.275 43.927082ZM30.05625 42.130207Q30.05625 42.739582 30.446875 43.130207Q30.853125 43.520832 31.478125 43.520832Q32.0875 43.520832 32.478127 43.145832Q32.86875 42.755207 32.86875 42.192707Q32.86875 41.614582 32.4625 41.223957Q32.05625 40.817707 31.4625 40.817707Q30.853125 40.817707 30.446875 41.208332Q30.05625 41.598957 30.05625 42.130207ZM29.728125 46.098957Q29.728125 46.552082 29.93125 46.973957Q30.15 47.395832 30.571875 47.630207Q30.99375 47.864582 31.478125 47.864582Q32.228127 47.864582 32.7125 47.380207Q33.2125 46.895832 33.2125 46.145832Q33.2125 45.380207 32.7125 44.880207Q32.2125 44.380207 31.446875 44.380207Q30.696875 44.380207 30.2125 44.880207Q29.728125 45.364582 29.728125 46.098957Z" fill-rule="nonzero"/><path fill="#000000" d="M108.8 262.83438L109.925 263.13126Q109.56563 264.52188 108.64375 265.25626Q107.72188 265.99063 106.37813 265.99063Q104.9875 265.99063 104.1125 265.42813Q103.2375 264.86563 102.78438 263.80313Q102.33125 262.725 102.33125 261.49063Q102.33125 260.14688 102.84688 259.14688Q103.3625 258.14688 104.3 257.63126Q105.25313 257.11563 106.39375 257.11563Q107.675 257.11563 108.55 257.77188Q109.44063 258.42813 109.78438 259.61563L108.65938 259.88126Q108.3625 258.94376 107.78438 258.52188Q107.22188 258.08438 106.3625 258.08438Q105.37813 258.08438 104.70625 258.56876Q104.05 259.0375 103.76875 259.83438Q103.50313 260.63126 103.50313 261.49063Q103.50313 262.58438 103.81563 263.39688Q104.14375 264.20938 104.81563 264.61563Q105.4875 265.02188 106.28438 265.02188Q107.2375 265.02188 107.89375 264.475Q108.56563 263.92813 108.8 262.83438ZM111.50313 265.85L111.50313 257.25626L112.56563 257.25626L112.56563 265.85L111.50313 265.85ZM118.59688 265.08438Q118.00313 265.58438 117.45625 265.7875Q116.925 265.99063 116.3 265.99063Q115.26875 265.99063 114.72188 265.49063Q114.175 264.99063 114.175 264.20938Q114.175 263.75626 114.37813 263.38126Q114.58125 262.99063 114.925 262.77188Q115.26875 262.5375 115.69063 262.42813Q115.9875 262.33438 116.62813 262.25626Q117.89375 262.11563 118.50313 261.89688Q118.50313 261.67813 118.50313 261.63126Q118.50313 260.975 118.20625 260.70938Q117.8 260.36563 117.00313 260.36563Q116.26875 260.36563 115.90938 260.63126Q115.55 260.88126 115.37813 261.5375L114.34688 261.39688Q114.4875 260.74063 114.81563 260.33438Q115.14375 259.92813 115.75313 259.70938Q116.3625 259.49063 117.15938 259.49063Q117.95625 259.49063 118.45625 259.67813Q118.95625 259.86563 119.19063 260.14688Q119.425 260.42813 119.51875 260.86563Q119.56563 261.13126 119.56563 261.83438L119.56563 263.24063Q119.56563 264.70938 119.62813 265.1Q119.70625 265.49063 119.90938 265.85L118.8 265.85Q118.64375 265.52188 118.59688 265.08438ZM118.50313 262.725Q117.925 262.95938 116.78438 263.13126Q116.12813 263.225 115.8625 263.35Q115.59688 263.45938 115.44063 263.67813Q115.3 263.89688 115.3 264.17813Q115.3 264.6 115.6125 264.88126Q115.94063 265.1625 116.55 265.1625Q117.15938 265.1625 117.62813 264.89688Q118.1125 264.63126 118.33125 264.1625Q118.50313 263.80313 118.50313 263.11563L118.50313 262.725ZM125.6125 265.85L125.6125 264.92813Q124.87813 265.99063 123.62813 265.99063Q123.08125 265.99063 122.59688 265.7875Q122.12813 265.56876 121.89375 265.25626Q121.65938 264.92813 121.56563 264.45938Q121.50313 264.1625 121.50313 263.475L121.50313 259.63126L122.56563 259.63126L122.56563 263.08438Q122.56563 263.89688 122.62813 264.19376Q122.72188 264.6 123.03438 264.85Q123.3625 265.08438 123.84688 265.08438Q124.31563 265.08438 124.72188 264.85Q125.14375 264.6 125.31563 264.17813Q125.50313 263.75626 125.50313 262.95938L125.50313 259.63126L126.55 259.63126L126.55 265.85L125.6125 265.85ZM132.56563 265.85L132.56563 265.06876Q131.97188 265.99063 130.83125 265.99063Q130.08125 265.99063 129.45625 265.58438Q128.83125 265.1625 128.4875 264.42813Q128.14375 263.69376 128.14375 262.74063Q128.14375 261.81876 128.45625 261.05313Q128.76875 260.2875 129.39375 259.89688Q130.01875 259.49063 130.78438 259.49063Q131.34688 259.49063 131.78438 259.725Q132.22188 259.95938 132.50313 260.33438L132.50313 257.25626L133.55 257.25626L133.55 265.85L132.56563 265.85ZM129.2375 262.74063Q129.2375 263.94376 129.7375 264.5375Q130.2375 265.11563 130.925 265.11563Q131.6125 265.11563 132.09688 264.55313Q132.58125 263.99063 132.58125 262.83438Q132.58125 261.55313 132.08125 260.95938Q131.59688 260.36563 130.87813 260.36563Q130.175 260.36563 129.70625 260.94376Q129.2375 261.50626 129.2375 262.74063ZM139.78438 263.85L140.87813 263.975Q140.62813 264.92813 139.925 265.45938Q139.22188 265.99063 138.14375 265.99063Q136.78438 265.99063 135.97188 265.14688Q135.175 264.30313 135.175 262.7875Q135.175 261.225 135.9875 260.36563Q136.8 259.49063 138.08125 259.49063Q139.33125 259.49063 140.1125 260.33438Q140.90938 261.17813 140.90938 262.725Q140.90938 262.81876 140.90938 263.00626L136.26875 263.00626Q136.33125 264.0375 136.84688 264.58438Q137.3625 265.11563 138.14375 265.11563Q138.72188 265.11563 139.12813 264.81876Q139.55 264.50626 139.78438 263.85ZM136.33125 262.14688L139.8 262.14688Q139.7375 261.35 139.40938 260.95938Q138.89375 260.35 138.09688 260.35Q137.3625 260.35 136.8625 260.83438Q136.37813 261.31876 136.33125 262.14688ZM142.2375 263.58438L143.3 263.44376Q143.47188 264.33438 143.90938 264.74063Q144.34688 265.13126 144.97188 265.13126Q145.72188 265.13126 146.2375 264.61563Q146.75313 264.1 146.75313 263.33438Q146.75313 262.61563 146.26875 262.14688Q145.8 261.6625 145.06563 261.6625Q144.76875 261.6625 144.31563 261.7875L144.44063 260.85Q144.55 260.86563 144.6125 260.86563Q145.28438 260.86563 145.81563 260.52188Q146.3625 260.1625 146.3625 259.42813Q146.3625 258.85 145.97188 258.475Q145.58125 258.08438 144.95625 258.08438Q144.34688 258.08438 143.925 258.475Q143.51875 258.86563 143.40938 259.63126L142.34688 259.44376Q142.53438 258.39688 143.22188 257.81876Q143.90938 257.225 144.925 257.225Q145.62813 257.225 146.22188 257.5375Q146.81563 257.83438 147.12813 258.35Q147.44063 258.86563 147.44063 259.45938Q147.44063 260.00626 147.14375 260.475Q146.84688 260.92813 146.26875 261.19376Q147.01875 261.36563 147.44063 261.92813Q147.8625 262.475 147.8625 263.31876Q147.8625 264.44376 147.03438 265.225Q146.22188 266.00626 144.97188 266.00626Q143.84688 266.00626 143.09688 265.33438Q142.34688 264.64688 142.2375 263.58438Z" fill-rule="nonzero"/><path fill="#000000" d="M266.36563 262.475L266.36563 261.475L269.99063 261.45938L269.99063 264.64688Q269.1625 265.31876 268.27188 265.6625Q267.38126 265.99063 266.44376 265.99063Q265.17813 265.99063 264.13126 265.45938Q263.1 264.9125 262.56876 263.89688Q262.05313 262.86563 262.05313 261.6Q262.05313 260.33438 262.56876 259.25626Q263.1 258.1625 264.08438 257.64688Q265.06876 257.11563 266.35 257.11563Q267.2875 257.11563 268.0375 257.4125Q268.7875 257.70938 269.20938 258.25626Q269.64688 258.7875 269.86563 259.6625L268.85 259.94376Q268.64688 259.2875 268.35 258.9125Q268.06876 258.5375 267.5375 258.31876Q267.00626 258.08438 266.36563 258.08438Q265.58438 258.08438 265.00626 258.31876Q264.44376 258.55313 264.08438 258.94376Q263.74063 259.33438 263.55313 259.80313Q263.225 260.6 263.225 261.52188Q263.225 262.67813 263.61563 263.45938Q264.02188 264.225 264.77188 264.6Q265.52188 264.975 266.38126 264.975Q267.11563 264.975 267.81876 264.69376Q268.52188 264.39688 268.88126 264.08438L268.88126 262.475L266.36563 262.475ZM275.45938 263.85L276.55313 263.975Q276.30313 264.92813 275.6 265.45938Q274.89688 265.99063 273.81876 265.99063Q272.45938 265.99063 271.64688 265.14688Q270.85 264.30313 270.85 262.7875Q270.85 261.225 271.6625 260.36563Q272.475 259.49063 273.75626 259.49063Q275.00626 259.49063 275.7875 260.33438Q276.58438 261.17813 276.58438 262.725Q276.58438 262.81876 276.58438 263.00626L271.94376 263.00626Q272.00626 264.0375 272.52188 264.58438Q273.0375 265.11563 273.81876 265.11563Q274.39688 265.11563 274.80313 264.81876Q275.225 264.50626 275.45938 263.85ZM272.00626 262.14688L275.475 262.14688Q275.4125 261.35 275.08438 260.95938Q274.56876 260.35 273.77188 260.35Q273.0375 260.35 272.5375 260.83438Q272.05313 261.31876 272.00626 262.14688ZM278.20938 265.85L278.20938 259.63126L279.14688 259.63126L279.14688 260.50626Q279.44376 260.0375 279.92813 259.77188Q280.4125 259.49063 281.0375 259.49063Q281.725 259.49063 282.1625 259.77188Q282.61563 260.05313 282.7875 260.56876Q283.5375 259.49063 284.70938 259.49063Q285.64688 259.49063 286.13126 260.00626Q286.63126 260.50626 286.63126 261.58438L286.63126 265.85L285.58438 265.85L285.58438 261.92813Q285.58438 261.30313 285.475 261.02188Q285.38126 260.74063 285.11563 260.56876Q284.85 260.39688 284.475 260.39688Q283.81876 260.39688 283.38126 260.83438Q282.95938 261.27188 282.95938 262.24063L282.95938 265.85L281.89688 265.85L281.89688 261.80313Q281.89688 261.1 281.63126 260.75626Q281.38126 260.39688 280.80313 260.39688Q280.35 260.39688 279.975 260.63126Q279.6 260.86563 279.42813 261.31876Q279.25626 261.77188 279.25626 262.61563L279.25626 265.85L278.20938 265.85ZM289.20938 258.475L289.20938 257.25626L290.27188 257.25626L290.27188 258.475L289.20938 258.475ZM289.20938 265.85L289.20938 259.63126L290.27188 259.63126L290.27188 265.85L289.20938 265.85ZM292.20938 265.85L292.20938 259.63126L293.14688 259.63126L293.14688 260.50626Q293.83438 259.49063 295.13126 259.49063Q295.69376 259.49063 296.1625 259.69376Q296.64688 259.89688 296.88126 260.225Q297.11563 260.55313 297.20938 260.99063Q297.25626 261.2875 297.25626 262.02188L297.25626 265.85L296.20938 265.85L296.20938 262.06876Q296.20938 261.4125 296.08438 261.1Q295.95938 260.7875 295.64688 260.6Q295.33438 260.39688 294.9125 260.39688Q294.24063 260.39688 293.74063 260.83438Q293.25626 261.25626 293.25626 262.44376L293.25626 265.85L292.20938 265.85ZM299.20938 258.475L299.20938 257.25626L300.27188 257.25626L300.27188 258.475L299.20938 258.475ZM299.20938 265.85L299.20938 259.63126L300.27188 259.63126L300.27188 265.85L299.20938 265.85Z" fill-rule="nonzero"/><path fill="#000000" d="M425.04062 262.475L425.04062 261.475L428.66562 261.45938L428.66562 264.64688Q427.8375 265.31876 426.94687 265.6625Q426.05624 265.99063 425.11874 265.99063Q423.85312 265.99063 422.80624 265.45938Q421.775 264.9125 421.24374 263.89688Q420.72812 262.86563 420.72812 261.6Q420.72812 260.33438 421.24374 259.25626Q421.775 258.1625 422.75937 257.64688Q423.74374 257.11563 425.025 257.11563Q425.9625 257.11563 426.7125 257.4125Q427.4625 257.70938 427.88437 258.25626Q428.32187 258.7875 428.54062 259.6625L427.525 259.94376Q427.32187 259.2875 427.025 258.9125Q426.74374 258.5375 426.2125 258.31876Q425.68124 258.08438 425.04062 258.08438Q424.25937 258.08438 423.68124 258.31876Q423.11874 258.55313 422.75937 258.94376Q422.41562 259.33438 422.22812 259.80313Q421.9 260.6 421.9 261.52188Q421.9 262.67813 422.29062 263.45938Q422.69687 264.225 423.44687 264.6Q424.19687 264.975 425.05624 264.975Q425.79062 264.975 426.49374 264.69376Q427.19687 264.39688 427.55624 264.08438L427.55624 262.475L425.04062 262.475ZM430.00937 265.85L430.00937 257.25626L433.25937 257.25626Q434.10312 257.25626 434.55624 257.33438Q435.19687 257.44376 435.61874 257.74063Q436.05624 258.0375 436.30624 258.56876Q436.57187 259.1 436.57187 259.74063Q436.57187 260.83438 435.86874 261.6Q435.18124 262.35 433.35312 262.35L431.15 262.35L431.15 265.85L430.00937 265.85ZM431.15 261.35L433.36874 261.35Q434.47812 261.35 434.93124 260.94376Q435.4 260.52188 435.4 259.77188Q435.4 259.24063 435.11874 258.86563Q434.85312 258.475 434.41562 258.35Q434.11874 258.27188 433.35312 258.27188L431.15 258.27188L431.15 261.35ZM440.19687 265.85L440.19687 258.27188L437.36874 258.27188L437.36874 257.25626L444.18124 257.25626L444.18124 258.27188L441.3375 258.27188L441.3375 265.85L440.19687 265.85ZM444.4625 263.27188L444.4625 262.20938L447.7125 262.20938L447.7125 263.27188L444.4625 263.27188ZM451.9625 265.85L451.9625 263.7875L448.24374 263.7875L448.24374 262.81876L452.16562 257.25626L453.025 257.25626L453.025 262.81876L454.18124 262.81876L454.18124 263.7875L453.025 263.7875L453.025 265.85L451.9625 265.85ZM451.9625 262.81876L451.9625 258.95938L449.275 262.81876L451.9625 262.81876Z" fill-rule="nonzero"/><path fill="#000000" d="M562.6844 265.85L560.40314 257.25626L561.575 257.25626L562.8875 262.89688Q563.09064 263.77188 563.2469 264.64688Q563.575 263.27188 563.6375 263.05313L565.2625 257.25626L566.6375 257.25626L567.8719 261.6Q568.325 263.225 568.54376 264.64688Q568.7 263.83438 568.96564 262.77188L570.3094 257.25626L571.45 257.25626L569.10626 265.85L567.9969 265.85L566.2 259.30313Q565.96564 258.49063 565.91876 258.30313Q565.79376 258.88126 565.66876 259.30313L563.85626 265.85L562.6844 265.85ZM572.0594 265.85L572.0594 257.25626L573.10626 257.25626L573.10626 260.33438Q573.84064 259.49063 574.96564 259.49063Q575.66876 259.49063 576.16876 259.77188Q576.6844 260.0375 576.90314 260.52188Q577.1219 260.99063 577.1219 261.9125L577.1219 265.85L576.075 265.85L576.075 261.9125Q576.075 261.11563 575.73126 260.75626Q575.3875 260.39688 574.7625 260.39688Q574.29376 260.39688 573.8719 260.64688Q573.46564 260.88126 573.27814 261.30313Q573.10626 261.70938 573.10626 262.44376L573.10626 265.85L572.0594 265.85ZM578.66876 262.74063Q578.66876 261.00626 579.6219 260.17813Q580.41876 259.49063 581.575 259.49063Q582.85626 259.49063 583.66876 260.33438Q584.4969 261.1625 584.4969 262.64688Q584.4969 263.85 584.1375 264.5375Q583.77814 265.225 583.075 265.61563Q582.3875 265.99063 581.575 265.99063Q580.27814 265.99063 579.46564 265.1625Q578.66876 264.31876 578.66876 262.74063ZM579.7469 262.74063Q579.7469 263.92813 580.2625 264.52188Q580.79376 265.11563 581.575 265.11563Q582.3719 265.11563 582.8875 264.52188Q583.40314 263.92813 583.40314 262.70938Q583.40314 261.55313 582.8719 260.95938Q582.35626 260.36563 581.575 260.36563Q580.79376 260.36563 580.2625 260.95938Q579.7469 261.5375 579.7469 262.74063ZM586.02814 265.85L586.02814 257.25626L587.09064 257.25626L587.09064 265.85L586.02814 265.85ZM593.3094 263.85L594.40314 263.975Q594.15314 264.92813 593.45 265.45938Q592.7469 265.99063 591.66876 265.99063Q590.3094 265.99063 589.4969 265.14688Q588.7 264.30313 588.7 262.7875Q588.7 261.225 589.5125 260.36563Q590.325 259.49063 591.60626 259.49063Q592.85626 259.49063 593.6375 260.33438Q594.4344 261.17813 594.4344 262.725Q594.4344 262.81876 594.4344 263.00626L589.79376 263.00626Q589.85626 264.0375 590.3719 264.58438Q590.8875 265.11563 591.66876 265.11563Q592.2469 265.11563 592.65314 264.81876Q593.075 264.50626 593.3094 263.85ZM589.85626 262.14688L593.325 262.14688Q593.2625 261.35 592.9344 260.95938Q592.41876 260.35 591.6219 260.35Q590.8875 260.35 590.3875 260.83438Q589.90314 261.31876 589.85626 262.14688ZM599.1844 265.85L599.1844 257.25626L602.4344 257.25626Q603.27814 257.25626 603.73126 257.33438Q604.3719 257.44376 604.79376 257.74063Q605.23126 258.0375 605.48126 258.56876Q605.7469 259.1 605.7469 259.74063Q605.7469 260.83438 605.04376 261.6Q604.35626 262.35 602.52814 262.35L600.325 262.35L600.325 265.85L599.1844 265.85ZM600.325 261.35L602.54376 261.35Q603.65314 261.35 604.10626 260.94376Q604.575 260.52188 604.575 259.77188Q604.575 259.24063 604.29376 258.86563Q604.02814 258.475 603.59064 258.35Q603.29376 258.27188 602.52814 258.27188L600.325 258.27188L600.325 261.35ZM611.1219 265.08438Q610.52814 265.58438 609.98126 265.7875Q609.45 265.99063 608.825 265.99063Q607.79376 265.99063 607.2469 265.49063Q606.7 264.99063 606.7 264.20938Q606.7 263.75626 606.90314 263.38126Q607.10626 262.99063 607.45 262.77188Q607.79376 262.5375 608.21564 262.42813Q608.5125 262.33438 609.15314 262.25626Q610.41876 262.11563 611.02814 261.89688Q611.02814 261.67813 611.02814 261.63126Q611.02814 260.975 610.73126 260.70938Q610.325 260.36563 609.52814 260.36563Q608.79376 260.36563 608.4344 260.63126Q608.075 260.88126 607.90314 261.5375L606.8719 261.39688Q607.0125 260.74063 607.34064 260.33438Q607.66876 259.92813 608.27814 259.70938Q608.8875 259.49063 609.6844 259.49063Q610.48126 259.49063 610.98126 259.67813Q611.48126 259.86563 611.71564 260.14688Q611.95 260.42813 612.04376 260.86563Q612.09064 261.13126 612.09064 261.83438L612.09064 263.24063Q612.09064 264.70938 612.15314 265.1Q612.23126 265.49063 612.4344 265.85L611.325 265.85Q611.16876 265.52188 611.1219 265.08438ZM611.02814 262.725Q610.45 262.95938 609.3094 263.13126Q608.65314 263.225 608.3875 263.35Q608.1219 263.45938 607.96564 263.67813Q607.825 263.89688 607.825 264.17813Q607.825 264.6 608.1375 264.88126Q608.46564 265.1625 609.075 265.1625Q609.6844 265.1625 610.15314 264.89688Q610.6375 264.63126 610.85626 264.1625Q611.02814 263.80313 611.02814 263.11563L611.02814 262.725ZM613.85626 266.36563L614.8875 266.52188Q614.95 266.99063 615.2469 267.20938Q615.6375 267.50626 616.3094 267.50626Q617.04376 267.50626 617.4344 267.20938Q617.84064 266.9125 617.98126 266.39688Q618.075 266.06876 618.0594 265.0375Q617.3719 265.85 616.34064 265.85Q615.0594 265.85 614.35626 264.92813Q613.65314 263.99063 613.65314 262.70938Q613.65314 261.81876 613.96564 261.06876Q614.29376 260.30313 614.90314 259.89688Q615.5125 259.49063 616.34064 259.49063Q617.45 259.49063 618.16876 260.38126L618.16876 259.63126L619.1375 259.63126L619.1375 265.00626Q619.1375 266.45938 618.84064 267.06876Q618.54376 267.67813 617.90314 268.02188Q617.2625 268.38126 616.325 268.38126Q615.21564 268.38126 614.52814 267.88126Q613.84064 267.38126 613.85626 266.36563ZM614.73126 262.63126Q614.73126 263.85 615.21564 264.4125Q615.7 264.975 616.4344 264.975Q617.16876 264.975 617.65314 264.4125Q618.15314 263.85 618.15314 262.6625Q618.15314 261.52188 617.6375 260.94376Q617.1375 260.36563 616.41876 260.36563Q615.71564 260.36563 615.21564 260.94376Q614.73126 261.50626 614.73126 262.63126ZM625.3094 263.85L626.40314 263.975Q626.15314 264.92813 625.45 265.45938Q624.7469 265.99063 623.66876 265.99063Q622.3094 265.99063 621.4969 265.14688Q620.7 264.30313 620.7 262.7875Q620.7 261.225 621.5125 260.36563Q622.325 259.49063 623.60626 259.49063Q624.85626 259.49063 625.6375 260.33438Q626.4344 261.17813 626.4344 262.725Q626.4344 262.81876 626.4344 263.00626L621.79376 263.00626Q621.85626 264.0375 622.3719 264.58438Q622.8875 265.11563 623.66876 265.11563Q624.2469 265.11563 624.65314 264.81876Q625.075 264.50626 625.3094 263.85ZM621.85626 262.14688L625.325 262.14688Q625.2625 261.35 624.9344 260.95938Q624.41876 260.35 623.6219 260.35Q622.8875 260.35 622.3875 260.83438Q621.90314 261.31876 621.85626 262.14688Z" fill-rule="nonzero"/><path fill="#4285f4" d="M215.0 21.15C215.0 24.463709 212.3137 27.15 209.0 27.15C205.6863 27.15 203.0 24.463709 203.0 21.15C203.0 17.836292 205.6863 15.15 209.0 15.15C212.3137 15.15 215.0 17.836292 215.0 21.15Z" fill-rule="nonzero"/><path fill="#1a1a1a" d="M223.92188 25.15L223.92188 16.55625L226.89062 16.55625Q227.89062 16.55625 228.42188 16.68125Q229.15625 16.853125 229.67188 17.290625Q230.35938 17.86875 230.6875 18.775Q231.03125 19.665625 231.03125 20.80625Q231.03125 21.790625 230.79688 22.540625Q230.57812 23.290625 230.21875 23.790625Q229.85938 24.290625 229.42188 24.571875Q229.0 24.853125 228.40625 25.009375Q227.8125 25.15 227.03125 25.15L223.92188 25.15ZM225.0625 24.134375L226.89062 24.134375Q227.75 24.134375 228.23438 23.978125Q228.71875 23.821875 229.0 23.525Q229.40625 23.134375 229.625 22.446875Q229.85938 21.759375 229.85938 20.790625Q229.85938 19.446875 229.40625 18.728125Q228.96875 17.99375 228.34375 17.74375Q227.875 17.571875 226.875 17.571875L225.0625 17.571875L225.0625 24.134375ZM231.98438 25.15L235.28125 16.55625L236.5 16.55625L240.01562 25.15L238.73438 25.15L237.71875 22.540625L234.14062 22.540625L233.1875 25.15L231.98438 25.15ZM234.46875 21.61875L237.375 21.61875L236.48438 19.24375Q236.0625 18.165625 235.875 17.4625Q235.70312 18.290625 235.40625 19.103125L234.46875 21.61875ZM239.875 25.15L239.875 16.55625L241.01562 16.55625L241.01562 24.134375L245.25 24.134375L245.25 25.15L239.875 25.15ZM246.875 25.15L246.875 16.55625L248.01562 16.55625L248.01562 24.134375L252.25 24.134375L252.25 25.15L246.875 25.15ZM253.375 22.571875L253.375 21.509375L256.625 21.509375L256.625 22.571875L253.375 22.571875ZM257.95312 25.15L257.95312 16.55625L264.15625 16.55625L264.15625 17.571875L259.09375 17.571875L259.09375 20.196875L263.84375 20.196875L263.84375 21.2125L259.09375 21.2125L259.09375 24.134375L264.35938 24.134375L264.35938 25.15L257.95312 25.15Z" fill-rule="nonzero"/><path fill="#ea4335" d="M293.0 21.15C293.0 24.463709 290.31372 27.15 287.0 27.15C283.68628 27.15 281.0 24.463709 281.0 21.15C281.0 17.836292 283.68628 15.15 287.0 15.15C290.31372 15.15 293.0 17.836292 293.0 21.15Z" fill-rule="nonzero"/><path fill="#1a1a1a" d="M301.54688 22.384375L302.60938 22.290625Q302.6875 22.946875 302.96875 23.353125Q303.25 23.759375 303.82812 24.025Q304.42188 24.275 305.15625 24.275Q305.79688 24.275 306.29688 24.0875Q306.79688 23.884375 307.03125 23.55625Q307.28125 23.2125 307.28125 22.821875Q307.28125 22.415625 307.04688 22.11875Q306.8125 21.80625 306.28125 21.603125Q305.92188 21.4625 304.73438 21.18125Q303.5625 20.9 303.09375 20.65Q302.46875 20.321875 302.17188 19.853125Q301.875 19.36875 301.875 18.775Q301.875 18.134375 302.23438 17.571875Q302.60938 16.99375 303.3125 16.7125Q304.03125 16.415625 304.89062 16.415625Q305.84375 16.415625 306.57812 16.728125Q307.3125 17.025 307.70312 17.634375Q308.09375 18.228125 308.125 18.978125L307.03125 19.05625Q306.9375 18.24375 306.42188 17.8375Q305.92188 17.415625 304.9375 17.415625Q303.90625 17.415625 303.4375 17.790625Q302.96875 18.165625 302.96875 18.696875Q302.96875 19.165625 303.29688 19.4625Q303.625 19.759375 305.0 20.071875Q306.39062 20.384375 306.90625 20.61875Q307.65625 20.978125 308.01562 21.509375Q308.375 22.025 308.375 22.728125Q308.375 23.415625 307.98438 24.025Q307.59375 24.61875 306.85938 24.9625Q306.125 25.290625 305.20312 25.290625Q304.03125 25.290625 303.23438 24.9625Q302.45312 24.61875 302.0 23.93125Q301.5625 23.24375 301.54688 22.384375ZM312.09375 24.2125L312.25 25.134375Q311.79688 25.228125 311.45312 25.228125Q310.875 25.228125 310.5625 25.05625Q310.25 24.86875 310.10938 24.571875Q309.98438 24.275 309.98438 23.321875L309.98438 19.74375L309.21875 19.74375L309.21875 18.93125L309.98438 18.93125L309.98438 17.384375L311.03125 16.759375L311.03125 18.93125L312.09375 18.93125L312.09375 19.74375L311.03125 19.74375L311.03125 23.384375Q311.03125 23.8375 311.07812 23.9625Q311.14062 24.0875 311.26562 24.165625Q311.39062 24.24375 311.625 24.24375Q311.8125 24.24375 312.09375 24.2125ZM316.85938 24.384375Q316.26562 24.884375 315.71875 25.0875Q315.1875 25.290625 314.5625 25.290625Q313.53125 25.290625 312.98438 24.790625Q312.4375 24.290625 312.4375 23.509375Q312.4375 23.05625 312.64062 22.68125Q312.84375 22.290625 313.1875 22.071875Q313.53125 21.8375 313.95312 21.728125Q314.25 21.634375 314.89062 21.55625Q316.15625 21.415625 316.76562 21.196875Q316.76562 20.978125 316.76562 20.93125Q316.76562 20.275 316.46875 20.009375Q316.0625 19.665625 315.26562 19.665625Q314.53125 19.665625 314.17188 19.93125Q313.8125 20.18125 313.64062 20.8375L312.60938 20.696875Q312.75 20.040625 313.07812 19.634375Q313.40625 19.228125 314.01562 19.009375Q314.625 18.790625 315.42188 18.790625Q316.21875 18.790625 316.71875 18.978125Q317.21875 19.165625 317.45312 19.446875Q317.6875 19.728125 317.78125 20.165625Q317.82812 20.43125 317.82812 21.134375L317.82812 22.540625Q317.82812 24.009375 317.89062 24.4Q317.96875 24.790625 318.17188 25.15L317.0625 25.15Q316.90625 24.821875 316.85938 24.384375ZM316.76562 22.025Q316.1875 22.259375 315.04688 22.43125Q314.39062 22.525 314.125 22.65Q313.85938 22.759375 313.70312 22.978125Q313.5625 23.196875 313.5625 23.478125Q313.5625 23.9 313.875 24.18125Q314.20312 24.4625 314.8125 24.4625Q315.42188 24.4625 315.89062 24.196875Q316.375 23.93125 316.59375 23.4625Q316.76562 23.103125 316.76562 22.415625L316.76562 22.025ZM320.76562 25.15L319.78125 25.15L319.78125 16.55625L320.84375 16.55625L320.84375 19.61875Q321.51562 18.790625 322.54688 18.790625Q323.125 18.790625 323.625 19.025Q324.14062 19.24375 324.46875 19.665625Q324.8125 20.0875 325.0 20.68125Q325.1875 21.275 325.1875 21.946875Q325.1875 23.540625 324.39062 24.415625Q323.59375 25.290625 322.5 25.290625Q321.39062 25.290625 320.76562 24.36875L320.76562 25.15ZM320.75 21.99375Q320.75 23.103125 321.0625 23.603125Q321.5625 24.415625 322.40625 24.415625Q323.09375 24.415625 323.59375 23.821875Q324.10938 23.228125 324.10938 22.025Q324.10938 20.80625 323.625 20.228125Q323.14062 19.65 322.45312 19.65Q321.76562 19.65 321.25 20.259375Q320.75 20.853125 320.75 21.99375ZM326.76562 25.15L326.76562 16.55625L327.82812 16.55625L327.82812 25.15L326.76562 25.15ZM334.04688 23.15L335.14062 23.275Q334.89062 24.228125 334.1875 24.759375Q333.48438 25.290625 332.40625 25.290625Q331.04688 25.290625 330.23438 24.446875Q329.4375 23.603125 329.4375 22.0875Q329.4375 20.525 330.25 19.665625Q331.0625 18.790625 332.34375 18.790625Q333.59375 18.790625 334.375 19.634375Q335.17188 20.478125 335.17188 22.025Q335.17188 22.11875 335.17188 22.30625L330.53125 22.30625Q330.59375 23.3375 331.10938 23.884375Q331.625 24.415625 332.40625 24.415625Q332.98438 24.415625 333.39062 24.11875Q333.8125 23.80625 334.04688 23.15ZM330.59375 21.446875L334.0625 21.446875Q334.0 20.65 333.67188 20.259375Q333.15625 19.65 332.35938 19.65Q331.625 19.65 331.125 20.134375Q330.64062 20.61875 330.59375 21.446875ZM336.92188 25.15L336.92188 16.55625L339.89062 16.55625Q340.89062 16.55625 341.42188 16.68125Q342.15625 16.853125 342.67188 17.290625Q343.35938 17.86875 343.6875 18.775Q344.03125 19.665625 344.03125 20.80625Q344.03125 21.790625 343.79688 22.540625Q343.57812 23.290625 343.21875 23.790625Q342.85938 24.290625 342.42188 24.571875Q342.0 24.853125 341.40625 25.009375Q340.8125 25.15 340.03125 25.15L336.92188 25.15ZM338.0625 24.134375L339.89062 24.134375Q340.75 24.134375 341.23438 23.978125Q341.71875 23.821875 342.0 23.525Q342.40625 23.134375 342.625 22.446875Q342.85938 21.759375 342.85938 20.790625Q342.85938 19.446875 342.40625 18.728125Q341.96875 17.99375 341.34375 17.74375Q340.875 17.571875 339.875 17.571875L338.0625 17.571875L338.0625 24.134375ZM345.79688 17.775L345.79688 16.55625L346.85938 16.55625L346.85938 17.775L345.79688 17.775ZM345.79688 25.15L345.79688 18.93125L346.85938 18.93125L346.85938 25.15L345.79688 25.15ZM349.04688 25.15L349.04688 19.74375L348.10938 19.74375L348.10938 18.93125L349.04688 18.93125L349.04688 18.259375Q349.04688 17.634375 349.15625 17.3375Q349.3125 16.915625 349.6875 16.665625Q350.07812 16.415625 350.76562 16.415625Q351.21875 16.415625 351.75 16.525L351.59375 17.43125Q351.26562 17.384375 350.96875 17.384375Q350.48438 17.384375 350.28125 17.5875Q350.09375 17.790625 350.09375 18.353125L350.09375 18.93125L351.3125 18.93125L351.3125 19.74375L350.09375 19.74375L350.09375 25.15L349.04688 25.15ZM352.04688 25.15L352.04688 19.74375L351.10938 19.74375L351.10938 18.93125L352.04688 18.93125L352.04688 18.259375Q352.04688 17.634375 352.15625 17.3375Q352.3125 16.915625 352.6875 16.665625Q353.07812 16.415625 353.76562 16.415625Q354.21875 16.415625 354.75 16.525L354.59375 17.43125Q354.26562 17.384375 353.96875 17.384375Q353.48438 17.384375 353.28125 17.5875Q353.09375 17.790625 353.09375 18.353125L353.09375 18.93125L354.3125 18.93125L354.3125 19.74375L353.09375 19.74375L353.09375 25.15L352.04688 25.15ZM358.875 25.15L358.875 24.228125Q358.14062 25.290625 356.89062 25.290625Q356.34375 25.290625 355.85938 25.0875Q355.39062 24.86875 355.15625 24.55625Q354.92188 24.228125 354.82812 23.759375Q354.76562 23.4625 354.76562 22.775L354.76562 18.93125L355.82812 18.93125L355.82812 22.384375Q355.82812 23.196875 355.89062 23.49375Q355.98438 23.9 356.29688 24.15Q356.625 24.384375 357.10938 24.384375Q357.57812 24.384375 357.98438 24.15Q358.40625 23.9 358.57812 23.478125Q358.76562 23.05625 358.76562 22.259375L358.76562 18.93125L359.8125 18.93125L359.8125 25.15L358.875 25.15ZM361.375 23.290625L362.40625 23.134375Q362.5 23.759375 362.89062 24.0875Q363.29688 24.415625 364.03125 24.415625Q364.75 24.415625 365.09375 24.134375Q365.45312 23.8375 365.45312 23.43125Q365.45312 23.071875 365.14062 22.86875Q364.92188 22.728125 364.0625 22.509375Q362.90625 22.2125 362.45312 22.009375Q362.01562 21.790625 361.78125 21.415625Q361.54688 21.040625 361.54688 20.571875Q361.54688 20.165625 361.73438 19.80625Q361.92188 19.446875 362.25 19.2125Q362.5 19.040625 362.92188 18.915625Q363.34375 18.790625 363.84375 18.790625Q364.5625 18.790625 365.10938 19.009375Q365.67188 19.2125 365.9375 19.571875Q366.20312 19.93125 366.29688 20.525L365.26562 20.665625Q365.20312 20.196875 364.85938 19.93125Q364.53125 19.65 363.90625 19.65Q363.1875 19.65 362.875 19.9Q362.5625 20.134375 362.5625 20.4625Q362.5625 20.665625 362.6875 20.821875Q362.82812 20.99375 363.09375 21.103125Q363.25 21.165625 364.03125 21.36875Q365.15625 21.68125 365.59375 21.86875Q366.03125 22.05625 366.28125 22.415625Q366.53125 22.775 366.53125 23.321875Q366.53125 23.853125 366.21875 24.321875Q365.92188 24.775 365.34375 25.040625Q364.76562 25.290625 364.03125 25.290625Q362.8125 25.290625 362.17188 24.790625Q361.54688 24.275 361.375 23.290625ZM368.79688 17.775L368.79688 16.55625L369.85938 16.55625L369.85938 17.775L368.79688 17.775ZM368.79688 25.15L368.79688 18.93125L369.85938 18.93125L369.85938 25.15L368.79688 25.15ZM371.40625 22.040625Q371.40625 20.30625 372.35938 19.478125Q373.15625 18.790625 374.3125 18.790625Q375.59375 18.790625 376.40625 19.634375Q377.23438 20.4625 377.23438 21.946875Q377.23438 23.15 376.875 23.8375Q376.51562 24.525 375.8125 24.915625Q375.125 25.290625 374.3125 25.290625Q373.01562 25.290625 372.20312 24.4625Q371.40625 23.61875 371.40625 22.040625ZM372.48438 22.040625Q372.48438 23.228125 373.0 23.821875Q373.53125 24.415625 374.3125 24.415625Q375.10938 24.415625 375.625 23.821875Q376.14062 23.228125 376.14062 22.009375Q376.14062 20.853125 375.60938 20.259375Q375.09375 19.665625 374.3125 19.665625Q373.53125 19.665625 373.0 20.259375Q372.48438 20.8375 372.48438 22.040625ZM378.79688 25.15L378.79688 18.93125L379.73438 18.93125L379.73438 19.80625Q380.42188 18.790625 381.71875 18.790625Q382.28125 18.790625 382.75 18.99375Q383.23438 19.196875 383.46875 19.525Q383.70312 19.853125 383.79688 20.290625Q383.84375 20.5875 383.84375 21.321875L383.84375 25.15L382.79688 25.15L382.79688 21.36875Q382.79688 20.7125 382.67188 20.4Q382.54688 20.0875 382.23438 19.9Q381.92188 19.696875 381.5 19.696875Q380.82812 19.696875 380.32812 20.134375Q379.84375 20.55625 379.84375 21.74375L379.84375 25.15L378.79688 25.15Z" fill-rule="nonzero"/><path fill="#fbbc04" d="M413.0 21.15C413.0 24.463709 410.31372 27.15 407.0 27.15C403.68628 27.15 401.0 24.463709 401.0 21.15C401.0 17.836292 403.68628 15.15 407.0 15.15C410.31372 15.15 413.0 17.836292 413.0 21.15Z" fill-rule="nonzero"/><path fill="#1a1a1a" d="M421.89062 25.15L421.89062 16.55625L423.60938 16.55625L425.64062 22.634375Q425.92188 23.49375 426.04688 23.915625Q426.1875 23.446875 426.5 22.540625L428.5625 16.55625L430.09375 16.55625L430.09375 25.15L429.0 25.15L429.0 17.9625L426.5 25.15L425.46875 25.15L422.98438 17.8375L422.98438 25.15L421.89062 25.15ZM430.79688 17.775L430.79688 16.55625L431.85938 16.55625L431.85938 17.775L430.79688 17.775ZM430.79688 25.15L430.79688 18.93125L431.85938 18.93125L431.85938 25.15L430.79688 25.15ZM437.82812 25.15L437.82812 24.36875Q437.23438 25.290625 436.09375 25.290625Q435.34375 25.290625 434.71875 24.884375Q434.09375 24.4625 433.75 23.728125Q433.40625 22.99375 433.40625 22.040625Q433.40625 21.11875 433.71875 20.353125Q434.03125 19.5875 434.65625 19.196875Q435.28125 18.790625 436.04688 18.790625Q436.60938 18.790625 437.04688 19.025Q437.48438 19.259375 437.76562 19.634375L437.76562 16.55625L438.8125 16.55625L438.8125 25.15L437.82812 25.15ZM434.5 22.040625Q434.5 23.24375 435.0 23.8375Q435.5 24.415625 436.1875 24.415625Q436.875 24.415625 437.35938 23.853125Q437.84375 23.290625 437.84375 22.134375Q437.84375 20.853125 437.34375 20.259375Q436.85938 19.665625 436.14062 19.665625Q435.4375 19.665625 434.96875 20.24375Q434.5 20.80625 434.5 22.040625ZM440.34375 22.7125L441.375 22.571875Q441.40625 23.55625 441.73438 23.915625Q442.0625 24.275 442.65625 24.275Q443.07812 24.275 443.39062 24.0875Q443.70312 23.884375 443.8125 23.55625Q443.9375 23.2125 443.9375 22.478125L443.9375 16.55625L445.0625 16.55625L445.0625 22.415625Q445.0625 23.49375 444.79688 24.0875Q444.54688 24.68125 443.98438 24.99375Q443.42188 25.290625 442.65625 25.290625Q441.53125 25.290625 440.92188 24.65Q440.32812 23.99375 440.34375 22.7125ZM446.40625 22.040625Q446.40625 20.30625 447.35938 19.478125Q448.15625 18.790625 449.3125 18.790625Q450.59375 18.790625 451.40625 19.634375Q452.23438 20.4625 452.23438 21.946875Q452.23438 23.15 451.875 23.8375Q451.51562 24.525 450.8125 24.915625Q450.125 25.290625 449.3125 25.290625Q448.01562 25.290625 447.20312 24.4625Q446.40625 23.61875 446.40625 22.040625ZM447.48438 22.040625Q447.48438 23.228125 448.0 23.821875Q448.53125 24.415625 449.3125 24.415625Q450.10938 24.415625 450.625 23.821875Q451.14062 23.228125 451.14062 22.009375Q451.14062 20.853125 450.60938 20.259375Q450.09375 19.665625 449.3125 19.665625Q448.53125 19.665625 448.0 20.259375Q447.48438 20.8375 447.48438 22.040625ZM457.875 25.15L457.875 24.228125Q457.14062 25.290625 455.89062 25.290625Q455.34375 25.290625 454.85938 25.0875Q454.39062 24.86875 454.15625 24.55625Q453.92188 24.228125 453.82812 23.759375Q453.76562 23.4625 453.76562 22.775L453.76562 18.93125L454.82812 18.93125L454.82812 22.384375Q454.82812 23.196875 454.89062 23.49375Q454.98438 23.9 455.29688 24.15Q455.625 24.384375 456.10938 24.384375Q456.57812 24.384375 456.98438 24.15Q457.40625 23.9 457.57812 23.478125Q457.76562 23.05625 457.76562 22.259375L457.76562 18.93125L458.8125 18.93125L458.8125 25.15L457.875 25.15ZM460.78125 25.15L460.78125 18.93125L461.73438 18.93125L461.73438 19.86875Q462.09375 19.2125 462.39062 19.009375Q462.70312 18.790625 463.07812 18.790625Q463.60938 18.790625 464.15625 19.11875L463.79688 20.103125Q463.40625 19.86875 463.03125 19.86875Q462.67188 19.86875 462.39062 20.0875Q462.125 20.290625 462.01562 20.665625Q461.82812 21.228125 461.82812 21.884375L461.82812 25.15L460.78125 25.15ZM464.79688 25.15L464.79688 18.93125L465.73438 18.93125L465.73438 19.80625Q466.42188 18.790625 467.71875 18.790625Q468.28125 18.790625 468.75 18.99375Q469.23438 19.196875 469.46875 19.525Q469.70312 19.853125 469.79688 20.290625Q469.84375 20.5875 469.84375 21.321875L469.84375 25.15L468.79688 25.15L468.79688 21.36875Q468.79688 20.7125 468.67188 20.4Q468.54688 20.0875 468.23438 19.9Q467.92188 19.696875 467.5 19.696875Q466.82812 19.696875 466.32812 20.134375Q465.84375 20.55625 465.84375 21.74375L465.84375 25.15L464.79688 25.15ZM476.04688 23.15L477.14062 23.275Q476.89062 24.228125 476.1875 24.759375Q475.48438 25.290625 474.40625 25.290625Q473.04688 25.290625 472.23438 24.446875Q471.4375 23.603125 471.4375 22.0875Q471.4375 20.525 472.25 19.665625Q473.0625 18.790625 474.34375 18.790625Q475.59375 18.790625 476.375 19.634375Q477.17188 20.478125 477.17188 22.025Q477.17188 22.11875 477.17188 22.30625L472.53125 22.30625Q472.59375 23.3375 473.10938 23.884375Q473.625 24.415625 474.40625 24.415625Q474.98438 24.415625 475.39062 24.11875Q475.8125 23.80625 476.04688 23.15ZM472.59375 21.446875L476.0625 21.446875Q476.0 20.65 475.67188 20.259375Q475.15625 19.65 474.35938 19.65Q473.625 19.65 473.125 20.134375Q472.64062 20.61875 472.59375 21.446875ZM478.75 27.540625L478.625 26.55625Q478.96875 26.65 479.23438 26.65Q479.57812 26.65 479.78125 26.525Q480.0 26.415625 480.14062 26.2125Q480.23438 26.040625 480.46875 25.415625Q480.48438 25.3375 480.5625 25.165625L478.1875 18.93125L479.32812 18.93125L480.625 22.525Q480.875 23.2125 481.07812 23.978125Q481.26562 23.24375 481.51562 22.55625L482.84375 18.93125L483.89062 18.93125L481.53125 25.259375Q481.14062 26.275 480.9375 26.665625Q480.65625 27.196875 480.28125 27.43125Q479.92188 27.68125 479.42188 27.68125Q479.125 27.68125 478.75 27.540625Z" fill-rule="nonzero"/></svg>