<svg version="1.1" viewBox="0.0 0.0 733.0 457.0" fill="none" stroke="none" stroke-linecap="square" stroke-miterlimit="10" width="733" height="457" xmlns:xlink="http://www.w3.org/1999/xlink" xmlns="http://www.w3.org/2000/svg"><path fill="#ffffff" d="M0 0L733.0 0L733.0 457.0L0 457.0L0 0Z" fill-rule="nonzero"/><path fill="#4285f4" d="M366.5 62.083332C416.49194 62.083332 464.38013 82.203804 499.37015 117.90943C534.36017 153.61505 553.50714 201.90071 552.49524 251.8824L366.5 248.11667Z" fill-rule="nonzero"/><path fill="#ea4335" d="M552.49524 251.8824C550.46594 352.1099 469.3842 432.70517 369.14627 434.13116L366.5 248.11667Z" fill-rule="nonzero"/><path fill="#34a853" d="M180.48407 250.66118C179.80319 200.8857 199.09969 152.91373 234.058 117.47395C269.01633 82.03417 316.71988 62.083332 366.5 62.083332L366.5 248.11667Z" fill-rule="nonzero"/><path fill="#fbbc04" d="M369.14627 434.13116C319.79453 434.83325 272.18658 415.8947 236.8026 381.48453C201.4186 347.07434 181.15915 300.0133 180.48407 250.66118L366.5 248.11667Z" fill-rule="nonzero"/><path fill="#000000" d="M456.0678 143.56448L456.0678 142.37698L462.5678 142.37698L462.5678 143.33011Q461.59906 144.34573 460.66156 146.03323Q459.72406 147.72073 459.20844 149.51761Q458.84906 150.76761 458.7397 152.26761L457.47406 152.26761Q457.4897 151.08011 457.9272 149.40823Q458.3803 147.73636 459.20844 146.18948Q460.0522 144.62698 460.9897 143.56448L456.0678 143.56448ZM464.6772 152.26761L464.6772 150.86136L466.08344 150.86136L466.08344 152.26761L464.6772 152.26761ZM474.45844 151.08011L474.45844 152.26761L467.83344 152.26761Q467.8178 151.83011 467.97406 151.40823Q468.2397 150.73636 468.78656 150.08011Q469.34906 149.42386 470.39594 148.56448Q472.03656 147.22073 472.59906 146.43948Q473.1772 145.65823 473.1772 144.95511Q473.1772 144.22073 472.64594 143.72073Q472.1303 143.22073 471.3022 143.22073Q470.41156 143.22073 469.8647 143.75198Q469.33344 144.28323 469.33344 145.23636L468.0678 145.09573Q468.1928 143.68948 469.03656 142.95511Q469.89594 142.20511 471.3178 142.20511Q472.77094 142.20511 473.59906 143.00198Q474.4428 143.79886 474.4428 144.98636Q474.4428 145.59573 474.1928 146.17386Q473.95844 146.75198 473.3803 147.39261Q472.8178 148.03323 471.4897 149.15823Q470.3803 150.08011 470.0678 150.42386Q469.7553 150.75198 469.5522 151.08011L474.45844 151.08011ZM476.0678 143.56448L476.0678 142.37698L482.5678 142.37698L482.5678 143.33011Q481.59906 144.34573 480.66156 146.03323Q479.72406 147.72073 479.20844 149.51761Q478.84906 150.76761 478.7397 152.26761L477.47406 152.26761Q477.4897 151.08011 477.9272 149.40823Q478.3803 147.73636 479.20844 146.18948Q480.0522 144.62698 480.9897 143.56448L476.0678 143.56448Z" fill-rule="nonzero"/><path fill="#000000" d="M454.7641 346.63474L454.7641 345.44724L461.2641 345.44724L461.2641 346.40036Q460.29535 347.416 459.35785 349.1035Q458.42035 350.791 457.90472 352.58786Q457.54535 353.83786 457.43597 355.33786L456.17035 355.33786Q456.18597 354.15036 456.62347 352.4785Q457.0766 350.8066 457.90472 349.25974Q458.74847 347.69724 459.68597 346.63474L454.7641 346.63474ZM463.37347 355.33786L463.37347 353.9316L464.77972 353.9316L464.77972 355.33786L463.37347 355.33786ZM466.68597 350.40036Q466.68597 348.6191 467.04535 347.541Q467.42035 346.44724 468.1391 345.8691Q468.85785 345.27536 469.9516 345.27536Q470.7641 345.27536 471.37347 345.6035Q471.98285 345.9316 472.37347 346.541Q472.77972 347.15036 472.99847 348.02536Q473.21722 348.90036 473.21722 350.40036Q473.21722 352.166 472.85785 353.2441Q472.49847 354.32224 471.77972 354.916Q471.06097 355.50974 469.9516 355.50974Q468.5141 355.50974 467.68597 354.46286Q466.68597 353.21286 466.68597 350.40036ZM467.9516 350.40036Q467.9516 352.8691 468.52972 353.6816Q469.10785 354.4941 469.9516 354.4941Q470.81097 354.4941 471.3891 353.6816Q471.96722 352.8535 471.96722 350.40036Q471.96722 347.916 471.3891 347.1035Q470.81097 346.291 469.93597 346.291Q469.09222 346.291 468.59222 347.00974Q467.9516 347.9316 467.9516 350.40036ZM481.15472 354.15036L481.15472 355.33786L474.52972 355.33786Q474.5141 354.90036 474.67035 354.4785Q474.93597 353.8066 475.48285 353.15036Q476.04535 352.4941 477.09222 351.63474Q478.73285 350.291 479.29535 349.50974Q479.87347 348.7285 479.87347 348.02536Q479.87347 347.291 479.34222 346.791Q478.8266 346.291 477.99847 346.291Q477.10785 346.291 476.56097 346.82224Q476.02972 347.3535 476.02972 348.3066L474.7641 348.166Q474.8891 346.75974 475.73285 346.02536Q476.59222 345.27536 478.0141 345.27536Q479.46722 345.27536 480.29535 346.07224Q481.1391 346.8691 481.1391 348.0566Q481.1391 348.666 480.8891 349.2441Q480.65472 349.82224 480.0766 350.46286Q479.5141 351.1035 478.18597 352.2285Q477.0766 353.15036 476.7641 353.4941Q476.4516 353.82224 476.24847 354.15036L481.15472 354.15036Z" fill-rule="nonzero"/><path fill="#000000" d="M252.64584 347.7684L252.64584 346.5809L259.14584 346.5809L259.14584 347.53403Q258.1771 348.54965 257.2396 350.23715Q256.3021 351.92465 255.78647 353.72153Q255.4271 354.97153 255.31772 356.47153L254.0521 356.47153Q254.06772 355.28403 254.50522 353.61215Q254.95834 351.94028 255.78647 350.3934Q256.63022 348.8309 257.56772 347.7684L252.64584 347.7684ZM261.25522 356.47153L261.25522 355.06528L262.66147 355.06528L262.66147 356.47153L261.25522 356.47153ZM269.20834 356.47153L267.97397 356.47153L267.97397 348.62778Q267.53647 349.04965 266.8021 349.48715Q266.08334 349.90903 265.52084 350.11215L265.52084 348.92465Q266.5521 348.44028 267.31772 347.75278Q268.09897 347.06528 268.41147 346.40903L269.20834 346.40903L269.20834 356.47153ZM274.45834 351.03403Q273.69272 350.75278 273.31772 350.23715Q272.95834 349.72153 272.95834 348.98715Q272.95834 347.8934 273.7396 347.15903Q274.53647 346.40903 275.83334 346.40903Q277.14584 346.40903 277.94272 347.17465Q278.75522 347.94028 278.75522 349.03403Q278.75522 349.72153 278.38022 350.23715Q278.02084 350.75278 277.27084 351.03403Q278.19272 351.3309 278.6771 352.00278Q279.16147 352.67465 279.16147 353.61215Q279.16147 354.8934 278.25522 355.7684Q277.34897 356.6434 275.8646 356.6434Q274.38022 356.6434 273.45834 355.7684Q272.5521 354.87778 272.5521 353.56528Q272.5521 352.59653 273.0521 351.94028Q273.5521 351.2684 274.45834 351.03403ZM274.22397 348.9559Q274.22397 349.65903 274.6771 350.11215Q275.13022 350.56528 275.8646 350.56528Q276.58334 350.56528 277.03647 350.12778Q277.4896 349.67465 277.4896 349.0184Q277.4896 348.34653 277.02084 347.8934Q276.5521 347.42465 275.84897 347.42465Q275.14584 347.42465 274.6771 347.87778Q274.22397 348.31528 274.22397 348.9559ZM273.81772 353.5809Q273.81772 354.11215 274.06772 354.61215Q274.31772 355.09653 274.8021 355.36215Q275.3021 355.62778 275.88022 355.62778Q276.75522 355.62778 277.31772 355.06528Q277.89584 354.50278 277.89584 353.62778Q277.89584 352.73715 277.3021 352.15903Q276.72397 351.56528 275.83334 351.56528Q274.95834 351.56528 274.38022 352.1434Q273.81772 352.72153 273.81772 353.5809Z" fill-rule="nonzero"/><path fill="#000000" d="M250.56926 143.22025L250.56926 142.03275L257.06927 142.03275L257.06927 142.98587Q256.10052 144.0015 255.16301 145.689Q254.22551 147.3765 253.70988 149.17337Q253.35051 150.42337 253.24113 151.92337L251.97551 151.92337Q251.99113 150.73587 252.42863 149.064Q252.88176 147.39212 253.70988 145.84525Q254.55363 144.28275 255.49113 143.22025L250.56926 143.22025ZM259.17865 151.92337L259.17865 150.51712L260.5849 150.51712L260.5849 151.92337L259.17865 151.92337ZM268.9599 150.73587L268.9599 151.92337L262.3349 151.92337Q262.31927 151.48587 262.47552 151.064Q262.74115 150.39212 263.28802 149.73587Q263.85052 149.07962 264.8974 148.22025Q266.53802 146.8765 267.10052 146.09525Q267.67865 145.314 267.67865 144.61087Q267.67865 143.8765 267.1474 143.3765Q266.63177 142.8765 265.80365 142.8765Q264.91302 142.8765 264.36615 143.40775Q263.8349 143.939 263.8349 144.89212L262.56927 144.7515Q262.69427 143.34525 263.53802 142.61087Q264.3974 141.86087 265.81927 141.86087Q267.2724 141.86087 268.10052 142.65775Q268.94427 143.45462 268.94427 144.64212Q268.94427 145.2515 268.69427 145.82962Q268.4599 146.40775 267.88177 147.04837Q267.31927 147.689 265.99115 148.814Q264.88177 149.73587 264.56927 150.07962Q264.25677 150.40775 264.05365 150.73587L268.9599 150.73587ZM274.44427 151.92337L274.44427 149.51712L270.0849 149.51712L270.0849 148.39212L274.66302 141.90775L275.66302 141.90775L275.66302 148.39212L277.0224 148.39212L277.0224 149.51712L275.66302 149.51712L275.66302 151.92337L274.44427 151.92337ZM274.44427 148.39212L274.44427 143.8765L271.30365 148.39212L274.44427 148.39212Z" fill-rule="nonzero"/><path fill="#1a1a1a" d="M23.771875 119.50609L23.771875 110.91234L24.928125 110.91234L29.44375 117.66234L29.44375 110.91234L30.5375 110.91234L30.5375 119.50609L29.365625 119.50609L24.85 112.75609L24.85 119.50609L23.771875 119.50609ZM32.25625 116.39671Q32.25625 114.66234 33.209373 113.83421Q34.00625 113.14671 35.1625 113.14671Q36.44375 113.14671 37.25625 113.99046Q38.084373 114.81859 38.084373 116.30296Q38.084373 117.50609 37.725 118.19359Q37.365623 118.88109 36.6625 119.27171Q35.975 119.64671 35.1625 119.64671Q33.865623 119.64671 33.053123 118.81859Q32.25625 117.97484 32.25625 116.39671ZM33.334373 116.39671Q33.334373 117.58421 33.85 118.17796Q34.38125 118.77171 35.1625 118.77171Q35.959373 118.77171 36.475 118.17796Q36.990623 117.58421 36.990623 116.36546Q36.990623 115.20921 36.459373 114.61546Q35.94375 114.02171 35.1625 114.02171Q34.38125 114.02171 33.85 114.61546Q33.334373 115.19359 33.334373 116.39671ZM46.709373 118.74046Q46.115623 119.24046 45.56875 119.44359Q45.0375 119.64671 44.4125 119.64671Q43.38125 119.64671 42.834373 119.14671Q42.2875 118.64671 42.2875 117.86546Q42.2875 117.41234 42.490623 117.03734Q42.69375 116.64671 43.0375 116.42796Q43.38125 116.19359 43.803123 116.08421Q44.1 115.99046 44.740623 115.91234Q46.00625 115.77171 46.615623 115.55296Q46.615623 115.33421 46.615623 115.28734Q46.615623 114.63109 46.31875 114.36546Q45.9125 114.02171 45.115623 114.02171Q44.38125 114.02171 44.021873 114.28734Q43.6625 114.53734 43.490623 115.19359L42.459373 115.05296Q42.6 114.39671 42.928123 113.99046Q43.25625 113.58421 43.865623 113.36546Q44.475 113.14671 45.271873 113.14671Q46.06875 113.14671 46.56875 113.33421Q47.06875 113.52171 47.303123 113.80296Q47.5375 114.08421 47.63125 114.52171Q47.678123 114.78734 47.678123 115.49046L47.678123 116.89671Q47.678123 118.36546 47.740623 118.75609Q47.81875 119.14671 48.021873 119.50609L46.9125 119.50609Q46.75625 119.17796 46.709373 118.74046ZM46.615623 116.38109Q46.0375 116.61546 44.896873 116.78734Q44.240623 116.88109 43.975 117.00609Q43.709373 117.11546 43.553123 117.33421Q43.4125 117.55296 43.4125 117.83421Q43.4125 118.25609 43.725 118.53734Q44.053123 118.81859 44.6625 118.81859Q45.271873 118.81859 45.740623 118.55296Q46.225 118.28734 46.44375 117.81859Q46.615623 117.45921 46.615623 116.77171L46.615623 116.38109ZM49.615623 119.50609L49.615623 110.91234L50.678123 110.91234L50.678123 119.50609L49.615623 119.50609ZM52.44375 120.02171L53.475 120.17796Q53.5375 120.64671 53.834373 120.86546Q54.225 121.16234 54.896873 121.16234Q55.63125 121.16234 56.021873 120.86546Q56.428123 120.56859 56.56875 120.05296Q56.6625 119.72484 56.646873 118.69359Q55.959373 119.50609 54.928123 119.50609Q53.646873 119.50609 52.94375 118.58421Q52.240623 117.64671 52.240623 116.36546Q52.240623 115.47484 52.553123 114.72484Q52.88125 113.95921 53.490623 113.55296Q54.1 113.14671 54.928123 113.14671Q56.0375 113.14671 56.75625 114.03734L56.75625 113.28734L57.725 113.28734L57.725 118.66234Q57.725 120.11546 57.428123 120.72484Q57.13125 121.33421 56.490623 121.67796Q55.85 122.03734 54.9125 122.03734Q53.803123 122.03734 53.115623 121.53734Q52.428123 121.03734 52.44375 120.02171ZM53.31875 116.28734Q53.31875 117.50609 53.803123 118.06859Q54.2875 118.63109 55.021873 118.63109Q55.75625 118.63109 56.240623 118.06859Q56.740623 117.50609 56.740623 116.31859Q56.740623 115.17796 56.225 114.59984Q55.725 114.02171 55.00625 114.02171Q54.303123 114.02171 53.803123 114.59984Q53.31875 115.16234 53.31875 116.28734Z" fill-rule="nonzero"/><path fill="#9e9e9e" d="M28.896875 135.49046L28.896875 136.50609L23.209375 136.50609Q23.209375 136.13109 23.334375 135.77171Q23.553125 135.19359 24.021875 134.63109Q24.50625 134.06859 25.4125 133.33421Q26.81875 132.17796 27.303125 131.50609Q27.803125 130.83421 27.803125 130.24046Q27.803125 129.61546 27.35 129.19359Q26.896875 128.75609 26.178125 128.75609Q25.4125 128.75609 24.959375 129.20921Q24.50625 129.66234 24.490625 130.47484L23.4125 130.36546Q23.521875 129.14671 24.240625 128.52171Q24.975 127.88109 26.209375 127.88109Q27.44375 127.88109 28.1625 128.56859Q28.88125 129.25609 28.88125 130.27171Q28.88125 130.78734 28.6625 131.28734Q28.459375 131.77171 27.959375 132.33421Q27.475 132.88109 26.35 133.83421Q25.396875 134.63109 25.115625 134.92796Q24.85 135.20921 24.678125 135.49046L28.896875 135.49046ZM30.35 134.25609L31.459375 134.16234Q31.584375 134.97484 32.021873 135.38109Q32.475 135.78734 33.115623 135.78734Q33.865623 135.78734 34.396873 135.20921Q34.928123 134.63109 34.928123 133.69359Q34.928123 132.78734 34.4125 132.27171Q33.9125 131.74046 33.084373 131.74046Q32.584373 131.74046 32.1625 131.97484Q31.75625 132.20921 31.521875 132.56859L30.5375 132.44359L31.365625 128.03734L35.646873 128.03734L35.646873 129.03734L32.209373 129.03734L31.75625 131.34984Q32.521873 130.80296 33.365623 130.80296Q34.490623 130.80296 35.25625 131.58421Q36.0375 132.36546 36.0375 133.59984Q36.0375 134.75609 35.365623 135.61546Q34.5375 136.64671 33.115623 136.64671Q31.94375 136.64671 31.19375 135.99046Q30.459375 135.33421 30.35 134.25609ZM37.94375 136.50609L37.94375 135.30296L39.146873 135.30296L39.146873 136.50609L37.94375 136.50609ZM45.896873 135.49046L45.896873 136.50609L40.209373 136.50609Q40.209373 136.13109 40.334373 135.77171Q40.553123 135.19359 41.021873 134.63109Q41.50625 134.06859 42.4125 133.33421Q43.81875 132.17796 44.303123 131.50609Q44.803123 130.83421 44.803123 130.24046Q44.803123 129.61546 44.35 129.19359Q43.896873 128.75609 43.178123 128.75609Q42.4125 128.75609 41.959373 129.20921Q41.50625 129.66234 41.490623 130.47484L40.4125 130.36546Q40.521873 129.14671 41.240623 128.52171Q41.975 127.88109 43.209373 127.88109Q44.44375 127.88109 45.1625 128.56859Q45.88125 129.25609 45.88125 130.27171Q45.88125 130.78734 45.6625 131.28734Q45.459373 131.77171 44.959373 132.33421Q44.475 132.88109 43.35 133.83421Q42.396873 134.63109 42.115623 134.92796Q41.85 135.20921 41.678123 135.49046L45.896873 135.49046ZM47.553123 129.97484Q47.553123 129.05296 48.00625 128.41234Q48.475 127.77171 49.35 127.77171Q50.1625 127.77171 50.69375 128.34984Q51.225 128.92796 51.225 130.03734Q51.225 131.13109 50.678123 131.72484Q50.146873 132.30296 49.365623 132.30296Q48.584373 132.30296 48.06875 131.72484Q47.553123 131.14671 47.553123 129.97484ZM49.38125 128.49046Q48.990623 128.49046 48.725 128.83421Q48.475 129.17796 48.475 130.08421Q48.475 130.91234 48.725 131.25609Q48.990623 131.58421 49.38125 131.58421Q49.7875 131.58421 50.0375 131.24046Q50.303123 130.89671 50.303123 130.00609Q50.303123 129.16234 50.0375 128.83421Q49.771873 128.49046 49.38125 128.49046ZM49.38125 136.81859L54.084373 127.77171L54.94375 127.77171L50.25625 136.81859L49.38125 136.81859ZM53.1 134.49046Q53.1 133.56859 53.553123 132.92796Q54.021873 132.28734 54.9125 132.28734Q55.725 132.28734 56.25625 132.86546Q56.7875 133.42796 56.7875 134.55296Q56.7875 135.64671 56.240623 136.24046Q55.709373 136.81859 54.9125 136.81859Q54.146873 136.81859 53.615623 136.24046Q53.1 135.66234 53.1 134.49046ZM54.94375 133.00609Q54.5375 133.00609 54.271873 133.34984Q54.021873 133.69359 54.021873 134.59984Q54.021873 135.41234 54.2875 135.75609Q54.553123 136.09984 54.94375 136.09984Q55.334373 136.09984 55.6 135.75609Q55.865623 135.41234 55.865623 134.50609Q55.865623 133.67796 55.6 133.34984Q55.334373 133.00609 54.94375 133.00609Z" fill-rule="nonzero"/><path stroke="#757575" stroke-width="1.0" stroke-linecap="butt" d="M22.85 124.00609L174.46666 124.00609L240.6801 124.00609" fill-rule="nonzero"/><path fill="#9e9e9e" d="M242.6801 124.00609C242.6801 122.90152 241.78467 122.00609 240.6801 122.00609C239.57553 122.00609 238.6801 122.90152 238.6801 124.00609C238.6801 125.11066 239.57553 126.00609 240.6801 126.00609C241.78467 126.00609 242.6801 125.11066 242.6801 124.00609" fill-rule="nonzero"/><path fill="#1a1a1a" d="M27.803125 366.94113L27.803125 365.94113L31.428125 365.9255L31.428125 369.113Q30.6 369.78488 29.709375 370.12863Q28.81875 370.45676 27.88125 370.45676Q26.615625 370.45676 25.56875 369.9255Q24.5375 369.37863 24.00625 368.363Q23.490625 367.33176 23.490625 366.06613Q23.490625 364.8005 24.00625 363.72238Q24.5375 362.62863 25.521875 362.113Q26.50625 361.58176 27.7875 361.58176Q28.725 361.58176 29.475 361.87863Q30.225 362.1755 30.646875 362.72238Q31.084375 363.25363 31.303125 364.12863L30.2875 364.40988Q30.084375 363.75363 29.7875 363.37863Q29.50625 363.00363 28.975 362.78488Q28.44375 362.5505 27.803125 362.5505Q27.021875 362.5505 26.44375 362.78488Q25.88125 363.01926 25.521875 363.40988Q25.178125 363.8005 24.990625 364.26926Q24.6625 365.06613 24.6625 365.988Q24.6625 367.14426 25.053125 367.9255Q25.459375 368.69113 26.209375 369.06613Q26.959375 369.44113 27.81875 369.44113Q28.553125 369.44113 29.25625 369.15988Q29.959375 368.863 30.31875 368.5505L30.31875 366.94113L27.803125 366.94113ZM32.771873 370.31613L32.771873 361.72238L36.021873 361.72238Q36.865623 361.72238 37.31875 361.8005Q37.959373 361.90988 38.38125 362.20676Q38.81875 362.50363 39.06875 363.03488Q39.334373 363.56613 39.334373 364.20676Q39.334373 365.3005 38.63125 366.06613Q37.94375 366.81613 36.115623 366.81613L33.9125 366.81613L33.9125 370.31613L32.771873 370.31613ZM33.9125 365.81613L36.13125 365.81613Q37.240623 365.81613 37.69375 365.40988Q38.1625 364.988 38.1625 364.238Q38.1625 363.70676 37.88125 363.33176Q37.615623 362.94113 37.178123 362.81613Q36.88125 362.738 36.115623 362.738L33.9125 362.738L33.9125 365.81613ZM42.959373 370.31613L42.959373 362.738L40.13125 362.738L40.13125 361.72238L46.94375 361.72238L46.94375 362.738L44.1 362.738L44.1 370.31613L42.959373 370.31613ZM47.225 367.738L47.225 366.6755L50.475 366.6755L50.475 367.738L47.225 367.738ZM54.725 370.31613L54.725 368.25363L51.00625 368.25363L51.00625 367.28488L54.928123 361.72238L55.7875 361.72238L55.7875 367.28488L56.94375 367.28488L56.94375 368.25363L55.7875 368.25363L55.7875 370.31613L54.725 370.31613ZM54.725 367.28488L54.725 363.4255L52.0375 367.28488L54.725 367.28488Z" fill-rule="nonzero"/><path fill="#9e9e9e" d="M28.896875 386.3005L28.896875 387.31613L23.209375 387.31613Q23.209375 386.94113 23.334375 386.58176Q23.553125 386.00363 24.021875 385.44113Q24.50625 384.87863 25.4125 384.14426Q26.81875 382.988 27.303125 382.31613Q27.803125 381.64426 27.803125 381.0505Q27.803125 380.4255 27.35 380.00363Q26.896875 379.56613 26.178125 379.56613Q25.4125 379.56613 24.959375 380.01926Q24.50625 380.47238 24.490625 381.28488L23.4125 381.1755Q23.521875 379.95676 24.240625 379.33176Q24.975 378.69113 26.209375 378.69113Q27.44375 378.69113 28.1625 379.37863Q28.88125 380.06613 28.88125 381.08176Q28.88125 381.59738 28.6625 382.09738Q28.459375 382.58176 27.959375 383.14426Q27.475 383.69113 26.35 384.64426Q25.396875 385.44113 25.115625 385.738Q24.85 386.01926 24.678125 386.3005L28.896875 386.3005ZM30.35 385.06613L31.459375 384.97238Q31.584375 385.78488 32.021873 386.19113Q32.475 386.59738 33.115623 386.59738Q33.865623 386.59738 34.396873 386.01926Q34.928123 385.44113 34.928123 384.50363Q34.928123 383.59738 34.4125 383.08176Q33.9125 382.5505 33.084373 382.5505Q32.584373 382.5505 32.1625 382.78488Q31.75625 383.01926 31.521875 383.37863L30.5375 383.25363L31.365625 378.84738L35.646873 378.84738L35.646873 379.84738L32.209373 379.84738L31.75625 382.15988Q32.521873 381.613 33.365623 381.613Q34.490623 381.613 35.25625 382.39426Q36.0375 383.1755 36.0375 384.40988Q36.0375 385.56613 35.365623 386.4255Q34.5375 387.45676 33.115623 387.45676Q31.94375 387.45676 31.19375 386.8005Q30.459375 386.14426 30.35 385.06613ZM37.94375 387.31613L37.94375 386.113L39.146873 386.113L39.146873 387.31613L37.94375 387.31613ZM40.35 383.08176Q40.35 381.5505 40.6625 380.62863Q40.975 379.69113 41.584373 379.19113Q42.209373 378.69113 43.146873 378.69113Q43.834373 378.69113 44.35 378.97238Q44.88125 379.25363 45.225 379.78488Q45.56875 380.3005 45.75625 381.0505Q45.94375 381.8005 45.94375 383.08176Q45.94375 384.59738 45.63125 385.51926Q45.334373 386.44113 44.709373 386.95676Q44.1 387.45676 43.146873 387.45676Q41.9125 387.45676 41.19375 386.56613Q40.35 385.50363 40.35 383.08176ZM41.428123 383.08176Q41.428123 385.19113 41.928123 385.89426Q42.428123 386.59738 43.146873 386.59738Q43.88125 386.59738 44.365623 385.89426Q44.865623 385.19113 44.865623 383.08176Q44.865623 380.95676 44.365623 380.26926Q43.88125 379.56613 43.13125 379.56613Q42.4125 379.56613 41.975 380.1755Q41.428123 380.95676 41.428123 383.08176ZM47.553123 380.78488Q47.553123 379.863 48.00625 379.22238Q48.475 378.58176 49.35 378.58176Q50.1625 378.58176 50.69375 379.15988Q51.225 379.738 51.225 380.84738Q51.225 381.94113 50.678123 382.53488Q50.146873 383.113 49.365623 383.113Q48.584373 383.113 48.06875 382.53488Q47.553123 381.95676 47.553123 380.78488ZM49.38125 379.3005Q48.990623 379.3005 48.725 379.64426Q48.475 379.988 48.475 380.89426Q48.475 381.72238 48.725 382.06613Q48.990623 382.39426 49.38125 382.39426Q49.7875 382.39426 50.0375 382.0505Q50.303123 381.70676 50.303123 380.81613Q50.303123 379.97238 50.0375 379.64426Q49.771873 379.3005 49.38125 379.3005ZM49.38125 387.62863L54.084373 378.58176L54.94375 378.58176L50.25625 387.62863L49.38125 387.62863ZM53.1 385.3005Q53.1 384.37863 53.553123 383.738Q54.021873 383.09738 54.9125 383.09738Q55.725 383.09738 56.25625 383.6755Q56.7875 384.238 56.7875 385.363Q56.7875 386.45676 56.240623 387.0505Q55.709373 387.62863 54.9125 387.62863Q54.146873 387.62863 53.615623 387.0505Q53.1 386.47238 53.1 385.3005ZM54.94375 383.81613Q54.5375 383.81613 54.271873 384.15988Q54.021873 384.50363 54.021873 385.40988Q54.021873 386.22238 54.2875 386.56613Q54.553123 386.90988 54.94375 386.90988Q55.334373 386.90988 55.6 386.56613Q55.865623 386.22238 55.865623 385.31613Q55.865623 384.488 55.6 384.15988Q55.334373 383.81613 54.94375 383.81613Z" fill-rule="nonzero"/><path stroke="#757575" stroke-width="1.0" stroke-linecap="butt" d="M22.85 374.81613L174.46666 374.81613L243.28746 374.81613" fill-rule="nonzero"/><path fill="#9e9e9e" d="M245.28746 374.81613C245.28746 373.71155 244.39203 372.81613 243.28746 372.81613C242.18289 372.81613 241.28746 373.71155 241.28746 374.81613C241.28746 375.9207 242.18289 376.81613 243.28746 376.81613C244.39203 376.81613 245.28746 375.9207 245.28746 374.81613" fill-rule="nonzero"/><path fill="#1a1a1a" d="M670.2125 116.90417L671.3375 117.20104Q670.97815 118.59167 670.0563 119.32604Q669.1344 120.06042 667.79065 120.06042Q666.4 120.06042 665.525 119.49792Q664.65 118.93542 664.1969 117.87292Q663.7438 116.79479 663.7438 115.56042Q663.7438 114.21667 664.2594 113.21667Q664.775 112.21667 665.7125 111.70104Q666.66565 111.18542 667.8063 111.18542Q669.0875 111.18542 669.9625 111.84167Q670.85315 112.49792 671.1969 113.68542L670.0719 113.95104Q669.775 113.01354 669.1969 112.59167Q668.6344 112.15417 667.775 112.15417Q666.79065 112.15417 666.1188 112.63854Q665.4625 113.10729 665.1813 113.90417Q664.91565 114.70104 664.91565 115.56042Q664.91565 116.65417 665.22815 117.46667Q665.5563 118.27917 666.22815 118.68542Q666.9 119.09167 667.6969 119.09167Q668.65 119.09167 669.3063 118.54479Q669.97815 117.99792 670.2125 116.90417ZM672.91565 119.91979L672.91565 111.32604L673.97815 111.32604L673.97815 119.91979L672.91565 119.91979ZM680.0094 119.15417Q679.41565 119.65417 678.8688 119.85729Q678.3375 120.06042 677.7125 120.06042Q676.6813 120.06042 676.1344 119.56042Q675.5875 119.06042 675.5875 118.27917Q675.5875 117.82604 675.79065 117.45104Q675.9938 117.06042 676.3375 116.84167Q676.6813 116.60729 677.10315 116.49792Q677.4 116.40417 678.04065 116.32604Q679.3063 116.18542 679.91565 115.96667Q679.91565 115.74792 679.91565 115.70104Q679.91565 115.04479 679.6188 114.77917Q679.2125 114.43542 678.41565 114.43542Q677.6813 114.43542 677.3219 114.70104Q676.9625 114.95104 676.79065 115.60729L675.7594 115.46667Q675.9 114.81042 676.22815 114.40417Q676.5563 113.99792 677.16565 113.77917Q677.775 113.56042 678.5719 113.56042Q679.3688 113.56042 679.8688 113.74792Q680.3688 113.93542 680.60315 114.21667Q680.8375 114.49792 680.9313 114.93542Q680.97815 115.20104 680.97815 115.90417L680.97815 117.31042Q680.97815 118.77917 681.04065 119.16979Q681.1188 119.56042 681.3219 119.91979L680.2125 119.91979Q680.0563 119.59167 680.0094 119.15417ZM679.91565 116.79479Q679.3375 117.02917 678.1969 117.20104Q677.54065 117.29479 677.275 117.41979Q677.0094 117.52917 676.85315 117.74792Q676.7125 117.96667 676.7125 118.24792Q676.7125 118.66979 677.025 118.95104Q677.35315 119.23229 677.9625 119.23229Q678.5719 119.23229 679.04065 118.96667Q679.525 118.70104 679.7438 118.23229Q679.91565 117.87292 679.91565 117.18542L679.91565 116.79479ZM687.025 119.91979L687.025 118.99792Q686.29065 120.06042 685.04065 120.06042Q684.4938 120.06042 684.0094 119.85729Q683.54065 119.63854 683.3063 119.32604Q683.0719 118.99792 682.97815 118.52917Q682.91565 118.23229 682.91565 117.54479L682.91565 113.70104L683.97815 113.70104L683.97815 117.15417Q683.97815 117.96667 684.04065 118.26354Q684.1344 118.66979 684.4469 118.91979Q684.775 119.15417 685.2594 119.15417Q685.72815 119.15417 686.1344 118.91979Q686.5563 118.66979 686.72815 118.24792Q686.91565 117.82604 686.91565 117.02917L686.91565 113.70104L687.9625 113.70104L687.9625 119.91979L687.025 119.91979ZM693.97815 119.91979L693.97815 119.13854Q693.3844 120.06042 692.2438 120.06042Q691.4938 120.06042 690.8688 119.65417Q690.2438 119.23229 689.9 118.49792Q689.5563 117.76354 689.5563 116.81042Q689.5563 115.88854 689.8688 115.12292Q690.1813 114.35729 690.8063 113.96667Q691.4313 113.56042 692.1969 113.56042Q692.7594 113.56042 693.1969 113.79479Q693.6344 114.02917 693.91565 114.40417L693.91565 111.32604L694.9625 111.32604L694.9625 119.91979L693.97815 119.91979ZM690.65 116.81042Q690.65 118.01354 691.15 118.60729Q691.65 119.18542 692.3375 119.18542Q693.025 119.18542 693.5094 118.62292Q693.9938 118.06042 693.9938 116.90417Q693.9938 115.62292 693.4938 115.02917Q693.0094 114.43542 692.29065 114.43542Q691.5875 114.43542 691.1188 115.01354Q690.65 115.57604 690.65 116.81042ZM701.1969 117.91979L702.29065 118.04479Q702.04065 118.99792 701.3375 119.52917Q700.6344 120.06042 699.5563 120.06042Q698.1969 120.06042 697.3844 119.21667Q696.5875 118.37292 696.5875 116.85729Q696.5875 115.29479 697.4 114.43542Q698.2125 113.56042 699.4938 113.56042Q700.7438 113.56042 701.525 114.40417Q702.3219 115.24792 702.3219 116.79479Q702.3219 116.88854 702.3219 117.07604L697.6813 117.07604Q697.7438 118.10729 698.2594 118.65417Q698.775 119.18542 699.5563 119.18542Q700.1344 119.18542 700.54065 118.88854Q700.9625 118.57604 701.1969 117.91979ZM697.7438 116.21667L701.2125 116.21667Q701.15 115.41979 700.8219 115.02917Q700.3063 114.41979 699.5094 114.41979Q698.775 114.41979 698.275 114.90417Q697.79065 115.38854 697.7438 116.21667ZM703.65 117.65417L704.7125 117.51354Q704.8844 118.40417 705.3219 118.81042Q705.7594 119.20104 706.3844 119.20104Q707.1344 119.20104 707.65 118.68542Q708.16565 118.16979 708.16565 117.40417Q708.16565 116.68542 707.6813 116.21667Q707.2125 115.73229 706.47815 115.73229Q706.1813 115.73229 705.72815 115.85729L705.85315 114.91979Q705.9625 114.93542 706.025 114.93542Q706.6969 114.93542 707.22815 114.59167Q707.775 114.23229 707.775 113.49792Q707.775 112.91979 707.3844 112.54479Q706.9938 112.15417 706.3688 112.15417Q705.7594 112.15417 705.3375 112.54479Q704.9313 112.93542 704.8219 113.70104L703.7594 113.51354Q703.9469 112.46667 704.6344 111.88854Q705.3219 111.29479 706.3375 111.29479Q707.04065 111.29479 707.6344 111.60729Q708.22815 111.90417 708.54065 112.41979Q708.85315 112.93542 708.85315 113.52917Q708.85315 114.07604 708.5563 114.54479Q708.2594 114.99792 707.6813 115.26354Q708.4313 115.43542 708.85315 115.99792Q709.275 116.54479 709.275 117.38854Q709.275 118.51354 708.4469 119.29479Q707.6344 120.07604 706.3844 120.07604Q705.2594 120.07604 704.5094 119.40417Q703.7594 118.71667 703.65 117.65417Z" fill-rule="nonzero"/><path fill="#9e9e9e" d="M681.1969 135.90416L681.1969 136.91978L675.5094 136.91978Q675.5094 136.54478 675.6344 136.18541Q675.85315 135.60728 676.3219 135.04478Q676.8063 134.48228 677.7125 133.74791Q679.1188 132.59166 679.60315 131.91978Q680.10315 131.24791 680.10315 130.65416Q680.10315 130.02916 679.65 129.60728Q679.1969 129.16978 678.47815 129.16978Q677.7125 129.16978 677.2594 129.62291Q676.8063 130.07603 676.79065 130.88853L675.7125 130.77916Q675.8219 129.56041 676.54065 128.93541Q677.275 128.29478 678.5094 128.29478Q679.7438 128.29478 680.4625 128.98228Q681.1813 129.66978 681.1813 130.68541Q681.1813 131.20103 680.9625 131.70103Q680.7594 132.18541 680.2594 132.74791Q679.775 133.29478 678.65 134.24791Q677.6969 135.04478 677.41565 135.34166Q677.15 135.62291 676.97815 135.90416L681.1969 135.90416ZM682.65 134.66978L683.7594 134.57603Q683.8844 135.38853 684.3219 135.79478Q684.775 136.20103 685.41565 136.20103Q686.16565 136.20103 686.6969 135.62291Q687.22815 135.04478 687.22815 134.10728Q687.22815 133.20103 686.7125 132.68541Q686.2125 132.15416 685.3844 132.15416Q684.8844 132.15416 684.4625 132.38853Q684.0563 132.62291 683.8219 132.98228L682.8375 132.85728L683.66565 128.45103L687.9469 128.45103L687.9469 129.45103L684.5094 129.45103L684.0563 131.76353Q684.8219 131.21666 685.66565 131.21666Q686.79065 131.21666 687.5563 131.99791Q688.3375 132.77916 688.3375 134.01353Q688.3375 135.16978 687.66565 136.02916Q686.8375 137.06041 685.41565 137.06041Q684.2438 137.06041 683.4938 136.40416Q682.7594 135.74791 682.65 134.66978ZM690.2438 136.91978L690.2438 135.71666L691.4469 135.71666L691.4469 136.91978L690.2438 136.91978ZM692.65 134.65416L693.7125 134.51353Q693.8844 135.40416 694.3219 135.81041Q694.7594 136.20103 695.3844 136.20103Q696.1344 136.20103 696.65 135.68541Q697.16565 135.16978 697.16565 134.40416Q697.16565 133.68541 696.6813 133.21666Q696.2125 132.73228 695.47815 132.73228Q695.1813 132.73228 694.72815 132.85728L694.85315 131.91978Q694.9625 131.93541 695.025 131.93541Q695.6969 131.93541 696.22815 131.59166Q696.775 131.23228 696.775 130.49791Q696.775 129.91978 696.3844 129.54478Q695.9938 129.15416 695.3688 129.15416Q694.7594 129.15416 694.3375 129.54478Q693.9313 129.93541 693.8219 130.70103L692.7594 130.51353Q692.9469 129.46666 693.6344 128.88853Q694.3219 128.29478 695.3375 128.29478Q696.04065 128.29478 696.6344 128.60728Q697.22815 128.90416 697.54065 129.41978Q697.85315 129.93541 697.85315 130.52916Q697.85315 131.07603 697.5563 131.54478Q697.2594 131.99791 696.6813 132.26353Q697.4313 132.43541 697.85315 132.99791Q698.275 133.54478 698.275 134.38853Q698.275 135.51353 697.4469 136.29478Q696.6344 137.07603 695.3844 137.07603Q694.2594 137.07603 693.5094 136.40416Q692.7594 135.71666 692.65 134.65416ZM699.85315 130.38853Q699.85315 129.46666 700.3063 128.82603Q700.775 128.18541 701.65 128.18541Q702.4625 128.18541 702.9938 128.76353Q703.525 129.34166 703.525 130.45103Q703.525 131.54478 702.97815 132.13853Q702.4469 132.71666 701.66565 132.71666Q700.8844 132.71666 700.3688 132.13853Q699.85315 131.56041 699.85315 130.38853ZM701.6813 128.90416Q701.29065 128.90416 701.025 129.24791Q700.775 129.59166 700.775 130.49791Q700.775 131.32603 701.025 131.66978Q701.29065 131.99791 701.6813 131.99791Q702.0875 131.99791 702.3375 131.65416Q702.60315 131.31041 702.60315 130.41978Q702.60315 129.57603 702.3375 129.24791Q702.0719 128.90416 701.6813 128.90416ZM701.6813 137.23228L706.3844 128.18541L707.2438 128.18541L702.5563 137.23228L701.6813 137.23228ZM705.4 134.90416Q705.4 133.98228 705.85315 133.34166Q706.3219 132.70103 707.2125 132.70103Q708.025 132.70103 708.5563 133.27916Q709.0875 133.84166 709.0875 134.96666Q709.0875 136.06041 708.54065 136.65416Q708.0094 137.23228 707.2125 137.23228Q706.4469 137.23228 705.91565 136.65416Q705.4 136.07603 705.4 134.90416ZM707.2438 133.41978Q706.8375 133.41978 706.5719 133.76353Q706.3219 134.10728 706.3219 135.01353Q706.3219 135.82603 706.5875 136.16978Q706.85315 136.51353 707.2438 136.51353Q707.6344 136.51353 707.9 136.16978Q708.16565 135.82603 708.16565 134.91978Q708.16565 134.09166 707.9 133.76353Q707.6344 133.41978 707.2438 133.41978Z" fill-rule="nonzero"/><path stroke="#757575" stroke-width="1.0" stroke-linecap="butt" d="M710.15 124.41979L558.5333 124.41979L492.72665 124.41979" fill-rule="nonzero"/><path fill="#9e9e9e" d="M494.72665 124.41979C494.72665 123.31522 493.8312 122.41979 492.72665 122.41979C491.62207 122.41979 490.72665 123.31522 490.72665 124.41979C490.72665 125.52436 491.62207 126.41979 492.72665 126.41979C493.8312 126.41979 494.72665 125.52436 494.72665 124.41979" fill-rule="nonzero"/><path fill="#1a1a1a" d="M675.10315 365.58533L675.10315 364.58533L678.72815 364.5697L678.72815 367.7572Q677.9 368.42908 677.0094 368.77283Q676.1188 369.10095 675.1813 369.10095Q673.91565 369.10095 672.8688 368.5697Q671.8375 368.02283 671.3063 367.0072Q670.79065 365.97595 670.79065 364.71033Q670.79065 363.4447 671.3063 362.36658Q671.8375 361.27283 672.8219 360.7572Q673.8063 360.22595 675.0875 360.22595Q676.025 360.22595 676.775 360.52283Q677.525 360.8197 677.9469 361.36658Q678.3844 361.89783 678.60315 362.77283L677.5875 363.05408Q677.3844 362.39783 677.0875 362.02283Q676.8063 361.64783 676.275 361.42908Q675.7438 361.1947 675.10315 361.1947Q674.3219 361.1947 673.7438 361.42908Q673.1813 361.66345 672.8219 362.05408Q672.47815 362.4447 672.29065 362.91345Q671.9625 363.71033 671.9625 364.6322Q671.9625 365.78845 672.35315 366.5697Q672.7594 367.33533 673.5094 367.71033Q674.2594 368.08533 675.1188 368.08533Q675.85315 368.08533 676.5563 367.80408Q677.2594 367.5072 677.6188 367.1947L677.6188 365.58533L675.10315 365.58533ZM684.1969 366.96033L685.29065 367.08533Q685.04065 368.03845 684.3375 368.5697Q683.6344 369.10095 682.5563 369.10095Q681.1969 369.10095 680.3844 368.2572Q679.5875 367.41345 679.5875 365.89783Q679.5875 364.33533 680.4 363.47595Q681.2125 362.60095 682.4938 362.60095Q683.7438 362.60095 684.525 363.4447Q685.3219 364.28845 685.3219 365.83533Q685.3219 365.92908 685.3219 366.11658L680.6813 366.11658Q680.7438 367.14783 681.2594 367.6947Q681.775 368.22595 682.5563 368.22595Q683.1344 368.22595 683.54065 367.92908Q683.9625 367.61658 684.1969 366.96033ZM680.7438 365.2572L684.2125 365.2572Q684.15 364.46033 683.8219 364.0697Q683.3063 363.46033 682.5094 363.46033Q681.775 363.46033 681.275 363.9447Q680.79065 364.42908 680.7438 365.2572ZM686.9469 368.96033L686.9469 362.74158L687.8844 362.74158L687.8844 363.61658Q688.1813 363.14783 688.66565 362.8822Q689.15 362.60095 689.775 362.60095Q690.4625 362.60095 690.9 362.8822Q691.35315 363.16345 691.525 363.67908Q692.275 362.60095 693.4469 362.60095Q694.3844 362.60095 694.8688 363.11658Q695.3688 363.61658 695.3688 364.6947L695.3688 368.96033L694.3219 368.96033L694.3219 365.03845Q694.3219 364.41345 694.2125 364.1322Q694.1188 363.85095 693.85315 363.67908Q693.5875 363.5072 693.2125 363.5072Q692.5563 363.5072 692.1188 363.9447Q691.6969 364.3822 691.6969 365.35095L691.6969 368.96033L690.6344 368.96033L690.6344 364.91345Q690.6344 364.21033 690.3688 363.86658Q690.1188 363.5072 689.54065 363.5072Q689.0875 363.5072 688.7125 363.74158Q688.3375 363.97595 688.16565 364.42908Q687.9938 364.8822 687.9938 365.72595L687.9938 368.96033L686.9469 368.96033ZM697.9469 361.58533L697.9469 360.36658L699.0094 360.36658L699.0094 361.58533L697.9469 361.58533ZM697.9469 368.96033L697.9469 362.74158L699.0094 362.74158L699.0094 368.96033L697.9469 368.96033ZM700.9469 368.96033L700.9469 362.74158L701.8844 362.74158L701.8844 363.61658Q702.5719 362.60095 703.8688 362.60095Q704.4313 362.60095 704.9 362.80408Q705.3844 363.0072 705.6188 363.33533Q705.85315 363.66345 705.9469 364.10095Q705.9938 364.39783 705.9938 365.1322L705.9938 368.96033L704.9469 368.96033L704.9469 365.17908Q704.9469 364.52283 704.8219 364.21033Q704.6969 363.89783 704.3844 363.71033Q704.0719 363.5072 703.65 363.5072Q702.97815 363.5072 702.47815 363.9447Q701.9938 364.36658 701.9938 365.55408L701.9938 368.96033L700.9469 368.96033ZM707.9469 361.58533L707.9469 360.36658L709.0094 360.36658L709.0094 361.58533L707.9469 361.58533ZM707.9469 368.96033L707.9469 362.74158L709.0094 362.74158L709.0094 368.96033L707.9469 368.96033Z" fill-rule="nonzero"/><path fill="#9e9e9e" d="M681.1969 384.9447L681.1969 385.96033L675.5094 385.96033Q675.5094 385.58533 675.6344 385.22595Q675.85315 384.64783 676.3219 384.08533Q676.8063 383.52283 677.7125 382.78845Q679.1188 381.6322 679.60315 380.96033Q680.10315 380.28845 680.10315 379.6947Q680.10315 379.0697 679.65 378.64783Q679.1969 378.21033 678.47815 378.21033Q677.7125 378.21033 677.2594 378.66345Q676.8063 379.11658 676.79065 379.92908L675.7125 379.8197Q675.8219 378.60095 676.54065 377.97595Q677.275 377.33533 678.5094 377.33533Q679.7438 377.33533 680.4625 378.02283Q681.1813 378.71033 681.1813 379.72595Q681.1813 380.24158 680.9625 380.74158Q680.7594 381.22595 680.2594 381.78845Q679.775 382.33533 678.65 383.28845Q677.6969 384.08533 677.41565 384.3822Q677.15 384.66345 676.97815 384.9447L681.1969 384.9447ZM686.025 385.96033L686.025 383.89783L682.3063 383.89783L682.3063 382.92908L686.22815 377.36658L687.0875 377.36658L687.0875 382.92908L688.2438 382.92908L688.2438 383.89783L687.0875 383.89783L687.0875 385.96033L686.025 385.96033ZM686.025 382.92908L686.025 379.0697L683.3375 382.92908L686.025 382.92908ZM690.2438 385.96033L690.2438 384.7572L691.4469 384.7572L691.4469 385.96033L690.2438 385.96033ZM692.65 383.71033L693.7594 383.61658Q693.8844 384.42908 694.3219 384.83533Q694.775 385.24158 695.41565 385.24158Q696.16565 385.24158 696.6969 384.66345Q697.22815 384.08533 697.22815 383.14783Q697.22815 382.24158 696.7125 381.72595Q696.2125 381.1947 695.3844 381.1947Q694.8844 381.1947 694.4625 381.42908Q694.0563 381.66345 693.8219 382.02283L692.8375 381.89783L693.66565 377.49158L697.9469 377.49158L697.9469 378.49158L694.5094 378.49158L694.0563 380.80408Q694.8219 380.2572 695.66565 380.2572Q696.79065 380.2572 697.5563 381.03845Q698.3375 381.8197 698.3375 383.05408Q698.3375 384.21033 697.66565 385.0697Q696.8375 386.10095 695.41565 386.10095Q694.2438 386.10095 693.4938 385.4447Q692.7594 384.78845 692.65 383.71033ZM699.85315 379.42908Q699.85315 378.5072 700.3063 377.86658Q700.775 377.22595 701.65 377.22595Q702.4625 377.22595 702.9938 377.80408Q703.525 378.3822 703.525 379.49158Q703.525 380.58533 702.97815 381.17908Q702.4469 381.7572 701.66565 381.7572Q700.8844 381.7572 700.3688 381.17908Q699.85315 380.60095 699.85315 379.42908ZM701.6813 377.9447Q701.29065 377.9447 701.025 378.28845Q700.775 378.6322 700.775 379.53845Q700.775 380.36658 701.025 380.71033Q701.29065 381.03845 701.6813 381.03845Q702.0875 381.03845 702.3375 380.6947Q702.60315 380.35095 702.60315 379.46033Q702.60315 378.61658 702.3375 378.28845Q702.0719 377.9447 701.6813 377.9447ZM701.6813 386.27283L706.3844 377.22595L707.2438 377.22595L702.5563 386.27283L701.6813 386.27283ZM705.4 383.9447Q705.4 383.02283 705.85315 382.3822Q706.3219 381.74158 707.2125 381.74158Q708.025 381.74158 708.5563 382.3197Q709.0875 382.8822 709.0875 384.0072Q709.0875 385.10095 708.54065 385.6947Q708.0094 386.27283 707.2125 386.27283Q706.4469 386.27283 705.91565 385.6947Q705.4 385.11658 705.4 383.9447ZM707.2438 382.46033Q706.8375 382.46033 706.5719 382.80408Q706.3219 383.14783 706.3219 384.05408Q706.3219 384.86658 706.5875 385.21033Q706.85315 385.55408 707.2438 385.55408Q707.6344 385.55408 707.9 385.21033Q708.16565 384.86658 708.16565 383.96033Q708.16565 383.1322 707.9 382.80408Q707.6344 382.46033 707.2438 382.46033Z" fill-rule="nonzero"/><path stroke="#757575" stroke-width="1.0" stroke-linecap="butt" d="M710.15 373.46033L558.5333 373.46033L491.09155 373.46033" fill-rule="nonzero"/><path fill="#9e9e9e" d="M493.09155 373.46033C493.09155 372.35574 492.1961 371.46033 491.09155 371.46033C489.98697 371.46033 489.09155 372.35574 489.09155 373.46033C489.09155 374.56488 489.98697 375.46033 491.09155 375.46033C492.1961 375.46033 493.09155 374.56488 493.09155 373.46033" fill-rule="nonzero"/><path fill="#757575" d="M22.81875 41.85L28.31875 27.537498L30.365625 27.537498L36.225 41.85L34.06875 41.85L32.396873 37.50625L26.4125 37.50625L24.834375 41.85L22.81875 41.85ZM26.959375 35.975L31.803125 35.975L30.31875 32.00625Q29.63125 30.193748 29.303125 29.037498Q29.021875 30.412498 28.521875 31.771873L26.959375 35.975ZM40.053123 41.85L36.1 31.474998L37.959373 31.474998L40.19375 37.69375Q40.553123 38.69375 40.85 39.771873Q41.084373 38.959373 41.50625 37.803123L43.803123 31.474998L45.615623 31.474998L41.69375 41.85L40.053123 41.85ZM53.271873 38.50625L55.084373 38.740623Q54.6625 40.31875 53.490623 41.209373Q52.334373 42.084373 50.521873 42.084373Q48.25625 42.084373 46.9125 40.69375Q45.584373 39.2875 45.584373 36.75625Q45.584373 34.13125 46.928123 32.69375Q48.271873 31.240623 50.428123 31.240623Q52.50625 31.240623 53.81875 32.6625Q55.146873 34.06875 55.146873 36.646873Q55.146873 36.803123 55.13125 37.115623L47.396873 37.115623Q47.490623 38.81875 48.365623 39.725Q49.240623 40.63125 50.5375 40.63125Q51.50625 40.63125 52.178123 40.13125Q52.865623 39.615623 53.271873 38.50625ZM47.490623 35.6625L53.2875 35.6625Q53.178123 34.365623 52.63125 33.709373Q51.7875 32.69375 50.44375 32.69375Q49.240623 32.69375 48.4125 33.50625Q47.584373 34.303123 47.490623 35.6625ZM57.146873 41.85L57.146873 31.474998L58.725 31.474998L58.725 33.053123Q59.334373 31.943748 59.85 31.599998Q60.365623 31.240623 60.975 31.240623Q61.865623 31.240623 62.7875 31.803123L62.178123 33.44375Q61.5375 33.053123 60.896873 33.053123Q60.31875 33.053123 59.85 33.4125Q59.396873 33.75625 59.19375 34.365623Q58.9125 35.303123 58.9125 36.4125L58.9125 41.85L57.146873 41.85ZM70.94375 40.56875Q69.95937 41.396873 69.05312 41.740623Q68.14687 42.084373 67.11562 42.084373Q65.4125 42.084373 64.49062 41.25625Q63.56875 40.4125 63.56875 39.115623Q63.56875 38.35 63.9125 37.725Q64.27187 37.1 64.83437 36.725Q65.39687 36.334373 66.1 36.13125Q66.61562 36.00625 67.6625 35.865623Q69.7875 35.615623 70.7875 35.271873Q70.80312 34.9125 70.80312 34.803123Q70.80312 33.740623 70.30312 33.2875Q69.63125 32.69375 68.30312 32.69375Q67.05312 32.69375 66.45937 33.13125Q65.88125 33.56875 65.6 34.678123L63.88125 34.44375Q64.11562 33.334373 64.64687 32.6625Q65.17812 31.974998 66.19375 31.615623Q67.20937 31.240623 68.55312 31.240623Q69.88125 31.240623 70.70937 31.553123Q71.5375 31.865623 71.92812 32.35Q72.31875 32.81875 72.475 33.5375Q72.56875 33.990623 72.56875 35.1625L72.56875 37.50625Q72.56875 39.959373 72.67812 40.615623Q72.7875 41.25625 73.13125 41.85L71.2875 41.85Q71.02187 41.303123 70.94375 40.56875ZM70.7875 36.646873Q69.83437 37.0375 67.9125 37.303123Q66.83437 37.459373 66.38125 37.6625Q65.94375 37.85 65.69375 38.225Q65.44375 38.6 65.44375 39.06875Q65.44375 39.771873 65.975 40.240623Q66.50625 40.709373 67.5375 40.709373Q68.55312 40.709373 69.33437 40.271873Q70.13125 39.81875 70.50625 39.053123Q70.7875 38.44375 70.7875 37.2875L70.7875 36.646873ZM74.85 42.709373L76.55312 42.959373Q76.6625 43.75625 77.14687 44.115623Q77.80312 44.6 78.94375 44.6Q80.1625 44.6 80.81875 44.115623Q81.49062 43.63125 81.725 42.75625Q81.86562 42.209373 81.85 40.490623Q80.69375 41.85 78.975 41.85Q76.83437 41.85 75.6625 40.303123Q74.49062 38.75625 74.49062 36.6Q74.49062 35.115623 75.02187 33.865623Q75.56875 32.615623 76.58437 31.928123Q77.61562 31.240623 78.99062 31.240623Q80.81875 31.240623 82.02187 32.725L82.02187 31.474998L83.63125 31.474998L83.63125 40.44375Q83.63125 42.865623 83.13125 43.865623Q82.64687 44.88125 81.56875 45.459373Q80.50625 46.053123 78.94375 46.053123Q77.1 46.053123 75.94375 45.225Q74.80312 44.396873 74.85 42.709373ZM76.30312 36.475Q76.30312 38.521873 77.11562 39.459373Q77.92812 40.396873 79.14687 40.396873Q80.35 40.396873 81.1625 39.459373Q81.99062 38.521873 81.99062 36.5375Q81.99062 34.63125 81.14687 33.6625Q80.30312 32.69375 79.11562 32.69375Q77.94375 32.69375 77.11562 33.646873Q76.30312 34.6 76.30312 36.475ZM93.27187 38.50625L95.08437 38.740623Q94.6625 40.31875 93.49062 41.209373Q92.33437 42.084373 90.52187 42.084373Q88.25625 42.084373 86.9125 40.69375Q85.58437 39.2875 85.58437 36.75625Q85.58437 34.13125 86.92812 32.69375Q88.27187 31.240623 90.42812 31.240623Q92.50625 31.240623 93.81875 32.6625Q95.14687 34.06875 95.14687 36.646873Q95.14687 36.803123 95.13125 37.115623L87.39687 37.115623Q87.49062 38.81875 88.36562 39.725Q89.24062 40.63125 90.5375 40.63125Q91.50625 40.63125 92.17812 40.13125Q92.86562 39.615623 93.27187 38.50625ZM87.49062 35.6625L93.2875 35.6625Q93.17812 34.365623 92.63125 33.709373Q91.7875 32.69375 90.44375 32.69375Q89.24062 32.69375 88.4125 33.50625Q87.58437 34.303123 87.49062 35.6625ZM103.39687 41.85L103.39687 27.537498L108.31875 27.537498Q109.99062 27.537498 110.88125 27.740623Q112.1 28.021873 112.975 28.756248Q114.1 29.724998 114.6625 31.209373Q115.225 32.69375 115.225 34.615623Q115.225 36.240623 114.85 37.50625Q114.475 38.75625 113.86562 39.584373Q113.27187 40.4125 112.56875 40.896873Q111.86562 41.365623 110.86562 41.615623Q109.86562 41.85 108.55312 41.85L103.39687 41.85ZM105.2875 40.1625L108.35 40.1625Q109.75625 40.1625 110.55312 39.896873Q111.36562 39.63125 111.85 39.146873Q112.52187 38.475 112.89687 37.35Q113.27187 36.209373 113.27187 34.584373Q113.27187 32.334373 112.5375 31.131248Q111.80312 29.928123 110.74062 29.521873Q109.99062 29.224998 108.30312 29.224998L105.2875 29.224998L105.2875 40.1625ZM123.94375 40.56875Q122.95937 41.396873 122.05312 41.740623Q121.14687 42.084373 120.11562 42.084373Q118.4125 42.084373 117.49062 41.25625Q116.56875 40.4125 116.56875 39.115623Q116.56875 38.35 116.9125 37.725Q117.27187 37.1 117.83437 36.725Q118.39687 36.334373 119.1 36.13125Q119.61562 36.00625 120.6625 35.865623Q122.7875 35.615623 123.7875 35.271873Q123.80312 34.9125 123.80312 34.803123Q123.80312 33.740623 123.30312 33.2875Q122.63125 32.69375 121.30312 32.69375Q120.05312 32.69375 119.45937 33.13125Q118.88125 33.56875 118.6 34.678123L116.88125 34.44375Q117.11562 33.334373 117.64687 32.6625Q118.17812 31.974998 119.19375 31.615623Q120.20937 31.240623 121.55312 31.240623Q122.88125 31.240623 123.70937 31.553123Q124.5375 31.865623 124.92812 32.35Q125.31875 32.81875 125.475 33.5375Q125.56875 33.990623 125.56875 35.1625L125.56875 37.50625Q125.56875 39.959373 125.67812 40.615623Q125.7875 41.25625 126.13125 41.85L124.2875 41.85Q124.02187 41.303123 123.94375 40.56875ZM123.7875 36.646873Q122.83437 37.0375 120.9125 37.303123Q119.83437 37.459373 119.38125 37.6625Q118.94375 37.85 118.69375 38.225Q118.44375 38.6 118.44375 39.06875Q118.44375 39.771873 118.975 40.240623Q119.50625 40.709373 120.5375 40.709373Q121.55312 40.709373 122.33437 40.271873Q123.13125 39.81875 123.50625 39.053123Q123.7875 38.44375 123.7875 37.2875L123.7875 36.646873ZM128.13126 41.85L128.13126 27.537498L129.88126 27.537498L129.88126 41.85L128.13126 41.85ZM132.13126 41.85L132.13126 27.537498L133.88126 27.537498L133.88126 41.85L132.13126 41.85ZM135.49063 37.553123L135.49063 35.7875L140.88126 35.7875L140.88126 37.553123L135.49063 37.553123ZM150.27188 38.50625L152.08438 38.740623Q151.6625 40.31875 150.49063 41.209373Q149.33438 42.084373 147.52188 42.084373Q145.25626 42.084373 143.9125 40.69375Q142.58438 39.2875 142.58438 36.75625Q142.58438 34.13125 143.92813 32.69375Q145.27188 31.240623 147.42813 31.240623Q149.50626 31.240623 150.81876 32.6625Q152.14688 34.06875 152.14688 36.646873Q152.14688 36.803123 152.13126 37.115623L144.39688 37.115623Q144.49063 38.81875 145.36563 39.725Q146.24063 40.63125 147.5375 40.63125Q148.50626 40.63125 149.17813 40.13125Q149.86563 39.615623 150.27188 38.50625ZM144.49063 35.6625L150.2875 35.6625Q150.17813 34.365623 149.63126 33.709373Q148.7875 32.69375 147.44376 32.69375Q146.24063 32.69375 145.4125 33.50625Q144.58438 34.303123 144.49063 35.6625ZM159.45938 38.75625L161.20938 38.475Q161.35 39.521873 162.02188 40.084373Q162.69376 40.63125 163.89688 40.63125Q165.1 40.63125 165.67813 40.146873Q166.27188 39.646873 166.27188 38.990623Q166.27188 38.396873 165.75626 38.053123Q165.39688 37.81875 163.95938 37.459373Q162.02188 36.959373 161.27188 36.615623Q160.5375 36.25625 160.14688 35.63125Q159.75626 34.990623 159.75626 34.225Q159.75626 33.5375 160.06876 32.94375Q160.39688 32.35 160.94376 31.959373Q161.35 31.662498 162.05313 31.459373Q162.77188 31.240623 163.58438 31.240623Q164.80313 31.240623 165.725 31.599998Q166.64688 31.943748 167.08438 32.553123Q167.52188 33.146873 167.69376 34.146873L165.975 34.38125Q165.85 33.584373 165.2875 33.146873Q164.725 32.69375 163.70938 32.69375Q162.49063 32.69375 161.975 33.1Q161.45938 33.490623 161.45938 34.021873Q161.45938 34.365623 161.67813 34.646873Q161.88126 34.928123 162.35 35.115623Q162.61563 35.209373 163.89688 35.553123Q165.77188 36.053123 166.50626 36.38125Q167.24063 36.69375 167.6625 37.303123Q168.08438 37.896873 168.08438 38.803123Q168.08438 39.678123 167.56876 40.459373Q167.05313 41.240623 166.08438 41.6625Q165.11563 42.084373 163.89688 42.084373Q161.88126 42.084373 160.81876 41.240623Q159.75626 40.396873 159.45938 38.75625ZM176.94376 38.053123L178.6625 38.271873Q178.38126 40.06875 177.20938 41.084373Q176.05313 42.084373 174.35 42.084373Q172.225 42.084373 170.92813 40.69375Q169.63126 39.303123 169.63126 36.709373Q169.63126 35.021873 170.17813 33.771873Q170.74063 32.50625 171.88126 31.881248Q173.02188 31.240623 174.36563 31.240623Q176.05313 31.240623 177.11563 32.1Q178.19376 32.959373 178.50626 34.521873L176.7875 34.7875Q176.55313 33.740623 175.92813 33.225Q175.30313 32.69375 174.42813 32.69375Q173.1 32.69375 172.27188 33.646873Q171.44376 34.6 171.44376 36.646873Q171.44376 38.740623 172.24063 39.69375Q173.0375 40.63125 174.33438 40.63125Q175.36563 40.63125 176.05313 40.00625Q176.75626 39.365623 176.94376 38.053123ZM179.52188 36.6625Q179.52188 33.7875 181.11563 32.396873Q182.45938 31.240623 184.38126 31.240623Q186.52188 31.240623 187.86563 32.646873Q189.225 34.053123 189.225 36.521873Q189.225 38.521873 188.63126 39.678123Q188.0375 40.81875 186.88126 41.459373Q185.74063 42.084373 184.38126 42.084373Q182.19376 42.084373 180.85 40.69375Q179.52188 39.2875 179.52188 36.6625ZM181.31876 36.6625Q181.31876 38.6625 182.17813 39.646873Q183.05313 40.63125 184.38126 40.63125Q185.69376 40.63125 186.55313 39.646873Q187.42813 38.646873 187.42813 36.6Q187.42813 34.678123 186.55313 33.69375Q185.67813 32.69375 184.38126 32.69375Q183.05313 32.69375 182.17813 33.69375Q181.31876 34.678123 181.31876 36.6625ZM191.14688 41.85L191.14688 31.474998L192.725 31.474998L192.725 33.053123Q193.33438 31.943748 193.85 31.599998Q194.36563 31.240623 194.975 31.240623Q195.86563 31.240623 196.7875 31.803123L196.17813 33.44375Q195.5375 33.053123 194.89688 33.053123Q194.31876 33.053123 193.85 33.4125Q193.39688 33.75625 193.19376 34.365623Q192.9125 35.303123 192.9125 36.4125L192.9125 41.85L191.14688 41.85ZM205.27188 38.50625L207.08438 38.740623Q206.6625 40.31875 205.49063 41.209373Q204.33438 42.084373 202.52188 42.084373Q200.25626 42.084373 198.9125 40.69375Q197.58438 39.2875 197.58438 36.75625Q197.58438 34.13125 198.92813 32.69375Q200.27188 31.240623 202.42813 31.240623Q204.50626 31.240623 205.81876 32.6625Q207.14688 34.06875 207.14688 36.646873Q207.14688 36.803123 207.13126 37.115623L199.39688 37.115623Q199.49063 38.81875 200.36563 39.725Q201.24063 40.63125 202.5375 40.63125Q203.50626 40.63125 204.17813 40.13125Q204.86563 39.615623 205.27188 38.50625ZM199.49063 35.6625L205.2875 35.6625Q205.17813 34.365623 204.63126 33.709373Q203.7875 32.69375 202.44376 32.69375Q201.24063 32.69375 200.4125 33.50625Q199.58438 34.303123 199.49063 35.6625ZM216.7875 41.85L215.1625 41.85L215.1625 27.537498L216.9125 27.537498L216.9125 32.646873Q218.0375 31.240623 219.75626 31.240623Q220.70938 31.240623 221.56876 31.631248Q222.42813 32.021873 222.975 32.725Q223.52188 33.4125 223.83438 34.396873Q224.14688 35.38125 224.14688 36.50625Q224.14688 39.178123 222.83438 40.63125Q221.52188 42.084373 219.67813 42.084373Q217.83438 42.084373 216.7875 40.553123L216.7875 41.85ZM216.77188 36.584373Q216.77188 38.44375 217.27188 39.2875Q218.11563 40.63125 219.52188 40.63125Q220.67813 40.63125 221.50626 39.63125Q222.35 38.63125 222.35 36.646873Q222.35 34.615623 221.5375 33.6625Q220.74063 32.69375 219.6 32.69375Q218.44376 32.69375 217.6 33.69375Q216.77188 34.69375 216.77188 36.584373ZM226.08438 45.85L225.89688 44.19375Q226.475 44.35 226.89688 44.35Q227.49063 44.35 227.83438 44.146873Q228.19376 43.959373 228.4125 43.615623Q228.58438 43.35 228.95938 42.303123Q229.00626 42.146873 229.11563 41.865623L225.17813 31.474998L227.06876 31.474998L229.225 37.490623Q229.64688 38.63125 229.975 39.88125Q230.2875 38.678123 230.69376 37.521873L232.9125 31.474998L234.67813 31.474998L230.725 42.021873Q230.1 43.740623 229.74063 44.38125Q229.27188 45.25625 228.6625 45.646873Q228.06876 46.053123 227.225 46.053123Q226.70938 46.053123 226.08438 45.85ZM248.94376 40.56875Q247.95938 41.396873 247.05313 41.740623Q246.14688 42.084373 245.11563 42.084373Q243.4125 42.084373 242.49063 41.25625Q241.56876 40.4125 241.56876 39.115623Q241.56876 38.35 241.9125 37.725Q242.27188 37.1 242.83438 36.725Q243.39688 36.334373 244.1 36.13125Q244.61563 36.00625 245.6625 35.865623Q247.7875 35.615623 248.7875 35.271873Q248.80313 34.9125 248.80313 34.803123Q248.80313 33.740623 248.30313 33.2875Q247.63126 32.69375 246.30313 32.69375Q245.05313 32.69375 244.45938 33.13125Q243.88126 33.56875 243.6 34.678123L241.88126 34.44375Q242.11563 33.334373 242.64688 32.6625Q243.17813 31.974998 244.19376 31.615623Q245.20938 31.240623 246.55313 31.240623Q247.88126 31.240623 248.70938 31.553123Q249.5375 31.865623 249.92813 32.35Q250.31876 32.81875 250.475 33.5375Q250.56876 33.990623 250.56876 35.1625L250.56876 37.50625Q250.56876 39.959373 250.67813 40.615623Q250.7875 41.25625 251.13126 41.85L249.2875 41.85Q249.02188 41.303123 248.94376 40.56875ZM248.7875 36.646873Q247.83438 37.0375 245.9125 37.303123Q244.83438 37.459373 244.38126 37.6625Q243.94376 37.85 243.69376 38.225Q243.44376 38.6 243.44376 39.06875Q243.44376 39.771873 243.975 40.240623Q244.50626 40.709373 245.5375 40.709373Q246.55313 40.709373 247.33438 40.271873Q248.13126 39.81875 248.50626 39.053123Q248.7875 38.44375 248.7875 37.2875L248.7875 36.646873ZM253.13126 41.85L253.13126 27.537498L254.88126 27.537498L254.88126 41.85L253.13126 41.85ZM256.85 42.709373L258.55313 42.959373Q258.6625 43.75625 259.14688 44.115623Q259.80313 44.6 260.94376 44.6Q262.1625 44.6 262.81876 44.115623Q263.49063 43.63125 263.725 42.75625Q263.86563 42.209373 263.85 40.490623Q262.69376 41.85 260.975 41.85Q258.83438 41.85 257.6625 40.303123Q256.49063 38.75625 256.49063 36.6Q256.49063 35.115623 257.02188 33.865623Q257.56876 32.615623 258.58438 31.928123Q259.61563 31.240623 260.99063 31.240623Q262.81876 31.240623 264.02188 32.725L264.02188 31.474998L265.63126 31.474998L265.63126 40.44375Q265.63126 42.865623 265.13126 43.865623Q264.64688 44.88125 263.56876 45.459373Q262.50626 46.053123 260.94376 46.053123Q259.1 46.053123 257.94376 45.225Q256.80313 44.396873 256.85 42.709373ZM258.30313 36.475Q258.30313 38.521873 259.11563 39.459373Q259.92813 40.396873 261.14688 40.396873Q262.35 40.396873 263.1625 39.459373Q263.99063 38.521873 263.99063 36.5375Q263.99063 34.63125 263.14688 33.6625Q262.30313 32.69375 261.11563 32.69375Q259.94376 32.69375 259.11563 33.646873Q258.30313 34.6 258.30313 36.475ZM267.52188 36.6625Q267.52188 33.7875 269.11563 32.396873Q270.45938 31.240623 272.38126 31.240623Q274.52188 31.240623 275.86563 32.646873Q277.225 34.053123 277.225 36.521873Q277.225 38.521873 276.63126 39.678123Q276.0375 40.81875 274.88126 41.459373Q273.74063 42.084373 272.38126 42.084373Q270.19376 42.084373 268.85 40.69375Q267.52188 39.2875 267.52188 36.6625ZM269.31876 36.6625Q269.31876 38.6625 270.17813 39.646873Q271.05313 40.63125 272.38126 40.63125Q273.69376 40.63125 274.55313 39.646873Q275.42813 38.646873 275.42813 36.6Q275.42813 34.678123 274.55313 33.69375Q273.67813 32.69375 272.38126 32.69375Q271.05313 32.69375 270.17813 33.69375Q269.31876 34.678123 269.31876 36.6625ZM279.14688 41.85L279.14688 31.474998L280.725 31.474998L280.725 33.053123Q281.33438 31.943748 281.85 31.599998Q282.36563 31.240623 282.975 31.240623Q283.86563 31.240623 284.7875 31.803123L284.17813 33.44375Q283.5375 33.053123 282.89688 33.053123Q282.31876 33.053123 281.85 33.4125Q281.39688 33.75625 281.19376 34.365623Q280.9125 35.303123 280.9125 36.4125L280.9125 41.85L279.14688 41.85ZM286.17813 29.553123L286.17813 27.537498L287.94376 27.537498L287.94376 29.553123L286.17813 29.553123ZM286.17813 41.85L286.17813 31.474998L287.94376 31.474998L287.94376 41.85L286.17813 41.85ZM294.00626 40.271873L294.25626 41.834373Q293.52188 41.990623 292.92813 41.990623Q291.975 41.990623 291.44376 41.69375Q290.92813 41.38125 290.70938 40.896873Q290.49063 40.396873 290.49063 38.81875L290.49063 32.85L289.20938 32.85L289.20938 31.474998L290.49063 31.474998L290.49063 28.912498L292.24063 27.849998L292.24063 31.474998L294.00626 31.474998L294.00626 32.85L292.24063 32.85L292.24063 38.9125Q292.24063 39.6625 292.33438 39.88125Q292.42813 40.084373 292.63126 40.225Q292.85 40.35 293.24063 40.35Q293.52188 40.35 294.00626 40.271873ZM296.1625 41.85L296.1625 27.537498L297.92813 27.537498L297.92813 32.6625Q299.1625 31.240623 301.0375 31.240623Q302.17813 31.240623 303.02188 31.693748Q303.88126 32.146873 304.24063 32.959373Q304.61563 33.75625 304.61563 35.271873L304.61563 41.85L302.86563 41.85L302.86563 35.271873Q302.86563 33.959373 302.2875 33.365623Q301.70938 32.75625 300.67813 32.75625Q299.89688 32.75625 299.19376 33.1625Q298.50626 33.56875 298.20938 34.271873Q297.92813 34.959373 297.92813 36.178123L297.92813 41.85L296.1625 41.85ZM306.1625 41.85L306.1625 31.474998L307.74063 31.474998L307.74063 32.928123Q308.225 32.178123 309.0375 31.709373Q309.85 31.240623 310.88126 31.240623Q312.0375 31.240623 312.77188 31.724998Q313.50626 32.19375 313.81876 33.053123Q315.05313 31.240623 317.02188 31.240623Q318.56876 31.240623 319.39688 32.1Q320.225 32.959373 320.225 34.725L320.225 41.85L318.475 41.85L318.475 35.31875Q318.475 34.25625 318.30313 33.803123Q318.13126 33.334373 317.67813 33.053123Q317.24063 32.771873 316.63126 32.771873Q315.5375 32.771873 314.80313 33.50625Q314.08438 34.225 314.08438 35.81875L314.08438 41.85L312.33438 41.85L312.33438 35.115623Q312.33438 33.94375 311.89688 33.365623Q311.475 32.771873 310.49063 32.771873Q309.75626 32.771873 309.11563 33.1625Q308.49063 33.553123 308.20938 34.303123Q307.92813 35.053123 307.92813 36.475L307.92813 41.85L306.1625 41.85Z" fill-rule="nonzero"/></svg>