<svg version="1.1" viewBox="0.0 0.0 733.0 457.0" fill="none" stroke="none" stroke-linecap="square" stroke-miterlimit="10" width="733" height="457" xmlns:xlink="http://www.w3.org/1999/xlink" xmlns="http://www.w3.org/2000/svg"><path fill="#ffffff" d="M0 0L733.0 0L733.0 457.0L0 457.0L0 0Z" fill-rule="nonzero"/><path fill="#4285f4" d="M366.5 62.083332C418.88168 62.083332 468.83612 84.166794 504.09116 122.90854C539.3462 161.65028 556.6346 213.4599 551.7091 265.6095L366.5 248.11667Z" fill-rule="nonzero"/><path fill="#34a853" d="M182.52176 220.54117C196.17271 129.46472 274.4062 62.083332 366.5 62.083332L366.5 248.11667Z" fill-rule="nonzero"/><path fill="#fbbc04" d="M348.4912 433.27628C297.7192 428.33817 251.20235 402.768 219.82434 362.54855C188.44635 322.32907 174.96037 270.98926 182.52176 220.54117L366.5 248.11667Z" fill-rule="nonzero"/><path fill="#ea4335" d="M551.7091 265.6095C547.0612 314.81943 523.02057 360.15656 484.8935 391.61362C446.76648 423.0707 397.688 438.06122 348.4912 433.27628L366.5 248.11667Z" fill-rule="nonzero"/><path fill="#000000" d="M459.65994 147.49506L459.65994 146.30756L466.15994 146.30756L466.15994 147.26068Q465.1912 148.2763 464.2537 149.9638Q463.3162 151.6513 462.80057 153.44818Q462.4412 154.69818 462.33182 156.19818L461.0662 156.19818Q461.08182 155.01068 461.51932 153.3388Q461.97244 151.66693 462.80057 150.12006Q463.64432 148.55756 464.58182 147.49506L459.65994 147.49506ZM468.26932 156.19818L468.26932 154.79193L469.67557 154.79193L469.67557 156.19818L468.26932 156.19818ZM475.53494 156.19818L475.53494 153.79193L471.17557 153.79193L471.17557 152.66693L475.7537 146.18256L476.7537 146.18256L476.7537 152.66693L478.11307 152.66693L478.11307 153.79193L476.7537 153.79193L476.7537 156.19818L475.53494 156.19818ZM475.53494 152.66693L475.53494 148.1513L472.39432 152.66693L475.53494 152.66693ZM479.65994 147.49506L479.65994 146.30756L486.15994 146.30756L486.15994 147.26068Q485.1912 148.2763 484.2537 149.9638Q483.3162 151.6513 482.80057 153.44818Q482.4412 154.69818 482.33182 156.19818L481.0662 156.19818Q481.08182 155.01068 481.51932 153.3388Q481.97244 151.66693 482.80057 150.12006Q483.64432 148.55756 484.58182 147.49506L479.65994 147.49506Z" fill-rule="nonzero"/><path fill="#000000" d="M445.1698 355.9371L445.1698 354.7496L451.6698 354.7496L451.6698 355.70273Q450.70105 356.71835 449.76355 358.40585Q448.82605 360.09335 448.31042 361.89023Q447.95105 363.14023 447.84167 364.64023L446.57605 364.64023Q446.59167 363.45273 447.02917 361.78085Q447.4823 360.10898 448.31042 358.5621Q449.15417 356.9996 450.09167 355.9371L445.1698 355.9371ZM453.77917 364.64023L453.77917 363.23398L455.18542 363.23398L455.18542 364.64023L453.77917 364.64023ZM457.09167 359.70273Q457.09167 357.92148 457.45105 356.84335Q457.82605 355.7496 458.5448 355.17148Q459.26355 354.57773 460.3573 354.57773Q461.1698 354.57773 461.77917 354.90585Q462.38855 355.23398 462.77917 355.84335Q463.18542 356.45273 463.40417 357.32773Q463.62292 358.20273 463.62292 359.70273Q463.62292 361.46835 463.26355 362.54648Q462.90417 363.6246 462.18542 364.21835Q461.46667 364.8121 460.3573 364.8121Q458.9198 364.8121 458.09167 363.76523Q457.09167 362.51523 457.09167 359.70273ZM458.3573 359.70273Q458.3573 362.17148 458.93542 362.98398Q459.51355 363.79648 460.3573 363.79648Q461.21667 363.79648 461.7948 362.98398Q462.37292 362.15585 462.37292 359.70273Q462.37292 357.21835 461.7948 356.40585Q461.21667 355.59335 460.34167 355.59335Q459.49792 355.59335 458.99792 356.3121Q458.3573 357.23398 458.3573 359.70273ZM471.4823 357.07773L470.26355 357.17148Q470.09167 356.4371 469.7948 356.10898Q469.2948 355.59335 468.56042 355.59335Q467.96667 355.59335 467.52917 355.92148Q466.95105 356.34335 466.6073 357.15585Q466.27917 357.96835 466.26355 359.46835Q466.70105 358.79648 467.34167 358.46835Q467.99792 358.14023 468.70105 358.14023Q469.93542 358.14023 470.7948 359.04648Q471.65417 359.95273 471.65417 361.39023Q471.65417 362.32773 471.24792 363.14023Q470.84167 363.95273 470.12292 364.39023Q469.4198 364.8121 468.51355 364.8121Q466.9823 364.8121 466.01355 363.6871Q465.0448 362.54648 465.0448 359.95273Q465.0448 357.04648 466.1073 355.71835Q467.0448 354.57773 468.63855 354.57773Q469.82605 354.57773 470.57605 355.2496Q471.32605 355.90585 471.4823 357.07773ZM466.45105 361.39023Q466.45105 362.03085 466.71667 362.60898Q466.99792 363.1871 467.4823 363.4996Q467.96667 363.79648 468.49792 363.79648Q469.27917 363.79648 469.84167 363.17148Q470.40417 362.54648 470.40417 361.46835Q470.40417 360.42148 469.84167 359.82773Q469.2948 359.21835 468.45105 359.21835Q467.62292 359.21835 467.02917 359.82773Q466.45105 360.42148 466.45105 361.39023Z" fill-rule="nonzero"/><path fill="#000000" d="M239.6518 332.96625L239.6518 331.77875L246.1518 331.77875L246.1518 332.73187Q245.18304 333.7475 244.24554 335.435Q243.30804 337.1225 242.79242 338.91937Q242.43304 340.16937 242.32367 341.66937L241.05804 341.66937Q241.07367 340.48187 241.51117 338.81Q241.9643 337.13812 242.79242 335.59125Q243.63617 334.02875 244.57367 332.96625L239.6518 332.96625ZM248.26117 341.66937L248.26117 340.26312L249.66742 340.26312L249.66742 341.66937L248.26117 341.66937ZM258.04242 340.48187L258.04242 341.66937L251.41742 341.66937Q251.4018 341.23187 251.55804 340.81Q251.82367 340.13812 252.37054 339.48187Q252.93304 338.82562 253.97992 337.96625Q255.62054 336.6225 256.18304 335.84125Q256.76117 335.06 256.76117 334.35687Q256.76117 333.6225 256.22992 333.1225Q255.7143 332.6225 254.88617 332.6225Q253.99554 332.6225 253.44867 333.15375Q252.91742 333.685 252.91742 334.63812L251.6518 334.4975Q251.7768 333.09125 252.62054 332.35687Q253.47992 331.60687 254.9018 331.60687Q256.35492 331.60687 257.18304 332.40375Q258.0268 333.20062 258.0268 334.38812Q258.0268 334.9975 257.7768 335.57562Q257.54242 336.15375 256.9643 336.79437Q256.4018 337.435 255.07367 338.56Q253.9643 339.48187 253.6518 339.82562Q253.3393 340.15375 253.13617 340.48187L258.04242 340.48187ZM261.4643 336.23187Q260.69867 335.95062 260.32367 335.435Q259.9643 334.91937 259.9643 334.185Q259.9643 333.09125 260.74554 332.35687Q261.54242 331.60687 262.8393 331.60687Q264.1518 331.60687 264.94867 332.3725Q265.76117 333.13812 265.76117 334.23187Q265.76117 334.91937 265.38617 335.435Q265.0268 335.95062 264.2768 336.23187Q265.19867 336.52875 265.68304 337.20062Q266.16742 337.8725 266.16742 338.81Q266.16742 340.09125 265.26117 340.96625Q264.35492 341.84125 262.87054 341.84125Q261.38617 341.84125 260.4643 340.96625Q259.55804 340.07562 259.55804 338.76312Q259.55804 337.79437 260.05804 337.13812Q260.55804 336.46625 261.4643 336.23187ZM261.22992 334.15375Q261.22992 334.85687 261.68304 335.31Q262.13617 335.76312 262.87054 335.76312Q263.5893 335.76312 264.04242 335.32562Q264.49554 334.8725 264.49554 334.21625Q264.49554 333.54437 264.0268 333.09125Q263.55804 332.6225 262.85492 332.6225Q262.1518 332.6225 261.68304 333.07562Q261.22992 333.51312 261.22992 334.15375ZM260.82367 338.77875Q260.82367 339.31 261.07367 339.81Q261.32367 340.29437 261.80804 340.56Q262.30804 340.82562 262.88617 340.82562Q263.76117 340.82562 264.32367 340.26312Q264.9018 339.70062 264.9018 338.82562Q264.9018 337.935 264.30804 337.35687Q263.72992 336.76312 262.8393 336.76312Q261.9643 336.76312 261.38617 337.34125Q260.82367 337.91937 260.82367 338.77875Z" fill-rule="nonzero"/><path fill="#000000" d="M265.19818 136.10085L263.97943 136.1946Q263.80756 135.46022 263.51068 135.1321Q263.01068 134.61647 262.2763 134.61647Q261.68256 134.61647 261.24506 134.9446Q260.66693 135.36647 260.32318 136.17897Q259.99506 136.99147 259.97943 138.49147Q260.41693 137.8196 261.05756 137.49147Q261.7138 137.16335 262.41693 137.16335Q263.6513 137.16335 264.51068 138.0696Q265.37006 138.97585 265.37006 140.41335Q265.37006 141.35085 264.9638 142.16335Q264.55756 142.97585 263.8388 143.41335Q263.13568 143.83522 262.22943 143.83522Q260.69818 143.83522 259.72943 142.71022Q258.76068 141.5696 258.76068 138.97585Q258.76068 136.0696 259.82318 134.74147Q260.76068 133.60085 262.35443 133.60085Q263.54193 133.60085 264.29193 134.27272Q265.04193 134.92897 265.19818 136.10085ZM260.16693 140.41335Q260.16693 141.05397 260.43256 141.6321Q260.7138 142.21022 261.19818 142.52272Q261.68256 142.8196 262.2138 142.8196Q262.99506 142.8196 263.55756 142.1946Q264.12006 141.5696 264.12006 140.49147Q264.12006 139.4446 263.55756 138.85085Q263.01068 138.24147 262.16693 138.24147Q261.3388 138.24147 260.74506 138.85085Q260.16693 139.4446 260.16693 140.41335ZM267.49506 143.66335L267.49506 142.2571L268.9013 142.2571L268.9013 143.66335L267.49506 143.66335ZM270.82318 141.02272L272.04193 140.85085Q272.26068 141.89772 272.76068 142.36647Q273.2763 142.8196 274.01068 142.8196Q274.88568 142.8196 275.47943 142.22585Q276.07318 141.61647 276.07318 140.72585Q276.07318 139.8821 275.51068 139.33522Q274.9638 138.78835 274.12006 138.78835Q273.76068 138.78835 273.24506 138.91335L273.38568 137.83522Q273.51068 137.85085 273.57318 137.85085Q274.37006 137.85085 274.99506 137.4446Q275.62006 137.03835 275.62006 136.17897Q275.62006 135.5071 275.16693 135.0696Q274.7138 134.61647 273.97943 134.61647Q273.26068 134.61647 272.7763 135.0696Q272.30756 135.5071 272.16693 136.41335L270.94818 136.1946Q271.16693 134.96022 271.9638 134.28835Q272.76068 133.60085 273.94818 133.60085Q274.7763 133.60085 275.4638 133.96022Q276.1513 134.30397 276.51068 134.91335Q276.88568 135.52272 276.88568 136.21022Q276.88568 136.85085 276.54193 137.3821Q276.19818 137.91335 275.51068 138.24147Q276.4013 138.4446 276.88568 139.08522Q277.38568 139.72585 277.38568 140.71022Q277.38568 142.02272 276.41693 142.92897Q275.4638 143.83522 274.01068 143.83522Q272.68256 143.83522 271.80756 143.05397Q270.94818 142.27272 270.82318 141.02272ZM280.69818 138.22585Q279.93256 137.9446 279.55756 137.42897Q279.19818 136.91335 279.19818 136.17897Q279.19818 135.08522 279.97943 134.35085Q280.7763 133.60085 282.07318 133.60085Q283.38568 133.60085 284.18256 134.36647Q284.99506 135.1321 284.99506 136.22585Q284.99506 136.91335 284.62006 137.42897Q284.26068 137.9446 283.51068 138.22585Q284.43256 138.52272 284.91693 139.1946Q285.4013 139.86647 285.4013 140.80397Q285.4013 142.08522 284.49506 142.96022Q283.5888 143.83522 282.10443 143.83522Q280.62006 143.83522 279.69818 142.96022Q278.79193 142.0696 278.79193 140.7571Q278.79193 139.78835 279.29193 139.1321Q279.79193 138.46022 280.69818 138.22585ZM280.4638 136.14772Q280.4638 136.85085 280.91693 137.30397Q281.37006 137.7571 282.10443 137.7571Q282.82318 137.7571 283.2763 137.3196Q283.72943 136.86647 283.72943 136.21022Q283.72943 135.53835 283.26068 135.08522Q282.79193 134.61647 282.0888 134.61647Q281.38568 134.61647 280.91693 135.0696Q280.4638 135.5071 280.4638 136.14772ZM280.05756 140.77272Q280.05756 141.30397 280.30756 141.80397Q280.55756 142.28835 281.04193 142.55397Q281.54193 142.8196 282.12006 142.8196Q282.99506 142.8196 283.55756 142.2571Q284.13568 141.6946 284.13568 140.8196Q284.13568 139.92897 283.54193 139.35085Q282.9638 138.7571 282.07318 138.7571Q281.19818 138.7571 280.62006 139.33522Q280.05756 139.91335 280.05756 140.77272Z" fill-rule="nonzero"/><path fill="#1a1a1a" d="M25.271875 109.70648L22.990625 101.11273L24.1625 101.11273L25.475 106.75336Q25.678125 107.62836 25.834375 108.50336Q26.1625 107.12836 26.225 106.90961L27.85 101.11273L29.225 101.11273L30.459375 105.45648Q30.9125 107.08148 31.13125 108.50336Q31.2875 107.69086 31.553125 106.62836L32.896873 101.11273L34.0375 101.11273L31.69375 109.70648L30.584375 109.70648L28.7875 103.15961Q28.553125 102.34711 28.50625 102.15961Q28.38125 102.73773 28.25625 103.15961L26.44375 109.70648L25.271875 109.70648ZM34.646873 109.70648L34.646873 101.11273L35.69375 101.11273L35.69375 104.19086Q36.428123 103.34711 37.553123 103.34711Q38.25625 103.34711 38.75625 103.62836Q39.271873 103.89398 39.490623 104.37836Q39.709373 104.84711 39.709373 105.76898L39.709373 109.70648L38.6625 109.70648L38.6625 105.76898Q38.6625 104.97211 38.31875 104.61273Q37.975 104.25336 37.35 104.25336Q36.88125 104.25336 36.459373 104.50336Q36.053123 104.73773 35.865623 105.15961Q35.69375 105.56586 35.69375 106.30023L35.69375 109.70648L34.646873 109.70648ZM41.25625 106.59711Q41.25625 104.86273 42.209373 104.03461Q43.00625 103.34711 44.1625 103.34711Q45.44375 103.34711 46.25625 104.19086Q47.084373 105.01898 47.084373 106.50336Q47.084373 107.70648 46.725 108.39398Q46.365623 109.08148 45.6625 109.47211Q44.975 109.84711 44.1625 109.84711Q42.865623 109.84711 42.053123 109.01898Q41.25625 108.17523 41.25625 106.59711ZM42.334373 106.59711Q42.334373 107.78461 42.85 108.37836Q43.38125 108.97211 44.1625 108.97211Q44.959373 108.97211 45.475 108.37836Q45.990623 107.78461 45.990623 106.56586Q45.990623 105.40961 45.459373 104.81586Q44.94375 104.22211 44.1625 104.22211Q43.38125 104.22211 42.85 104.81586Q42.334373 105.39398 42.334373 106.59711ZM48.615623 109.70648L48.615623 101.11273L49.678123 101.11273L49.678123 109.70648L48.615623 109.70648ZM55.896873 107.70648L56.990623 107.83148Q56.740623 108.78461 56.0375 109.31586Q55.334373 109.84711 54.25625 109.84711Q52.896873 109.84711 52.084373 109.00336Q51.2875 108.15961 51.2875 106.64398Q51.2875 105.08148 52.1 104.22211Q52.9125 103.34711 54.19375 103.34711Q55.44375 103.34711 56.225 104.19086Q57.021873 105.03461 57.021873 106.58148Q57.021873 106.67523 57.021873 106.86273L52.38125 106.86273Q52.44375 107.89398 52.959373 108.44086Q53.475 108.97211 54.25625 108.97211Q54.834373 108.97211 55.240623 108.67523Q55.6625 108.36273 55.896873 107.70648ZM52.44375 106.00336L55.9125 106.00336Q55.85 105.20648 55.521873 104.81586Q55.00625 104.20648 54.209373 104.20648Q53.475 104.20648 52.975 104.69086Q52.490623 105.17523 52.44375 106.00336ZM61.771873 109.70648L61.771873 101.11273L65.02187 101.11273Q65.86562 101.11273 66.31875 101.19086Q66.95937 101.30023 67.38125 101.59711Q67.81875 101.89398 68.06875 102.42523Q68.33437 102.95648 68.33437 103.59711Q68.33437 104.69086 67.63125 105.45648Q66.94375 106.20648 65.11562 106.20648L62.9125 106.20648L62.9125 109.70648L61.771873 109.70648ZM62.9125 105.20648L65.13125 105.20648Q66.24062 105.20648 66.69375 104.80023Q67.1625 104.37836 67.1625 103.62836Q67.1625 103.09711 66.88125 102.72211Q66.61562 102.33148 66.17812 102.20648Q65.88125 102.12836 65.11562 102.12836L62.9125 102.12836L62.9125 105.20648ZM73.70937 108.94086Q73.11562 109.44086 72.56875 109.64398Q72.0375 109.84711 71.4125 109.84711Q70.38125 109.84711 69.83437 109.34711Q69.2875 108.84711 69.2875 108.06586Q69.2875 107.61273 69.49062 107.23773Q69.69375 106.84711 70.0375 106.62836Q70.38125 106.39398 70.80312 106.28461Q71.1 106.19086 71.74062 106.11273Q73.00625 105.97211 73.61562 105.75336Q73.61562 105.53461 73.61562 105.48773Q73.61562 104.83148 73.31875 104.56586Q72.9125 104.22211 72.11562 104.22211Q71.38125 104.22211 71.02187 104.48773Q70.6625 104.73773 70.49062 105.39398L69.45937 105.25336Q69.6 104.59711 69.92812 104.19086Q70.25625 103.78461 70.86562 103.56586Q71.475 103.34711 72.27187 103.34711Q73.06875 103.34711 73.56875 103.53461Q74.06875 103.72211 74.30312 104.00336Q74.5375 104.28461 74.63125 104.72211Q74.67812 104.98773 74.67812 105.69086L74.67812 107.09711Q74.67812 108.56586 74.74062 108.95648Q74.81875 109.34711 75.02187 109.70648L73.9125 109.70648Q73.75625 109.37836 73.70937 108.94086ZM73.61562 106.58148Q73.0375 106.81586 71.89687 106.98773Q71.24062 107.08148 70.975 107.20648Q70.70937 107.31586 70.55312 107.53461Q70.4125 107.75336 70.4125 108.03461Q70.4125 108.45648 70.725 108.73773Q71.05312 109.01898 71.6625 109.01898Q72.27187 109.01898 72.74062 108.75336Q73.225 108.48773 73.44375 108.01898Q73.61562 107.65961 73.61562 106.97211L73.61562 106.58148ZM76.44375 110.22211L77.475 110.37836Q77.5375 110.84711 77.83437 111.06586Q78.225 111.36273 78.89687 111.36273Q79.63125 111.36273 80.02187 111.06586Q80.42812 110.76898 80.56875 110.25336Q80.6625 109.92523 80.64687 108.89398Q79.95937 109.70648 78.92812 109.70648Q77.64687 109.70648 76.94375 108.78461Q76.24062 107.84711 76.24062 106.56586Q76.24062 105.67523 76.55312 104.92523Q76.88125 104.15961 77.49062 103.75336Q78.1 103.34711 78.92812 103.34711Q80.0375 103.34711 80.75625 104.23773L80.75625 103.48773L81.725 103.48773L81.725 108.86273Q81.725 110.31586 81.42812 110.92523Q81.13125 111.53461 80.49062 111.87836Q79.85 112.23773 78.9125 112.23773Q77.80312 112.23773 77.11562 111.73773Q76.42812 111.23773 76.44375 110.22211ZM77.31875 106.48773Q77.31875 107.70648 77.80312 108.26898Q78.2875 108.83148 79.02187 108.83148Q79.75625 108.83148 80.24062 108.26898Q80.74062 107.70648 80.74062 106.51898Q80.74062 105.37836 80.225 104.80023Q79.725 104.22211 79.00625 104.22211Q78.30312 104.22211 77.80312 104.80023Q77.31875 105.36273 77.31875 106.48773ZM87.89687 107.70648L88.99062 107.83148Q88.74062 108.78461 88.0375 109.31586Q87.33437 109.84711 86.25625 109.84711Q84.89687 109.84711 84.08437 109.00336Q83.2875 108.15961 83.2875 106.64398Q83.2875 105.08148 84.1 104.22211Q84.9125 103.34711 86.19375 103.34711Q87.44375 103.34711 88.225 104.19086Q89.02187 105.03461 89.02187 106.58148Q89.02187 106.67523 89.02187 106.86273L84.38125 106.86273Q84.44375 107.89398 84.95937 108.44086Q85.475 108.97211 86.25625 108.97211Q86.83437 108.97211 87.24062 108.67523Q87.6625 108.36273 87.89687 107.70648ZM84.44375 106.00336L87.9125 106.00336Q87.85 105.20648 87.52187 104.81586Q87.00625 104.20648 86.20937 104.20648Q85.475 104.20648 84.975 104.69086Q84.49062 105.17523 84.44375 106.00336Z" fill-rule="nonzero"/><path fill="#9e9e9e" d="M28.896875 125.69086L28.896875 126.70648L23.209375 126.70648Q23.209375 126.33148 23.334375 125.97211Q23.553125 125.39398 24.021875 124.83148Q24.50625 124.26898 25.4125 123.53461Q26.81875 122.37836 27.303125 121.70648Q27.803125 121.03461 27.803125 120.44086Q27.803125 119.81586 27.35 119.39398Q26.896875 118.95648 26.178125 118.95648Q25.4125 118.95648 24.959375 119.40961Q24.50625 119.86273 24.490625 120.67523L23.4125 120.56586Q23.521875 119.34711 24.240625 118.72211Q24.975 118.08148 26.209375 118.08148Q27.44375 118.08148 28.1625 118.76898Q28.88125 119.45648 28.88125 120.47211Q28.88125 120.98773 28.6625 121.48773Q28.459375 121.97211 27.959375 122.53461Q27.475 123.08148 26.35 124.03461Q25.396875 124.83148 25.115625 125.12836Q24.85 125.40961 24.678125 125.69086L28.896875 125.69086ZM35.896873 125.69086L35.896873 126.70648L30.209375 126.70648Q30.209375 126.33148 30.334375 125.97211Q30.553125 125.39398 31.021875 124.83148Q31.50625 124.26898 32.4125 123.53461Q33.81875 122.37836 34.303123 121.70648Q34.803123 121.03461 34.803123 120.44086Q34.803123 119.81586 34.35 119.39398Q33.896873 118.95648 33.178123 118.95648Q32.4125 118.95648 31.959375 119.40961Q31.50625 119.86273 31.490625 120.67523L30.4125 120.56586Q30.521875 119.34711 31.240625 118.72211Q31.975 118.08148 33.209373 118.08148Q34.44375 118.08148 35.1625 118.76898Q35.88125 119.45648 35.88125 120.47211Q35.88125 120.98773 35.6625 121.48773Q35.459373 121.97211 34.959373 122.53461Q34.475 123.08148 33.35 124.03461Q32.396873 124.83148 32.115623 125.12836Q31.85 125.40961 31.678125 125.69086L35.896873 125.69086ZM37.94375 126.70648L37.94375 125.50336L39.146873 125.50336L39.146873 126.70648L37.94375 126.70648ZM45.81875 120.22211L44.771873 120.30023Q44.63125 119.67523 44.38125 119.39398Q43.94375 118.94086 43.31875 118.94086Q42.81875 118.94086 42.428123 119.22211Q41.94375 119.59711 41.646873 120.30023Q41.365623 120.98773 41.35 122.26898Q41.725 121.69086 42.271873 121.40961Q42.834373 121.12836 43.44375 121.12836Q44.490623 121.12836 45.225 121.90961Q45.975 122.69086 45.975 123.90961Q45.975 124.72211 45.615623 125.42523Q45.271873 126.11273 44.6625 126.48773Q44.053123 126.84711 43.2875 126.84711Q41.959373 126.84711 41.13125 125.87836Q40.303123 124.90961 40.303123 122.69086Q40.303123 120.19086 41.225 119.06586Q42.021873 118.08148 43.38125 118.08148Q44.396873 118.08148 45.0375 118.65961Q45.69375 119.22211 45.81875 120.22211ZM41.521873 123.92523Q41.521873 124.47211 41.740623 124.97211Q41.975 125.45648 42.38125 125.72211Q42.803123 125.98773 43.271873 125.98773Q43.928123 125.98773 44.4125 125.45648Q44.896873 124.90961 44.896873 123.98773Q44.896873 123.09711 44.4125 122.58148Q43.94375 122.06586 43.225 122.06586Q42.50625 122.06586 42.00625 122.58148Q41.521873 123.09711 41.521873 123.92523ZM47.553123 120.17523Q47.553123 119.25336 48.00625 118.61273Q48.475 117.97211 49.35 117.97211Q50.1625 117.97211 50.69375 118.55023Q51.225 119.12836 51.225 120.23773Q51.225 121.33148 50.678123 121.92523Q50.146873 122.50336 49.365623 122.50336Q48.584373 122.50336 48.06875 121.92523Q47.553123 121.34711 47.553123 120.17523ZM49.38125 118.69086Q48.990623 118.69086 48.725 119.03461Q48.475 119.37836 48.475 120.28461Q48.475 121.11273 48.725 121.45648Q48.990623 121.78461 49.38125 121.78461Q49.7875 121.78461 50.0375 121.44086Q50.303123 121.09711 50.303123 120.20648Q50.303123 119.36273 50.0375 119.03461Q49.771873 118.69086 49.38125 118.69086ZM49.38125 127.01898L54.084373 117.97211L54.94375 117.97211L50.25625 127.01898L49.38125 127.01898ZM53.1 124.69086Q53.1 123.76898 53.553123 123.12836Q54.021873 122.48773 54.9125 122.48773Q55.725 122.48773 56.25625 123.06586Q56.7875 123.62836 56.7875 124.75336Q56.7875 125.84711 56.240623 126.44086Q55.709373 127.01898 54.9125 127.01898Q54.146873 127.01898 53.615623 126.44086Q53.1 125.86273 53.1 124.69086ZM54.94375 123.20648Q54.5375 123.20648 54.271873 123.55023Q54.021873 123.89398 54.021873 124.80023Q54.021873 125.61273 54.2875 125.95648Q54.553123 126.30023 54.94375 126.30023Q55.334373 126.30023 55.6 125.95648Q55.865623 125.61273 55.865623 124.70648Q55.865623 123.87836 55.6 123.55023Q55.334373 123.20648 54.94375 123.20648Z" fill-rule="nonzero"/><path stroke="#757575" stroke-width="1.0" stroke-linecap="butt" d="M22.85 114.20648L174.46666 114.20648L251.16507 114.20648" fill-rule="nonzero"/><path fill="#9e9e9e" d="M253.16507 114.20648C253.16507 113.10191 252.26964 112.20648 251.16507 112.20648C250.0605 112.20648 249.16507 113.10191 249.16507 114.20648C249.16507 115.31105 250.0605 116.20648 251.16507 116.20648C252.26964 116.20648 253.16507 115.31105 253.16507 114.20648" fill-rule="nonzero"/><path fill="#1a1a1a" d="M27.803125 348.95193L27.803125 347.95193L31.428125 347.9363L31.428125 351.1238Q30.6 351.7957 29.709375 352.13943Q28.81875 352.46756 27.88125 352.46756Q26.615625 352.46756 25.56875 351.9363Q24.5375 351.38943 24.00625 350.3738Q23.490625 349.34256 23.490625 348.07693Q23.490625 346.8113 24.00625 345.7332Q24.5375 344.63943 25.521875 344.1238Q26.50625 343.59256 27.7875 343.59256Q28.725 343.59256 29.475 343.88943Q30.225 344.1863 30.646875 344.7332Q31.084375 345.26443 31.303125 346.13943L30.2875 346.4207Q30.084375 345.76443 29.7875 345.38943Q29.50625 345.01443 28.975 344.7957Q28.44375 344.5613 27.803125 344.5613Q27.021875 344.5613 26.44375 344.7957Q25.88125 345.03006 25.521875 345.4207Q25.178125 345.8113 24.990625 346.28006Q24.6625 347.07693 24.6625 347.9988Q24.6625 349.15506 25.053125 349.9363Q25.459375 350.70193 26.209375 351.07693Q26.959375 351.45193 27.81875 351.45193Q28.553125 351.45193 29.25625 351.1707Q29.959375 350.8738 30.31875 350.5613L30.31875 348.95193L27.803125 348.95193ZM32.771873 352.32693L32.771873 343.7332L36.021873 343.7332Q36.865623 343.7332 37.31875 343.8113Q37.959373 343.9207 38.38125 344.21756Q38.81875 344.51443 39.06875 345.0457Q39.334373 345.57693 39.334373 346.21756Q39.334373 347.3113 38.63125 348.07693Q37.94375 348.82693 36.115623 348.82693L33.9125 348.82693L33.9125 352.32693L32.771873 352.32693ZM33.9125 347.82693L36.13125 347.82693Q37.240623 347.82693 37.69375 347.4207Q38.1625 346.9988 38.1625 346.2488Q38.1625 345.71756 37.88125 345.34256Q37.615623 344.95193 37.178123 344.82693Q36.88125 344.7488 36.115623 344.7488L33.9125 344.7488L33.9125 347.82693ZM42.959373 352.32693L42.959373 344.7488L40.13125 344.7488L40.13125 343.7332L46.94375 343.7332L46.94375 344.7488L44.1 344.7488L44.1 352.32693L42.959373 352.32693ZM47.225 349.7488L47.225 348.6863L50.475 348.6863L50.475 349.7488L47.225 349.7488ZM54.725 352.32693L54.725 350.26443L51.00625 350.26443L51.00625 349.2957L54.928123 343.7332L55.7875 343.7332L55.7875 349.2957L56.94375 349.2957L56.94375 350.26443L55.7875 350.26443L55.7875 352.32693L54.725 352.32693ZM54.725 349.2957L54.725 345.4363L52.0375 349.2957L54.725 349.2957Z" fill-rule="nonzero"/><path fill="#9e9e9e" d="M28.896875 368.3113L28.896875 369.32693L23.209375 369.32693Q23.209375 368.95193 23.334375 368.59256Q23.553125 368.01443 24.021875 367.45193Q24.50625 366.88943 25.4125 366.15506Q26.81875 364.9988 27.303125 364.32693Q27.803125 363.65506 27.803125 363.0613Q27.803125 362.4363 27.35 362.01443Q26.896875 361.57693 26.178125 361.57693Q25.4125 361.57693 24.959375 362.03006Q24.50625 362.4832 24.490625 363.2957L23.4125 363.1863Q23.521875 361.96756 24.240625 361.34256Q24.975 360.70193 26.209375 360.70193Q27.44375 360.70193 28.1625 361.38943Q28.88125 362.07693 28.88125 363.09256Q28.88125 363.6082 28.6625 364.1082Q28.459375 364.59256 27.959375 365.15506Q27.475 365.70193 26.35 366.65506Q25.396875 367.45193 25.115625 367.7488Q24.85 368.03006 24.678125 368.3113L28.896875 368.3113ZM30.35 367.07693L31.459375 366.9832Q31.584375 367.7957 32.021873 368.20193Q32.475 368.6082 33.115623 368.6082Q33.865623 368.6082 34.396873 368.03006Q34.928123 367.45193 34.928123 366.51443Q34.928123 365.6082 34.4125 365.09256Q33.9125 364.5613 33.084373 364.5613Q32.584373 364.5613 32.1625 364.7957Q31.75625 365.03006 31.521875 365.38943L30.5375 365.26443L31.365625 360.8582L35.646873 360.8582L35.646873 361.8582L32.209373 361.8582L31.75625 364.1707Q32.521873 363.6238 33.365623 363.6238Q34.490623 363.6238 35.25625 364.40506Q36.0375 365.1863 36.0375 366.4207Q36.0375 367.57693 35.365623 368.4363Q34.5375 369.46756 33.115623 369.46756Q31.94375 369.46756 31.19375 368.8113Q30.459375 368.15506 30.35 367.07693ZM37.94375 369.32693L37.94375 368.1238L39.146873 368.1238L39.146873 369.32693L37.94375 369.32693ZM41.975 364.6707Q41.31875 364.4207 40.990623 363.9832Q40.678123 363.53006 40.678123 362.9207Q40.678123 361.9832 41.35 361.34256Q42.0375 360.70193 43.146873 360.70193Q44.271873 360.70193 44.959373 361.3582Q45.646873 362.01443 45.646873 362.95193Q45.646873 363.5457 45.334373 363.9832Q45.021873 364.4207 44.38125 364.6707Q45.178123 364.9207 45.584373 365.4988Q45.990623 366.07693 45.990623 366.8738Q45.990623 367.96756 45.209373 368.71756Q44.44375 369.46756 43.1625 369.46756Q41.896873 369.46756 41.115623 368.71756Q40.334373 367.96756 40.334373 366.84256Q40.334373 365.9988 40.75625 365.4363Q41.19375 364.8738 41.975 364.6707ZM41.75625 362.8738Q41.75625 363.4832 42.146873 363.8738Q42.553123 364.26443 43.178123 364.26443Q43.7875 364.26443 44.178123 363.88943Q44.56875 363.4988 44.56875 362.9363Q44.56875 362.3582 44.1625 361.96756Q43.75625 361.5613 43.1625 361.5613Q42.553123 361.5613 42.146873 361.95193Q41.75625 362.34256 41.75625 362.8738ZM41.428123 366.84256Q41.428123 367.2957 41.63125 367.71756Q41.85 368.13943 42.271873 368.3738Q42.69375 368.6082 43.178123 368.6082Q43.928123 368.6082 44.4125 368.1238Q44.9125 367.63943 44.9125 366.88943Q44.9125 366.1238 44.4125 365.6238Q43.9125 365.1238 43.146873 365.1238Q42.396873 365.1238 41.9125 365.6238Q41.428123 366.1082 41.428123 366.84256ZM47.553123 362.7957Q47.553123 361.8738 48.00625 361.2332Q48.475 360.59256 49.35 360.59256Q50.1625 360.59256 50.69375 361.1707Q51.225 361.7488 51.225 362.8582Q51.225 363.95193 50.678123 364.5457Q50.146873 365.1238 49.365623 365.1238Q48.584373 365.1238 48.06875 364.5457Q47.553123 363.96756 47.553123 362.7957ZM49.38125 361.3113Q48.990623 361.3113 48.725 361.65506Q48.475 361.9988 48.475 362.90506Q48.475 363.7332 48.725 364.07693Q48.990623 364.40506 49.38125 364.40506Q49.7875 364.40506 50.0375 364.0613Q50.303123 363.71756 50.303123 362.82693Q50.303123 361.9832 50.0375 361.65506Q49.771873 361.3113 49.38125 361.3113ZM49.38125 369.63943L54.084373 360.59256L54.94375 360.59256L50.25625 369.63943L49.38125 369.63943ZM53.1 367.3113Q53.1 366.38943 53.553123 365.7488Q54.021873 365.1082 54.9125 365.1082Q55.725 365.1082 56.25625 365.6863Q56.7875 366.2488 56.7875 367.3738Q56.7875 368.46756 56.240623 369.0613Q55.709373 369.63943 54.9125 369.63943Q54.146873 369.63943 53.615623 369.0613Q53.1 368.4832 53.1 367.3113ZM54.94375 365.82693Q54.5375 365.82693 54.271873 366.1707Q54.021873 366.51443 54.021873 367.4207Q54.021873 368.2332 54.2875 368.57693Q54.553123 368.9207 54.94375 368.9207Q55.334373 368.9207 55.6 368.57693Q55.865623 368.2332 55.865623 367.32693Q55.865623 366.4988 55.6 366.1707Q55.334373 365.82693 54.94375 365.82693Z" fill-rule="nonzero"/><path stroke="#757575" stroke-width="1.0" stroke-linecap="butt" d="M22.85 356.82693L174.46666 356.82693L227.15813 356.82693" fill-rule="nonzero"/><path fill="#9e9e9e" d="M229.15813 356.82693C229.15813 355.72238 228.2627 354.82693 227.15813 354.82693C226.05356 354.82693 225.15813 355.72238 225.15813 356.82693C225.15813 357.93152 226.05356 358.82693 227.15813 358.82693C228.2627 358.82693 229.15813 357.93152 229.15813 356.82693" fill-rule="nonzero"/><path fill="#1a1a1a" d="M670.2125 121.65332L671.3375 121.950195Q670.97815 123.34082 670.0563 124.075195Q669.1344 124.80957 667.79065 124.80957Q666.4 124.80957 665.525 124.24707Q664.65 123.68457 664.1969 122.62207Q663.7438 121.543945 663.7438 120.30957Q663.7438 118.96582 664.2594 117.96582Q664.775 116.96582 665.7125 116.450195Q666.66565 115.93457 667.8063 115.93457Q669.0875 115.93457 669.9625 116.59082Q670.85315 117.24707 671.1969 118.43457L670.0719 118.700195Q669.775 117.762695 669.1969 117.34082Q668.6344 116.90332 667.775 116.90332Q666.79065 116.90332 666.1188 117.387695Q665.4625 117.856445 665.1813 118.65332Q664.91565 119.450195 664.91565 120.30957Q664.91565 121.40332 665.22815 122.21582Q665.5563 123.02832 666.22815 123.43457Q666.9 123.84082 667.6969 123.84082Q668.65 123.84082 669.3063 123.293945Q669.97815 122.74707 670.2125 121.65332ZM672.91565 124.668945L672.91565 116.075195L673.97815 116.075195L673.97815 124.668945L672.91565 124.668945ZM680.0094 123.90332Q679.41565 124.40332 678.8688 124.606445Q678.3375 124.80957 677.7125 124.80957Q676.6813 124.80957 676.1344 124.30957Q675.5875 123.80957 675.5875 123.02832Q675.5875 122.575195 675.79065 122.200195Q675.9938 121.80957 676.3375 121.59082Q676.6813 121.356445 677.10315 121.24707Q677.4 121.15332 678.04065 121.075195Q679.3063 120.93457 679.91565 120.71582Q679.91565 120.49707 679.91565 120.450195Q679.91565 119.793945 679.6188 119.52832Q679.2125 119.18457 678.41565 119.18457Q677.6813 119.18457 677.3219 119.450195Q676.9625 119.700195 676.79065 120.356445L675.7594 120.21582Q675.9 119.55957 676.22815 119.15332Q676.5563 118.74707 677.16565 118.52832Q677.775 118.30957 678.5719 118.30957Q679.3688 118.30957 679.8688 118.49707Q680.3688 118.68457 680.60315 118.96582Q680.8375 119.24707 680.9313 119.68457Q680.97815 119.950195 680.97815 120.65332L680.97815 122.05957Q680.97815 123.52832 681.04065 123.918945Q681.1188 124.30957 681.3219 124.668945L680.2125 124.668945Q680.0563 124.34082 680.0094 123.90332ZM679.91565 121.543945Q679.3375 121.77832 678.1969 121.950195Q677.54065 122.043945 677.275 122.168945Q677.0094 122.27832 676.85315 122.49707Q676.7125 122.71582 676.7125 122.99707Q676.7125 123.418945 677.025 123.700195Q677.35315 123.981445 677.9625 123.981445Q678.5719 123.981445 679.04065 123.71582Q679.525 123.450195 679.7438 122.981445Q679.91565 122.62207 679.91565 121.93457L679.91565 121.543945ZM687.025 124.668945L687.025 123.74707Q686.29065 124.80957 685.04065 124.80957Q684.4938 124.80957 684.0094 124.606445Q683.54065 124.387695 683.3063 124.075195Q683.0719 123.74707 682.97815 123.27832Q682.91565 122.981445 682.91565 122.293945L682.91565 118.450195L683.97815 118.450195L683.97815 121.90332Q683.97815 122.71582 684.04065 123.012695Q684.1344 123.418945 684.4469 123.668945Q684.775 123.90332 685.2594 123.90332Q685.72815 123.90332 686.1344 123.668945Q686.5563 123.418945 686.72815 122.99707Q686.91565 122.575195 686.91565 121.77832L686.91565 118.450195L687.9625 118.450195L687.9625 124.668945L687.025 124.668945ZM693.97815 124.668945L693.97815 123.887695Q693.3844 124.80957 692.2438 124.80957Q691.4938 124.80957 690.8688 124.40332Q690.2438 123.981445 689.9 123.24707Q689.5563 122.512695 689.5563 121.55957Q689.5563 120.637695 689.8688 119.87207Q690.1813 119.106445 690.8063 118.71582Q691.4313 118.30957 692.1969 118.30957Q692.7594 118.30957 693.1969 118.543945Q693.6344 118.77832 693.91565 119.15332L693.91565 116.075195L694.9625 116.075195L694.9625 124.668945L693.97815 124.668945ZM690.65 121.55957Q690.65 122.762695 691.15 123.356445Q691.65 123.93457 692.3375 123.93457Q693.025 123.93457 693.5094 123.37207Q693.9938 122.80957 693.9938 121.65332Q693.9938 120.37207 693.4938 119.77832Q693.0094 119.18457 692.29065 119.18457Q691.5875 119.18457 691.1188 119.762695Q690.65 120.325195 690.65 121.55957ZM701.1969 122.668945L702.29065 122.793945Q702.04065 123.74707 701.3375 124.27832Q700.6344 124.80957 699.5563 124.80957Q698.1969 124.80957 697.3844 123.96582Q696.5875 123.12207 696.5875 121.606445Q696.5875 120.043945 697.4 119.18457Q698.2125 118.30957 699.4938 118.30957Q700.7438 118.30957 701.525 119.15332Q702.3219 119.99707 702.3219 121.543945Q702.3219 121.637695 702.3219 121.825195L697.6813 121.825195Q697.7438 122.856445 698.2594 123.40332Q698.775 123.93457 699.5563 123.93457Q700.1344 123.93457 700.54065 123.637695Q700.9625 123.325195 701.1969 122.668945ZM697.7438 120.96582L701.2125 120.96582Q701.15 120.168945 700.8219 119.77832Q700.3063 119.168945 699.5094 119.168945Q698.775 119.168945 698.275 119.65332Q697.79065 120.137695 697.7438 120.96582ZM703.65 122.40332L704.7125 122.262695Q704.8844 123.15332 705.3219 123.55957Q705.7594 123.950195 706.3844 123.950195Q707.1344 123.950195 707.65 123.43457Q708.16565 122.918945 708.16565 122.15332Q708.16565 121.43457 707.6813 120.96582Q707.2125 120.481445 706.47815 120.481445Q706.1813 120.481445 705.72815 120.606445L705.85315 119.668945Q705.9625 119.68457 706.025 119.68457Q706.6969 119.68457 707.22815 119.34082Q707.775 118.981445 707.775 118.24707Q707.775 117.668945 707.3844 117.293945Q706.9938 116.90332 706.3688 116.90332Q705.7594 116.90332 705.3375 117.293945Q704.9313 117.68457 704.8219 118.450195L703.7594 118.262695Q703.9469 117.21582 704.6344 116.637695Q705.3219 116.043945 706.3375 116.043945Q707.04065 116.043945 707.6344 116.356445Q708.22815 116.65332 708.54065 117.168945Q708.85315 117.68457 708.85315 118.27832Q708.85315 118.825195 708.5563 119.293945Q708.2594 119.74707 707.6813 120.012695Q708.4313 120.18457 708.85315 120.74707Q709.275 121.293945 709.275 122.137695Q709.275 123.262695 708.4469 124.043945Q707.6344 124.825195 706.3844 124.825195Q705.2594 124.825195 704.5094 124.15332Q703.7594 123.46582 703.65 122.40332Z" fill-rule="nonzero"/><path fill="#9e9e9e" d="M681.1969 140.65332L681.1969 141.66895L675.5094 141.66895Q675.5094 141.29395 675.6344 140.93457Q675.85315 140.35645 676.3219 139.79395Q676.8063 139.23145 677.7125 138.49707Q679.1188 137.34082 679.60315 136.66895Q680.10315 135.99707 680.10315 135.40332Q680.10315 134.77832 679.65 134.35645Q679.1969 133.91895 678.47815 133.91895Q677.7125 133.91895 677.2594 134.37207Q676.8063 134.8252 676.79065 135.6377L675.7125 135.52832Q675.8219 134.30957 676.54065 133.68457Q677.275 133.04395 678.5094 133.04395Q679.7438 133.04395 680.4625 133.73145Q681.1813 134.41895 681.1813 135.43457Q681.1813 135.9502 680.9625 136.4502Q680.7594 136.93457 680.2594 137.49707Q679.775 138.04395 678.65 138.99707Q677.6969 139.79395 677.41565 140.09082Q677.15 140.37207 676.97815 140.65332L681.1969 140.65332ZM688.1188 135.18457L687.0719 135.2627Q686.9313 134.6377 686.6813 134.35645Q686.2438 133.90332 685.6188 133.90332Q685.1188 133.90332 684.72815 134.18457Q684.2438 134.55957 683.9469 135.2627Q683.66565 135.9502 683.65 137.23145Q684.025 136.65332 684.5719 136.37207Q685.1344 136.09082 685.7438 136.09082Q686.79065 136.09082 687.525 136.87207Q688.275 137.65332 688.275 138.87207Q688.275 139.68457 687.91565 140.3877Q687.5719 141.0752 686.9625 141.4502Q686.35315 141.80957 685.5875 141.80957Q684.2594 141.80957 683.4313 140.84082Q682.60315 139.87207 682.60315 137.65332Q682.60315 135.15332 683.525 134.02832Q684.3219 133.04395 685.6813 133.04395Q686.6969 133.04395 687.3375 133.62207Q687.9938 134.18457 688.1188 135.18457ZM683.8219 138.8877Q683.8219 139.43457 684.04065 139.93457Q684.275 140.41895 684.6813 140.68457Q685.10315 140.9502 685.5719 140.9502Q686.22815 140.9502 686.7125 140.41895Q687.1969 139.87207 687.1969 138.9502Q687.1969 138.05957 686.7125 137.54395Q686.2438 137.02832 685.525 137.02832Q684.8063 137.02832 684.3063 137.54395Q683.8219 138.05957 683.8219 138.8877ZM690.2438 141.66895L690.2438 140.46582L691.4469 140.46582L691.4469 141.66895L690.2438 141.66895ZM692.65 139.41895L693.7594 139.3252Q693.8844 140.1377 694.3219 140.54395Q694.775 140.9502 695.41565 140.9502Q696.16565 140.9502 696.6969 140.37207Q697.22815 139.79395 697.22815 138.85645Q697.22815 137.9502 696.7125 137.43457Q696.2125 136.90332 695.3844 136.90332Q694.8844 136.90332 694.4625 137.1377Q694.0563 137.37207 693.8219 137.73145L692.8375 137.60645L693.66565 133.2002L697.9469 133.2002L697.9469 134.2002L694.5094 134.2002L694.0563 136.5127Q694.8219 135.96582 695.66565 135.96582Q696.79065 135.96582 697.5563 136.74707Q698.3375 137.52832 698.3375 138.7627Q698.3375 139.91895 697.66565 140.77832Q696.8375 141.80957 695.41565 141.80957Q694.2438 141.80957 693.4938 141.15332Q692.7594 140.49707 692.65 139.41895ZM699.85315 135.1377Q699.85315 134.21582 700.3063 133.5752Q700.775 132.93457 701.65 132.93457Q702.4625 132.93457 702.9938 133.5127Q703.525 134.09082 703.525 135.2002Q703.525 136.29395 702.97815 136.8877Q702.4469 137.46582 701.66565 137.46582Q700.8844 137.46582 700.3688 136.8877Q699.85315 136.30957 699.85315 135.1377ZM701.6813 133.65332Q701.29065 133.65332 701.025 133.99707Q700.775 134.34082 700.775 135.24707Q700.775 136.0752 701.025 136.41895Q701.29065 136.74707 701.6813 136.74707Q702.0875 136.74707 702.3375 136.40332Q702.60315 136.05957 702.60315 135.16895Q702.60315 134.3252 702.3375 133.99707Q702.0719 133.65332 701.6813 133.65332ZM701.6813 141.98145L706.3844 132.93457L707.2438 132.93457L702.5563 141.98145L701.6813 141.98145ZM705.4 139.65332Q705.4 138.73145 705.85315 138.09082Q706.3219 137.4502 707.2125 137.4502Q708.025 137.4502 708.5563 138.02832Q709.0875 138.59082 709.0875 139.71582Q709.0875 140.80957 708.54065 141.40332Q708.0094 141.98145 707.2125 141.98145Q706.4469 141.98145 705.91565 141.40332Q705.4 140.8252 705.4 139.65332ZM707.2438 138.16895Q706.8375 138.16895 706.5719 138.5127Q706.3219 138.85645 706.3219 139.7627Q706.3219 140.5752 706.5875 140.91895Q706.85315 141.2627 707.2438 141.2627Q707.6344 141.2627 707.9 140.91895Q708.16565 140.5752 708.16565 139.66895Q708.16565 138.84082 707.9 138.5127Q707.6344 138.16895 707.2438 138.16895Z" fill-rule="nonzero"/><path stroke="#757575" stroke-width="1.0" stroke-linecap="butt" d="M710.15 129.16895L558.5333 129.16895L497.2116 129.16895" fill-rule="nonzero"/><path fill="#9e9e9e" d="M499.2116 129.16895C499.2116 128.06438 498.31616 127.168945 497.2116 127.168945C496.10703 127.168945 495.2116 128.06438 495.2116 129.16895C495.2116 130.27351 496.10703 131.16895 497.2116 131.16895C498.31616 131.16895 499.2116 130.27351 499.2116 129.16895" fill-rule="nonzero"/><path fill="#1a1a1a" d="M675.10315 376.56378L675.10315 375.56378L678.72815 375.54816L678.72815 378.73566Q677.9 379.40753 677.0094 379.75128Q676.1188 380.0794 675.1813 380.0794Q673.91565 380.0794 672.8688 379.54816Q671.8375 379.00128 671.3063 377.98566Q670.79065 376.9544 670.79065 375.68878Q670.79065 374.42316 671.3063 373.34503Q671.8375 372.25128 672.8219 371.73566Q673.8063 371.2044 675.0875 371.2044Q676.025 371.2044 676.775 371.50128Q677.525 371.79816 677.9469 372.34503Q678.3844 372.87628 678.60315 373.75128L677.5875 374.03253Q677.3844 373.37628 677.0875 373.00128Q676.8063 372.62628 676.275 372.40753Q675.7438 372.17316 675.10315 372.17316Q674.3219 372.17316 673.7438 372.40753Q673.1813 372.6419 672.8219 373.03253Q672.47815 373.42316 672.29065 373.8919Q671.9625 374.68878 671.9625 375.61066Q671.9625 376.7669 672.35315 377.54816Q672.7594 378.31378 673.5094 378.68878Q674.2594 379.06378 675.1188 379.06378Q675.85315 379.06378 676.5563 378.78253Q677.2594 378.48566 677.6188 378.17316L677.6188 376.56378L675.10315 376.56378ZM684.1969 377.93878L685.29065 378.06378Q685.04065 379.0169 684.3375 379.54816Q683.6344 380.0794 682.5563 380.0794Q681.1969 380.0794 680.3844 379.23566Q679.5875 378.3919 679.5875 376.87628Q679.5875 375.31378 680.4 374.4544Q681.2125 373.5794 682.4938 373.5794Q683.7438 373.5794 684.525 374.42316Q685.3219 375.2669 685.3219 376.81378Q685.3219 376.90753 685.3219 377.09503L680.6813 377.09503Q680.7438 378.12628 681.2594 378.67316Q681.775 379.2044 682.5563 379.2044Q683.1344 379.2044 683.54065 378.90753Q683.9625 378.59503 684.1969 377.93878ZM680.7438 376.23566L684.2125 376.23566Q684.15 375.43878 683.8219 375.04816Q683.3063 374.43878 682.5094 374.43878Q681.775 374.43878 681.275 374.92316Q680.79065 375.40753 680.7438 376.23566ZM686.9469 379.93878L686.9469 373.72003L687.8844 373.72003L687.8844 374.59503Q688.1813 374.12628 688.66565 373.86066Q689.15 373.5794 689.775 373.5794Q690.4625 373.5794 690.9 373.86066Q691.35315 374.1419 691.525 374.65753Q692.275 373.5794 693.4469 373.5794Q694.3844 373.5794 694.8688 374.09503Q695.3688 374.59503 695.3688 375.67316L695.3688 379.93878L694.3219 379.93878L694.3219 376.0169Q694.3219 375.3919 694.2125 375.11066Q694.1188 374.8294 693.85315 374.65753Q693.5875 374.48566 693.2125 374.48566Q692.5563 374.48566 692.1188 374.92316Q691.6969 375.36066 691.6969 376.3294L691.6969 379.93878L690.6344 379.93878L690.6344 375.8919Q690.6344 375.18878 690.3688 374.84503Q690.1188 374.48566 689.54065 374.48566Q689.0875 374.48566 688.7125 374.72003Q688.3375 374.9544 688.16565 375.40753Q687.9938 375.86066 687.9938 376.7044L687.9938 379.93878L686.9469 379.93878ZM697.9469 372.56378L697.9469 371.34503L699.0094 371.34503L699.0094 372.56378L697.9469 372.56378ZM697.9469 379.93878L697.9469 373.72003L699.0094 373.72003L699.0094 379.93878L697.9469 379.93878ZM700.9469 379.93878L700.9469 373.72003L701.8844 373.72003L701.8844 374.59503Q702.5719 373.5794 703.8688 373.5794Q704.4313 373.5794 704.9 373.78253Q705.3844 373.98566 705.6188 374.31378Q705.85315 374.6419 705.9469 375.0794Q705.9938 375.37628 705.9938 376.11066L705.9938 379.93878L704.9469 379.93878L704.9469 376.15753Q704.9469 375.50128 704.8219 375.18878Q704.6969 374.87628 704.3844 374.68878Q704.0719 374.48566 703.65 374.48566Q702.97815 374.48566 702.47815 374.92316Q701.9938 375.34503 701.9938 376.53253L701.9938 379.93878L700.9469 379.93878ZM707.9469 372.56378L707.9469 371.34503L709.0094 371.34503L709.0094 372.56378L707.9469 372.56378ZM707.9469 379.93878L707.9469 373.72003L709.0094 373.72003L709.0094 379.93878L707.9469 379.93878Z" fill-rule="nonzero"/><path fill="#9e9e9e" d="M681.1969 395.92316L681.1969 396.93878L675.5094 396.93878Q675.5094 396.56378 675.6344 396.2044Q675.85315 395.62628 676.3219 395.06378Q676.8063 394.50128 677.7125 393.7669Q679.1188 392.61066 679.60315 391.93878Q680.10315 391.2669 680.10315 390.67316Q680.10315 390.04816 679.65 389.62628Q679.1969 389.18878 678.47815 389.18878Q677.7125 389.18878 677.2594 389.6419Q676.8063 390.09503 676.79065 390.90753L675.7125 390.79816Q675.8219 389.5794 676.54065 388.9544Q677.275 388.31378 678.5094 388.31378Q679.7438 388.31378 680.4625 389.00128Q681.1813 389.68878 681.1813 390.7044Q681.1813 391.22003 680.9625 391.72003Q680.7594 392.2044 680.2594 392.7669Q679.775 393.31378 678.65 394.2669Q677.6969 395.06378 677.41565 395.36066Q677.15 395.6419 676.97815 395.92316L681.1969 395.92316ZM682.65 394.68878L683.7594 394.59503Q683.8844 395.40753 684.3219 395.81378Q684.775 396.22003 685.41565 396.22003Q686.16565 396.22003 686.6969 395.6419Q687.22815 395.06378 687.22815 394.12628Q687.22815 393.22003 686.7125 392.7044Q686.2125 392.17316 685.3844 392.17316Q684.8844 392.17316 684.4625 392.40753Q684.0563 392.6419 683.8219 393.00128L682.8375 392.87628L683.66565 388.47003L687.9469 388.47003L687.9469 389.47003L684.5094 389.47003L684.0563 391.78253Q684.8219 391.23566 685.66565 391.23566Q686.79065 391.23566 687.5563 392.0169Q688.3375 392.79816 688.3375 394.03253Q688.3375 395.18878 687.66565 396.04816Q686.8375 397.0794 685.41565 397.0794Q684.2438 397.0794 683.4938 396.42316Q682.7594 395.7669 682.65 394.68878ZM690.2438 396.93878L690.2438 395.73566L691.4469 395.73566L691.4469 396.93878L690.2438 396.93878ZM692.65 392.7044Q692.65 391.17316 692.9625 390.25128Q693.275 389.31378 693.8844 388.81378Q694.5094 388.31378 695.4469 388.31378Q696.1344 388.31378 696.65 388.59503Q697.1813 388.87628 697.525 389.40753Q697.8688 389.92316 698.0563 390.67316Q698.2438 391.42316 698.2438 392.7044Q698.2438 394.22003 697.9313 395.1419Q697.6344 396.06378 697.0094 396.5794Q696.4 397.0794 695.4469 397.0794Q694.2125 397.0794 693.4938 396.18878Q692.65 395.12628 692.65 392.7044ZM693.72815 392.7044Q693.72815 394.81378 694.22815 395.5169Q694.72815 396.22003 695.4469 396.22003Q696.1813 396.22003 696.66565 395.5169Q697.16565 394.81378 697.16565 392.7044Q697.16565 390.5794 696.66565 389.8919Q696.1813 389.18878 695.4313 389.18878Q694.7125 389.18878 694.275 389.79816Q693.72815 390.5794 693.72815 392.7044ZM699.85315 390.40753Q699.85315 389.48566 700.3063 388.84503Q700.775 388.2044 701.65 388.2044Q702.4625 388.2044 702.9938 388.78253Q703.525 389.36066 703.525 390.47003Q703.525 391.56378 702.97815 392.15753Q702.4469 392.73566 701.66565 392.73566Q700.8844 392.73566 700.3688 392.15753Q699.85315 391.5794 699.85315 390.40753ZM701.6813 388.92316Q701.29065 388.92316 701.025 389.2669Q700.775 389.61066 700.775 390.5169Q700.775 391.34503 701.025 391.68878Q701.29065 392.0169 701.6813 392.0169Q702.0875 392.0169 702.3375 391.67316Q702.60315 391.3294 702.60315 390.43878Q702.60315 389.59503 702.3375 389.2669Q702.0719 388.92316 701.6813 388.92316ZM701.6813 397.25128L706.3844 388.2044L707.2438 388.2044L702.5563 397.25128L701.6813 397.25128ZM705.4 394.92316Q705.4 394.00128 705.85315 393.36066Q706.3219 392.72003 707.2125 392.72003Q708.025 392.72003 708.5563 393.29816Q709.0875 393.86066 709.0875 394.98566Q709.0875 396.0794 708.54065 396.67316Q708.0094 397.25128 707.2125 397.25128Q706.4469 397.25128 705.91565 396.67316Q705.4 396.09503 705.4 394.92316ZM707.2438 393.43878Q706.8375 393.43878 706.5719 393.78253Q706.3219 394.12628 706.3219 395.03253Q706.3219 395.84503 706.5875 396.18878Q706.85315 396.53253 707.2438 396.53253Q707.6344 396.53253 707.9 396.18878Q708.16565 395.84503 708.16565 394.93878Q708.16565 394.11066 707.9 393.78253Q707.6344 393.43878 707.2438 393.43878Z" fill-rule="nonzero"/><path stroke="#757575" stroke-width="1.0" stroke-linecap="butt" d="M710.15 384.43878L558.5333 384.43878L478.97385 384.43878" fill-rule="nonzero"/><path fill="#9e9e9e" d="M480.97385 384.43878C480.97385 383.3342 480.0784 382.43878 478.97385 382.43878C477.86926 382.43878 476.97385 383.3342 476.97385 384.43878C476.97385 385.54337 477.86926 386.43878 478.97385 386.43878C480.0784 386.43878 480.97385 385.54337 480.97385 384.43878" fill-rule="nonzero"/><path fill="#757575" d="M22.81875 40.85L28.31875 26.537498L30.365625 26.537498L36.225 40.85L34.06875 40.85L32.396873 36.50625L26.4125 36.50625L24.834375 40.85L22.81875 40.85ZM26.959375 34.975L31.803125 34.975L30.31875 31.006248Q29.63125 29.193748 29.303125 28.037498Q29.021875 29.412498 28.521875 30.771873L26.959375 34.975ZM40.053123 40.85L36.1 30.474998L37.959373 30.474998L40.19375 36.69375Q40.553123 37.69375 40.85 38.771873Q41.084373 37.959373 41.50625 36.803123L43.803123 30.474998L45.615623 30.474998L41.69375 40.85L40.053123 40.85ZM53.271873 37.50625L55.084373 37.740623Q54.6625 39.31875 53.490623 40.209373Q52.334373 41.084373 50.521873 41.084373Q48.25625 41.084373 46.9125 39.69375Q45.584373 38.2875 45.584373 35.75625Q45.584373 33.13125 46.928123 31.693748Q48.271873 30.240623 50.428123 30.240623Q52.50625 30.240623 53.81875 31.662498Q55.146873 33.06875 55.146873 35.646873Q55.146873 35.803123 55.13125 36.115623L47.396873 36.115623Q47.490623 37.81875 48.365623 38.725Q49.240623 39.63125 50.5375 39.63125Q51.50625 39.63125 52.178123 39.13125Q52.865623 38.615623 53.271873 37.50625ZM47.490623 34.6625L53.2875 34.6625Q53.178123 33.365623 52.63125 32.709373Q51.7875 31.693748 50.44375 31.693748Q49.240623 31.693748 48.4125 32.50625Q47.584373 33.303123 47.490623 34.6625ZM57.146873 40.85L57.146873 30.474998L58.725 30.474998L58.725 32.053123Q59.334373 30.943748 59.85 30.599998Q60.365623 30.240623 60.975 30.240623Q61.865623 30.240623 62.7875 30.803123L62.178123 32.44375Q61.5375 32.053123 60.896873 32.053123Q60.31875 32.053123 59.85 32.4125Q59.396873 32.75625 59.19375 33.365623Q58.9125 34.303123 58.9125 35.4125L58.9125 40.85L57.146873 40.85ZM70.94375 39.56875Q69.95937 40.396873 69.05312 40.740623Q68.14687 41.084373 67.11562 41.084373Q65.4125 41.084373 64.49062 40.25625Q63.56875 39.4125 63.56875 38.115623Q63.56875 37.35 63.9125 36.725Q64.27187 36.1 64.83437 35.725Q65.39687 35.334373 66.1 35.13125Q66.61562 35.00625 67.6625 34.865623Q69.7875 34.615623 70.7875 34.271873Q70.80312 33.9125 70.80312 33.803123Q70.80312 32.740623 70.30312 32.2875Q69.63125 31.693748 68.30312 31.693748Q67.05312 31.693748 66.45937 32.13125Q65.88125 32.56875 65.6 33.678123L63.88125 33.44375Q64.11562 32.334373 64.64687 31.662498Q65.17812 30.974998 66.19375 30.615623Q67.20937 30.240623 68.55312 30.240623Q69.88125 30.240623 70.70937 30.553123Q71.5375 30.865623 71.92812 31.349998Q72.31875 31.818748 72.475 32.5375Q72.56875 32.990623 72.56875 34.1625L72.56875 36.50625Q72.56875 38.959373 72.67812 39.615623Q72.7875 40.25625 73.13125 40.85L71.2875 40.85Q71.02187 40.303123 70.94375 39.56875ZM70.7875 35.646873Q69.83437 36.0375 67.9125 36.303123Q66.83437 36.459373 66.38125 36.6625Q65.94375 36.85 65.69375 37.225Q65.44375 37.6 65.44375 38.06875Q65.44375 38.771873 65.975 39.240623Q66.50625 39.709373 67.5375 39.709373Q68.55312 39.709373 69.33437 39.271873Q70.13125 38.81875 70.50625 38.053123Q70.7875 37.44375 70.7875 36.2875L70.7875 35.646873ZM74.85 41.709373L76.55312 41.959373Q76.6625 42.75625 77.14687 43.115623Q77.80312 43.6 78.94375 43.6Q80.1625 43.6 80.81875 43.115623Q81.49062 42.63125 81.725 41.75625Q81.86562 41.209373 81.85 39.490623Q80.69375 40.85 78.975 40.85Q76.83437 40.85 75.6625 39.303123Q74.49062 37.75625 74.49062 35.6Q74.49062 34.115623 75.02187 32.865623Q75.56875 31.615623 76.58437 30.928123Q77.61562 30.240623 78.99062 30.240623Q80.81875 30.240623 82.02187 31.724998L82.02187 30.474998L83.63125 30.474998L83.63125 39.44375Q83.63125 41.865623 83.13125 42.865623Q82.64687 43.88125 81.56875 44.459373Q80.50625 45.053123 78.94375 45.053123Q77.1 45.053123 75.94375 44.225Q74.80312 43.396873 74.85 41.709373ZM76.30312 35.475Q76.30312 37.521873 77.11562 38.459373Q77.92812 39.396873 79.14687 39.396873Q80.35 39.396873 81.1625 38.459373Q81.99062 37.521873 81.99062 35.5375Q81.99062 33.63125 81.14687 32.6625Q80.30312 31.693748 79.11562 31.693748Q77.94375 31.693748 77.11562 32.646873Q76.30312 33.6 76.30312 35.475ZM93.27187 37.50625L95.08437 37.740623Q94.6625 39.31875 93.49062 40.209373Q92.33437 41.084373 90.52187 41.084373Q88.25625 41.084373 86.9125 39.69375Q85.58437 38.2875 85.58437 35.75625Q85.58437 33.13125 86.92812 31.693748Q88.27187 30.240623 90.42812 30.240623Q92.50625 30.240623 93.81875 31.662498Q95.14687 33.06875 95.14687 35.646873Q95.14687 35.803123 95.13125 36.115623L87.39687 36.115623Q87.49062 37.81875 88.36562 38.725Q89.24062 39.63125 90.5375 39.63125Q91.50625 39.63125 92.17812 39.13125Q92.86562 38.615623 93.27187 37.50625ZM87.49062 34.6625L93.2875 34.6625Q93.17812 33.365623 92.63125 32.709373Q91.7875 31.693748 90.44375 31.693748Q89.24062 31.693748 88.4125 32.50625Q87.58437 33.303123 87.49062 34.6625ZM103.33437 40.85L103.33437 26.537498L106.19375 26.537498L109.56875 36.6625Q110.0375 38.084373 110.25625 38.7875Q110.50625 38.00625 111.02187 36.490623L114.44375 26.537498L116.99062 26.537498L116.99062 40.85L115.17812 40.85L115.17812 28.865623L111.00625 40.85L109.30312 40.85L105.1625 28.662498L105.1625 40.85L103.33437 40.85ZM120.17812 28.553123L120.17812 26.537498L121.94375 26.537498L121.94375 28.553123L120.17812 28.553123ZM120.17812 40.85L120.17812 30.474998L121.94375 30.474998L121.94375 40.85L120.17812 40.85ZM130.89688 40.85L130.89688 39.5375Q129.9125 41.084373 127.99062 41.084373Q126.75625 41.084373 125.70937 40.396873Q124.67812 39.709373 124.1 38.490623Q123.5375 37.271873 123.5375 35.678123Q123.5375 34.115623 124.05312 32.85Q124.56875 31.584373 125.6 30.912498Q126.64687 30.240623 127.9125 30.240623Q128.85 30.240623 129.58438 30.646873Q130.31876 31.037498 130.7875 31.662498L130.7875 26.537498L132.52188 26.537498L132.52188 40.85L130.89688 40.85ZM125.33437 35.678123Q125.33437 37.6625 126.17812 38.646873Q127.02187 39.63125 128.1625 39.63125Q129.31876 39.63125 130.11563 38.69375Q130.92813 37.75625 130.92813 35.81875Q130.92813 33.69375 130.1 32.69375Q129.2875 31.693748 128.08438 31.693748Q126.9125 31.693748 126.11562 32.6625Q125.33437 33.615623 125.33437 35.678123ZM134.42813 36.7875L136.13126 36.553123Q136.20938 38.19375 136.75626 38.803123Q137.30313 39.396873 138.27188 39.396873Q138.975 39.396873 139.49063 39.084373Q140.00626 38.75625 140.19376 38.19375Q140.39688 37.63125 140.39688 36.396873L140.39688 26.537498L142.30313 26.537498L142.30313 36.2875Q142.30313 38.084373 141.86563 39.06875Q141.42813 40.053123 140.475 40.584373Q139.5375 41.1 138.27188 41.1Q136.39688 41.1 135.38126 40.021873Q134.38126 38.928123 134.42813 36.7875ZM144.52188 35.6625Q144.52188 32.7875 146.11563 31.396873Q147.45938 30.240623 149.38126 30.240623Q151.52188 30.240623 152.86563 31.646873Q154.225 33.053123 154.225 35.521873Q154.225 37.521873 153.63126 38.678123Q153.0375 39.81875 151.88126 40.459373Q150.74063 41.084373 149.38126 41.084373Q147.19376 41.084373 145.85 39.69375Q144.52188 38.2875 144.52188 35.6625ZM146.31876 35.6625Q146.31876 37.6625 147.17813 38.646873Q148.05313 39.63125 149.38126 39.63125Q150.69376 39.63125 151.55313 38.646873Q152.42813 37.646873 152.42813 35.6Q152.42813 33.678123 151.55313 32.69375Q150.67813 31.693748 149.38126 31.693748Q148.05313 31.693748 147.17813 32.69375Q146.31876 33.678123 146.31876 35.6625ZM162.95938 40.85L162.95938 39.31875Q161.75626 41.084373 159.67813 41.084373Q158.75626 41.084373 157.95938 40.740623Q157.1625 40.38125 156.77188 39.85Q156.39688 39.31875 156.24063 38.5375Q156.13126 38.021873 156.13126 36.896873L156.13126 30.474998L157.88126 30.474998L157.88126 36.225Q157.88126 37.6 157.99063 38.084373Q158.1625 38.771873 158.69376 39.178123Q159.24063 39.56875 160.02188 39.56875Q160.81876 39.56875 161.50626 39.1625Q162.20938 38.75625 162.49063 38.06875Q162.7875 37.365623 162.7875 36.0375L162.7875 30.474998L164.5375 30.474998L164.5375 40.85L162.95938 40.85ZM166.14688 40.85L166.14688 30.474998L167.725 30.474998L167.725 32.053123Q168.33438 30.943748 168.85 30.599998Q169.36563 30.240623 169.975 30.240623Q170.86563 30.240623 171.7875 30.803123L171.17813 32.44375Q170.5375 32.053123 169.89688 32.053123Q169.31876 32.053123 168.85 32.4125Q168.39688 32.75625 168.19376 33.365623Q167.9125 34.303123 167.9125 35.4125L167.9125 40.85L166.14688 40.85ZM173.1625 40.85L173.1625 30.474998L174.75626 30.474998L174.75626 31.959373Q175.89688 30.240623 178.05313 30.240623Q178.99063 30.240623 179.77188 30.584373Q180.56876 30.912498 180.95938 31.459373Q181.35 32.00625 181.50626 32.75625Q181.6 33.25625 181.6 34.475L181.6 40.85L179.83438 40.85L179.83438 34.5375Q179.83438 33.459373 179.63126 32.928123Q179.42813 32.396873 178.89688 32.084373Q178.38126 31.771873 177.67813 31.771873Q176.55313 31.771873 175.74063 32.490623Q174.92813 33.19375 174.92813 35.178123L174.92813 40.85L173.1625 40.85ZM190.27188 37.50625L192.08438 37.740623Q191.6625 39.31875 190.49063 40.209373Q189.33438 41.084373 187.52188 41.084373Q185.25626 41.084373 183.9125 39.69375Q182.58438 38.2875 182.58438 35.75625Q182.58438 33.13125 183.92813 31.693748Q185.27188 30.240623 187.42813 30.240623Q189.50626 30.240623 190.81876 31.662498Q192.14688 33.06875 192.14688 35.646873Q192.14688 35.803123 192.13126 36.115623L184.39688 36.115623Q184.49063 37.81875 185.36563 38.725Q186.24063 39.63125 187.5375 39.63125Q188.50626 39.63125 189.17813 39.13125Q189.86563 38.615623 190.27188 37.50625ZM184.49063 34.6625L190.2875 34.6625Q190.17813 33.365623 189.63126 32.709373Q188.7875 31.693748 187.44376 31.693748Q186.24063 31.693748 185.4125 32.50625Q184.58438 33.303123 184.49063 34.6625ZM194.08438 44.85L193.89688 43.19375Q194.475 43.35 194.89688 43.35Q195.49063 43.35 195.83438 43.146873Q196.19376 42.959373 196.4125 42.615623Q196.58438 42.35 196.95938 41.303123Q197.00626 41.146873 197.11563 40.865623L193.17813 30.474998L195.06876 30.474998L197.225 36.490623Q197.64688 37.63125 197.975 38.88125Q198.2875 37.678123 198.69376 36.521873L200.9125 30.474998L202.67813 30.474998L198.725 41.021873Q198.1 42.740623 197.74063 43.38125Q197.27188 44.25625 196.6625 44.646873Q196.06876 45.053123 195.225 45.053123Q194.70938 45.053123 194.08438 44.85ZM209.45938 37.75625L211.20938 37.475Q211.35 38.521873 212.02188 39.084373Q212.69376 39.63125 213.89688 39.63125Q215.1 39.63125 215.67813 39.146873Q216.27188 38.646873 216.27188 37.990623Q216.27188 37.396873 215.75626 37.053123Q215.39688 36.81875 213.95938 36.459373Q212.02188 35.959373 211.27188 35.615623Q210.5375 35.25625 210.14688 34.63125Q209.75626 33.990623 209.75626 33.225Q209.75626 32.5375 210.06876 31.943748Q210.39688 31.349998 210.94376 30.959373Q211.35 30.662498 212.05313 30.459373Q212.77188 30.240623 213.58438 30.240623Q214.80313 30.240623 215.725 30.599998Q216.64688 30.943748 217.08438 31.553123Q217.52188 32.146873 217.69376 33.146873L215.975 33.38125Q215.85 32.584373 215.2875 32.146873Q214.725 31.693748 213.70938 31.693748Q212.49063 31.693748 211.975 32.1Q211.45938 32.490623 211.45938 33.021873Q211.45938 33.365623 211.67813 33.646873Q211.88126 33.928123 212.35 34.115623Q212.61563 34.209373 213.89688 34.553123Q215.77188 35.053123 216.50626 35.38125Q217.24063 35.69375 217.6625 36.303123Q218.08438 36.896873 218.08438 37.803123Q218.08438 38.678123 217.56876 39.459373Q217.05313 40.240623 216.08438 40.6625Q215.11563 41.084373 213.89688 41.084373Q211.88126 41.084373 210.81876 40.240623Q209.75626 39.396873 209.45938 37.75625ZM226.94376 37.053123L228.6625 37.271873Q228.38126 39.06875 227.20938 40.084373Q226.05313 41.084373 224.35 41.084373Q222.225 41.084373 220.92813 39.69375Q219.63126 38.303123 219.63126 35.709373Q219.63126 34.021873 220.17813 32.771873Q220.74063 31.506248 221.88126 30.881248Q223.02188 30.240623 224.36563 30.240623Q226.05313 30.240623 227.11563 31.099998Q228.19376 31.959373 228.50626 33.521873L226.7875 33.7875Q226.55313 32.740623 225.92813 32.225Q225.30313 31.693748 224.42813 31.693748Q223.1 31.693748 222.27188 32.646873Q221.44376 33.6 221.44376 35.646873Q221.44376 37.740623 222.24063 38.69375Q223.0375 39.63125 224.33438 39.63125Q225.36563 39.63125 226.05313 39.00625Q226.75626 38.365623 226.94376 37.053123ZM229.52188 35.6625Q229.52188 32.7875 231.11563 31.396873Q232.45938 30.240623 234.38126 30.240623Q236.52188 30.240623 237.86563 31.646873Q239.225 33.053123 239.225 35.521873Q239.225 37.521873 238.63126 38.678123Q238.0375 39.81875 236.88126 40.459373Q235.74063 41.084373 234.38126 41.084373Q232.19376 41.084373 230.85 39.69375Q229.52188 38.2875 229.52188 35.6625ZM231.31876 35.6625Q231.31876 37.6625 232.17813 38.646873Q233.05313 39.63125 234.38126 39.63125Q235.69376 39.63125 236.55313 38.646873Q237.42813 37.646873 237.42813 35.6Q237.42813 33.678123 236.55313 32.69375Q235.67813 31.693748 234.38126 31.693748Q233.05313 31.693748 232.17813 32.69375Q231.31876 33.678123 231.31876 35.6625ZM241.14688 40.85L241.14688 30.474998L242.725 30.474998L242.725 32.053123Q243.33438 30.943748 243.85 30.599998Q244.36563 30.240623 244.975 30.240623Q245.86563 30.240623 246.7875 30.803123L246.17813 32.44375Q245.5375 32.053123 244.89688 32.053123Q244.31876 32.053123 243.85 32.4125Q243.39688 32.75625 243.19376 33.365623Q242.9125 34.303123 242.9125 35.4125L242.9125 40.85L241.14688 40.85ZM255.27188 37.50625L257.08438 37.740623Q256.6625 39.31875 255.49063 40.209373Q254.33438 41.084373 252.52188 41.084373Q250.25626 41.084373 248.9125 39.69375Q247.58438 38.2875 247.58438 35.75625Q247.58438 33.13125 248.92813 31.693748Q250.27188 30.240623 252.42813 30.240623Q254.50626 30.240623 255.81876 31.662498Q257.14688 33.06875 257.14688 35.646873Q257.14688 35.803123 257.13126 36.115623L249.39688 36.115623Q249.49063 37.81875 250.36563 38.725Q251.24063 39.63125 252.5375 39.63125Q253.50626 39.63125 254.17813 39.13125Q254.86563 38.615623 255.27188 37.50625ZM249.49063 34.6625L255.2875 34.6625Q255.17813 33.365623 254.63126 32.709373Q253.7875 31.693748 252.44376 31.693748Q251.24063 31.693748 250.4125 32.50625Q249.58438 33.303123 249.49063 34.6625ZM266.7875 40.85L265.1625 40.85L265.1625 26.537498L266.9125 26.537498L266.9125 31.646873Q268.0375 30.240623 269.75626 30.240623Q270.70938 30.240623 271.56876 30.631248Q272.42813 31.021873 272.975 31.724998Q273.52188 32.4125 273.83438 33.396873Q274.14688 34.38125 274.14688 35.50625Q274.14688 38.178123 272.83438 39.63125Q271.52188 41.084373 269.67813 41.084373Q267.83438 41.084373 266.7875 39.553123L266.7875 40.85ZM266.77188 35.584373Q266.77188 37.44375 267.27188 38.2875Q268.11563 39.63125 269.52188 39.63125Q270.67813 39.63125 271.50626 38.63125Q272.35 37.63125 272.35 35.646873Q272.35 33.615623 271.5375 32.6625Q270.74063 31.693748 269.6 31.693748Q268.44376 31.693748 267.6 32.69375Q266.77188 33.69375 266.77188 35.584373ZM276.08438 44.85L275.89688 43.19375Q276.475 43.35 276.89688 43.35Q277.49063 43.35 277.83438 43.146873Q278.19376 42.959373 278.4125 42.615623Q278.58438 42.35 278.95938 41.303123Q279.00626 41.146873 279.11563 40.865623L275.17813 30.474998L277.06876 30.474998L279.225 36.490623Q279.64688 37.63125 279.975 38.88125Q280.2875 37.678123 280.69376 36.521873L282.9125 30.474998L284.67813 30.474998L280.725 41.021873Q280.1 42.740623 279.74063 43.38125Q279.27188 44.25625 278.6625 44.646873Q278.06876 45.053123 277.225 45.053123Q276.70938 45.053123 276.08438 44.85ZM298.94376 39.56875Q297.95938 40.396873 297.05313 40.740623Q296.14688 41.084373 295.11563 41.084373Q293.4125 41.084373 292.49063 40.25625Q291.56876 39.4125 291.56876 38.115623Q291.56876 37.35 291.9125 36.725Q292.27188 36.1 292.83438 35.725Q293.39688 35.334373 294.1 35.13125Q294.61563 35.00625 295.6625 34.865623Q297.7875 34.615623 298.7875 34.271873Q298.80313 33.9125 298.80313 33.803123Q298.80313 32.740623 298.30313 32.2875Q297.63126 31.693748 296.30313 31.693748Q295.05313 31.693748 294.45938 32.13125Q293.88126 32.56875 293.6 33.678123L291.88126 33.44375Q292.11563 32.334373 292.64688 31.662498Q293.17813 30.974998 294.19376 30.615623Q295.20938 30.240623 296.55313 30.240623Q297.88126 30.240623 298.70938 30.553123Q299.5375 30.865623 299.92813 31.349998Q300.31876 31.818748 300.475 32.5375Q300.56876 32.990623 300.56876 34.1625L300.56876 36.50625Q300.56876 38.959373 300.67813 39.615623Q300.7875 40.25625 301.13126 40.85L299.2875 40.85Q299.02188 40.303123 298.94376 39.56875ZM298.7875 35.646873Q297.83438 36.0375 295.9125 36.303123Q294.83438 36.459373 294.38126 36.6625Q293.94376 36.85 293.69376 37.225Q293.44376 37.6 293.44376 38.06875Q293.44376 38.771873 293.975 39.240623Q294.50626 39.709373 295.5375 39.709373Q296.55313 39.709373 297.33438 39.271873Q298.13126 38.81875 298.50626 38.053123Q298.7875 37.44375 298.7875 36.2875L298.7875 35.646873ZM303.13126 40.85L303.13126 26.537498L304.88126 26.537498L304.88126 40.85L303.13126 40.85ZM306.85 41.709373L308.55313 41.959373Q308.6625 42.75625 309.14688 43.115623Q309.80313 43.6 310.94376 43.6Q312.1625 43.6 312.81876 43.115623Q313.49063 42.63125 313.725 41.75625Q313.86563 41.209373 313.85 39.490623Q312.69376 40.85 310.975 40.85Q308.83438 40.85 307.6625 39.303123Q306.49063 37.75625 306.49063 35.6Q306.49063 34.115623 307.02188 32.865623Q307.56876 31.615623 308.58438 30.928123Q309.61563 30.240623 310.99063 30.240623Q312.81876 30.240623 314.02188 31.724998L314.02188 30.474998L315.63126 30.474998L315.63126 39.44375Q315.63126 41.865623 315.13126 42.865623Q314.64688 43.88125 313.56876 44.459373Q312.50626 45.053123 310.94376 45.053123Q309.1 45.053123 307.94376 44.225Q306.80313 43.396873 306.85 41.709373ZM308.30313 35.475Q308.30313 37.521873 309.11563 38.459373Q309.92813 39.396873 311.14688 39.396873Q312.35 39.396873 313.1625 38.459373Q313.99063 37.521873 313.99063 35.5375Q313.99063 33.63125 313.14688 32.6625Q312.30313 31.693748 311.11563 31.693748Q309.94376 31.693748 309.11563 32.646873Q308.30313 33.6 308.30313 35.475ZM317.52188 35.6625Q317.52188 32.7875 319.11563 31.396873Q320.45938 30.240623 322.38126 30.240623Q324.52188 30.240623 325.86563 31.646873Q327.225 33.053123 327.225 35.521873Q327.225 37.521873 326.63126 38.678123Q326.0375 39.81875 324.88126 40.459373Q323.74063 41.084373 322.38126 41.084373Q320.19376 41.084373 318.85 39.69375Q317.52188 38.2875 317.52188 35.6625ZM319.31876 35.6625Q319.31876 37.6625 320.17813 38.646873Q321.05313 39.63125 322.38126 39.63125Q323.69376 39.63125 324.55313 38.646873Q325.42813 37.646873 325.42813 35.6Q325.42813 33.678123 324.55313 32.69375Q323.67813 31.693748 322.38126 31.693748Q321.05313 31.693748 320.17813 32.69375Q319.31876 33.678123 319.31876 35.6625ZM329.14688 40.85L329.14688 30.474998L330.725 30.474998L330.725 32.053123Q331.33438 30.943748 331.85 30.599998Q332.36563 30.240623 332.975 30.240623Q333.86563 30.240623 334.7875 30.803123L334.17813 32.44375Q333.5375 32.053123 332.89688 32.053123Q332.31876 32.053123 331.85 32.4125Q331.39688 32.75625 331.19376 33.365623Q330.9125 34.303123 330.9125 35.4125L330.9125 40.85L329.14688 40.85ZM336.17813 28.553123L336.17813 26.537498L337.94376 26.537498L337.94376 28.553123L336.17813 28.553123ZM336.17813 40.85L336.17813 30.474998L337.94376 30.474998L337.94376 40.85L336.17813 40.85ZM344.00626 39.271873L344.25626 40.834373Q343.52188 40.990623 342.92813 40.990623Q341.975 40.990623 341.44376 40.69375Q340.92813 40.38125 340.70938 39.896873Q340.49063 39.396873 340.49063 37.81875L340.49063 31.849998L339.20938 31.849998L339.20938 30.474998L340.49063 30.474998L340.49063 27.912498L342.24063 26.849998L342.24063 30.474998L344.00626 30.474998L344.00626 31.849998L342.24063 31.849998L342.24063 37.9125Q342.24063 38.6625 342.33438 38.88125Q342.42813 39.084373 342.63126 39.225Q342.85 39.35 343.24063 39.35Q343.52188 39.35 344.00626 39.271873ZM346.1625 40.85L346.1625 26.537498L347.92813 26.537498L347.92813 31.662498Q349.1625 30.240623 351.0375 30.240623Q352.17813 30.240623 353.02188 30.693748Q353.88126 31.146873 354.24063 31.959373Q354.61563 32.75625 354.61563 34.271873L354.61563 40.85L352.86563 40.85L352.86563 34.271873Q352.86563 32.959373 352.2875 32.365623Q351.70938 31.756248 350.67813 31.756248Q349.89688 31.756248 349.19376 32.1625Q348.50626 32.56875 348.20938 33.271873Q347.92813 33.959373 347.92813 35.178123L347.92813 40.85L346.1625 40.85ZM356.1625 40.85L356.1625 30.474998L357.74063 30.474998L357.74063 31.928123Q358.225 31.178123 359.0375 30.709373Q359.85 30.240623 360.88126 30.240623Q362.0375 30.240623 362.77188 30.724998Q363.50626 31.193748 363.81876 32.053123Q365.05313 30.240623 367.02188 30.240623Q368.56876 30.240623 369.39688 31.099998Q370.225 31.959373 370.225 33.725L370.225 40.85L368.475 40.85L368.475 34.31875Q368.475 33.25625 368.30313 32.803123Q368.13126 32.334373 367.67813 32.053123Q367.24063 31.771873 366.63126 31.771873Q365.5375 31.771873 364.80313 32.50625Q364.08438 33.225 364.08438 34.81875L364.08438 40.85L362.33438 40.85L362.33438 34.115623Q362.33438 32.94375 361.89688 32.365623Q361.475 31.771873 360.49063 31.771873Q359.75626 31.771873 359.11563 32.1625Q358.49063 32.553123 358.20938 33.303123Q357.92813 34.053123 357.92813 35.475L357.92813 40.85L356.1625 40.85Z" fill-rule="nonzero"/></svg>