<svg version="1.1" viewBox="0.0 0.0 733.0 457.0" fill="none" stroke="none" stroke-linecap="square" stroke-miterlimit="10" width="733" height="457" xmlns:xlink="http://www.w3.org/1999/xlink" xmlns="http://www.w3.org/2000/svg"><path fill="#ffffff" d="M0 0L733.0 0L733.0 457.0L0 457.0L0 0Z" fill-rule="nonzero"/><path fill="#4285f4" d="M366.5 22.85C451.71945 22.85 528.11005 75.41025 558.56726 155.00116L366.5 228.5Z" fill-rule="nonzero"/><path fill="#ea4335" d="M558.56726 155.00116C591.46954 240.98143 563.2214 338.3535 489.41327 393.37646L366.5 228.5Z" fill-rule="nonzero"/><path fill="#ff6d01" d="M165.52733 184.88911C186.04912 90.31828 269.72818 22.85 366.5 22.85L366.5 228.5Z" fill-rule="nonzero"/><path fill="#34a853" d="M253.94235 400.61246C182.62053 353.9696 147.45538 268.17035 165.52733 184.88911L366.5 228.5Z" fill-rule="nonzero"/><path fill="#fbbc04" d="M489.41327 393.37646C420.21774 444.96085 326.17468 447.85077 253.94235 400.61246L366.5 228.5Z" fill-rule="nonzero"/><path fill="#000000" d="M445.15054 96.50216L443.40054 96.642784Q443.16617 95.611534 442.7443 95.142784Q442.02554 94.37716 440.97867 94.37716Q440.13492 94.37716 439.50992 94.84591Q438.6818 95.455284 438.19742 96.62716Q437.71304 97.78341 437.69742 99.924034Q438.33804 98.97091 439.2443 98.50216Q440.16617 98.03341 441.1818 98.03341Q442.9318 98.03341 444.16617 99.330284Q445.40054 100.611534 445.40054 102.65841Q445.40054 104.017784 444.82242 105.174034Q444.2443 106.330284 443.22867 106.955284Q442.21304 107.56466 440.91617 107.56466Q438.72867 107.56466 437.33804 105.955284Q435.94742 104.330284 435.94742 100.611534Q435.94742 96.47091 437.47867 94.580284Q438.82242 92.93966 441.08804 92.93966Q442.77554 92.93966 443.85367 93.892784Q444.9318 94.830284 445.15054 96.50216ZM437.97867 102.674034Q437.97867 103.580284 438.35367 104.40841Q438.7443 105.236534 439.4318 105.674034Q440.13492 106.111534 440.88492 106.111534Q442.00992 106.111534 442.8068 105.22091Q443.60367 104.31466 443.60367 102.767784Q443.60367 101.28341 442.8068 100.43966Q442.02554 99.580284 440.82242 99.580284Q439.63492 99.580284 438.8068 100.43966Q437.97867 101.28341 437.97867 102.674034ZM448.00992 107.31466L448.00992 105.31466L450.00992 105.31466L450.00992 107.31466L448.00992 107.31466ZM462.15054 96.50216L460.40054 96.642784Q460.16617 95.611534 459.7443 95.142784Q459.02554 94.37716 457.97867 94.37716Q457.13492 94.37716 456.50992 94.84591Q455.6818 95.455284 455.19742 96.62716Q454.71304 97.78341 454.69742 99.924034Q455.33804 98.97091 456.2443 98.50216Q457.16617 98.03341 458.1818 98.03341Q459.9318 98.03341 461.16617 99.330284Q462.40054 100.611534 462.40054 102.65841Q462.40054 104.017784 461.82242 105.174034Q461.2443 106.330284 460.22867 106.955284Q459.21304 107.56466 457.91617 107.56466Q455.72867 107.56466 454.33804 105.955284Q452.94742 104.330284 452.94742 100.611534Q452.94742 96.47091 454.47867 94.580284Q455.82242 92.93966 458.08804 92.93966Q459.77554 92.93966 460.85367 93.892784Q461.9318 94.830284 462.15054 96.50216ZM454.97867 102.674034Q454.97867 103.580284 455.35367 104.40841Q455.7443 105.236534 456.4318 105.674034Q457.13492 106.111534 457.88492 106.111534Q459.00992 106.111534 459.8068 105.22091Q460.60367 104.31466 460.60367 102.767784Q460.60367 101.28341 459.8068 100.43966Q459.02554 99.580284 457.82242 99.580284Q456.63492 99.580284 455.8068 100.43966Q454.97867 101.28341 454.97867 102.674034ZM464.15054 94.87716L464.15054 93.18966L473.41617 93.18966L473.41617 94.549034Q472.04117 96.00216 470.69742 98.424034Q469.35367 100.830284 468.63492 103.37716Q468.10367 105.174034 467.94742 107.31466L466.15054 107.31466Q466.1818 105.62716 466.8068 103.236534Q467.44742 100.84591 468.63492 98.62716Q469.82242 96.392784 471.15054 94.87716L464.15054 94.87716Z" fill-rule="nonzero"/><path fill="#000000" d="M498.8442 266.83685L498.8442 265.14935L508.10983 265.14935L508.10983 266.50873Q506.73483 267.96185 505.39108 270.38373Q504.04733 272.78998 503.32858 275.33685Q502.79733 277.13373 502.64108 279.27435L500.8442 279.27435Q500.87546 277.58685 501.50046 275.19623Q502.14108 272.8056 503.32858 270.58685Q504.51608 268.35248 505.8442 266.83685L498.8442 266.83685ZM510.70358 279.27435L510.70358 277.27435L512.7036 277.27435L512.7036 279.27435L510.70358 279.27435ZM522.34424 279.27435L520.5786 279.27435L520.5786 268.07123Q519.9536 268.6806 518.92236 269.28998Q517.8911 269.88373 517.063 270.19623L517.063 268.4931Q518.54736 267.8056 519.6411 266.82123Q520.7505 265.82123 521.2036 264.89935L522.34424 264.89935L522.34424 279.27435ZM526.84424 266.83685L526.84424 265.14935L536.10986 265.14935L536.10986 266.50873Q534.73486 267.96185 533.3911 270.38373Q532.04736 272.78998 531.3286 275.33685Q530.79736 277.13373 530.6411 279.27435L528.84424 279.27435Q528.8755 277.58685 529.5005 275.19623Q530.1411 272.8056 531.3286 270.58685Q532.5161 268.35248 533.84424 266.83685L526.84424 266.83685Z" fill-rule="nonzero"/><path fill="#000000" d="M362.11728 392.73718L360.36728 392.8778Q360.1329 391.84656 359.71103 391.3778Q358.99228 390.61218 357.9454 390.61218Q357.10165 390.61218 356.47665 391.08093Q355.64853 391.6903 355.16415 392.86218Q354.67978 394.01843 354.66415 396.15906Q355.30478 395.20593 356.21103 394.73718Q357.1329 394.26843 358.14853 394.26843Q359.89853 394.26843 361.1329 395.5653Q362.36728 396.84656 362.36728 398.89343Q362.36728 400.2528 361.78915 401.40906Q361.21103 402.5653 360.1954 403.1903Q359.17978 403.79968 357.8829 403.79968Q355.6954 403.79968 354.30478 402.1903Q352.91415 400.5653 352.91415 396.84656Q352.91415 392.70593 354.4454 390.8153Q355.78915 389.17468 358.05478 389.17468Q359.74228 389.17468 360.8204 390.1278Q361.89853 391.0653 362.11728 392.73718ZM354.9454 398.90906Q354.9454 399.8153 355.3204 400.64343Q355.71103 401.47156 356.39853 401.90906Q357.10165 402.34656 357.85165 402.34656Q358.97665 402.34656 359.77353 401.45593Q360.5704 400.54968 360.5704 399.0028Q360.5704 397.51843 359.77353 396.67468Q358.99228 395.8153 357.78915 395.8153Q356.60165 395.8153 355.77353 396.67468Q354.9454 397.51843 354.9454 398.90906ZM364.97665 403.54968L364.97665 401.54968L366.97665 401.54968L366.97665 403.54968L364.97665 403.54968ZM370.11728 391.11218L370.11728 389.42468L379.3829 389.42468L379.3829 390.78406Q378.0079 392.23718 376.66415 394.65906Q375.3204 397.0653 374.60165 399.61218Q374.0704 401.40906 373.91415 403.54968L372.11728 403.54968Q372.14853 401.86218 372.77353 399.47156Q373.41415 397.08093 374.60165 394.86218Q375.78915 392.6278 377.11728 391.11218L370.11728 391.11218ZM380.99228 399.79968L382.83603 399.64343Q383.03915 400.98718 383.78915 401.67468Q384.53915 402.34656 385.60165 402.34656Q386.86728 402.34656 387.74228 401.39343Q388.61728 400.4403 388.61728 398.84656Q388.61728 397.34656 387.77353 396.48718Q386.92978 395.61218 385.5704 395.61218Q384.71103 395.61218 384.02353 396.0028Q383.35165 396.3778 382.96103 397.0028L381.30478 396.78406L382.6954 389.42468L389.8204 389.42468L389.8204 391.11218L384.10165 391.11218L383.33603 394.95593Q384.61728 394.04968 386.03915 394.04968Q387.91415 394.04968 389.1954 395.36218Q390.49228 396.65906 390.49228 398.6903Q390.49228 400.64343 389.35165 402.04968Q387.97665 403.79968 385.60165 403.79968Q383.64853 403.79968 382.39853 402.70593Q381.16415 401.61218 380.99228 399.79968Z" fill-rule="nonzero"/><path fill="#000000" d="M212.89812 283.72897L211.14812 283.8696Q210.91374 282.83835 210.49187 282.3696Q209.77312 281.60397 208.72624 281.60397Q207.88249 281.60397 207.25749 282.07272Q206.42937 282.6821 205.94499 283.85397Q205.46062 285.01022 205.44499 287.15085Q206.08562 286.19772 206.99187 285.72897Q207.91374 285.26022 208.92937 285.26022Q210.67937 285.26022 211.91374 286.5571Q213.14812 287.83835 213.14812 289.88522Q213.14812 291.2446 212.56999 292.40085Q211.99187 293.5571 210.97624 294.1821Q209.96062 294.79147 208.66374 294.79147Q206.47624 294.79147 205.08562 293.1821Q203.69499 291.5571 203.69499 287.83835Q203.69499 283.69772 205.22624 281.8071Q206.56999 280.16647 208.83562 280.16647Q210.52312 280.16647 211.60124 281.1196Q212.67937 282.0571 212.89812 283.72897ZM205.72624 289.90085Q205.72624 290.8071 206.10124 291.63522Q206.49187 292.46335 207.17937 292.90085Q207.88249 293.33835 208.63249 293.33835Q209.75749 293.33835 210.55437 292.44772Q211.35124 291.54147 211.35124 289.9946Q211.35124 288.51022 210.55437 287.66647Q209.77312 286.8071 208.56999 286.8071Q207.38249 286.8071 206.55437 287.66647Q205.72624 288.51022 205.72624 289.90085ZM215.75749 294.54147L215.75749 292.54147L217.75749 292.54147L217.75749 294.54147L215.75749 294.54147ZM229.89812 283.72897L228.14812 283.8696Q227.91374 282.83835 227.49187 282.3696Q226.77312 281.60397 225.72624 281.60397Q224.88249 281.60397 224.25749 282.07272Q223.42937 282.6821 222.94499 283.85397Q222.46062 285.01022 222.44499 287.15085Q223.08562 286.19772 223.99187 285.72897Q224.91374 285.26022 225.92937 285.26022Q227.67937 285.26022 228.91374 286.5571Q230.14812 287.83835 230.14812 289.88522Q230.14812 291.2446 229.56999 292.40085Q228.99187 293.5571 227.97624 294.1821Q226.96062 294.79147 225.66374 294.79147Q223.47624 294.79147 222.08562 293.1821Q220.69499 291.5571 220.69499 287.83835Q220.69499 283.69772 222.22624 281.8071Q223.56999 280.16647 225.83562 280.16647Q227.52312 280.16647 228.60124 281.1196Q229.67937 282.0571 229.89812 283.72897ZM222.72624 289.90085Q222.72624 290.8071 223.10124 291.63522Q223.49187 292.46335 224.17937 292.90085Q224.88249 293.33835 225.63249 293.33835Q226.75749 293.33835 227.55437 292.44772Q228.35124 291.54147 228.35124 289.9946Q228.35124 288.51022 227.55437 287.66647Q226.77312 286.8071 225.56999 286.8071Q224.38249 286.8071 223.55437 287.66647Q222.72624 288.51022 222.72624 289.90085ZM231.89812 282.10397L231.89812 280.41647L241.16374 280.41647L241.16374 281.77585Q239.78874 283.22897 238.44499 285.65085Q237.10124 288.0571 236.38249 290.60397Q235.85124 292.40085 235.69499 294.54147L233.89812 294.54147Q233.92937 292.85397 234.55437 290.46335Q235.19499 288.07272 236.38249 285.85397Q237.56999 283.6196 238.89812 282.10397L231.89812 282.10397Z" fill-rule="nonzero"/><path fill="#000000" d="M250.746 102.49917L250.746 100.81167L260.01163 100.81167L260.01163 102.17104Q258.63663 103.62417 257.29288 106.04604Q255.94913 108.45229 255.23038 110.99917Q254.69913 112.79604 254.54288 114.93667L252.746 114.93667Q252.77725 113.24917 253.40225 110.85854Q254.04288 108.46792 255.23038 106.24917Q256.41788 104.01479 257.746 102.49917L250.746 102.49917ZM262.60538 114.93667L262.60538 112.93667L264.60538 112.93667L264.60538 114.93667L262.60538 114.93667ZM267.621 111.18667L269.46475 111.03042Q269.66788 112.37417 270.41788 113.06167Q271.16788 113.73354 272.23038 113.73354Q273.496 113.73354 274.371 112.78042Q275.246 111.82729 275.246 110.23354Q275.246 108.73354 274.40225 107.87417Q273.5585 106.99917 272.19913 106.99917Q271.33975 106.99917 270.65225 107.38979Q269.98038 107.76479 269.58975 108.38979L267.9335 108.17104L269.32413 100.81167L276.44913 100.81167L276.44913 102.49917L270.73038 102.49917L269.96475 106.34292Q271.246 105.43667 272.66788 105.43667Q274.54288 105.43667 275.82413 106.74917Q277.121 108.04604 277.121 110.07729Q277.121 112.03042 275.98038 113.43667Q274.60538 115.18667 272.23038 115.18667Q270.27725 115.18667 269.02725 114.09292Q267.79288 112.99917 267.621 111.18667ZM285.246 114.93667L283.48038 114.93667L283.48038 103.73354Q282.85538 104.34292 281.82413 104.95229Q280.79288 105.54604 279.96475 105.85854L279.96475 104.15542Q281.44913 103.46792 282.54288 102.48354Q283.65225 101.48354 284.10538 100.56167L285.246 100.56167L285.246 114.93667Z" fill-rule="nonzero"/><path fill="#1a1a1a" d="M24.709375 68.91022L24.709375 51.722717L31.178125 51.722717Q32.896873 51.722717 33.803123 51.894592Q35.06875 52.097717 35.9125 52.691467Q36.771873 53.285217 37.2875 54.363342Q37.81875 55.425842 37.81875 56.691467Q37.81875 58.894592 36.4125 60.410217Q35.021873 61.925842 31.38125 61.925842L26.975 61.925842L26.975 68.91022L24.709375 68.91022ZM26.975 59.894592L31.4125 59.894592Q33.615623 59.894592 34.5375 59.082092Q35.475 58.253967 35.475 56.769592Q35.475 55.691467 34.928123 54.925842Q34.38125 54.160217 33.490623 53.910217Q32.9125 53.753967 31.365625 53.753967L26.975 53.753967L26.975 59.894592ZM39.85 64.41022L42.06875 64.22272Q42.303123 65.83209 43.19375 66.66022Q44.1 67.47272 45.365623 67.47272Q46.896873 67.47272 47.94375 66.33209Q49.00625 65.17584 49.00625 63.269592Q49.00625 61.472717 47.990623 60.425842Q46.975 59.378967 45.334373 59.378967Q44.31875 59.378967 43.490623 59.847717Q42.678123 60.300842 42.209373 61.050842L40.225 60.785217L41.88125 51.957092L50.428123 51.957092L50.428123 53.972717L43.56875 53.972717L42.646873 58.597717Q44.19375 57.519592 45.896873 57.519592Q48.146873 57.519592 49.69375 59.082092Q51.240623 60.628967 51.240623 63.082092Q51.240623 65.41022 49.88125 67.11334Q48.225 69.20709 45.365623 69.20709Q43.021873 69.20709 41.5375 67.89459Q40.053123 66.58209 39.85 64.41022Z" fill-rule="nonzero"/><path fill="#9e9e9e" d="M34.928123 97.87897L34.928123 99.91022L23.584375 99.91022Q23.553125 99.14459 23.81875 98.44147Q24.25625 97.28522 25.209375 96.16022Q26.1625 95.03522 27.975 93.55084Q30.771875 91.25397 31.75625 89.92584Q32.740623 88.58209 32.740623 87.37897Q32.740623 86.12897 31.834375 85.26959Q30.94375 84.41022 29.50625 84.41022Q27.990625 84.41022 27.06875 85.33209Q26.1625 86.23834 26.146875 87.84772L23.975 87.62897Q24.19375 85.20709 25.646875 83.94147Q27.1 82.66022 29.553125 82.66022Q32.021873 82.66022 33.459373 84.03522Q34.9125 85.39459 34.9125 87.42584Q34.9125 88.45709 34.490623 89.45709Q34.06875 90.45709 33.084373 91.56647Q32.115623 92.66022 29.834375 94.58209Q27.94375 96.17584 27.396875 96.73834Q26.865625 97.30084 26.50625 97.87897L34.928123 97.87897ZM44.7875 99.91022L42.678123 99.91022L42.678123 86.47272Q41.928123 87.19147 40.678123 87.92584Q39.44375 88.64459 38.459373 89.00397L38.459373 86.97272Q40.240623 86.14459 41.553123 84.95709Q42.88125 83.76959 43.428123 82.66022L44.7875 82.66022L44.7875 99.91022ZM51.0375 99.91022L51.0375 97.50397L53.428123 97.50397L53.428123 99.91022L51.0375 99.91022ZM67.7875 86.94147L65.69375 87.09772Q65.4125 85.86334 64.89687 85.30084Q64.0375 84.39459 62.7875 84.39459Q61.7875 84.39459 61.021873 84.95709Q60.021873 85.67584 59.44375 87.08209Q58.88125 88.47272 58.85 91.05084Q59.615623 89.89459 60.709373 89.33209Q61.81875 88.76959 63.021873 88.76959Q65.13125 88.76959 66.61562 90.31647Q68.1 91.86334 68.1 94.33209Q68.1 95.94147 67.39687 97.33209Q66.70937 98.72272 65.49062 99.47272Q64.27187 100.20709 62.725 100.20709Q60.084373 100.20709 58.4125 98.26959Q56.75625 96.31647 56.75625 91.86334Q56.75625 86.89459 58.6 84.62897Q60.19375 82.66022 62.9125 82.66022Q64.94375 82.66022 66.24062 83.80084Q67.5375 84.92584 67.7875 86.94147ZM59.178123 94.34772Q59.178123 95.42584 59.63125 96.42584Q60.1 97.42584 60.928123 97.95709Q61.771873 98.47272 62.678123 98.47272Q64.02187 98.47272 64.975 97.39459Q65.94375 96.31647 65.94375 94.45709Q65.94375 92.67584 64.99062 91.66022Q64.0375 90.62897 62.6 90.62897Q61.178123 90.62897 60.178123 91.66022Q59.178123 92.67584 59.178123 94.34772ZM70.24062 86.84772Q70.24062 85.01959 71.1625 83.73834Q72.1 82.44147 73.85 82.44147Q75.475 82.44147 76.5375 83.59772Q77.6 84.73834 77.6 86.98834Q77.6 89.16022 76.52187 90.34772Q75.44375 91.51959 73.88125 91.51959Q72.31875 91.51959 71.27187 90.36334Q70.24062 89.19147 70.24062 86.84772ZM73.9125 83.89459Q73.13125 83.89459 72.6 84.58209Q72.08437 85.25397 72.08437 87.06647Q72.08437 88.72272 72.61562 89.39459Q73.14687 90.06647 73.9125 90.06647Q74.70937 90.06647 75.225 89.39459Q75.75625 88.70709 75.75625 86.89459Q75.75625 85.23834 75.225 84.56647Q74.69375 83.89459 73.9125 83.89459ZM73.92812 100.55084L83.31875 82.44147L85.0375 82.44147L75.67812 100.55084L73.92812 100.55084ZM81.35 95.87897Q81.35 94.01959 82.27187 92.73834Q83.20937 91.45709 84.975 91.45709Q86.6 91.45709 87.64687 92.61334Q88.70937 93.76959 88.70937 96.00397Q88.70937 98.19147 87.63125 99.37897Q86.56875 100.55084 84.99062 100.55084Q83.42812 100.55084 82.38125 99.37897Q81.35 98.20709 81.35 95.87897ZM85.0375 92.91022Q84.24062 92.91022 83.70937 93.59772Q83.19375 94.26959 83.19375 96.08209Q83.19375 97.72272 83.725 98.41022Q84.25625 99.08209 85.02187 99.08209Q85.83437 99.08209 86.35 98.41022Q86.88125 97.72272 86.88125 95.92584Q86.88125 94.25397 86.35 93.58209Q85.81875 92.91022 85.0375 92.91022Z" fill-rule="nonzero"/><path stroke="#757575" stroke-width="1.0" stroke-linecap="butt" d="M22.85 76.41022L154.85 76.41022L243.8739 76.41022" fill-rule="nonzero"/><path fill="#9e9e9e" d="M245.8739 76.41022C245.8739 75.30565 244.97847 74.41022 243.8739 74.41022C242.76933 74.41022 241.8739 75.30565 241.8739 76.41022C241.8739 77.51479 242.76933 78.41022 243.8739 78.41022C244.97847 78.41022 245.8739 77.51479 245.8739 76.41022" fill-rule="nonzero"/><path fill="#1a1a1a" d="M24.709375 295.09067L24.709375 277.90317L31.178125 277.90317Q32.896873 277.90317 33.803123 278.07504Q35.06875 278.27817 35.9125 278.87192Q36.771873 279.46567 37.2875 280.5438Q37.81875 281.6063 37.81875 282.87192Q37.81875 285.07504 36.4125 286.59067Q35.021873 288.1063 31.38125 288.1063L26.975 288.1063L26.975 295.09067L24.709375 295.09067ZM26.975 286.07504L31.4125 286.07504Q33.615623 286.07504 34.5375 285.26254Q35.475 284.43442 35.475 282.95004Q35.475 281.87192 34.928123 281.1063Q34.38125 280.34067 33.490623 280.09067Q32.9125 279.93442 31.365625 279.93442L26.975 279.93442L26.975 286.07504ZM46.615623 295.09067L46.615623 290.9813L39.1625 290.9813L39.1625 289.0438L46.990623 277.90317L48.725 277.90317L48.725 289.0438L51.0375 289.0438L51.0375 290.9813L48.725 290.9813L48.725 295.09067L46.615623 295.09067ZM46.615623 289.0438L46.615623 281.2938L41.225 289.0438L46.615623 289.0438Z" fill-rule="nonzero"/><path fill="#9e9e9e" d="M31.7875 326.09067L29.678125 326.09067L29.678125 312.65317Q28.928125 313.37192 27.678125 314.1063Q26.44375 314.82504 25.459375 315.18442L25.459375 313.15317Q27.240625 312.32504 28.553125 311.13754Q29.88125 309.95004 30.428125 308.84067L31.7875 308.84067L31.7875 326.09067ZM37.1625 322.12192L39.19375 321.93442Q39.44375 323.3563 40.1625 324.01254Q40.896873 324.65317 42.0375 324.65317Q43.00625 324.65317 43.740623 324.21567Q44.475 323.76254 44.94375 323.01254Q45.4125 322.26254 45.725 320.99692Q46.053123 319.7313 46.053123 318.4188Q46.053123 318.27817 46.0375 317.99692Q45.396873 319.01254 44.303123 319.63754Q43.209373 320.26254 41.928123 320.26254Q39.803123 320.26254 38.31875 318.71567Q36.85 317.1688 36.85 314.63754Q36.85 312.02817 38.38125 310.43442Q39.928123 308.84067 42.25625 308.84067Q43.928123 308.84067 45.31875 309.74692Q46.709373 310.63754 47.428123 312.30942Q48.146873 313.9813 48.146873 317.15317Q48.146873 320.43442 47.428123 322.38754Q46.709373 324.34067 45.303123 325.37192Q43.896873 326.38754 41.990623 326.38754Q39.975 326.38754 38.69375 325.26254Q37.428123 324.13754 37.1625 322.12192ZM45.803123 314.52817Q45.803123 312.71567 44.834373 311.65317Q43.865623 310.59067 42.50625 310.59067Q41.1 310.59067 40.053123 311.74692Q39.021873 312.88754 39.021873 314.71567Q39.021873 316.3563 40.00625 317.38754Q40.990623 318.40317 42.44375 318.40317Q43.9125 318.40317 44.85 317.38754Q45.803123 316.3563 45.803123 314.52817ZM51.0375 326.09067L51.0375 323.68442L53.428123 323.68442L53.428123 326.09067L51.0375 326.09067ZM67.92812 324.05942L67.92812 326.09067L56.584373 326.09067Q56.553123 325.32504 56.81875 324.62192Q57.25625 323.46567 58.209373 322.34067Q59.1625 321.21567 60.975 319.7313Q63.771873 317.43442 64.75625 316.1063Q65.74062 314.76254 65.74062 313.55942Q65.74062 312.30942 64.83437 311.45004Q63.94375 310.59067 62.50625 310.59067Q60.990623 310.59067 60.06875 311.51254Q59.1625 312.4188 59.146873 314.02817L56.975 313.80942Q57.19375 311.38754 58.646873 310.12192Q60.1 308.84067 62.553123 308.84067Q65.02187 308.84067 66.45937 310.21567Q67.9125 311.57504 67.9125 313.6063Q67.9125 314.63754 67.49062 315.63754Q67.06875 316.63754 66.08437 317.74692Q65.11562 318.84067 62.834373 320.76254Q60.94375 322.3563 60.396873 322.9188Q59.865623 323.4813 59.50625 324.05942L67.92812 324.05942ZM70.24062 313.02817Q70.24062 311.20004 71.1625 309.9188Q72.1 308.62192 73.85 308.62192Q75.475 308.62192 76.5375 309.77817Q77.6 310.9188 77.6 313.1688Q77.6 315.34067 76.52187 316.52817Q75.44375 317.70004 73.88125 317.70004Q72.31875 317.70004 71.27187 316.5438Q70.24062 315.37192 70.24062 313.02817ZM73.9125 310.07504Q73.13125 310.07504 72.6 310.76254Q72.08437 311.43442 72.08437 313.24692Q72.08437 314.90317 72.61562 315.57504Q73.14687 316.24692 73.9125 316.24692Q74.70937 316.24692 75.225 315.57504Q75.75625 314.88754 75.75625 313.07504Q75.75625 311.4188 75.225 310.74692Q74.69375 310.07504 73.9125 310.07504ZM73.92812 326.7313L83.31875 308.62192L85.0375 308.62192L75.67812 326.7313L73.92812 326.7313ZM81.35 322.05942Q81.35 320.20004 82.27187 318.9188Q83.20937 317.63754 84.975 317.63754Q86.6 317.63754 87.64687 318.7938Q88.70937 319.95004 88.70937 322.18442Q88.70937 324.37192 87.63125 325.55942Q86.56875 326.7313 84.99062 326.7313Q83.42812 326.7313 82.38125 325.55942Q81.35 324.38754 81.35 322.05942ZM85.0375 319.09067Q84.24062 319.09067 83.70937 319.77817Q83.19375 320.45004 83.19375 322.26254Q83.19375 323.90317 83.725 324.59067Q84.25625 325.26254 85.02187 325.26254Q85.83437 325.26254 86.35 324.59067Q86.88125 323.90317 86.88125 322.1063Q86.88125 320.43442 86.35 319.76254Q85.81875 319.09067 85.0375 319.09067Z" fill-rule="nonzero"/><path stroke="#757575" stroke-width="1.0" stroke-linecap="butt" d="M22.85 302.59067L154.85 302.59067L185.72656 302.59067" fill-rule="nonzero"/><path fill="#9e9e9e" d="M187.72656 302.59067C187.72656 301.48608 186.83113 300.59067 185.72656 300.59067C184.622 300.59067 183.72656 301.48608 183.72656 302.59067C183.72656 303.69522 184.622 304.59067 185.72656 304.59067C186.83113 304.59067 187.72656 303.69522 187.72656 302.59067" fill-rule="nonzero"/><path fill="#1a1a1a" d="M683.0094 60.050037L683.0094 42.862537L689.47815 42.862537Q691.1969 42.862537 692.10315 43.034412Q693.3688 43.237537 694.2125 43.831287Q695.0719 44.425037 695.5875 45.503162Q696.1188 46.565662 696.1188 47.831287Q696.1188 50.034412 694.7125 51.550037Q693.3219 53.065662 689.6813 53.065662L685.275 53.065662L685.275 60.050037L683.0094 60.050037ZM685.275 51.034412L689.7125 51.034412Q691.91565 51.034412 692.8375 50.221912Q693.775 49.393787 693.775 47.909412Q693.775 46.831287 693.22815 46.065662Q692.6813 45.300037 691.79065 45.050037Q691.2125 44.893787 689.66565 44.893787L685.275 44.893787L685.275 51.034412ZM706.0875 60.050037L703.97815 60.050037L703.97815 46.612537Q703.22815 47.331287 701.97815 48.065662Q700.7438 48.784412 699.7594 49.143787L699.7594 47.112537Q701.54065 46.284412 702.85315 45.096912Q704.1813 43.909412 704.72815 42.800037L706.0875 42.800037L706.0875 60.050037Z" fill-rule="nonzero"/><path fill="#9e9e9e" d="M652.0875 91.05004L649.97815 91.05004L649.97815 77.61254Q649.22815 78.33129 647.97815 79.06567Q646.7438 79.78442 645.7594 80.14379L645.7594 78.11254Q647.54065 77.28442 648.85315 76.09692Q650.1813 74.90942 650.72815 73.80004L652.0875 73.80004L652.0875 91.05004ZM657.4625 87.08129L659.4938 86.89379Q659.7438 88.31567 660.4625 88.97192Q661.1969 89.61254 662.3375 89.61254Q663.3063 89.61254 664.04065 89.17504Q664.775 88.72192 665.2438 87.97192Q665.7125 87.22192 666.025 85.95629Q666.35315 84.69067 666.35315 83.37817Q666.35315 83.23754 666.3375 82.95629Q665.6969 83.97192 664.60315 84.59692Q663.5094 85.22192 662.22815 85.22192Q660.10315 85.22192 658.6188 83.67504Q657.15 82.12817 657.15 79.59692Q657.15 76.98754 658.6813 75.39379Q660.22815 73.80004 662.5563 73.80004Q664.22815 73.80004 665.6188 74.70629Q667.0094 75.59692 667.72815 77.26879Q668.4469 78.94067 668.4469 82.11254Q668.4469 85.39379 667.72815 87.34692Q667.0094 89.30004 665.60315 90.33129Q664.1969 91.34692 662.29065 91.34692Q660.275 91.34692 658.9938 90.22192Q657.72815 89.09692 657.4625 87.08129ZM666.10315 79.48754Q666.10315 77.67504 665.1344 76.61254Q664.16565 75.55004 662.8063 75.55004Q661.4 75.55004 660.35315 76.70629Q659.3219 77.84692 659.3219 79.67504Q659.3219 81.31567 660.3063 82.34692Q661.29065 83.36254 662.7438 83.36254Q664.2125 83.36254 665.15 82.34692Q666.10315 81.31567 666.10315 79.48754ZM671.3375 91.05004L671.3375 88.64379L673.72815 88.64379L673.72815 91.05004L671.3375 91.05004ZM688.22815 89.01879L688.22815 91.05004L676.8844 91.05004Q676.85315 90.28442 677.1188 89.58129Q677.5563 88.42504 678.5094 87.30004Q679.4625 86.17504 681.275 84.69067Q684.0719 82.39379 685.0563 81.06567Q686.04065 79.72192 686.04065 78.51879Q686.04065 77.26879 685.1344 76.40942Q684.2438 75.55004 682.8063 75.55004Q681.29065 75.55004 680.3688 76.47192Q679.4625 77.37817 679.4469 78.98754L677.275 78.76879Q677.4938 76.34692 678.9469 75.08129Q680.4 73.80004 682.85315 73.80004Q685.3219 73.80004 686.7594 75.17504Q688.2125 76.53442 688.2125 78.56567Q688.2125 79.59692 687.79065 80.59692Q687.3688 81.59692 686.3844 82.70629Q685.41565 83.80004 683.1344 85.72192Q681.2438 87.31567 680.6969 87.87817Q680.16565 88.44067 679.8063 89.01879L688.22815 89.01879ZM690.54065 77.98754Q690.54065 76.15942 691.4625 74.87817Q692.4 73.58129 694.15 73.58129Q695.775 73.58129 696.8375 74.73754Q697.9 75.87817 697.9 78.12817Q697.9 80.30004 696.8219 81.48754Q695.7438 82.65942 694.1813 82.65942Q692.6188 82.65942 691.5719 81.50317Q690.54065 80.33129 690.54065 77.98754ZM694.2125 75.03442Q693.4313 75.03442 692.9 75.72192Q692.3844 76.39379 692.3844 78.20629Q692.3844 79.86254 692.91565 80.53442Q693.4469 81.20629 694.2125 81.20629Q695.0094 81.20629 695.525 80.53442Q696.0563 79.84692 696.0563 78.03442Q696.0563 76.37817 695.525 75.70629Q694.9938 75.03442 694.2125 75.03442ZM694.22815 91.69067L703.6188 73.58129L705.3375 73.58129L695.97815 91.69067L694.22815 91.69067ZM701.65 87.01879Q701.65 85.15942 702.5719 83.87817Q703.5094 82.59692 705.275 82.59692Q706.9 82.59692 707.9469 83.75317Q709.0094 84.90942 709.0094 87.14379Q709.0094 89.33129 707.9313 90.51879Q706.8688 91.69067 705.29065 91.69067Q703.72815 91.69067 702.6813 90.51879Q701.65 89.34692 701.65 87.01879ZM705.3375 84.05004Q704.54065 84.05004 704.0094 84.73754Q703.4938 85.40942 703.4938 87.22192Q703.4938 88.86254 704.025 89.55004Q704.5563 90.22192 705.3219 90.22192Q706.1344 90.22192 706.65 89.55004Q707.1813 88.86254 707.1813 87.06567Q707.1813 85.39379 706.65 84.72192Q706.1188 84.05004 705.3375 84.05004Z" fill-rule="nonzero"/><path stroke="#757575" stroke-width="1.0" stroke-linecap="butt" d="M710.15 67.55004L578.15 67.55004L477.241 67.55004" fill-rule="nonzero"/><path fill="#9e9e9e" d="M479.241 67.55004C479.241 66.44547 478.34558 65.55004 477.241 65.55004C476.13644 65.55004 475.241 66.44547 475.241 67.55004C475.241 68.65461 476.13644 69.55004 477.241 69.55004C478.34558 69.55004 479.241 68.65461 479.241 67.55004" fill-rule="nonzero"/><path fill="#1a1a1a" d="M683.0094 275.4329L683.0094 258.2454L689.47815 258.2454Q691.1969 258.2454 692.10315 258.41727Q693.3688 258.6204 694.2125 259.21414Q695.0719 259.8079 695.5875 260.88602Q696.1188 261.94852 696.1188 263.21414Q696.1188 265.41727 694.7125 266.9329Q693.3219 268.44852 689.6813 268.44852L685.275 268.44852L685.275 275.4329L683.0094 275.4329ZM685.275 266.41727L689.7125 266.41727Q691.91565 266.41727 692.8375 265.60477Q693.775 264.77664 693.775 263.29227Q693.775 262.21414 693.22815 261.44852Q692.6813 260.6829 691.79065 260.4329Q691.2125 260.27664 689.66565 260.27664L685.275 260.27664L685.275 266.41727ZM709.22815 273.40164L709.22815 275.4329L697.8844 275.4329Q697.85315 274.66727 698.1188 273.96414Q698.5563 272.8079 699.5094 271.6829Q700.4625 270.5579 702.275 269.07352Q705.0719 266.77664 706.0563 265.44852Q707.04065 264.10477 707.04065 262.90164Q707.04065 261.65164 706.1344 260.79227Q705.2438 259.9329 703.8063 259.9329Q702.29065 259.9329 701.3688 260.85477Q700.4625 261.76102 700.4469 263.3704L698.275 263.15164Q698.4938 260.72977 699.9469 259.46414Q701.4 258.1829 703.85315 258.1829Q706.3219 258.1829 707.7594 259.5579Q709.2125 260.91727 709.2125 262.94852Q709.2125 263.97977 708.79065 264.97977Q708.3688 265.97977 707.3844 267.08914Q706.41565 268.1829 704.1344 270.10477Q702.2438 271.69852 701.6969 272.26102Q701.16565 272.82352 700.8063 273.40164L709.22815 273.40164Z" fill-rule="nonzero"/><path fill="#9e9e9e" d="M655.22815 304.40164L655.22815 306.4329L643.8844 306.4329Q643.85315 305.66727 644.1188 304.96414Q644.5563 303.8079 645.5094 302.6829Q646.4625 301.5579 648.275 300.07352Q651.0719 297.77664 652.0563 296.44852Q653.04065 295.10477 653.04065 293.90164Q653.04065 292.65164 652.1344 291.79227Q651.2438 290.9329 649.8063 290.9329Q648.29065 290.9329 647.3688 291.85477Q646.4625 292.76102 646.4469 294.3704L644.275 294.15164Q644.4938 291.72977 645.9469 290.46414Q647.4 289.1829 649.85315 289.1829Q652.3219 289.1829 653.7594 290.5579Q655.2125 291.91727 655.2125 293.94852Q655.2125 294.97977 654.79065 295.97977Q654.3688 296.97977 653.3844 298.08914Q652.41565 299.1829 650.1344 301.10477Q648.2438 302.69852 647.6969 303.26102Q647.16565 303.82352 646.8063 304.40164L655.22815 304.40164ZM657.15 297.96414Q657.15 294.91727 657.775 293.0579Q658.4 291.19852 659.6344 290.19852Q660.8688 289.1829 662.7438 289.1829Q664.1344 289.1829 665.16565 289.7454Q666.2125 290.29227 666.8844 291.33914Q667.5719 292.38602 667.9625 293.90164Q668.35315 295.40164 668.35315 297.96414Q668.35315 300.97977 667.72815 302.83914Q667.10315 304.69852 665.8688 305.71414Q664.6344 306.72977 662.7438 306.72977Q660.2594 306.72977 658.85315 304.94852Q657.15 302.79227 657.15 297.96414ZM659.3219 297.96414Q659.3219 302.1829 660.3063 303.58914Q661.29065 304.9954 662.7438 304.9954Q664.1969 304.9954 665.1813 303.58914Q666.1813 302.1829 666.1813 297.96414Q666.1813 293.71414 665.1813 292.32352Q664.1969 290.9329 662.72815 290.9329Q661.275 290.9329 660.4 292.15164Q659.3219 293.72977 659.3219 297.96414ZM671.3375 306.4329L671.3375 304.02664L673.72815 304.02664L673.72815 306.4329L671.3375 306.4329ZM688.0875 293.46414L685.9938 293.6204Q685.7125 292.38602 685.1969 291.82352Q684.3375 290.91727 683.0875 290.91727Q682.0875 290.91727 681.3219 291.47977Q680.3219 292.19852 679.7438 293.60477Q679.1813 294.9954 679.15 297.57352Q679.91565 296.41727 681.0094 295.85477Q682.1188 295.29227 683.3219 295.29227Q685.4313 295.29227 686.91565 296.83914Q688.4 298.38602 688.4 300.85477Q688.4 302.46414 687.6969 303.85477Q687.0094 305.2454 685.79065 305.9954Q684.5719 306.72977 683.025 306.72977Q680.3844 306.72977 678.7125 304.79227Q677.0563 302.83914 677.0563 298.38602Q677.0563 293.41727 678.9 291.15164Q680.4938 289.1829 683.2125 289.1829Q685.2438 289.1829 686.54065 290.32352Q687.8375 291.44852 688.0875 293.46414ZM679.47815 300.8704Q679.47815 301.94852 679.9313 302.94852Q680.4 303.94852 681.22815 304.47977Q682.0719 304.9954 682.97815 304.9954Q684.3219 304.9954 685.275 303.91727Q686.2438 302.83914 686.2438 300.97977Q686.2438 299.19852 685.29065 298.1829Q684.3375 297.15164 682.9 297.15164Q681.47815 297.15164 680.47815 298.1829Q679.47815 299.19852 679.47815 300.8704ZM690.54065 293.3704Q690.54065 291.54227 691.4625 290.26102Q692.4 288.96414 694.15 288.96414Q695.775 288.96414 696.8375 290.1204Q697.9 291.26102 697.9 293.51102Q697.9 295.6829 696.8219 296.8704Q695.7438 298.04227 694.1813 298.04227Q692.6188 298.04227 691.5719 296.88602Q690.54065 295.71414 690.54065 293.3704ZM694.2125 290.41727Q693.4313 290.41727 692.9 291.10477Q692.3844 291.77664 692.3844 293.58914Q692.3844 295.2454 692.91565 295.91727Q693.4469 296.58914 694.2125 296.58914Q695.0094 296.58914 695.525 295.91727Q696.0563 295.22977 696.0563 293.41727Q696.0563 291.76102 695.525 291.08914Q694.9938 290.41727 694.2125 290.41727ZM694.22815 307.07352L703.6188 288.96414L705.3375 288.96414L695.97815 307.07352L694.22815 307.07352ZM701.65 302.40164Q701.65 300.54227 702.5719 299.26102Q703.5094 297.97977 705.275 297.97977Q706.9 297.97977 707.9469 299.13602Q709.0094 300.29227 709.0094 302.52664Q709.0094 304.71414 707.9313 305.90164Q706.8688 307.07352 705.29065 307.07352Q703.72815 307.07352 702.6813 305.90164Q701.65 304.72977 701.65 302.40164ZM705.3375 299.4329Q704.54065 299.4329 704.0094 300.1204Q703.4938 300.79227 703.4938 302.60477Q703.4938 304.2454 704.025 304.9329Q704.5563 305.60477 705.3219 305.60477Q706.1344 305.60477 706.65 304.9329Q707.1813 304.2454 707.1813 302.44852Q707.1813 300.77664 706.65 300.10477Q706.1188 299.4329 705.3375 299.4329Z" fill-rule="nonzero"/><path stroke="#757575" stroke-width="1.0" stroke-linecap="butt" d="M710.15 282.9329L578.15 282.9329L554.13135 282.9329" fill-rule="nonzero"/><path fill="#9e9e9e" d="M556.13135 282.9329C556.13135 281.82834 555.2359 280.9329 554.13135 280.9329C553.0268 280.9329 552.13135 281.82834 552.13135 282.9329C552.13135 284.03748 553.0268 284.9329 554.13135 284.9329C555.2359 284.9329 556.13135 284.03748 556.13135 282.9329" fill-rule="nonzero"/><path fill="#1a1a1a" d="M683.0094 397.15L683.0094 379.9625L689.47815 379.9625Q691.1969 379.9625 692.10315 380.13437Q693.3688 380.3375 694.2125 380.93124Q695.0719 381.525 695.5875 382.60312Q696.1188 383.66562 696.1188 384.93124Q696.1188 387.13437 694.7125 388.65Q693.3219 390.16562 689.6813 390.16562L685.275 390.16562L685.275 397.15L683.0094 397.15ZM685.275 388.13437L689.7125 388.13437Q691.91565 388.13437 692.8375 387.32187Q693.775 386.49374 693.775 385.00937Q693.775 383.93124 693.22815 383.16562Q692.6813 382.4 691.79065 382.15Q691.2125 381.99374 689.66565 381.99374L685.275 381.99374L685.275 388.13437ZM698.16565 392.61874L700.275 392.3375Q700.6344 394.11874 701.5094 394.91562Q702.3844 395.7125 703.6344 395.7125Q705.1188 395.7125 706.1344 394.68124Q707.16565 393.65 707.16565 392.11874Q707.16565 390.66562 706.2125 389.72812Q705.275 388.775 703.8063 388.775Q703.2125 388.775 702.3219 389.00937L702.5563 387.16562Q702.7594 387.18124 702.9 387.18124Q704.2438 387.18124 705.3219 386.47812Q706.4 385.775 706.4 384.32187Q706.4 383.15 705.60315 382.4Q704.8219 381.63437 703.5875 381.63437Q702.35315 381.63437 701.525 382.41562Q700.7125 383.18124 700.47815 384.72812L698.3688 384.35312Q698.7594 382.22812 700.1188 381.07187Q701.4938 379.9 703.54065 379.9Q704.9469 379.9 706.1188 380.50937Q707.3063 381.10312 707.9313 382.15Q708.5719 383.19687 708.5719 384.36874Q708.5719 385.47812 707.9625 386.4Q707.3688 387.30624 706.1969 387.8375Q707.72815 388.19687 708.5719 389.30624Q709.41565 390.41562 709.41565 392.07187Q709.41565 394.32187 707.775 395.9Q706.1344 397.4625 703.6188 397.4625Q701.35315 397.4625 699.85315 396.11874Q698.3688 394.75937 698.16565 392.61874Z" fill-rule="nonzero"/><path fill="#9e9e9e" d="M652.0875 428.15L649.97815 428.15L649.97815 414.7125Q649.22815 415.43124 647.97815 416.16562Q646.7438 416.88437 645.7594 417.24374L645.7594 415.2125Q647.54065 414.38437 648.85315 413.19687Q650.1813 412.00937 650.72815 410.9L652.0875 410.9L652.0875 428.15ZM657.4625 424.18124L659.4938 423.99374Q659.7438 425.41562 660.4625 426.07187Q661.1969 426.7125 662.3375 426.7125Q663.3063 426.7125 664.04065 426.275Q664.775 425.82187 665.2438 425.07187Q665.7125 424.32187 666.025 423.05624Q666.35315 421.79062 666.35315 420.47812Q666.35315 420.3375 666.3375 420.05624Q665.6969 421.07187 664.60315 421.69687Q663.5094 422.32187 662.22815 422.32187Q660.10315 422.32187 658.6188 420.775Q657.15 419.22812 657.15 416.69687Q657.15 414.0875 658.6813 412.49374Q660.22815 410.9 662.5563 410.9Q664.22815 410.9 665.6188 411.80624Q667.0094 412.69687 667.72815 414.36874Q668.4469 416.04062 668.4469 419.2125Q668.4469 422.49374 667.72815 424.44687Q667.0094 426.4 665.60315 427.43124Q664.1969 428.44687 662.29065 428.44687Q660.275 428.44687 658.9938 427.32187Q657.72815 426.19687 657.4625 424.18124ZM666.10315 416.5875Q666.10315 414.775 665.1344 413.7125Q664.16565 412.65 662.8063 412.65Q661.4 412.65 660.35315 413.80624Q659.3219 414.94687 659.3219 416.775Q659.3219 418.41562 660.3063 419.44687Q661.29065 420.4625 662.7438 420.4625Q664.2125 420.4625 665.15 419.44687Q666.10315 418.41562 666.10315 416.5875ZM671.3375 428.15L671.3375 425.74374L673.72815 425.74374L673.72815 428.15L671.3375 428.15ZM683.91565 428.15L683.91565 424.04062L676.4625 424.04062L676.4625 422.10312L684.29065 410.9625L686.025 410.9625L686.025 422.10312L688.3375 422.10312L688.3375 424.04062L686.025 424.04062L686.025 428.15L683.91565 428.15ZM683.91565 422.10312L683.91565 414.35312L678.525 422.10312L683.91565 422.10312ZM690.54065 415.0875Q690.54065 413.25937 691.4625 411.97812Q692.4 410.68124 694.15 410.68124Q695.775 410.68124 696.8375 411.8375Q697.9 412.97812 697.9 415.22812Q697.9 417.4 696.8219 418.5875Q695.7438 419.75937 694.1813 419.75937Q692.6188 419.75937 691.5719 418.60312Q690.54065 417.43124 690.54065 415.0875ZM694.2125 412.13437Q693.4313 412.13437 692.9 412.82187Q692.3844 413.49374 692.3844 415.30624Q692.3844 416.9625 692.91565 417.63437Q693.4469 418.30624 694.2125 418.30624Q695.0094 418.30624 695.525 417.63437Q696.0563 416.94687 696.0563 415.13437Q696.0563 413.47812 695.525 412.80624Q694.9938 412.13437 694.2125 412.13437ZM694.22815 428.79062L703.6188 410.68124L705.3375 410.68124L695.97815 428.79062L694.22815 428.79062ZM701.65 424.11874Q701.65 422.25937 702.5719 420.97812Q703.5094 419.69687 705.275 419.69687Q706.9 419.69687 707.9469 420.85312Q709.0094 422.00937 709.0094 424.24374Q709.0094 426.43124 707.9313 427.61874Q706.8688 428.79062 705.29065 428.79062Q703.72815 428.79062 702.6813 427.61874Q701.65 426.44687 701.65 424.11874ZM705.3375 421.15Q704.54065 421.15 704.0094 421.8375Q703.4938 422.50937 703.4938 424.32187Q703.4938 425.9625 704.025 426.65Q704.5563 427.32187 705.3219 427.32187Q706.1344 427.32187 706.65 426.65Q707.1813 425.9625 707.1813 424.16562Q707.1813 422.49374 706.65 421.82187Q706.1188 421.15 705.3375 421.15Z" fill-rule="nonzero"/><path stroke="#757575" stroke-width="1.0" stroke-linecap="butt" d="M710.15 404.65L578.15 404.65L372.5008 423.77533" fill-rule="nonzero"/><path fill="#9e9e9e" d="M374.5008 423.77533C374.5008 422.67075 373.60535 421.77533 372.5008 421.77533C371.3962 421.77533 370.5008 422.67075 370.5008 423.77533C370.5008 424.87988 371.3962 425.77533 372.5008 425.77533C373.60535 425.77533 374.5008 424.87988 374.5008 423.77533" fill-rule="nonzero"/></svg>