<svg version="1.1" viewBox="0.0 0.0 922.0 462.0" fill="none" stroke="none" stroke-linecap="square" stroke-miterlimit="10" width="922" height="462" xmlns:xlink="http://www.w3.org/1999/xlink" xmlns="http://www.w3.org/2000/svg"><path fill="#ffffff" d="M0 0L922.0 0L922.0 462.0L0 462.0L0 0Z" fill-rule="nonzero"/><path stroke="#333333" stroke-width="1.0" stroke-linecap="butt" d="M50.5 418.5L898.5 418.5" fill-rule="nonzero"/><path stroke="#cccccc" stroke-width="1.0" stroke-linecap="butt" d="M50.5 354.5L898.5 354.5" fill-rule="nonzero"/><path stroke="#cccccc" stroke-width="1.0" stroke-linecap="butt" d="M50.5 290.5L898.5 290.5" fill-rule="nonzero"/><path stroke="#cccccc" stroke-width="1.0" stroke-linecap="butt" d="M50.5 226.5L898.5 226.5" fill-rule="nonzero"/><path stroke="#cccccc" stroke-width="1.0" stroke-linecap="butt" d="M50.5 162.5L898.5 162.5" fill-rule="nonzero"/><path stroke="#cccccc" stroke-width="1.0" stroke-linecap="butt" d="M50.5 98.5L898.5 98.5" fill-rule="nonzero"/><path stroke="#e6e6e6" stroke-width="1.0" stroke-linecap="butt" d="M50.5 397.5L898.5 397.5" fill-rule="nonzero"/><path stroke="#e6e6e6" stroke-width="1.0" stroke-linecap="butt" d="M50.5 376.5L898.5 376.5" fill-rule="nonzero"/><path stroke="#e6e6e6" stroke-width="1.0" stroke-linecap="butt" d="M50.5 333.5L898.5 333.5" fill-rule="nonzero"/><path stroke="#e6e6e6" stroke-width="1.0" stroke-linecap="butt" d="M50.5 312.5L898.5 312.5" fill-rule="nonzero"/><path stroke="#e6e6e6" stroke-width="1.0" stroke-linecap="butt" d="M50.5 269.5L898.5 269.5" fill-rule="nonzero"/><path stroke="#e6e6e6" stroke-width="1.0" stroke-linecap="butt" d="M50.5 248.5L898.5 248.5" fill-rule="nonzero"/><path stroke="#e6e6e6" stroke-width="1.0" stroke-linecap="butt" d="M50.5 205.5L898.5 205.5" fill-rule="nonzero"/><path stroke="#e6e6e6" stroke-width="1.0" stroke-linecap="butt" d="M50.5 184.5L898.5 184.5" fill-rule="nonzero"/><path stroke="#e6e6e6" stroke-width="1.0" stroke-linecap="butt" d="M50.5 141.5L898.5 141.5" fill-rule="nonzero"/><path stroke="#e6e6e6" stroke-width="1.0" stroke-linecap="butt" d="M50.5 120.5L898.5 120.5" fill-rule="nonzero"/><path stroke="#000000" stroke-width="1.0" stroke-linecap="butt" d="M898.5 418.5L50.5 418.5" fill-rule="nonzero"/><path stroke="#000000" stroke-width="1.0" stroke-linecap="butt" d="M50.5 418.5L50.5 98.5" fill-rule="nonzero"/><clipPath id="id_0"><path d="M50.1 98.9L898.9 98.9L898.9 418.9L50.1 418.9L50.1 98.9Z" clip-rule="nonzero"/></clipPath><path stroke="#000000" stroke-width="2.0" stroke-linecap="butt" stroke-opacity="0.0" clip-path="url(#id_0)" d="M171.0 419.0L140.0 419.0L140.0 199.0C140.0 197.89543 140.89543 197.0 142.0 197.0L169.0 197.0C170.10457 197.0 171.0 197.89543 171.0 199.0Z" fill-rule="nonzero"/><path fill="#4285f4" clip-path="url(#id_0)" d="M171.0 419.0L140.0 419.0L140.0 199.0C140.0 197.89543 140.89543 197.0 142.0 197.0L169.0 197.0C170.10457 197.0 171.0 197.89543 171.0 199.0Z" fill-rule="nonzero"/><path stroke="#000000" stroke-width="2.0" stroke-linecap="butt" stroke-opacity="0.0" clip-path="url(#id_0)" d="M425.0 419.0L394.0 419.0L394.0 207.0C394.0 205.89543 394.89542 205.0 396.0 205.0L423.0 205.0C424.10458 205.0 425.0 205.89543 425.0 207.0Z" fill-rule="nonzero"/><path fill="#4285f4" clip-path="url(#id_0)" d="M425.0 419.0L394.0 419.0L394.0 207.0C394.0 205.89543 394.89542 205.0 396.0 205.0L423.0 205.0C424.10458 205.0 425.0 205.89543 425.0 207.0Z" fill-rule="nonzero"/><path stroke="#000000" stroke-width="2.0" stroke-linecap="butt" stroke-opacity="0.0" clip-path="url(#id_0)" d="M678.0 419.0L647.0 419.0L647.0 208.0C647.0 206.89543 647.89545 206.0 649.0 206.0L676.0 206.0C677.10455 206.0 678.0 206.89543 678.0 208.0Z" fill-rule="nonzero"/><path fill="#4285f4" clip-path="url(#id_0)" d="M678.0 419.0L647.0 419.0L647.0 208.0C647.0 206.89543 647.89545 206.0 649.0 206.0L676.0 206.0C677.10455 206.0 678.0 206.89543 678.0 208.0Z" fill-rule="nonzero"/><path stroke="#000000" stroke-width="2.0" stroke-linecap="butt" stroke-opacity="0.0" clip-path="url(#id_0)" d="M204.0 419.0L173.0 419.0L173.0 185.0C173.0 183.89543 173.89543 183.0 175.0 183.0L202.0 183.0C203.10457 183.0 204.0 183.89543 204.0 185.0Z" fill-rule="nonzero"/><path fill="#ea4335" clip-path="url(#id_0)" d="M204.0 419.0L173.0 419.0L173.0 185.0C173.0 183.89543 173.89543 183.0 175.0 183.0L202.0 183.0C203.10457 183.0 204.0 183.89543 204.0 185.0Z" fill-rule="nonzero"/><path stroke="#000000" stroke-width="2.0" stroke-linecap="butt" stroke-opacity="0.0" clip-path="url(#id_0)" d="M458.0 419.0L427.0 419.0L427.0 182.0C427.0 180.89543 427.89542 180.0 429.0 180.0L456.0 180.0C457.10458 180.0 458.0 180.89543 458.0 182.0Z" fill-rule="nonzero"/><path fill="#ea4335" clip-path="url(#id_0)" d="M458.0 419.0L427.0 419.0L427.0 182.0C427.0 180.89543 427.89542 180.0 429.0 180.0L456.0 180.0C457.10458 180.0 458.0 180.89543 458.0 182.0Z" fill-rule="nonzero"/><path stroke="#000000" stroke-width="2.0" stroke-linecap="butt" stroke-opacity="0.0" clip-path="url(#id_0)" d="M711.0 419.0L680.0 419.0L680.0 178.0C680.0 176.89543 680.89545 176.0 682.0 176.0L709.0 176.0C710.10455 176.0 711.0 176.89543 711.0 178.0Z" fill-rule="nonzero"/><path fill="#ea4335" clip-path="url(#id_0)" d="M711.0 419.0L680.0 419.0L680.0 178.0C680.0 176.89543 680.89545 176.0 682.0 176.0L709.0 176.0C710.10455 176.0 711.0 176.89543 711.0 178.0Z" fill-rule="nonzero"/><path stroke="#000000" stroke-width="2.0" stroke-linecap="butt" stroke-opacity="0.0" clip-path="url(#id_0)" d="M237.0 419.0L206.0 419.0L206.0 191.0C206.0 189.89543 206.89543 189.0 208.0 189.0L235.0 189.0C236.10457 189.0 237.0 189.89543 237.0 191.0Z" fill-rule="nonzero"/><path fill="#fbbc04" clip-path="url(#id_0)" d="M237.0 419.0L206.0 419.0L206.0 191.0C206.0 189.89543 206.89543 189.0 208.0 189.0L235.0 189.0C236.10457 189.0 237.0 189.89543 237.0 191.0Z" fill-rule="nonzero"/><path stroke="#000000" stroke-width="2.0" stroke-linecap="butt" stroke-opacity="0.0" clip-path="url(#id_0)" d="M491.0 419.0L460.0 419.0L460.0 206.0C460.0 204.89543 460.89542 204.0 462.0 204.0L489.0 204.0C490.10458 204.0 491.0 204.89543 491.0 206.0Z" fill-rule="nonzero"/><path fill="#fbbc04" clip-path="url(#id_0)" d="M491.0 419.0L460.0 419.0L460.0 206.0C460.0 204.89543 460.89542 204.0 462.0 204.0L489.0 204.0C490.10458 204.0 491.0 204.89543 491.0 206.0Z" fill-rule="nonzero"/><path stroke="#000000" stroke-width="2.0" stroke-linecap="butt" stroke-opacity="0.0" clip-path="url(#id_0)" d="M744.0 419.0L713.0 419.0L713.0 192.0C713.0 190.89543 713.89545 190.0 715.0 190.0L742.0 190.0C743.10455 190.0 744.0 190.89543 744.0 192.0Z" fill-rule="nonzero"/><path fill="#fbbc04" clip-path="url(#id_0)" d="M744.0 419.0L713.0 419.0L713.0 192.0C713.0 190.89543 713.89545 190.0 715.0 190.0L742.0 190.0C743.10455 190.0 744.0 190.89543 744.0 192.0Z" fill-rule="nonzero"/><path stroke="#000000" stroke-width="2.0" stroke-linecap="butt" stroke-opacity="0.0" clip-path="url(#id_0)" d="M270.0 419.0L239.0 419.0L239.0 199.0C239.0 197.89543 239.89543 197.0 241.0 197.0L268.0 197.0C269.10458 197.0 270.0 197.89543 270.0 199.0Z" fill-rule="nonzero"/><path fill="#34a853" clip-path="url(#id_0)" d="M270.0 419.0L239.0 419.0L239.0 199.0C239.0 197.89543 239.89543 197.0 241.0 197.0L268.0 197.0C269.10458 197.0 270.0 197.89543 270.0 199.0Z" fill-rule="nonzero"/><path stroke="#000000" stroke-width="2.0" stroke-linecap="butt" stroke-opacity="0.0" clip-path="url(#id_0)" d="M524.0 419.0L493.0 419.0L493.0 203.0C493.0 201.89543 493.89542 201.0 495.0 201.0L522.0 201.0C523.10455 201.0 524.0 201.89543 524.0 203.0Z" fill-rule="nonzero"/><path fill="#34a853" clip-path="url(#id_0)" d="M524.0 419.0L493.0 419.0L493.0 203.0C493.0 201.89543 493.89542 201.0 495.0 201.0L522.0 201.0C523.10455 201.0 524.0 201.89543 524.0 203.0Z" fill-rule="nonzero"/><path stroke="#000000" stroke-width="2.0" stroke-linecap="butt" stroke-opacity="0.0" clip-path="url(#id_0)" d="M777.0 419.0L746.0 419.0L746.0 204.0C746.0 202.89543 746.89545 202.0 748.0 202.0L775.0 202.0C776.10455 202.0 777.0 202.89543 777.0 204.0Z" fill-rule="nonzero"/><path fill="#34a853" clip-path="url(#id_0)" d="M777.0 419.0L746.0 419.0L746.0 204.0C746.0 202.89543 746.89545 202.0 748.0 202.0L775.0 202.0C776.10455 202.0 777.0 202.89543 777.0 204.0Z" fill-rule="nonzero"/><path stroke="#000000" stroke-width="2.0" stroke-linecap="butt" stroke-opacity="0.0" clip-path="url(#id_0)" d="M303.0 419.0L272.0 419.0L272.0 166.0C272.0 164.89543 272.89542 164.0 274.0 164.0L301.0 164.0C302.10458 164.0 303.0 164.89543 303.0 166.0Z" fill-rule="nonzero"/><path fill="#ff6d01" clip-path="url(#id_0)" d="M303.0 419.0L272.0 419.0L272.0 166.0C272.0 164.89543 272.89542 164.0 274.0 164.0L301.0 164.0C302.10458 164.0 303.0 164.89543 303.0 166.0Z" fill-rule="nonzero"/><path stroke="#000000" stroke-width="2.0" stroke-linecap="butt" stroke-opacity="0.0" clip-path="url(#id_0)" d="M557.0 419.0L526.0 419.0L526.0 183.0C526.0 181.89543 526.89545 181.0 528.0 181.0L555.0 181.0C556.10455 181.0 557.0 181.89543 557.0 183.0Z" fill-rule="nonzero"/><path fill="#ff6d01" clip-path="url(#id_0)" d="M557.0 419.0L526.0 419.0L526.0 183.0C526.0 181.89543 526.89545 181.0 528.0 181.0L555.0 181.0C556.10455 181.0 557.0 181.89543 557.0 183.0Z" fill-rule="nonzero"/><path stroke="#000000" stroke-width="2.0" stroke-linecap="butt" stroke-opacity="0.0" clip-path="url(#id_0)" d="M810.0 419.0L779.0 419.0L779.0 172.0C779.0 170.89543 779.89545 170.0 781.0 170.0L808.0 170.0C809.10455 170.0 810.0 170.89543 810.0 172.0Z" fill-rule="nonzero"/><path fill="#ff6d01" clip-path="url(#id_0)" d="M810.0 419.0L779.0 419.0L779.0 172.0C779.0 170.89543 779.89545 170.0 781.0 170.0L808.0 170.0C809.10455 170.0 810.0 170.89543 810.0 172.0Z" fill-rule="nonzero"/><path fill="#000000" d="M37.6 418.66562Q37.6 417.13437 37.9125 416.2125Q38.225 415.275 38.834373 414.775Q39.459373 414.275 40.396873 414.275Q41.084373 414.275 41.6 414.55624Q42.13125 414.8375 42.475 415.36874Q42.81875 415.88437 43.00625 416.63437Q43.19375 417.38437 43.19375 418.66562Q43.19375 420.18124 42.88125 421.10312Q42.584373 422.025 41.959373 422.54062Q41.35 423.04062 40.396873 423.04062Q39.1625 423.04062 38.44375 422.15Q37.6 421.0875 37.6 418.66562ZM38.678123 418.66562Q38.678123 420.775 39.178123 421.47812Q39.678123 422.18124 40.396873 422.18124Q41.13125 422.18124 41.615623 421.47812Q42.115623 420.775 42.115623 418.66562Q42.115623 416.54062 41.615623 415.85312Q41.13125 415.15 40.38125 415.15Q39.6625 415.15 39.225 415.75937Q38.678123 416.54062 38.678123 418.66562Z" fill-rule="nonzero"/><path fill="#000000" d="M43.146873 357.88437L43.146873 358.9L37.459373 358.9Q37.459373 358.525 37.584373 358.16562Q37.803123 357.5875 38.271873 357.025Q38.75625 356.4625 39.6625 355.72812Q41.06875 354.57187 41.553123 353.9Q42.053123 353.22812 42.053123 352.63437Q42.053123 352.00937 41.6 351.5875Q41.146873 351.15 40.428123 351.15Q39.6625 351.15 39.209373 351.60312Q38.75625 352.05624 38.740623 352.86874L37.6625 352.75937Q37.771873 351.54062 38.490623 350.91562Q39.225 350.275 40.459373 350.275Q41.69375 350.275 42.4125 350.9625Q43.13125 351.65 43.13125 352.66562Q43.13125 353.18124 42.9125 353.68124Q42.709373 354.16562 42.209373 354.72812Q41.725 355.275 40.6 356.22812Q39.646873 357.025 39.365623 357.32187Q39.1 357.60312 38.928123 357.88437L43.146873 357.88437Z" fill-rule="nonzero"/><path fill="#000000" d="M40.975 294.9L40.975 292.8375L37.25625 292.8375L37.25625 291.86874L41.178123 286.30624L42.0375 286.30624L42.0375 291.86874L43.19375 291.86874L43.19375 292.8375L42.0375 292.8375L42.0375 294.9L40.975 294.9ZM40.975 291.86874L40.975 288.00937L38.2875 291.86874L40.975 291.86874Z" fill-rule="nonzero"/><path fill="#000000" d="M43.06875 224.41562L42.021873 224.49374Q41.88125 223.86874 41.63125 223.5875Q41.19375 223.13437 40.56875 223.13437Q40.06875 223.13437 39.678123 223.41562Q39.19375 223.79062 38.896873 224.49374Q38.615623 225.18124 38.6 226.4625Q38.975 225.88437 39.521873 225.60312Q40.084373 225.32187 40.69375 225.32187Q41.740623 225.32187 42.475 226.10312Q43.225 226.88437 43.225 228.10312Q43.225 228.91562 42.865623 229.61874Q42.521873 230.30624 41.9125 230.68124Q41.303123 231.04062 40.5375 231.04062Q39.209373 231.04062 38.38125 230.07187Q37.553123 229.10312 37.553123 226.88437Q37.553123 224.38437 38.475 223.25937Q39.271873 222.275 40.63125 222.275Q41.646873 222.275 42.2875 222.85312Q42.94375 223.41562 43.06875 224.41562ZM38.771873 228.11874Q38.771873 228.66562 38.990623 229.16562Q39.225 229.65 39.63125 229.91562Q40.053123 230.18124 40.521873 230.18124Q41.178123 230.18124 41.6625 229.65Q42.146873 229.10312 42.146873 228.18124Q42.146873 227.29062 41.6625 226.775Q41.19375 226.25937 40.475 226.25937Q39.75625 226.25937 39.25625 226.775Q38.771873 227.29062 38.771873 228.11874Z" fill-rule="nonzero"/><path fill="#000000" d="M39.225 162.24374Q38.56875 161.99374 38.240623 161.55624Q37.928123 161.10312 37.928123 160.49374Q37.928123 159.55624 38.6 158.91562Q39.2875 158.275 40.396873 158.275Q41.521873 158.275 42.209373 158.93124Q42.896873 159.5875 42.896873 160.525Q42.896873 161.11874 42.584373 161.55624Q42.271873 161.99374 41.63125 162.24374Q42.428123 162.49374 42.834373 163.07187Q43.240623 163.65 43.240623 164.44687Q43.240623 165.54062 42.459373 166.29062Q41.69375 167.04062 40.4125 167.04062Q39.146873 167.04062 38.365623 166.29062Q37.584373 165.54062 37.584373 164.41562Q37.584373 163.57187 38.00625 163.00937Q38.44375 162.44687 39.225 162.24374ZM39.00625 160.44687Q39.00625 161.05624 39.396873 161.44687Q39.803123 161.8375 40.428123 161.8375Q41.0375 161.8375 41.428123 161.4625Q41.81875 161.07187 41.81875 160.50937Q41.81875 159.93124 41.4125 159.54062Q41.00625 159.13437 40.4125 159.13437Q39.803123 159.13437 39.396873 159.525Q39.00625 159.91562 39.00625 160.44687ZM38.678123 164.41562Q38.678123 164.86874 38.88125 165.29062Q39.1 165.7125 39.521873 165.94687Q39.94375 166.18124 40.428123 166.18124Q41.178123 166.18124 41.6625 165.69687Q42.1625 165.2125 42.1625 164.4625Q42.1625 163.69687 41.6625 163.19687Q41.1625 162.69687 40.396873 162.69687Q39.646873 162.69687 39.1625 163.19687Q38.678123 163.68124 38.678123 164.41562Z" fill-rule="nonzero"/><path fill="#000000" d="M34.56875 102.9L33.521873 102.9L33.521873 96.18125Q33.13125 96.54063 32.50625 96.91563Q31.896875 97.275 31.4125 97.44688L31.4125 96.43125Q32.2875 96.00938 32.94375 95.43125Q33.615623 94.8375 33.896873 94.275L34.56875 94.275L34.56875 102.9ZM37.6 98.66563Q37.6 97.13438 37.9125 96.2125Q38.225 95.275 38.834373 94.775Q39.459373 94.275 40.396873 94.275Q41.084373 94.275 41.6 94.55625Q42.13125 94.8375 42.475 95.36875Q42.81875 95.88438 43.00625 96.63438Q43.19375 97.38438 43.19375 98.66563Q43.19375 100.18125 42.88125 101.10313Q42.584373 102.025 41.959373 102.54063Q41.35 103.04063 40.396873 103.04063Q39.1625 103.04063 38.44375 102.15Q37.6 101.0875 37.6 98.66563ZM38.678123 98.66563Q38.678123 100.775 39.178123 101.47813Q39.678123 102.18125 40.396873 102.18125Q41.13125 102.18125 41.615623 101.47813Q42.115623 100.775 42.115623 98.66563Q42.115623 96.54063 41.615623 95.85313Q41.13125 95.15 40.38125 95.15Q39.6625 95.15 39.225 95.75938Q38.678123 96.54063 38.678123 98.66563Z" fill-rule="nonzero"/><path fill="#000000" d="M204.68936 432.88437L205.81436 433.18124Q205.45499 434.57187 204.53311 435.30624Q203.61124 436.04062 202.26749 436.04062Q200.87686 436.04062 200.00186 435.47812Q199.12686 434.91562 198.67374 433.85312Q198.22061 432.775 198.22061 431.54062Q198.22061 430.19687 198.73624 429.19687Q199.25186 428.19687 200.18936 427.68124Q201.14249 427.16562 202.28311 427.16562Q203.56436 427.16562 204.43936 427.82187Q205.32999 428.47812 205.67374 429.66562L204.54874 429.93124Q204.25186 428.99374 203.67374 428.57187Q203.11124 428.13437 202.25186 428.13437Q201.26749 428.13437 200.59561 428.61874Q199.93936 429.0875 199.65811 429.88437Q199.39249 430.68124 199.39249 431.54062Q199.39249 432.63437 199.70499 433.44687Q200.03311 434.25937 200.70499 434.66562Q201.37686 435.07187 202.17374 435.07187Q203.12686 435.07187 203.78311 434.525Q204.45499 433.97812 204.68936 432.88437ZM207.39249 435.9L207.39249 427.30624L208.45499 427.30624L208.45499 435.9L207.39249 435.9ZM214.48624 435.13437Q213.89249 435.63437 213.34561 435.8375Q212.81436 436.04062 212.18936 436.04062Q211.15811 436.04062 210.61124 435.54062Q210.06436 435.04062 210.06436 434.25937Q210.06436 433.80624 210.26749 433.43124Q210.47061 433.04062 210.81436 432.82187Q211.15811 432.5875 211.57999 432.47812Q211.87686 432.38437 212.51749 432.30624Q213.78311 432.16562 214.39249 431.94687Q214.39249 431.72812 214.39249 431.68124Q214.39249 431.025 214.09561 430.75937Q213.68936 430.41562 212.89249 430.41562Q212.15811 430.41562 211.79874 430.68124Q211.43936 430.93124 211.26749 431.5875L210.23624 431.44687Q210.37686 430.79062 210.70499 430.38437Q211.03311 429.97812 211.64249 429.75937Q212.25186 429.54062 213.04874 429.54062Q213.84561 429.54062 214.34561 429.72812Q214.84561 429.91562 215.07999 430.19687Q215.31436 430.47812 215.40811 430.91562Q215.45499 431.18124 215.45499 431.88437L215.45499 433.29062Q215.45499 434.75937 215.51749 435.15Q215.59561 435.54062 215.79874 435.9L214.68936 435.9Q214.53311 435.57187 214.48624 435.13437ZM214.39249 432.775Q213.81436 433.00937 212.67374 433.18124Q212.01749 433.275 211.75186 433.4Q211.48624 433.50937 211.32999 433.72812Q211.18936 433.94687 211.18936 434.22812Q211.18936 434.65 211.50186 434.93124Q211.82999 435.2125 212.43936 435.2125Q213.04874 435.2125 213.51749 434.94687Q214.00186 434.68124 214.22061 434.2125Q214.39249 433.85312 214.39249 433.16562L214.39249 432.775ZM221.50186 435.9L221.50186 434.97812Q220.76749 436.04062 219.51749 436.04062Q218.97061 436.04062 218.48624 435.8375Q218.01749 435.61874 217.78311 435.30624Q217.54874 434.97812 217.45499 434.50937Q217.39249 434.2125 217.39249 433.525L217.39249 429.68124L218.45499 429.68124L218.45499 433.13437Q218.45499 433.94687 218.51749 434.24374Q218.61124 434.65 218.92374 434.9Q219.25186 435.13437 219.73624 435.13437Q220.20499 435.13437 220.61124 434.9Q221.03311 434.65 221.20499 434.22812Q221.39249 433.80624 221.39249 433.00937L221.39249 429.68124L222.43936 429.68124L222.43936 435.9L221.50186 435.9ZM228.45499 435.9L228.45499 435.11874Q227.86124 436.04062 226.72061 436.04062Q225.97061 436.04062 225.34561 435.63437Q224.72061 435.2125 224.37686 434.47812Q224.03311 433.74374 224.03311 432.79062Q224.03311 431.86874 224.34561 431.10312Q224.65811 430.3375 225.28311 429.94687Q225.90811 429.54062 226.67374 429.54062Q227.23624 429.54062 227.67374 429.775Q228.11124 430.00937 228.39249 430.38437L228.39249 427.30624L229.43936 427.30624L229.43936 435.9L228.45499 435.9ZM225.12686 432.79062Q225.12686 433.99374 225.62686 434.5875Q226.12686 435.16562 226.81436 435.16562Q227.50186 435.16562 227.98624 434.60312Q228.47061 434.04062 228.47061 432.88437Q228.47061 431.60312 227.97061 431.00937Q227.48624 430.41562 226.76749 430.41562Q226.06436 430.41562 225.59561 430.99374Q225.12686 431.55624 225.12686 432.79062ZM235.67374 433.9L236.76749 434.025Q236.51749 434.97812 235.81436 435.50937Q235.11124 436.04062 234.03311 436.04062Q232.67374 436.04062 231.86124 435.19687Q231.06436 434.35312 231.06436 432.8375Q231.06436 431.275 231.87686 430.41562Q232.68936 429.54062 233.97061 429.54062Q235.22061 429.54062 236.00186 430.38437Q236.79874 431.22812 236.79874 432.775Q236.79874 432.86874 236.79874 433.05624L232.15811 433.05624Q232.22061 434.0875 232.73624 434.63437Q233.25186 435.16562 234.03311 435.16562Q234.61124 435.16562 235.01749 434.86874Q235.43936 434.55624 235.67374 433.9ZM232.22061 432.19687L235.68936 432.19687Q235.62686 431.4 235.29874 431.00937Q234.78311 430.4 233.98624 430.4Q233.25186 430.4 232.75186 430.88437Q232.26749 431.36874 232.22061 432.19687ZM238.12686 433.63437L239.18936 433.49374Q239.36124 434.38437 239.79874 434.79062Q240.23624 435.18124 240.86124 435.18124Q241.61124 435.18124 242.12686 434.66562Q242.64249 434.15 242.64249 433.38437Q242.64249 432.66562 242.15811 432.19687Q241.68936 431.7125 240.95499 431.7125Q240.65811 431.7125 240.20499 431.8375L240.32999 430.9Q240.43936 430.91562 240.50186 430.91562Q241.17374 430.91562 241.70499 430.57187Q242.25186 430.2125 242.25186 429.47812Q242.25186 428.9 241.86124 428.525Q241.47061 428.13437 240.84561 428.13437Q240.23624 428.13437 239.81436 428.525Q239.40811 428.91562 239.29874 429.68124L238.23624 429.49374Q238.42374 428.44687 239.11124 427.86874Q239.79874 427.275 240.81436 427.275Q241.51749 427.275 242.11124 427.5875Q242.70499 427.88437 243.01749 428.4Q243.32999 428.91562 243.32999 429.50937Q243.32999 430.05624 243.03311 430.525Q242.73624 430.97812 242.15811 431.24374Q242.90811 431.41562 243.32999 431.97812Q243.75186 432.525 243.75186 433.36874Q243.75186 434.49374 242.92374 435.275Q242.11124 436.05624 240.86124 436.05624Q239.73624 436.05624 238.98624 435.38437Q238.23624 434.69687 238.12686 433.63437Z" fill-rule="nonzero"/><path fill="#000000" d="M459.45312 432.525L459.45312 431.525L463.07812 431.50937L463.07812 434.69687Q462.25 435.36874 461.35938 435.7125Q460.46875 436.04062 459.53125 436.04062Q458.26562 436.04062 457.21875 435.50937Q456.1875 434.9625 455.65625 433.94687Q455.14062 432.91562 455.14062 431.65Q455.14062 430.38437 455.65625 429.30624Q456.1875 428.2125 457.17188 427.69687Q458.15625 427.16562 459.4375 427.16562Q460.375 427.16562 461.125 427.4625Q461.875 427.75937 462.29688 428.30624Q462.73438 428.8375 462.95312 429.7125L461.9375 429.99374Q461.73438 429.3375 461.4375 428.9625Q461.15625 428.5875 460.625 428.36874Q460.09375 428.13437 459.45312 428.13437Q458.67188 428.13437 458.09375 428.36874Q457.53125 428.60312 457.17188 428.99374Q456.82812 429.38437 456.64062 429.85312Q456.3125 430.65 456.3125 431.57187Q456.3125 432.72812 456.70312 433.50937Q457.10938 434.275 457.85938 434.65Q458.60938 435.025 459.46875 435.025Q460.20312 435.025 460.90625 434.74374Q461.60938 434.44687 461.96875 434.13437L461.96875 432.525L459.45312 432.525ZM468.54688 433.9L469.64062 434.025Q469.39062 434.97812 468.6875 435.50937Q467.98438 436.04062 466.90625 436.04062Q465.54688 436.04062 464.73438 435.19687Q463.9375 434.35312 463.9375 432.8375Q463.9375 431.275 464.75 430.41562Q465.5625 429.54062 466.84375 429.54062Q468.09375 429.54062 468.875 430.38437Q469.67188 431.22812 469.67188 432.775Q469.67188 432.86874 469.67188 433.05624L465.03125 433.05624Q465.09375 434.0875 465.60938 434.63437Q466.125 435.16562 466.90625 435.16562Q467.48438 435.16562 467.89062 434.86874Q468.3125 434.55624 468.54688 433.9ZM465.09375 432.19687L468.5625 432.19687Q468.5 431.4 468.17188 431.00937Q467.65625 430.4 466.85938 430.4Q466.125 430.4 465.625 430.88437Q465.14062 431.36874 465.09375 432.19687ZM471.29688 435.9L471.29688 429.68124L472.23438 429.68124L472.23438 430.55624Q472.53125 430.0875 473.01562 429.82187Q473.5 429.54062 474.125 429.54062Q474.8125 429.54062 475.25 429.82187Q475.70312 430.10312 475.875 430.61874Q476.625 429.54062 477.79688 429.54062Q478.73438 429.54062 479.21875 430.05624Q479.71875 430.55624 479.71875 431.63437L479.71875 435.9L478.67188 435.9L478.67188 431.97812Q478.67188 431.35312 478.5625 431.07187Q478.46875 430.79062 478.20312 430.61874Q477.9375 430.44687 477.5625 430.44687Q476.90625 430.44687 476.46875 430.88437Q476.04688 431.32187 476.04688 432.29062L476.04688 435.9L474.98438 435.9L474.98438 431.85312Q474.98438 431.15 474.71875 430.80624Q474.46875 430.44687 473.89062 430.44687Q473.4375 430.44687 473.0625 430.68124Q472.6875 430.91562 472.51562 431.36874Q472.34375 431.82187 472.34375 432.66562L472.34375 435.9L471.29688 435.9ZM482.29688 428.525L482.29688 427.30624L483.35938 427.30624L483.35938 428.525L482.29688 428.525ZM482.29688 435.9L482.29688 429.68124L483.35938 429.68124L483.35938 435.9L482.29688 435.9ZM485.29688 435.9L485.29688 429.68124L486.23438 429.68124L486.23438 430.55624Q486.92188 429.54062 488.21875 429.54062Q488.78125 429.54062 489.25 429.74374Q489.73438 429.94687 489.96875 430.275Q490.20312 430.60312 490.29688 431.04062Q490.34375 431.3375 490.34375 432.07187L490.34375 435.9L489.29688 435.9L489.29688 432.11874Q489.29688 431.4625 489.17188 431.15Q489.04688 430.8375 488.73438 430.65Q488.42188 430.44687 488.0 430.44687Q487.32812 430.44687 486.82812 430.88437Q486.34375 431.30624 486.34375 432.49374L486.34375 435.9L485.29688 435.9ZM492.29688 428.525L492.29688 427.30624L493.35938 427.30624L493.35938 428.525L492.29688 428.525ZM492.29688 435.9L492.29688 429.68124L493.35938 429.68124L493.35938 435.9L492.29688 435.9Z" fill-rule="nonzero"/><path fill="#000000" d="M715.32623 432.525L715.32623 431.525L718.95123 431.50937L718.95123 434.69687Q718.1231 435.36874 717.2325 435.7125Q716.34186 436.04062 715.40436 436.04062Q714.13873 436.04062 713.09186 435.50937Q712.0606 434.9625 711.52936 433.94687Q711.01373 432.91562 711.01373 431.65Q711.01373 430.38437 711.52936 429.30624Q712.0606 428.2125 713.045 427.69687Q714.02936 427.16562 715.3106 427.16562Q716.2481 427.16562 716.9981 427.4625Q717.7481 427.75937 718.17 428.30624Q718.6075 428.8375 718.82623 429.7125L717.8106 429.99374Q717.6075 429.3375 717.3106 428.9625Q717.02936 428.5875 716.4981 428.36874Q715.96686 428.13437 715.32623 428.13437Q714.545 428.13437 713.96686 428.36874Q713.40436 428.60312 713.045 428.99374Q712.70123 429.38437 712.51373 429.85312Q712.1856 430.65 712.1856 431.57187Q712.1856 432.72812 712.57623 433.50937Q712.9825 434.275 713.7325 434.65Q714.4825 435.025 715.34186 435.025Q716.07623 435.025 716.77936 434.74374Q717.4825 434.44687 717.84186 434.13437L717.84186 432.525L715.32623 432.525ZM720.295 435.9L720.295 427.30624L723.545 427.30624Q724.38873 427.30624 724.84186 427.38437Q725.4825 427.49374 725.90436 427.79062Q726.34186 428.0875 726.59186 428.61874Q726.8575 429.15 726.8575 429.79062Q726.8575 430.88437 726.15436 431.65Q725.46686 432.4 723.63873 432.4L721.4356 432.4L721.4356 435.9L720.295 435.9ZM721.4356 431.4L723.65436 431.4Q724.76373 431.4 725.21686 430.99374Q725.6856 430.57187 725.6856 429.82187Q725.6856 429.29062 725.40436 428.91562Q725.13873 428.525 724.70123 428.4Q724.40436 428.32187 723.63873 428.32187L721.4356 428.32187L721.4356 431.4ZM730.4825 435.9L730.4825 428.32187L727.65436 428.32187L727.65436 427.30624L734.46686 427.30624L734.46686 428.32187L731.6231 428.32187L731.6231 435.9L730.4825 435.9ZM734.7481 433.32187L734.7481 432.25937L737.9981 432.25937L737.9981 433.32187L734.7481 433.32187ZM742.2481 435.9L742.2481 433.8375L738.52936 433.8375L738.52936 432.86874L742.45123 427.30624L743.3106 427.30624L743.3106 432.86874L744.46686 432.86874L744.46686 433.8375L743.3106 433.8375L743.3106 435.9L742.2481 435.9ZM742.2481 432.86874L742.2481 429.00937L739.5606 432.86874L742.2481 432.86874Z" fill-rule="nonzero"/><path fill="#4285f4" d="M341.5 64.5C341.5 63.947716 341.94772 63.5 342.5 63.5L352.5 63.5C353.05228 63.5 353.5 63.947716 353.5 64.5L353.5 74.5C353.5 75.052284 353.05228 75.5 352.5 75.5L342.5 75.5C341.94772 75.5 341.5 75.052284 341.5 74.5Z" fill-rule="nonzero"/><path fill="#1a1a1a" d="M362.42188 73.5L362.42188 64.90625L365.67188 64.90625Q366.51562 64.90625 366.96875 64.984375Q367.60938 65.09375 368.03125 65.390625Q368.46875 65.6875 368.71875 66.21875Q368.98438 66.75 368.98438 67.390625Q368.98438 68.484375 368.28125 69.25Q367.59375 70.0 365.76562 70.0L363.5625 70.0L363.5625 73.5L362.42188 73.5ZM363.5625 69.0L365.78125 69.0Q366.89062 69.0 367.34375 68.59375Q367.8125 68.171875 367.8125 67.421875Q367.8125 66.890625 367.53125 66.515625Q367.26562 66.125 366.82812 66.0Q366.53125 65.921875 365.76562 65.921875L363.5625 65.921875L363.5625 69.0ZM373.96875 73.5L372.92188 73.5L372.92188 66.78125Q372.53125 67.140625 371.90625 67.515625Q371.29688 67.875 370.8125 68.046875L370.8125 67.03125Q371.6875 66.609375 372.34375 66.03125Q373.01562 65.4375 373.29688 64.875L373.96875 64.875L373.96875 73.5Z" fill-rule="nonzero"/><path fill="#ea4335" d="M392.5 64.5C392.5 63.947716 392.94772 63.5 393.5 63.5L403.5 63.5C404.05228 63.5 404.5 63.947716 404.5 64.5L404.5 74.5C404.5 75.052284 404.05228 75.5 403.5 75.5L393.5 75.5C392.94772 75.5 392.5 75.052284 392.5 74.5Z" fill-rule="nonzero"/><path fill="#1a1a1a" d="M413.42188 73.5L413.42188 64.90625L416.67188 64.90625Q417.51562 64.90625 417.96875 64.984375Q418.60938 65.09375 419.03125 65.390625Q419.46875 65.6875 419.71875 66.21875Q419.98438 66.75 419.98438 67.390625Q419.98438 68.484375 419.28125 69.25Q418.59375 70.0 416.76562 70.0L414.5625 70.0L414.5625 73.5L413.42188 73.5ZM414.5625 69.0L416.78125 69.0Q417.89062 69.0 418.34375 68.59375Q418.8125 68.171875 418.8125 67.421875Q418.8125 66.890625 418.53125 66.515625Q418.26562 66.125 417.82812 66.0Q417.53125 65.921875 416.76562 65.921875L414.5625 65.921875L414.5625 69.0ZM426.54688 72.484375L426.54688 73.5L420.85938 73.5Q420.85938 73.125 420.98438 72.765625Q421.20312 72.1875 421.67188 71.625Q422.15625 71.0625 423.0625 70.328125Q424.46875 69.171875 424.95312 68.5Q425.45312 67.828125 425.45312 67.234375Q425.45312 66.609375 425.0 66.1875Q424.54688 65.75 423.82812 65.75Q423.0625 65.75 422.60938 66.203125Q422.15625 66.65625 422.14062 67.46875L421.0625 67.359375Q421.17188 66.140625 421.89062 65.515625Q422.625 64.875 423.85938 64.875Q425.09375 64.875 425.8125 65.5625Q426.53125 66.25 426.53125 67.265625Q426.53125 67.78125 426.3125 68.28125Q426.10938 68.765625 425.60938 69.328125Q425.125 69.875 424.0 70.828125Q423.04688 71.625 422.76562 71.921875Q422.5 72.203125 422.32812 72.484375L426.54688 72.484375Z" fill-rule="nonzero"/><path fill="#fbbc04" d="M443.5 64.5C443.5 63.947716 443.94772 63.5 444.5 63.5L454.5 63.5C455.05228 63.5 455.5 63.947716 455.5 64.5L455.5 74.5C455.5 75.052284 455.05228 75.5 454.5 75.5L444.5 75.5C443.94772 75.5 443.5 75.052284 443.5 74.5Z" fill-rule="nonzero"/><path fill="#1a1a1a" d="M464.42188 73.5L464.42188 64.90625L467.67188 64.90625Q468.51562 64.90625 468.96875 64.984375Q469.60938 65.09375 470.03125 65.390625Q470.46875 65.6875 470.71875 66.21875Q470.98438 66.75 470.98438 67.390625Q470.98438 68.484375 470.28125 69.25Q469.59375 70.0 467.76562 70.0L465.5625 70.0L465.5625 73.5L464.42188 73.5ZM465.5625 69.0L467.78125 69.0Q468.89062 69.0 469.34375 68.59375Q469.8125 68.171875 469.8125 67.421875Q469.8125 66.890625 469.53125 66.515625Q469.26562 66.125 468.82812 66.0Q468.53125 65.921875 467.76562 65.921875L465.5625 65.921875L465.5625 69.0ZM472.0 71.234375L473.0625 71.09375Q473.23438 71.984375 473.67188 72.390625Q474.10938 72.78125 474.73438 72.78125Q475.48438 72.78125 476.0 72.265625Q476.51562 71.75 476.51562 70.984375Q476.51562 70.265625 476.03125 69.796875Q475.5625 69.3125 474.82812 69.3125Q474.53125 69.3125 474.07812 69.4375L474.20312 68.5Q474.3125 68.515625 474.375 68.515625Q475.04688 68.515625 475.57812 68.171875Q476.125 67.8125 476.125 67.078125Q476.125 66.5 475.73438 66.125Q475.34375 65.734375 474.71875 65.734375Q474.10938 65.734375 473.6875 66.125Q473.28125 66.515625 473.17188 67.28125L472.10938 67.09375Q472.29688 66.046875 472.98438 65.46875Q473.67188 64.875 474.6875 64.875Q475.39062 64.875 475.98438 65.1875Q476.57812 65.484375 476.89062 66.0Q477.20312 66.515625 477.20312 67.109375Q477.20312 67.65625 476.90625 68.125Q476.60938 68.578125 476.03125 68.84375Q476.78125 69.015625 477.20312 69.578125Q477.625 70.125 477.625 70.96875Q477.625 72.09375 476.79688 72.875Q475.98438 73.65625 474.73438 73.65625Q473.60938 73.65625 472.85938 72.984375Q472.10938 72.296875 472.0 71.234375Z" fill-rule="nonzero"/><path fill="#34a853" d="M494.5 64.5C494.5 63.947716 494.94772 63.5 495.5 63.5L505.5 63.5C506.05228 63.5 506.5 63.947716 506.5 64.5L506.5 74.5C506.5 75.052284 506.05228 75.5 505.5 75.5L495.5 75.5C494.94772 75.5 494.5 75.052284 494.5 74.5Z" fill-rule="nonzero"/><path fill="#1a1a1a" d="M515.4219 73.5L515.4219 64.90625L518.6719 64.90625Q519.5156 64.90625 519.96875 64.984375Q520.6094 65.09375 521.03125 65.390625Q521.46875 65.6875 521.71875 66.21875Q521.9844 66.75 521.9844 67.390625Q521.9844 68.484375 521.28125 69.25Q520.59375 70.0 518.7656 70.0L516.5625 70.0L516.5625 73.5L515.4219 73.5ZM516.5625 69.0L518.78125 69.0Q519.8906 69.0 520.34375 68.59375Q520.8125 68.171875 520.8125 67.421875Q520.8125 66.890625 520.53125 66.515625Q520.2656 66.125 519.8281 66.0Q519.53125 65.921875 518.7656 65.921875L516.5625 65.921875L516.5625 69.0ZM526.375 73.5L526.375 71.4375L522.65625 71.4375L522.65625 70.46875L526.5781 64.90625L527.4375 64.90625L527.4375 70.46875L528.59375 70.46875L528.59375 71.4375L527.4375 71.4375L527.4375 73.5L526.375 73.5ZM526.375 70.46875L526.375 66.609375L523.6875 70.46875L526.375 70.46875Z" fill-rule="nonzero"/><path fill="#ff6d01" d="M545.5 64.5C545.5 63.947716 545.9477 63.5 546.5 63.5L556.5 63.5C557.0523 63.5 557.5 63.947716 557.5 64.5L557.5 74.5C557.5 75.052284 557.0523 75.5 556.5 75.5L546.5 75.5C545.9477 75.5 545.5 75.052284 545.5 74.5Z" fill-rule="nonzero"/><path fill="#1a1a1a" d="M566.4219 73.5L566.4219 64.90625L569.6719 64.90625Q570.5156 64.90625 570.96875 64.984375Q571.6094 65.09375 572.03125 65.390625Q572.46875 65.6875 572.71875 66.21875Q572.9844 66.75 572.9844 67.390625Q572.9844 68.484375 572.28125 69.25Q571.59375 70.0 569.7656 70.0L567.5625 70.0L567.5625 73.5L566.4219 73.5ZM567.5625 69.0L569.78125 69.0Q570.8906 69.0 571.34375 68.59375Q571.8125 68.171875 571.8125 67.421875Q571.8125 66.890625 571.53125 66.515625Q571.2656 66.125 570.8281 66.0Q570.53125 65.921875 569.7656 65.921875L567.5625 65.921875L567.5625 69.0ZM574.0 71.25L575.1094 71.15625Q575.2344 71.96875 575.6719 72.375Q576.125 72.78125 576.7656 72.78125Q577.5156 72.78125 578.0469 72.203125Q578.5781 71.625 578.5781 70.6875Q578.5781 69.78125 578.0625 69.265625Q577.5625 68.734375 576.7344 68.734375Q576.2344 68.734375 575.8125 68.96875Q575.40625 69.203125 575.1719 69.5625L574.1875 69.4375L575.0156 65.03125L579.2969 65.03125L579.2969 66.03125L575.8594 66.03125L575.40625 68.34375Q576.1719 67.796875 577.0156 67.796875Q578.1406 67.796875 578.90625 68.578125Q579.6875 69.359375 579.6875 70.59375Q579.6875 71.75 579.0156 72.609375Q578.1875 73.640625 576.7656 73.640625Q575.59375 73.640625 574.84375 72.984375Q574.1094 72.328125 574.0 71.25Z" fill-rule="nonzero"/><path fill="#757575" d="M24.06875 41.1L29.56875 26.787498L31.615625 26.787498L37.475 41.1L35.31875 41.1L33.646873 36.75625L27.6625 36.75625L26.084375 41.1L24.06875 41.1ZM28.209375 35.225L33.053123 35.225L31.56875 31.256248Q30.88125 29.443748 30.553125 28.287498Q30.271875 29.662498 29.771875 31.021873L28.209375 35.225ZM41.303123 41.1L37.35 30.724998L39.209373 30.724998L41.44375 36.94375Q41.803123 37.94375 42.1 39.021873Q42.334373 38.209373 42.75625 37.053123L45.053123 30.724998L46.865623 30.724998L42.94375 41.1L41.303123 41.1ZM54.521873 37.75625L56.334373 37.990623Q55.9125 39.56875 54.740623 40.459373Q53.584373 41.334373 51.771873 41.334373Q49.50625 41.334373 48.1625 39.94375Q46.834373 38.5375 46.834373 36.00625Q46.834373 33.38125 48.178123 31.943748Q49.521873 30.490623 51.678123 30.490623Q53.75625 30.490623 55.06875 31.912498Q56.396873 33.31875 56.396873 35.896873Q56.396873 36.053123 56.38125 36.365623L48.646873 36.365623Q48.740623 38.06875 49.615623 38.975Q50.490623 39.88125 51.7875 39.88125Q52.75625 39.88125 53.428123 39.38125Q54.115623 38.865623 54.521873 37.75625ZM48.740623 34.9125L54.5375 34.9125Q54.428123 33.615623 53.88125 32.959373Q53.0375 31.943748 51.69375 31.943748Q50.490623 31.943748 49.6625 32.75625Q48.834373 33.553123 48.740623 34.9125ZM58.396873 41.1L58.396873 30.724998L59.975 30.724998L59.975 32.303123Q60.584373 31.193748 61.1 30.849998Q61.615623 30.490623 62.225 30.490623Q63.115623 30.490623 64.0375 31.053123L63.428123 32.69375Q62.7875 32.303123 62.146873 32.303123Q61.56875 32.303123 61.1 32.6625Q60.646873 33.00625 60.44375 33.615623Q60.1625 34.553123 60.1625 35.6625L60.1625 41.1L58.396873 41.1ZM72.19375 39.81875Q71.20937 40.646873 70.30312 40.990623Q69.39687 41.334373 68.36562 41.334373Q66.6625 41.334373 65.74062 40.50625Q64.81875 39.6625 64.81875 38.365623Q64.81875 37.6 65.1625 36.975Q65.52187 36.35 66.08437 35.975Q66.64687 35.584373 67.35 35.38125Q67.86562 35.25625 68.9125 35.115623Q71.0375 34.865623 72.0375 34.521873Q72.05312 34.1625 72.05312 34.053123Q72.05312 32.990623 71.55312 32.5375Q70.88125 31.943748 69.55312 31.943748Q68.30312 31.943748 67.70937 32.38125Q67.13125 32.81875 66.85 33.928123L65.13125 33.69375Q65.36562 32.584373 65.89687 31.912498Q66.42812 31.224998 67.44375 30.865623Q68.45937 30.490623 69.80312 30.490623Q71.13125 30.490623 71.95937 30.803123Q72.7875 31.115623 73.17812 31.599998Q73.56875 32.06875 73.725 32.7875Q73.81875 33.240623 73.81875 34.4125L73.81875 36.75625Q73.81875 39.209373 73.92812 39.865623Q74.0375 40.50625 74.38125 41.1L72.5375 41.1Q72.27187 40.553123 72.19375 39.81875ZM72.0375 35.896873Q71.08437 36.2875 69.1625 36.553123Q68.08437 36.709373 67.63125 36.9125Q67.19375 37.1 66.94375 37.475Q66.69375 37.85 66.69375 38.31875Q66.69375 39.021873 67.225 39.490623Q67.75625 39.959373 68.7875 39.959373Q69.80312 39.959373 70.58437 39.521873Q71.38125 39.06875 71.75625 38.303123Q72.0375 37.69375 72.0375 36.5375L72.0375 35.896873ZM76.1 41.959373L77.80312 42.209373Q77.9125 43.00625 78.39687 43.365623Q79.05312 43.85 80.19375 43.85Q81.4125 43.85 82.06875 43.365623Q82.74062 42.88125 82.975 42.00625Q83.11562 41.459373 83.1 39.740623Q81.94375 41.1 80.225 41.1Q78.08437 41.1 76.9125 39.553123Q75.74062 38.00625 75.74062 35.85Q75.74062 34.365623 76.27187 33.115623Q76.81875 31.865623 77.83437 31.178123Q78.86562 30.490623 80.24062 30.490623Q82.06875 30.490623 83.27187 31.974998L83.27187 30.724998L84.88125 30.724998L84.88125 39.69375Q84.88125 42.115623 84.38125 43.115623Q83.89687 44.13125 82.81875 44.709373Q81.75625 45.303123 80.19375 45.303123Q78.35 45.303123 77.19375 44.475Q76.05312 43.646873 76.1 41.959373ZM77.55312 35.725Q77.55312 37.771873 78.36562 38.709373Q79.17812 39.646873 80.39687 39.646873Q81.6 39.646873 82.4125 38.709373Q83.24062 37.771873 83.24062 35.7875Q83.24062 33.88125 82.39687 32.9125Q81.55312 31.943748 80.36562 31.943748Q79.19375 31.943748 78.36562 32.896873Q77.55312 33.85 77.55312 35.725ZM94.52187 37.75625L96.33437 37.990623Q95.9125 39.56875 94.74062 40.459373Q93.58437 41.334373 91.77187 41.334373Q89.50625 41.334373 88.1625 39.94375Q86.83437 38.5375 86.83437 36.00625Q86.83437 33.38125 88.17812 31.943748Q89.52187 30.490623 91.67812 30.490623Q93.75625 30.490623 95.06875 31.912498Q96.39687 33.31875 96.39687 35.896873Q96.39687 36.053123 96.38125 36.365623L88.64687 36.365623Q88.74062 38.06875 89.61562 38.975Q90.49062 39.88125 91.7875 39.88125Q92.75625 39.88125 93.42812 39.38125Q94.11562 38.865623 94.52187 37.75625ZM88.74062 34.9125L94.5375 34.9125Q94.42812 33.615623 93.88125 32.959373Q93.0375 31.943748 91.69375 31.943748Q90.49062 31.943748 89.6625 32.75625Q88.83437 33.553123 88.74062 34.9125ZM104.64687 41.1L104.64687 26.787498L109.56875 26.787498Q111.24062 26.787498 112.13125 26.990623Q113.35 27.271873 114.225 28.006248Q115.35 28.974998 115.9125 30.459373Q116.475 31.943748 116.475 33.865623Q116.475 35.490623 116.1 36.75625Q115.725 38.00625 115.11562 38.834373Q114.52187 39.6625 113.81875 40.146873Q113.11562 40.615623 112.11562 40.865623Q111.11562 41.1 109.80312 41.1L104.64687 41.1ZM106.5375 39.4125L109.6 39.4125Q111.00625 39.4125 111.80312 39.146873Q112.61562 38.88125 113.1 38.396873Q113.77187 37.725 114.14687 36.6Q114.52187 35.459373 114.52187 33.834373Q114.52187 31.584373 113.7875 30.381248Q113.05312 29.178123 111.99062 28.771873Q111.24062 28.474998 109.55312 28.474998L106.5375 28.474998L106.5375 39.4125ZM125.19375 39.81875Q124.20937 40.646873 123.30312 40.990623Q122.39687 41.334373 121.36562 41.334373Q119.6625 41.334373 118.74062 40.50625Q117.81875 39.6625 117.81875 38.365623Q117.81875 37.6 118.1625 36.975Q118.52187 36.35 119.08437 35.975Q119.64687 35.584373 120.35 35.38125Q120.86562 35.25625 121.9125 35.115623Q124.0375 34.865623 125.0375 34.521873Q125.05312 34.1625 125.05312 34.053123Q125.05312 32.990623 124.55312 32.5375Q123.88125 31.943748 122.55312 31.943748Q121.30312 31.943748 120.70937 32.38125Q120.13125 32.81875 119.85 33.928123L118.13125 33.69375Q118.36562 32.584373 118.89687 31.912498Q119.42812 31.224998 120.44375 30.865623Q121.45937 30.490623 122.80312 30.490623Q124.13125 30.490623 124.95937 30.803123Q125.7875 31.115623 126.17812 31.599998Q126.56875 32.06875 126.725 32.7875Q126.81875 33.240623 126.81875 34.4125L126.81875 36.75625Q126.81875 39.209373 126.92812 39.865623Q127.0375 40.50625 127.38125 41.1L125.5375 41.1Q125.27187 40.553123 125.19375 39.81875ZM125.0375 35.896873Q124.08437 36.2875 122.1625 36.553123Q121.08437 36.709373 120.63125 36.9125Q120.19375 37.1 119.94375 37.475Q119.69375 37.85 119.69375 38.31875Q119.69375 39.021873 120.225 39.490623Q120.75625 39.959373 121.7875 39.959373Q122.80312 39.959373 123.58437 39.521873Q124.38125 39.06875 124.75625 38.303123Q125.0375 37.69375 125.0375 36.5375L125.0375 35.896873ZM129.38126 41.1L129.38126 26.787498L131.13126 26.787498L131.13126 41.1L129.38126 41.1ZM133.38126 41.1L133.38126 26.787498L135.13126 26.787498L135.13126 41.1L133.38126 41.1ZM136.74063 36.803123L136.74063 35.0375L142.13126 35.0375L142.13126 36.803123L136.74063 36.803123ZM151.52188 37.75625L153.33438 37.990623Q152.9125 39.56875 151.74063 40.459373Q150.58438 41.334373 148.77188 41.334373Q146.50626 41.334373 145.1625 39.94375Q143.83438 38.5375 143.83438 36.00625Q143.83438 33.38125 145.17813 31.943748Q146.52188 30.490623 148.67813 30.490623Q150.75626 30.490623 152.06876 31.912498Q153.39688 33.31875 153.39688 35.896873Q153.39688 36.053123 153.38126 36.365623L145.64688 36.365623Q145.74063 38.06875 146.61563 38.975Q147.49063 39.88125 148.7875 39.88125Q149.75626 39.88125 150.42813 39.38125Q151.11563 38.865623 151.52188 37.75625ZM145.74063 34.9125L151.5375 34.9125Q151.42813 33.615623 150.88126 32.959373Q150.0375 31.943748 148.69376 31.943748Q147.49063 31.943748 146.6625 32.75625Q145.83438 33.553123 145.74063 34.9125ZM160.70938 38.00625L162.45938 37.725Q162.6 38.771873 163.27188 39.334373Q163.94376 39.88125 165.14688 39.88125Q166.35 39.88125 166.92813 39.396873Q167.52188 38.896873 167.52188 38.240623Q167.52188 37.646873 167.00626 37.303123Q166.64688 37.06875 165.20938 36.709373Q163.27188 36.209373 162.52188 35.865623Q161.7875 35.50625 161.39688 34.88125Q161.00626 34.240623 161.00626 33.475Q161.00626 32.7875 161.31876 32.19375Q161.64688 31.599998 162.19376 31.209373Q162.6 30.912498 163.30313 30.709373Q164.02188 30.490623 164.83438 30.490623Q166.05313 30.490623 166.975 30.849998Q167.89688 31.193748 168.33438 31.803123Q168.77188 32.396873 168.94376 33.396873L167.225 33.63125Q167.1 32.834373 166.5375 32.396873Q165.975 31.943748 164.95938 31.943748Q163.74063 31.943748 163.225 32.35Q162.70938 32.740623 162.70938 33.271873Q162.70938 33.615623 162.92813 33.896873Q163.13126 34.178123 163.6 34.365623Q163.86563 34.459373 165.14688 34.803123Q167.02188 35.303123 167.75626 35.63125Q168.49063 35.94375 168.9125 36.553123Q169.33438 37.146873 169.33438 38.053123Q169.33438 38.928123 168.81876 39.709373Q168.30313 40.490623 167.33438 40.9125Q166.36563 41.334373 165.14688 41.334373Q163.13126 41.334373 162.06876 40.490623Q161.00626 39.646873 160.70938 38.00625ZM178.19376 37.303123L179.9125 37.521873Q179.63126 39.31875 178.45938 40.334373Q177.30313 41.334373 175.6 41.334373Q173.475 41.334373 172.17813 39.94375Q170.88126 38.553123 170.88126 35.959373Q170.88126 34.271873 171.42813 33.021873Q171.99063 31.756248 173.13126 31.131248Q174.27188 30.490623 175.61563 30.490623Q177.30313 30.490623 178.36563 31.349998Q179.44376 32.209373 179.75626 33.771873L178.0375 34.0375Q177.80313 32.990623 177.17813 32.475Q176.55313 31.943748 175.67813 31.943748Q174.35 31.943748 173.52188 32.896873Q172.69376 33.85 172.69376 35.896873Q172.69376 37.990623 173.49063 38.94375Q174.2875 39.88125 175.58438 39.88125Q176.61563 39.88125 177.30313 39.25625Q178.00626 38.615623 178.19376 37.303123ZM180.77188 35.9125Q180.77188 33.0375 182.36563 31.646873Q183.70938 30.490623 185.63126 30.490623Q187.77188 30.490623 189.11563 31.896873Q190.475 33.303123 190.475 35.771873Q190.475 37.771873 189.88126 38.928123Q189.2875 40.06875 188.13126 40.709373Q186.99063 41.334373 185.63126 41.334373Q183.44376 41.334373 182.1 39.94375Q180.77188 38.5375 180.77188 35.9125ZM182.56876 35.9125Q182.56876 37.9125 183.42813 38.896873Q184.30313 39.88125 185.63126 39.88125Q186.94376 39.88125 187.80313 38.896873Q188.67813 37.896873 188.67813 35.85Q188.67813 33.928123 187.80313 32.94375Q186.92813 31.943748 185.63126 31.943748Q184.30313 31.943748 183.42813 32.94375Q182.56876 33.928123 182.56876 35.9125ZM192.39688 41.1L192.39688 30.724998L193.975 30.724998L193.975 32.303123Q194.58438 31.193748 195.1 30.849998Q195.61563 30.490623 196.225 30.490623Q197.11563 30.490623 198.0375 31.053123L197.42813 32.69375Q196.7875 32.303123 196.14688 32.303123Q195.56876 32.303123 195.1 32.6625Q194.64688 33.00625 194.44376 33.615623Q194.1625 34.553123 194.1625 35.6625L194.1625 41.1L192.39688 41.1ZM206.52188 37.75625L208.33438 37.990623Q207.9125 39.56875 206.74063 40.459373Q205.58438 41.334373 203.77188 41.334373Q201.50626 41.334373 200.1625 39.94375Q198.83438 38.5375 198.83438 36.00625Q198.83438 33.38125 200.17813 31.943748Q201.52188 30.490623 203.67813 30.490623Q205.75626 30.490623 207.06876 31.912498Q208.39688 33.31875 208.39688 35.896873Q208.39688 36.053123 208.38126 36.365623L200.64688 36.365623Q200.74063 38.06875 201.61563 38.975Q202.49063 39.88125 203.7875 39.88125Q204.75626 39.88125 205.42813 39.38125Q206.11563 38.865623 206.52188 37.75625ZM200.74063 34.9125L206.5375 34.9125Q206.42813 33.615623 205.88126 32.959373Q205.0375 31.943748 203.69376 31.943748Q202.49063 31.943748 201.6625 32.75625Q200.83438 33.553123 200.74063 34.9125ZM216.83438 41.1L216.83438 32.1L215.2875 32.1L215.2875 30.724998L216.83438 30.724998L216.83438 29.631248Q216.83438 28.584373 217.02188 28.068748Q217.27188 27.381248 217.9125 26.959373Q218.55313 26.537498 219.70938 26.537498Q220.45938 26.537498 221.35 26.709373L221.08438 28.240623Q220.5375 28.146873 220.05313 28.146873Q219.25626 28.146873 218.9125 28.490623Q218.58438 28.834373 218.58438 29.771873L218.58438 30.724998L220.61563 30.724998L220.61563 32.1L218.58438 32.1L218.58438 41.1L216.83438 41.1ZM221.77188 35.9125Q221.77188 33.0375 223.36563 31.646873Q224.70938 30.490623 226.63126 30.490623Q228.77188 30.490623 230.11563 31.896873Q231.475 33.303123 231.475 35.771873Q231.475 37.771873 230.88126 38.928123Q230.2875 40.06875 229.13126 40.709373Q227.99063 41.334373 226.63126 41.334373Q224.44376 41.334373 223.1 39.94375Q221.77188 38.5375 221.77188 35.9125ZM223.56876 35.9125Q223.56876 37.9125 224.42813 38.896873Q225.30313 39.88125 226.63126 39.88125Q227.94376 39.88125 228.80313 38.896873Q229.67813 37.896873 229.67813 35.85Q229.67813 33.928123 228.80313 32.94375Q227.92813 31.943748 226.63126 31.943748Q225.30313 31.943748 224.42813 32.94375Q223.56876 33.928123 223.56876 35.9125ZM233.39688 41.1L233.39688 30.724998L234.975 30.724998L234.975 32.303123Q235.58438 31.193748 236.1 30.849998Q236.61563 30.490623 237.225 30.490623Q238.11563 30.490623 239.0375 31.053123L238.42813 32.69375Q237.7875 32.303123 237.14688 32.303123Q236.56876 32.303123 236.1 32.6625Q235.64688 33.00625 235.44376 33.615623Q235.1625 34.553123 235.1625 35.6625L235.1625 41.1L233.39688 41.1ZM246.4125 45.06875L246.4125 30.724998L248.02188 30.724998L248.02188 32.06875Q248.58438 31.287498 249.2875 30.896873Q250.00626 30.490623 251.02188 30.490623Q252.35 30.490623 253.36563 31.178123Q254.38126 31.865623 254.89688 33.115623Q255.42813 34.35 255.42813 35.834373Q255.42813 37.428123 254.85 38.709373Q254.2875 39.975 253.19376 40.6625Q252.1 41.334373 250.89688 41.334373Q250.02188 41.334373 249.31876 40.959373Q248.63126 40.584373 248.17813 40.021873L248.17813 45.06875L246.4125 45.06875ZM248.00626 35.975Q248.00626 37.975 248.81876 38.928123Q249.63126 39.88125 250.7875 39.88125Q251.95938 39.88125 252.7875 38.896873Q253.63126 37.9125 253.63126 35.81875Q253.63126 33.85 252.80313 32.865623Q251.99063 31.865623 250.86563 31.865623Q249.74063 31.865623 248.86563 32.928123Q248.00626 33.975 248.00626 35.975ZM257.39688 41.1L257.39688 30.724998L258.975 30.724998L258.975 32.303123Q259.58438 31.193748 260.1 30.849998Q260.61563 30.490623 261.225 30.490623Q262.11563 30.490623 263.0375 31.053123L262.42813 32.69375Q261.7875 32.303123 261.14688 32.303123Q260.56876 32.303123 260.1 32.6625Q259.64688 33.00625 259.44376 33.615623Q259.1625 34.553123 259.1625 35.6625L259.1625 41.1L257.39688 41.1ZM263.77188 35.9125Q263.77188 33.0375 265.36563 31.646873Q266.70938 30.490623 268.63126 30.490623Q270.77188 30.490623 272.11563 31.896873Q273.475 33.303123 273.475 35.771873Q273.475 37.771873 272.88126 38.928123Q272.2875 40.06875 271.13126 40.709373Q269.99063 41.334373 268.63126 41.334373Q266.44376 41.334373 265.1 39.94375Q263.77188 38.5375 263.77188 35.9125ZM265.56876 35.9125Q265.56876 37.9125 266.42813 38.896873Q267.30313 39.88125 268.63126 39.88125Q269.94376 39.88125 270.80313 38.896873Q271.67813 37.896873 271.67813 35.85Q271.67813 33.928123 270.80313 32.94375Q269.92813 31.943748 268.63126 31.943748Q267.30313 31.943748 266.42813 32.94375Q265.56876 33.928123 265.56876 35.9125ZM275.4125 41.1L275.4125 30.724998L276.99063 30.724998L276.99063 32.178123Q277.475 31.428123 278.2875 30.959373Q279.1 30.490623 280.13126 30.490623Q281.2875 30.490623 282.02188 30.974998Q282.75626 31.443748 283.06876 32.303123Q284.30313 30.490623 286.27188 30.490623Q287.81876 30.490623 288.64688 31.349998Q289.475 32.209373 289.475 33.975L289.475 41.1L287.725 41.1L287.725 34.56875Q287.725 33.50625 287.55313 33.053123Q287.38126 32.584373 286.92813 32.303123Q286.49063 32.021873 285.88126 32.021873Q284.7875 32.021873 284.05313 32.75625Q283.33438 33.475 283.33438 35.06875L283.33438 41.1L281.58438 41.1L281.58438 34.365623Q281.58438 33.19375 281.14688 32.615623Q280.725 32.021873 279.74063 32.021873Q279.00626 32.021873 278.36563 32.4125Q277.74063 32.803123 277.45938 33.553123Q277.17813 34.303123 277.17813 35.725L277.17813 41.1L275.4125 41.1ZM291.4125 45.06875L291.4125 30.724998L293.02188 30.724998L293.02188 32.06875Q293.58438 31.287498 294.2875 30.896873Q295.00626 30.490623 296.02188 30.490623Q297.35 30.490623 298.36563 31.178123Q299.38126 31.865623 299.89688 33.115623Q300.42813 34.35 300.42813 35.834373Q300.42813 37.428123 299.85 38.709373Q299.2875 39.975 298.19376 40.6625Q297.1 41.334373 295.89688 41.334373Q295.02188 41.334373 294.31876 40.959373Q293.63126 40.584373 293.17813 40.021873L293.17813 45.06875L291.4125 45.06875ZM293.00626 35.975Q293.00626 37.975 293.81876 38.928123Q294.63126 39.88125 295.7875 39.88125Q296.95938 39.88125 297.7875 38.896873Q298.63126 37.9125 298.63126 35.81875Q298.63126 33.85 297.80313 32.865623Q296.99063 31.865623 295.86563 31.865623Q294.74063 31.865623 293.86563 32.928123Q293.00626 33.975 293.00626 35.975ZM306.25626 39.521873L306.50626 41.084373Q305.77188 41.240623 305.17813 41.240623Q304.225 41.240623 303.69376 40.94375Q303.17813 40.63125 302.95938 40.146873Q302.74063 39.646873 302.74063 38.06875L302.74063 32.1L301.45938 32.1L301.45938 30.724998L302.74063 30.724998L302.74063 28.162498L304.49063 27.099998L304.49063 30.724998L306.25626 30.724998L306.25626 32.1L304.49063 32.1L304.49063 38.1625Q304.49063 38.9125 304.58438 39.13125Q304.67813 39.334373 304.88126 39.475Q305.1 39.6 305.49063 39.6Q305.77188 39.6 306.25626 39.521873ZM316.0375 41.1L314.4125 41.1L314.4125 26.787498L316.1625 26.787498L316.1625 31.896873Q317.2875 30.490623 319.00626 30.490623Q319.95938 30.490623 320.81876 30.881248Q321.67813 31.271873 322.225 31.974998Q322.77188 32.6625 323.08438 33.646873Q323.39688 34.63125 323.39688 35.75625Q323.39688 38.428123 322.08438 39.88125Q320.77188 41.334373 318.92813 41.334373Q317.08438 41.334373 316.0375 39.803123L316.0375 41.1ZM316.02188 35.834373Q316.02188 37.69375 316.52188 38.5375Q317.36563 39.88125 318.77188 39.88125Q319.92813 39.88125 320.75626 38.88125Q321.6 37.88125 321.6 35.896873Q321.6 33.865623 320.7875 32.9125Q319.99063 31.943748 318.85 31.943748Q317.69376 31.943748 316.85 32.94375Q316.02188 33.94375 316.02188 35.834373ZM325.33438 45.1L325.14688 43.44375Q325.725 43.6 326.14688 43.6Q326.74063 43.6 327.08438 43.396873Q327.44376 43.209373 327.6625 42.865623Q327.83438 42.6 328.20938 41.553123Q328.25626 41.396873 328.36563 41.115623L324.42813 30.724998L326.31876 30.724998L328.475 36.740623Q328.89688 37.88125 329.225 39.13125Q329.5375 37.928123 329.94376 36.771873L332.1625 30.724998L333.92813 30.724998L329.975 41.271873Q329.35 42.990623 328.99063 43.63125Q328.52188 44.50625 327.9125 44.896873Q327.31876 45.303123 326.475 45.303123Q325.95938 45.303123 325.33438 45.1ZM348.19376 37.303123L349.9125 37.521873Q349.63126 39.31875 348.45938 40.334373Q347.30313 41.334373 345.6 41.334373Q343.475 41.334373 342.17813 39.94375Q340.88126 38.553123 340.88126 35.959373Q340.88126 34.271873 341.42813 33.021873Q341.99063 31.756248 343.13126 31.131248Q344.27188 30.490623 345.61563 30.490623Q347.30313 30.490623 348.36563 31.349998Q349.44376 32.209373 349.75626 33.771873L348.0375 34.0375Q347.80313 32.990623 347.17813 32.475Q346.55313 31.943748 345.67813 31.943748Q344.35 31.943748 343.52188 32.896873Q342.69376 33.85 342.69376 35.896873Q342.69376 37.990623 343.49063 38.94375Q344.2875 39.88125 345.58438 39.88125Q346.61563 39.88125 347.30313 39.25625Q348.00626 38.615623 348.19376 37.303123ZM351.4125 41.1L351.4125 26.787498L353.17813 26.787498L353.17813 31.912498Q354.4125 30.490623 356.2875 30.490623Q357.42813 30.490623 358.27188 30.943748Q359.13126 31.396873 359.49063 32.209373Q359.86563 33.00625 359.86563 34.521873L359.86563 41.1L358.11563 41.1L358.11563 34.521873Q358.11563 33.209373 357.5375 32.615623Q356.95938 32.00625 355.92813 32.00625Q355.14688 32.00625 354.44376 32.4125Q353.75626 32.81875 353.45938 33.521873Q353.17813 34.209373 353.17813 35.428123L353.17813 41.1L351.4125 41.1ZM368.19376 39.81875Q367.20938 40.646873 366.30313 40.990623Q365.39688 41.334373 364.36563 41.334373Q362.6625 41.334373 361.74063 40.50625Q360.81876 39.6625 360.81876 38.365623Q360.81876 37.6 361.1625 36.975Q361.52188 36.35 362.08438 35.975Q362.64688 35.584373 363.35 35.38125Q363.86563 35.25625 364.9125 35.115623Q367.0375 34.865623 368.0375 34.521873Q368.05313 34.1625 368.05313 34.053123Q368.05313 32.990623 367.55313 32.5375Q366.88126 31.943748 365.55313 31.943748Q364.30313 31.943748 363.70938 32.38125Q363.13126 32.81875 362.85 33.928123L361.13126 33.69375Q361.36563 32.584373 361.89688 31.912498Q362.42813 31.224998 363.44376 30.865623Q364.45938 30.490623 365.80313 30.490623Q367.13126 30.490623 367.95938 30.803123Q368.7875 31.115623 369.17813 31.599998Q369.56876 32.06875 369.725 32.7875Q369.81876 33.240623 369.81876 34.4125L369.81876 36.75625Q369.81876 39.209373 369.92813 39.865623Q370.0375 40.50625 370.38126 41.1L368.5375 41.1Q368.27188 40.553123 368.19376 39.81875ZM368.0375 35.896873Q367.08438 36.2875 365.1625 36.553123Q364.08438 36.709373 363.63126 36.9125Q363.19376 37.1 362.94376 37.475Q362.69376 37.85 362.69376 38.31875Q362.69376 39.021873 363.225 39.490623Q363.75626 39.959373 364.7875 39.959373Q365.80313 39.959373 366.58438 39.521873Q367.38126 39.06875 367.75626 38.303123Q368.0375 37.69375 368.0375 36.5375L368.0375 35.896873ZM376.25626 39.521873L376.50626 41.084373Q375.77188 41.240623 375.17813 41.240623Q374.225 41.240623 373.69376 40.94375Q373.17813 40.63125 372.95938 40.146873Q372.74063 39.646873 372.74063 38.06875L372.74063 32.1L371.45938 32.1L371.45938 30.724998L372.74063 30.724998L372.74063 28.162498L374.49063 27.099998L374.49063 30.724998L376.25626 30.724998L376.25626 32.1L374.49063 32.1L374.49063 38.1625Q374.49063 38.9125 374.58438 39.13125Q374.67813 39.334373 374.88126 39.475Q375.1 39.6 375.49063 39.6Q375.77188 39.6 376.25626 39.521873ZM388.25626 39.521873L388.50626 41.084373Q387.77188 41.240623 387.17813 41.240623Q386.225 41.240623 385.69376 40.94375Q385.17813 40.63125 384.95938 40.146873Q384.74063 39.646873 384.74063 38.06875L384.74063 32.1L383.45938 32.1L383.45938 30.724998L384.74063 30.724998L384.74063 28.162498L386.49063 27.099998L386.49063 30.724998L388.25626 30.724998L388.25626 32.1L386.49063 32.1L386.49063 38.1625Q386.49063 38.9125 386.58438 39.13125Q386.67813 39.334373 386.88126 39.475Q387.1 39.6 387.49063 39.6Q387.77188 39.6 388.25626 39.521873ZM390.33438 45.1L390.14688 43.44375Q390.725 43.6 391.14688 43.6Q391.74063 43.6 392.08438 43.396873Q392.44376 43.209373 392.6625 42.865623Q392.83438 42.6 393.20938 41.553123Q393.25626 41.396873 393.36563 41.115623L389.42813 30.724998L391.31876 30.724998L393.475 36.740623Q393.89688 37.88125 394.225 39.13125Q394.5375 37.928123 394.94376 36.771873L397.1625 30.724998L398.92813 30.724998L394.975 41.271873Q394.35 42.990623 393.99063 43.63125Q393.52188 44.50625 392.9125 44.896873Q392.31876 45.303123 391.475 45.303123Q390.95938 45.303123 390.33438 45.1ZM400.4125 45.06875L400.4125 30.724998L402.02188 30.724998L402.02188 32.06875Q402.58438 31.287498 403.2875 30.896873Q404.00626 30.490623 405.02188 30.490623Q406.35 30.490623 407.36563 31.178123Q408.38126 31.865623 408.89688 33.115623Q409.42813 34.35 409.42813 35.834373Q409.42813 37.428123 408.85 38.709373Q408.2875 39.975 407.19376 40.6625Q406.1 41.334373 404.89688 41.334373Q404.02188 41.334373 403.31876 40.959373Q402.63126 40.584373 402.17813 40.021873L402.17813 45.06875L400.4125 45.06875ZM402.00626 35.975Q402.00626 37.975 402.81876 38.928123Q403.63126 39.88125 404.7875 39.88125Q405.95938 39.88125 406.7875 38.896873Q407.63126 37.9125 407.63126 35.81875Q407.63126 33.85 406.80313 32.865623Q405.99063 31.865623 404.86563 31.865623Q403.74063 31.865623 402.86563 32.928123Q402.00626 33.975 402.00626 35.975ZM418.52188 37.75625L420.33438 37.990623Q419.9125 39.56875 418.74063 40.459373Q417.58438 41.334373 415.77188 41.334373Q413.50626 41.334373 412.1625 39.94375Q410.83438 38.5375 410.83438 36.00625Q410.83438 33.38125 412.17813 31.943748Q413.52188 30.490623 415.67813 30.490623Q417.75626 30.490623 419.06876 31.912498Q420.39688 33.31875 420.39688 35.896873Q420.39688 36.053123 420.38126 36.365623L412.64688 36.365623Q412.74063 38.06875 413.61563 38.975Q414.49063 39.88125 415.7875 39.88125Q416.75626 39.88125 417.42813 39.38125Q418.11563 38.865623 418.52188 37.75625ZM412.74063 34.9125L418.5375 34.9125Q418.42813 33.615623 417.88126 32.959373Q417.0375 31.943748 415.69376 31.943748Q414.49063 31.943748 413.6625 32.75625Q412.83438 33.553123 412.74063 34.9125Z" fill-rule="nonzero"/></svg>