<svg version="1.1" viewBox="0.0 0.0 733.0 457.0" fill="none" stroke="none" stroke-linecap="square" stroke-miterlimit="10" width="733" height="457" xmlns:xlink="http://www.w3.org/1999/xlink" xmlns="http://www.w3.org/2000/svg"><path fill="#ffffff" d="M0 0L733.0 0L733.0 457.0L0 457.0L0 0Z" fill-rule="nonzero"/><path fill="#4285f4" d="M366.5 62.083332C419.3176 62.083332 469.64548 84.534546 504.93033 123.83695C540.21515 163.13934 557.13043 215.58768 551.457 268.09967L366.5 248.11667Z" fill-rule="nonzero"/><path fill="#34a853" d="M185.72429 204.20149C205.98479 120.799675 280.67255 62.083332 366.5 62.083332L366.5 248.11667Z" fill-rule="nonzero"/><path fill="#fbbc04" d="M341.7846 432.50092C289.51752 425.49487 242.67961 396.6355 212.92003 353.10046C183.16046 309.5654 173.27573 255.44568 185.72429 204.20149L366.5 248.11667Z" fill-rule="nonzero"/><path fill="#ea4335" d="M551.457 268.09967C546.06836 317.975 520.7653 363.56018 481.288 394.5138C441.81067 425.4674 391.5055 439.16565 341.7846 432.50092L366.5 248.11667Z" fill-rule="nonzero"/><path fill="#000000" d="M466.61374 149.36172L465.395 149.45547Q465.2231 148.7211 464.92624 148.39297Q464.42624 147.87735 463.69186 147.87735Q463.0981 147.87735 462.6606 148.20547Q462.0825 148.62735 461.73874 149.43985Q461.4106 150.25235 461.395 151.75235Q461.8325 151.08047 462.4731 150.75235Q463.12936 150.42422 463.8325 150.42422Q465.06686 150.42422 465.92624 151.33047Q466.7856 152.23672 466.7856 153.67422Q466.7856 154.61172 466.37936 155.42422Q465.9731 156.23672 465.25436 156.67422Q464.55124 157.0961 463.645 157.0961Q462.11374 157.0961 461.145 155.9711Q460.17624 154.83047 460.17624 152.23672Q460.17624 149.33047 461.23874 148.00235Q462.17624 146.86172 463.77 146.86172Q464.9575 146.86172 465.7075 147.5336Q466.4575 148.18985 466.61374 149.36172ZM461.5825 153.67422Q461.5825 154.31485 461.8481 154.89297Q462.12936 155.4711 462.61374 155.7836Q463.0981 156.08047 463.62936 156.08047Q464.4106 156.08047 464.9731 155.45547Q465.5356 154.83047 465.5356 153.75235Q465.5356 152.70547 464.9731 152.11172Q464.42624 151.50235 463.5825 151.50235Q462.75436 151.50235 462.1606 152.11172Q461.5825 152.70547 461.5825 153.67422ZM468.9106 156.92422L468.9106 155.51797L470.31686 155.51797L470.31686 156.92422L468.9106 156.92422ZM472.2231 154.29922L473.52 154.18985Q473.6606 155.12735 474.17624 155.61172Q474.7075 156.08047 475.44186 156.08047Q476.3325 156.08047 476.94186 155.4086Q477.56686 154.73672 477.56686 153.64297Q477.56686 152.58047 476.9731 151.9711Q476.37936 151.36172 475.42624 151.36172Q474.8325 151.36172 474.3481 151.64297Q473.87936 151.9086 473.5981 152.33047L472.44186 152.18985L473.4106 147.0336L478.395 147.0336L478.395 148.2211L474.395 148.2211L473.86374 150.9086Q474.77 150.2836 475.75436 150.2836Q477.06686 150.2836 477.9575 151.18985Q478.86374 152.0961 478.86374 153.5336Q478.86374 154.89297 478.0825 155.87735Q477.11374 157.0961 475.44186 157.0961Q474.0825 157.0961 473.2075 156.33047Q472.3481 155.56485 472.2231 154.29922ZM480.2231 154.29922L481.52 154.18985Q481.6606 155.12735 482.17624 155.61172Q482.7075 156.08047 483.44186 156.08047Q484.3325 156.08047 484.94186 155.4086Q485.56686 154.73672 485.56686 153.64297Q485.56686 152.58047 484.9731 151.9711Q484.37936 151.36172 483.42624 151.36172Q482.8325 151.36172 482.3481 151.64297Q481.87936 151.9086 481.5981 152.33047L480.44186 152.18985L481.4106 147.0336L486.395 147.0336L486.395 148.2211L482.395 148.2211L481.86374 150.9086Q482.77 150.2836 483.75436 150.2836Q485.06686 150.2836 485.9575 151.18985Q486.86374 152.0961 486.86374 153.5336Q486.86374 154.89297 486.0825 155.87735Q485.11374 157.0961 483.44186 157.0961Q482.0825 157.0961 481.2075 156.33047Q480.3481 155.56485 480.2231 154.29922Z" fill-rule="nonzero"/><path fill="#000000" d="M448.78445 359.46472L447.5657 359.55847Q447.39383 358.8241 447.09695 358.49597Q446.59695 357.98035 445.86258 357.98035Q445.26883 357.98035 444.83133 358.30847Q444.2532 358.73035 443.90945 359.54285Q443.58133 360.35535 443.5657 361.85535Q444.0032 361.18347 444.64383 360.85535Q445.30008 360.52722 446.0032 360.52722Q447.23758 360.52722 448.09695 361.43347Q448.95633 362.33972 448.95633 363.77722Q448.95633 364.71472 448.55008 365.52722Q448.14383 366.33972 447.42508 366.77722Q446.72195 367.1991 445.8157 367.1991Q444.28445 367.1991 443.3157 366.0741Q442.34695 364.93347 442.34695 362.33972Q442.34695 359.43347 443.40945 358.10535Q444.34695 356.96472 445.9407 356.96472Q447.1282 356.96472 447.8782 357.6366Q448.6282 358.29285 448.78445 359.46472ZM443.7532 363.77722Q443.7532 364.41785 444.01883 364.99597Q444.30008 365.5741 444.78445 365.8866Q445.26883 366.18347 445.80008 366.18347Q446.58133 366.18347 447.14383 365.55847Q447.70633 364.93347 447.70633 363.85535Q447.70633 362.80847 447.14383 362.21472Q446.59695 361.60535 445.7532 361.60535Q444.92508 361.60535 444.33133 362.21472Q443.7532 362.80847 443.7532 363.77722ZM451.08133 367.02722L451.08133 365.62097L452.48758 365.62097L452.48758 367.02722L451.08133 367.02722ZM460.86258 365.83972L460.86258 367.02722L454.23758 367.02722Q454.22195 366.58972 454.3782 366.16785Q454.64383 365.49597 455.1907 364.83972Q455.7532 364.18347 456.80008 363.3241Q458.4407 361.98035 459.0032 361.1991Q459.58133 360.41785 459.58133 359.71472Q459.58133 358.98035 459.05008 358.48035Q458.53445 357.98035 457.70633 357.98035Q456.8157 357.98035 456.26883 358.5116Q455.73758 359.04285 455.73758 359.99597L454.47195 359.85535Q454.59695 358.4491 455.4407 357.71472Q456.30008 356.96472 457.72195 356.96472Q459.17508 356.96472 460.0032 357.7616Q460.84695 358.55847 460.84695 359.74597Q460.84695 360.35535 460.59695 360.93347Q460.36258 361.5116 459.78445 362.15222Q459.22195 362.79285 457.89383 363.91785Q456.78445 364.83972 456.47195 365.18347Q456.15945 365.5116 455.95633 365.83972L460.86258 365.83972ZM462.40945 364.3866L463.6282 364.21472Q463.84695 365.2616 464.34695 365.73035Q464.86258 366.18347 465.59695 366.18347Q466.47195 366.18347 467.0657 365.58972Q467.65945 364.98035 467.65945 364.08972Q467.65945 363.24597 467.09695 362.6991Q466.55008 362.15222 465.70633 362.15222Q465.34695 362.15222 464.83133 362.27722L464.97195 361.1991Q465.09695 361.21472 465.15945 361.21472Q465.95633 361.21472 466.58133 360.80847Q467.20633 360.40222 467.20633 359.54285Q467.20633 358.87097 466.7532 358.43347Q466.30008 357.98035 465.5657 357.98035Q464.84695 357.98035 464.36258 358.43347Q463.89383 358.87097 463.7532 359.77722L462.53445 359.55847Q462.7532 358.3241 463.55008 357.65222Q464.34695 356.96472 465.53445 356.96472Q466.36258 356.96472 467.05008 357.3241Q467.73758 357.66785 468.09695 358.27722Q468.47195 358.8866 468.47195 359.5741Q468.47195 360.21472 468.1282 360.74597Q467.78445 361.27722 467.09695 361.60535Q467.98758 361.80847 468.47195 362.4491Q468.97195 363.08972 468.97195 364.0741Q468.97195 365.3866 468.0032 366.29285Q467.05008 367.1991 465.59695 367.1991Q464.26883 367.1991 463.39383 366.41785Q462.53445 365.6366 462.40945 364.3866Z" fill-rule="nonzero"/><path fill="#000000" d="M240.53123 326.85715L239.31248 326.9509Q239.14061 326.21652 238.84373 325.8884Q238.34373 325.37277 237.60936 325.37277Q237.01561 325.37277 236.57811 325.7009Q235.99998 326.12277 235.65623 326.93527Q235.32811 327.74777 235.31248 329.24777Q235.74998 328.5759 236.39061 328.24777Q237.04686 327.91965 237.74998 327.91965Q238.98436 327.91965 239.84373 328.8259Q240.70311 329.73215 240.70311 331.16965Q240.70311 332.10715 240.29686 332.91965Q239.89061 333.73215 239.17186 334.16965Q238.46873 334.59152 237.56248 334.59152Q236.03123 334.59152 235.06248 333.46652Q234.09373 332.3259 234.09373 329.73215Q234.09373 326.8259 235.15623 325.49777Q236.09373 324.35715 237.68748 324.35715Q238.87498 324.35715 239.62498 325.02902Q240.37498 325.68527 240.53123 326.85715ZM235.49998 331.16965Q235.49998 331.81027 235.76561 332.3884Q236.04686 332.96652 236.53123 333.27902Q237.01561 333.5759 237.54686 333.5759Q238.32811 333.5759 238.89061 332.9509Q239.45311 332.3259 239.45311 331.24777Q239.45311 330.2009 238.89061 329.60715Q238.34373 328.99777 237.49998 328.99777Q236.67186 328.99777 236.07811 329.60715Q235.49998 330.2009 235.49998 331.16965ZM242.82811 334.41965L242.82811 333.0134L244.23436 333.0134L244.23436 334.41965L242.82811 334.41965ZM246.14061 331.79465L247.43748 331.68527Q247.57811 332.62277 248.09373 333.10715Q248.62498 333.5759 249.35936 333.5759Q250.24998 333.5759 250.85936 332.90402Q251.48436 332.23215 251.48436 331.1384Q251.48436 330.0759 250.89061 329.46652Q250.29686 328.85715 249.34373 328.85715Q248.74998 328.85715 248.26561 329.1384Q247.79686 329.40402 247.51561 329.8259L246.35936 329.68527L247.32811 324.52902L252.31248 324.52902L252.31248 325.71652L248.31248 325.71652L247.78123 328.40402Q248.68748 327.77902 249.67186 327.77902Q250.98436 327.77902 251.87498 328.68527Q252.78123 329.59152 252.78123 331.02902Q252.78123 332.3884 251.99998 333.37277Q251.03123 334.59152 249.35936 334.59152Q247.99998 334.59152 247.12498 333.8259Q246.26561 333.06027 246.14061 331.79465ZM258.09375 334.41965L258.09375 332.0134L253.73436 332.0134L253.73436 330.8884L258.3125 324.40402L259.3125 324.40402L259.3125 330.8884L260.67188 330.8884L260.67188 332.0134L259.3125 332.0134L259.3125 334.41965L258.09375 334.41965ZM258.09375 330.8884L258.09375 326.37277L254.95311 330.8884L258.09375 330.8884Z" fill-rule="nonzero"/><path fill="#000000" d="M266.0147 134.6581L267.31158 134.54872Q267.4522 135.48622 267.96783 135.9706Q268.49908 136.43935 269.23346 136.43935Q270.12408 136.43935 270.73346 135.76747Q271.35846 135.0956 271.35846 134.00185Q271.35846 132.93935 270.7647 132.32997Q270.17096 131.7206 269.21783 131.7206Q268.62408 131.7206 268.1397 132.00185Q267.67096 132.26747 267.3897 132.68935L266.23346 132.54872L267.2022 127.39247L272.18658 127.39247L272.18658 128.57997L268.18658 128.57997L267.65533 131.26747Q268.56158 130.64247 269.54596 130.64247Q270.85846 130.64247 271.74908 131.54872Q272.65533 132.45497 272.65533 133.89247Q272.65533 135.25185 271.87408 136.23622Q270.90533 137.45497 269.23346 137.45497Q267.87408 137.45497 266.99908 136.68935Q266.1397 135.92372 266.0147 134.6581ZM274.7022 137.2831L274.7022 135.87685L276.10846 135.87685L276.10846 137.2831L274.7022 137.2831ZM284.48346 136.0956L284.48346 137.2831L277.85846 137.2831Q277.84283 136.8456 277.99908 136.42372Q278.2647 135.75185 278.81158 135.0956Q279.37408 134.43935 280.42096 133.57997Q282.06158 132.23622 282.62408 131.45497Q283.2022 130.67372 283.2022 129.9706Q283.2022 129.23622 282.67096 128.73622Q282.15533 128.23622 281.3272 128.23622Q280.43658 128.23622 279.8897 128.76747Q279.35846 129.29872 279.35846 130.25185L278.09283 130.11122Q278.21783 128.70497 279.06158 127.9706Q279.92096 127.2206 281.34283 127.2206Q282.79596 127.2206 283.62408 128.01747Q284.46783 128.81435 284.46783 130.00185Q284.46783 130.61122 284.21783 131.18935Q283.98346 131.76747 283.40533 132.4081Q282.84283 133.04872 281.5147 134.17372Q280.40533 135.0956 280.09283 135.43935Q279.78033 135.76747 279.5772 136.0956L284.48346 136.0956Z" fill-rule="nonzero"/><path fill="#1a1a1a" d="M23.771875 104.67923L23.771875 96.08548L24.928125 96.08548L29.44375 102.83548L29.44375 96.08548L30.5375 96.08548L30.5375 104.67923L29.365625 104.67923L24.85 97.92923L24.85 104.67923L23.771875 104.67923ZM32.25625 101.569855Q32.25625 99.83548 33.209373 99.007355Q34.00625 98.319855 35.1625 98.319855Q36.44375 98.319855 37.25625 99.163605Q38.084373 99.99173 38.084373 101.476105Q38.084373 102.67923 37.725 103.36673Q37.365623 104.05423 36.6625 104.444855Q35.975 104.819855 35.1625 104.819855Q33.865623 104.819855 33.053123 103.99173Q32.25625 103.14798 32.25625 101.569855ZM33.334373 101.569855Q33.334373 102.757355 33.85 103.351105Q34.38125 103.944855 35.1625 103.944855Q35.959373 103.944855 36.475 103.351105Q36.990623 102.757355 36.990623 101.538605Q36.990623 100.382355 36.459373 99.788605Q35.94375 99.194855 35.1625 99.194855Q34.38125 99.194855 33.85 99.788605Q33.334373 100.36673 33.334373 101.569855ZM46.709373 103.913605Q46.115623 104.413605 45.56875 104.61673Q45.0375 104.819855 44.4125 104.819855Q43.38125 104.819855 42.834373 104.319855Q42.2875 103.819855 42.2875 103.038605Q42.2875 102.58548 42.490623 102.21048Q42.69375 101.819855 43.0375 101.601105Q43.38125 101.36673 43.803123 101.257355Q44.1 101.163605 44.740623 101.08548Q46.00625 100.944855 46.615623 100.726105Q46.615623 100.507355 46.615623 100.46048Q46.615623 99.80423 46.31875 99.538605Q45.9125 99.194855 45.115623 99.194855Q44.38125 99.194855 44.021873 99.46048Q43.6625 99.71048 43.490623 100.36673L42.459373 100.226105Q42.6 99.569855 42.928123 99.163605Q43.25625 98.757355 43.865623 98.538605Q44.475 98.319855 45.271873 98.319855Q46.06875 98.319855 46.56875 98.507355Q47.06875 98.694855 47.303123 98.976105Q47.5375 99.257355 47.63125 99.694855Q47.678123 99.96048 47.678123 100.663605L47.678123 102.069855Q47.678123 103.538605 47.740623 103.92923Q47.81875 104.319855 48.021873 104.67923L46.9125 104.67923Q46.75625 104.351105 46.709373 103.913605ZM46.615623 101.55423Q46.0375 101.788605 44.896873 101.96048Q44.240623 102.05423 43.975 102.17923Q43.709373 102.288605 43.553123 102.507355Q43.4125 102.726105 43.4125 103.007355Q43.4125 103.42923 43.725 103.71048Q44.053123 103.99173 44.6625 103.99173Q45.271873 103.99173 45.740623 103.726105Q46.225 103.46048 46.44375 102.99173Q46.615623 102.632355 46.615623 101.944855L46.615623 101.55423ZM49.615623 104.67923L49.615623 96.08548L50.678123 96.08548L50.678123 104.67923L49.615623 104.67923ZM52.44375 105.194855L53.475 105.351105Q53.5375 105.819855 53.834373 106.038605Q54.225 106.33548 54.896873 106.33548Q55.63125 106.33548 56.021873 106.038605Q56.428123 105.74173 56.56875 105.226105Q56.6625 104.89798 56.646873 103.86673Q55.959373 104.67923 54.928123 104.67923Q53.646873 104.67923 52.94375 103.757355Q52.240623 102.819855 52.240623 101.538605Q52.240623 100.64798 52.553123 99.89798Q52.88125 99.132355 53.490623 98.726105Q54.1 98.319855 54.928123 98.319855Q56.0375 98.319855 56.75625 99.21048L56.75625 98.46048L57.725 98.46048L57.725 103.83548Q57.725 105.288605 57.428123 105.89798Q57.13125 106.507355 56.490623 106.851105Q55.85 107.21048 54.9125 107.21048Q53.803123 107.21048 53.115623 106.71048Q52.428123 106.21048 52.44375 105.194855ZM53.31875 101.46048Q53.31875 102.67923 53.803123 103.24173Q54.2875 103.80423 55.021873 103.80423Q55.75625 103.80423 56.240623 103.24173Q56.740623 102.67923 56.740623 101.49173Q56.740623 100.351105 56.225 99.77298Q55.725 99.194855 55.00625 99.194855Q54.303123 99.194855 53.803123 99.77298Q53.31875 100.33548 53.31875 101.46048Z" fill-rule="nonzero"/><path fill="#9e9e9e" d="M28.896875 120.663605L28.896875 121.67923L23.209375 121.67923Q23.209375 121.30423 23.334375 120.944855Q23.553125 120.36673 24.021875 119.80423Q24.50625 119.24173 25.4125 118.507355Q26.81875 117.351105 27.303125 116.67923Q27.803125 116.007355 27.803125 115.413605Q27.803125 114.788605 27.35 114.36673Q26.896875 113.92923 26.178125 113.92923Q25.4125 113.92923 24.959375 114.382355Q24.50625 114.83548 24.490625 115.64798L23.4125 115.538605Q23.521875 114.319855 24.240625 113.694855Q24.975 113.05423 26.209375 113.05423Q27.44375 113.05423 28.1625 113.74173Q28.88125 114.42923 28.88125 115.444855Q28.88125 115.96048 28.6625 116.46048Q28.459375 116.944855 27.959375 117.507355Q27.475 118.05423 26.35 119.007355Q25.396875 119.80423 25.115625 120.101105Q24.85 120.382355 24.678125 120.663605L28.896875 120.663605ZM34.31875 121.67923L33.271873 121.67923L33.271873 114.96048Q32.88125 115.319855 32.25625 115.694855Q31.646875 116.05423 31.1625 116.226105L31.1625 115.21048Q32.0375 114.788605 32.69375 114.21048Q33.365623 113.61673 33.646873 113.05423L34.31875 113.05423L34.31875 121.67923ZM37.94375 121.67923L37.94375 120.476105L39.146873 120.476105L39.146873 121.67923L37.94375 121.67923ZM45.896873 120.663605L45.896873 121.67923L40.209373 121.67923Q40.209373 121.30423 40.334373 120.944855Q40.553123 120.36673 41.021873 119.80423Q41.50625 119.24173 42.4125 118.507355Q43.81875 117.351105 44.303123 116.67923Q44.803123 116.007355 44.803123 115.413605Q44.803123 114.788605 44.35 114.36673Q43.896873 113.92923 43.178123 113.92923Q42.4125 113.92923 41.959373 114.382355Q41.50625 114.83548 41.490623 115.64798L40.4125 115.538605Q40.521873 114.319855 41.240623 113.694855Q41.975 113.05423 43.209373 113.05423Q44.44375 113.05423 45.1625 113.74173Q45.88125 114.42923 45.88125 115.444855Q45.88125 115.96048 45.6625 116.46048Q45.459373 116.944855 44.959373 117.507355Q44.475 118.05423 43.35 119.007355Q42.396873 119.80423 42.115623 120.101105Q41.85 120.382355 41.678123 120.663605L45.896873 120.663605ZM47.553123 115.14798Q47.553123 114.226105 48.00625 113.58548Q48.475 112.944855 49.35 112.944855Q50.1625 112.944855 50.69375 113.52298Q51.225 114.101105 51.225 115.21048Q51.225 116.30423 50.678123 116.89798Q50.146873 117.476105 49.365623 117.476105Q48.584373 117.476105 48.06875 116.89798Q47.553123 116.319855 47.553123 115.14798ZM49.38125 113.663605Q48.990623 113.663605 48.725 114.007355Q48.475 114.351105 48.475 115.257355Q48.475 116.08548 48.725 116.42923Q48.990623 116.757355 49.38125 116.757355Q49.7875 116.757355 50.0375 116.413605Q50.303123 116.069855 50.303123 115.17923Q50.303123 114.33548 50.0375 114.007355Q49.771873 113.663605 49.38125 113.663605ZM49.38125 121.99173L54.084373 112.944855L54.94375 112.944855L50.25625 121.99173L49.38125 121.99173ZM53.1 119.663605Q53.1 118.74173 53.553123 118.101105Q54.021873 117.46048 54.9125 117.46048Q55.725 117.46048 56.25625 118.038605Q56.7875 118.601105 56.7875 119.726105Q56.7875 120.819855 56.240623 121.413605Q55.709373 121.99173 54.9125 121.99173Q54.146873 121.99173 53.615623 121.413605Q53.1 120.83548 53.1 119.663605ZM54.94375 118.17923Q54.5375 118.17923 54.271873 118.52298Q54.021873 118.86673 54.021873 119.77298Q54.021873 120.58548 54.2875 120.92923Q54.553123 121.27298 54.94375 121.27298Q55.334373 121.27298 55.6 120.92923Q55.865623 120.58548 55.865623 119.67923Q55.865623 118.851105 55.6 118.52298Q55.334373 118.17923 54.94375 118.17923Z" fill-rule="nonzero"/><path stroke="#757575" stroke-width="1.0" stroke-linecap="butt" d="M22.85 109.17923L174.46666 109.17923L257.27332 109.17923" fill-rule="nonzero"/><path fill="#9e9e9e" d="M259.27332 109.17923C259.27332 108.07466 258.37787 107.17923 257.27332 107.17923C256.16873 107.17923 255.27332 108.07466 255.27332 109.17923C255.27332 110.2838 256.16873 111.17923 257.27332 111.17923C258.37787 111.17923 259.27332 110.2838 259.27332 109.17923" fill-rule="nonzero"/><path fill="#1a1a1a" d="M27.803125 339.97626L27.803125 338.97626L31.428125 338.96063L31.428125 342.14813Q30.6 342.82 29.709375 343.16376Q28.81875 343.49188 27.88125 343.49188Q26.615625 343.49188 25.56875 342.96063Q24.5375 342.41376 24.00625 341.39813Q23.490625 340.36688 23.490625 339.10126Q23.490625 337.83563 24.00625 336.7575Q24.5375 335.66376 25.521875 335.14813Q26.50625 334.61688 27.7875 334.61688Q28.725 334.61688 29.475 334.91376Q30.225 335.21063 30.646875 335.7575Q31.084375 336.28876 31.303125 337.16376L30.2875 337.445Q30.084375 336.78876 29.7875 336.41376Q29.50625 336.03876 28.975 335.82Q28.44375 335.58563 27.803125 335.58563Q27.021875 335.58563 26.44375 335.82Q25.88125 336.05438 25.521875 336.445Q25.178125 336.83563 24.990625 337.30438Q24.6625 338.10126 24.6625 339.02313Q24.6625 340.17938 25.053125 340.96063Q25.459375 341.72626 26.209375 342.10126Q26.959375 342.47626 27.81875 342.47626Q28.553125 342.47626 29.25625 342.195Q29.959375 341.89813 30.31875 341.58563L30.31875 339.97626L27.803125 339.97626ZM32.771873 343.35126L32.771873 334.7575L36.021873 334.7575Q36.865623 334.7575 37.31875 334.83563Q37.959373 334.945 38.38125 335.24188Q38.81875 335.53876 39.06875 336.07Q39.334373 336.60126 39.334373 337.24188Q39.334373 338.33563 38.63125 339.10126Q37.94375 339.85126 36.115623 339.85126L33.9125 339.85126L33.9125 343.35126L32.771873 343.35126ZM33.9125 338.85126L36.13125 338.85126Q37.240623 338.85126 37.69375 338.445Q38.1625 338.02313 38.1625 337.27313Q38.1625 336.74188 37.88125 336.36688Q37.615623 335.97626 37.178123 335.85126Q36.88125 335.77313 36.115623 335.77313L33.9125 335.77313L33.9125 338.85126ZM42.959373 343.35126L42.959373 335.77313L40.13125 335.77313L40.13125 334.7575L46.94375 334.7575L46.94375 335.77313L44.1 335.77313L44.1 343.35126L42.959373 343.35126ZM47.225 340.77313L47.225 339.71063L50.475 339.71063L50.475 340.77313L47.225 340.77313ZM54.725 343.35126L54.725 341.28876L51.00625 341.28876L51.00625 340.32L54.928123 334.7575L55.7875 334.7575L55.7875 340.32L56.94375 340.32L56.94375 341.28876L55.7875 341.28876L55.7875 343.35126L54.725 343.35126ZM54.725 340.32L54.725 336.46063L52.0375 340.32L54.725 340.32Z" fill-rule="nonzero"/><path fill="#9e9e9e" d="M28.896875 359.33563L28.896875 360.35126L23.209375 360.35126Q23.209375 359.97626 23.334375 359.61688Q23.553125 359.03876 24.021875 358.47626Q24.50625 357.91376 25.4125 357.17938Q26.81875 356.02313 27.303125 355.35126Q27.803125 354.67938 27.803125 354.08563Q27.803125 353.46063 27.35 353.03876Q26.896875 352.60126 26.178125 352.60126Q25.4125 352.60126 24.959375 353.05438Q24.50625 353.5075 24.490625 354.32L23.4125 354.21063Q23.521875 352.99188 24.240625 352.36688Q24.975 351.72626 26.209375 351.72626Q27.44375 351.72626 28.1625 352.41376Q28.88125 353.10126 28.88125 354.11688Q28.88125 354.6325 28.6625 355.1325Q28.459375 355.61688 27.959375 356.17938Q27.475 356.72626 26.35 357.67938Q25.396875 358.47626 25.115625 358.77313Q24.85 359.05438 24.678125 359.33563L28.896875 359.33563ZM35.81875 353.86688L34.771873 353.945Q34.63125 353.32 34.38125 353.03876Q33.94375 352.58563 33.31875 352.58563Q32.81875 352.58563 32.428123 352.86688Q31.94375 353.24188 31.646875 353.945Q31.365625 354.6325 31.35 355.91376Q31.725 355.33563 32.271873 355.05438Q32.834373 354.77313 33.44375 354.77313Q34.490623 354.77313 35.225 355.55438Q35.975 356.33563 35.975 357.55438Q35.975 358.36688 35.615623 359.07Q35.271873 359.7575 34.6625 360.1325Q34.053123 360.49188 33.2875 360.49188Q31.959375 360.49188 31.13125 359.52313Q30.303125 358.55438 30.303125 356.33563Q30.303125 353.83563 31.225 352.71063Q32.021873 351.72626 33.38125 351.72626Q34.396873 351.72626 35.0375 352.30438Q35.69375 352.86688 35.81875 353.86688ZM31.521875 357.57Q31.521875 358.11688 31.740625 358.61688Q31.975 359.10126 32.38125 359.36688Q32.803123 359.6325 33.271873 359.6325Q33.928123 359.6325 34.4125 359.10126Q34.896873 358.55438 34.896873 357.6325Q34.896873 356.74188 34.4125 356.22626Q33.94375 355.71063 33.225 355.71063Q32.50625 355.71063 32.00625 356.22626Q31.521875 356.74188 31.521875 357.57ZM37.94375 360.35126L37.94375 359.14813L39.146873 359.14813L39.146873 360.35126L37.94375 360.35126ZM40.4125 352.8825L40.4125 351.86688L45.975 351.86688L45.975 352.695Q45.1625 353.57 44.35 355.02313Q43.553123 356.46063 43.115623 357.99188Q42.7875 359.07 42.709373 360.35126L41.615623 360.35126Q41.63125 359.33563 42.00625 357.89813Q42.396873 356.46063 43.1 355.1325Q43.81875 353.80438 44.63125 352.8825L40.4125 352.8825ZM47.553123 353.82Q47.553123 352.89813 48.00625 352.2575Q48.475 351.61688 49.35 351.61688Q50.1625 351.61688 50.69375 352.195Q51.225 352.77313 51.225 353.8825Q51.225 354.97626 50.678123 355.57Q50.146873 356.14813 49.365623 356.14813Q48.584373 356.14813 48.06875 355.57Q47.553123 354.99188 47.553123 353.82ZM49.38125 352.33563Q48.990623 352.33563 48.725 352.67938Q48.475 353.02313 48.475 353.92938Q48.475 354.7575 48.725 355.10126Q48.990623 355.42938 49.38125 355.42938Q49.7875 355.42938 50.0375 355.08563Q50.303123 354.74188 50.303123 353.85126Q50.303123 353.0075 50.0375 352.67938Q49.771873 352.33563 49.38125 352.33563ZM49.38125 360.66376L54.084373 351.61688L54.94375 351.61688L50.25625 360.66376L49.38125 360.66376ZM53.1 358.33563Q53.1 357.41376 53.553123 356.77313Q54.021873 356.1325 54.9125 356.1325Q55.725 356.1325 56.25625 356.71063Q56.7875 357.27313 56.7875 358.39813Q56.7875 359.49188 56.240623 360.08563Q55.709373 360.66376 54.9125 360.66376Q54.146873 360.66376 53.615623 360.08563Q53.1 359.5075 53.1 358.33563ZM54.94375 356.85126Q54.5375 356.85126 54.271873 357.195Q54.021873 357.53876 54.021873 358.445Q54.021873 359.2575 54.2875 359.60126Q54.553123 359.945 54.94375 359.945Q55.334373 359.945 55.6 359.60126Q55.865623 359.2575 55.865623 358.35126Q55.865623 357.52313 55.6 357.195Q55.334373 356.85126 54.94375 356.85126Z" fill-rule="nonzero"/><path stroke="#757575" stroke-width="1.0" stroke-linecap="butt" d="M22.85 347.85126L174.46666 347.85126L220.59903 347.85126" fill-rule="nonzero"/><path fill="#9e9e9e" d="M222.59903 347.85126C222.59903 346.7467 221.7036 345.85126 220.59903 345.85126C219.49446 345.85126 218.59903 346.7467 218.59903 347.85126C218.59903 348.95584 219.49446 349.85126 220.59903 349.85126C221.7036 349.85126 222.59903 348.95584 222.59903 347.85126" fill-rule="nonzero"/><path fill="#1a1a1a" d="M670.2125 122.53531L671.3375 122.832184Q670.97815 124.22281 670.0563 124.957184Q669.1344 125.69156 667.79065 125.69156Q666.4 125.69156 665.525 125.12906Q664.65 124.56656 664.1969 123.50406Q663.7438 122.425934 663.7438 121.19156Q663.7438 119.84781 664.2594 118.84781Q664.775 117.84781 665.7125 117.332184Q666.66565 116.81656 667.8063 116.81656Q669.0875 116.81656 669.9625 117.47281Q670.85315 118.12906 671.1969 119.31656L670.0719 119.582184Q669.775 118.644684 669.1969 118.22281Q668.6344 117.78531 667.775 117.78531Q666.79065 117.78531 666.1188 118.269684Q665.4625 118.738434 665.1813 119.53531Q664.91565 120.332184 664.91565 121.19156Q664.91565 122.28531 665.22815 123.09781Q665.5563 123.91031 666.22815 124.31656Q666.9 124.72281 667.6969 124.72281Q668.65 124.72281 669.3063 124.175934Q669.97815 123.62906 670.2125 122.53531ZM672.91565 125.550934L672.91565 116.957184L673.97815 116.957184L673.97815 125.550934L672.91565 125.550934ZM680.0094 124.78531Q679.41565 125.28531 678.8688 125.488434Q678.3375 125.69156 677.7125 125.69156Q676.6813 125.69156 676.1344 125.19156Q675.5875 124.69156 675.5875 123.91031Q675.5875 123.457184 675.79065 123.082184Q675.9938 122.69156 676.3375 122.47281Q676.6813 122.238434 677.10315 122.12906Q677.4 122.03531 678.04065 121.957184Q679.3063 121.81656 679.91565 121.59781Q679.91565 121.37906 679.91565 121.332184Q679.91565 120.675934 679.6188 120.41031Q679.2125 120.06656 678.41565 120.06656Q677.6813 120.06656 677.3219 120.332184Q676.9625 120.582184 676.79065 121.238434L675.7594 121.09781Q675.9 120.44156 676.22815 120.03531Q676.5563 119.62906 677.16565 119.41031Q677.775 119.19156 678.5719 119.19156Q679.3688 119.19156 679.8688 119.37906Q680.3688 119.56656 680.60315 119.84781Q680.8375 120.12906 680.9313 120.56656Q680.97815 120.832184 680.97815 121.53531L680.97815 122.94156Q680.97815 124.41031 681.04065 124.800934Q681.1188 125.19156 681.3219 125.550934L680.2125 125.550934Q680.0563 125.22281 680.0094 124.78531ZM679.91565 122.425934Q679.3375 122.66031 678.1969 122.832184Q677.54065 122.925934 677.275 123.050934Q677.0094 123.16031 676.85315 123.37906Q676.7125 123.59781 676.7125 123.87906Q676.7125 124.300934 677.025 124.582184Q677.35315 124.863434 677.9625 124.863434Q678.5719 124.863434 679.04065 124.59781Q679.525 124.332184 679.7438 123.863434Q679.91565 123.50406 679.91565 122.81656L679.91565 122.425934ZM687.025 125.550934L687.025 124.62906Q686.29065 125.69156 685.04065 125.69156Q684.4938 125.69156 684.0094 125.488434Q683.54065 125.269684 683.3063 124.957184Q683.0719 124.62906 682.97815 124.16031Q682.91565 123.863434 682.91565 123.175934L682.91565 119.332184L683.97815 119.332184L683.97815 122.78531Q683.97815 123.59781 684.04065 123.894684Q684.1344 124.300934 684.4469 124.550934Q684.775 124.78531 685.2594 124.78531Q685.72815 124.78531 686.1344 124.550934Q686.5563 124.300934 686.72815 123.87906Q686.91565 123.457184 686.91565 122.66031L686.91565 119.332184L687.9625 119.332184L687.9625 125.550934L687.025 125.550934ZM693.97815 125.550934L693.97815 124.769684Q693.3844 125.69156 692.2438 125.69156Q691.4938 125.69156 690.8688 125.28531Q690.2438 124.863434 689.9 124.12906Q689.5563 123.394684 689.5563 122.44156Q689.5563 121.519684 689.8688 120.75406Q690.1813 119.988434 690.8063 119.59781Q691.4313 119.19156 692.1969 119.19156Q692.7594 119.19156 693.1969 119.425934Q693.6344 119.66031 693.91565 120.03531L693.91565 116.957184L694.9625 116.957184L694.9625 125.550934L693.97815 125.550934ZM690.65 122.44156Q690.65 123.644684 691.15 124.238434Q691.65 124.81656 692.3375 124.81656Q693.025 124.81656 693.5094 124.25406Q693.9938 123.69156 693.9938 122.53531Q693.9938 121.25406 693.4938 120.66031Q693.0094 120.06656 692.29065 120.06656Q691.5875 120.06656 691.1188 120.644684Q690.65 121.207184 690.65 122.44156ZM701.1969 123.550934L702.29065 123.675934Q702.04065 124.62906 701.3375 125.16031Q700.6344 125.69156 699.5563 125.69156Q698.1969 125.69156 697.3844 124.84781Q696.5875 124.00406 696.5875 122.488434Q696.5875 120.925934 697.4 120.06656Q698.2125 119.19156 699.4938 119.19156Q700.7438 119.19156 701.525 120.03531Q702.3219 120.87906 702.3219 122.425934Q702.3219 122.519684 702.3219 122.707184L697.6813 122.707184Q697.7438 123.738434 698.2594 124.28531Q698.775 124.81656 699.5563 124.81656Q700.1344 124.81656 700.54065 124.519684Q700.9625 124.207184 701.1969 123.550934ZM697.7438 121.84781L701.2125 121.84781Q701.15 121.050934 700.8219 120.66031Q700.3063 120.050934 699.5094 120.050934Q698.775 120.050934 698.275 120.53531Q697.79065 121.019684 697.7438 121.84781ZM703.65 123.28531L704.7125 123.144684Q704.8844 124.03531 705.3219 124.44156Q705.7594 124.832184 706.3844 124.832184Q707.1344 124.832184 707.65 124.31656Q708.16565 123.800934 708.16565 123.03531Q708.16565 122.31656 707.6813 121.84781Q707.2125 121.363434 706.47815 121.363434Q706.1813 121.363434 705.72815 121.488434L705.85315 120.550934Q705.9625 120.56656 706.025 120.56656Q706.6969 120.56656 707.22815 120.22281Q707.775 119.863434 707.775 119.12906Q707.775 118.550934 707.3844 118.175934Q706.9938 117.78531 706.3688 117.78531Q705.7594 117.78531 705.3375 118.175934Q704.9313 118.56656 704.8219 119.332184L703.7594 119.144684Q703.9469 118.09781 704.6344 117.519684Q705.3219 116.925934 706.3375 116.925934Q707.04065 116.925934 707.6344 117.238434Q708.22815 117.53531 708.54065 118.050934Q708.85315 118.56656 708.85315 119.16031Q708.85315 119.707184 708.5563 120.175934Q708.2594 120.62906 707.6813 120.894684Q708.4313 121.06656 708.85315 121.62906Q709.275 122.175934 709.275 123.019684Q709.275 124.144684 708.4469 124.925934Q707.6344 125.707184 706.3844 125.707184Q705.2594 125.707184 704.5094 125.03531Q703.7594 124.34781 703.65 123.28531Z" fill-rule="nonzero"/><path fill="#9e9e9e" d="M681.1969 141.53531L681.1969 142.55093L675.5094 142.55093Q675.5094 142.17593 675.6344 141.81656Q675.85315 141.23843 676.3219 140.67593Q676.8063 140.11343 677.7125 139.37906Q679.1188 138.22281 679.60315 137.55093Q680.10315 136.87906 680.10315 136.28531Q680.10315 135.66031 679.65 135.23843Q679.1969 134.80093 678.47815 134.80093Q677.7125 134.80093 677.2594 135.25406Q676.8063 135.70718 676.79065 136.51968L675.7125 136.41031Q675.8219 135.19156 676.54065 134.56656Q677.275 133.92593 678.5094 133.92593Q679.7438 133.92593 680.4625 134.61343Q681.1813 135.30093 681.1813 136.31656Q681.1813 136.83218 680.9625 137.33218Q680.7594 137.81656 680.2594 138.37906Q679.775 138.92593 678.65 139.87906Q677.6969 140.67593 677.41565 140.97281Q677.15 141.25406 676.97815 141.53531L681.1969 141.53531ZM688.1188 136.06656L687.0719 136.14468Q686.9313 135.51968 686.6813 135.23843Q686.2438 134.78531 685.6188 134.78531Q685.1188 134.78531 684.72815 135.06656Q684.2438 135.44156 683.9469 136.14468Q683.66565 136.83218 683.65 138.11343Q684.025 137.53531 684.5719 137.25406Q685.1344 136.97281 685.7438 136.97281Q686.79065 136.97281 687.525 137.75406Q688.275 138.53531 688.275 139.75406Q688.275 140.56656 687.91565 141.26968Q687.5719 141.95718 686.9625 142.33218Q686.35315 142.69156 685.5875 142.69156Q684.2594 142.69156 683.4313 141.72281Q682.60315 140.75406 682.60315 138.53531Q682.60315 136.03531 683.525 134.91031Q684.3219 133.92593 685.6813 133.92593Q686.6969 133.92593 687.3375 134.50406Q687.9938 135.06656 688.1188 136.06656ZM683.8219 139.76968Q683.8219 140.31656 684.04065 140.81656Q684.275 141.30093 684.6813 141.56656Q685.10315 141.83218 685.5719 141.83218Q686.22815 141.83218 686.7125 141.30093Q687.1969 140.75406 687.1969 139.83218Q687.1969 138.94156 686.7125 138.42593Q686.2438 137.91031 685.525 137.91031Q684.8063 137.91031 684.3063 138.42593Q683.8219 138.94156 683.8219 139.76968ZM690.2438 142.55093L690.2438 141.34781L691.4469 141.34781L691.4469 142.55093L690.2438 142.55093ZM692.7125 135.08218L692.7125 134.06656L698.275 134.06656L698.275 134.89468Q697.4625 135.76968 696.65 137.22281Q695.85315 138.66031 695.41565 140.19156Q695.0875 141.26968 695.0094 142.55093L693.91565 142.55093Q693.9313 141.53531 694.3063 140.09781Q694.6969 138.66031 695.4 137.33218Q696.1188 136.00406 696.9313 135.08218L692.7125 135.08218ZM699.85315 136.01968Q699.85315 135.09781 700.3063 134.45718Q700.775 133.81656 701.65 133.81656Q702.4625 133.81656 702.9938 134.39468Q703.525 134.97281 703.525 136.08218Q703.525 137.17593 702.97815 137.76968Q702.4469 138.34781 701.66565 138.34781Q700.8844 138.34781 700.3688 137.76968Q699.85315 137.19156 699.85315 136.01968ZM701.6813 134.53531Q701.29065 134.53531 701.025 134.87906Q700.775 135.22281 700.775 136.12906Q700.775 136.95718 701.025 137.30093Q701.29065 137.62906 701.6813 137.62906Q702.0875 137.62906 702.3375 137.28531Q702.60315 136.94156 702.60315 136.05093Q702.60315 135.20718 702.3375 134.87906Q702.0719 134.53531 701.6813 134.53531ZM701.6813 142.86343L706.3844 133.81656L707.2438 133.81656L702.5563 142.86343L701.6813 142.86343ZM705.4 140.53531Q705.4 139.61343 705.85315 138.97281Q706.3219 138.33218 707.2125 138.33218Q708.025 138.33218 708.5563 138.91031Q709.0875 139.47281 709.0875 140.59781Q709.0875 141.69156 708.54065 142.28531Q708.0094 142.86343 707.2125 142.86343Q706.4469 142.86343 705.91565 142.28531Q705.4 141.70718 705.4 140.53531ZM707.2438 139.05093Q706.8375 139.05093 706.5719 139.39468Q706.3219 139.73843 706.3219 140.64468Q706.3219 141.45718 706.5875 141.80093Q706.85315 142.14468 707.2438 142.14468Q707.6344 142.14468 707.9 141.80093Q708.16565 141.45718 708.16565 140.55093Q708.16565 139.72281 707.9 139.39468Q707.6344 139.05093 707.2438 139.05093Z" fill-rule="nonzero"/><path stroke="#757575" stroke-width="1.0" stroke-linecap="butt" d="M710.15 130.05093L558.5333 130.05093L498.0088 130.05093" fill-rule="nonzero"/><path fill="#9e9e9e" d="M500.0088 130.05093C500.0088 128.94637 499.11337 128.05093 498.0088 128.05093C496.90424 128.05093 496.0088 128.94637 496.0088 130.05093C496.0088 131.1555 496.90424 132.05093 498.0088 132.05093C499.11337 132.05093 500.0088 131.1555 500.0088 130.05093" fill-rule="nonzero"/><path fill="#1a1a1a" d="M675.10315 379.31894L675.10315 378.31894L678.72815 378.3033L678.72815 381.4908Q677.9 382.1627 677.0094 382.50644Q676.1188 382.83456 675.1813 382.83456Q673.91565 382.83456 672.8688 382.3033Q671.8375 381.75644 671.3063 380.7408Q670.79065 379.70956 670.79065 378.44394Q670.79065 377.1783 671.3063 376.1002Q671.8375 375.00644 672.8219 374.4908Q673.8063 373.95956 675.0875 373.95956Q676.025 373.95956 676.775 374.25644Q677.525 374.5533 677.9469 375.1002Q678.3844 375.63144 678.60315 376.50644L677.5875 376.7877Q677.3844 376.13144 677.0875 375.75644Q676.8063 375.38144 676.275 375.1627Q675.7438 374.9283 675.10315 374.9283Q674.3219 374.9283 673.7438 375.1627Q673.1813 375.39706 672.8219 375.7877Q672.47815 376.1783 672.29065 376.64706Q671.9625 377.44394 671.9625 378.3658Q671.9625 379.52206 672.35315 380.3033Q672.7594 381.06894 673.5094 381.44394Q674.2594 381.81894 675.1188 381.81894Q675.85315 381.81894 676.5563 381.5377Q677.2594 381.2408 677.6188 380.9283L677.6188 379.31894L675.10315 379.31894ZM684.1969 380.69394L685.29065 380.81894Q685.04065 381.77206 684.3375 382.3033Q683.6344 382.83456 682.5563 382.83456Q681.1969 382.83456 680.3844 381.9908Q679.5875 381.14706 679.5875 379.63144Q679.5875 378.06894 680.4 377.20956Q681.2125 376.33456 682.4938 376.33456Q683.7438 376.33456 684.525 377.1783Q685.3219 378.02206 685.3219 379.56894Q685.3219 379.6627 685.3219 379.8502L680.6813 379.8502Q680.7438 380.88144 681.2594 381.4283Q681.775 381.95956 682.5563 381.95956Q683.1344 381.95956 683.54065 381.6627Q683.9625 381.3502 684.1969 380.69394ZM680.7438 378.9908L684.2125 378.9908Q684.15 378.19394 683.8219 377.8033Q683.3063 377.19394 682.5094 377.19394Q681.775 377.19394 681.275 377.6783Q680.79065 378.1627 680.7438 378.9908ZM686.9469 382.69394L686.9469 376.4752L687.8844 376.4752L687.8844 377.3502Q688.1813 376.88144 688.66565 376.6158Q689.15 376.33456 689.775 376.33456Q690.4625 376.33456 690.9 376.6158Q691.35315 376.89706 691.525 377.4127Q692.275 376.33456 693.4469 376.33456Q694.3844 376.33456 694.8688 376.8502Q695.3688 377.3502 695.3688 378.4283L695.3688 382.69394L694.3219 382.69394L694.3219 378.77206Q694.3219 378.14706 694.2125 377.8658Q694.1188 377.58456 693.85315 377.4127Q693.5875 377.2408 693.2125 377.2408Q692.5563 377.2408 692.1188 377.6783Q691.6969 378.1158 691.6969 379.08456L691.6969 382.69394L690.6344 382.69394L690.6344 378.64706Q690.6344 377.94394 690.3688 377.6002Q690.1188 377.2408 689.54065 377.2408Q689.0875 377.2408 688.7125 377.4752Q688.3375 377.70956 688.16565 378.1627Q687.9938 378.6158 687.9938 379.45956L687.9938 382.69394L686.9469 382.69394ZM697.9469 375.31894L697.9469 374.1002L699.0094 374.1002L699.0094 375.31894L697.9469 375.31894ZM697.9469 382.69394L697.9469 376.4752L699.0094 376.4752L699.0094 382.69394L697.9469 382.69394ZM700.9469 382.69394L700.9469 376.4752L701.8844 376.4752L701.8844 377.3502Q702.5719 376.33456 703.8688 376.33456Q704.4313 376.33456 704.9 376.5377Q705.3844 376.7408 705.6188 377.06894Q705.85315 377.39706 705.9469 377.83456Q705.9938 378.13144 705.9938 378.8658L705.9938 382.69394L704.9469 382.69394L704.9469 378.9127Q704.9469 378.25644 704.8219 377.94394Q704.6969 377.63144 704.3844 377.44394Q704.0719 377.2408 703.65 377.2408Q702.97815 377.2408 702.47815 377.6783Q701.9938 378.1002 701.9938 379.2877L701.9938 382.69394L700.9469 382.69394ZM707.9469 375.31894L707.9469 374.1002L709.0094 374.1002L709.0094 375.31894L707.9469 375.31894ZM707.9469 382.69394L707.9469 376.4752L709.0094 376.4752L709.0094 382.69394L707.9469 382.69394Z" fill-rule="nonzero"/><path fill="#9e9e9e" d="M681.1969 398.6783L681.1969 399.69394L675.5094 399.69394Q675.5094 399.31894 675.6344 398.95956Q675.85315 398.38144 676.3219 397.81894Q676.8063 397.25644 677.7125 396.52206Q679.1188 395.3658 679.60315 394.69394Q680.10315 394.02206 680.10315 393.4283Q680.10315 392.8033 679.65 392.38144Q679.1969 391.94394 678.47815 391.94394Q677.7125 391.94394 677.2594 392.39706Q676.8063 392.8502 676.79065 393.6627L675.7125 393.5533Q675.8219 392.33456 676.54065 391.70956Q677.275 391.06894 678.5094 391.06894Q679.7438 391.06894 680.4625 391.75644Q681.1813 392.44394 681.1813 393.45956Q681.1813 393.9752 680.9625 394.4752Q680.7594 394.95956 680.2594 395.52206Q679.775 396.06894 678.65 397.02206Q677.6969 397.81894 677.41565 398.1158Q677.15 398.39706 676.97815 398.6783L681.1969 398.6783ZM682.65 397.44394L683.7594 397.3502Q683.8844 398.1627 684.3219 398.56894Q684.775 398.9752 685.41565 398.9752Q686.16565 398.9752 686.6969 398.39706Q687.22815 397.81894 687.22815 396.88144Q687.22815 395.9752 686.7125 395.45956Q686.2125 394.9283 685.3844 394.9283Q684.8844 394.9283 684.4625 395.1627Q684.0563 395.39706 683.8219 395.75644L682.8375 395.63144L683.66565 391.2252L687.9469 391.2252L687.9469 392.2252L684.5094 392.2252L684.0563 394.5377Q684.8219 393.9908 685.66565 393.9908Q686.79065 393.9908 687.5563 394.77206Q688.3375 395.5533 688.3375 396.7877Q688.3375 397.94394 687.66565 398.8033Q686.8375 399.83456 685.41565 399.83456Q684.2438 399.83456 683.4938 399.1783Q682.7594 398.52206 682.65 397.44394ZM690.2438 399.69394L690.2438 398.4908L691.4469 398.4908L691.4469 399.69394L690.2438 399.69394ZM696.025 399.69394L696.025 397.63144L692.3063 397.63144L692.3063 396.6627L696.22815 391.1002L697.0875 391.1002L697.0875 396.6627L698.2438 396.6627L698.2438 397.63144L697.0875 397.63144L697.0875 399.69394L696.025 399.69394ZM696.025 396.6627L696.025 392.8033L693.3375 396.6627L696.025 396.6627ZM699.85315 393.1627Q699.85315 392.2408 700.3063 391.6002Q700.775 390.95956 701.65 390.95956Q702.4625 390.95956 702.9938 391.5377Q703.525 392.1158 703.525 393.2252Q703.525 394.31894 702.97815 394.9127Q702.4469 395.4908 701.66565 395.4908Q700.8844 395.4908 700.3688 394.9127Q699.85315 394.33456 699.85315 393.1627ZM701.6813 391.6783Q701.29065 391.6783 701.025 392.02206Q700.775 392.3658 700.775 393.27206Q700.775 394.1002 701.025 394.44394Q701.29065 394.77206 701.6813 394.77206Q702.0875 394.77206 702.3375 394.4283Q702.60315 394.08456 702.60315 393.19394Q702.60315 392.3502 702.3375 392.02206Q702.0719 391.6783 701.6813 391.6783ZM701.6813 400.00644L706.3844 390.95956L707.2438 390.95956L702.5563 400.00644L701.6813 400.00644ZM705.4 397.6783Q705.4 396.75644 705.85315 396.1158Q706.3219 395.4752 707.2125 395.4752Q708.025 395.4752 708.5563 396.0533Q709.0875 396.6158 709.0875 397.7408Q709.0875 398.83456 708.54065 399.4283Q708.0094 400.00644 707.2125 400.00644Q706.4469 400.00644 705.91565 399.4283Q705.4 398.8502 705.4 397.6783ZM707.2438 396.19394Q706.8375 396.19394 706.5719 396.5377Q706.3219 396.88144 706.3219 397.7877Q706.3219 398.6002 706.5875 398.94394Q706.85315 399.2877 707.2438 399.2877Q707.6344 399.2877 707.9 398.94394Q708.16565 398.6002 708.16565 397.69394Q708.16565 396.8658 707.9 396.5377Q707.6344 396.19394 707.2438 396.19394Z" fill-rule="nonzero"/><path stroke="#757575" stroke-width="1.0" stroke-linecap="butt" d="M710.15 387.19394L558.5333 387.19394L475.54858 387.19394" fill-rule="nonzero"/><path fill="#9e9e9e" d="M477.54858 387.19394C477.54858 386.08936 476.65317 385.19394 475.54858 385.19394C474.44403 385.19394 473.54858 386.08936 473.54858 387.19394C473.54858 388.2985 474.44403 389.19394 475.54858 389.19394C476.65317 389.19394 477.54858 388.2985 477.54858 387.19394" fill-rule="nonzero"/><path fill="#757575" d="M22.81875 40.85L28.31875 26.537498L30.365625 26.537498L36.225 40.85L34.06875 40.85L32.396873 36.50625L26.4125 36.50625L24.834375 40.85L22.81875 40.85ZM26.959375 34.975L31.803125 34.975L30.31875 31.006248Q29.63125 29.193748 29.303125 28.037498Q29.021875 29.412498 28.521875 30.771873L26.959375 34.975ZM40.053123 40.85L36.1 30.474998L37.959373 30.474998L40.19375 36.69375Q40.553123 37.69375 40.85 38.771873Q41.084373 37.959373 41.50625 36.803123L43.803123 30.474998L45.615623 30.474998L41.69375 40.85L40.053123 40.85ZM53.271873 37.50625L55.084373 37.740623Q54.6625 39.31875 53.490623 40.209373Q52.334373 41.084373 50.521873 41.084373Q48.25625 41.084373 46.9125 39.69375Q45.584373 38.2875 45.584373 35.75625Q45.584373 33.13125 46.928123 31.693748Q48.271873 30.240623 50.428123 30.240623Q52.50625 30.240623 53.81875 31.662498Q55.146873 33.06875 55.146873 35.646873Q55.146873 35.803123 55.13125 36.115623L47.396873 36.115623Q47.490623 37.81875 48.365623 38.725Q49.240623 39.63125 50.5375 39.63125Q51.50625 39.63125 52.178123 39.13125Q52.865623 38.615623 53.271873 37.50625ZM47.490623 34.6625L53.2875 34.6625Q53.178123 33.365623 52.63125 32.709373Q51.7875 31.693748 50.44375 31.693748Q49.240623 31.693748 48.4125 32.50625Q47.584373 33.303123 47.490623 34.6625ZM57.146873 40.85L57.146873 30.474998L58.725 30.474998L58.725 32.053123Q59.334373 30.943748 59.85 30.599998Q60.365623 30.240623 60.975 30.240623Q61.865623 30.240623 62.7875 30.803123L62.178123 32.44375Q61.5375 32.053123 60.896873 32.053123Q60.31875 32.053123 59.85 32.4125Q59.396873 32.75625 59.19375 33.365623Q58.9125 34.303123 58.9125 35.4125L58.9125 40.85L57.146873 40.85ZM70.94375 39.56875Q69.95937 40.396873 69.05312 40.740623Q68.14687 41.084373 67.11562 41.084373Q65.4125 41.084373 64.49062 40.25625Q63.56875 39.4125 63.56875 38.115623Q63.56875 37.35 63.9125 36.725Q64.27187 36.1 64.83437 35.725Q65.39687 35.334373 66.1 35.13125Q66.61562 35.00625 67.6625 34.865623Q69.7875 34.615623 70.7875 34.271873Q70.80312 33.9125 70.80312 33.803123Q70.80312 32.740623 70.30312 32.2875Q69.63125 31.693748 68.30312 31.693748Q67.05312 31.693748 66.45937 32.13125Q65.88125 32.56875 65.6 33.678123L63.88125 33.44375Q64.11562 32.334373 64.64687 31.662498Q65.17812 30.974998 66.19375 30.615623Q67.20937 30.240623 68.55312 30.240623Q69.88125 30.240623 70.70937 30.553123Q71.5375 30.865623 71.92812 31.349998Q72.31875 31.818748 72.475 32.5375Q72.56875 32.990623 72.56875 34.1625L72.56875 36.50625Q72.56875 38.959373 72.67812 39.615623Q72.7875 40.25625 73.13125 40.85L71.2875 40.85Q71.02187 40.303123 70.94375 39.56875ZM70.7875 35.646873Q69.83437 36.0375 67.9125 36.303123Q66.83437 36.459373 66.38125 36.6625Q65.94375 36.85 65.69375 37.225Q65.44375 37.6 65.44375 38.06875Q65.44375 38.771873 65.975 39.240623Q66.50625 39.709373 67.5375 39.709373Q68.55312 39.709373 69.33437 39.271873Q70.13125 38.81875 70.50625 38.053123Q70.7875 37.44375 70.7875 36.2875L70.7875 35.646873ZM74.85 41.709373L76.55312 41.959373Q76.6625 42.75625 77.14687 43.115623Q77.80312 43.6 78.94375 43.6Q80.1625 43.6 80.81875 43.115623Q81.49062 42.63125 81.725 41.75625Q81.86562 41.209373 81.85 39.490623Q80.69375 40.85 78.975 40.85Q76.83437 40.85 75.6625 39.303123Q74.49062 37.75625 74.49062 35.6Q74.49062 34.115623 75.02187 32.865623Q75.56875 31.615623 76.58437 30.928123Q77.61562 30.240623 78.99062 30.240623Q80.81875 30.240623 82.02187 31.724998L82.02187 30.474998L83.63125 30.474998L83.63125 39.44375Q83.63125 41.865623 83.13125 42.865623Q82.64687 43.88125 81.56875 44.459373Q80.50625 45.053123 78.94375 45.053123Q77.1 45.053123 75.94375 44.225Q74.80312 43.396873 74.85 41.709373ZM76.30312 35.475Q76.30312 37.521873 77.11562 38.459373Q77.92812 39.396873 79.14687 39.396873Q80.35 39.396873 81.1625 38.459373Q81.99062 37.521873 81.99062 35.5375Q81.99062 33.63125 81.14687 32.6625Q80.30312 31.693748 79.11562 31.693748Q77.94375 31.693748 77.11562 32.646873Q76.30312 33.6 76.30312 35.475ZM93.27187 37.50625L95.08437 37.740623Q94.6625 39.31875 93.49062 40.209373Q92.33437 41.084373 90.52187 41.084373Q88.25625 41.084373 86.9125 39.69375Q85.58437 38.2875 85.58437 35.75625Q85.58437 33.13125 86.92812 31.693748Q88.27187 30.240623 90.42812 30.240623Q92.50625 30.240623 93.81875 31.662498Q95.14687 33.06875 95.14687 35.646873Q95.14687 35.803123 95.13125 36.115623L87.39687 36.115623Q87.49062 37.81875 88.36562 38.725Q89.24062 39.63125 90.5375 39.63125Q91.50625 39.63125 92.17812 39.13125Q92.86562 38.615623 93.27187 37.50625ZM87.49062 34.6625L93.2875 34.6625Q93.17812 33.365623 92.63125 32.709373Q91.7875 31.693748 90.44375 31.693748Q89.24062 31.693748 88.4125 32.50625Q87.58437 33.303123 87.49062 34.6625ZM102.75625 36.25625L104.5375 36.1Q104.6625 37.1625 105.11562 37.85Q105.58437 38.5375 106.55312 38.975Q107.5375 39.396873 108.77187 39.396873Q109.85 39.396873 110.67812 39.084373Q111.50625 38.75625 111.9125 38.19375Q112.31875 37.63125 112.31875 36.959373Q112.31875 36.2875 111.92812 35.7875Q111.5375 35.2875 110.64687 34.94375Q110.06875 34.709373 108.08437 34.240623Q106.11562 33.771873 105.33437 33.35Q104.30312 32.81875 103.80312 32.021873Q103.30312 31.224998 103.30312 30.240623Q103.30312 29.146873 103.9125 28.209373Q104.52187 27.271873 105.70937 26.787498Q106.89687 26.287498 108.33437 26.287498Q109.92812 26.287498 111.14687 26.803123Q112.36562 27.318748 113.00625 28.318748Q113.6625 29.303123 113.70937 30.568748L111.89687 30.709373Q111.75625 29.349998 110.9125 28.662498Q110.06875 27.959373 108.4125 27.959373Q106.69375 27.959373 105.89687 28.599998Q105.11562 29.224998 105.11562 30.099998Q105.11562 30.881248 105.67812 31.381248Q106.225 31.881248 108.5375 32.396873Q110.85 32.9125 111.70937 33.303123Q112.95937 33.88125 113.55312 34.771873Q114.14687 35.646873 114.14687 36.803123Q114.14687 37.94375 113.49062 38.959373Q112.83437 39.975 111.6 40.5375Q110.38125 41.1 108.85 41.1Q106.9125 41.1 105.6 40.5375Q104.2875 39.959373 103.5375 38.81875Q102.7875 37.678123 102.75625 36.25625ZM120.00625 39.271873L120.25625 40.834373Q119.52187 40.990623 118.92812 40.990623Q117.975 40.990623 117.44375 40.69375Q116.92812 40.38125 116.70937 39.896873Q116.49062 39.396873 116.49062 37.81875L116.49062 31.849998L115.20937 31.849998L115.20937 30.474998L116.49062 30.474998L116.49062 27.912498L118.24062 26.849998L118.24062 30.474998L120.00625 30.474998L120.00625 31.849998L118.24062 31.849998L118.24062 37.9125Q118.24062 38.6625 118.33437 38.88125Q118.42812 39.084373 118.63125 39.225Q118.85 39.35 119.24062 39.35Q119.52187 39.35 120.00625 39.271873ZM128.94376 39.56875Q127.95937 40.396873 127.05312 40.740623Q126.14687 41.084373 125.11562 41.084373Q123.4125 41.084373 122.49062 40.25625Q121.56875 39.4125 121.56875 38.115623Q121.56875 37.35 121.9125 36.725Q122.27187 36.1 122.83437 35.725Q123.39687 35.334373 124.1 35.13125Q124.61562 35.00625 125.6625 34.865623Q127.7875 34.615623 128.7875 34.271873Q128.80313 33.9125 128.80313 33.803123Q128.80313 32.740623 128.30313 32.2875Q127.63125 31.693748 126.30312 31.693748Q125.05312 31.693748 124.45937 32.13125Q123.88125 32.56875 123.6 33.678123L121.88125 33.44375Q122.11562 32.334373 122.64687 31.662498Q123.17812 30.974998 124.19375 30.615623Q125.20937 30.240623 126.55312 30.240623Q127.88125 30.240623 128.70938 30.553123Q129.5375 30.865623 129.92813 31.349998Q130.31876 31.818748 130.475 32.5375Q130.56876 32.990623 130.56876 34.1625L130.56876 36.50625Q130.56876 38.959373 130.67813 39.615623Q130.7875 40.25625 131.13126 40.85L129.2875 40.85Q129.02188 40.303123 128.94376 39.56875ZM128.7875 35.646873Q127.83437 36.0375 125.9125 36.303123Q124.83437 36.459373 124.38125 36.6625Q123.94375 36.85 123.69375 37.225Q123.44375 37.6 123.44375 38.06875Q123.44375 38.771873 123.975 39.240623Q124.50625 39.709373 125.5375 39.709373Q126.55312 39.709373 127.33437 39.271873Q128.13126 38.81875 128.50626 38.053123Q128.7875 37.44375 128.7875 36.2875L128.7875 35.646873ZM134.7875 40.85L133.1625 40.85L133.1625 26.537498L134.9125 26.537498L134.9125 31.646873Q136.0375 30.240623 137.75626 30.240623Q138.70938 30.240623 139.56876 30.631248Q140.42813 31.021873 140.975 31.724998Q141.52188 32.4125 141.83438 33.396873Q142.14688 34.38125 142.14688 35.50625Q142.14688 38.178123 140.83438 39.63125Q139.52188 41.084373 137.67813 41.084373Q135.83438 41.084373 134.7875 39.553123L134.7875 40.85ZM134.77188 35.584373Q134.77188 37.44375 135.27188 38.2875Q136.11563 39.63125 137.52188 39.63125Q138.67813 39.63125 139.50626 38.63125Q140.35 37.63125 140.35 35.646873Q140.35 33.615623 139.5375 32.6625Q138.74063 31.693748 137.6 31.693748Q136.44376 31.693748 135.6 32.69375Q134.77188 33.69375 134.77188 35.584373ZM144.13126 40.85L144.13126 26.537498L145.88126 26.537498L145.88126 40.85L144.13126 40.85ZM155.27188 37.50625L157.08438 37.740623Q156.6625 39.31875 155.49063 40.209373Q154.33438 41.084373 152.52188 41.084373Q150.25626 41.084373 148.9125 39.69375Q147.58438 38.2875 147.58438 35.75625Q147.58438 33.13125 148.92813 31.693748Q150.27188 30.240623 152.42813 30.240623Q154.50626 30.240623 155.81876 31.662498Q157.14688 33.06875 157.14688 35.646873Q157.14688 35.803123 157.13126 36.115623L149.39688 36.115623Q149.49063 37.81875 150.36563 38.725Q151.24063 39.63125 152.5375 39.63125Q153.50626 39.63125 154.17813 39.13125Q154.86563 38.615623 155.27188 37.50625ZM149.49063 34.6625L155.2875 34.6625Q155.17813 33.365623 154.63126 32.709373Q153.7875 31.693748 152.44376 31.693748Q151.24063 31.693748 150.4125 32.50625Q149.58438 33.303123 149.49063 34.6625ZM165.39688 40.85L165.39688 26.537498L170.31876 26.537498Q171.99063 26.537498 172.88126 26.740623Q174.1 27.021873 174.975 27.756248Q176.1 28.724998 176.6625 30.209373Q177.225 31.693748 177.225 33.615623Q177.225 35.240623 176.85 36.50625Q176.475 37.75625 175.86563 38.584373Q175.27188 39.4125 174.56876 39.896873Q173.86563 40.365623 172.86563 40.615623Q171.86563 40.85 170.55313 40.85L165.39688 40.85ZM167.2875 39.1625L170.35 39.1625Q171.75626 39.1625 172.55313 38.896873Q173.36563 38.63125 173.85 38.146873Q174.52188 37.475 174.89688 36.35Q175.27188 35.209373 175.27188 33.584373Q175.27188 31.334373 174.5375 30.131248Q173.80313 28.928123 172.74063 28.521873Q171.99063 28.224998 170.30313 28.224998L167.2875 28.224998L167.2875 39.1625ZM179.17813 28.553123L179.17813 26.537498L180.94376 26.537498L180.94376 28.553123L179.17813 28.553123ZM179.17813 40.85L179.17813 30.474998L180.94376 30.474998L180.94376 40.85L179.17813 40.85ZM183.58438 40.85L183.58438 31.849998L182.0375 31.849998L182.0375 30.474998L183.58438 30.474998L183.58438 29.381248Q183.58438 28.334373 183.77188 27.818748Q184.02188 27.131248 184.6625 26.709373Q185.30313 26.287498 186.45938 26.287498Q187.20938 26.287498 188.1 26.459373L187.83438 27.990623Q187.2875 27.896873 186.80313 27.896873Q186.00626 27.896873 185.6625 28.240623Q185.33438 28.584373 185.33438 29.521873L185.33438 30.474998L187.36563 30.474998L187.36563 31.849998L185.33438 31.849998L185.33438 40.85L183.58438 40.85ZM189.58438 40.85L189.58438 31.849998L188.0375 31.849998L188.0375 30.474998L189.58438 30.474998L189.58438 29.381248Q189.58438 28.334373 189.77188 27.818748Q190.02188 27.131248 190.6625 26.709373Q191.30313 26.287498 192.45938 26.287498Q193.20938 26.287498 194.1 26.459373L193.83438 27.990623Q193.2875 27.896873 192.80313 27.896873Q192.00626 27.896873 191.6625 28.240623Q191.33438 28.584373 191.33438 29.521873L191.33438 30.474998L193.36563 30.474998L193.36563 31.849998L191.33438 31.849998L191.33438 40.85L189.58438 40.85ZM201.95938 40.85L201.95938 39.31875Q200.75626 41.084373 198.67813 41.084373Q197.75626 41.084373 196.95938 40.740623Q196.1625 40.38125 195.77188 39.85Q195.39688 39.31875 195.24063 38.5375Q195.13126 38.021873 195.13126 36.896873L195.13126 30.474998L196.88126 30.474998L196.88126 36.225Q196.88126 37.6 196.99063 38.084373Q197.1625 38.771873 197.69376 39.178123Q198.24063 39.56875 199.02188 39.56875Q199.81876 39.56875 200.50626 39.1625Q201.20938 38.75625 201.49063 38.06875Q201.7875 37.365623 201.7875 36.0375L201.7875 30.474998L203.5375 30.474998L203.5375 40.85L201.95938 40.85ZM204.45938 37.75625L206.20938 37.475Q206.35 38.521873 207.02188 39.084373Q207.69376 39.63125 208.89688 39.63125Q210.1 39.63125 210.67813 39.146873Q211.27188 38.646873 211.27188 37.990623Q211.27188 37.396873 210.75626 37.053123Q210.39688 36.81875 208.95938 36.459373Q207.02188 35.959373 206.27188 35.615623Q205.5375 35.25625 205.14688 34.63125Q204.75626 33.990623 204.75626 33.225Q204.75626 32.5375 205.06876 31.943748Q205.39688 31.349998 205.94376 30.959373Q206.35 30.662498 207.05313 30.459373Q207.77188 30.240623 208.58438 30.240623Q209.80313 30.240623 210.725 30.599998Q211.64688 30.943748 212.08438 31.553123Q212.52188 32.146873 212.69376 33.146873L210.975 33.38125Q210.85 32.584373 210.2875 32.146873Q209.725 31.693748 208.70938 31.693748Q207.49063 31.693748 206.975 32.1Q206.45938 32.490623 206.45938 33.021873Q206.45938 33.365623 206.67813 33.646873Q206.88126 33.928123 207.35 34.115623Q207.61563 34.209373 208.89688 34.553123Q210.77188 35.053123 211.50626 35.38125Q212.24063 35.69375 212.6625 36.303123Q213.08438 36.896873 213.08438 37.803123Q213.08438 38.678123 212.56876 39.459373Q212.05313 40.240623 211.08438 40.6625Q210.11563 41.084373 208.89688 41.084373Q206.88126 41.084373 205.81876 40.240623Q204.75626 39.396873 204.45938 37.75625ZM215.17813 28.553123L215.17813 26.537498L216.94376 26.537498L216.94376 28.553123L215.17813 28.553123ZM215.17813 40.85L215.17813 30.474998L216.94376 30.474998L216.94376 40.85L215.17813 40.85ZM218.52188 35.6625Q218.52188 32.7875 220.11563 31.396873Q221.45938 30.240623 223.38126 30.240623Q225.52188 30.240623 226.86563 31.646873Q228.225 33.053123 228.225 35.521873Q228.225 37.521873 227.63126 38.678123Q227.0375 39.81875 225.88126 40.459373Q224.74063 41.084373 223.38126 41.084373Q221.19376 41.084373 219.85 39.69375Q218.52188 38.2875 218.52188 35.6625ZM220.31876 35.6625Q220.31876 37.6625 221.17813 38.646873Q222.05313 39.63125 223.38126 39.63125Q224.69376 39.63125 225.55313 38.646873Q226.42813 37.646873 226.42813 35.6Q226.42813 33.678123 225.55313 32.69375Q224.67813 31.693748 223.38126 31.693748Q222.05313 31.693748 221.17813 32.69375Q220.31876 33.678123 220.31876 35.6625ZM230.1625 40.85L230.1625 30.474998L231.75626 30.474998L231.75626 31.959373Q232.89688 30.240623 235.05313 30.240623Q235.99063 30.240623 236.77188 30.584373Q237.56876 30.912498 237.95938 31.459373Q238.35 32.00625 238.50626 32.75625Q238.6 33.25625 238.6 34.475L238.6 40.85L236.83438 40.85L236.83438 34.5375Q236.83438 33.459373 236.63126 32.928123Q236.42813 32.396873 235.89688 32.084373Q235.38126 31.771873 234.67813 31.771873Q233.55313 31.771873 232.74063 32.490623Q231.92813 33.19375 231.92813 35.178123L231.92813 40.85L230.1625 40.85ZM245.45938 37.75625L247.20938 37.475Q247.35 38.521873 248.02188 39.084373Q248.69376 39.63125 249.89688 39.63125Q251.1 39.63125 251.67813 39.146873Q252.27188 38.646873 252.27188 37.990623Q252.27188 37.396873 251.75626 37.053123Q251.39688 36.81875 249.95938 36.459373Q248.02188 35.959373 247.27188 35.615623Q246.5375 35.25625 246.14688 34.63125Q245.75626 33.990623 245.75626 33.225Q245.75626 32.5375 246.06876 31.943748Q246.39688 31.349998 246.94376 30.959373Q247.35 30.662498 248.05313 30.459373Q248.77188 30.240623 249.58438 30.240623Q250.80313 30.240623 251.725 30.599998Q252.64688 30.943748 253.08438 31.553123Q253.52188 32.146873 253.69376 33.146873L251.975 33.38125Q251.85 32.584373 251.2875 32.146873Q250.725 31.693748 249.70938 31.693748Q248.49063 31.693748 247.975 32.1Q247.45938 32.490623 247.45938 33.021873Q247.45938 33.365623 247.67813 33.646873Q247.88126 33.928123 248.35 34.115623Q248.61563 34.209373 249.89688 34.553123Q251.77188 35.053123 252.50626 35.38125Q253.24063 35.69375 253.6625 36.303123Q254.08438 36.896873 254.08438 37.803123Q254.08438 38.678123 253.56876 39.459373Q253.05313 40.240623 252.08438 40.6625Q251.11563 41.084373 249.89688 41.084373Q247.88126 41.084373 246.81876 40.240623Q245.75626 39.396873 245.45938 37.75625ZM262.94376 37.053123L264.6625 37.271873Q264.38126 39.06875 263.20938 40.084373Q262.05313 41.084373 260.35 41.084373Q258.225 41.084373 256.92813 39.69375Q255.63126 38.303123 255.63126 35.709373Q255.63126 34.021873 256.17813 32.771873Q256.74063 31.506248 257.88126 30.881248Q259.02188 30.240623 260.36563 30.240623Q262.05313 30.240623 263.11563 31.099998Q264.19376 31.959373 264.50626 33.521873L262.7875 33.7875Q262.55313 32.740623 261.92813 32.225Q261.30313 31.693748 260.42813 31.693748Q259.1 31.693748 258.27188 32.646873Q257.44376 33.6 257.44376 35.646873Q257.44376 37.740623 258.24063 38.69375Q259.0375 39.63125 260.33438 39.63125Q261.36563 39.63125 262.05313 39.00625Q262.75626 38.365623 262.94376 37.053123ZM265.52188 35.6625Q265.52188 32.7875 267.11563 31.396873Q268.45938 30.240623 270.38126 30.240623Q272.52188 30.240623 273.86563 31.646873Q275.225 33.053123 275.225 35.521873Q275.225 37.521873 274.63126 38.678123Q274.0375 39.81875 272.88126 40.459373Q271.74063 41.084373 270.38126 41.084373Q268.19376 41.084373 266.85 39.69375Q265.52188 38.2875 265.52188 35.6625ZM267.31876 35.6625Q267.31876 37.6625 268.17813 38.646873Q269.05313 39.63125 270.38126 39.63125Q271.69376 39.63125 272.55313 38.646873Q273.42813 37.646873 273.42813 35.6Q273.42813 33.678123 272.55313 32.69375Q271.67813 31.693748 270.38126 31.693748Q269.05313 31.693748 268.17813 32.69375Q267.31876 33.678123 267.31876 35.6625ZM277.14688 40.85L277.14688 30.474998L278.725 30.474998L278.725 32.053123Q279.33438 30.943748 279.85 30.599998Q280.36563 30.240623 280.975 30.240623Q281.86563 30.240623 282.7875 30.803123L282.17813 32.44375Q281.5375 32.053123 280.89688 32.053123Q280.31876 32.053123 279.85 32.4125Q279.39688 32.75625 279.19376 33.365623Q278.9125 34.303123 278.9125 35.4125L278.9125 40.85L277.14688 40.85ZM291.27188 37.50625L293.08438 37.740623Q292.6625 39.31875 291.49063 40.209373Q290.33438 41.084373 288.52188 41.084373Q286.25626 41.084373 284.9125 39.69375Q283.58438 38.2875 283.58438 35.75625Q283.58438 33.13125 284.92813 31.693748Q286.27188 30.240623 288.42813 30.240623Q290.50626 30.240623 291.81876 31.662498Q293.14688 33.06875 293.14688 35.646873Q293.14688 35.803123 293.13126 36.115623L285.39688 36.115623Q285.49063 37.81875 286.36563 38.725Q287.24063 39.63125 288.5375 39.63125Q289.50626 39.63125 290.17813 39.13125Q290.86563 38.615623 291.27188 37.50625ZM285.49063 34.6625L291.2875 34.6625Q291.17813 33.365623 290.63126 32.709373Q289.7875 31.693748 288.44376 31.693748Q287.24063 31.693748 286.4125 32.50625Q285.58438 33.303123 285.49063 34.6625ZM302.7875 40.85L301.1625 40.85L301.1625 26.537498L302.9125 26.537498L302.9125 31.646873Q304.0375 30.240623 305.75626 30.240623Q306.70938 30.240623 307.56876 30.631248Q308.42813 31.021873 308.975 31.724998Q309.52188 32.4125 309.83438 33.396873Q310.14688 34.38125 310.14688 35.50625Q310.14688 38.178123 308.83438 39.63125Q307.52188 41.084373 305.67813 41.084373Q303.83438 41.084373 302.7875 39.553123L302.7875 40.85ZM302.77188 35.584373Q302.77188 37.44375 303.27188 38.2875Q304.11563 39.63125 305.52188 39.63125Q306.67813 39.63125 307.50626 38.63125Q308.35 37.63125 308.35 35.646873Q308.35 33.615623 307.5375 32.6625Q306.74063 31.693748 305.6 31.693748Q304.44376 31.693748 303.6 32.69375Q302.77188 33.69375 302.77188 35.584373ZM312.08438 44.85L311.89688 43.19375Q312.475 43.35 312.89688 43.35Q313.49063 43.35 313.83438 43.146873Q314.19376 42.959373 314.4125 42.615623Q314.58438 42.35 314.95938 41.303123Q315.00626 41.146873 315.11563 40.865623L311.17813 30.474998L313.06876 30.474998L315.225 36.490623Q315.64688 37.63125 315.975 38.88125Q316.2875 37.678123 316.69376 36.521873L318.9125 30.474998L320.67813 30.474998L316.725 41.021873Q316.1 42.740623 315.74063 43.38125Q315.27188 44.25625 314.6625 44.646873Q314.06876 45.053123 313.225 45.053123Q312.70938 45.053123 312.08438 44.85ZM334.94376 39.56875Q333.95938 40.396873 333.05313 40.740623Q332.14688 41.084373 331.11563 41.084373Q329.4125 41.084373 328.49063 40.25625Q327.56876 39.4125 327.56876 38.115623Q327.56876 37.35 327.9125 36.725Q328.27188 36.1 328.83438 35.725Q329.39688 35.334373 330.1 35.13125Q330.61563 35.00625 331.6625 34.865623Q333.7875 34.615623 334.7875 34.271873Q334.80313 33.9125 334.80313 33.803123Q334.80313 32.740623 334.30313 32.2875Q333.63126 31.693748 332.30313 31.693748Q331.05313 31.693748 330.45938 32.13125Q329.88126 32.56875 329.6 33.678123L327.88126 33.44375Q328.11563 32.334373 328.64688 31.662498Q329.17813 30.974998 330.19376 30.615623Q331.20938 30.240623 332.55313 30.240623Q333.88126 30.240623 334.70938 30.553123Q335.5375 30.865623 335.92813 31.349998Q336.31876 31.818748 336.475 32.5375Q336.56876 32.990623 336.56876 34.1625L336.56876 36.50625Q336.56876 38.959373 336.67813 39.615623Q336.7875 40.25625 337.13126 40.85L335.2875 40.85Q335.02188 40.303123 334.94376 39.56875ZM334.7875 35.646873Q333.83438 36.0375 331.9125 36.303123Q330.83438 36.459373 330.38126 36.6625Q329.94376 36.85 329.69376 37.225Q329.44376 37.6 329.44376 38.06875Q329.44376 38.771873 329.975 39.240623Q330.50626 39.709373 331.5375 39.709373Q332.55313 39.709373 333.33438 39.271873Q334.13126 38.81875 334.50626 38.053123Q334.7875 37.44375 334.7875 36.2875L334.7875 35.646873ZM339.13126 40.85L339.13126 26.537498L340.88126 26.537498L340.88126 40.85L339.13126 40.85ZM342.85 41.709373L344.55313 41.959373Q344.6625 42.75625 345.14688 43.115623Q345.80313 43.6 346.94376 43.6Q348.1625 43.6 348.81876 43.115623Q349.49063 42.63125 349.725 41.75625Q349.86563 41.209373 349.85 39.490623Q348.69376 40.85 346.975 40.85Q344.83438 40.85 343.6625 39.303123Q342.49063 37.75625 342.49063 35.6Q342.49063 34.115623 343.02188 32.865623Q343.56876 31.615623 344.58438 30.928123Q345.61563 30.240623 346.99063 30.240623Q348.81876 30.240623 350.02188 31.724998L350.02188 30.474998L351.63126 30.474998L351.63126 39.44375Q351.63126 41.865623 351.13126 42.865623Q350.64688 43.88125 349.56876 44.459373Q348.50626 45.053123 346.94376 45.053123Q345.1 45.053123 343.94376 44.225Q342.80313 43.396873 342.85 41.709373ZM344.30313 35.475Q344.30313 37.521873 345.11563 38.459373Q345.92813 39.396873 347.14688 39.396873Q348.35 39.396873 349.1625 38.459373Q349.99063 37.521873 349.99063 35.5375Q349.99063 33.63125 349.14688 32.6625Q348.30313 31.693748 347.11563 31.693748Q345.94376 31.693748 345.11563 32.646873Q344.30313 33.6 344.30313 35.475ZM353.52188 35.6625Q353.52188 32.7875 355.11563 31.396873Q356.45938 30.240623 358.38126 30.240623Q360.52188 30.240623 361.86563 31.646873Q363.225 33.053123 363.225 35.521873Q363.225 37.521873 362.63126 38.678123Q362.0375 39.81875 360.88126 40.459373Q359.74063 41.084373 358.38126 41.084373Q356.19376 41.084373 354.85 39.69375Q353.52188 38.2875 353.52188 35.6625ZM355.31876 35.6625Q355.31876 37.6625 356.17813 38.646873Q357.05313 39.63125 358.38126 39.63125Q359.69376 39.63125 360.55313 38.646873Q361.42813 37.646873 361.42813 35.6Q361.42813 33.678123 360.55313 32.69375Q359.67813 31.693748 358.38126 31.693748Q357.05313 31.693748 356.17813 32.69375Q355.31876 33.678123 355.31876 35.6625ZM365.14688 40.85L365.14688 30.474998L366.725 30.474998L366.725 32.053123Q367.33438 30.943748 367.85 30.599998Q368.36563 30.240623 368.975 30.240623Q369.86563 30.240623 370.7875 30.803123L370.17813 32.44375Q369.5375 32.053123 368.89688 32.053123Q368.31876 32.053123 367.85 32.4125Q367.39688 32.75625 367.19376 33.365623Q366.9125 34.303123 366.9125 35.4125L366.9125 40.85L365.14688 40.85ZM372.17813 28.553123L372.17813 26.537498L373.94376 26.537498L373.94376 28.553123L372.17813 28.553123ZM372.17813 40.85L372.17813 30.474998L373.94376 30.474998L373.94376 40.85L372.17813 40.85ZM380.00626 39.271873L380.25626 40.834373Q379.52188 40.990623 378.92813 40.990623Q377.975 40.990623 377.44376 40.69375Q376.92813 40.38125 376.70938 39.896873Q376.49063 39.396873 376.49063 37.81875L376.49063 31.849998L375.20938 31.849998L375.20938 30.474998L376.49063 30.474998L376.49063 27.912498L378.24063 26.849998L378.24063 30.474998L380.00626 30.474998L380.00626 31.849998L378.24063 31.849998L378.24063 37.9125Q378.24063 38.6625 378.33438 38.88125Q378.42813 39.084373 378.63126 39.225Q378.85 39.35 379.24063 39.35Q379.52188 39.35 380.00626 39.271873ZM382.1625 40.85L382.1625 26.537498L383.92813 26.537498L383.92813 31.662498Q385.1625 30.240623 387.0375 30.240623Q388.17813 30.240623 389.02188 30.693748Q389.88126 31.146873 390.24063 31.959373Q390.61563 32.75625 390.61563 34.271873L390.61563 40.85L388.86563 40.85L388.86563 34.271873Q388.86563 32.959373 388.2875 32.365623Q387.70938 31.756248 386.67813 31.756248Q385.89688 31.756248 385.19376 32.1625Q384.50626 32.56875 384.20938 33.271873Q383.92813 33.959373 383.92813 35.178123L383.92813 40.85L382.1625 40.85ZM392.1625 40.85L392.1625 30.474998L393.74063 30.474998L393.74063 31.928123Q394.225 31.178123 395.0375 30.709373Q395.85 30.240623 396.88126 30.240623Q398.0375 30.240623 398.77188 30.724998Q399.50626 31.193748 399.81876 32.053123Q401.05313 30.240623 403.02188 30.240623Q404.56876 30.240623 405.39688 31.099998Q406.225 31.959373 406.225 33.725L406.225 40.85L404.475 40.85L404.475 34.31875Q404.475 33.25625 404.30313 32.803123Q404.13126 32.334373 403.67813 32.053123Q403.24063 31.771873 402.63126 31.771873Q401.5375 31.771873 400.80313 32.50625Q400.08438 33.225 400.08438 34.81875L400.08438 40.85L398.33438 40.85L398.33438 34.115623Q398.33438 32.94375 397.89688 32.365623Q397.475 31.771873 396.49063 31.771873Q395.75626 31.771873 395.11563 32.1625Q394.49063 32.553123 394.20938 33.303123Q393.92813 34.053123 393.92813 35.475L393.92813 40.85L392.1625 40.85Z" fill-rule="nonzero"/></svg>