<svg version="1.1" viewBox="0.0 0.0 922.0 462.0" fill="none" stroke="none" stroke-linecap="square" stroke-miterlimit="10" width="922" height="462" xmlns:xlink="http://www.w3.org/1999/xlink" xmlns="http://www.w3.org/2000/svg"><path fill="#ffffff" d="M0 0L922.0 0L922.0 462.0L0 462.0L0 0Z" fill-rule="nonzero"/><path stroke="#333333" stroke-width="1.0" stroke-linecap="butt" d="M50.5 418.5L898.5 418.5" fill-rule="nonzero"/><path stroke="#cccccc" stroke-width="1.0" stroke-linecap="butt" d="M50.5 391.5L898.5 391.5" fill-rule="nonzero"/><path stroke="#cccccc" stroke-width="1.0" stroke-linecap="butt" d="M50.5 363.5L898.5 363.5" fill-rule="nonzero"/><path stroke="#cccccc" stroke-width="1.0" stroke-linecap="butt" d="M50.5 335.5L898.5 335.5" fill-rule="nonzero"/><path stroke="#cccccc" stroke-width="1.0" stroke-linecap="butt" d="M50.5 308.5L898.5 308.5" fill-rule="nonzero"/><path stroke="#cccccc" stroke-width="1.0" stroke-linecap="butt" d="M50.5 280.5L898.5 280.5" fill-rule="nonzero"/><path stroke="#cccccc" stroke-width="1.0" stroke-linecap="butt" d="M50.5 253.5L898.5 253.5" fill-rule="nonzero"/><path stroke="#cccccc" stroke-width="1.0" stroke-linecap="butt" d="M50.5 225.5L898.5 225.5" fill-rule="nonzero"/><path stroke="#cccccc" stroke-width="1.0" stroke-linecap="butt" d="M50.5 197.5L898.5 197.5" fill-rule="nonzero"/><path stroke="#cccccc" stroke-width="1.0" stroke-linecap="butt" d="M50.5 170.5L898.5 170.5" fill-rule="nonzero"/><path stroke="#cccccc" stroke-width="1.0" stroke-linecap="butt" d="M50.5 142.5L898.5 142.5" fill-rule="nonzero"/><path stroke="#cccccc" stroke-width="1.0" stroke-linecap="butt" d="M50.5 114.5L898.5 114.5" fill-rule="nonzero"/><path stroke="#cccccc" stroke-width="1.0" stroke-linecap="butt" d="M50.5 87.5L898.5 87.5" fill-rule="nonzero"/><path stroke="#cccccc" stroke-width="1.0" stroke-linecap="butt" d="M50.5 59.5L898.5 59.5" fill-rule="nonzero"/><path stroke="#e6e6e6" stroke-width="1.0" stroke-linecap="butt" d="M50.5 409.5L898.5 409.5" fill-rule="nonzero"/><path stroke="#e6e6e6" stroke-width="1.0" stroke-linecap="butt" d="M50.5 400.5L898.5 400.5" fill-rule="nonzero"/><path stroke="#e6e6e6" stroke-width="1.0" stroke-linecap="butt" d="M50.5 382.5L898.5 382.5" fill-rule="nonzero"/><path stroke="#e6e6e6" stroke-width="1.0" stroke-linecap="butt" d="M50.5 372.5L898.5 372.5" fill-rule="nonzero"/><path stroke="#e6e6e6" stroke-width="1.0" stroke-linecap="butt" d="M50.5 354.5L898.5 354.5" fill-rule="nonzero"/><path stroke="#e6e6e6" stroke-width="1.0" stroke-linecap="butt" d="M50.5 345.5L898.5 345.5" fill-rule="nonzero"/><path stroke="#e6e6e6" stroke-width="1.0" stroke-linecap="butt" d="M50.5 326.5L898.5 326.5" fill-rule="nonzero"/><path stroke="#e6e6e6" stroke-width="1.0" stroke-linecap="butt" d="M50.5 317.5L898.5 317.5" fill-rule="nonzero"/><path stroke="#e6e6e6" stroke-width="1.0" stroke-linecap="butt" d="M50.5 299.5L898.5 299.5" fill-rule="nonzero"/><path stroke="#e6e6e6" stroke-width="1.0" stroke-linecap="butt" d="M50.5 289.5L898.5 289.5" fill-rule="nonzero"/><path stroke="#e6e6e6" stroke-width="1.0" stroke-linecap="butt" d="M50.5 271.5L898.5 271.5" fill-rule="nonzero"/><path stroke="#e6e6e6" stroke-width="1.0" stroke-linecap="butt" d="M50.5 262.5L898.5 262.5" fill-rule="nonzero"/><path stroke="#e6e6e6" stroke-width="1.0" stroke-linecap="butt" d="M50.5 243.5L898.5 243.5" fill-rule="nonzero"/><path stroke="#e6e6e6" stroke-width="1.0" stroke-linecap="butt" d="M50.5 234.5L898.5 234.5" fill-rule="nonzero"/><path stroke="#e6e6e6" stroke-width="1.0" stroke-linecap="butt" d="M50.5 216.5L898.5 216.5" fill-rule="nonzero"/><path stroke="#e6e6e6" stroke-width="1.0" stroke-linecap="butt" d="M50.5 206.5L898.5 206.5" fill-rule="nonzero"/><path stroke="#e6e6e6" stroke-width="1.0" stroke-linecap="butt" d="M50.5 188.5L898.5 188.5" fill-rule="nonzero"/><path stroke="#e6e6e6" stroke-width="1.0" stroke-linecap="butt" d="M50.5 179.5L898.5 179.5" fill-rule="nonzero"/><path stroke="#e6e6e6" stroke-width="1.0" stroke-linecap="butt" d="M50.5 160.5L898.5 160.5" fill-rule="nonzero"/><path stroke="#e6e6e6" stroke-width="1.0" stroke-linecap="butt" d="M50.5 151.5L898.5 151.5" fill-rule="nonzero"/><path stroke="#e6e6e6" stroke-width="1.0" stroke-linecap="butt" d="M50.5 133.5L898.5 133.5" fill-rule="nonzero"/><path stroke="#e6e6e6" stroke-width="1.0" stroke-linecap="butt" d="M50.5 124.5L898.5 124.5" fill-rule="nonzero"/><path stroke="#e6e6e6" stroke-width="1.0" stroke-linecap="butt" d="M50.5 105.5L898.5 105.5" fill-rule="nonzero"/><path stroke="#e6e6e6" stroke-width="1.0" stroke-linecap="butt" d="M50.5 96.5L898.5 96.5" fill-rule="nonzero"/><path stroke="#e6e6e6" stroke-width="1.0" stroke-linecap="butt" d="M50.5 77.5L898.5 77.5" fill-rule="nonzero"/><path stroke="#e6e6e6" stroke-width="1.0" stroke-linecap="butt" d="M50.5 68.5L898.5 68.5" fill-rule="nonzero"/><path stroke="#000000" stroke-width="1.0" stroke-linecap="butt" d="M898.5 418.5L50.5 418.5" fill-rule="nonzero"/><path stroke="#000000" stroke-width="1.0" stroke-linecap="butt" d="M50.5 418.5L50.5 59.5" fill-rule="nonzero"/><clipPath id="id_0"><path d="M50.1 59.5L898.9 59.5L898.9 418.9L50.1 418.9L50.1 59.5Z" clip-rule="nonzero"/></clipPath><path stroke="#4285f4" stroke-width="2.0" stroke-linecap="butt" clip-path="url(#id_0)" d="M156.2 170.08461L368.4 142.43846L580.6 73.323074L792.8 335.96155" fill-rule="nonzero"/><path stroke="#ea4335" stroke-width="2.0" stroke-linecap="butt" clip-path="url(#id_0)" d="M156.2 405.07693L368.4 418.9L580.6 418.9L792.8 418.9" fill-rule="nonzero"/><path stroke="#fbbc04" stroke-width="2.0" stroke-linecap="butt" clip-path="url(#id_0)" d="M156.2 418.9L368.4 405.07693L580.6 405.07693L792.8 363.6077" fill-rule="nonzero"/><path fill="#4285f4" clip-path="url(#id_0)" d="M158.2 170.08461C158.2 171.18918 157.30457 172.08461 156.2 172.08461C155.09543 172.08461 154.2 171.18918 154.2 170.08461C154.2 168.98004 155.09543 168.08461 156.2 168.08461C157.30457 168.08461 158.2 168.98004 158.2 170.08461Z" fill-rule="nonzero"/><path fill="#4285f4" clip-path="url(#id_0)" d="M370.4 142.43846C370.4 143.54303 369.50458 144.43846 368.4 144.43846C367.29544 144.43846 366.4 143.54303 366.4 142.43846C366.4 141.3339 367.29544 140.43846 368.4 140.43846C369.50458 140.43846 370.4 141.3339 370.4 142.43846Z" fill-rule="nonzero"/><path fill="#4285f4" clip-path="url(#id_0)" d="M582.6 73.323074C582.6 74.42764 581.7046 75.323074 580.6 75.323074C579.4954 75.323074 578.6 74.42764 578.6 73.323074C578.6 72.218506 579.4954 71.323074 580.6 71.323074C581.7046 71.323074 582.6 72.218506 582.6 73.323074Z" fill-rule="nonzero"/><path fill="#4285f4" clip-path="url(#id_0)" d="M794.8 335.96155C794.8 337.0661 793.90454 337.96155 792.8 337.96155C791.69543 337.96155 790.8 337.0661 790.8 335.96155C790.8 334.85696 791.69543 333.96155 792.8 333.96155C793.90454 333.96155 794.8 334.85696 794.8 335.96155Z" fill-rule="nonzero"/><path fill="#ea4335" clip-path="url(#id_0)" d="M158.2 405.07693C158.2 406.1815 157.30457 407.07693 156.2 407.07693C155.09543 407.07693 154.2 406.1815 154.2 405.07693C154.2 403.97235 155.09543 403.07693 156.2 403.07693C157.30457 403.07693 158.2 403.97235 158.2 405.07693Z" fill-rule="nonzero"/><path fill="#ea4335" clip-path="url(#id_0)" d="M370.4 418.9C370.4 420.00458 369.50458 420.9 368.4 420.9C367.29544 420.9 366.4 420.00458 366.4 418.9C366.4 417.79544 367.29544 416.9 368.4 416.9C369.50458 416.9 370.4 417.79544 370.4 418.9Z" fill-rule="nonzero"/><path fill="#ea4335" clip-path="url(#id_0)" d="M582.6 418.9C582.6 420.00458 581.7046 420.9 580.6 420.9C579.4954 420.9 578.6 420.00458 578.6 418.9C578.6 417.79544 579.4954 416.9 580.6 416.9C581.7046 416.9 582.6 417.79544 582.6 418.9Z" fill-rule="nonzero"/><path fill="#ea4335" clip-path="url(#id_0)" d="M794.8 418.9C794.8 420.00458 793.90454 420.9 792.8 420.9C791.69543 420.9 790.8 420.00458 790.8 418.9C790.8 417.79544 791.69543 416.9 792.8 416.9C793.90454 416.9 794.8 417.79544 794.8 418.9Z" fill-rule="nonzero"/><path fill="#fbbc04" clip-path="url(#id_0)" d="M158.2 418.9C158.2 420.00458 157.30457 420.9 156.2 420.9C155.09543 420.9 154.2 420.00458 154.2 418.9C154.2 417.79544 155.09543 416.9 156.2 416.9C157.30457 416.9 158.2 417.79544 158.2 418.9Z" fill-rule="nonzero"/><path fill="#fbbc04" clip-path="url(#id_0)" d="M370.4 405.07693C370.4 406.1815 369.50458 407.07693 368.4 407.07693C367.29544 407.07693 366.4 406.1815 366.4 405.07693C366.4 403.97235 367.29544 403.07693 368.4 403.07693C369.50458 403.07693 370.4 403.97235 370.4 405.07693Z" fill-rule="nonzero"/><path fill="#fbbc04" clip-path="url(#id_0)" d="M582.6 405.07693C582.6 406.1815 581.7046 407.07693 580.6 407.07693C579.4954 407.07693 578.6 406.1815 578.6 405.07693C578.6 403.97235 579.4954 403.07693 580.6 403.07693C581.7046 403.07693 582.6 403.97235 582.6 405.07693Z" fill-rule="nonzero"/><path fill="#fbbc04" clip-path="url(#id_0)" d="M794.8 363.6077C794.8 364.71225 793.90454 365.6077 792.8 365.6077C791.69543 365.6077 790.8 364.71225 790.8 363.6077C790.8 362.5031 791.69543 361.6077 792.8 361.6077C793.90454 361.6077 794.8 362.5031 794.8 363.6077Z" fill-rule="nonzero"/><path fill="#000000" d="M37.6 418.66562Q37.6 417.13437 37.9125 416.2125Q38.225 415.275 38.834373 414.775Q39.459373 414.275 40.396873 414.275Q41.084373 414.275 41.6 414.55624Q42.13125 414.8375 42.475 415.36874Q42.81875 415.88437 43.00625 416.63437Q43.19375 417.38437 43.19375 418.66562Q43.19375 420.18124 42.88125 421.10312Q42.584373 422.025 41.959373 422.54062Q41.35 423.04062 40.396873 423.04062Q39.1625 423.04062 38.44375 422.15Q37.6 421.0875 37.6 418.66562ZM38.678123 418.66562Q38.678123 420.775 39.178123 421.47812Q39.678123 422.18124 40.396873 422.18124Q41.13125 422.18124 41.615623 421.47812Q42.115623 420.775 42.115623 418.66562Q42.115623 416.54062 41.615623 415.85312Q41.13125 415.15 40.38125 415.15Q39.6625 415.15 39.225 415.75937Q38.678123 416.54062 38.678123 418.66562Z" fill-rule="nonzero"/><path fill="#000000" d="M43.146873 394.23822L43.146873 395.25385L37.459373 395.25385Q37.459373 394.87885 37.584373 394.51947Q37.803123 393.94135 38.271873 393.37885Q38.75625 392.81635 39.6625 392.08197Q41.06875 390.92572 41.553123 390.25385Q42.053123 389.58197 42.053123 388.98822Q42.053123 388.36322 41.6 387.94135Q41.146873 387.50385 40.428123 387.50385Q39.6625 387.50385 39.209373 387.95697Q38.75625 388.4101 38.740623 389.2226L37.6625 389.11322Q37.771873 387.89447 38.490623 387.26947Q39.225 386.62885 40.459373 386.62885Q41.69375 386.62885 42.4125 387.31635Q43.13125 388.00385 43.13125 389.01947Q43.13125 389.5351 42.9125 390.0351Q42.709373 390.51947 42.209373 391.08197Q41.725 391.62885 40.6 392.58197Q39.646873 393.37885 39.365623 393.67572Q39.1 393.95697 38.928123 394.23822L43.146873 394.23822Z" fill-rule="nonzero"/><path fill="#000000" d="M40.975 367.6077L40.975 365.5452L37.25625 365.5452L37.25625 364.57645L41.178123 359.01395L42.0375 359.01395L42.0375 364.57645L43.19375 364.57645L43.19375 365.5452L42.0375 365.5452L42.0375 367.6077L40.975 367.6077ZM40.975 364.57645L40.975 360.71707L38.2875 364.57645L40.975 364.57645Z" fill-rule="nonzero"/><path fill="#000000" d="M43.06875 333.47717L42.021873 333.5553Q41.88125 332.9303 41.63125 332.64905Q41.19375 332.19592 40.56875 332.19592Q40.06875 332.19592 39.678123 332.47717Q39.19375 332.85217 38.896873 333.5553Q38.615623 334.2428 38.6 335.52405Q38.975 334.94592 39.521873 334.66467Q40.084373 334.38342 40.69375 334.38342Q41.740623 334.38342 42.475 335.16467Q43.225 335.94592 43.225 337.16467Q43.225 337.97717 42.865623 338.6803Q42.521873 339.3678 41.9125 339.7428Q41.303123 340.10217 40.5375 340.10217Q39.209373 340.10217 38.38125 339.13342Q37.553123 338.16467 37.553123 335.94592Q37.553123 333.44592 38.475 332.32092Q39.271873 331.33655 40.63125 331.33655Q41.646873 331.33655 42.2875 331.91467Q42.94375 332.47717 43.06875 333.47717ZM38.771873 337.1803Q38.771873 337.72717 38.990623 338.22717Q39.225 338.71155 39.63125 338.97717Q40.053123 339.2428 40.521873 339.2428Q41.178123 339.2428 41.6625 338.71155Q42.146873 338.16467 42.146873 337.2428Q42.146873 336.35217 41.6625 335.83655Q41.19375 335.32092 40.475 335.32092Q39.75625 335.32092 39.25625 335.83655Q38.771873 336.35217 38.771873 337.1803Z" fill-rule="nonzero"/><path fill="#000000" d="M39.225 307.65915Q38.56875 307.40915 38.240623 306.97165Q37.928123 306.51852 37.928123 305.90915Q37.928123 304.97165 38.6 304.33102Q39.2875 303.6904 40.396873 303.6904Q41.521873 303.6904 42.209373 304.34665Q42.896873 305.0029 42.896873 305.9404Q42.896873 306.53415 42.584373 306.97165Q42.271873 307.40915 41.63125 307.65915Q42.428123 307.90915 42.834373 308.48727Q43.240623 309.0654 43.240623 309.86227Q43.240623 310.95602 42.459373 311.70602Q41.69375 312.45602 40.4125 312.45602Q39.146873 312.45602 38.365623 311.70602Q37.584373 310.95602 37.584373 309.83102Q37.584373 308.98727 38.00625 308.42477Q38.44375 307.86227 39.225 307.65915ZM39.00625 305.86227Q39.00625 306.47165 39.396873 306.86227Q39.803123 307.2529 40.428123 307.2529Q41.0375 307.2529 41.428123 306.8779Q41.81875 306.48727 41.81875 305.92477Q41.81875 305.34665 41.4125 304.95602Q41.00625 304.54977 40.4125 304.54977Q39.803123 304.54977 39.396873 304.9404Q39.00625 305.33102 39.00625 305.86227ZM38.678123 309.83102Q38.678123 310.28415 38.88125 310.70602Q39.1 311.1279 39.521873 311.36227Q39.94375 311.59665 40.428123 311.59665Q41.178123 311.59665 41.6625 311.11227Q42.1625 310.6279 42.1625 309.8779Q42.1625 309.11227 41.6625 308.61227Q41.1625 308.11227 40.396873 308.11227Q39.646873 308.11227 39.1625 308.61227Q38.678123 309.09665 38.678123 309.83102Z" fill-rule="nonzero"/><path fill="#000000" d="M34.56875 284.66922L33.521873 284.66922L33.521873 277.95047Q33.13125 278.30984 32.50625 278.68484Q31.896875 279.04422 31.4125 279.2161L31.4125 278.20047Q32.2875 277.7786 32.94375 277.20047Q33.615623 276.60672 33.896873 276.04422L34.56875 276.04422L34.56875 284.66922ZM37.6 280.43484Q37.6 278.9036 37.9125 277.98172Q38.225 277.04422 38.834373 276.54422Q39.459373 276.04422 40.396873 276.04422Q41.084373 276.04422 41.6 276.32547Q42.13125 276.60672 42.475 277.13797Q42.81875 277.6536 43.00625 278.4036Q43.19375 279.1536 43.19375 280.43484Q43.19375 281.95047 42.88125 282.87234Q42.584373 283.79422 41.959373 284.30984Q41.35 284.80984 40.396873 284.80984Q39.1625 284.80984 38.44375 283.91922Q37.6 282.85672 37.6 280.43484ZM38.678123 280.43484Q38.678123 282.54422 39.178123 283.24734Q39.678123 283.95047 40.396873 283.95047Q41.13125 283.95047 41.615623 283.24734Q42.115623 282.54422 42.115623 280.43484Q42.115623 278.30984 41.615623 277.62234Q41.13125 276.91922 40.38125 276.91922Q39.6625 276.91922 39.225 277.5286Q38.678123 278.30984 38.678123 280.43484Z" fill-rule="nonzero"/><path fill="#000000" d="M34.56875 257.02307L33.521873 257.02307L33.521873 250.30432Q33.13125 250.6637 32.50625 251.0387Q31.896875 251.39807 31.4125 251.56995L31.4125 250.55432Q32.2875 250.13245 32.94375 249.55432Q33.615623 248.96057 33.896873 248.39807L34.56875 248.39807L34.56875 257.02307ZM43.146873 256.00745L43.146873 257.02307L37.459373 257.02307Q37.459373 256.64807 37.584373 256.2887Q37.803123 255.71057 38.271873 255.14807Q38.75625 254.58557 39.6625 253.8512Q41.06875 252.69495 41.553123 252.02307Q42.053123 251.3512 42.053123 250.75745Q42.053123 250.13245 41.6 249.71057Q41.146873 249.27307 40.428123 249.27307Q39.6625 249.27307 39.209373 249.7262Q38.75625 250.17932 38.740623 250.99182L37.6625 250.88245Q37.771873 249.6637 38.490623 249.0387Q39.225 248.39807 40.459373 248.39807Q41.69375 248.39807 42.4125 249.08557Q43.13125 249.77307 43.13125 250.7887Q43.13125 251.30432 42.9125 251.80432Q42.709373 252.2887 42.209373 252.8512Q41.725 253.39807 40.6 254.3512Q39.646873 255.14807 39.365623 255.44495Q39.1 255.7262 38.928123 256.00745L43.146873 256.00745Z" fill-rule="nonzero"/><path fill="#000000" d="M34.56875 229.37692L33.521873 229.37692L33.521873 222.65817Q33.13125 223.01755 32.50625 223.39255Q31.896875 223.75192 31.4125 223.9238L31.4125 222.90817Q32.2875 222.4863 32.94375 221.90817Q33.615623 221.31442 33.896873 220.75192L34.56875 220.75192L34.56875 229.37692ZM40.975 229.37692L40.975 227.31442L37.25625 227.31442L37.25625 226.34567L41.178123 220.78317L42.0375 220.78317L42.0375 226.34567L43.19375 226.34567L43.19375 227.31442L42.0375 227.31442L42.0375 229.37692L40.975 229.37692ZM40.975 226.34567L40.975 222.4863L38.2875 226.34567L40.975 226.34567Z" fill-rule="nonzero"/><path fill="#000000" d="M34.56875 201.73077L33.521873 201.73077L33.521873 195.01202Q33.13125 195.3714 32.50625 195.7464Q31.896875 196.10577 31.4125 196.27765L31.4125 195.26202Q32.2875 194.84015 32.94375 194.26202Q33.615623 193.66827 33.896873 193.10577L34.56875 193.10577L34.56875 201.73077ZM43.06875 195.2464L42.021873 195.32452Q41.88125 194.69952 41.63125 194.41827Q41.19375 193.96515 40.56875 193.96515Q40.06875 193.96515 39.678123 194.2464Q39.19375 194.6214 38.896873 195.32452Q38.615623 196.01202 38.6 197.29327Q38.975 196.71515 39.521873 196.4339Q40.084373 196.15265 40.69375 196.15265Q41.740623 196.15265 42.475 196.9339Q43.225 197.71515 43.225 198.9339Q43.225 199.7464 42.865623 200.44952Q42.521873 201.13702 41.9125 201.51202Q41.303123 201.8714 40.5375 201.8714Q39.209373 201.8714 38.38125 200.90265Q37.553123 199.9339 37.553123 197.71515Q37.553123 195.21515 38.475 194.09015Q39.271873 193.10577 40.63125 193.10577Q41.646873 193.10577 42.2875 193.6839Q42.94375 194.2464 43.06875 195.2464ZM38.771873 198.94952Q38.771873 199.4964 38.990623 199.9964Q39.225 200.48077 39.63125 200.7464Q40.053123 201.01202 40.521873 201.01202Q41.178123 201.01202 41.6625 200.48077Q42.146873 199.9339 42.146873 199.01202Q42.146873 198.1214 41.6625 197.60577Q41.19375 197.09015 40.475 197.09015Q39.75625 197.09015 39.25625 197.60577Q38.771873 198.1214 38.771873 198.94952Z" fill-rule="nonzero"/><path fill="#000000" d="M34.56875 174.08461L33.521873 174.08461L33.521873 167.36586Q33.13125 167.72523 32.50625 168.10023Q31.896875 168.45961 31.4125 168.63148L31.4125 167.61586Q32.2875 167.19398 32.94375 166.61586Q33.615623 166.02211 33.896873 165.45961L34.56875 165.45961L34.56875 174.08461ZM39.225 169.42836Q38.56875 169.17836 38.240623 168.74086Q37.928123 168.28773 37.928123 167.67836Q37.928123 166.74086 38.6 166.10023Q39.2875 165.45961 40.396873 165.45961Q41.521873 165.45961 42.209373 166.11586Q42.896873 166.77211 42.896873 167.70961Q42.896873 168.30336 42.584373 168.74086Q42.271873 169.17836 41.63125 169.42836Q42.428123 169.67836 42.834373 170.25648Q43.240623 170.83461 43.240623 171.63148Q43.240623 172.72523 42.459373 173.47523Q41.69375 174.22523 40.4125 174.22523Q39.146873 174.22523 38.365623 173.47523Q37.584373 172.72523 37.584373 171.60023Q37.584373 170.75648 38.00625 170.19398Q38.44375 169.63148 39.225 169.42836ZM39.00625 167.63148Q39.00625 168.24086 39.396873 168.63148Q39.803123 169.02211 40.428123 169.02211Q41.0375 169.02211 41.428123 168.64711Q41.81875 168.25648 41.81875 167.69398Q41.81875 167.11586 41.4125 166.72523Q41.00625 166.31898 40.4125 166.31898Q39.803123 166.31898 39.396873 166.70961Q39.00625 167.10023 39.00625 167.63148ZM38.678123 171.60023Q38.678123 172.05336 38.88125 172.47523Q39.1 172.89711 39.521873 173.13148Q39.94375 173.36586 40.428123 173.36586Q41.178123 173.36586 41.6625 172.88148Q42.1625 172.39711 42.1625 171.64711Q42.1625 170.88148 41.6625 170.38148Q41.1625 169.88148 40.396873 169.88148Q39.646873 169.88148 39.1625 170.38148Q38.678123 170.86586 38.678123 171.60023Z" fill-rule="nonzero"/><path fill="#000000" d="M36.146873 145.42284L36.146873 146.43846L30.459375 146.43846Q30.459375 146.06346 30.584375 145.70409Q30.803125 145.12596 31.271875 144.56346Q31.75625 144.00096 32.6625 143.26659Q34.06875 142.11034 34.553123 141.43846Q35.053123 140.76659 35.053123 140.17284Q35.053123 139.54784 34.6 139.12596Q34.146873 138.68846 33.428123 138.68846Q32.6625 138.68846 32.209373 139.14159Q31.75625 139.59471 31.740625 140.40721L30.6625 140.29784Q30.771875 139.07909 31.490625 138.45409Q32.225 137.81346 33.459373 137.81346Q34.69375 137.81346 35.4125 138.50096Q36.13125 139.18846 36.13125 140.20409Q36.13125 140.71971 35.9125 141.21971Q35.709373 141.70409 35.209373 142.26659Q34.725 142.81346 33.6 143.76659Q32.646873 144.56346 32.365623 144.86034Q32.1 145.14159 31.928125 145.42284L36.146873 145.42284ZM37.6 142.20409Q37.6 140.67284 37.9125 139.75096Q38.225 138.81346 38.834373 138.31346Q39.459373 137.81346 40.396873 137.81346Q41.084373 137.81346 41.6 138.09471Q42.13125 138.37596 42.475 138.90721Q42.81875 139.42284 43.00625 140.17284Q43.19375 140.92284 43.19375 142.20409Q43.19375 143.71971 42.88125 144.64159Q42.584373 145.56346 41.959373 146.07909Q41.35 146.57909 40.396873 146.57909Q39.1625 146.57909 38.44375 145.68846Q37.6 144.62596 37.6 142.20409ZM38.678123 142.20409Q38.678123 144.31346 39.178123 145.01659Q39.678123 145.71971 40.396873 145.71971Q41.13125 145.71971 41.615623 145.01659Q42.115623 144.31346 42.115623 142.20409Q42.115623 140.07909 41.615623 139.39159Q41.13125 138.68846 40.38125 138.68846Q39.6625 138.68846 39.225 139.29784Q38.678123 140.07909 38.678123 142.20409Z" fill-rule="nonzero"/><path fill="#000000" d="M36.146873 117.77668L36.146873 118.792305L30.459375 118.792305Q30.459375 118.417305 30.584375 118.05793Q30.803125 117.479805 31.271875 116.917305Q31.75625 116.354805 32.6625 115.62043Q34.06875 114.46418 34.553123 113.792305Q35.053123 113.12043 35.053123 112.52668Q35.053123 111.90168 34.6 111.479805Q34.146873 111.042305 33.428123 111.042305Q32.6625 111.042305 32.209373 111.49543Q31.75625 111.948555 31.740625 112.761055L30.6625 112.65168Q30.771875 111.43293 31.490625 110.80793Q32.225 110.167305 33.459373 110.167305Q34.69375 110.167305 35.4125 110.854805Q36.13125 111.542305 36.13125 112.55793Q36.13125 113.073555 35.9125 113.573555Q35.709373 114.05793 35.209373 114.62043Q34.725 115.167305 33.6 116.12043Q32.646873 116.917305 32.365623 117.21418Q32.1 117.49543 31.928125 117.77668L36.146873 117.77668ZM43.146873 117.77668L43.146873 118.792305L37.459373 118.792305Q37.459373 118.417305 37.584373 118.05793Q37.803123 117.479805 38.271873 116.917305Q38.75625 116.354805 39.6625 115.62043Q41.06875 114.46418 41.553123 113.792305Q42.053123 113.12043 42.053123 112.52668Q42.053123 111.90168 41.6 111.479805Q41.146873 111.042305 40.428123 111.042305Q39.6625 111.042305 39.209373 111.49543Q38.75625 111.948555 38.740623 112.761055L37.6625 112.65168Q37.771873 111.43293 38.490623 110.80793Q39.225 110.167305 40.459373 110.167305Q41.69375 110.167305 42.4125 110.854805Q43.13125 111.542305 43.13125 112.55793Q43.13125 113.073555 42.9125 113.573555Q42.709373 114.05793 42.209373 114.62043Q41.725 115.167305 40.6 116.12043Q39.646873 116.917305 39.365623 117.21418Q39.1 117.49543 38.928123 117.77668L43.146873 117.77668Z" fill-rule="nonzero"/><path fill="#000000" d="M36.146873 90.13053L36.146873 91.14616L30.459375 91.14616Q30.459375 90.77116 30.584375 90.41178Q30.803125 89.83366 31.271875 89.27116Q31.75625 88.70866 32.6625 87.97428Q34.06875 86.81803 34.553123 86.14616Q35.053123 85.47428 35.053123 84.88053Q35.053123 84.25553 34.6 83.83366Q34.146873 83.39616 33.428123 83.39616Q32.6625 83.39616 32.209373 83.84928Q31.75625 84.30241 31.740625 85.11491L30.6625 85.00553Q30.771875 83.78678 31.490625 83.16178Q32.225 82.52116 33.459373 82.52116Q34.69375 82.52116 35.4125 83.20866Q36.13125 83.89616 36.13125 84.91178Q36.13125 85.42741 35.9125 85.92741Q35.709373 86.41178 35.209373 86.97428Q34.725 87.52116 33.6 88.47428Q32.646873 89.27116 32.365623 89.56803Q32.1 89.84928 31.928125 90.13053L36.146873 90.13053ZM40.975 91.14616L40.975 89.08366L37.25625 89.08366L37.25625 88.11491L41.178123 82.55241L42.0375 82.55241L42.0375 88.11491L43.19375 88.11491L43.19375 89.08366L42.0375 89.08366L42.0375 91.14616L40.975 91.14616ZM40.975 88.11491L40.975 84.25553L38.2875 88.11491L40.975 88.11491Z" fill-rule="nonzero"/><path fill="#000000" d="M36.146873 62.484375L36.146873 63.5L30.459375 63.5Q30.459375 63.125 30.584375 62.765625Q30.803125 62.1875 31.271875 61.625Q31.75625 61.0625 32.6625 60.328125Q34.06875 59.171875 34.553123 58.5Q35.053123 57.828125 35.053123 57.234375Q35.053123 56.609375 34.6 56.1875Q34.146873 55.75 33.428123 55.75Q32.6625 55.75 32.209373 56.203125Q31.75625 56.65625 31.740625 57.46875L30.6625 57.359375Q30.771875 56.140625 31.490625 55.515625Q32.225 54.875 33.459373 54.875Q34.69375 54.875 35.4125 55.5625Q36.13125 56.25 36.13125 57.265625Q36.13125 57.78125 35.9125 58.28125Q35.709373 58.765625 35.209373 59.328125Q34.725 59.875 33.6 60.828125Q32.646873 61.625 32.365623 61.921875Q32.1 62.203125 31.928125 62.484375L36.146873 62.484375ZM43.06875 57.015625L42.021873 57.09375Q41.88125 56.46875 41.63125 56.1875Q41.19375 55.734375 40.56875 55.734375Q40.06875 55.734375 39.678123 56.015625Q39.19375 56.390625 38.896873 57.09375Q38.615623 57.78125 38.6 59.0625Q38.975 58.484375 39.521873 58.203125Q40.084373 57.921875 40.69375 57.921875Q41.740623 57.921875 42.475 58.703125Q43.225 59.484375 43.225 60.703125Q43.225 61.515625 42.865623 62.21875Q42.521873 62.90625 41.9125 63.28125Q41.303123 63.640625 40.5375 63.640625Q39.209373 63.640625 38.38125 62.671875Q37.553123 61.703125 37.553123 59.484375Q37.553123 56.984375 38.475 55.859375Q39.271873 54.875 40.63125 54.875Q41.646873 54.875 42.2875 55.453125Q42.94375 56.015625 43.06875 57.015625ZM38.771873 60.71875Q38.771873 61.265625 38.990623 61.765625Q39.225 62.25 39.63125 62.515625Q40.053123 62.78125 40.521873 62.78125Q41.178123 62.78125 41.6625 62.25Q42.146873 61.703125 42.146873 60.78125Q42.146873 59.890625 41.6625 59.375Q41.19375 58.859375 40.475 58.859375Q39.75625 58.859375 39.25625 59.375Q38.771873 59.890625 38.771873 60.71875Z" fill-rule="nonzero"/><path fill="#000000" d="M139.7625 432.88437L140.8875 433.18124Q140.52812 434.57187 139.60625 435.30624Q138.68437 436.04062 137.34062 436.04062Q135.95 436.04062 135.075 435.47812Q134.2 434.91562 133.74687 433.85312Q133.29375 432.775 133.29375 431.54062Q133.29375 430.19687 133.80937 429.19687Q134.325 428.19687 135.2625 427.68124Q136.21562 427.16562 137.35625 427.16562Q138.6375 427.16562 139.5125 427.82187Q140.40312 428.47812 140.74687 429.66562L139.62187 429.93124Q139.325 428.99374 138.74687 428.57187Q138.18437 428.13437 137.325 428.13437Q136.34062 428.13437 135.66875 428.61874Q135.0125 429.0875 134.73125 429.88437Q134.46562 430.68124 134.46562 431.54062Q134.46562 432.63437 134.77812 433.44687Q135.10625 434.25937 135.77812 434.66562Q136.45 435.07187 137.24687 435.07187Q138.2 435.07187 138.85625 434.525Q139.52812 433.97812 139.7625 432.88437ZM142.46562 435.9L142.46562 427.30624L143.52812 427.30624L143.52812 435.9L142.46562 435.9ZM149.55937 435.13437Q148.96562 435.63437 148.41875 435.8375Q147.8875 436.04062 147.2625 436.04062Q146.23125 436.04062 145.68437 435.54062Q145.1375 435.04062 145.1375 434.25937Q145.1375 433.80624 145.34062 433.43124Q145.54375 433.04062 145.8875 432.82187Q146.23125 432.5875 146.65312 432.47812Q146.95 432.38437 147.59062 432.30624Q148.85625 432.16562 149.46562 431.94687Q149.46562 431.72812 149.46562 431.68124Q149.46562 431.025 149.16875 430.75937Q148.7625 430.41562 147.96562 430.41562Q147.23125 430.41562 146.87187 430.68124Q146.5125 430.93124 146.34062 431.5875L145.30937 431.44687Q145.45 430.79062 145.77812 430.38437Q146.10625 429.97812 146.71562 429.75937Q147.325 429.54062 148.12187 429.54062Q148.91875 429.54062 149.41875 429.72812Q149.91875 429.91562 150.15312 430.19687Q150.3875 430.47812 150.48125 430.91562Q150.52812 431.18124 150.52812 431.88437L150.52812 433.29062Q150.52812 434.75937 150.59062 435.15Q150.66875 435.54062 150.87187 435.9L149.7625 435.9Q149.60625 435.57187 149.55937 435.13437ZM149.46562 432.775Q148.8875 433.00937 147.74687 433.18124Q147.09062 433.275 146.825 433.4Q146.55937 433.50937 146.40312 433.72812Q146.2625 433.94687 146.2625 434.22812Q146.2625 434.65 146.575 434.93124Q146.90312 435.2125 147.5125 435.2125Q148.12187 435.2125 148.59062 434.94687Q149.075 434.68124 149.29375 434.2125Q149.46562 433.85312 149.46562 433.16562L149.46562 432.775ZM156.575 435.9L156.575 434.97812Q155.84062 436.04062 154.59062 436.04062Q154.04375 436.04062 153.55937 435.8375Q153.09062 435.61874 152.85625 435.30624Q152.62187 434.97812 152.52812 434.50937Q152.46562 434.2125 152.46562 433.525L152.46562 429.68124L153.52812 429.68124L153.52812 433.13437Q153.52812 433.94687 153.59062 434.24374Q153.68437 434.65 153.99687 434.9Q154.325 435.13437 154.80937 435.13437Q155.27812 435.13437 155.68437 434.9Q156.10625 434.65 156.27812 434.22812Q156.46562 433.80624 156.46562 433.00937L156.46562 429.68124L157.5125 429.68124L157.5125 435.9L156.575 435.9ZM163.52812 435.9L163.52812 435.11874Q162.93437 436.04062 161.79375 436.04062Q161.04375 436.04062 160.41875 435.63437Q159.79375 435.2125 159.45 434.47812Q159.10625 433.74374 159.10625 432.79062Q159.10625 431.86874 159.41875 431.10312Q159.73125 430.3375 160.35625 429.94687Q160.98125 429.54062 161.74687 429.54062Q162.30937 429.54062 162.74687 429.775Q163.18437 430.00937 163.46562 430.38437L163.46562 427.30624L164.5125 427.30624L164.5125 435.9L163.52812 435.9ZM160.2 432.79062Q160.2 433.99374 160.7 434.5875Q161.2 435.16562 161.8875 435.16562Q162.575 435.16562 163.05937 434.60312Q163.54375 434.04062 163.54375 432.88437Q163.54375 431.60312 163.04375 431.00937Q162.55937 430.41562 161.84062 430.41562Q161.1375 430.41562 160.66875 430.99374Q160.2 431.55624 160.2 432.79062ZM170.74687 433.9L171.84062 434.025Q171.59062 434.97812 170.8875 435.50937Q170.18437 436.04062 169.10625 436.04062Q167.74687 436.04062 166.93437 435.19687Q166.1375 434.35312 166.1375 432.8375Q166.1375 431.275 166.95 430.41562Q167.7625 429.54062 169.04375 429.54062Q170.29375 429.54062 171.075 430.38437Q171.87187 431.22812 171.87187 432.775Q171.87187 432.86874 171.87187 433.05624L167.23125 433.05624Q167.29375 434.0875 167.80937 434.63437Q168.325 435.16562 169.10625 435.16562Q169.68437 435.16562 170.09062 434.86874Q170.5125 434.55624 170.74687 433.9ZM167.29375 432.19687L170.7625 432.19687Q170.7 431.4 170.37187 431.00937Q169.85625 430.4 169.05937 430.4Q168.325 430.4 167.825 430.88437Q167.34062 431.36874 167.29375 432.19687ZM173.2 433.63437L174.2625 433.49374Q174.43437 434.38437 174.87187 434.79062Q175.30937 435.18124 175.93437 435.18124Q176.68437 435.18124 177.2 434.66562Q177.71562 434.15 177.71562 433.38437Q177.71562 432.66562 177.23125 432.19687Q176.7625 431.7125 176.02812 431.7125Q175.73125 431.7125 175.27812 431.8375L175.40312 430.9Q175.5125 430.91562 175.575 430.91562Q176.24687 430.91562 176.77812 430.57187Q177.325 430.2125 177.325 429.47812Q177.325 428.9 176.93437 428.525Q176.54375 428.13437 175.91875 428.13437Q175.30937 428.13437 174.8875 428.525Q174.48125 428.91562 174.37187 429.68124L173.30937 429.49374Q173.49687 428.44687 174.18437 427.86874Q174.87187 427.275 175.8875 427.275Q176.59062 427.275 177.18437 427.5875Q177.77812 427.88437 178.09062 428.4Q178.40312 428.91562 178.40312 429.50937Q178.40312 430.05624 178.10625 430.525Q177.80937 430.97812 177.23125 431.24374Q177.98125 431.41562 178.40312 431.97812Q178.825 432.525 178.825 433.36874Q178.825 434.49374 177.99687 435.275Q177.18437 436.05624 175.93437 436.05624Q174.80937 436.05624 174.05937 435.38437Q173.30937 434.69687 173.2 433.63437Z" fill-rule="nonzero"/><path fill="#000000" d="M353.35312 432.525L353.35312 431.525L356.97812 431.50937L356.97812 434.69687Q356.15 435.36874 355.25937 435.7125Q354.36874 436.04062 353.43124 436.04062Q352.16562 436.04062 351.11874 435.50937Q350.0875 434.9625 349.55624 433.94687Q349.04062 432.91562 349.04062 431.65Q349.04062 430.38437 349.55624 429.30624Q350.0875 428.2125 351.07187 427.69687Q352.05624 427.16562 353.3375 427.16562Q354.275 427.16562 355.025 427.4625Q355.775 427.75937 356.19687 428.30624Q356.63437 428.8375 356.85312 429.7125L355.8375 429.99374Q355.63437 429.3375 355.3375 428.9625Q355.05624 428.5875 354.525 428.36874Q353.99374 428.13437 353.35312 428.13437Q352.57187 428.13437 351.99374 428.36874Q351.43124 428.60312 351.07187 428.99374Q350.72812 429.38437 350.54062 429.85312Q350.2125 430.65 350.2125 431.57187Q350.2125 432.72812 350.60312 433.50937Q351.00937 434.275 351.75937 434.65Q352.50937 435.025 353.36874 435.025Q354.10312 435.025 354.80624 434.74374Q355.50937 434.44687 355.86874 434.13437L355.86874 432.525L353.35312 432.525ZM362.44687 433.9L363.54062 434.025Q363.29062 434.97812 362.5875 435.50937Q361.88437 436.04062 360.80624 436.04062Q359.44687 436.04062 358.63437 435.19687Q357.8375 434.35312 357.8375 432.8375Q357.8375 431.275 358.65 430.41562Q359.4625 429.54062 360.74374 429.54062Q361.99374 429.54062 362.775 430.38437Q363.57187 431.22812 363.57187 432.775Q363.57187 432.86874 363.57187 433.05624L358.93124 433.05624Q358.99374 434.0875 359.50937 434.63437Q360.025 435.16562 360.80624 435.16562Q361.38437 435.16562 361.79062 434.86874Q362.2125 434.55624 362.44687 433.9ZM358.99374 432.19687L362.4625 432.19687Q362.4 431.4 362.07187 431.00937Q361.55624 430.4 360.75937 430.4Q360.025 430.4 359.525 430.88437Q359.04062 431.36874 358.99374 432.19687ZM365.19687 435.9L365.19687 429.68124L366.13437 429.68124L366.13437 430.55624Q366.43124 430.0875 366.91562 429.82187Q367.4 429.54062 368.025 429.54062Q368.7125 429.54062 369.15 429.82187Q369.60312 430.10312 369.775 430.61874Q370.525 429.54062 371.69687 429.54062Q372.63437 429.54062 373.11874 430.05624Q373.61874 430.55624 373.61874 431.63437L373.61874 435.9L372.57187 435.9L372.57187 431.97812Q372.57187 431.35312 372.4625 431.07187Q372.36874 430.79062 372.10312 430.61874Q371.8375 430.44687 371.4625 430.44687Q370.80624 430.44687 370.36874 430.88437Q369.94687 431.32187 369.94687 432.29062L369.94687 435.9L368.88437 435.9L368.88437 431.85312Q368.88437 431.15 368.61874 430.80624Q368.36874 430.44687 367.79062 430.44687Q367.3375 430.44687 366.9625 430.68124Q366.5875 430.91562 366.41562 431.36874Q366.24374 431.82187 366.24374 432.66562L366.24374 435.9L365.19687 435.9ZM376.19687 428.525L376.19687 427.30624L377.25937 427.30624L377.25937 428.525L376.19687 428.525ZM376.19687 435.9L376.19687 429.68124L377.25937 429.68124L377.25937 435.9L376.19687 435.9ZM379.19687 435.9L379.19687 429.68124L380.13437 429.68124L380.13437 430.55624Q380.82187 429.54062 382.11874 429.54062Q382.68124 429.54062 383.15 429.74374Q383.63437 429.94687 383.86874 430.275Q384.10312 430.60312 384.19687 431.04062Q384.24374 431.3375 384.24374 432.07187L384.24374 435.9L383.19687 435.9L383.19687 432.11874Q383.19687 431.4625 383.07187 431.15Q382.94687 430.8375 382.63437 430.65Q382.32187 430.44687 381.9 430.44687Q381.22812 430.44687 380.72812 430.88437Q380.24374 431.30624 380.24374 432.49374L380.24374 435.9L379.19687 435.9ZM386.19687 428.525L386.19687 427.30624L387.25937 427.30624L387.25937 428.525L386.19687 428.525ZM386.19687 435.9L386.19687 429.68124L387.25937 429.68124L387.25937 435.9L386.19687 435.9Z" fill-rule="nonzero"/><path fill="#000000" d="M568.0531 432.525L568.0531 431.525L571.6781 431.50937L571.6781 434.69687Q570.85 435.36874 569.95935 435.7125Q569.0687 436.04062 568.1312 436.04062Q566.8656 436.04062 565.8187 435.50937Q564.7875 434.9625 564.2562 433.94687Q563.7406 432.91562 563.7406 431.65Q563.7406 430.38437 564.2562 429.30624Q564.7875 428.2125 565.77185 427.69687Q566.7562 427.16562 568.0375 427.16562Q568.975 427.16562 569.725 427.4625Q570.475 427.75937 570.89685 428.30624Q571.33435 428.8375 571.5531 429.7125L570.5375 429.99374Q570.33435 429.3375 570.0375 428.9625Q569.7562 428.5875 569.225 428.36874Q568.6937 428.13437 568.0531 428.13437Q567.27185 428.13437 566.6937 428.36874Q566.1312 428.60312 565.77185 428.99374Q565.4281 429.38437 565.2406 429.85312Q564.9125 430.65 564.9125 431.57187Q564.9125 432.72812 565.3031 433.50937Q565.70935 434.275 566.45935 434.65Q567.20935 435.025 568.0687 435.025Q568.8031 435.025 569.5062 434.74374Q570.20935 434.44687 570.5687 434.13437L570.5687 432.525L568.0531 432.525ZM573.02185 435.9L573.02185 427.30624L576.27185 427.30624Q577.1156 427.30624 577.5687 427.38437Q578.20935 427.49374 578.6312 427.79062Q579.0687 428.0875 579.3187 428.61874Q579.58435 429.15 579.58435 429.79062Q579.58435 430.88437 578.8812 431.65Q578.1937 432.4 576.3656 432.4L574.1625 432.4L574.1625 435.9L573.02185 435.9ZM574.1625 431.4L576.3812 431.4Q577.4906 431.4 577.9437 430.99374Q578.4125 430.57187 578.4125 429.82187Q578.4125 429.29062 578.1312 428.91562Q577.8656 428.525 577.4281 428.4Q577.1312 428.32187 576.3656 428.32187L574.1625 428.32187L574.1625 431.4ZM583.20935 435.9L583.20935 428.32187L580.3812 428.32187L580.3812 427.30624L587.1937 427.30624L587.1937 428.32187L584.35 428.32187L584.35 435.9L583.20935 435.9ZM587.475 433.32187L587.475 432.25937L590.725 432.25937L590.725 433.32187L587.475 433.32187ZM594.975 435.9L594.975 433.8375L591.2562 433.8375L591.2562 432.86874L595.1781 427.30624L596.0375 427.30624L596.0375 432.86874L597.1937 432.86874L597.1937 433.8375L596.0375 433.8375L596.0375 435.9L594.975 435.9ZM594.975 432.86874L594.975 429.00937L592.2875 432.86874L594.975 432.86874Z" fill-rule="nonzero"/><path fill="#000000" d="M775.72186 435.9L775.72186 427.30624L776.8781 427.30624L781.39374 434.05624L781.39374 427.30624L782.4875 427.30624L782.4875 435.9L781.3156 435.9L776.8 429.15L776.8 435.9L775.72186 435.9ZM784.20624 432.79062Q784.20624 431.05624 785.15936 430.22812Q785.95624 429.54062 787.1125 429.54062Q788.39374 429.54062 789.20624 430.38437Q790.03436 431.2125 790.03436 432.69687Q790.03436 433.9 789.675 434.5875Q789.3156 435.275 788.6125 435.66562Q787.925 436.04062 787.1125 436.04062Q785.8156 436.04062 785.0031 435.2125Q784.20624 434.36874 784.20624 432.79062ZM785.28436 432.79062Q785.28436 433.97812 785.8 434.57187Q786.33124 435.16562 787.1125 435.16562Q787.90936 435.16562 788.425 434.57187Q788.9406 433.97812 788.9406 432.75937Q788.9406 431.60312 788.40936 431.00937Q787.89374 430.41562 787.1125 430.41562Q786.33124 430.41562 785.8 431.00937Q785.28436 431.5875 785.28436 432.79062ZM793.78436 435.9L797.08124 427.30624L798.3 427.30624L801.8156 435.9L800.53436 435.9L799.51874 433.29062L795.9406 433.29062L794.9875 435.9L793.78436 435.9ZM796.26874 432.36874L799.175 432.36874L798.28436 429.99374Q797.8625 428.91562 797.675 428.2125Q797.5031 429.04062 797.20624 429.85312L796.26874 432.36874ZM801.5656 435.9L801.5656 427.30624L802.6281 427.30624L802.6281 435.9L801.5656 435.9ZM804.39374 436.41562L805.425 436.57187Q805.4875 437.04062 805.78436 437.25937Q806.175 437.55624 806.84686 437.55624Q807.58124 437.55624 807.97186 437.25937Q808.3781 436.9625 808.51874 436.44687Q808.6125 436.11874 808.59686 435.0875Q807.90936 435.9 806.8781 435.9Q805.59686 435.9 804.89374 434.97812Q804.1906 434.04062 804.1906 432.75937Q804.1906 431.86874 804.5031 431.11874Q804.83124 430.35312 805.4406 429.94687Q806.05 429.54062 806.8781 429.54062Q807.9875 429.54062 808.70624 430.43124L808.70624 429.68124L809.675 429.68124L809.675 435.05624Q809.675 436.50937 809.3781 437.11874Q809.08124 437.72812 808.4406 438.07187Q807.8 438.43124 806.8625 438.43124Q805.7531 438.43124 805.0656 437.93124Q804.3781 437.43124 804.39374 436.41562ZM805.26874 432.68124Q805.26874 433.9 805.7531 434.4625Q806.2375 435.025 806.97186 435.025Q807.70624 435.025 808.1906 434.4625Q808.6906 433.9 808.6906 432.7125Q808.6906 431.57187 808.175 430.99374Q807.675 430.41562 806.95624 430.41562Q806.2531 430.41562 805.7531 430.99374Q805.26874 431.55624 805.26874 432.68124Z" fill-rule="nonzero"/><path fill="#4285f4" d="M337.5 30.1C337.5 33.413708 334.81372 36.1 331.5 36.1C328.18628 36.1 325.5 33.413708 325.5 30.1C325.5 26.786291 328.18628 24.1 331.5 24.1C334.81372 24.1 337.5 26.786291 337.5 30.1Z" fill-rule="nonzero"/><path fill="#1a1a1a" d="M346.42188 34.1L346.42188 25.506248L349.39062 25.506248Q350.39062 25.506248 350.92188 25.631248Q351.65625 25.803123 352.17188 26.240623Q352.85938 26.818748 353.1875 27.724998Q353.53125 28.615623 353.53125 29.756248Q353.53125 30.740623 353.29688 31.490623Q353.07812 32.240623 352.71875 32.740623Q352.35938 33.240623 351.92188 33.521873Q351.5 33.803123 350.90625 33.959373Q350.3125 34.1 349.53125 34.1L346.42188 34.1ZM347.5625 33.084373L349.39062 33.084373Q350.25 33.084373 350.73438 32.928123Q351.21875 32.771873 351.5 32.475Q351.90625 32.084373 352.125 31.396873Q352.35938 30.709373 352.35938 29.740623Q352.35938 28.396873 351.90625 27.678123Q351.46875 26.943748 350.84375 26.693748Q350.375 26.521873 349.375 26.521873L347.5625 26.521873L347.5625 33.084373ZM359.35938 33.334373Q358.76562 33.834373 358.21875 34.0375Q357.6875 34.240623 357.0625 34.240623Q356.03125 34.240623 355.48438 33.740623Q354.9375 33.240623 354.9375 32.459373Q354.9375 32.00625 355.14062 31.631248Q355.34375 31.240623 355.6875 31.021873Q356.03125 30.787498 356.45312 30.678123Q356.75 30.584373 357.39062 30.506248Q358.65625 30.365623 359.26562 30.146873Q359.26562 29.928123 359.26562 29.881248Q359.26562 29.224998 358.96875 28.959373Q358.5625 28.615623 357.76562 28.615623Q357.03125 28.615623 356.67188 28.881248Q356.3125 29.131248 356.14062 29.787498L355.10938 29.646873Q355.25 28.990623 355.57812 28.584373Q355.90625 28.178123 356.51562 27.959373Q357.125 27.740623 357.92188 27.740623Q358.71875 27.740623 359.21875 27.928123Q359.71875 28.115623 359.95312 28.396873Q360.1875 28.678123 360.28125 29.115623Q360.32812 29.381248 360.32812 30.084373L360.32812 31.490623Q360.32812 32.959373 360.39062 33.35Q360.46875 33.740623 360.67188 34.1L359.5625 34.1Q359.40625 33.771873 359.35938 33.334373ZM359.26562 30.974998Q358.6875 31.209373 357.54688 31.381248Q356.89062 31.474998 356.625 31.599998Q356.35938 31.709373 356.20312 31.928123Q356.0625 32.146873 356.0625 32.428123Q356.0625 32.85 356.375 33.13125Q356.70312 33.4125 357.3125 33.4125Q357.92188 33.4125 358.39062 33.146873Q358.875 32.88125 359.09375 32.4125Q359.26562 32.053123 359.26562 31.365623L359.26562 30.974998ZM362.26562 34.1L362.26562 25.506248L363.32812 25.506248L363.32812 34.1L362.26562 34.1ZM365.26562 34.1L365.26562 25.506248L366.32812 25.506248L366.32812 34.1L365.26562 34.1ZM367.875 31.521873L367.875 30.459373L371.125 30.459373L371.125 31.521873L367.875 31.521873ZM376.54688 32.1L377.64062 32.225Q377.39062 33.178123 376.6875 33.709373Q375.98438 34.240623 374.90625 34.240623Q373.54688 34.240623 372.73438 33.396873Q371.9375 32.553123 371.9375 31.037498Q371.9375 29.474998 372.75 28.615623Q373.5625 27.740623 374.84375 27.740623Q376.09375 27.740623 376.875 28.584373Q377.67188 29.428123 377.67188 30.974998Q377.67188 31.068748 377.67188 31.256248L373.03125 31.256248Q373.09375 32.2875 373.60938 32.834373Q374.125 33.365623 374.90625 33.365623Q375.48438 33.365623 375.89062 33.06875Q376.3125 32.75625 376.54688 32.1ZM373.09375 30.396873L376.5625 30.396873Q376.5 29.599998 376.17188 29.209373Q375.65625 28.599998 374.85938 28.599998Q374.125 28.599998 373.625 29.084373Q373.14062 29.568748 373.09375 30.396873Z" fill-rule="nonzero"/><path fill="#ea4335" d="M406.5 30.1C406.5 33.413708 403.81372 36.1 400.5 36.1C397.18628 36.1 394.5 33.413708 394.5 30.1C394.5 26.786291 397.18628 24.1 400.5 24.1C403.81372 24.1 406.5 26.786291 406.5 30.1Z" fill-rule="nonzero"/><path fill="#1a1a1a" d="M415.04688 31.334373L416.10938 31.240623Q416.1875 31.896873 416.46875 32.303123Q416.75 32.709373 417.32812 32.975Q417.92188 33.225 418.65625 33.225Q419.29688 33.225 419.79688 33.0375Q420.29688 32.834373 420.53125 32.50625Q420.78125 32.1625 420.78125 31.771873Q420.78125 31.365623 420.54688 31.068748Q420.3125 30.756248 419.78125 30.553123Q419.42188 30.412498 418.23438 30.131248Q417.0625 29.849998 416.59375 29.599998Q415.96875 29.271873 415.67188 28.803123Q415.375 28.318748 415.375 27.724998Q415.375 27.084373 415.73438 26.521873Q416.10938 25.943748 416.8125 25.662498Q417.53125 25.365623 418.39062 25.365623Q419.34375 25.365623 420.07812 25.678123Q420.8125 25.974998 421.20312 26.584373Q421.59375 27.178123 421.625 27.928123L420.53125 28.006248Q420.4375 27.193748 419.92188 26.787498Q419.42188 26.365623 418.4375 26.365623Q417.40625 26.365623 416.9375 26.740623Q416.46875 27.115623 416.46875 27.646873Q416.46875 28.115623 416.79688 28.412498Q417.125 28.709373 418.5 29.021873Q419.89062 29.334373 420.40625 29.568748Q421.15625 29.928123 421.51562 30.459373Q421.875 30.974998 421.875 31.678123Q421.875 32.365623 421.48438 32.975Q421.09375 33.56875 420.35938 33.9125Q419.625 34.240623 418.70312 34.240623Q417.53125 34.240623 416.73438 33.9125Q415.95312 33.56875 415.5 32.88125Q415.0625 32.19375 415.04688 31.334373ZM425.59375 33.1625L425.75 34.084373Q425.29688 34.178123 424.95312 34.178123Q424.375 34.178123 424.0625 34.00625Q423.75 33.81875 423.60938 33.521873Q423.48438 33.225 423.48438 32.271873L423.48438 28.693748L422.71875 28.693748L422.71875 27.881248L423.48438 27.881248L423.48438 26.334373L424.53125 25.709373L424.53125 27.881248L425.59375 27.881248L425.59375 28.693748L424.53125 28.693748L424.53125 32.334373Q424.53125 32.7875 424.57812 32.9125Q424.64062 33.0375 424.76562 33.115623Q424.89062 33.19375 425.125 33.19375Q425.3125 33.19375 425.59375 33.1625ZM430.35938 33.334373Q429.76562 33.834373 429.21875 34.0375Q428.6875 34.240623 428.0625 34.240623Q427.03125 34.240623 426.48438 33.740623Q425.9375 33.240623 425.9375 32.459373Q425.9375 32.00625 426.14062 31.631248Q426.34375 31.240623 426.6875 31.021873Q427.03125 30.787498 427.45312 30.678123Q427.75 30.584373 428.39062 30.506248Q429.65625 30.365623 430.26562 30.146873Q430.26562 29.928123 430.26562 29.881248Q430.26562 29.224998 429.96875 28.959373Q429.5625 28.615623 428.76562 28.615623Q428.03125 28.615623 427.67188 28.881248Q427.3125 29.131248 427.14062 29.787498L426.10938 29.646873Q426.25 28.990623 426.57812 28.584373Q426.90625 28.178123 427.51562 27.959373Q428.125 27.740623 428.92188 27.740623Q429.71875 27.740623 430.21875 27.928123Q430.71875 28.115623 430.95312 28.396873Q431.1875 28.678123 431.28125 29.115623Q431.32812 29.381248 431.32812 30.084373L431.32812 31.490623Q431.32812 32.959373 431.39062 33.35Q431.46875 33.740623 431.67188 34.1L430.5625 34.1Q430.40625 33.771873 430.35938 33.334373ZM430.26562 30.974998Q429.6875 31.209373 428.54688 31.381248Q427.89062 31.474998 427.625 31.599998Q427.35938 31.709373 427.20312 31.928123Q427.0625 32.146873 427.0625 32.428123Q427.0625 32.85 427.375 33.13125Q427.70312 33.4125 428.3125 33.4125Q428.92188 33.4125 429.39062 33.146873Q429.875 32.88125 430.09375 32.4125Q430.26562 32.053123 430.26562 31.365623L430.26562 30.974998ZM434.26562 34.1L433.28125 34.1L433.28125 25.506248L434.34375 25.506248L434.34375 28.568748Q435.01562 27.740623 436.04688 27.740623Q436.625 27.740623 437.125 27.974998Q437.64062 28.193748 437.96875 28.615623Q438.3125 29.037498 438.5 29.631248Q438.6875 30.224998 438.6875 30.896873Q438.6875 32.490623 437.89062 33.365623Q437.09375 34.240623 436.0 34.240623Q434.89062 34.240623 434.26562 33.31875L434.26562 34.1ZM434.25 30.943748Q434.25 32.053123 434.5625 32.553123Q435.0625 33.365623 435.90625 33.365623Q436.59375 33.365623 437.09375 32.771873Q437.60938 32.178123 437.60938 30.974998Q437.60938 29.756248 437.125 29.178123Q436.64062 28.599998 435.95312 28.599998Q435.26562 28.599998 434.75 29.209373Q434.25 29.803123 434.25 30.943748ZM440.26562 34.1L440.26562 25.506248L441.32812 25.506248L441.32812 34.1L440.26562 34.1ZM447.54688 32.1L448.64062 32.225Q448.39062 33.178123 447.6875 33.709373Q446.98438 34.240623 445.90625 34.240623Q444.54688 34.240623 443.73438 33.396873Q442.9375 32.553123 442.9375 31.037498Q442.9375 29.474998 443.75 28.615623Q444.5625 27.740623 445.84375 27.740623Q447.09375 27.740623 447.875 28.584373Q448.67188 29.428123 448.67188 30.974998Q448.67188 31.068748 448.67188 31.256248L444.03125 31.256248Q444.09375 32.2875 444.60938 32.834373Q445.125 33.365623 445.90625 33.365623Q446.48438 33.365623 446.89062 33.06875Q447.3125 32.75625 447.54688 32.1ZM444.09375 30.396873L447.5625 30.396873Q447.5 29.599998 447.17188 29.209373Q446.65625 28.599998 445.85938 28.599998Q445.125 28.599998 444.625 29.084373Q444.14062 29.568748 444.09375 30.396873ZM450.42188 34.1L450.42188 25.506248L453.39062 25.506248Q454.39062 25.506248 454.92188 25.631248Q455.65625 25.803123 456.17188 26.240623Q456.85938 26.818748 457.1875 27.724998Q457.53125 28.615623 457.53125 29.756248Q457.53125 30.740623 457.29688 31.490623Q457.07812 32.240623 456.71875 32.740623Q456.35938 33.240623 455.92188 33.521873Q455.5 33.803123 454.90625 33.959373Q454.3125 34.1 453.53125 34.1L450.42188 34.1ZM451.5625 33.084373L453.39062 33.084373Q454.25 33.084373 454.73438 32.928123Q455.21875 32.771873 455.5 32.475Q455.90625 32.084373 456.125 31.396873Q456.35938 30.709373 456.35938 29.740623Q456.35938 28.396873 455.90625 27.678123Q455.46875 26.943748 454.84375 26.693748Q454.375 26.521873 453.375 26.521873L451.5625 26.521873L451.5625 33.084373ZM459.29688 26.724998L459.29688 25.506248L460.35938 25.506248L460.35938 26.724998L459.29688 26.724998ZM459.29688 34.1L459.29688 27.881248L460.35938 27.881248L460.35938 34.1L459.29688 34.1ZM462.54688 34.1L462.54688 28.693748L461.60938 28.693748L461.60938 27.881248L462.54688 27.881248L462.54688 27.209373Q462.54688 26.584373 462.65625 26.287498Q462.8125 25.865623 463.1875 25.615623Q463.57812 25.365623 464.26562 25.365623Q464.71875 25.365623 465.25 25.474998L465.09375 26.381248Q464.76562 26.334373 464.46875 26.334373Q463.98438 26.334373 463.78125 26.537498Q463.59375 26.740623 463.59375 27.303123L463.59375 27.881248L464.8125 27.881248L464.8125 28.693748L463.59375 28.693748L463.59375 34.1L462.54688 34.1ZM465.54688 34.1L465.54688 28.693748L464.60938 28.693748L464.60938 27.881248L465.54688 27.881248L465.54688 27.209373Q465.54688 26.584373 465.65625 26.287498Q465.8125 25.865623 466.1875 25.615623Q466.57812 25.365623 467.26562 25.365623Q467.71875 25.365623 468.25 25.474998L468.09375 26.381248Q467.76562 26.334373 467.46875 26.334373Q466.98438 26.334373 466.78125 26.537498Q466.59375 26.740623 466.59375 27.303123L466.59375 27.881248L467.8125 27.881248L467.8125 28.693748L466.59375 28.693748L466.59375 34.1L465.54688 34.1ZM472.375 34.1L472.375 33.178123Q471.64062 34.240623 470.39062 34.240623Q469.84375 34.240623 469.35938 34.0375Q468.89062 33.81875 468.65625 33.50625Q468.42188 33.178123 468.32812 32.709373Q468.26562 32.4125 468.26562 31.724998L468.26562 27.881248L469.32812 27.881248L469.32812 31.334373Q469.32812 32.146873 469.39062 32.44375Q469.48438 32.85 469.79688 33.1Q470.125 33.334373 470.60938 33.334373Q471.07812 33.334373 471.48438 33.1Q471.90625 32.85 472.07812 32.428123Q472.26562 32.00625 472.26562 31.209373L472.26562 27.881248L473.3125 27.881248L473.3125 34.1L472.375 34.1ZM474.875 32.240623L475.90625 32.084373Q476.0 32.709373 476.39062 33.0375Q476.79688 33.365623 477.53125 33.365623Q478.25 33.365623 478.59375 33.084373Q478.95312 32.7875 478.95312 32.38125Q478.95312 32.021873 478.64062 31.818748Q478.42188 31.678123 477.5625 31.459373Q476.40625 31.162498 475.95312 30.959373Q475.51562 30.740623 475.28125 30.365623Q475.04688 29.990623 475.04688 29.521873Q475.04688 29.115623 475.23438 28.756248Q475.42188 28.396873 475.75 28.162498Q476.0 27.990623 476.42188 27.865623Q476.84375 27.740623 477.34375 27.740623Q478.0625 27.740623 478.60938 27.959373Q479.17188 28.162498 479.4375 28.521873Q479.70312 28.881248 479.79688 29.474998L478.76562 29.615623Q478.70312 29.146873 478.35938 28.881248Q478.03125 28.599998 477.40625 28.599998Q476.6875 28.599998 476.375 28.849998Q476.0625 29.084373 476.0625 29.412498Q476.0625 29.615623 476.1875 29.771873Q476.32812 29.943748 476.59375 30.053123Q476.75 30.115623 477.53125 30.318748Q478.65625 30.631248 479.09375 30.818748Q479.53125 31.006248 479.78125 31.365623Q480.03125 31.724998 480.03125 32.271873Q480.03125 32.803123 479.71875 33.271873Q479.42188 33.725 478.84375 33.990623Q478.26562 34.240623 477.53125 34.240623Q476.3125 34.240623 475.67188 33.740623Q475.04688 33.225 474.875 32.240623ZM482.29688 26.724998L482.29688 25.506248L483.35938 25.506248L483.35938 26.724998L482.29688 26.724998ZM482.29688 34.1L482.29688 27.881248L483.35938 27.881248L483.35938 34.1L482.29688 34.1ZM484.90625 30.990623Q484.90625 29.256248 485.85938 28.428123Q486.65625 27.740623 487.8125 27.740623Q489.09375 27.740623 489.90625 28.584373Q490.73438 29.412498 490.73438 30.896873Q490.73438 32.1 490.375 32.7875Q490.01562 33.475 489.3125 33.865623Q488.625 34.240623 487.8125 34.240623Q486.51562 34.240623 485.70312 33.4125Q484.90625 32.56875 484.90625 30.990623ZM485.98438 30.990623Q485.98438 32.178123 486.5 32.771873Q487.03125 33.365623 487.8125 33.365623Q488.60938 33.365623 489.125 32.771873Q489.64062 32.178123 489.64062 30.959373Q489.64062 29.803123 489.10938 29.209373Q488.59375 28.615623 487.8125 28.615623Q487.03125 28.615623 486.5 29.209373Q485.98438 29.787498 485.98438 30.990623ZM492.29688 34.1L492.29688 27.881248L493.23438 27.881248L493.23438 28.756248Q493.92188 27.740623 495.21875 27.740623Q495.78125 27.740623 496.25 27.943748Q496.73438 28.146873 496.96875 28.474998Q497.20312 28.803123 497.29688 29.240623Q497.34375 29.537498 497.34375 30.271873L497.34375 34.1L496.29688 34.1L496.29688 30.318748Q496.29688 29.662498 496.17188 29.349998Q496.04688 29.037498 495.73438 28.849998Q495.42188 28.646873 495.0 28.646873Q494.32812 28.646873 493.82812 29.084373Q493.34375 29.506248 493.34375 30.693748L493.34375 34.1L492.29688 34.1Z" fill-rule="nonzero"/><path fill="#fbbc04" d="M526.5 30.1C526.5 33.413708 523.8137 36.1 520.5 36.1C517.1863 36.1 514.5 33.413708 514.5 30.1C514.5 26.786291 517.1863 24.1 520.5 24.1C523.8137 24.1 526.5 26.786291 526.5 30.1Z" fill-rule="nonzero"/><path fill="#1a1a1a" d="M535.3906 34.1L535.3906 25.506248L537.1094 25.506248L539.1406 31.584373Q539.4219 32.44375 539.5469 32.865623Q539.6875 32.396873 540.0 31.490623L542.0625 25.506248L543.59375 25.506248L543.59375 34.1L542.5 34.1L542.5 26.912498L540.0 34.1L538.96875 34.1L536.4844 26.787498L536.4844 34.1L535.3906 34.1ZM544.2969 26.724998L544.2969 25.506248L545.3594 25.506248L545.3594 26.724998L544.2969 26.724998ZM544.2969 34.1L544.2969 27.881248L545.3594 27.881248L545.3594 34.1L544.2969 34.1ZM551.3281 34.1L551.3281 33.31875Q550.7344 34.240623 549.59375 34.240623Q548.84375 34.240623 548.21875 33.834373Q547.59375 33.4125 547.25 32.678123Q546.90625 31.943748 546.90625 30.990623Q546.90625 30.068748 547.21875 29.303123Q547.53125 28.537498 548.15625 28.146873Q548.78125 27.740623 549.5469 27.740623Q550.1094 27.740623 550.5469 27.974998Q550.9844 28.209373 551.2656 28.584373L551.2656 25.506248L552.3125 25.506248L552.3125 34.1L551.3281 34.1ZM548.0 30.990623Q548.0 32.19375 548.5 32.7875Q549.0 33.365623 549.6875 33.365623Q550.375 33.365623 550.8594 32.803123Q551.34375 32.240623 551.34375 31.084373Q551.34375 29.803123 550.84375 29.209373Q550.3594 28.615623 549.6406 28.615623Q548.9375 28.615623 548.46875 29.193748Q548.0 29.756248 548.0 30.990623ZM553.84375 31.662498L554.875 31.521873Q554.90625 32.50625 555.2344 32.865623Q555.5625 33.225 556.15625 33.225Q556.5781 33.225 556.8906 33.0375Q557.2031 32.834373 557.3125 32.50625Q557.4375 32.1625 557.4375 31.428123L557.4375 25.506248L558.5625 25.506248L558.5625 31.365623Q558.5625 32.44375 558.2969 33.0375Q558.0469 33.63125 557.4844 33.94375Q556.9219 34.240623 556.15625 34.240623Q555.03125 34.240623 554.4219 33.6Q553.8281 32.94375 553.84375 31.662498ZM559.90625 30.990623Q559.90625 29.256248 560.8594 28.428123Q561.65625 27.740623 562.8125 27.740623Q564.09375 27.740623 564.90625 28.584373Q565.7344 29.412498 565.7344 30.896873Q565.7344 32.1 565.375 32.7875Q565.0156 33.475 564.3125 33.865623Q563.625 34.240623 562.8125 34.240623Q561.5156 34.240623 560.7031 33.4125Q559.90625 32.56875 559.90625 30.990623ZM560.9844 30.990623Q560.9844 32.178123 561.5 32.771873Q562.03125 33.365623 562.8125 33.365623Q563.6094 33.365623 564.125 32.771873Q564.6406 32.178123 564.6406 30.959373Q564.6406 29.803123 564.1094 29.209373Q563.59375 28.615623 562.8125 28.615623Q562.03125 28.615623 561.5 29.209373Q560.9844 29.787498 560.9844 30.990623ZM571.375 34.1L571.375 33.178123Q570.6406 34.240623 569.3906 34.240623Q568.84375 34.240623 568.3594 34.0375Q567.8906 33.81875 567.65625 33.50625Q567.4219 33.178123 567.3281 32.709373Q567.2656 32.4125 567.2656 31.724998L567.2656 27.881248L568.3281 27.881248L568.3281 31.334373Q568.3281 32.146873 568.3906 32.44375Q568.4844 32.85 568.7969 33.1Q569.125 33.334373 569.6094 33.334373Q570.0781 33.334373 570.4844 33.1Q570.90625 32.85 571.0781 32.428123Q571.2656 32.00625 571.2656 31.209373L571.2656 27.881248L572.3125 27.881248L572.3125 34.1L571.375 34.1ZM574.28125 34.1L574.28125 27.881248L575.2344 27.881248L575.2344 28.818748Q575.59375 28.162498 575.8906 27.959373Q576.2031 27.740623 576.5781 27.740623Q577.1094 27.740623 577.65625 28.068748L577.2969 29.053123Q576.90625 28.818748 576.53125 28.818748Q576.1719 28.818748 575.8906 29.037498Q575.625 29.240623 575.5156 29.615623Q575.3281 30.178123 575.3281 30.834373L575.3281 34.1L574.28125 34.1ZM578.2969 34.1L578.2969 27.881248L579.2344 27.881248L579.2344 28.756248Q579.9219 27.740623 581.21875 27.740623Q581.78125 27.740623 582.25 27.943748Q582.7344 28.146873 582.96875 28.474998Q583.2031 28.803123 583.2969 29.240623Q583.34375 29.537498 583.34375 30.271873L583.34375 34.1L582.2969 34.1L582.2969 30.318748Q582.2969 29.662498 582.1719 29.349998Q582.0469 29.037498 581.7344 28.849998Q581.4219 28.646873 581.0 28.646873Q580.3281 28.646873 579.8281 29.084373Q579.34375 29.506248 579.34375 30.693748L579.34375 34.1L578.2969 34.1ZM589.5469 32.1L590.6406 32.225Q590.3906 33.178123 589.6875 33.709373Q588.9844 34.240623 587.90625 34.240623Q586.5469 34.240623 585.7344 33.396873Q584.9375 32.553123 584.9375 31.037498Q584.9375 29.474998 585.75 28.615623Q586.5625 27.740623 587.84375 27.740623Q589.09375 27.740623 589.875 28.584373Q590.6719 29.428123 590.6719 30.974998Q590.6719 31.068748 590.6719 31.256248L586.03125 31.256248Q586.09375 32.2875 586.6094 32.834373Q587.125 33.365623 587.90625 33.365623Q588.4844 33.365623 588.8906 33.06875Q589.3125 32.75625 589.5469 32.1ZM586.09375 30.396873L589.5625 30.396873Q589.5 29.599998 589.1719 29.209373Q588.65625 28.599998 587.8594 28.599998Q587.125 28.599998 586.625 29.084373Q586.1406 29.568748 586.09375 30.396873ZM592.25 36.490623L592.125 35.50625Q592.46875 35.6 592.7344 35.6Q593.0781 35.6 593.28125 35.475Q593.5 35.365623 593.6406 35.1625Q593.7344 34.990623 593.96875 34.365623Q593.9844 34.2875 594.0625 34.115623L591.6875 27.881248L592.8281 27.881248L594.125 31.474998Q594.375 32.1625 594.5781 32.928123Q594.7656 32.19375 595.0156 31.506248L596.34375 27.881248L597.3906 27.881248L595.03125 34.209373Q594.6406 35.225 594.4375 35.615623Q594.15625 36.146873 593.78125 36.38125Q593.4219 36.63125 592.9219 36.63125Q592.625 36.63125 592.25 36.490623Z" fill-rule="nonzero"/></svg>