<svg version="1.1" viewBox="0.0 0.0 733.0 457.0" fill="none" stroke="none" stroke-linecap="square" stroke-miterlimit="10" width="733" height="457" xmlns:xlink="http://www.w3.org/1999/xlink" xmlns="http://www.w3.org/2000/svg"><path fill="#ffffff" d="M0 0L733.0 0L733.0 457.0L0 457.0L0 0Z" fill-rule="nonzero"/><path fill="#fbbc04" d="M268.62143 47.636223C298.68094 31.36882 332.321 22.85 366.5 22.85L366.5 228.5Z" fill-rule="nonzero"/><path fill="#ea4335" d="M254.02011 56.33671C258.76523 53.236572 263.6365 50.333927 268.62143 47.636223L366.5 228.5Z" fill-rule="nonzero"/><path fill="#4285f4" d="M366.5 22.85C468.6246 22.85 555.27765 97.792885 570.0014 198.85054C584.72516 299.90817 523.0584 396.46075 425.17938 425.60062C327.30035 454.74048 222.86577 407.6384 179.9187 314.9832C136.97165 222.32799 168.52481 112.19359 254.02011 56.33671L366.5 228.5Z" fill-rule="nonzero"/><path fill="#000000" d="M412.35132 382.21576L410.60132 382.35638Q410.36694 381.32513 409.94507 380.85638Q409.22632 380.09076 408.17944 380.09076Q407.3357 380.09076 406.7107 380.5595Q405.88257 381.16888 405.3982 382.34076Q404.91382 383.497 404.8982 385.63763Q405.53882 384.6845 406.44507 384.21576Q407.36694 383.747 408.38257 383.747Q410.13257 383.747 411.36694 385.04388Q412.60132 386.32513 412.60132 388.372Q412.60132 389.73138 412.0232 390.88763Q411.44507 392.04388 410.42944 392.66888Q409.41382 393.27826 408.11694 393.27826Q405.92944 393.27826 404.53882 391.66888Q403.1482 390.04388 403.1482 386.32513Q403.1482 382.1845 404.67944 380.29388Q406.0232 378.65326 408.28882 378.65326Q409.97632 378.65326 411.05444 379.60638Q412.13257 380.54388 412.35132 382.21576ZM405.17944 388.38763Q405.17944 389.29388 405.55444 390.122Q405.94507 390.95013 406.63257 391.38763Q407.3357 391.82513 408.0857 391.82513Q409.2107 391.82513 410.00757 390.9345Q410.80444 390.02826 410.80444 388.48138Q410.80444 386.997 410.00757 386.15326Q409.22632 385.29388 408.0232 385.29388Q406.8357 385.29388 406.00757 386.15326Q405.17944 386.997 405.17944 388.38763ZM414.49194 389.71576L416.17944 389.5595Q416.3982 390.747 416.99194 391.29388Q417.60132 391.82513 418.55444 391.82513Q419.36694 391.82513 419.97632 391.46576Q420.5857 391.09076 420.97632 390.46576Q421.36694 389.84076 421.63257 388.79388Q421.8982 387.73138 421.8982 386.63763Q421.8982 386.52826 421.88257 386.29388Q421.35132 387.122 420.44507 387.65326Q419.53882 388.16888 418.4607 388.16888Q416.69507 388.16888 415.4607 386.88763Q414.22632 385.59076 414.22632 383.48138Q414.22632 381.3095 415.50757 379.98138Q416.80444 378.65326 418.72632 378.65326Q420.13257 378.65326 421.28882 379.40326Q422.44507 380.15326 423.03882 381.54388Q423.6482 382.9345 423.6482 385.57513Q423.6482 388.32513 423.03882 389.95013Q422.44507 391.57513 421.2732 392.4345Q420.10132 393.27826 418.5232 393.27826Q416.8357 393.27826 415.7732 392.34076Q414.7107 391.40326 414.49194 389.71576ZM421.69507 383.40326Q421.69507 381.88763 420.88257 380.997Q420.0857 380.10638 418.94507 380.10638Q417.7732 380.10638 416.8982 381.07513Q416.03882 382.02826 416.03882 383.54388Q416.03882 384.91888 416.85132 385.77826Q417.67944 386.622 418.8982 386.622Q420.11694 386.622 420.8982 385.77826Q421.69507 384.91888 421.69507 383.40326Z" fill-rule="nonzero"/><path fill="#000000" d="M329.9678 62.84011L328.2178 62.980736Q327.98343 61.949486 327.56155 61.480736Q326.8428 60.71511 325.79593 60.71511Q324.95218 60.71511 324.32718 61.18386Q323.49905 61.793236 323.01468 62.96511Q322.5303 64.12136 322.51468 66.261986Q323.1553 65.30886 324.06155 64.84011Q324.98343 64.37136 325.99905 64.37136Q327.74905 64.37136 328.98343 65.668236Q330.2178 66.949486 330.2178 68.99636Q330.2178 70.355736 329.63968 71.511986Q329.06155 72.668236 328.04593 73.293236Q327.0303 73.90261 325.73343 73.90261Q323.54593 73.90261 322.1553 72.293236Q320.76468 70.668236 320.76468 66.949486Q320.76468 62.80886 322.29593 60.918236Q323.63968 59.27761 325.9053 59.27761Q327.5928 59.27761 328.67093 60.230736Q329.74905 61.168236 329.9678 62.84011ZM322.79593 69.011986Q322.79593 69.918236 323.17093 70.74636Q323.56155 71.574486 324.24905 72.011986Q324.95218 72.449486 325.70218 72.449486Q326.82718 72.449486 327.62405 71.55886Q328.42093 70.65261 328.42093 69.105736Q328.42093 67.62136 327.62405 66.77761Q326.8428 65.918236 325.63968 65.918236Q324.45218 65.918236 323.62405 66.77761Q322.79593 67.62136 322.79593 69.011986Z" fill-rule="nonzero"/><path fill="#1a1a1a" d="M24.63125 44.85L24.63125 27.662498L28.053125 27.662498L32.115623 39.834373Q32.678123 41.5375 32.94375 42.38125Q33.240623 41.44375 33.85 39.615623L37.975 27.662498L41.021873 27.662498L41.021873 44.85L38.834373 44.85L38.834373 30.474998L33.85 44.85L31.7875 44.85L26.81875 30.224998L26.81875 44.85L24.63125 44.85ZM43.44375 30.099998L43.44375 27.662498L45.553123 27.662498L45.553123 30.099998L43.44375 30.099998ZM43.44375 44.85L43.44375 32.396873L45.553123 32.396873L45.553123 44.85L43.44375 44.85ZM56.50625 44.85L56.50625 43.271873Q55.31875 45.13125 53.021873 45.13125Q51.5375 45.13125 50.2875 44.31875Q49.0375 43.490623 48.35 42.021873Q47.678123 40.553123 47.678123 38.63125Q47.678123 36.771873 48.2875 35.25625Q48.9125 33.740623 50.146873 32.928123Q51.396873 32.115623 52.928123 32.115623Q54.053123 32.115623 54.928123 32.6Q55.81875 33.06875 56.365623 33.834373L56.365623 27.662498L58.459373 27.662498L58.459373 44.85L56.50625 44.85ZM49.834373 38.63125Q49.834373 41.021873 50.834373 42.209373Q51.85 43.396873 53.225 43.396873Q54.615623 43.396873 55.56875 42.271873Q56.5375 41.13125 56.5375 38.81875Q56.5375 36.25625 55.553123 35.06875Q54.56875 33.865623 53.13125 33.865623Q51.725 33.865623 50.771873 35.021873Q49.834373 36.1625 49.834373 38.63125ZM61.5375 39.975L63.6 39.69375Q63.678123 41.6625 64.33437 42.396873Q64.99062 43.115623 66.14687 43.115623Q67.00625 43.115623 67.61562 42.725Q68.24062 42.334373 68.475 41.6625Q68.70937 40.975 68.70937 39.50625L68.70937 27.662498L70.99062 27.662498L70.99062 39.38125Q70.99062 41.5375 70.45937 42.725Q69.94375 43.896873 68.80312 44.521873Q67.67812 45.146873 66.1625 45.146873Q63.896873 45.146873 62.69375 43.85Q61.490623 42.5375 61.5375 39.975ZM73.64687 38.63125Q73.64687 35.1625 75.56875 33.50625Q77.17812 32.115623 79.49062 32.115623Q82.05312 32.115623 83.67812 33.803123Q85.30312 35.490623 85.30312 38.44375Q85.30312 40.85 84.58437 42.225Q83.86562 43.6 82.49062 44.365623Q81.11562 45.13125 79.49062 45.13125Q76.86562 45.13125 75.25625 43.459373Q73.64687 41.771873 73.64687 38.63125ZM75.81875 38.63125Q75.81875 41.021873 76.85 42.209373Q77.89687 43.396873 79.49062 43.396873Q81.05312 43.396873 82.1 42.209373Q83.14687 41.00625 83.14687 38.553123Q83.14687 36.240623 82.08437 35.053123Q81.0375 33.865623 79.49062 33.865623Q77.89687 33.865623 76.85 35.053123Q75.81875 36.240623 75.81875 38.63125ZM95.58437 44.85L95.58437 43.021873Q94.13125 45.13125 91.64687 45.13125Q90.5375 45.13125 89.58437 44.709373Q88.63125 44.2875 88.1625 43.646873Q87.70937 43.00625 87.52187 42.084373Q87.38125 41.459373 87.38125 40.115623L87.38125 32.396873L89.49062 32.396873L89.49062 39.303123Q89.49062 40.959373 89.63125 41.5375Q89.81875 42.365623 90.45937 42.85Q91.11562 43.31875 92.06875 43.31875Q93.00625 43.31875 93.83437 42.834373Q94.67812 42.334373 95.02187 41.50625Q95.36562 40.6625 95.36562 39.06875L95.36562 32.396873L97.475 32.396873L97.475 44.85L95.58437 44.85ZM101.4125 44.85L101.4125 32.396873L103.30312 32.396873L103.30312 34.2875Q104.0375 32.959373 104.64687 32.5375Q105.27187 32.115623 106.00625 32.115623Q107.06875 32.115623 108.17812 32.803123L107.44375 34.75625Q106.67812 34.303123 105.89687 34.303123Q105.20937 34.303123 104.64687 34.725Q104.1 35.13125 103.86562 35.865623Q103.52187 36.990623 103.52187 38.334373L103.52187 44.85L101.4125 44.85ZM109.42812 44.85L109.42812 32.396873L111.33437 32.396873L111.33437 34.178123Q112.70937 32.115623 115.2875 32.115623Q116.4125 32.115623 117.35 32.521873Q118.30312 32.928123 118.77187 33.584373Q119.24062 34.240623 119.42812 35.146873Q119.55312 35.725 119.55312 37.19375L119.55312 44.85L117.44375 44.85L117.44375 37.271873Q117.44375 35.990623 117.19375 35.35Q116.94375 34.709373 116.31875 34.334373Q115.69375 33.94375 114.85 33.94375Q113.50625 33.94375 112.52187 34.803123Q111.5375 35.6625 111.5375 38.053123L111.5375 44.85L109.42812 44.85ZM131.95938 40.834373L134.13126 41.115623Q133.61563 43.021873 132.225 44.084373Q130.83438 45.13125 128.6625 45.13125Q125.92812 45.13125 124.31875 43.459373Q122.725 41.771873 122.725 38.725Q122.725 35.584373 124.33437 33.85Q125.95937 32.115623 128.5375 32.115623Q131.0375 32.115623 132.61563 33.81875Q134.20938 35.521873 134.20938 38.6Q134.20938 38.7875 134.19376 39.1625L124.9125 39.1625Q125.02187 41.209373 126.06875 42.303123Q127.11562 43.396873 128.67813 43.396873Q129.83438 43.396873 130.64688 42.7875Q131.475 42.178123 131.95938 40.834373ZM125.02187 37.428123L131.975 37.428123Q131.83438 35.865623 131.17813 35.06875Q130.17813 33.85 128.56876 33.85Q127.11562 33.85 126.11562 34.834373Q125.13125 35.803123 125.02187 37.428123ZM136.33438 49.646873L136.1 47.6625Q136.80313 47.85 137.31876 47.85Q138.02188 47.85 138.44376 47.615623Q138.86563 47.38125 139.13126 46.959373Q139.33438 46.646873 139.77188 45.396873Q139.83438 45.209373 139.95938 44.88125L135.24063 32.396873L137.50626 32.396873L140.1 39.615623Q140.6 40.975 141.00626 42.490623Q141.36563 41.0375 141.86563 39.6625L144.5375 32.396873L146.64688 32.396873L141.9125 45.06875Q141.14688 47.115623 140.725 47.88125Q140.1625 48.928123 139.42813 49.4125Q138.70938 49.896873 137.69376 49.896873Q137.08438 49.896873 136.33438 49.646873Z" fill-rule="nonzero"/><path fill="#9e9e9e" d="M23.990625 60.9125L23.990625 58.896873L35.115623 58.896873L35.115623 60.5375Q33.475 62.271873 31.85 65.17812Q30.240625 68.06875 29.365625 71.13125Q28.740625 73.2875 28.553125 75.85L26.396875 75.85Q26.428125 73.81875 27.178125 70.95937Q27.94375 68.08437 29.365625 65.4125Q30.803125 62.740623 32.396873 60.9125L23.990625 60.9125ZM38.0375 75.85L38.0375 73.44375L40.428123 73.44375L40.428123 75.85L38.0375 75.85ZM44.1625 71.88125L46.19375 71.69375Q46.44375 73.11562 47.1625 73.77187Q47.896873 74.4125 49.0375 74.4125Q50.00625 74.4125 50.740623 73.975Q51.475 73.52187 51.94375 72.77187Q52.4125 72.02187 52.725 70.75625Q53.053123 69.49062 53.053123 68.17812Q53.053123 68.0375 53.0375 67.75625Q52.396873 68.77187 51.303123 69.39687Q50.209373 70.02187 48.928123 70.02187Q46.803123 70.02187 45.31875 68.475Q43.85 66.92812 43.85 64.39687Q43.85 61.7875 45.38125 60.19375Q46.928123 58.6 49.25625 58.6Q50.928123 58.6 52.31875 59.50625Q53.709373 60.396873 54.428123 62.06875Q55.146873 63.740623 55.146873 66.9125Q55.146873 70.19375 54.428123 72.14687Q53.709373 74.1 52.303123 75.13125Q50.896873 76.14687 48.990623 76.14687Q46.975 76.14687 45.69375 75.02187Q44.428123 73.89687 44.1625 71.88125ZM52.803123 64.2875Q52.803123 62.475 51.834373 61.4125Q50.865623 60.35 49.50625 60.35Q48.1 60.35 47.053123 61.50625Q46.021873 62.646873 46.021873 64.475Q46.021873 66.11562 47.00625 67.14687Q47.990623 68.1625 49.44375 68.1625Q50.9125 68.1625 51.85 67.14687Q52.803123 66.11562 52.803123 64.2875ZM57.240623 62.7875Q57.240623 60.959373 58.1625 59.678123Q59.1 58.38125 60.85 58.38125Q62.475 58.38125 63.5375 59.5375Q64.6 60.678123 64.6 62.928123Q64.6 65.1 63.521873 66.2875Q62.44375 67.45937 60.88125 67.45937Q59.31875 67.45937 58.271873 66.30312Q57.240623 65.13125 57.240623 62.7875ZM60.9125 59.834373Q60.13125 59.834373 59.6 60.521873Q59.084373 61.19375 59.084373 63.00625Q59.084373 64.6625 59.615623 65.33437Q60.146873 66.00625 60.9125 66.00625Q61.709373 66.00625 62.225 65.33437Q62.75625 64.64687 62.75625 62.834373Q62.75625 61.178123 62.225 60.50625Q61.69375 59.834373 60.9125 59.834373ZM60.928123 76.49062L70.31875 58.38125L72.0375 58.38125L62.678123 76.49062L60.928123 76.49062ZM68.35 71.81875Q68.35 69.95937 69.27187 68.67812Q70.20937 67.39687 71.975 67.39687Q73.6 67.39687 74.64687 68.55312Q75.70937 69.70937 75.70937 71.94375Q75.70937 74.13125 74.63125 75.31875Q73.56875 76.49062 71.99062 76.49062Q70.42812 76.49062 69.38125 75.31875Q68.35 74.14687 68.35 71.81875ZM72.0375 68.85Q71.24062 68.85 70.70937 69.5375Q70.19375 70.20937 70.19375 72.02187Q70.19375 73.6625 70.725 74.35Q71.25625 75.02187 72.02187 75.02187Q72.83437 75.02187 73.35 74.35Q73.88125 73.6625 73.88125 71.86562Q73.88125 70.19375 73.35 69.52187Q72.81875 68.85 72.0375 68.85Z" fill-rule="nonzero"/><path stroke="#757575" stroke-width="1.0" stroke-linecap="butt" d="M22.85 52.35L154.85 52.35L318.5401 39.110695" fill-rule="nonzero"/><path fill="#9e9e9e" d="M320.5401 39.110695C320.5401 38.006123 319.64468 37.110695 318.5401 37.110695C317.43555 37.110695 316.5401 38.006123 316.5401 39.110695C316.5401 40.215263 317.43555 41.110695 318.5401 41.110695C319.64468 41.110695 320.5401 40.215263 320.5401 39.110695" fill-rule="nonzero"/><path fill="#1a1a1a" d="M23.928125 98.33437L26.06875 98.14687Q26.225 99.42812 26.771875 100.25625Q27.334375 101.08437 28.50625 101.6Q29.678125 102.1 31.146875 102.1Q32.44375 102.1 33.44375 101.725Q34.44375 101.33437 34.928123 100.6625Q35.4125 99.975 35.4125 99.17812Q35.4125 98.38125 34.94375 97.77187Q34.475 97.1625 33.396873 96.75625Q32.709373 96.49062 30.334375 95.92812Q27.975 95.35 27.021875 94.85Q25.7875 94.20937 25.178125 93.25625Q24.584375 92.2875 24.584375 91.11562Q24.584375 89.80312 25.31875 88.67812Q26.06875 87.55312 27.475 86.975Q28.896875 86.38125 30.63125 86.38125Q32.5375 86.38125 33.990623 86.99062Q35.459373 87.6 36.240623 88.80312Q37.0375 89.99062 37.084373 91.50625L34.9125 91.67812Q34.740623 90.0375 33.725 89.20937Q32.709373 88.38125 30.725 88.38125Q28.6625 88.38125 27.709375 89.14687Q26.771875 89.89687 26.771875 90.95937Q26.771875 91.88125 27.44375 92.475Q28.1 93.08437 30.865625 93.70937Q33.646873 94.33437 34.678123 94.80312Q36.178123 95.49062 36.88125 96.55312Q37.6 97.61562 37.6 98.99062Q37.6 100.36562 36.81875 101.58437Q36.0375 102.7875 34.56875 103.475Q33.1 104.14687 31.25625 104.14687Q28.928125 104.14687 27.35 103.475Q25.771875 102.7875 24.865625 101.42812Q23.975 100.05312 23.928125 98.33437ZM45.0375 101.95937L45.35 103.81875Q44.459373 104.02187 43.75625 104.02187Q42.6 104.02187 41.959373 103.6625Q41.334373 103.2875 41.06875 102.69375Q40.81875 102.1 40.81875 100.20937L40.81875 93.0375L39.271873 93.0375L39.271873 91.39687L40.81875 91.39687L40.81875 88.31875L42.9125 87.05312L42.9125 91.39687L45.0375 91.39687L45.0375 93.0375L42.9125 93.0375L42.9125 100.31875Q42.9125 101.225 43.021873 101.49062Q43.146873 101.74062 43.396873 101.89687Q43.646873 102.0375 44.115623 102.0375Q44.459373 102.0375 45.0375 101.95937ZM55.553123 102.31875Q54.38125 103.30312 53.2875 103.725Q52.209373 104.13125 50.975 104.13125Q48.928123 104.13125 47.81875 103.13125Q46.725 102.13125 46.725 100.56875Q46.725 99.64687 47.13125 98.89687Q47.553123 98.14687 48.225 97.69375Q48.896873 97.225 49.740623 96.99062Q50.365623 96.83437 51.615623 96.67812Q54.178123 96.36562 55.38125 95.94375Q55.396873 95.52187 55.396873 95.39687Q55.396873 94.11562 54.7875 93.58437Q53.990623 92.86562 52.396873 92.86562Q50.896873 92.86562 50.19375 93.39687Q49.490623 93.9125 49.146873 95.24062L47.084373 94.95937Q47.365623 93.63125 48.00625 92.81875Q48.646873 92.00625 49.865623 91.56875Q51.084373 91.11562 52.69375 91.11562Q54.2875 91.11562 55.2875 91.49062Q56.2875 91.86562 56.75625 92.44375Q57.225 93.00625 57.4125 93.88125Q57.50625 94.4125 57.50625 95.81875L57.50625 98.63125Q57.50625 101.56875 57.646873 102.35Q57.7875 103.13125 58.178123 103.85L55.975 103.85Q55.646873 103.19375 55.553123 102.31875ZM55.38125 97.6Q54.225 98.06875 51.928123 98.39687Q50.63125 98.58437 50.084373 98.81875Q49.553123 99.05312 49.25625 99.50625Q48.975 99.95937 48.975 100.50625Q48.975 101.35 49.6 101.9125Q50.240623 102.475 51.475 102.475Q52.69375 102.475 53.646873 101.94375Q54.6 101.4125 55.0375 100.49062Q55.38125 99.77187 55.38125 98.38125L55.38125 97.6ZM62.38125 103.85L60.428123 103.85L60.428123 86.6625L62.5375 86.6625L62.5375 92.80312Q63.865623 91.11562 65.94375 91.11562Q67.08437 91.11562 68.11562 91.58437Q69.14687 92.05312 69.80312 92.89687Q70.45937 93.725 70.83437 94.9125Q71.20937 96.08437 71.20937 97.44375Q71.20937 100.63125 69.63125 102.38125Q68.05312 104.13125 65.83437 104.13125Q63.63125 104.13125 62.38125 102.2875L62.38125 103.85ZM62.35 97.5375Q62.35 99.77187 62.959373 100.77187Q63.959373 102.39687 65.6625 102.39687Q67.0375 102.39687 68.0375 101.19375Q69.05312 99.99062 69.05312 97.61562Q69.05312 95.17812 68.08437 94.02187Q67.13125 92.85 65.75625 92.85Q64.36562 92.85 63.35 94.05312Q62.35 95.25625 62.35 97.5375ZM74.38125 103.85L74.38125 86.6625L76.49062 86.6625L76.49062 103.85L74.38125 103.85ZM88.95937 99.83437L91.13125 100.11562Q90.61562 102.02187 89.225 103.08437Q87.83437 104.13125 85.6625 104.13125Q82.92812 104.13125 81.31875 102.45937Q79.725 100.77187 79.725 97.725Q79.725 94.58437 81.33437 92.85Q82.95937 91.11562 85.5375 91.11562Q88.0375 91.11562 89.61562 92.81875Q91.20937 94.52187 91.20937 97.6Q91.20937 97.7875 91.19375 98.1625L81.9125 98.1625Q82.02187 100.20937 83.06875 101.30312Q84.11562 102.39687 85.67812 102.39687Q86.83437 102.39687 87.64687 101.7875Q88.475 101.17812 88.95937 99.83437ZM82.02187 96.42812L88.975 96.42812Q88.83437 94.86562 88.17812 94.06875Q87.17812 92.85 85.56875 92.85Q84.11562 92.85 83.11562 93.83437Q82.13125 94.80312 82.02187 96.42812ZM93.70937 103.85L93.70937 86.6625L99.61562 86.6625Q101.63125 86.6625 102.67812 86.9125Q104.1625 87.25625 105.19375 88.14687Q106.55312 89.2875 107.225 91.08437Q107.9125 92.86562 107.9125 95.1625Q107.9125 97.11562 107.44375 98.63125Q106.99062 100.14687 106.27187 101.14687Q105.56875 102.13125 104.70937 102.69375Q103.86562 103.25625 102.6625 103.55312Q101.45937 103.85 99.89687 103.85L93.70937 103.85ZM95.975 101.81875L99.64687 101.81875Q101.35 101.81875 102.30312 101.50625Q103.27187 101.19375 103.85 100.61562Q104.6625 99.80312 105.11562 98.44375Q105.56875 97.06875 105.56875 95.13125Q105.56875 92.42812 104.67812 90.99062Q103.7875 89.5375 102.52187 89.05312Q101.61562 88.69375 99.58437 88.69375L95.975 88.69375L95.975 101.81875ZM110.44375 89.1L110.44375 86.6625L112.55312 86.6625L112.55312 89.1L110.44375 89.1ZM110.44375 103.85L110.44375 91.39687L112.55312 91.39687L112.55312 103.85L110.44375 103.85ZM115.94375 103.85L115.94375 93.0375L114.06875 93.0375L114.06875 91.39687L115.94375 91.39687L115.94375 90.08437Q115.94375 88.81875 116.1625 88.20937Q116.45937 87.39687 117.225 86.89687Q118.00625 86.38125 119.38125 86.38125Q120.27187 86.38125 121.35 86.58437L121.0375 88.42812Q120.38125 88.30312 119.7875 88.30312Q118.83437 88.30312 118.42812 88.725Q118.0375 89.13125 118.0375 90.25625L118.0375 91.39687L120.45937 91.39687L120.45937 93.0375L118.0375 93.0375L118.0375 103.85L115.94375 103.85ZM122.94375 103.85L122.94375 93.0375L121.06875 93.0375L121.06875 91.39687L122.94375 91.39687L122.94375 90.08437Q122.94375 88.81875 123.1625 88.20937Q123.45937 87.39687 124.225 86.89687Q125.00625 86.38125 126.38125 86.38125Q127.27187 86.38125 128.35 86.58437L128.0375 88.42812Q127.38125 88.30312 126.7875 88.30312Q125.83437 88.30312 125.42812 88.725Q125.0375 89.13125 125.0375 90.25625L125.0375 91.39687L127.45937 91.39687L127.45937 93.0375L125.0375 93.0375L125.0375 103.85L122.94375 103.85ZM137.58438 103.85L137.58438 102.02187Q136.13126 104.13125 133.64688 104.13125Q132.5375 104.13125 131.58438 103.70937Q130.63126 103.2875 130.1625 102.64687Q129.70938 102.00625 129.52188 101.08437Q129.38126 100.45937 129.38126 99.11562L129.38126 91.39687L131.49063 91.39687L131.49063 98.30312Q131.49063 99.95937 131.63126 100.5375Q131.81876 101.36562 132.45938 101.85Q133.11563 102.31875 134.06876 102.31875Q135.00626 102.31875 135.83438 101.83437Q136.67813 101.33437 137.02188 100.50625Q137.36563 99.6625 137.36563 98.06875L137.36563 91.39687L139.475 91.39687L139.475 103.85L137.58438 103.85ZM142.58438 100.13125L144.67813 99.80312Q144.85 101.05312 145.64688 101.725Q146.45938 102.39687 147.89688 102.39687Q149.35 102.39687 150.05313 101.80312Q150.75626 101.20937 150.75626 100.4125Q150.75626 99.69375 150.13126 99.2875Q149.70938 99.00625 147.975 98.56875Q145.6625 97.99062 144.75626 97.56875Q143.86563 97.13125 143.39688 96.38125Q142.94376 95.61562 142.94376 94.70937Q142.94376 93.88125 143.31876 93.17812Q143.70938 92.45937 144.36563 91.99062Q144.85 91.63125 145.69376 91.38125Q146.55313 91.11562 147.52188 91.11562Q148.99063 91.11562 150.1 91.5375Q151.20938 91.95937 151.725 92.69375Q152.25626 93.4125 152.45938 94.61562L150.39688 94.89687Q150.25626 93.92812 149.58438 93.39687Q148.9125 92.85 147.67813 92.85Q146.225 92.85 145.6 93.33437Q144.975 93.81875 144.975 94.45937Q144.975 94.86562 145.24063 95.19375Q145.49063 95.5375 146.05313 95.75625Q146.36563 95.88125 147.9125 96.30312Q150.14688 96.89687 151.02188 97.2875Q151.9125 97.6625 152.4125 98.39687Q152.92813 99.11562 152.92813 100.19375Q152.92813 101.24062 152.30313 102.17812Q151.69376 103.11562 150.5375 103.63125Q149.38126 104.13125 147.9125 104.13125Q145.49063 104.13125 144.20938 103.13125Q142.94376 102.11562 142.58438 100.13125Z" fill-rule="nonzero"/><path fill="#9e9e9e" d="M31.7875 134.85L29.678125 134.85L29.678125 121.412506Q28.928125 122.131256 27.678125 122.86563Q26.44375 123.58438 25.459375 123.943756L25.459375 121.912506Q27.240625 121.08438 28.553125 119.89688Q29.88125 118.70938 30.428125 117.600006L31.7875 117.600006L31.7875 134.85ZM38.0375 134.85L38.0375 132.44376L40.428123 132.44376L40.428123 134.85L38.0375 134.85ZM43.865623 130.31876L45.975 130.0375Q46.334373 131.81876 47.209373 132.61563Q48.084373 133.4125 49.334373 133.4125Q50.81875 133.4125 51.834373 132.38126Q52.865623 131.35 52.865623 129.81876Q52.865623 128.36563 51.9125 127.42813Q50.975 126.475006 49.50625 126.475006Q48.9125 126.475006 48.021873 126.70938L48.25625 124.86563Q48.459373 124.881256 48.6 124.881256Q49.94375 124.881256 51.021873 124.17813Q52.1 123.475006 52.1 122.02188Q52.1 120.850006 51.303123 120.100006Q50.521873 119.33438 49.2875 119.33438Q48.053123 119.33438 47.225 120.11563Q46.4125 120.881256 46.178123 122.42813L44.06875 122.05313Q44.459373 119.92813 45.81875 118.77188Q47.19375 117.600006 49.240623 117.600006Q50.646873 117.600006 51.81875 118.20938Q53.00625 118.80313 53.63125 119.850006Q54.271873 120.89688 54.271873 122.068756Q54.271873 123.17813 53.6625 124.100006Q53.06875 125.006256 51.896873 125.537506Q53.428123 125.89688 54.271873 127.006256Q55.115623 128.11563 55.115623 129.77188Q55.115623 132.02188 53.475 133.6Q51.834373 135.1625 49.31875 135.1625Q47.053123 135.1625 45.553123 133.81876Q44.06875 132.45938 43.865623 130.31876ZM57.240623 121.787506Q57.240623 119.95938 58.1625 118.67813Q59.1 117.381256 60.85 117.381256Q62.475 117.381256 63.5375 118.537506Q64.6 119.67813 64.6 121.92813Q64.6 124.100006 63.521873 125.287506Q62.44375 126.45938 60.88125 126.45938Q59.31875 126.45938 58.271873 125.30313Q57.240623 124.131256 57.240623 121.787506ZM60.9125 118.83438Q60.13125 118.83438 59.6 119.52188Q59.084373 120.193756 59.084373 122.006256Q59.084373 123.662506 59.615623 124.33438Q60.146873 125.006256 60.9125 125.006256Q61.709373 125.006256 62.225 124.33438Q62.75625 123.64688 62.75625 121.83438Q62.75625 120.17813 62.225 119.506256Q61.69375 118.83438 60.9125 118.83438ZM60.928123 135.49063L70.31875 117.381256L72.0375 117.381256L62.678123 135.49063L60.928123 135.49063ZM68.35 130.81876Q68.35 128.95938 69.27187 127.67813Q70.20937 126.39688 71.975 126.39688Q73.6 126.39688 74.64687 127.55313Q75.70937 128.70938 75.70937 130.94376Q75.70937 133.13126 74.63125 134.31876Q73.56875 135.49063 71.99062 135.49063Q70.42812 135.49063 69.38125 134.31876Q68.35 133.14688 68.35 130.81876ZM72.0375 127.850006Q71.24062 127.850006 70.70937 128.5375Q70.19375 129.20938 70.19375 131.02188Q70.19375 132.6625 70.725 133.35Q71.25625 134.02188 72.02187 134.02188Q72.83437 134.02188 73.35 133.35Q73.88125 132.6625 73.88125 130.86563Q73.88125 129.19376 73.35 128.52188Q72.81875 127.850006 72.0375 127.850006Z" fill-rule="nonzero"/><path stroke="#757575" stroke-width="1.0" stroke-linecap="butt" d="M22.85 111.35L154.85 111.35L266.4943 60.668777" fill-rule="nonzero"/><path fill="#9e9e9e" d="M268.4943 60.668777C268.4943 59.564205 267.59888 58.668777 266.4943 58.668777C265.38974 58.668777 264.4943 59.564205 264.4943 60.668777C264.4943 61.773346 265.38974 62.668777 266.4943 62.668777C267.59888 62.668777 268.4943 61.773346 268.4943 60.668777" fill-rule="nonzero"/><path fill="#1a1a1a" d="M630.0094 397.15L630.0094 379.9625L635.91565 379.9625Q637.9313 379.9625 638.97815 380.2125Q640.4625 380.55624 641.4938 381.44687Q642.85315 382.5875 643.525 384.38437Q644.2125 386.16562 644.2125 388.4625Q644.2125 390.41562 643.7438 391.93124Q643.29065 393.44687 642.5719 394.44687Q641.8688 395.43124 641.0094 395.99374Q640.16565 396.55624 638.9625 396.85312Q637.7594 397.15 636.1969 397.15L630.0094 397.15ZM632.275 395.11874L635.9469 395.11874Q637.65 395.11874 638.60315 394.80624Q639.5719 394.49374 640.15 393.91562Q640.9625 393.10312 641.41565 391.74374Q641.8688 390.36874 641.8688 388.43124Q641.8688 385.72812 640.97815 384.29062Q640.0875 382.8375 638.8219 382.35312Q637.91565 381.99374 635.8844 381.99374L632.275 381.99374L632.275 395.11874ZM645.1188 397.15L651.7125 379.9625L654.16565 379.9625L661.1969 397.15L658.60315 397.15L656.60315 391.94687L649.41565 391.94687L647.525 397.15L645.1188 397.15ZM650.0719 390.0875L655.9 390.0875L654.10315 385.3375Q653.29065 383.16562 652.8844 381.775Q652.5563 383.43124 651.9625 385.05624L650.0719 390.0875ZM661.91565 397.15L661.91565 379.9625L664.1813 379.9625L664.1813 395.11874L672.65 395.11874L672.65 397.15L661.91565 397.15ZM674.91565 397.15L674.91565 379.9625L677.1813 379.9625L677.1813 395.11874L685.65 395.11874L685.65 397.15L674.91565 397.15ZM686.91565 391.99374L686.91565 389.86874L693.4 389.86874L693.4 391.99374L686.91565 391.99374ZM696.0563 397.15L696.0563 379.9625L708.47815 379.9625L708.47815 381.99374L698.3219 381.99374L698.3219 387.25937L707.8219 387.25937L707.8219 389.275L698.3219 389.275L698.3219 395.11874L708.8688 395.11874L708.8688 397.15L696.0563 397.15Z" fill-rule="nonzero"/><path fill="#9e9e9e" d="M644.4625 424.18124L646.4938 423.99374Q646.7438 425.41562 647.4625 426.07187Q648.1969 426.7125 649.3375 426.7125Q650.3063 426.7125 651.04065 426.275Q651.775 425.82187 652.2438 425.07187Q652.7125 424.32187 653.025 423.05624Q653.35315 421.79062 653.35315 420.47812Q653.35315 420.3375 653.3375 420.05624Q652.6969 421.07187 651.60315 421.69687Q650.5094 422.32187 649.22815 422.32187Q647.10315 422.32187 645.6188 420.775Q644.15 419.22812 644.15 416.69687Q644.15 414.0875 645.6813 412.49374Q647.22815 410.9 649.5563 410.9Q651.22815 410.9 652.6188 411.80624Q654.0094 412.69687 654.72815 414.36874Q655.4469 416.04062 655.4469 419.2125Q655.4469 422.49374 654.72815 424.44687Q654.0094 426.4 652.60315 427.43124Q651.1969 428.44687 649.29065 428.44687Q647.275 428.44687 645.9938 427.32187Q644.72815 426.19687 644.4625 424.18124ZM653.10315 416.5875Q653.10315 414.775 652.1344 413.7125Q651.16565 412.65 649.8063 412.65Q648.4 412.65 647.35315 413.80624Q646.3219 414.94687 646.3219 416.775Q646.3219 418.41562 647.3063 419.44687Q648.29065 420.4625 649.7438 420.4625Q651.2125 420.4625 652.15 419.44687Q653.10315 418.41562 653.10315 416.5875ZM657.15 419.68124Q657.15 416.63437 657.775 414.775Q658.4 412.91562 659.6344 411.91562Q660.8688 410.9 662.7438 410.9Q664.1344 410.9 665.16565 411.4625Q666.2125 412.00937 666.8844 413.05624Q667.5719 414.10312 667.9625 415.61874Q668.35315 417.11874 668.35315 419.68124Q668.35315 422.69687 667.72815 424.55624Q667.10315 426.41562 665.8688 427.43124Q664.6344 428.44687 662.7438 428.44687Q660.2594 428.44687 658.85315 426.66562Q657.15 424.50937 657.15 419.68124ZM659.3219 419.68124Q659.3219 423.9 660.3063 425.30624Q661.29065 426.7125 662.7438 426.7125Q664.1969 426.7125 665.1813 425.30624Q666.1813 423.9 666.1813 419.68124Q666.1813 415.43124 665.1813 414.04062Q664.1969 412.65 662.72815 412.65Q661.275 412.65 660.4 413.86874Q659.3219 415.44687 659.3219 419.68124ZM671.3375 428.15L671.3375 425.74374L673.72815 425.74374L673.72815 428.15L671.3375 428.15ZM680.4 418.8375Q679.0875 418.35312 678.4469 417.4625Q677.8219 416.57187 677.8219 415.32187Q677.8219 413.44687 679.16565 412.18124Q680.5094 410.9 682.7438 410.9Q684.9938 410.9 686.3688 412.2125Q687.7438 413.50937 687.7438 415.38437Q687.7438 416.5875 687.1188 417.47812Q686.4938 418.35312 685.2125 418.8375Q686.79065 419.35312 687.6188 420.50937Q688.4469 421.65 688.4469 423.24374Q688.4469 425.44687 686.8844 426.94687Q685.3219 428.44687 682.79065 428.44687Q680.2438 428.44687 678.6813 426.94687Q677.1188 425.43124 677.1188 423.18124Q677.1188 421.50937 677.9625 420.38437Q678.8219 419.24374 680.4 418.8375ZM679.97815 415.25937Q679.97815 416.47812 680.7594 417.25937Q681.54065 418.025 682.79065 418.025Q684.0094 418.025 684.79065 417.25937Q685.5719 416.49374 685.5719 415.36874Q685.5719 414.2125 684.7594 413.43124Q683.9625 412.63437 682.775 412.63437Q681.5719 412.63437 680.775 413.41562Q679.97815 414.18124 679.97815 415.25937ZM679.29065 423.19687Q679.29065 424.0875 679.7125 424.93124Q680.15 425.775 680.9938 426.24374Q681.8375 426.7125 682.8063 426.7125Q684.3219 426.7125 685.3063 425.74374Q686.29065 424.75937 686.29065 423.25937Q686.29065 421.74374 685.275 420.74374Q684.2594 419.74374 682.7438 419.74374Q681.2438 419.74374 680.2594 420.72812Q679.29065 421.7125 679.29065 423.19687ZM690.54065 415.0875Q690.54065 413.25937 691.4625 411.97812Q692.4 410.68124 694.15 410.68124Q695.775 410.68124 696.8375 411.8375Q697.9 412.97812 697.9 415.22812Q697.9 417.4 696.8219 418.5875Q695.7438 419.75937 694.1813 419.75937Q692.6188 419.75937 691.5719 418.60312Q690.54065 417.43124 690.54065 415.0875ZM694.2125 412.13437Q693.4313 412.13437 692.9 412.82187Q692.3844 413.49374 692.3844 415.30624Q692.3844 416.9625 692.91565 417.63437Q693.4469 418.30624 694.2125 418.30624Q695.0094 418.30624 695.525 417.63437Q696.0563 416.94687 696.0563 415.13437Q696.0563 413.47812 695.525 412.80624Q694.9938 412.13437 694.2125 412.13437ZM694.22815 428.79062L703.6188 410.68124L705.3375 410.68124L695.97815 428.79062L694.22815 428.79062ZM701.65 424.11874Q701.65 422.25937 702.5719 420.97812Q703.5094 419.69687 705.275 419.69687Q706.9 419.69687 707.9469 420.85312Q709.0094 422.00937 709.0094 424.24374Q709.0094 426.43124 707.9313 427.61874Q706.8688 428.79062 705.29065 428.79062Q703.72815 428.79062 702.6813 427.61874Q701.65 426.44687 701.65 424.11874ZM705.3375 421.15Q704.54065 421.15 704.0094 421.8375Q703.4938 422.50937 703.4938 424.32187Q703.4938 425.9625 704.025 426.65Q704.5563 427.32187 705.3219 427.32187Q706.1344 427.32187 706.65 426.65Q707.1813 425.9625 707.1813 424.16562Q707.1813 422.49374 706.65 421.82187Q706.1188 421.15 705.3375 421.15Z" fill-rule="nonzero"/><path stroke="#757575" stroke-width="1.0" stroke-linecap="butt" d="M710.15 404.65L578.15 404.65L422.24542 415.74557" fill-rule="nonzero"/><path fill="#9e9e9e" d="M424.24542 415.74557C424.24542 414.64102 423.35 413.74557 422.24542 413.74557C421.14087 413.74557 420.24542 414.64102 420.24542 415.74557C420.24542 416.85016 421.14087 417.74557 422.24542 417.74557C423.35 417.74557 424.24542 416.85016 424.24542 415.74557" fill-rule="nonzero"/></svg>