<svg version="1.1" viewBox="0.0 0.0 733.0 457.0" fill="none" stroke="none" stroke-linecap="square" stroke-miterlimit="10" width="733" height="457" xmlns:xlink="http://www.w3.org/1999/xlink" xmlns="http://www.w3.org/2000/svg"><path fill="#ffffff" d="M0 0L733.0 0L733.0 457.0L0 457.0L0 0Z" fill-rule="nonzero"/><path fill="#4285f4" d="M366.5 22.85C480.07736 22.85 572.15 114.92264 572.15 228.5L366.5 228.5Z" fill-rule="nonzero"/><path fill="#34a853" d="M215.19838 89.21704C254.1378 46.91756 309.00632 22.85 366.5 22.85L366.5 228.5Z" fill-rule="nonzero"/><path fill="#fbbc04" d="M332.65112 431.3452C258.1807 418.91827 196.50755 366.6838 171.99269 295.27444C147.47781 223.86508 164.0635 144.76433 215.19838 89.21704L366.5 228.5Z" fill-rule="nonzero"/><path fill="#ea4335" d="M572.15 228.5C572.15 288.95844 545.5463 346.354 499.41144 385.42825C453.27658 424.50247 392.28497 441.29633 332.65112 431.3452L366.5 228.5Z" fill-rule="nonzero"/><path fill="#000000" d="M476.30377 122.14935L474.53815 122.14935L474.53815 110.94623Q473.91315 111.5556 472.8819 112.16498Q471.85065 112.75873 471.02252 113.07123L471.02252 111.3681Q472.5069 110.6806 473.60065 109.69623Q474.71002 108.69623 475.16315 107.77435L476.30377 107.77435L476.30377 122.14935ZM480.9444 118.83685L482.6319 118.6806Q482.85065 119.8681 483.4444 120.41498Q484.05377 120.94623 485.0069 120.94623Q485.8194 120.94623 486.42877 120.58685Q487.03815 120.21185 487.42877 119.58685Q487.8194 118.96185 488.08502 117.91498Q488.35065 116.85248 488.35065 115.75873Q488.35065 115.64935 488.33502 115.41498Q487.80377 116.2431 486.89752 116.77435Q485.99127 117.28998 484.91315 117.28998Q483.14752 117.28998 481.91315 116.00873Q480.67877 114.71185 480.67877 112.60248Q480.67877 110.4306 481.96002 109.10248Q483.2569 107.77435 485.17877 107.77435Q486.58502 107.77435 487.74127 108.52435Q488.89752 109.27435 489.49127 110.66498Q490.10065 112.0556 490.10065 114.69623Q490.10065 117.44623 489.49127 119.07123Q488.89752 120.69623 487.72565 121.5556Q486.55377 122.39935 484.97565 122.39935Q483.28815 122.39935 482.22565 121.46185Q481.16315 120.52435 480.9444 118.83685ZM488.14752 112.52435Q488.14752 111.00873 487.33502 110.1181Q486.53815 109.22748 485.39752 109.22748Q484.22565 109.22748 483.35065 110.19623Q482.49127 111.14935 482.49127 112.66498Q482.49127 114.03998 483.30377 114.89935Q484.1319 115.7431 485.35065 115.7431Q486.5694 115.7431 487.35065 114.89935Q488.14752 114.03998 488.14752 112.52435Z" fill-rule="nonzero"/><path fill="#000000" d="M469.2142 356.19385L469.2142 357.88135L459.76108 357.88135Q459.74545 357.24072 459.9642 356.6626Q460.32358 355.69385 461.12045 354.75635Q461.91733 353.81885 463.41733 352.58447Q465.76108 350.67822 466.57358 349.56885Q467.4017 348.44385 467.4017 347.44385Q467.4017 346.39697 466.6517 345.67822Q465.9017 344.95947 464.69858 344.95947Q463.43295 344.95947 462.66733 345.7251Q461.9017 346.49072 461.9017 347.83447L460.0892 347.64697Q460.2767 345.63135 461.47983 344.56885Q462.69858 343.50635 464.74545 343.50635Q466.79233 343.50635 467.99545 344.64697Q469.19858 345.7876 469.19858 347.4751Q469.19858 348.33447 468.8392 349.17822Q468.49545 350.00635 467.68295 350.92822Q466.87045 351.83447 464.97983 353.44385Q463.38608 354.77197 462.93295 355.24072Q462.49545 355.70947 462.19858 356.19385L469.2142 356.19385ZM477.60483 357.88135L475.8392 357.88135L475.8392 346.67822Q475.2142 347.2876 474.18295 347.89697Q473.1517 348.49072 472.32358 348.80322L472.32358 347.1001Q473.80795 346.4126 474.9017 345.42822Q476.01108 344.42822 476.4642 343.50635L477.60483 343.50635L477.60483 357.88135Z" fill-rule="nonzero"/><path fill="#000000" d="M210.2669 287.12555L210.2669 288.81305L200.81378 288.81305Q200.79816 288.17242 201.0169 287.5943Q201.37628 286.62555 202.17316 285.68805Q202.97003 284.75055 204.47003 283.51617Q206.81378 281.60992 207.62628 280.50055Q208.4544 279.37555 208.4544 278.37555Q208.4544 277.32867 207.7044 276.60992Q206.9544 275.89117 205.75128 275.89117Q204.48566 275.89117 203.72003 276.6568Q202.9544 277.42242 202.9544 278.76617L201.1419 278.57867Q201.3294 276.56305 202.53253 275.50055Q203.75128 274.43805 205.79816 274.43805Q207.84503 274.43805 209.04816 275.57867Q210.25128 276.7193 210.25128 278.4068Q210.25128 279.26617 209.8919 280.10992Q209.54816 280.93805 208.73566 281.85992Q207.92316 282.76617 206.03253 284.37555Q204.43878 285.70367 203.98566 286.17242Q203.54816 286.64117 203.25128 287.12555L210.2669 287.12555ZM221.15753 278.00055L219.40753 278.14117Q219.17316 277.10992 218.75128 276.64117Q218.03253 275.87555 216.98566 275.87555Q216.1419 275.87555 215.5169 276.3443Q214.68878 276.95367 214.2044 278.12555Q213.72003 279.2818 213.7044 281.42242Q214.34503 280.4693 215.25128 280.00055Q216.17316 279.5318 217.18878 279.5318Q218.93878 279.5318 220.17316 280.82867Q221.40753 282.10992 221.40753 284.1568Q221.40753 285.51617 220.8294 286.67242Q220.25128 287.82867 219.23566 288.45367Q218.22003 289.06305 216.92316 289.06305Q214.73566 289.06305 213.34503 287.45367Q211.9544 285.82867 211.9544 282.10992Q211.9544 277.9693 213.48566 276.07867Q214.8294 274.43805 217.09503 274.43805Q218.78253 274.43805 219.86066 275.39117Q220.93878 276.32867 221.15753 278.00055ZM213.98566 284.17242Q213.98566 285.07867 214.36066 285.9068Q214.75128 286.73492 215.43878 287.17242Q216.1419 287.60992 216.8919 287.60992Q218.0169 287.60992 218.81378 286.7193Q219.61066 285.81305 219.61066 284.26617Q219.61066 282.7818 218.81378 281.93805Q218.03253 281.07867 216.8294 281.07867Q215.6419 281.07867 214.81378 281.93805Q213.98566 282.7818 213.98566 284.17242Z" fill-rule="nonzero"/><path fill="#000000" d="M297.66214 86.65155L295.8965 86.65155L295.8965 75.448425Q295.2715 76.0578 294.24026 76.667175Q293.209 77.260925 292.3809 77.573425L292.3809 75.8703Q293.86526 75.1828 294.959 74.198425Q296.0684 73.198425 296.5215 72.27655L297.66214 72.27655L297.66214 86.65155ZM302.03714 79.58905Q302.03714 77.0578 302.55276 75.510925Q303.084 73.948425 304.11526 73.1203Q305.1465 72.27655 306.709 72.27655Q307.86526 72.27655 308.72464 72.7453Q309.59964 73.198425 310.16214 74.073425Q310.72464 74.948425 311.05276 76.21405Q311.3809 77.46405 311.3809 79.58905Q311.3809 82.104675 310.84964 83.65155Q310.334 85.198425 309.30276 86.0578Q308.28714 86.90155 306.709 86.90155Q304.6309 86.90155 303.459 85.417175Q302.03714 83.6203 302.03714 79.58905ZM303.84964 79.58905Q303.84964 83.1203 304.66214 84.292175Q305.49026 85.448425 306.709 85.448425Q307.91214 85.448425 308.74026 84.27655Q309.5684 83.104675 309.5684 79.58905Q309.5684 76.0578 308.74026 74.90155Q307.91214 73.729675 306.6934 73.729675Q305.47464 73.729675 304.7559 74.760925Q303.84964 76.0578 303.84964 79.58905Z" fill-rule="nonzero"/><path fill="#1a1a1a" d="M27.709375 44.85L23.146875 27.662498L25.475 27.662498L28.084375 38.928123Q28.50625 40.69375 28.81875 42.44375Q29.475 39.69375 29.584375 39.271873L32.865623 27.662498L35.6 27.662498L38.06875 36.365623Q38.990623 39.6 39.396873 42.44375Q39.725 40.81875 40.25625 38.709373L42.94375 27.662498L45.240623 27.662498L40.521873 44.85L38.334373 44.85L34.709373 31.756248Q34.25625 30.115623 34.178123 29.740623Q33.896873 30.928123 33.6625 31.756248L30.021875 44.85L27.709375 44.85ZM47.428123 44.85L47.428123 27.662498L49.5375 27.662498L49.5375 33.834373Q51.021873 32.115623 53.271873 32.115623Q54.646873 32.115623 55.6625 32.6625Q56.69375 33.209373 57.13125 34.178123Q57.56875 35.13125 57.56875 36.959373L57.56875 44.85L55.459373 44.85L55.459373 36.959373Q55.459373 35.38125 54.771873 34.6625Q54.084373 33.94375 52.834373 33.94375Q51.896873 33.94375 51.06875 34.428123Q50.240623 34.9125 49.88125 35.740623Q49.5375 36.56875 49.5375 38.0375L49.5375 44.85L47.428123 44.85ZM60.646873 38.63125Q60.646873 35.1625 62.56875 33.50625Q64.17812 32.115623 66.49062 32.115623Q69.05312 32.115623 70.67812 33.803123Q72.30312 35.490623 72.30312 38.44375Q72.30312 40.85 71.58437 42.225Q70.86562 43.6 69.49062 44.365623Q68.11562 45.13125 66.49062 45.13125Q63.865623 45.13125 62.25625 43.459373Q60.646873 41.771873 60.646873 38.63125ZM62.81875 38.63125Q62.81875 41.021873 63.85 42.209373Q64.89687 43.396873 66.49062 43.396873Q68.05312 43.396873 69.1 42.209373Q70.14687 41.00625 70.14687 38.553123Q70.14687 36.240623 69.08437 35.053123Q68.0375 33.865623 66.49062 33.865623Q64.89687 33.865623 63.85 35.053123Q62.81875 36.240623 62.81875 38.63125ZM74.38125 44.85L74.38125 27.662498L76.49062 27.662498L76.49062 44.85L74.38125 44.85ZM88.95937 40.834373L91.13125 41.115623Q90.61562 43.021873 89.225 44.084373Q87.83437 45.13125 85.6625 45.13125Q82.92812 45.13125 81.31875 43.459373Q79.725 41.771873 79.725 38.725Q79.725 35.584373 81.33437 33.85Q82.95937 32.115623 85.5375 32.115623Q88.0375 32.115623 89.61562 33.81875Q91.20937 35.521873 91.20937 38.6Q91.20937 38.7875 91.19375 39.1625L81.9125 39.1625Q82.02187 41.209373 83.06875 42.303123Q84.11562 43.396873 85.67812 43.396873Q86.83437 43.396873 87.64687 42.7875Q88.475 42.178123 88.95937 40.834373ZM82.02187 37.428123L88.975 37.428123Q88.83437 35.865623 88.17812 35.06875Q87.17812 33.85 85.56875 33.85Q84.11562 33.85 83.11562 34.834373Q82.13125 35.803123 82.02187 37.428123ZM100.70937 44.85L100.70937 27.662498L107.17812 27.662498Q108.89687 27.662498 109.80312 27.834373Q111.06875 28.037498 111.9125 28.631248Q112.77187 29.224998 113.2875 30.303123Q113.81875 31.365623 113.81875 32.63125Q113.81875 34.834373 112.4125 36.35Q111.02187 37.865623 107.38125 37.865623L102.975 37.865623L102.975 44.85L100.70937 44.85ZM102.975 35.834373L107.4125 35.834373Q109.61562 35.834373 110.5375 35.021873Q111.475 34.19375 111.475 32.709373Q111.475 31.631248 110.92812 30.865623Q110.38125 30.099998 109.49062 29.849998Q108.9125 29.693748 107.36562 29.693748L102.975 29.693748L102.975 35.834373ZM124.55312 43.31875Q123.38125 44.303123 122.2875 44.725Q121.20937 45.13125 119.975 45.13125Q117.92812 45.13125 116.81875 44.13125Q115.725 43.13125 115.725 41.56875Q115.725 40.646873 116.13125 39.896873Q116.55312 39.146873 117.225 38.69375Q117.89687 38.225 118.74062 37.990623Q119.36562 37.834373 120.61562 37.678123Q123.17812 37.365623 124.38125 36.94375Q124.39687 36.521873 124.39687 36.396873Q124.39687 35.115623 123.7875 34.584373Q122.99062 33.865623 121.39687 33.865623Q119.89687 33.865623 119.19375 34.396873Q118.49062 34.9125 118.14687 36.240623L116.08437 35.959373Q116.36562 34.63125 117.00625 33.81875Q117.64687 33.00625 118.86562 32.56875Q120.08437 32.115623 121.69375 32.115623Q123.2875 32.115623 124.2875 32.490623Q125.2875 32.865623 125.75625 33.44375Q126.225 34.00625 126.4125 34.88125Q126.50625 35.4125 126.50625 36.81875L126.50625 39.63125Q126.50625 42.56875 126.64687 43.35Q126.7875 44.13125 127.17812 44.85L124.975 44.85Q124.64687 44.19375 124.55312 43.31875ZM124.38125 38.6Q123.225 39.06875 120.92812 39.396873Q119.63125 39.584373 119.08437 39.81875Q118.55312 40.053123 118.25625 40.50625Q117.975 40.959373 117.975 41.50625Q117.975 42.35 118.6 42.9125Q119.24062 43.475 120.475 43.475Q121.69375 43.475 122.64687 42.94375Q123.6 42.4125 124.0375 41.490623Q124.38125 40.771873 124.38125 39.38125L124.38125 38.6ZM129.05313 45.88125L131.1 46.19375Q131.225 47.13125 131.81876 47.56875Q132.6 48.1625 133.95938 48.1625Q135.42813 48.1625 136.225 47.56875Q137.02188 46.990623 137.30313 45.928123Q137.45938 45.2875 137.44376 43.225Q136.06876 44.85 134.00626 44.85Q131.44376 44.85 130.0375 43.00625Q128.63126 41.146873 128.63126 38.553123Q128.63126 36.771873 129.27188 35.271873Q129.9125 33.75625 131.13126 32.94375Q132.36563 32.115623 134.02188 32.115623Q136.225 32.115623 137.64688 33.896873L137.64688 32.396873L139.6 32.396873L139.6 43.1625Q139.6 46.06875 139.00626 47.271873Q138.4125 48.490623 137.13126 49.19375Q135.85 49.896873 133.975 49.896873Q131.74063 49.896873 130.36563 48.896873Q129.00626 47.896873 129.05313 45.88125ZM130.7875 38.396873Q130.7875 40.85 131.75626 41.975Q132.74063 43.1 134.20938 43.1Q135.6625 43.1 136.64688 41.990623Q137.63126 40.865623 137.63126 38.475Q137.63126 36.19375 136.61563 35.0375Q135.6 33.865623 134.1625 33.865623Q132.75626 33.865623 131.77188 35.00625Q130.7875 36.146873 130.7875 38.396873ZM151.95938 40.834373L154.13126 41.115623Q153.61563 43.021873 152.225 44.084373Q150.83438 45.13125 148.6625 45.13125Q145.92813 45.13125 144.31876 43.459373Q142.725 41.771873 142.725 38.725Q142.725 35.584373 144.33438 33.85Q145.95938 32.115623 148.5375 32.115623Q151.0375 32.115623 152.61563 33.81875Q154.20938 35.521873 154.20938 38.6Q154.20938 38.7875 154.19376 39.1625L144.9125 39.1625Q145.02188 41.209373 146.06876 42.303123Q147.11563 43.396873 148.67813 43.396873Q149.83438 43.396873 150.64688 42.7875Q151.475 42.178123 151.95938 40.834373ZM145.02188 37.428123L151.975 37.428123Q151.83438 35.865623 151.17813 35.06875Q150.17813 33.85 148.56876 33.85Q147.11563 33.85 146.11563 34.834373Q145.13126 35.803123 145.02188 37.428123Z" fill-rule="nonzero"/><path fill="#9e9e9e" d="M31.7875 75.85L29.678125 75.85L29.678125 62.4125Q28.928125 63.13125 27.678125 63.865623Q26.44375 64.58437 25.459375 64.94375L25.459375 62.9125Q27.240625 62.084373 28.553125 60.896873Q29.88125 59.709373 30.428125 58.6L31.7875 58.6L31.7875 75.85ZM36.865623 71.31875L38.975 71.0375Q39.334373 72.81875 40.209373 73.61562Q41.084373 74.4125 42.334373 74.4125Q43.81875 74.4125 44.834373 73.38125Q45.865623 72.35 45.865623 70.81875Q45.865623 69.36562 44.9125 68.42812Q43.975 67.475 42.50625 67.475Q41.9125 67.475 41.021873 67.70937L41.25625 65.86562Q41.459373 65.88125 41.6 65.88125Q42.94375 65.88125 44.021873 65.17812Q45.1 64.475 45.1 63.021873Q45.1 61.85 44.303123 61.1Q43.521873 60.334373 42.2875 60.334373Q41.053123 60.334373 40.225 61.115623Q39.4125 61.88125 39.178123 63.428123L37.06875 63.053123Q37.459373 60.928123 38.81875 59.771873Q40.19375 58.6 42.240623 58.6Q43.646873 58.6 44.81875 59.209373Q46.00625 59.803123 46.63125 60.85Q47.271873 61.896873 47.271873 63.06875Q47.271873 64.17812 46.6625 65.1Q46.06875 66.00625 44.896873 66.5375Q46.428123 66.89687 47.271873 68.00625Q48.115623 69.11562 48.115623 70.77187Q48.115623 73.02187 46.475 74.6Q44.834373 76.1625 42.31875 76.1625Q40.053123 76.1625 38.553123 74.81875Q37.06875 73.45937 36.865623 71.31875ZM51.0375 75.85L51.0375 73.44375L53.428123 73.44375L53.428123 75.85L51.0375 75.85ZM67.92812 73.81875L67.92812 75.85L56.584373 75.85Q56.553123 75.08437 56.81875 74.38125Q57.25625 73.225 58.209373 72.1Q59.1625 70.975 60.975 69.49062Q63.771873 67.19375 64.75625 65.86562Q65.74062 64.52187 65.74062 63.31875Q65.74062 62.06875 64.83437 61.209373Q63.94375 60.35 62.50625 60.35Q60.990623 60.35 60.06875 61.271873Q59.1625 62.178123 59.146873 63.7875L56.975 63.56875Q57.19375 61.146873 58.646873 59.88125Q60.1 58.6 62.553123 58.6Q65.02187 58.6 66.45937 59.975Q67.9125 61.334373 67.9125 63.365623Q67.9125 64.39687 67.49062 65.39687Q67.06875 66.39687 66.08437 67.50625Q65.11562 68.6 62.834373 70.52187Q60.94375 72.11562 60.396873 72.67812Q59.865623 73.24062 59.50625 73.81875L67.92812 73.81875ZM70.24062 62.7875Q70.24062 60.959373 71.1625 59.678123Q72.1 58.38125 73.85 58.38125Q75.475 58.38125 76.5375 59.5375Q77.6 60.678123 77.6 62.928123Q77.6 65.1 76.52187 66.2875Q75.44375 67.45937 73.88125 67.45937Q72.31875 67.45937 71.27187 66.30312Q70.24062 65.13125 70.24062 62.7875ZM73.9125 59.834373Q73.13125 59.834373 72.6 60.521873Q72.08437 61.19375 72.08437 63.00625Q72.08437 64.6625 72.61562 65.33437Q73.14687 66.00625 73.9125 66.00625Q74.70937 66.00625 75.225 65.33437Q75.75625 64.64687 75.75625 62.834373Q75.75625 61.178123 75.225 60.50625Q74.69375 59.834373 73.9125 59.834373ZM73.92812 76.49062L83.31875 58.38125L85.0375 58.38125L75.67812 76.49062L73.92812 76.49062ZM81.35 71.81875Q81.35 69.95937 82.27187 68.67812Q83.20937 67.39687 84.975 67.39687Q86.6 67.39687 87.64687 68.55312Q88.70937 69.70937 88.70937 71.94375Q88.70937 74.13125 87.63125 75.31875Q86.56875 76.49062 84.99062 76.49062Q83.42812 76.49062 82.38125 75.31875Q81.35 74.14687 81.35 71.81875ZM85.0375 68.85Q84.24062 68.85 83.70937 69.5375Q83.19375 70.20937 83.19375 72.02187Q83.19375 73.6625 83.725 74.35Q84.25625 75.02187 85.02187 75.02187Q85.83437 75.02187 86.35 74.35Q86.88125 73.6625 86.88125 71.86562Q86.88125 70.19375 86.35 69.52187Q85.81875 68.85 85.0375 68.85Z" fill-rule="nonzero"/><path stroke="#757575" stroke-width="1.0" stroke-linecap="butt" d="M22.85 52.35L154.85 52.35L288.02176 49.587654" fill-rule="nonzero"/><path fill="#9e9e9e" d="M290.02176 49.587654C290.02176 48.483086 289.12634 47.587654 288.02176 47.587654C286.9172 47.587654 286.02176 48.483086 286.02176 49.587654C286.02176 50.692223 286.9172 51.587654 288.02176 51.587654C289.12634 51.587654 290.02176 50.692223 290.02176 49.587654" fill-rule="nonzero"/><path fill="#1a1a1a" d="M32.740623 277.70135L32.740623 275.68573L40.021873 275.6701L40.021873 282.0451Q38.35 283.37323 36.56875 284.06073Q34.7875 284.7326 32.9125 284.7326Q30.38125 284.7326 28.303125 283.65448Q26.240625 282.56073 25.178125 280.51385Q24.13125 278.45135 24.13125 275.9201Q24.13125 273.4201 25.178125 271.24823Q26.225 269.07635 28.19375 268.02948Q30.1625 266.96698 32.725 266.96698Q34.6 266.96698 36.1 267.57635Q37.6 268.1701 38.459373 269.24823Q39.31875 270.32635 39.75625 272.06073L37.709373 272.62323Q37.31875 271.31073 36.740623 270.56073Q36.178123 269.81073 35.1 269.3576Q34.0375 268.90448 32.740623 268.90448Q31.178125 268.90448 30.0375 269.38885Q28.9125 269.8576 28.209375 270.63885Q27.521875 271.40448 27.13125 272.32635Q26.475 273.9201 26.475 275.77948Q26.475 278.07635 27.25625 279.62323Q28.053125 281.1701 29.56875 281.9201Q31.084375 282.6701 32.771873 282.6701Q34.25625 282.6701 35.6625 282.1076Q37.06875 281.5451 37.7875 280.88885L37.7875 277.70135L32.740623 277.70135ZM43.709373 284.43573L43.709373 267.24823L50.178123 267.24823Q51.896873 267.24823 52.803123 267.4201Q54.06875 267.62323 54.9125 268.21698Q55.771873 268.81073 56.2875 269.88885Q56.81875 270.95135 56.81875 272.21698Q56.81875 274.4201 55.4125 275.93573Q54.021873 277.45135 50.38125 277.45135L45.975 277.45135L45.975 284.43573L43.709373 284.43573ZM45.975 275.4201L50.4125 275.4201Q52.615623 275.4201 53.5375 274.6076Q54.475 273.77948 54.475 272.2951Q54.475 271.21698 53.928123 270.45135Q53.38125 269.68573 52.490623 269.43573Q51.9125 269.27948 50.365623 269.27948L45.975 269.27948L45.975 275.4201ZM64.06875 284.43573L64.06875 269.27948L58.4125 269.27948L58.4125 267.24823L72.0375 267.24823L72.0375 269.27948L66.35 269.27948L66.35 284.43573L64.06875 284.43573ZM72.61562 279.27948L72.61562 277.15448L79.1 277.15448L79.1 279.27948L72.61562 279.27948ZM87.61562 284.43573L87.61562 280.32635L80.1625 280.32635L80.1625 278.38885L87.99062 267.24823L89.725 267.24823L89.725 278.38885L92.0375 278.38885L92.0375 280.32635L89.725 280.32635L89.725 284.43573L87.61562 284.43573ZM87.61562 278.38885L87.61562 270.63885L82.225 278.38885L87.61562 278.38885Z" fill-rule="nonzero"/><path fill="#9e9e9e" d="M23.865625 310.90448L25.975 310.62323Q26.334375 312.40448 27.209375 313.20135Q28.084375 313.99823 29.334375 313.99823Q30.81875 313.99823 31.834375 312.96698Q32.865623 311.93573 32.865623 310.40448Q32.865623 308.95135 31.9125 308.01385Q30.975 307.06073 29.50625 307.06073Q28.9125 307.06073 28.021875 307.2951L28.25625 305.45135Q28.459375 305.46698 28.6 305.46698Q29.94375 305.46698 31.021875 304.76385Q32.1 304.06073 32.1 302.6076Q32.1 301.43573 31.303125 300.68573Q30.521875 299.9201 29.2875 299.9201Q28.053125 299.9201 27.225 300.70135Q26.4125 301.46698 26.178125 303.01385L24.06875 302.63885Q24.459375 300.51385 25.81875 299.3576Q27.19375 298.18573 29.240625 298.18573Q30.646875 298.18573 31.81875 298.7951Q33.00625 299.38885 33.63125 300.43573Q34.271873 301.4826 34.271873 302.65448Q34.271873 303.76385 33.6625 304.68573Q33.06875 305.59198 31.896875 306.12323Q33.428123 306.4826 34.271873 307.59198Q35.115623 308.70135 35.115623 310.3576Q35.115623 312.6076 33.475 314.18573Q31.834375 315.74823 29.31875 315.74823Q27.053125 315.74823 25.553125 314.40448Q24.06875 313.0451 23.865625 310.90448ZM43.615623 315.43573L43.615623 311.32635L36.1625 311.32635L36.1625 309.38885L43.990623 298.24823L45.725 298.24823L45.725 309.38885L48.0375 309.38885L48.0375 311.32635L45.725 311.32635L45.725 315.43573L43.615623 315.43573ZM43.615623 309.38885L43.615623 301.63885L38.225 309.38885L43.615623 309.38885ZM51.0375 315.43573L51.0375 313.02948L53.428123 313.02948L53.428123 315.43573L51.0375 315.43573ZM67.92812 313.40448L67.92812 315.43573L56.584373 315.43573Q56.553123 314.6701 56.81875 313.96698Q57.25625 312.81073 58.209373 311.68573Q59.1625 310.56073 60.975 309.07635Q63.771873 306.77948 64.75625 305.45135Q65.74062 304.1076 65.74062 302.90448Q65.74062 301.65448 64.83437 300.7951Q63.94375 299.93573 62.50625 299.93573Q60.990623 299.93573 60.06875 300.8576Q59.1625 301.76385 59.146873 303.37323L56.975 303.15448Q57.19375 300.7326 58.646873 299.46698Q60.1 298.18573 62.553123 298.18573Q65.02187 298.18573 66.45937 299.56073Q67.9125 300.9201 67.9125 302.95135Q67.9125 303.9826 67.49062 304.9826Q67.06875 305.9826 66.08437 307.09198Q65.11562 308.18573 62.834373 310.1076Q60.94375 311.70135 60.396873 312.26385Q59.865623 312.82635 59.50625 313.40448L67.92812 313.40448ZM70.24062 302.37323Q70.24062 300.5451 71.1625 299.26385Q72.1 297.96698 73.85 297.96698Q75.475 297.96698 76.5375 299.12323Q77.6 300.26385 77.6 302.51385Q77.6 304.68573 76.52187 305.87323Q75.44375 307.0451 73.88125 307.0451Q72.31875 307.0451 71.27187 305.88885Q70.24062 304.71698 70.24062 302.37323ZM73.9125 299.4201Q73.13125 299.4201 72.6 300.1076Q72.08437 300.77948 72.08437 302.59198Q72.08437 304.24823 72.61562 304.9201Q73.14687 305.59198 73.9125 305.59198Q74.70937 305.59198 75.225 304.9201Q75.75625 304.2326 75.75625 302.4201Q75.75625 300.76385 75.225 300.09198Q74.69375 299.4201 73.9125 299.4201ZM73.92812 316.07635L83.31875 297.96698L85.0375 297.96698L75.67812 316.07635L73.92812 316.07635ZM81.35 311.40448Q81.35 309.5451 82.27187 308.26385Q83.20937 306.9826 84.975 306.9826Q86.6 306.9826 87.64687 308.13885Q88.70937 309.2951 88.70937 311.52948Q88.70937 313.71698 87.63125 314.90448Q86.56875 316.07635 84.99062 316.07635Q83.42812 316.07635 82.38125 314.90448Q81.35 313.7326 81.35 311.40448ZM85.0375 308.43573Q84.24062 308.43573 83.70937 309.12323Q83.19375 309.7951 83.19375 311.6076Q83.19375 313.24823 83.725 313.93573Q84.25625 314.6076 85.02187 314.6076Q85.83437 314.6076 86.35 313.93573Q86.88125 313.24823 86.88125 311.45135Q86.88125 309.77948 86.35 309.1076Q85.81875 308.43573 85.0375 308.43573Z" fill-rule="nonzero"/><path stroke="#757575" stroke-width="1.0" stroke-linecap="butt" d="M22.85 291.93573L154.85 291.93573L181.71805 291.93573" fill-rule="nonzero"/><path fill="#9e9e9e" d="M183.71805 291.93573C183.71805 290.83115 182.82262 289.93573 181.71805 289.93573C180.61348 289.93573 179.71805 290.83115 179.71805 291.93573C179.71805 293.04028 180.61348 293.93573 181.71805 293.93573C182.82262 293.93573 183.71805 293.04028 183.71805 291.93573" fill-rule="nonzero"/><path fill="#1a1a1a" d="M634.2594 76.82307L636.54065 77.40119Q635.8219 80.19807 633.9625 81.68244Q632.10315 83.15119 629.41565 83.15119Q626.65 83.15119 624.9 82.02619Q623.16565 80.88557 622.2594 78.74494Q621.35315 76.58869 621.35315 74.13557Q621.35315 71.44807 622.3688 69.44807Q623.4 67.44807 625.29065 66.41682Q627.1813 65.38557 629.4625 65.38557Q632.04065 65.38557 633.79065 66.69807Q635.5563 68.01057 636.2438 70.38557L634.0094 70.91682Q633.4 69.04182 632.2594 68.18244Q631.1344 67.32307 629.41565 67.32307Q627.4313 67.32307 626.10315 68.27619Q624.775 69.22932 624.22815 70.82307Q623.6969 72.41682 623.6969 74.11994Q623.6969 76.30744 624.3219 77.94807Q624.9625 79.58869 626.3063 80.40119Q627.66565 81.19807 629.22815 81.19807Q631.15 81.19807 632.4625 80.10432Q633.79065 78.99494 634.2594 76.82307ZM638.6813 82.85432L638.6813 65.66682L640.79065 65.66682L640.79065 82.85432L638.6813 82.85432ZM652.85315 81.32307Q651.6813 82.30744 650.5875 82.72932Q649.5094 83.13557 648.275 83.13557Q646.22815 83.13557 645.1188 82.13557Q644.025 81.13557 644.025 79.57307Q644.025 78.65119 644.4313 77.90119Q644.85315 77.15119 645.525 76.69807Q646.1969 76.22932 647.04065 75.99494Q647.66565 75.83869 648.91565 75.68244Q651.47815 75.36994 652.6813 74.94807Q652.6969 74.52619 652.6969 74.40119Q652.6969 73.11994 652.0875 72.58869Q651.29065 71.86994 649.6969 71.86994Q648.1969 71.86994 647.4938 72.40119Q646.79065 72.91682 646.4469 74.24494L644.3844 73.96369Q644.66565 72.63557 645.3063 71.82307Q645.9469 71.01057 647.16565 70.57307Q648.3844 70.11994 649.9938 70.11994Q651.5875 70.11994 652.5875 70.49494Q653.5875 70.86994 654.0563 71.44807Q654.525 72.01057 654.7125 72.88557Q654.8063 73.41682 654.8063 74.82307L654.8063 77.63557Q654.8063 80.57307 654.9469 81.35432Q655.0875 82.13557 655.47815 82.85432L653.275 82.85432Q652.9469 82.19807 652.85315 81.32307ZM652.6813 76.60432Q651.525 77.07307 649.22815 77.40119Q647.9313 77.58869 647.3844 77.82307Q646.85315 78.05744 646.5563 78.51057Q646.275 78.96369 646.275 79.51057Q646.275 80.35432 646.9 80.91682Q647.54065 81.47932 648.775 81.47932Q649.9938 81.47932 650.9469 80.94807Q651.9 80.41682 652.3375 79.49494Q652.6813 78.77619 652.6813 77.38557L652.6813 76.60432ZM665.8844 82.85432L665.8844 81.02619Q664.4313 83.13557 661.9469 83.13557Q660.8375 83.13557 659.8844 82.71369Q658.9313 82.29182 658.4625 81.65119Q658.0094 81.01057 657.8219 80.08869Q657.6813 79.46369 657.6813 78.11994L657.6813 70.40119L659.79065 70.40119L659.79065 77.30744Q659.79065 78.96369 659.9313 79.54182Q660.1188 80.36994 660.7594 80.85432Q661.41565 81.32307 662.3688 81.32307Q663.3063 81.32307 664.1344 80.83869Q664.97815 80.33869 665.3219 79.51057Q665.66565 78.66682 665.66565 77.07307L665.66565 70.40119L667.775 70.40119L667.775 82.85432L665.8844 82.85432ZM679.8063 82.85432L679.8063 81.27619Q678.6188 83.13557 676.3219 83.13557Q674.8375 83.13557 673.5875 82.32307Q672.3375 81.49494 671.65 80.02619Q670.97815 78.55744 670.97815 76.63557Q670.97815 74.77619 671.5875 73.26057Q672.2125 71.74494 673.4469 70.93244Q674.6969 70.11994 676.22815 70.11994Q677.35315 70.11994 678.22815 70.60432Q679.1188 71.07307 679.66565 71.83869L679.66565 65.66682L681.7594 65.66682L681.7594 82.85432L679.8063 82.85432ZM673.1344 76.63557Q673.1344 79.02619 674.1344 80.21369Q675.15 81.40119 676.525 81.40119Q677.91565 81.40119 678.8688 80.27619Q679.8375 79.13557 679.8375 76.82307Q679.8375 74.26057 678.85315 73.07307Q677.8688 71.86994 676.4313 71.86994Q675.025 71.86994 674.0719 73.02619Q673.1344 74.16682 673.1344 76.63557ZM694.2594 78.83869L696.4313 79.11994Q695.91565 81.02619 694.525 82.08869Q693.1344 83.13557 690.9625 83.13557Q688.22815 83.13557 686.6188 81.46369Q685.025 79.77619 685.025 76.72932Q685.025 73.58869 686.6344 71.85432Q688.2594 70.11994 690.8375 70.11994Q693.3375 70.11994 694.91565 71.82307Q696.5094 73.52619 696.5094 76.60432Q696.5094 76.79182 696.4938 77.16682L687.2125 77.16682Q687.3219 79.21369 688.3688 80.30744Q689.41565 81.40119 690.97815 81.40119Q692.1344 81.40119 692.9469 80.79182Q693.775 80.18244 694.2594 78.83869ZM687.3219 75.43244L694.275 75.43244Q694.1344 73.86994 693.47815 73.07307Q692.47815 71.85432 690.8688 71.85432Q689.41565 71.85432 688.41565 72.83869Q687.4313 73.80744 687.3219 75.43244ZM698.16565 78.32307L700.275 78.04182Q700.6344 79.82307 701.5094 80.61994Q702.3844 81.41682 703.6344 81.41682Q705.1188 81.41682 706.1344 80.38557Q707.16565 79.35432 707.16565 77.82307Q707.16565 76.36994 706.2125 75.43244Q705.275 74.47932 703.8063 74.47932Q703.2125 74.47932 702.3219 74.71369L702.5563 72.86994Q702.7594 72.88557 702.9 72.88557Q704.2438 72.88557 705.3219 72.18244Q706.4 71.47932 706.4 70.02619Q706.4 68.85432 705.60315 68.10432Q704.8219 67.33869 703.5875 67.33869Q702.35315 67.33869 701.525 68.11994Q700.7125 68.88557 700.47815 70.43244L698.3688 70.05744Q698.7594 67.93244 700.1188 66.77619Q701.4938 65.60432 703.54065 65.60432Q704.9469 65.60432 706.1188 66.21369Q707.3063 66.80744 707.9313 67.85432Q708.5719 68.90119 708.5719 70.07307Q708.5719 71.18244 707.9625 72.10432Q707.3688 73.01057 706.1969 73.54182Q707.72815 73.90119 708.5719 75.01057Q709.41565 76.11994 709.41565 77.77619Q709.41565 80.02619 707.775 81.60432Q706.1344 83.16682 703.6188 83.16682Q701.35315 83.16682 699.85315 81.82307Q698.3688 80.46369 698.16565 78.32307Z" fill-rule="nonzero"/><path fill="#9e9e9e" d="M655.22815 111.82307L655.22815 113.85432L643.8844 113.85432Q643.85315 113.08869 644.1188 112.38557Q644.5563 111.22932 645.5094 110.10432Q646.4625 108.97932 648.275 107.49494Q651.0719 105.19807 652.0563 103.86994Q653.04065 102.52619 653.04065 101.32307Q653.04065 100.07307 652.1344 99.21369Q651.2438 98.35432 649.8063 98.35432Q648.29065 98.35432 647.3688 99.27619Q646.4625 100.18244 646.4469 101.79182L644.275 101.57307Q644.4938 99.15119 645.9469 97.88557Q647.4 96.60432 649.85315 96.60432Q652.3219 96.60432 653.7594 97.97932Q655.2125 99.33869 655.2125 101.36994Q655.2125 102.40119 654.79065 103.40119Q654.3688 104.40119 653.3844 105.51057Q652.41565 106.60432 650.1344 108.52619Q648.2438 110.11994 647.6969 110.68244Q647.16565 111.24494 646.8063 111.82307L655.22815 111.82307ZM657.15 109.35432L659.3688 109.16682Q659.60315 110.77619 660.4938 111.60432Q661.4 112.41682 662.66565 112.41682Q664.1969 112.41682 665.2438 111.27619Q666.3063 110.11994 666.3063 108.21369Q666.3063 106.41682 665.29065 105.36994Q664.275 104.32307 662.6344 104.32307Q661.6188 104.32307 660.79065 104.79182Q659.97815 105.24494 659.5094 105.99494L657.525 105.72932L659.1813 96.90119L667.72815 96.90119L667.72815 98.91682L660.8688 98.91682L659.9469 103.54182Q661.4938 102.46369 663.1969 102.46369Q665.4469 102.46369 666.9938 104.02619Q668.54065 105.57307 668.54065 108.02619Q668.54065 110.35432 667.1813 112.05744Q665.525 114.15119 662.66565 114.15119Q660.3219 114.15119 658.8375 112.83869Q657.35315 111.52619 657.15 109.35432ZM671.3375 113.85432L671.3375 111.44807L673.72815 111.44807L673.72815 113.85432L671.3375 113.85432ZM677.15 105.38557Q677.15 102.33869 677.775 100.47932Q678.4 98.61994 679.6344 97.61994Q680.8688 96.60432 682.7438 96.60432Q684.1344 96.60432 685.16565 97.16682Q686.2125 97.71369 686.8844 98.76057Q687.5719 99.80744 687.9625 101.32307Q688.35315 102.82307 688.35315 105.38557Q688.35315 108.40119 687.72815 110.26057Q687.10315 112.11994 685.8688 113.13557Q684.6344 114.15119 682.7438 114.15119Q680.2594 114.15119 678.85315 112.36994Q677.15 110.21369 677.15 105.38557ZM679.3219 105.38557Q679.3219 109.60432 680.3063 111.01057Q681.29065 112.41682 682.7438 112.41682Q684.1969 112.41682 685.1813 111.01057Q686.1813 109.60432 686.1813 105.38557Q686.1813 101.13557 685.1813 99.74494Q684.1969 98.35432 682.72815 98.35432Q681.275 98.35432 680.4 99.57307Q679.3219 101.15119 679.3219 105.38557ZM690.54065 100.79182Q690.54065 98.96369 691.4625 97.68244Q692.4 96.38557 694.15 96.38557Q695.775 96.38557 696.8375 97.54182Q697.9 98.68244 697.9 100.93244Q697.9 103.10432 696.8219 104.29182Q695.7438 105.46369 694.1813 105.46369Q692.6188 105.46369 691.5719 104.30744Q690.54065 103.13557 690.54065 100.79182ZM694.2125 97.83869Q693.4313 97.83869 692.9 98.52619Q692.3844 99.19807 692.3844 101.01057Q692.3844 102.66682 692.91565 103.33869Q693.4469 104.01057 694.2125 104.01057Q695.0094 104.01057 695.525 103.33869Q696.0563 102.65119 696.0563 100.83869Q696.0563 99.18244 695.525 98.51057Q694.9938 97.83869 694.2125 97.83869ZM694.22815 114.49494L703.6188 96.38557L705.3375 96.38557L695.97815 114.49494L694.22815 114.49494ZM701.65 109.82307Q701.65 107.96369 702.5719 106.68244Q703.5094 105.40119 705.275 105.40119Q706.9 105.40119 707.9469 106.55744Q709.0094 107.71369 709.0094 109.94807Q709.0094 112.13557 707.9313 113.32307Q706.8688 114.49494 705.29065 114.49494Q703.72815 114.49494 702.6813 113.32307Q701.65 112.15119 701.65 109.82307ZM705.3375 106.85432Q704.54065 106.85432 704.0094 107.54182Q703.4938 108.21369 703.4938 110.02619Q703.4938 111.66682 704.025 112.35432Q704.5563 113.02619 705.3219 113.02619Q706.1344 113.02619 706.65 112.35432Q707.1813 111.66682 707.1813 109.86994Q707.1813 108.19807 706.65 107.52619Q706.1188 106.85432 705.3375 106.85432Z" fill-rule="nonzero"/><path stroke="#757575" stroke-width="1.0" stroke-linecap="butt" d="M710.15 90.35432L578.15 90.35432L504.6457 90.35432" fill-rule="nonzero"/><path fill="#9e9e9e" d="M506.6457 90.35432C506.6457 89.24975 505.75024 88.35432 504.6457 88.35432C503.5411 88.35432 502.6457 89.24975 502.6457 90.35432C502.6457 91.458885 503.5411 92.35432 504.6457 92.35432C505.75024 92.35432 506.6457 91.458885 506.6457 90.35432" fill-rule="nonzero"/><path fill="#1a1a1a" d="M644.04065 363.34744L644.04065 361.33182L651.3219 361.3162L651.3219 367.6912Q649.65 369.01932 647.8688 369.70682Q646.0875 370.3787 644.2125 370.3787Q641.6813 370.3787 639.60315 369.30057Q637.54065 368.20682 636.47815 366.15994Q635.4313 364.09744 635.4313 361.5662Q635.4313 359.0662 636.47815 356.89432Q637.525 354.72244 639.4938 353.67557Q641.4625 352.61307 644.025 352.61307Q645.9 352.61307 647.4 353.22244Q648.9 353.8162 649.7594 354.89432Q650.6188 355.97244 651.0563 357.70682L649.0094 358.26932Q648.6188 356.95682 648.04065 356.20682Q647.47815 355.45682 646.4 355.0037Q645.3375 354.55057 644.04065 354.55057Q642.47815 354.55057 641.3375 355.03494Q640.2125 355.5037 639.5094 356.28494Q638.8219 357.05057 638.4313 357.97244Q637.775 359.5662 637.775 361.42557Q637.775 363.72244 638.5563 365.26932Q639.35315 366.8162 640.8688 367.5662Q642.3844 368.3162 644.0719 368.3162Q645.5563 368.3162 646.9625 367.7537Q648.3688 367.1912 649.0875 366.53494L649.0875 363.34744L644.04065 363.34744ZM663.2594 366.0662L665.4313 366.34744Q664.91565 368.2537 663.525 369.3162Q662.1344 370.36307 659.9625 370.36307Q657.22815 370.36307 655.6188 368.6912Q654.025 367.0037 654.025 363.95682Q654.025 360.8162 655.6344 359.08182Q657.2594 357.34744 659.8375 357.34744Q662.3375 357.34744 663.91565 359.05057Q665.5094 360.7537 665.5094 363.83182Q665.5094 364.01932 665.4938 364.39432L656.2125 364.39432Q656.3219 366.4412 657.3688 367.53494Q658.41565 368.6287 659.97815 368.6287Q661.1344 368.6287 661.9469 368.01932Q662.775 367.40994 663.2594 366.0662ZM656.3219 362.65994L663.275 362.65994Q663.1344 361.09744 662.47815 360.30057Q661.47815 359.08182 659.8688 359.08182Q658.41565 359.08182 657.41565 360.0662Q656.4313 361.03494 656.3219 362.65994ZM667.72815 370.08182L667.72815 357.6287L669.6188 357.6287L669.6188 359.3787Q670.2125 358.47244 671.1813 357.90994Q672.15 357.34744 673.4 357.34744Q674.775 357.34744 675.65 357.92557Q676.54065 358.5037 676.91565 359.53494Q678.3844 357.34744 680.7594 357.34744Q682.60315 357.34744 683.60315 358.3787Q684.60315 359.40994 684.60315 361.53494L684.60315 370.08182L682.4938 370.08182L682.4938 362.23807Q682.4938 360.97244 682.29065 360.42557Q682.0875 359.86307 681.54065 359.51932Q681.0094 359.17557 680.29065 359.17557Q678.97815 359.17557 678.10315 360.05057Q677.2438 360.92557 677.2438 362.84744L677.2438 370.08182L675.1344 370.08182L675.1344 361.98807Q675.1344 360.58182 674.6188 359.8787Q674.10315 359.17557 672.9313 359.17557Q672.04065 359.17557 671.275 359.64432Q670.525 360.11307 670.1813 361.01932Q669.8375 361.92557 669.8375 363.6287L669.8375 370.08182L667.72815 370.08182ZM687.7438 355.33182L687.7438 352.89432L689.85315 352.89432L689.85315 355.33182L687.7438 355.33182ZM687.7438 370.08182L687.7438 357.6287L689.85315 357.6287L689.85315 370.08182L687.7438 370.08182ZM692.72815 370.08182L692.72815 357.6287L694.6344 357.6287L694.6344 359.40994Q696.0094 357.34744 698.5875 357.34744Q699.7125 357.34744 700.65 357.7537Q701.60315 358.15994 702.0719 358.8162Q702.54065 359.47244 702.72815 360.3787Q702.85315 360.95682 702.85315 362.42557L702.85315 370.08182L700.7438 370.08182L700.7438 362.5037Q700.7438 361.22244 700.4938 360.58182Q700.2438 359.9412 699.6188 359.5662Q698.9938 359.17557 698.15 359.17557Q696.8063 359.17557 695.8219 360.03494Q694.8375 360.89432 694.8375 363.28494L694.8375 370.08182L692.72815 370.08182ZM706.7438 355.33182L706.7438 352.89432L708.85315 352.89432L708.85315 355.33182L706.7438 355.33182ZM706.7438 370.08182L706.7438 357.6287L708.85315 357.6287L708.85315 370.08182L706.7438 370.08182Z" fill-rule="nonzero"/><path fill="#9e9e9e" d="M655.22815 399.05057L655.22815 401.08182L643.8844 401.08182Q643.85315 400.3162 644.1188 399.61307Q644.5563 398.45682 645.5094 397.33182Q646.4625 396.20682 648.275 394.72244Q651.0719 392.42557 652.0563 391.09744Q653.04065 389.7537 653.04065 388.55057Q653.04065 387.30057 652.1344 386.4412Q651.2438 385.58182 649.8063 385.58182Q648.29065 385.58182 647.3688 386.5037Q646.4625 387.40994 646.4469 389.01932L644.275 388.80057Q644.4938 386.3787 645.9469 385.11307Q647.4 383.83182 649.85315 383.83182Q652.3219 383.83182 653.7594 385.20682Q655.2125 386.5662 655.2125 388.59744Q655.2125 389.6287 654.79065 390.6287Q654.3688 391.6287 653.3844 392.73807Q652.41565 393.83182 650.1344 395.7537Q648.2438 397.34744 647.6969 397.90994Q647.16565 398.47244 646.8063 399.05057L655.22815 399.05057ZM657.29065 386.14432L657.29065 384.1287L668.41565 384.1287L668.41565 385.76932Q666.775 387.5037 665.15 390.40994Q663.54065 393.30057 662.66565 396.36307Q662.04065 398.51932 661.85315 401.08182L659.6969 401.08182Q659.72815 399.05057 660.47815 396.1912Q661.2438 393.3162 662.66565 390.64432Q664.10315 387.97244 665.6969 386.14432L657.29065 386.14432ZM671.3375 401.08182L671.3375 398.67557L673.72815 398.67557L673.72815 401.08182L671.3375 401.08182ZM688.0875 388.11307L685.9938 388.26932Q685.7125 387.03494 685.1969 386.47244Q684.3375 385.5662 683.0875 385.5662Q682.0875 385.5662 681.3219 386.1287Q680.3219 386.84744 679.7438 388.2537Q679.1813 389.64432 679.15 392.22244Q679.91565 391.0662 681.0094 390.5037Q682.1188 389.9412 683.3219 389.9412Q685.4313 389.9412 686.91565 391.48807Q688.4 393.03494 688.4 395.5037Q688.4 397.11307 687.6969 398.5037Q687.0094 399.89432 685.79065 400.64432Q684.5719 401.3787 683.025 401.3787Q680.3844 401.3787 678.7125 399.4412Q677.0563 397.48807 677.0563 393.03494Q677.0563 388.0662 678.9 385.80057Q680.4938 383.83182 683.2125 383.83182Q685.2438 383.83182 686.54065 384.97244Q687.8375 386.09744 688.0875 388.11307ZM679.47815 395.51932Q679.47815 396.59744 679.9313 397.59744Q680.4 398.59744 681.22815 399.1287Q682.0719 399.64432 682.97815 399.64432Q684.3219 399.64432 685.275 398.5662Q686.2438 397.48807 686.2438 395.6287Q686.2438 393.84744 685.29065 392.83182Q684.3375 391.80057 682.9 391.80057Q681.47815 391.80057 680.47815 392.83182Q679.47815 393.84744 679.47815 395.51932ZM690.54065 388.01932Q690.54065 386.1912 691.4625 384.90994Q692.4 383.61307 694.15 383.61307Q695.775 383.61307 696.8375 384.76932Q697.9 385.90994 697.9 388.15994Q697.9 390.33182 696.8219 391.51932Q695.7438 392.6912 694.1813 392.6912Q692.6188 392.6912 691.5719 391.53494Q690.54065 390.36307 690.54065 388.01932ZM694.2125 385.0662Q693.4313 385.0662 692.9 385.7537Q692.3844 386.42557 692.3844 388.23807Q692.3844 389.89432 692.91565 390.5662Q693.4469 391.23807 694.2125 391.23807Q695.0094 391.23807 695.525 390.5662Q696.0563 389.8787 696.0563 388.0662Q696.0563 386.40994 695.525 385.73807Q694.9938 385.0662 694.2125 385.0662ZM694.22815 401.72244L703.6188 383.61307L705.3375 383.61307L695.97815 401.72244L694.22815 401.72244ZM701.65 397.05057Q701.65 395.1912 702.5719 393.90994Q703.5094 392.6287 705.275 392.6287Q706.9 392.6287 707.9469 393.78494Q709.0094 394.9412 709.0094 397.17557Q709.0094 399.36307 707.9313 400.55057Q706.8688 401.72244 705.29065 401.72244Q703.72815 401.72244 702.6813 400.55057Q701.65 399.3787 701.65 397.05057ZM705.3375 394.08182Q704.54065 394.08182 704.0094 394.76932Q703.4938 395.4412 703.4938 397.2537Q703.4938 398.89432 704.025 399.58182Q704.5563 400.2537 705.3219 400.2537Q706.1344 400.2537 706.65 399.58182Q707.1813 398.89432 707.1813 397.09744Q707.1813 395.42557 706.65 394.7537Q706.1188 394.08182 705.3375 394.08182Z" fill-rule="nonzero"/><path stroke="#757575" stroke-width="1.0" stroke-linecap="butt" d="M710.15 377.58182L578.15 377.58182L492.76587 377.58182" fill-rule="nonzero"/><path fill="#9e9e9e" d="M494.76587 377.58182C494.76587 376.47726 493.87042 375.58182 492.76587 375.58182C491.6613 375.58182 490.76587 376.47726 490.76587 377.58182C490.76587 378.6864 491.6613 379.58182 492.76587 379.58182C493.87042 379.58182 494.76587 378.6864 494.76587 377.58182" fill-rule="nonzero"/></svg>