<svg version="1.1" viewBox="0.0 0.0 733.0 457.0" fill="none" stroke="none" stroke-linecap="square" stroke-miterlimit="10" width="733" height="457" xmlns:xlink="http://www.w3.org/1999/xlink" xmlns="http://www.w3.org/2000/svg"><path fill="#ffffff" d="M0 0L733.0 0L733.0 457.0L0 457.0L0 0Z" fill-rule="nonzero"/><path fill="#ea4335" d="M366.5 22.85C466.30063 22.85 551.6955 94.50481 569.0257 192.78925L366.5 228.5Z" fill-rule="nonzero"/><path fill="#34a853" d="M163.97429 192.78925C181.30449 94.50481 266.69937 22.85 366.5 22.85L366.5 228.5Z" fill-rule="nonzero"/><path fill="#fbbc04" d="M569.0257 192.78925C583.2805 273.6322 548.0918 355.20883 479.50653 400.31805C410.92126 445.4273 322.07874 445.4273 253.49348 400.31805C184.9082 355.20883 149.7195 273.6322 163.97429 192.78925L366.5 228.5Z" fill-rule="nonzero"/><path fill="#000000" d="M476.33636 99.09663L474.58636 99.23725Q474.352 98.206 473.9301 97.73725Q473.21136 96.97163 472.1645 96.97163Q471.32074 96.97163 470.69574 97.44038Q469.8676 98.04975 469.38324 99.22163Q468.89886 100.37788 468.88324 102.5185Q469.52386 101.56538 470.4301 101.09663Q471.352 100.62788 472.3676 100.62788Q474.1176 100.62788 475.352 101.92475Q476.58636 103.206 476.58636 105.25288Q476.58636 106.61225 476.00824 107.7685Q475.4301 108.92475 474.4145 109.54975Q473.39886 110.15913 472.102 110.15913Q469.9145 110.15913 468.52386 108.54975Q467.13324 106.92475 467.13324 103.206Q467.13324 99.06538 468.6645 97.17475Q470.00824 95.53413 472.27386 95.53413Q473.96136 95.53413 475.0395 96.48725Q476.1176 97.42475 476.33636 99.09663ZM469.1645 105.2685Q469.1645 106.17475 469.5395 107.00288Q469.9301 107.831 470.6176 108.2685Q471.32074 108.706 472.07074 108.706Q473.19574 108.706 473.9926 107.81538Q474.7895 106.90913 474.7895 105.36225Q474.7895 103.87788 473.9926 103.03413Q473.21136 102.17475 472.00824 102.17475Q470.82074 102.17475 469.9926 103.03413Q469.1645 103.87788 469.1645 105.2685Z" fill-rule="nonzero"/><path fill="#000000" d="M362.95312 406.14813L361.1875 406.14813L361.1875 394.945Q360.5625 395.55438 359.53125 396.16376Q358.5 396.7575 357.67188 397.07L357.67188 395.36688Q359.15625 394.67938 360.25 393.695Q361.35938 392.695 361.8125 391.77313L362.95312 391.77313L362.95312 406.14813ZM367.32812 402.39813L369.17188 402.24188Q369.375 403.58563 370.125 404.27313Q370.875 404.945 371.9375 404.945Q373.20312 404.945 374.07812 403.99188Q374.95312 403.03876 374.95312 401.445Q374.95312 399.945 374.10938 399.08563Q373.26562 398.21063 371.90625 398.21063Q371.04688 398.21063 370.35938 398.60126Q369.6875 398.97626 369.29688 399.60126L367.64062 399.3825L369.03125 392.02313L376.15625 392.02313L376.15625 393.71063L370.4375 393.71063L369.67188 397.55438Q370.95312 396.64813 372.375 396.64813Q374.25 396.64813 375.53125 397.96063Q376.82812 399.2575 376.82812 401.28876Q376.82812 403.24188 375.6875 404.64813Q374.3125 406.39813 371.9375 406.39813Q369.98438 406.39813 368.73438 405.30438Q367.5 404.21063 367.32812 402.39813Z" fill-rule="nonzero"/><path fill="#000000" d="M265.5699 99.09663L263.8199 99.23725Q263.5855 98.206 263.16364 97.73725Q262.4449 96.97163 261.398 96.97163Q260.55426 96.97163 259.92926 97.44038Q259.10114 98.04975 258.61676 99.22163Q258.1324 100.37788 258.11676 102.5185Q258.7574 101.56538 259.66364 101.09663Q260.5855 100.62788 261.60114 100.62788Q263.35114 100.62788 264.5855 101.92475Q265.8199 103.206 265.8199 105.25288Q265.8199 106.61225 265.24176 107.7685Q264.66364 108.92475 263.648 109.54975Q262.6324 110.15913 261.3355 110.15913Q259.148 110.15913 257.7574 108.54975Q256.36676 106.92475 256.36676 103.206Q256.36676 99.06538 257.898 97.17475Q259.24176 95.53413 261.5074 95.53413Q263.1949 95.53413 264.273 96.48725Q265.35114 97.42475 265.5699 99.09663ZM258.398 105.2685Q258.398 106.17475 258.773 107.00288Q259.16364 107.831 259.85114 108.2685Q260.55426 108.706 261.30426 108.706Q262.42926 108.706 263.22614 107.81538Q264.023 106.90913 264.023 105.36225Q264.023 103.87788 263.22614 103.03413Q262.4449 102.17475 261.24176 102.17475Q260.05426 102.17475 259.22614 103.03413Q258.398 103.87788 258.398 105.2685Z" fill-rule="nonzero"/><path fill="#1a1a1a" d="M25.084375 71.33981L25.084375 54.152313L27.365625 54.152313L27.365625 71.33981L25.084375 71.33981ZM29.928125 65.82419L32.06875 65.63669Q32.225 66.91794 32.771873 67.74606Q33.334373 68.57419 34.50625 69.08981Q35.678123 69.58981 37.146873 69.58981Q38.44375 69.58981 39.44375 69.21481Q40.44375 68.82419 40.928123 68.15231Q41.4125 67.46481 41.4125 66.66794Q41.4125 65.87106 40.94375 65.26169Q40.475 64.65231 39.396873 64.24606Q38.709373 63.98044 36.334373 63.41794Q33.975 62.839813 33.021873 62.339813Q31.7875 61.69919 31.178125 60.746063Q30.584375 59.777313 30.584375 58.60544Q30.584375 57.29294 31.31875 56.16794Q32.06875 55.04294 33.475 54.464813Q34.896873 53.871063 36.63125 53.871063Q38.5375 53.871063 39.990623 54.48044Q41.459373 55.089813 42.240623 56.29294Q43.0375 57.48044 43.084373 58.996063L40.9125 59.16794Q40.740623 57.527313 39.725 56.69919Q38.709373 55.871063 36.725 55.871063Q34.6625 55.871063 33.709373 56.63669Q32.771873 57.38669 32.771873 58.44919Q32.771873 59.371063 33.44375 59.964813Q34.1 60.57419 36.865623 61.19919Q39.646873 61.82419 40.678123 62.29294Q42.178123 62.98044 42.88125 64.04294Q43.6 65.10544 43.6 66.48044Q43.6 67.85544 42.81875 69.07419Q42.0375 70.27731 40.56875 70.96481Q39.1 71.63669 37.25625 71.63669Q34.928123 71.63669 33.35 70.96481Q31.771875 70.27731 30.865625 68.91794Q29.975 67.54294 29.928125 65.82419ZM45.615623 66.18356L45.615623 64.05856L52.1 64.05856L52.1 66.18356L45.615623 66.18356ZM54.63125 71.33981L54.63125 54.152313L58.053123 54.152313L62.115623 66.32419Q62.678123 68.02731 62.94375 68.87106Q63.240623 67.93356 63.85 66.10544L67.975 54.152313L71.02187 54.152313L71.02187 71.33981L68.83437 71.33981L68.83437 56.964813L63.85 71.33981L61.7875 71.33981L56.81875 56.714813L56.81875 71.33981L54.63125 71.33981ZM72.5375 66.46481L74.6 66.18356Q74.67812 68.15231 75.33437 68.88669Q75.99062 69.60544 77.14687 69.60544Q78.00625 69.60544 78.61562 69.21481Q79.24062 68.82419 79.475 68.15231Q79.70937 67.46481 79.70937 65.99606L79.70937 54.152313L81.99062 54.152313L81.99062 65.87106Q81.99062 68.02731 81.45937 69.21481Q80.94375 70.38669 79.80312 71.01169Q78.67812 71.63669 77.1625 71.63669Q74.89687 71.63669 73.69375 70.33981Q72.49062 69.02731 72.5375 66.46481Z" fill-rule="nonzero"/><path fill="#9e9e9e" d="M34.928123 100.30856L34.928123 102.33981L23.584375 102.33981Q23.553125 101.57419 23.81875 100.87106Q24.25625 99.71481 25.209375 98.58981Q26.1625 97.46481 27.975 95.98044Q30.771875 93.68356 31.75625 92.35544Q32.740623 91.01169 32.740623 89.80856Q32.740623 88.55856 31.834375 87.69919Q30.94375 86.83981 29.50625 86.83981Q27.990625 86.83981 27.06875 87.76169Q26.1625 88.66794 26.146875 90.27731L23.975 90.05856Q24.19375 87.63669 25.646875 86.37106Q27.1 85.08981 29.553125 85.08981Q32.021873 85.08981 33.459373 86.46481Q34.9125 87.82419 34.9125 89.85544Q34.9125 90.88669 34.490623 91.88669Q34.06875 92.88669 33.084373 93.99606Q32.115623 95.08981 29.834375 97.01169Q27.94375 98.60544 27.396875 99.16794Q26.865625 99.73044 26.50625 100.30856L34.928123 100.30856ZM47.928123 100.30856L47.928123 102.33981L36.584373 102.33981Q36.553123 101.57419 36.81875 100.87106Q37.25625 99.71481 38.209373 98.58981Q39.1625 97.46481 40.975 95.98044Q43.771873 93.68356 44.75625 92.35544Q45.740623 91.01169 45.740623 89.80856Q45.740623 88.55856 44.834373 87.69919Q43.94375 86.83981 42.50625 86.83981Q40.990623 86.83981 40.06875 87.76169Q39.1625 88.66794 39.146873 90.27731L36.975 90.05856Q37.19375 87.63669 38.646873 86.37106Q40.1 85.08981 42.553123 85.08981Q45.021873 85.08981 46.459373 86.46481Q47.9125 87.82419 47.9125 89.85544Q47.9125 90.88669 47.490623 91.88669Q47.06875 92.88669 46.084373 93.99606Q45.115623 95.08981 42.834373 97.01169Q40.94375 98.60544 40.396873 99.16794Q39.865623 99.73044 39.50625 100.30856L47.928123 100.30856ZM51.0375 102.33981L51.0375 99.93356L53.428123 99.93356L53.428123 102.33981L51.0375 102.33981ZM67.92812 100.30856L67.92812 102.33981L56.584373 102.33981Q56.553123 101.57419 56.81875 100.87106Q57.25625 99.71481 58.209373 98.58981Q59.1625 97.46481 60.975 95.98044Q63.771873 93.68356 64.75625 92.35544Q65.74062 91.01169 65.74062 89.80856Q65.74062 88.55856 64.83437 87.69919Q63.94375 86.83981 62.50625 86.83981Q60.990623 86.83981 60.06875 87.76169Q59.1625 88.66794 59.146873 90.27731L56.975 90.05856Q57.19375 87.63669 58.646873 86.37106Q60.1 85.08981 62.553123 85.08981Q65.02187 85.08981 66.45937 86.46481Q67.9125 87.82419 67.9125 89.85544Q67.9125 90.88669 67.49062 91.88669Q67.06875 92.88669 66.08437 93.99606Q65.11562 95.08981 62.834373 97.01169Q60.94375 98.60544 60.396873 99.16794Q59.865623 99.73044 59.50625 100.30856L67.92812 100.30856ZM70.24062 89.27731Q70.24062 87.44919 71.1625 86.16794Q72.1 84.87106 73.85 84.87106Q75.475 84.87106 76.5375 86.02731Q77.6 87.16794 77.6 89.41794Q77.6 91.58981 76.52187 92.77731Q75.44375 93.94919 73.88125 93.94919Q72.31875 93.94919 71.27187 92.79294Q70.24062 91.62106 70.24062 89.27731ZM73.9125 86.32419Q73.13125 86.32419 72.6 87.01169Q72.08437 87.68356 72.08437 89.49606Q72.08437 91.15231 72.61562 91.82419Q73.14687 92.49606 73.9125 92.49606Q74.70937 92.49606 75.225 91.82419Q75.75625 91.13669 75.75625 89.32419Q75.75625 87.66794 75.225 86.99606Q74.69375 86.32419 73.9125 86.32419ZM73.92812 102.98044L83.31875 84.87106L85.0375 84.87106L75.67812 102.98044L73.92812 102.98044ZM81.35 98.30856Q81.35 96.44919 82.27187 95.16794Q83.20937 93.88669 84.975 93.88669Q86.6 93.88669 87.64687 95.04294Q88.70937 96.19919 88.70937 98.43356Q88.70937 100.62106 87.63125 101.80856Q86.56875 102.98044 84.99062 102.98044Q83.42812 102.98044 82.38125 101.80856Q81.35 100.63669 81.35 98.30856ZM85.0375 95.33981Q84.24062 95.33981 83.70937 96.02731Q83.19375 96.69919 83.19375 98.51169Q83.19375 100.15231 83.725 100.83981Q84.25625 101.51169 85.02187 101.51169Q85.83437 101.51169 86.35 100.83981Q86.88125 100.15231 86.88125 98.35544Q86.88125 96.68356 86.35 96.01169Q85.81875 95.33981 85.0375 95.33981Z" fill-rule="nonzero"/><path stroke="#757575" stroke-width="1.0" stroke-linecap="butt" d="M22.85 78.83981L154.85 78.83981L240.9202 78.83981" fill-rule="nonzero"/><path fill="#9e9e9e" d="M242.9202 78.83981C242.9202 77.735245 242.02477 76.83981 240.9202 76.83981C239.81563 76.83981 238.9202 77.735245 238.9202 78.83981C238.9202 79.94438 239.81563 80.83981 240.9202 80.83981C242.02477 80.83981 242.9202 79.94438 242.9202 78.83981" fill-rule="nonzero"/><path fill="#1a1a1a" d="M665.3844 71.33981L665.3844 54.152313L667.66565 54.152313L667.66565 71.33981L665.3844 71.33981ZM670.22815 65.82419L672.3688 65.63669Q672.525 66.91794 673.0719 67.74606Q673.6344 68.57419 674.8063 69.08981Q675.97815 69.58981 677.4469 69.58981Q678.7438 69.58981 679.7438 69.21481Q680.7438 68.82419 681.22815 68.15231Q681.7125 67.46481 681.7125 66.66794Q681.7125 65.87106 681.2438 65.26169Q680.775 64.65231 679.6969 64.24606Q679.0094 63.98044 676.6344 63.41794Q674.275 62.839813 673.3219 62.339813Q672.0875 61.69919 671.47815 60.746063Q670.8844 59.777313 670.8844 58.60544Q670.8844 57.29294 671.6188 56.16794Q672.3688 55.04294 673.775 54.464813Q675.1969 53.871063 676.9313 53.871063Q678.8375 53.871063 680.29065 54.48044Q681.7594 55.089813 682.54065 56.29294Q683.3375 57.48044 683.3844 58.996063L681.2125 59.16794Q681.04065 57.527313 680.025 56.69919Q679.0094 55.871063 677.025 55.871063Q674.9625 55.871063 674.0094 56.63669Q673.0719 57.38669 673.0719 58.44919Q673.0719 59.371063 673.7438 59.964813Q674.4 60.57419 677.16565 61.19919Q679.9469 61.82419 680.97815 62.29294Q682.47815 62.98044 683.1813 64.04294Q683.9 65.10544 683.9 66.48044Q683.9 67.85544 683.1188 69.07419Q682.3375 70.27731 680.8688 70.96481Q679.4 71.63669 677.5563 71.63669Q675.22815 71.63669 673.65 70.96481Q672.0719 70.27731 671.16565 68.91794Q670.275 67.54294 670.22815 65.82419ZM685.91565 66.18356L685.91565 64.05856L692.4 64.05856L692.4 66.18356L685.91565 66.18356ZM695.0094 71.33981L695.0094 54.152313L700.91565 54.152313Q702.9313 54.152313 703.97815 54.402313Q705.4625 54.746063 706.4938 55.63669Q707.85315 56.777313 708.525 58.57419Q709.2125 60.35544 709.2125 62.652313Q709.2125 64.60544 708.7438 66.12106Q708.29065 67.63669 707.5719 68.63669Q706.8688 69.62106 706.0094 70.18356Q705.16565 70.74606 703.9625 71.04294Q702.7594 71.33981 701.1969 71.33981L695.0094 71.33981ZM697.275 69.30856L700.9469 69.30856Q702.65 69.30856 703.60315 68.99606Q704.5719 68.68356 705.15 68.10544Q705.9625 67.29294 706.41565 65.93356Q706.8688 64.55856 706.8688 62.621063Q706.8688 59.91794 705.97815 58.48044Q705.0875 57.027313 703.8219 56.54294Q702.91565 56.183563 700.8844 56.183563L697.275 56.183563L697.275 69.30856Z" fill-rule="nonzero"/><path fill="#9e9e9e" d="M655.22815 100.30856L655.22815 102.33981L643.8844 102.33981Q643.85315 101.57419 644.1188 100.87106Q644.5563 99.71481 645.5094 98.58981Q646.4625 97.46481 648.275 95.98044Q651.0719 93.68356 652.0563 92.35544Q653.04065 91.01169 653.04065 89.80856Q653.04065 88.55856 652.1344 87.69919Q651.2438 86.83981 649.8063 86.83981Q648.29065 86.83981 647.3688 87.76169Q646.4625 88.66794 646.4469 90.27731L644.275 90.05856Q644.4938 87.63669 645.9469 86.37106Q647.4 85.08981 649.85315 85.08981Q652.3219 85.08981 653.7594 86.46481Q655.2125 87.82419 655.2125 89.85544Q655.2125 90.88669 654.79065 91.88669Q654.3688 92.88669 653.3844 93.99606Q652.41565 95.08981 650.1344 97.01169Q648.2438 98.60544 647.6969 99.16794Q647.16565 99.73044 646.8063 100.30856L655.22815 100.30856ZM668.22815 100.30856L668.22815 102.33981L656.8844 102.33981Q656.85315 101.57419 657.1188 100.87106Q657.5563 99.71481 658.5094 98.58981Q659.4625 97.46481 661.275 95.98044Q664.0719 93.68356 665.0563 92.35544Q666.04065 91.01169 666.04065 89.80856Q666.04065 88.55856 665.1344 87.69919Q664.2438 86.83981 662.8063 86.83981Q661.29065 86.83981 660.3688 87.76169Q659.4625 88.66794 659.4469 90.27731L657.275 90.05856Q657.4938 87.63669 658.9469 86.37106Q660.4 85.08981 662.85315 85.08981Q665.3219 85.08981 666.7594 86.46481Q668.2125 87.82419 668.2125 89.85544Q668.2125 90.88669 667.79065 91.88669Q667.3688 92.88669 666.3844 93.99606Q665.41565 95.08981 663.1344 97.01169Q661.2438 98.60544 660.6969 99.16794Q660.16565 99.73044 659.8063 100.30856L668.22815 100.30856ZM671.3375 102.33981L671.3375 99.93356L673.72815 99.93356L673.72815 102.33981L671.3375 102.33981ZM688.22815 100.30856L688.22815 102.33981L676.8844 102.33981Q676.85315 101.57419 677.1188 100.87106Q677.5563 99.71481 678.5094 98.58981Q679.4625 97.46481 681.275 95.98044Q684.0719 93.68356 685.0563 92.35544Q686.04065 91.01169 686.04065 89.80856Q686.04065 88.55856 685.1344 87.69919Q684.2438 86.83981 682.8063 86.83981Q681.29065 86.83981 680.3688 87.76169Q679.4625 88.66794 679.4469 90.27731L677.275 90.05856Q677.4938 87.63669 678.9469 86.37106Q680.4 85.08981 682.85315 85.08981Q685.3219 85.08981 686.7594 86.46481Q688.2125 87.82419 688.2125 89.85544Q688.2125 90.88669 687.79065 91.88669Q687.3688 92.88669 686.3844 93.99606Q685.41565 95.08981 683.1344 97.01169Q681.2438 98.60544 680.6969 99.16794Q680.16565 99.73044 679.8063 100.30856L688.22815 100.30856ZM690.54065 89.27731Q690.54065 87.44919 691.4625 86.16794Q692.4 84.87106 694.15 84.87106Q695.775 84.87106 696.8375 86.02731Q697.9 87.16794 697.9 89.41794Q697.9 91.58981 696.8219 92.77731Q695.7438 93.94919 694.1813 93.94919Q692.6188 93.94919 691.5719 92.79294Q690.54065 91.62106 690.54065 89.27731ZM694.2125 86.32419Q693.4313 86.32419 692.9 87.01169Q692.3844 87.68356 692.3844 89.49606Q692.3844 91.15231 692.91565 91.82419Q693.4469 92.49606 694.2125 92.49606Q695.0094 92.49606 695.525 91.82419Q696.0563 91.13669 696.0563 89.32419Q696.0563 87.66794 695.525 86.99606Q694.9938 86.32419 694.2125 86.32419ZM694.22815 102.98044L703.6188 84.87106L705.3375 84.87106L695.97815 102.98044L694.22815 102.98044ZM701.65 98.30856Q701.65 96.44919 702.5719 95.16794Q703.5094 93.88669 705.275 93.88669Q706.9 93.88669 707.9469 95.04294Q709.0094 96.19919 709.0094 98.43356Q709.0094 100.62106 707.9313 101.80856Q706.8688 102.98044 705.29065 102.98044Q703.72815 102.98044 702.6813 101.80856Q701.65 100.63669 701.65 98.30856ZM705.3375 95.33981Q704.54065 95.33981 704.0094 96.02731Q703.4938 96.69919 703.4938 98.51169Q703.4938 100.15231 704.025 100.83981Q704.5563 101.51169 705.3219 101.51169Q706.1344 101.51169 706.65 100.83981Q707.1813 100.15231 707.1813 98.35544Q707.1813 96.68356 706.65 96.01169Q706.1188 95.33981 705.3375 95.33981Z" fill-rule="nonzero"/><path stroke="#757575" stroke-width="1.0" stroke-linecap="butt" d="M710.15 78.83981L578.15 78.83981L492.0798 78.83981" fill-rule="nonzero"/><path fill="#9e9e9e" d="M494.0798 78.83981C494.0798 77.735245 493.1844 76.83981 492.0798 76.83981C490.97525 76.83981 490.0798 77.735245 490.0798 78.83981C490.0798 79.94438 490.97525 80.83981 492.0798 80.83981C493.1844 80.83981 494.0798 79.94438 494.0798 78.83981" fill-rule="nonzero"/><path fill="#1a1a1a" d="M649.3844 397.15L649.3844 379.9625L651.66565 379.9625L651.66565 397.15L649.3844 397.15ZM654.22815 391.63437L656.3688 391.44687Q656.525 392.72812 657.0719 393.55624Q657.6344 394.38437 658.8063 394.9Q659.97815 395.4 661.4469 395.4Q662.7438 395.4 663.7438 395.025Q664.7438 394.63437 665.22815 393.9625Q665.7125 393.275 665.7125 392.47812Q665.7125 391.68124 665.2438 391.07187Q664.775 390.4625 663.6969 390.05624Q663.0094 389.79062 660.6344 389.22812Q658.275 388.65 657.3219 388.15Q656.0875 387.50937 655.47815 386.55624Q654.8844 385.5875 654.8844 384.41562Q654.8844 383.10312 655.6188 381.97812Q656.3688 380.85312 657.775 380.275Q659.1969 379.68124 660.9313 379.68124Q662.8375 379.68124 664.29065 380.29062Q665.7594 380.9 666.54065 382.10312Q667.3375 383.29062 667.3844 384.80624L665.2125 384.97812Q665.04065 383.3375 664.025 382.50937Q663.0094 381.68124 661.025 381.68124Q658.9625 381.68124 658.0094 382.44687Q657.0719 383.19687 657.0719 384.25937Q657.0719 385.18124 657.7438 385.775Q658.4 386.38437 661.16565 387.00937Q663.9469 387.63437 664.97815 388.10312Q666.47815 388.79062 667.1813 389.85312Q667.9 390.91562 667.9 392.29062Q667.9 393.66562 667.1188 394.88437Q666.3375 396.0875 664.8688 396.775Q663.4 397.44687 661.5563 397.44687Q659.22815 397.44687 657.65 396.775Q656.0719 396.0875 655.16565 394.72812Q654.275 393.35312 654.22815 391.63437ZM669.91565 391.99374L669.91565 389.86874L676.4 389.86874L676.4 391.99374L669.91565 391.99374ZM678.22815 391.63437L680.3688 391.44687Q680.525 392.72812 681.0719 393.55624Q681.6344 394.38437 682.8063 394.9Q683.97815 395.4 685.4469 395.4Q686.7438 395.4 687.7438 395.025Q688.7438 394.63437 689.22815 393.9625Q689.7125 393.275 689.7125 392.47812Q689.7125 391.68124 689.2438 391.07187Q688.775 390.4625 687.6969 390.05624Q687.0094 389.79062 684.6344 389.22812Q682.275 388.65 681.3219 388.15Q680.0875 387.50937 679.47815 386.55624Q678.8844 385.5875 678.8844 384.41562Q678.8844 383.10312 679.6188 381.97812Q680.3688 380.85312 681.775 380.275Q683.1969 379.68124 684.9313 379.68124Q686.8375 379.68124 688.29065 380.29062Q689.7594 380.9 690.54065 382.10312Q691.3375 383.29062 691.3844 384.80624L689.2125 384.97812Q689.04065 383.3375 688.025 382.50937Q687.0094 381.68124 685.025 381.68124Q682.9625 381.68124 682.0094 382.44687Q681.0719 383.19687 681.0719 384.25937Q681.0719 385.18124 681.7438 385.775Q682.4 386.38437 685.16565 387.00937Q687.9469 387.63437 688.97815 388.10312Q690.47815 388.79062 691.1813 389.85312Q691.9 390.91562 691.9 392.29062Q691.9 393.66562 691.1188 394.88437Q690.3375 396.0875 688.8688 396.775Q687.4 397.44687 685.5563 397.44687Q683.22815 397.44687 681.65 396.775Q680.0719 396.0875 679.16565 394.72812Q678.275 393.35312 678.22815 391.63437ZM695.0094 397.15L695.0094 379.9625L700.91565 379.9625Q702.9313 379.9625 703.97815 380.2125Q705.4625 380.55624 706.4938 381.44687Q707.85315 382.5875 708.525 384.38437Q709.2125 386.16562 709.2125 388.4625Q709.2125 390.41562 708.7438 391.93124Q708.29065 393.44687 707.5719 394.44687Q706.8688 395.43124 706.0094 395.99374Q705.16565 396.55624 703.9625 396.85312Q702.7594 397.15 701.1969 397.15L695.0094 397.15ZM697.275 395.11874L700.9469 395.11874Q702.65 395.11874 703.60315 394.80624Q704.5719 394.49374 705.15 393.91562Q705.9625 393.10312 706.41565 391.74374Q706.8688 390.36874 706.8688 388.43124Q706.8688 385.72812 705.97815 384.29062Q705.0875 382.8375 703.8219 382.35312Q702.91565 381.99374 700.8844 381.99374L697.275 381.99374L697.275 395.11874Z" fill-rule="nonzero"/><path fill="#9e9e9e" d="M644.15 423.65L646.3688 423.4625Q646.60315 425.07187 647.4938 425.9Q648.4 426.7125 649.66565 426.7125Q651.1969 426.7125 652.2438 425.57187Q653.3063 424.41562 653.3063 422.50937Q653.3063 420.7125 652.29065 419.66562Q651.275 418.61874 649.6344 418.61874Q648.6188 418.61874 647.79065 419.0875Q646.97815 419.54062 646.5094 420.29062L644.525 420.025L646.1813 411.19687L654.72815 411.19687L654.72815 413.2125L647.8688 413.2125L646.9469 417.8375Q648.4938 416.75937 650.1969 416.75937Q652.4469 416.75937 653.9938 418.32187Q655.54065 419.86874 655.54065 422.32187Q655.54065 424.65 654.1813 426.35312Q652.525 428.44687 649.66565 428.44687Q647.3219 428.44687 645.8375 427.13437Q644.35315 425.82187 644.15 423.65ZM657.15 423.65L659.3688 423.4625Q659.60315 425.07187 660.4938 425.9Q661.4 426.7125 662.66565 426.7125Q664.1969 426.7125 665.2438 425.57187Q666.3063 424.41562 666.3063 422.50937Q666.3063 420.7125 665.29065 419.66562Q664.275 418.61874 662.6344 418.61874Q661.6188 418.61874 660.79065 419.0875Q659.97815 419.54062 659.5094 420.29062L657.525 420.025L659.1813 411.19687L667.72815 411.19687L667.72815 413.2125L660.8688 413.2125L659.9469 417.8375Q661.4938 416.75937 663.1969 416.75937Q665.4469 416.75937 666.9938 418.32187Q668.54065 419.86874 668.54065 422.32187Q668.54065 424.65 667.1813 426.35312Q665.525 428.44687 662.66565 428.44687Q660.3219 428.44687 658.8375 427.13437Q657.35315 425.82187 657.15 423.65ZM671.3375 428.15L671.3375 425.74374L673.72815 425.74374L673.72815 428.15L671.3375 428.15ZM688.0875 415.18124L685.9938 415.3375Q685.7125 414.10312 685.1969 413.54062Q684.3375 412.63437 683.0875 412.63437Q682.0875 412.63437 681.3219 413.19687Q680.3219 413.91562 679.7438 415.32187Q679.1813 416.7125 679.15 419.29062Q679.91565 418.13437 681.0094 417.57187Q682.1188 417.00937 683.3219 417.00937Q685.4313 417.00937 686.91565 418.55624Q688.4 420.10312 688.4 422.57187Q688.4 424.18124 687.6969 425.57187Q687.0094 426.9625 685.79065 427.7125Q684.5719 428.44687 683.025 428.44687Q680.3844 428.44687 678.7125 426.50937Q677.0563 424.55624 677.0563 420.10312Q677.0563 415.13437 678.9 412.86874Q680.4938 410.9 683.2125 410.9Q685.2438 410.9 686.54065 412.04062Q687.8375 413.16562 688.0875 415.18124ZM679.47815 422.5875Q679.47815 423.66562 679.9313 424.66562Q680.4 425.66562 681.22815 426.19687Q682.0719 426.7125 682.97815 426.7125Q684.3219 426.7125 685.275 425.63437Q686.2438 424.55624 686.2438 422.69687Q686.2438 420.91562 685.29065 419.9Q684.3375 418.86874 682.9 418.86874Q681.47815 418.86874 680.47815 419.9Q679.47815 420.91562 679.47815 422.5875ZM690.54065 415.0875Q690.54065 413.25937 691.4625 411.97812Q692.4 410.68124 694.15 410.68124Q695.775 410.68124 696.8375 411.8375Q697.9 412.97812 697.9 415.22812Q697.9 417.4 696.8219 418.5875Q695.7438 419.75937 694.1813 419.75937Q692.6188 419.75937 691.5719 418.60312Q690.54065 417.43124 690.54065 415.0875ZM694.2125 412.13437Q693.4313 412.13437 692.9 412.82187Q692.3844 413.49374 692.3844 415.30624Q692.3844 416.9625 692.91565 417.63437Q693.4469 418.30624 694.2125 418.30624Q695.0094 418.30624 695.525 417.63437Q696.0563 416.94687 696.0563 415.13437Q696.0563 413.47812 695.525 412.80624Q694.9938 412.13437 694.2125 412.13437ZM694.22815 428.79062L703.6188 410.68124L705.3375 410.68124L695.97815 428.79062L694.22815 428.79062ZM701.65 424.11874Q701.65 422.25937 702.5719 420.97812Q703.5094 419.69687 705.275 419.69687Q706.9 419.69687 707.9469 420.85312Q709.0094 422.00937 709.0094 424.24374Q709.0094 426.43124 707.9313 427.61874Q706.8688 428.79062 705.29065 428.79062Q703.72815 428.79062 702.6813 427.61874Q701.65 426.44687 701.65 424.11874ZM705.3375 421.15Q704.54065 421.15 704.0094 421.8375Q703.4938 422.50937 703.4938 424.32187Q703.4938 425.9625 704.025 426.65Q704.5563 427.32187 705.3219 427.32187Q706.1344 427.32187 706.65 426.65Q707.1813 425.9625 707.1813 424.16562Q707.1813 422.49374 706.65 421.82187Q706.1188 421.15 705.3375 421.15Z" fill-rule="nonzero"/><path stroke="#757575" stroke-width="1.0" stroke-linecap="butt" d="M710.15 404.65L578.15 404.65L366.5 423.8675" fill-rule="nonzero"/><path fill="#9e9e9e" d="M368.5 423.8675C368.5 422.76294 367.60458 421.8675 366.5 421.8675C365.39542 421.8675 364.5 422.76294 364.5 423.8675C364.5 424.97208 365.39542 425.8675 366.5 425.8675C367.60458 425.8675 368.5 424.97208 368.5 423.8675" fill-rule="nonzero"/></svg>